<svg version="1.1" xmlns="http://www.w3.org/2000/svg" xmlns:xlink="http://www.w3.org/1999/xlink" width="56.14285" height="59.08749" viewBox="0,0,56.14285,59.08749"><defs><radialGradient cx="320.41643" cy="180" r="22.51214" gradientUnits="userSpaceOnUse" id="color-1"><stop offset="0" stop-color="#4200ff"/><stop offset="1" stop-color="#4200ff" stop-opacity="0"/></radialGradient><radialGradient cx="320.41643" cy="180" r="22.51214" gradientUnits="userSpaceOnUse" id="color-2"><stop offset="0" stop-color="#ff0000"/><stop offset="1" stop-color="#ff0000" stop-opacity="0"/></radialGradient><radialGradient cx="320.41643" cy="180" r="15.69028" gradientUnits="userSpaceOnUse" id="color-3"><stop offset="0" stop-color="#ff0000"/><stop offset="1" stop-color="#ff0000" stop-opacity="0"/></radialGradient><radialGradient cx="317.29785" cy="180" r="22.51214" gradientUnits="userSpaceOnUse" id="color-4"><stop offset="0" stop-color="#4200ff"/><stop offset="1" stop-color="#4200ff" stop-opacity="0"/></radialGradient><radialGradient cx="317.29785" cy="180" r="22.51214" gradientUnits="userSpaceOnUse" id="color-5"><stop offset="0" stop-color="#ff0000"/><stop offset="1" stop-color="#ff0000" stop-opacity="0"/></radialGradient><radialGradient cx="317.29785" cy="180" r="15.69028" gradientUnits="userSpaceOnUse" id="color-6"><stop offset="0" stop-color="#ff0000"/><stop offset="1" stop-color="#ff0000" stop-opacity="0"/></radialGradient></defs><g transform="translate(-290.78571,-147.42464)"><g data-paper-data="{&quot;isPaintingLayer&quot;:true}" fill-rule="nonzero" stroke-linecap="butt" stroke-linejoin="miter" stroke-miterlimit="10" stroke-dasharray="" stroke-dashoffset="0" style="mix-blend-mode: normal"><g stroke-width="8"><path d="M297.90428,180c0,-12.43312 10.07903,-22.51214 22.51214,-22.51214c12.43312,0 22.51214,10.07903 22.51214,22.51214c0,12.43312 -10.07903,22.51214 -22.51214,22.51214c-12.43312,0 -22.51214,-10.07903 -22.51214,-22.51214z" fill="url(#color-1)" stroke="url(#color-2)"/><path d="M304.72615,180c0,-8.66551 7.02477,-15.69028 15.69028,-15.69028c8.66551,0 15.69028,7.02477 15.69028,15.69028c0,8.66551 -7.02477,15.69028 -15.69028,15.69028c-8.66551,0 -15.69028,-7.02477 -15.69028,-15.69028z" fill="none" stroke="url(#color-3)"/></g><g stroke-width="8"><path d="M294.78571,180c0,-12.43312 10.07903,-22.51214 22.51214,-22.51214c12.43312,0 22.51214,10.07903 22.51214,22.51214c0,12.43312 -10.07903,22.51214 -22.51214,22.51214c-12.43312,0 -22.51214,-10.07903 -22.51214,-22.51214z" fill="url(#color-4)" stroke="url(#color-5)"/><path d="M301.60757,180c0,-8.6655 7.02479,-15.69028 15.69028,-15.69028c8.6655,0 15.69028,7.02479 15.69028,15.69028c0,8.6655 -7.02479,15.69028 -15.69028,15.69028c-8.6655,0 -15.69028,-7.02479 -15.69028,-15.69028z" fill="none" stroke="url(#color-6)"/></g><text transform="translate(298.8553,157.11643) scale(0.20828,0.20828)" font-size="40" xml:space="preserve" fill="#00ff08" fill-rule="nonzero" stroke="#00ff09" stroke-width="2" stroke-linecap="butt" stroke-linejoin="miter" stroke-miterlimit="10" stroke-dasharray="" stroke-dashoffset="0" font-family="&quot;MV Boli&quot;, Technological" font-weight="normal" text-anchor="start" style="mix-blend-mode: normal"><tspan x="0" dy="0">Warp Gate</tspan></text></g></g></svg>