<svg version="1.1" xmlns="http://www.w3.org/2000/svg" xmlns:xlink="http://www.w3.org/1999/xlink" width="64.37064" height="42.17506" viewBox="0,0,64.37064,42.17506"><defs><radialGradient cx="351.03293" cy="182.3196" r="12.25019" gradientUnits="userSpaceOnUse" id="color-1"><stop offset="0" stop-color="#980000"/><stop offset="1" stop-color="#980000" stop-opacity="0"/></radialGradient><radialGradient cx="320" cy="180" r="21.08753" gradientUnits="userSpaceOnUse" id="color-2"><stop offset="0" stop-color="#980000"/><stop offset="1" stop-color="#980000" stop-opacity="0"/></radialGradient><radialGradient cx="320.05501" cy="180.09739" r="5.37704" gradientUnits="userSpaceOnUse" id="color-3"><stop offset="0" stop-color="#030303"/><stop offset="1" stop-color="#000000" stop-opacity="0.16078"/></radialGradient><radialGradient cx="320.05501" cy="180.09739" r="4.34459" gradientUnits="userSpaceOnUse" id="color-4"><stop offset="0" stop-color="#252525"/><stop offset="1" stop-color="#000000"/></radialGradient><radialGradient cx="320.05501" cy="180.09739" r="2.27477" gradientUnits="userSpaceOnUse" id="color-5"><stop offset="0" stop-color="#630000"/><stop offset="1" stop-color="#630000" stop-opacity="0"/></radialGradient></defs><g transform="translate(-298.91247,-158.91247)"><g stroke-width="0" stroke-miterlimit="10"><path d="M349.43309,185.18088v-5.50925h5.32852v5.50925z" fill="#ab0000" stroke="#000000"/><path d="M330.36671,185.27726c-1.52861,0 -2.7678,-1.40281 -2.7678,-3.13326v-3.5955c0,-1.73045 1.23918,-3.13326 2.7678,-3.13326h3.85274c1.52861,0 2.7678,1.40281 2.7678,3.13326v3.5955c0,1.73045 -1.23918,3.13326 -2.7678,3.13326z" fill="#980000" stroke="none"/><path d="M344.89129,186.2263c-1.06509,0 -1.92853,-1.40281 -1.92853,-3.13326v-1.58479c0,-1.73045 0.86343,-3.13326 1.92853,-3.13326h5.27754c1.06509,0 1.92853,1.40281 1.92853,3.13326v1.58479c0,1.73045 -0.86343,3.13326 -1.92853,3.13326z" fill="#6a0000" stroke="none"/><path d="M323.07444,186.81955c0,-1.73045 1.23918,-3.13326 2.7678,-3.13326h3.59901c1.52861,0 2.7678,1.40281 2.7678,3.13326v4.07424c0,1.73045 -1.23918,3.13326 -2.7678,3.13326h-3.59901c-1.52861,0 -2.7678,-1.40281 -2.7678,-3.13326z" fill="#424242" stroke="none"/><path d="M323.07444,169.10621c0,-1.73045 1.23918,-3.13326 2.7678,-3.13326h3.59901c1.52861,0 2.7678,1.40281 2.7678,3.13326v4.07424c0,1.73045 -1.23918,3.13326 -2.7678,3.13326h-3.59901c-1.52861,0 -2.7678,-1.40281 -2.7678,-3.13326z" fill="#424242" stroke="none"/><path d="M320.05502,169.66088c5.09161,0 9.21918,4.67258 9.21918,10.43651c0,5.76393 -4.12757,10.43651 -9.21918,10.43651c-5.09161,0 -9.21918,-4.67258 -9.21918,-10.43651c0,-5.76393 4.12757,-10.43651 9.21918,-10.43651z" fill="#7c0000" stroke="#000000"/><path d="M316.92556,190.89379c0,1.73045 -1.23918,3.13326 -2.7678,3.13326h-3.59901c-1.52861,0 -2.7678,-1.40281 -2.7678,-3.13326v-4.07424c0,-1.73045 1.23918,-3.13326 2.7678,-3.13326h3.59901c1.52861,0 2.7678,1.40281 2.7678,3.13326z" fill="#424242" stroke="none"/><path d="M316.92556,173.18045c0,1.73045 -1.23918,3.13326 -2.7678,3.13326h-3.59901c-1.52861,0 -2.7678,-1.40281 -2.7678,-3.13326v-4.07424c0,-1.73045 1.23918,-3.13326 2.7678,-3.13326h3.59901c1.52861,0 2.7678,1.40281 2.7678,3.13326z" fill="#424242" stroke="none"/><path d="M315.83222,181.91107c-0.86759,0 -1.57091,-0.79619 -1.57091,-1.77834v-2.04069c0,-0.98215 0.70332,-1.77834 1.57091,-1.77834h2.18669c0.86759,0 1.57091,0.79619 1.57091,1.77834v2.04069c0,0.98215 -0.70332,1.77834 -1.57091,1.77834z" fill="#980000" stroke="none"/><path d="M321.16076,187.50844c-0.86759,0 -1.57091,-0.79619 -1.57091,-1.77834v-2.04069c0,-0.98215 0.70332,-1.77834 1.57091,-1.77834h2.18669c0.86759,0 1.57091,0.79619 1.57091,1.77834v2.04069c0,0.98215 -0.70332,1.77834 -1.57091,1.77834z" fill="#980000" stroke="none"/><path d="M320.21041,176.31371c-0.86759,0 -1.57091,-0.79619 -1.57091,-1.77834v-2.04069c0,-0.98215 0.70332,-1.77834 1.57091,-1.77834h2.18669c0.86759,0 1.57091,0.79619 1.57091,1.77834v2.04069c0,0.98215 -0.70332,1.77834 -1.57091,1.77834z" fill="#980000" stroke="none"/><path d="M323.825,181.91107c-0.86759,0 -1.57091,-0.79619 -1.57091,-1.77834v-2.04069c0,-0.98215 0.70332,-1.77834 1.57091,-1.77834h2.18669c0.86759,0 1.57091,0.79619 1.57091,1.77834v2.04069c0,0.98215 -0.70332,1.77834 -1.57091,1.77834z" fill="#980000" stroke="none"/><g><path d="M339.11799,184.62756v-4.50014h5.32852v4.50014z" fill="#6b2f2f" stroke="#000000"/><path d="M336.4268,182.37749c-1.52861,0 -2.7678,-1.40281 -2.7678,-3.13326v-1.58479c0,-1.73045 1.23918,-3.13326 2.7678,-3.13326h7.57425c1.52861,0 2.7678,1.40281 2.7678,3.13326v1.58479c0,1.73045 -1.23918,3.13326 -2.7678,3.13326z" fill="#6a0000" stroke="none"/></g><path d="M338.78273,182.3196c0,-6.76559 5.4846,-12.25019 12.25019,-12.25019c6.76559,0 12.25019,5.4846 12.25019,12.25019c0,6.76559 -5.4846,12.2502 -12.25019,12.2502c-6.76559,0 -12.25019,-5.4846 -12.25019,-12.2502z" fill="url(#color-1)" stroke="#000000"/><path d="M298.91247,180c0,-11.64632 9.44121,-21.08753 21.08753,-21.08753c11.64632,0 21.08753,9.44121 21.08753,21.08753c0,11.64632 -9.44121,21.08753 -21.08753,21.08753c-11.64632,0 -21.08753,-9.44121 -21.08753,-21.08753z" fill="url(#color-2)" stroke="#000000"/><g stroke="#000000"><path d="M314.67798,180.09739c0,-3.36179 2.40738,-6.08704 5.37703,-6.08704c2.96966,0 5.37704,2.72526 5.37704,6.08704c0,3.36179 -2.40738,6.08705 -5.37704,6.08705c-2.96966,0 -5.37703,-2.72526 -5.37703,-6.08705z" fill="url(#color-3)"/><path d="M315.71042,180.09739c0,-2.71628 1.94514,-4.91827 4.34459,-4.91827c2.39946,0 4.34459,2.20198 4.34459,4.91827c0,2.71628 -1.94514,4.91827 -4.34459,4.91827c-2.39946,0 -4.34459,-2.20198 -4.34459,-4.91827z" fill="url(#color-4)"/><path d="M319.43918,180.09739c0,-0.69564 0.27572,-1.25958 0.61585,-1.25958c0.34012,0 0.61584,0.56393 0.61584,1.25958c0,0.69564 -0.27572,1.25958 -0.61584,1.25958c-0.34012,0 -0.61585,-0.56393 -0.61585,-1.25958z" fill="#630000"/><path d="M319.6422,180.09739c0,-0.25809 0.18483,-0.46733 0.41281,-0.46733c0.228,0 0.41279,0.20922 0.41279,0.46733c0,0.25809 -0.18482,0.46733 -0.41279,0.46733c-0.228,0 -0.41281,-0.20922 -0.41281,-0.46733z" fill="#000000"/><path d="M317.78024,180.09739c0,-1.4222 1.01845,-2.57514 2.27477,-2.57514c1.25631,0 2.27477,1.15293 2.27477,2.57514c0,1.4222 -1.01846,2.57514 -2.27477,2.57514c-1.25631,0 -2.27477,-1.15293 -2.27477,-2.57514z" fill="url(#color-5)"/></g></g></g></svg>