<svg version="1.1" xmlns="http://www.w3.org/2000/svg" xmlns:xlink="http://www.w3.org/1999/xlink" width="138.92805" height="63.16781" viewBox="0,0,138.92805,63.16781"><g transform="translate(-250.53598,-209.23705)"><g data-paper-data="{&quot;isPaintingLayer&quot;:true}" fill-rule="nonzero" stroke="none" stroke-linecap="butt" stroke-linejoin="miter" stroke-miterlimit="10" stroke-dasharray="" stroke-dashoffset="0" style="mix-blend-mode: normal"><path d="M250.53598,263.71928c0,-13.63858 0,-39.27781 0,-46.58626c0,-3.82012 9.04451,-7.89597 17.50149,-7.89597c16.50117,0 75.18592,0 104.50341,0c10.25989,0 16.92315,4.54744 16.92315,8.68558c0,7.03858 0,29.64503 0,43.42786c0,6.51204 -10.91687,11.05437 -20.61152,11.05437c-17.20403,0 -73.83188,0 -102.04449,0c-9.87757,0 -16.27204,-3.46291 -16.27204,-8.68557z" fill-opacity="0.22353" fill="#8a3a00" stroke-width="0"/><text transform="translate(267.97249,249.41619) scale(0.71627,0.71627)" font-size="40" xml:space="preserve" fill="#ffa666" fill-rule="nonzero" stroke="none" stroke-width="1" stroke-linecap="butt" stroke-linejoin="miter" stroke-miterlimit="10" stroke-dasharray="" stroke-dashoffset="0" font-family="&quot;MV Boli&quot;, Sans Serif" font-weight="normal" text-anchor="start" style="mix-blend-mode: normal"><tspan x="0" dy="0">Medium</tspan></text><text transform="translate(279.81085,265.54349) scale(0.34412,0.34412)" font-size="40" xml:space="preserve" fill="#ffa166" fill-rule="nonzero" stroke="none" stroke-width="1" stroke-linecap="butt" stroke-linejoin="miter" stroke-miterlimit="10" stroke-dasharray="" stroke-dashoffset="0" font-family="&quot;MV Boli&quot;, Sans Serif" font-weight="normal" text-anchor="start" style="mix-blend-mode: normal"><tspan x="0" dy="0">(Challenging)</tspan></text></g></g></svg>