<svg version="1.1" xmlns="http://www.w3.org/2000/svg" xmlns:xlink="http://www.w3.org/1999/xlink" width="124.66066" height="124.66066" viewBox="0,0,124.66066,124.66066"><defs><radialGradient cx="319.09349" cy="173.63118" r="17.29472" gradientUnits="userSpaceOnUse" id="color-1"><stop offset="0" stop-color="#005907" stop-opacity="0"/><stop offset="1" stop-color="#005907" stop-opacity="0.4"/></radialGradient><radialGradient cx="319.09353" cy="173.63118" r="39.83033" gradientUnits="userSpaceOnUse" id="color-2"><stop offset="0" stop-color="#005907" stop-opacity="0.70196"/><stop offset="1" stop-color="#005907" stop-opacity="0"/></radialGradient></defs><g transform="translate(-256.76319,-111.30085)"><g data-paper-data="{&quot;isPaintingLayer&quot;:true}" fill-rule="nonzero" stroke-linecap="butt" stroke-linejoin="miter" stroke-miterlimit="10" stroke-dasharray="" stroke-dashoffset="0" style="mix-blend-mode: normal"><path d="M301.79882,173.63118c0,-9.55162 7.74309,-17.29471 17.29471,-17.29471c9.55162,0 17.29471,7.7431 17.29471,17.29471c0,9.55162 -7.74309,17.29471 -17.29471,17.29471c-9.55162,0 -17.29471,-7.7431 -17.29471,-17.29471z" fill="url(#color-1)" stroke="none" stroke-width="0"/><path d="M279.26319,173.63118c0,-21.9977 17.83263,-39.83033 39.83033,-39.83033c21.9977,0 39.83033,17.83263 39.83033,39.83033c0,21.9977 -17.83263,39.83033 -39.83033,39.83033c-21.9977,0 -39.83033,-17.83263 -39.83033,-39.83033z" fill="none" stroke="url(#color-2)" stroke-width="45"/></g></g></svg>