<svg version="1.1" xmlns="http://www.w3.org/2000/svg" xmlns:xlink="http://www.w3.org/1999/xlink" width="101.36786" height="101.36786" viewBox="0,0,101.36786,101.36786"><g transform="translate(-189.31607,-129.31607)"><g data-paper-data="{&quot;isPaintingLayer&quot;:true}" fill-rule="nonzero" stroke-linecap="butt" stroke-linejoin="miter" stroke-miterlimit="10" stroke-dasharray="" stroke-dashoffset="0" style="mix-blend-mode: normal"><path d="M189.31607,230.68393v-101.36786h101.36786v101.36786z" fill="none" stroke="none" stroke-width="0"/><path d="M196.4479,180c0,-24.05316 19.49894,-43.5521 43.55209,-43.5521c24.05316,0 43.5521,19.49894 43.5521,43.5521c0,24.05316 -19.49894,43.5521 -43.5521,43.5521c-24.05316,0 -43.55209,-19.49894 -43.55209,-43.5521z" fill="#4d4d4d" stroke="none" stroke-width="0"/><path d="M193.5792,180c0,-25.6375 20.7833,-46.42081 46.42079,-46.42081c25.6375,0 46.42081,20.7833 46.42081,46.42081c0,25.6375 -20.7833,46.42081 -46.42081,46.42081c-25.6375,0 -46.42079,-20.7833 -46.42079,-46.42081z" fill="none" stroke="#4d4d4d" stroke-width="2"/></g></g></svg>