<svg version="1.1" xmlns="http://www.w3.org/2000/svg" xmlns:xlink="http://www.w3.org/1999/xlink" width="59.91021" height="42.17506" viewBox="0,0,59.91021,42.17506"><defs><radialGradient cx="346.5725" cy="179.8821" r="12.25019" gradientUnits="userSpaceOnUse" id="color-1"><stop offset="0" stop-color="#980000"/><stop offset="1" stop-color="#980000" stop-opacity="0"/></radialGradient><radialGradient cx="320" cy="180" r="21.08753" gradientUnits="userSpaceOnUse" id="color-2"><stop offset="0" stop-color="#980000"/><stop offset="1" stop-color="#980000" stop-opacity="0"/></radialGradient><radialGradient cx="320.04837" cy="182.82584" r="3.6363" gradientUnits="userSpaceOnUse" id="color-3"><stop offset="0" stop-color="#030303"/><stop offset="1" stop-color="#000000" stop-opacity="0.16078"/></radialGradient><radialGradient cx="320.04837" cy="182.82584" r="2.93809" gradientUnits="userSpaceOnUse" id="color-4"><stop offset="0" stop-color="#252525"/><stop offset="1" stop-color="#000000"/></radialGradient><radialGradient cx="320.04837" cy="182.82584" r="1.53834" gradientUnits="userSpaceOnUse" id="color-5"><stop offset="0" stop-color="#630000"/><stop offset="1" stop-color="#630000" stop-opacity="0"/></radialGradient></defs><g transform="translate(-298.91247,-158.91247)"><g stroke-width="0" stroke-miterlimit="10"><g><path d="M345.26441,182.92721v-6.04929h4.68471v6.04929z" fill="#ab0000" stroke="#000000"/><path d="M341.27137,184.07511c-0.93641,0 -1.69551,-1.54031 -1.69551,-3.4404v-1.74014c0,-1.90007 0.75911,-3.4404 1.69551,-3.4404h4.63989c0.93641,0 1.69551,1.54031 1.69551,3.4404v1.74014c0,1.90007 -0.75911,3.4404 -1.69551,3.4404z" fill="#6a0000" stroke="none"/></g><path d="M328.50168,185.79456c-1.34392,0 -2.43338,-1.54031 -2.43338,-3.4404v-3.94794c0,-1.90007 1.08946,-3.4404 2.43338,-3.4404h3.38724c1.34392,0 2.43338,1.54031 2.43338,3.4404v3.94794c0,1.90007 -1.08946,3.4404 -2.43338,3.4404z" fill="#980000" stroke="none"/><path d="M322.59144,187.42591c0,-1.95285 1.11973,-3.53596 2.50097,-3.53596h3.25206c1.38125,0 2.50097,1.58309 2.50097,3.53596v4.59788c0,1.95285 -1.11973,3.53596 -2.50097,3.53596h-3.25206c-1.38125,0 -2.50097,-1.58309 -2.50097,-3.53596z" fill="#424242" stroke="none"/><path d="M322.59145,167.97623c0,-1.95285 1.11972,-3.53596 2.50097,-3.53596h3.25206c1.38125,0 2.50097,1.58309 2.50097,3.53596v4.59788c0,1.95285 -1.11972,3.53596 -2.50097,3.53596h-3.25206c-1.38125,0 -2.50097,-1.58309 -2.50097,-3.53596z" fill="#424242" stroke="none"/><path d="M320.04837,168.64739c4.47643,0 8.1053,5.13062 8.1053,11.45954c0,6.32894 -3.62887,11.45954 -8.1053,11.45954c-4.47643,0 -8.1053,-5.13062 -8.1053,-11.45954c0,-6.32894 3.62887,-11.45954 8.1053,-11.45954z" fill="#7c0000" stroke="#000000"/><path d="M317.29702,191.96164c0,1.90007 -1.08946,3.4404 -2.43338,3.4404h-3.16417c-1.34392,0 -2.43338,-1.54031 -2.43338,-3.4404v-4.47362c0,-1.90007 1.08946,-3.4404 2.43338,-3.4404h3.16417c1.34392,0 2.43338,1.54031 2.43338,3.4404z" fill="#424242" stroke="none"/><path d="M316.33033,171.97346c0,1.44264 -0.82719,2.61215 -1.84756,2.61215h-2.40243c-1.02039,0 -1.84756,-1.16949 -1.84756,-2.61215v-3.39664c0,-1.44264 0.82719,-2.61215 1.84756,-2.61215h2.40243c1.02039,0 1.84756,1.16949 1.84756,2.61215z" fill="#424242" stroke="none"/><path d="M316.33577,182.0984c-0.76277,0 -1.38111,-0.87424 -1.38111,-1.95266v-2.24073c0,-1.07843 0.61834,-1.95266 1.38111,-1.95266h1.92249c0.76277,0 1.38111,0.87424 1.38111,1.95266v2.24073c0,1.07843 -0.61834,1.95266 -1.38111,1.95266z" fill="#980000" stroke="none"/><path d="M321.02051,188.24445c-0.76277,0 -1.38111,-0.87424 -1.38111,-1.95266v-2.24073c0,-1.07843 0.61834,-1.95266 1.38111,-1.95266h1.92249c0.76277,0 1.38111,0.87424 1.38111,1.95266v2.24073c0,1.07843 -0.61834,1.95266 -1.38111,1.95266z" fill="#980000" stroke="none"/><path d="M320.185,175.95236c-0.76277,0 -1.38111,-0.87424 -1.38111,-1.95266v-2.24073c0,-1.07843 0.61834,-1.95266 1.38111,-1.95266h1.92249c0.76277,0 1.38111,0.87424 1.38111,1.95266v2.24073c0,1.07843 -0.61834,1.95266 -1.38111,1.95266z" fill="#980000" stroke="none"/><path d="M323.36286,182.0984c-0.76277,0 -1.38111,-0.87424 -1.38111,-1.95266v-2.24073c0,-1.07843 0.61834,-1.95266 1.38111,-1.95266h1.92249c0.76277,0 1.38111,0.87424 1.38111,1.95266v2.24073c0,1.07843 -0.61834,1.95266 -1.38111,1.95266z" fill="#980000" stroke="none"/><g><path d="M336.19561,186.59095v-4.94127h4.68471v4.94127z" fill="#6b2f2f" stroke="#000000"/><path d="M333.82956,184.12033c-1.34392,0 -2.43338,-1.54031 -2.43338,-3.4404v-1.74014c0,-1.90007 1.08946,-3.4404 2.43338,-3.4404h6.65911c1.34392,0 2.43338,1.54031 2.43338,3.4404v1.74014c0,1.90007 -1.08946,3.4404 -2.43338,3.4404z" fill="#6a0000" stroke="none"/></g><path d="M334.3223,179.8821c0,-6.76559 5.4846,-12.25019 12.25019,-12.25019c6.76559,0 12.25019,5.4846 12.25019,12.25019c0,6.76559 -5.4846,12.2502 -12.25019,12.2502c-6.76559,0 -12.25019,-5.4846 -12.25019,-12.2502z" fill="url(#color-1)" stroke="#000000"/><path d="M298.91247,180c0,-11.64632 9.44121,-21.08753 21.08753,-21.08753c11.64632,0 21.08753,9.44121 21.08753,21.08753c0,11.64632 -9.44121,21.08753 -21.08753,21.08753c-11.64632,0 -21.08753,-9.44121 -21.08753,-21.08753z" fill="url(#color-2)" stroke="#000000"/><g stroke="#000000"><path d="M316.41208,182.82584c0,-2.83935 1.62803,-5.14112 3.63629,-5.14112c2.00827,0 3.6363,2.30175 3.6363,5.14112c0,2.83935 -1.62803,5.14112 -3.6363,5.14112c-2.00827,0 -3.63629,-2.30175 -3.63629,-5.14112z" fill="url(#color-3)"/><path d="M317.11029,182.82584c0,-2.29418 1.31543,-4.15397 2.93809,-4.15397c1.62267,0 2.93809,1.85978 2.93809,4.15397c0,2.29418 -1.31543,4.15397 -2.93809,4.15397c-1.62267,0 -2.93809,-1.85978 -2.93809,-4.15397z" fill="url(#color-4)"/><path d="M319.63192,182.82584c0,-0.58752 0.18645,-1.06385 0.41647,-1.06385c0.23001,0 0.41647,0.4763 0.41647,1.06385c0,0.58752 -0.18645,1.06385 -0.41647,1.06385c-0.23001,0 -0.41647,-0.4763 -0.41647,-1.06385z" fill="#630000"/><path d="M319.7692,182.82584c0,-0.21799 0.125,-0.39471 0.27917,-0.39471c0.15419,0 0.27917,0.17671 0.27917,0.39471c0,0.21799 -0.12499,0.39471 -0.27917,0.39471c-0.15419,0 -0.27917,-0.17671 -0.27917,-0.39471z" fill="#000000"/><path d="M318.51003,182.82584c0,-1.20119 0.68874,-2.17497 1.53834,-2.17497c0.8496,0 1.53834,0.97377 1.53834,2.17497c0,1.20119 -0.68875,2.17497 -1.53834,2.17497c-0.8496,0 -1.53834,-0.97377 -1.53834,-2.17497z" fill="url(#color-5)"/></g></g></g></svg>