<svg version="1.1" xmlns="http://www.w3.org/2000/svg" xmlns:xlink="http://www.w3.org/1999/xlink" width="58.62064" height="42.17506" viewBox="0,0,58.62064,42.17506"><defs><radialGradient cx="345.28293" cy="180.10693" r="12.25019" gradientUnits="userSpaceOnUse" id="color-1"><stop offset="0" stop-color="#980000"/><stop offset="1" stop-color="#980000" stop-opacity="0"/></radialGradient><radialGradient cx="320" cy="180" r="21.08753" gradientUnits="userSpaceOnUse" id="color-2"><stop offset="0" stop-color="#980000"/><stop offset="1" stop-color="#980000" stop-opacity="0"/></radialGradient><radialGradient cx="320.04837" cy="184.70084" r="3.6363" gradientUnits="userSpaceOnUse" id="color-3"><stop offset="0" stop-color="#030303"/><stop offset="1" stop-color="#000000" stop-opacity="0.16078"/></radialGradient><radialGradient cx="320.04837" cy="184.70084" r="2.93809" gradientUnits="userSpaceOnUse" id="color-4"><stop offset="0" stop-color="#252525"/><stop offset="1" stop-color="#000000"/></radialGradient><radialGradient cx="320.04837" cy="184.70084" r="1.53834" gradientUnits="userSpaceOnUse" id="color-5"><stop offset="0" stop-color="#630000"/><stop offset="1" stop-color="#630000" stop-opacity="0"/></radialGradient><radialGradient cx="320.04838" cy="183.70085" r="3.6363" gradientUnits="userSpaceOnUse" id="color-6"><stop offset="0" stop-color="#030303"/><stop offset="1" stop-color="#000000" stop-opacity="0.16078"/></radialGradient><radialGradient cx="320.04838" cy="183.70085" r="2.93809" gradientUnits="userSpaceOnUse" id="color-7"><stop offset="0" stop-color="#252525"/><stop offset="1" stop-color="#000000"/></radialGradient><radialGradient cx="320.04838" cy="183.70085" r="1.53834" gradientUnits="userSpaceOnUse" id="color-8"><stop offset="0" stop-color="#630000"/><stop offset="1" stop-color="#630000" stop-opacity="0"/></radialGradient></defs><g transform="translate(-298.91247,-158.91247)"><g stroke-width="0" stroke-miterlimit="10"><g><g><path d="M342.90317,182.92721v-6.04929h4.10845v6.04929z" fill="#ab0000" stroke="#000000"/><path d="M339.40129,184.07511c-0.82122,0 -1.48695,-1.54031 -1.48695,-3.4404v-1.74014c0,-1.90007 0.66574,-3.4404 1.48695,-3.4404h4.06915c0.82122,0 1.48695,1.54031 1.48695,3.4404v1.74014c0,1.90007 -0.66574,3.4404 -1.48695,3.4404z" fill="#6a0000" stroke="none"/></g><path d="M328.20236,185.79456c-1.17861,0 -2.13407,-1.54031 -2.13407,-3.4404v-3.94794c0,-1.90007 0.95545,-3.4404 2.13407,-3.4404h2.9706c1.17861,0 2.13407,1.54031 2.13407,3.4404v3.94794c0,1.90007 -0.95545,3.4404 -2.13407,3.4404z" fill="#980000" stroke="none"/><g><path d="M334.94989,186.59095v-4.94127h4.10845v4.94127z" fill="#6b2f2f" stroke="#000000"/><path d="M332.87487,184.12033c-1.17861,0 -2.13407,-1.54031 -2.13407,-3.4404v-1.74014c0,-1.90007 0.95545,-3.4404 2.13407,-3.4404h5.83999c1.17861,0 2.13407,1.54031 2.13407,3.4404v1.74014c0,1.90007 -0.95545,3.4404 -2.13407,3.4404z" fill="#6a0000" stroke="none"/></g></g><path d="M323.08214,187.69926c0,-1.72065 0.98659,-3.11553 2.2036,-3.11553h2.86539c1.21702,0 2.2036,1.39486 2.2036,3.11553v4.05119c0,1.72065 -0.98659,3.11553 -2.2036,3.11553h-2.86539c-1.21702,0 -2.2036,-1.39486 -2.2036,-3.11553z" fill="#424242" stroke="none"/><path d="M323.08216,168.24958c0,-1.72065 0.98658,-3.11553 2.2036,-3.11553h2.86539c1.21702,0 2.2036,1.39486 2.2036,3.11553v4.05119c0,1.72065 -0.98658,3.11553 -2.2036,3.11553h-2.86539c-1.21702,0 -2.2036,-1.39486 -2.2036,-3.11553z" fill="#424242" stroke="none"/><path d="M320.04837,168.64739c4.47643,0 8.1053,5.13062 8.1053,11.45954c0,6.32894 -3.62887,11.45954 -8.1053,11.45954c-4.47643,0 -8.1053,-5.13062 -8.1053,-11.45954c0,-6.32894 3.62887,-11.45954 8.1053,-11.45954z" fill="#7c0000" stroke="#000000"/><path d="M316.33033,191.42317c0,1.44265 -0.82718,2.61215 -1.84756,2.61215h-2.40242c-1.02038,0 -1.84756,-1.16949 -1.84756,-2.61215v-3.39664c0,-1.44265 0.82718,-2.61215 1.84756,-2.61215h2.40242c1.02038,0 1.84756,1.16949 1.84756,2.61215z" fill="#424242" stroke="none"/><path d="M315.93247,171.75185c0,1.25438 -0.71924,2.27127 -1.60646,2.27127h-2.08891c-0.88723,0 -1.60646,-1.01688 -1.60646,-2.27127v-2.95339c0,-1.25438 0.71924,-2.27127 1.60646,-2.27127h2.08891c0.88723,0 1.60646,1.01688 1.60646,2.27127z" fill="#424242" stroke="none"/><path d="M316.33577,182.0984c-0.76277,0 -1.38111,-0.87424 -1.38111,-1.95266v-2.24073c0,-1.07843 0.61834,-1.95266 1.38111,-1.95266h1.92249c0.76277,0 1.38111,0.87424 1.38111,1.95266v2.24073c0,1.07843 -0.61834,1.95266 -1.38111,1.95266z" fill="#980000" stroke="none"/><path d="M321.02051,188.24445c-0.76277,0 -1.38111,-0.87424 -1.38111,-1.95266v-2.24073c0,-1.07843 0.61834,-1.95266 1.38111,-1.95266h1.92249c0.76277,0 1.38111,0.87424 1.38111,1.95266v2.24073c0,1.07843 -0.61834,1.95266 -1.38111,1.95266z" fill="#980000" stroke="none"/><path d="M320.185,175.95236c-0.76277,0 -1.38111,-0.87424 -1.38111,-1.95266v-2.24073c0,-1.07843 0.61834,-1.95266 1.38111,-1.95266h1.92249c0.76277,0 1.38111,0.87424 1.38111,1.95266v2.24073c0,1.07843 -0.61834,1.95266 -1.38111,1.95266z" fill="#980000" stroke="none"/><path d="M323.36286,182.0984c-0.76277,0 -1.38111,-0.87424 -1.38111,-1.95266v-2.24073c0,-1.07843 0.61834,-1.95266 1.38111,-1.95266h1.92249c0.76277,0 1.38111,0.87424 1.38111,1.95266v2.24073c0,1.07843 -0.61834,1.95266 -1.38111,1.95266z" fill="#980000" stroke="none"/><path d="M333.03273,180.10693c0,-6.76559 5.4846,-12.25019 12.25019,-12.25019c6.76559,0 12.25019,5.4846 12.25019,12.25019c0,6.76559 -5.4846,12.2502 -12.25019,12.2502c-6.76559,0 -12.25019,-5.4846 -12.25019,-12.2502z" fill="url(#color-1)" stroke="#000000"/><path d="M298.91247,180c0,-11.64632 9.44121,-21.08753 21.08753,-21.08753c11.64632,0 21.08753,9.44121 21.08753,21.08753c0,11.64632 -9.44121,21.08753 -21.08753,21.08753c-11.64632,0 -21.08753,-9.44121 -21.08753,-21.08753z" fill="url(#color-2)" stroke="#000000"/><g stroke="#000000"><g><path d="M316.41208,184.70084c0,-2.83935 1.62803,-5.14112 3.63629,-5.14112c2.00827,0 3.6363,2.30175 3.6363,5.14112c0,2.83935 -1.62803,5.14112 -3.6363,5.14112c-2.00827,0 -3.63629,-2.30175 -3.63629,-5.14112z" fill="url(#color-3)"/><path d="M317.11029,184.70084c0,-2.29418 1.31543,-4.15397 2.93809,-4.15397c1.62267,0 2.93809,1.85978 2.93809,4.15397c0,2.29418 -1.31543,4.15397 -2.93809,4.15397c-1.62267,0 -2.93809,-1.85978 -2.93809,-4.15397z" fill="url(#color-4)"/><path d="M319.63192,184.70084c0,-0.58752 0.18645,-1.06385 0.41647,-1.06385c0.23001,0 0.41647,0.4763 0.41647,1.06385c0,0.58752 -0.18645,1.06385 -0.41647,1.06385c-0.23001,0 -0.41647,-0.4763 -0.41647,-1.06385z" fill="#630000"/><path d="M319.7692,184.70084c0,-0.21799 0.125,-0.39471 0.27917,-0.39471c0.15419,0 0.27917,0.17671 0.27917,0.39471c0,0.21799 -0.12499,0.39471 -0.27917,0.39471c-0.15419,0 -0.27917,-0.17671 -0.27917,-0.39471z" fill="#000000"/><path d="M318.51003,184.70084c0,-1.20119 0.68874,-2.17497 1.53834,-2.17497c0.8496,0 1.53834,0.97377 1.53834,2.17497c0,1.20119 -0.68875,2.17497 -1.53834,2.17497c-0.8496,0 -1.53834,-0.97377 -1.53834,-2.17497z" fill="url(#color-5)"/></g><g><path d="M316.41209,183.70085c0,-2.83935 1.62803,-5.14112 3.63629,-5.14112c2.00827,0 3.6363,2.30175 3.6363,5.14112c0,2.83935 -1.62803,5.14112 -3.6363,5.14112c-2.00827,0 -3.63629,-2.30175 -3.63629,-5.14112z" fill="url(#color-6)"/><path d="M317.1103,183.70085c0,-2.29418 1.31543,-4.15397 2.93809,-4.15397c1.62267,0 2.93809,1.85978 2.93809,4.15397c0,2.29418 -1.31543,4.15397 -2.93809,4.15397c-1.62267,0 -2.93809,-1.85978 -2.93809,-4.15397z" fill="url(#color-7)"/><path d="M319.63193,183.70085c0,-0.58752 0.18645,-1.06385 0.41647,-1.06385c0.23001,0 0.41647,0.4763 0.41647,1.06385c0,0.58752 -0.18645,1.06385 -0.41647,1.06385c-0.23001,0 -0.41647,-0.4763 -0.41647,-1.06385z" fill="#630000"/><path d="M319.76921,183.70085c0,-0.21799 0.125,-0.39471 0.27917,-0.39471c0.15419,0 0.27917,0.17671 0.27917,0.39471c0,0.21799 -0.12499,0.39471 -0.27917,0.39471c-0.15419,0 -0.27917,-0.17671 -0.27917,-0.39471z" fill="#000000"/><path d="M318.51004,183.70085c0,-1.20119 0.68874,-2.17497 1.53834,-2.17497c0.8496,0 1.53834,0.97377 1.53834,2.17497c0,1.20119 -0.68875,2.17497 -1.53834,2.17497c-0.8496,0 -1.53834,-0.97377 -1.53834,-2.17497z" fill="url(#color-8)"/></g></g></g></g></svg>