<svg version="1.1" xmlns="http://www.w3.org/2000/svg" xmlns:xlink="http://www.w3.org/1999/xlink" width="64.37064" height="42.17506" viewBox="0,0,64.37064,42.17506"><defs><radialGradient cx="351.03293" cy="182.3196" r="12.25019" gradientUnits="userSpaceOnUse" id="color-1"><stop offset="0" stop-color="#980000"/><stop offset="1" stop-color="#980000" stop-opacity="0"/></radialGradient><radialGradient cx="320" cy="180" r="21.08753" gradientUnits="userSpaceOnUse" id="color-2"><stop offset="0" stop-color="#980000"/><stop offset="1" stop-color="#980000" stop-opacity="0"/></radialGradient><radialGradient cx="319.99998" cy="180" r="7.77701" gradientUnits="userSpaceOnUse" id="color-3"><stop offset="0" stop-color="#030303"/><stop offset="1" stop-color="#000000" stop-opacity="0.16078"/></radialGradient><radialGradient cx="319.99998" cy="180" r="6.28373" gradientUnits="userSpaceOnUse" id="color-4"><stop offset="0" stop-color="#252525"/><stop offset="1" stop-color="#000000"/></radialGradient><radialGradient cx="319.99998" cy="180" r="3.29008" gradientUnits="userSpaceOnUse" id="color-5"><stop offset="0" stop-color="#630000"/><stop offset="1" stop-color="#630000" stop-opacity="0"/></radialGradient></defs><g transform="translate(-298.91247,-158.91247)"><g stroke-width="0" stroke-miterlimit="10"><g><path d="M352.73491,185.18088v-5.50925h6.03211v5.50925z" fill="#ab0000" stroke="#000000"/><path d="M341.05776,183.40174v-4.50014h6.03211v4.50014z" fill="#6b2f2f" stroke="#000000"/><path d="M331.15094,185.27726c-1.73045,0 -3.13326,-1.40281 -3.13326,-3.13326v-3.5955c0,-1.73045 1.40281,-3.13326 3.13326,-3.13326h4.36148c1.73045,0 3.13326,1.40281 3.13326,3.13326v3.5955c0,1.73045 -1.40281,3.13326 -3.13326,3.13326z" fill="#980000" stroke="none"/><path d="M338.01122,181.15167c-1.73045,0 -3.13326,-1.40281 -3.13326,-3.13326v-1.58479c0,-1.73045 1.40281,-3.13326 3.13326,-3.13326h8.57438c1.73045,0 3.13326,1.40281 3.13326,3.13326v1.58479c0,1.73045 -1.40281,3.13326 -3.13326,3.13326z" fill="#6a0000" stroke="none"/><path d="M347.59339,186.2263c-1.20573,0 -2.18317,-1.40281 -2.18317,-3.13326v-1.58479c0,-1.73045 0.97744,-3.13326 2.18317,-3.13326h5.97441c1.20573,0 2.18317,1.40281 2.18317,3.13326v1.58479c0,1.73045 -0.97744,3.13326 -2.18317,3.13326z" fill="#6a0000" stroke="none"/><path d="M338.78273,182.3196c0,-6.76559 5.4846,-12.25019 12.25019,-12.25019c6.76559,0 12.25019,5.4846 12.25019,12.25019c0,6.76559 -5.4846,12.2502 -12.25019,12.2502c-6.76559,0 -12.25019,-5.4846 -12.25019,-12.2502z" fill="url(#color-1)" stroke="#000000"/></g><g><path d="M323.41812,186.72216c0,-1.73045 1.40281,-3.13326 3.13326,-3.13326h4.07424c1.73045,0 3.13326,1.40281 3.13326,3.13326v4.07424c0,1.73045 -1.40281,3.13326 -3.13326,3.13326h-4.07424c-1.73045,0 -3.13326,-1.40281 -3.13326,-3.13326z" fill="#424242" stroke="none"/><path d="M323.41812,169.00882c0,-1.73045 1.40281,-3.13326 3.13326,-3.13326h4.07424c1.73045,0 3.13326,1.40281 3.13326,3.13326v4.07424c0,1.73045 -1.40281,3.13326 -3.13326,3.13326h-4.07424c-1.73045,0 -3.13326,-1.40281 -3.13326,-3.13326z" fill="#424242" stroke="none"/><path d="M320,169.56349c5.76393,0 10.43651,4.67258 10.43651,10.43651c0,5.76393 -4.67258,10.43651 -10.43651,10.43651c-5.76393,0 -10.43651,-4.67258 -10.43651,-10.43651c0,-5.76393 4.67258,-10.43651 10.43651,-10.43651z" fill="#7c0000" stroke="#000000"/><path d="M316.45733,190.7964c0,1.73045 -1.40281,3.13326 -3.13326,3.13326h-4.07424c-1.73045,0 -3.13326,-1.40281 -3.13326,-3.13326v-4.07424c0,-1.73045 1.40281,-3.13326 3.13326,-3.13326h4.07424c1.73045,0 3.13326,1.40281 3.13326,3.13326z" fill="#424242" stroke="none"/><path d="M316.45733,173.08306c0,1.73045 -1.40281,3.13326 -3.13326,3.13326h-4.07424c-1.73045,0 -3.13326,-1.40281 -3.13326,-3.13326v-4.07424c0,-1.73045 1.40281,-3.13326 3.13326,-3.13326h4.07424c1.73045,0 3.13326,1.40281 3.13326,3.13326z" fill="#424242" stroke="none"/><path d="M315.21961,181.81368c-0.98215,0 -1.77834,-0.79619 -1.77834,-1.77834v-2.04069c0,-0.98215 0.79619,-1.77834 1.77834,-1.77834h2.47543c0.98215,0 1.77834,0.79619 1.77834,1.77834v2.04069c0,0.98215 -0.79619,1.77834 -1.77834,1.77834z" fill="#980000" stroke="none"/><path d="M321.25173,187.41105c-0.98215,0 -1.77834,-0.79619 -1.77834,-1.77834v-2.04069c0,-0.98215 0.79619,-1.77834 1.77834,-1.77834h2.47543c0.98215,0 1.77834,0.79619 1.77834,1.77834v2.04069c0,0.98215 -0.79619,1.77834 -1.77834,1.77834z" fill="#980000" stroke="none"/><path d="M320.17594,176.21632c-0.98215,0 -1.77834,-0.79619 -1.77834,-1.77834v-2.04069c0,-0.98215 0.79619,-1.77834 1.77834,-1.77834h2.47543c0.98215,0 1.77834,0.79619 1.77834,1.77834v2.04069c0,0.98215 -0.79619,1.77834 -1.77834,1.77834z" fill="#980000" stroke="none"/><path d="M324.26778,181.81368c-0.98215,0 -1.77834,-0.79619 -1.77834,-1.77834v-2.04069c0,-0.98215 0.79619,-1.77834 1.77834,-1.77834h2.47543c0.98215,0 1.77834,0.79619 1.77834,1.77834v2.04069c0,0.98215 -0.79619,1.77834 -1.77834,1.77834z" fill="#980000" stroke="none"/><path d="M298.91247,180c0,-11.64632 9.44121,-21.08753 21.08753,-21.08753c11.64632,0 21.08753,9.44121 21.08753,21.08753c0,11.64632 -9.44121,21.08753 -21.08753,21.08753c-11.64632,0 -21.08753,-9.44121 -21.08753,-21.08753z" fill="url(#color-2)" stroke="#000000"/></g><g stroke="#000000"><path d="M312.22299,180c0,-4.29513 3.48188,-7.77701 7.77701,-7.77701c4.29512,0 7.77701,3.48188 7.77701,7.77701c0,4.29513 -3.48188,7.77701 -7.77701,7.77701c-4.29512,0 -7.77701,-3.48188 -7.77701,-7.77701z" fill="url(#color-3)"/><path d="M313.71627,180c0,-3.47041 2.81332,-6.28373 6.28373,-6.28373c3.47041,0 6.28373,2.81332 6.28373,6.28373c0,3.47041 -2.81332,6.28373 -6.28373,6.28373c-3.47041,0 -6.28373,-2.81332 -6.28373,-6.28373z" fill="url(#color-4)"/><path d="M319.1093,180c0,-0.88878 0.39879,-1.60928 0.89072,-1.60928c0.49193,0 0.8907,0.7205 0.8907,1.60928c0,0.88878 -0.39879,1.60928 -0.8907,1.60928c-0.49193,0 -0.89072,-0.7205 -0.89072,-1.60928z" fill="#630000"/><path d="M319.40294,180c0,-0.32975 0.26732,-0.59708 0.59708,-0.59708c0.32975,0 0.59706,0.26732 0.59706,0.59708c0,0.32975 -0.26731,0.59708 -0.59706,0.59708c-0.32975,0 -0.59708,-0.26732 -0.59708,-0.59708z" fill="#000000"/><path d="M316.70992,180c0,-1.81705 1.47301,-3.29008 3.29006,-3.29008c1.81705,0 3.29008,1.47302 3.29008,3.29008c0,1.81705 -1.47302,3.29008 -3.29008,3.29008c-1.81705,0 -3.29006,-1.47302 -3.29006,-3.29008z" fill="url(#color-5)"/></g></g></g></svg>