<svg version="1.1" xmlns="http://www.w3.org/2000/svg" xmlns:xlink="http://www.w3.org/1999/xlink" width="21.25" height="21.25" viewBox="0,0,21.25,21.25"><defs><radialGradient cx="320" cy="180" r="10.625" gradientUnits="userSpaceOnUse" id="color-1"><stop offset="0" stop-color="#027023" stop-opacity="0.24314"/><stop offset="1" stop-color="#027023" stop-opacity="0"/></radialGradient><radialGradient cx="318.96165" cy="180.41051" r="4.97442" gradientUnits="userSpaceOnUse" id="color-2"><stop offset="0" stop-color="#027022" stop-opacity="0.24314"/><stop offset="1" stop-color="#027022" stop-opacity="0"/></radialGradient><radialGradient cx="321.95596" cy="179.58948" r="4.97444" gradientUnits="userSpaceOnUse" id="color-3"><stop offset="0" stop-color="#027022" stop-opacity="0.24314"/><stop offset="1" stop-color="#027022" stop-opacity="0"/></radialGradient><radialGradient cx="320.65199" cy="180.41051" r="4.97443" gradientUnits="userSpaceOnUse" id="color-4"><stop offset="0" stop-color="#027022" stop-opacity="0.24314"/><stop offset="1" stop-color="#027022" stop-opacity="0"/></radialGradient><radialGradient cx="318.04404" cy="179.58948" r="4.97443" gradientUnits="userSpaceOnUse" id="color-5"><stop offset="0" stop-color="#027022" stop-opacity="0.24314"/><stop offset="1" stop-color="#027022" stop-opacity="0"/></radialGradient></defs><g transform="translate(-309.375,-169.375)"><g data-paper-data="{&quot;isPaintingLayer&quot;:true}" fill-rule="nonzero" stroke="none" stroke-linecap="butt" stroke-linejoin="miter" stroke-miterlimit="10" stroke-dasharray="" stroke-dashoffset="0" style="mix-blend-mode: normal"><path d="M309.375,180c0,-5.86802 4.75696,-10.625 10.625,-10.625c5.86804,0 10.625,4.75698 10.625,10.625c0,5.86802 -4.75696,10.625 -10.625,10.625c-5.86804,0 -10.625,-4.75698 -10.625,-10.625z" fill="url(#color-1)" stroke-width="0"/><path d="M318.06819,181.2912c-0.85353,0 -1.54545,-0.5362 -1.54545,-1.19763v-0.18713c0,-0.66143 0.69192,-1.19763 1.54545,-1.19763h3.86364c0.85353,0 1.54546,0.5362 1.54546,1.19763v0.18713c0,0.66143 -0.69193,1.19763 -1.54546,1.19763z" fill="#9ff5c5" stroke-width="NaN"/><g stroke-width="0"><path d="M313.98721,180.41051c0,-2.74731 2.22713,-4.97443 4.97444,-4.97443c2.7473,0 4.97442,2.22713 4.97442,4.97444c0,2.74731 -2.22712,4.97444 -4.97442,4.97444c-2.7473,0 -4.97444,-2.22711 -4.97444,-4.97443z" fill="url(#color-2)"/><path d="M316.98154,179.58948c0,-2.74731 2.22713,-4.97443 4.97442,-4.97443c2.7473,0 4.97444,2.22711 4.97444,4.97444c0,2.74731 -2.22714,4.97442 -4.97444,4.97442c-2.7473,0 -4.97442,-2.22712 -4.97442,-4.97442z" fill="url(#color-3)"/><path d="M315.67755,180.41051c0,-2.74731 2.22713,-4.97443 4.97444,-4.97443c2.7473,0 4.97443,2.22713 4.97443,4.97444c0,2.74731 -2.22713,4.97444 -4.97443,4.97444c-2.7473,0 -4.97444,-2.22711 -4.97444,-4.97443z" fill="url(#color-4)"/><path d="M313.0696,179.58948c0,-2.74731 2.22714,-4.97443 4.97444,-4.97443c2.7473,0 4.97443,2.22711 4.97443,4.97444c0,2.74731 -2.22713,4.97442 -4.97443,4.97442c-2.7473,0 -4.97444,-2.22712 -4.97444,-4.97442z" fill="url(#color-5)"/></g></g></g></svg>