<svg version="1.1" xmlns="http://www.w3.org/2000/svg" xmlns:xlink="http://www.w3.org/1999/xlink" width="80.26484" height="50.66054" viewBox="0,0,80.26484,50.66054"><defs><radialGradient cx="298.22033" cy="132.42131" r="10.81884" gradientUnits="userSpaceOnUse" id="color-1"><stop offset="0" stop-color="#ba0000" stop-opacity="0.3451"/><stop offset="1" stop-color="#ba0000" stop-opacity="0"/></radialGradient></defs><g transform="translate(-229.77434,-117.62381)"><g data-paper-data="{&quot;isPaintingLayer&quot;:true}" fill-rule="nonzero" stroke-linecap="butt" stroke-linejoin="miter" stroke-miterlimit="10" stroke-dasharray="" stroke-dashoffset="0" style="mix-blend-mode: normal"><path d="M241.62929,166.78435c-5.71888,0 -10.35495,-4.13788 -10.35495,-9.24221v-15.04545c0,-5.10433 4.63607,-9.2422 10.35495,-9.2422h46.23609c5.71889,0 10.35495,4.13788 10.35495,9.2422v15.04545c0,5.10433 -4.63606,9.24221 -10.35495,9.24221z" fill-opacity="0.70196" fill="#000000" stroke="#000000" stroke-width="3"/><g fill="#ff0000" stroke="#000000" stroke-width="0"><g><path d="M270.9063,144.36986c0,1.18612 0,4.70831 0,6.93578c0,1.12264 -3.23498,1.91635 -3.23498,1.91635c0,0 1.39439,-1.63099 1.78394,-3.17175c0.39349,-1.55642 -0.2178,-3.02755 -0.2178,-4.00237c0,-1.32342 -1.56615,-3.33956 -1.56615,-3.33956c0,0 3.23498,0.88868 3.23498,1.66155z"/><path d="M272.56784,151.60452c1.18611,0 4.70836,0 6.93577,0c1.12264,0 1.91631,3.23493 1.91631,3.23493c0,0 -1.63099,-1.39434 -3.17175,-1.7839c-1.55637,-0.39349 -3.02761,0.2178 -4.00237,0.2178c-1.32342,0 -3.33956,1.5661 -3.33956,1.5661c0,0 0.88868,-3.23493 1.66155,-3.23493z"/><path d="M281.41992,151.0616c0,-1.18612 0,-4.70837 0,-6.93578c0,-1.12264 3.23493,-1.9163 3.23493,-1.9163c0,0 -1.39434,1.63098 -1.78389,3.17174c-0.39349,1.55637 0.2178,3.02757 0.2178,4.00233c0,1.32347 1.5661,3.33957 1.5661,3.33957c0,0 -3.23493,-0.88869 -3.23493,-1.66156z"/><path d="M272.5678,143.65274c-0.77287,0 -1.66155,-3.23493 -1.66155,-3.23493c0,0 2.01614,1.5661 3.33956,1.5661c0.97476,0 2.446,0.61129 4.00237,0.2178c1.54076,-0.38956 3.17175,-1.7839 3.17175,-1.7839c0,0 -0.79367,3.23493 -1.91631,3.23493c-2.22741,0 -5.74966,0 -6.93577,0z" data-paper-data="{&quot;index&quot;:null}"/></g><g><path d="M274.30755,147.4597c0,1.18612 0,4.70831 0,6.93577c0,1.12264 -3.23498,1.91635 -3.23498,1.91635c0,0 1.39439,-1.63099 1.78394,-3.17175c0.39349,-1.55642 -0.2178,-3.02755 -0.2178,-4.00237c0,-1.32342 -1.56615,-3.33957 -1.56615,-3.33957c0,0 3.23498,0.88869 3.23498,1.66156z"/><path d="M275.9691,154.69436c1.18611,0 4.70836,0 6.93577,0c1.12264,0 1.91631,3.23493 1.91631,3.23493c0,0 -1.63099,-1.39434 -3.17175,-1.7839c-1.55637,-0.39349 -3.02761,0.21779 -4.00237,0.21779c-1.32342,0 -3.33956,1.5661 -3.33956,1.5661c0,0 0.88868,-3.23493 1.66155,-3.23493z"/><path d="M284.82117,154.15144c0,-1.18612 0,-4.70836 0,-6.93577c0,-1.12264 3.23493,-1.91631 3.23493,-1.91631c0,0 -1.39434,1.63099 -1.78389,3.17175c-0.39349,1.55637 0.2178,3.02756 0.2178,4.00232c0,1.32347 1.5661,3.33957 1.5661,3.33957c0,0 -3.23493,-0.88869 -3.23493,-1.66156z"/><path d="M275.96905,146.74257c-0.77287,0 -1.66155,-3.23493 -1.66155,-3.23493c0,0 2.01614,1.56609 3.33956,1.56609c0.97476,0 2.446,0.61129 4.00237,0.2178c1.54076,-0.38956 3.17175,-1.78389 3.17175,-1.78389c0,0 -0.79368,3.23493 -1.91631,3.23493c-2.22741,0 -5.74966,0 -6.93577,0z" data-paper-data="{&quot;index&quot;:null}"/></g><g><path d="M277.38912,150.04755c0,1.18612 0,4.70831 0,6.93578c0,1.12264 -3.23497,1.91635 -3.23497,1.91635c0,0 1.39438,-1.63099 1.78394,-3.17175c0.39349,-1.55642 -0.2178,-3.02755 -0.2178,-4.00237c0,-1.32342 -1.56614,-3.33957 -1.56614,-3.33957c0,0 3.23497,0.88869 3.23497,1.66156z"/><path d="M279.05068,157.28221c1.18611,0 4.70836,0 6.93577,0c1.12264,0 1.91631,3.23494 1.91631,3.23494c0,0 -1.63099,-1.39434 -3.17174,-1.7839c-1.55637,-0.39349 -3.02762,0.21779 -4.00238,0.21779c-1.32342,0 -3.33956,1.5661 -3.33956,1.5661c0,0 0.88869,-3.23494 1.66156,-3.23494z"/><path d="M287.90275,156.73929c0,-1.18612 0,-4.70837 0,-6.93578c0,-1.12264 3.23494,-1.9163 3.23494,-1.9163c0,0 -1.39434,1.63098 -1.78389,3.17174c-0.39349,1.55637 0.21779,3.02757 0.21779,4.00233c0,1.32347 1.5661,3.33956 1.5661,3.33956c0,0 -3.23494,-0.88868 -3.23494,-1.66155z"/><path d="M279.05063,149.33043c-0.77287,0 -1.66156,-3.23493 -1.66156,-3.23493c0,0 2.01614,1.5661 3.33956,1.5661c0.97476,0 2.44601,0.61129 4.00238,0.21779c1.54076,-0.38956 3.17174,-1.78389 3.17174,-1.78389c0,0 -0.79367,3.23493 -1.91631,3.23493c-2.22741,0 -5.74966,0 -6.93577,0z" data-paper-data="{&quot;index&quot;:null}"/></g><g><path d="M280.79038,153.13739c0,1.18612 0,4.70831 0,6.93578c0,1.12264 -3.23498,1.91636 -3.23498,1.91636c0,0 1.39438,-1.63099 1.78394,-3.17175c0.39349,-1.55642 -0.21779,-3.02756 -0.21779,-4.00237c0,-1.32342 -1.56615,-3.33956 -1.56615,-3.33956c0,0 3.23498,0.88868 3.23498,1.66155z"/><path d="M282.45193,160.37205c1.18611,0 4.70836,0 6.93577,0c1.12264,0 1.91631,3.23493 1.91631,3.23493c0,0 -1.63099,-1.39434 -3.17174,-1.7839c-1.55637,-0.39349 -3.02761,0.2178 -4.00237,0.2178c-1.32342,0 -3.33957,1.5661 -3.33957,1.5661c0,0 0.88869,-3.23493 1.66156,-3.23493z"/><path d="M291.30401,159.82913c0,-1.18612 0,-4.70837 0,-6.93578c0,-1.12264 3.23493,-1.9163 3.23493,-1.9163c0,0 -1.39434,1.63098 -1.78389,3.17174c-0.39349,1.55637 0.21779,3.02757 0.21779,4.00233c0,1.32347 1.5661,3.33957 1.5661,3.33957c0,0 -3.23493,-0.88869 -3.23493,-1.66156z"/><path d="M282.45189,152.42027c-0.77287,0 -1.66156,-3.23493 -1.66156,-3.23493c0,0 2.01615,1.56609 3.33957,1.56609c0.97476,0 2.446,0.6113 4.00237,0.2178c1.54076,-0.38956 3.17174,-1.7839 3.17174,-1.7839c0,0 -0.79367,3.23493 -1.91631,3.23493c-2.22741,0 -5.74966,0 -6.93577,0z" data-paper-data="{&quot;index&quot;:null}"/></g></g><g fill="#ffffff" stroke="#ffffff" stroke-width="0" font-weight="normal" font-size="40" text-anchor="start"><text transform="translate(235.50474,162.16402) scale(0.22486,0.21833)" font-size="40" xml:space="preserve" fill="#ffffff" fill-rule="nonzero" stroke="#ffffff" stroke-width="0" stroke-linecap="butt" stroke-linejoin="miter" stroke-miterlimit="10" stroke-dasharray="" stroke-dashoffset="0" font-family="&quot;MV Boli&quot;, Technological" font-weight="normal" text-anchor="start" style="mix-blend-mode: normal"><tspan x="0" dy="0">Lv</tspan></text><text transform="translate(246.31081,162.18497) scale(0.34533,0.3353)" font-size="40" xml:space="preserve" fill="#ffffff" fill-rule="nonzero" stroke="#ffffff" stroke-width="0" stroke-linecap="butt" stroke-linejoin="miter" stroke-miterlimit="10" stroke-dasharray="" stroke-dashoffset="0" font-family="Handwriting" font-weight="normal" text-anchor="start" style="mix-blend-mode: normal"><tspan x="0" dy="0">.</tspan></text></g><text transform="translate(250.74733,143.01437) scale(0.21833,0.21833)" font-size="40" xml:space="preserve" fill-opacity="0.9098" fill="#00631b" fill-rule="nonzero" stroke-opacity="0.9098" stroke="#00631b" stroke-width="1" stroke-linecap="butt" stroke-linejoin="miter" stroke-miterlimit="10" stroke-dasharray="" stroke-dashoffset="0" font-family="&quot;MV Boli&quot;, Technological" font-weight="normal" text-anchor="middle" style="mix-blend-mode: normal"><tspan x="0" dy="0">Damage</tspan><tspan x="0" dy="48px">Burst</tspan></text><g><path d="M287.40148,132.42131c0,-5.97508 4.84377,-10.81885 10.81885,-10.81885c5.97508,0 10.81884,4.84377 10.81884,10.81885c0,5.97508 -4.84377,10.81885 -10.81884,10.81885c-5.97508,0 -10.81885,-4.84376 -10.81885,-10.81885z" fill="#000000" stroke="#000000" stroke-width="2"/><text transform="translate(293.9797,139.2826) scale(0.46866,0.46866)" font-size="40" xml:space="preserve" fill-opacity="0.70196" fill="#ff0000" fill-rule="nonzero" stroke="none" stroke-width="1" stroke-linecap="butt" stroke-linejoin="miter" stroke-miterlimit="10" stroke-dasharray="" stroke-dashoffset="0" font-family="&quot;MV Boli&quot;, Pixel" font-weight="normal" text-anchor="start" style="mix-blend-mode: normal"><tspan x="0" dy="0">!</tspan></text><path d="M287.40148,132.42131c0,-5.97508 4.84377,-10.81885 10.81885,-10.81885c5.97508,0 10.81884,4.84377 10.81884,10.81885c0,5.97508 -4.84377,10.81885 -10.81884,10.81885c-5.97508,0 -10.81885,-4.84376 -10.81885,-10.81885z" fill="url(#color-1)" stroke="#000000" stroke-width="0"/></g></g></g></svg>