<svg version="1.1" xmlns="http://www.w3.org/2000/svg" xmlns:xlink="http://www.w3.org/1999/xlink" width="364" height="364" viewBox="0,0,364,364"><defs><linearGradient x1="403.6517" y1="214.67141" x2="431.47849" y2="214.67141" gradientUnits="userSpaceOnUse" id="color-1"><stop offset="0" stop-color="#585858"/><stop offset="1" stop-color="#820000"/></linearGradient><linearGradient x1="403.95525" y1="218.46597" x2="403.95525" y2="190.63918" gradientUnits="userSpaceOnUse" id="color-2"><stop offset="0" stop-color="#585858"/><stop offset="1" stop-color="#820000"/></linearGradient><linearGradient x1="403.95525" y1="214.92438" x2="376.1285" y2="214.92438" gradientUnits="userSpaceOnUse" id="color-3"><stop offset="0" stop-color="#585858"/><stop offset="1" stop-color="#820000"/></linearGradient><linearGradient x1="403.95529" y1="216.84696" x2="403.95529" y2="244.67374" gradientUnits="userSpaceOnUse" id="color-4"><stop offset="0" stop-color="#585858"/><stop offset="1" stop-color="#820000"/></linearGradient><radialGradient cx="397.20095" cy="212.92591" r="2.40322" gradientUnits="userSpaceOnUse" id="color-5"><stop offset="0" stop-color="#ffffff"/><stop offset="1" stop-color="#ffffff" stop-opacity="0"/></radialGradient><radialGradient cx="410.35543" cy="212.92591" r="2.40322" gradientUnits="userSpaceOnUse" id="color-6"><stop offset="0" stop-color="#ffffff"/><stop offset="1" stop-color="#ffffff" stop-opacity="0"/></radialGradient><radialGradient cx="403.95525" cy="215.32913" r="24.88601" gradientUnits="userSpaceOnUse" id="color-7"><stop offset="0" stop-color="#ff4b4b" stop-opacity="0.45098"/><stop offset="1" stop-color="#ff4b4b" stop-opacity="0"/></radialGradient><linearGradient x1="319.29225" y1="224.33955" x2="309.32728" y2="224.33955" gradientUnits="userSpaceOnUse" id="color-8"><stop offset="0" stop-color="#ff0000"/><stop offset="1" stop-color="#ff7100"/></linearGradient><linearGradient x1="320.13252" y1="224.33955" x2="310.16755" y2="224.33955" gradientUnits="userSpaceOnUse" id="color-9"><stop offset="0" stop-color="#ff0000"/><stop offset="1" stop-color="#ff7100"/></linearGradient><linearGradient x1="320.80473" y1="224.33955" x2="310.83977" y2="224.33955" gradientUnits="userSpaceOnUse" id="color-10"><stop offset="0" stop-color="#ff0000"/><stop offset="1" stop-color="#ff7100"/></linearGradient><linearGradient x1="321.645" y1="224.33955" x2="311.68003" y2="224.33955" gradientUnits="userSpaceOnUse" id="color-11"><stop offset="0" stop-color="#ff0000"/><stop offset="1" stop-color="#ff7100"/></linearGradient><linearGradient x1="322.48527" y1="224.33955" x2="312.5203" y2="224.33955" gradientUnits="userSpaceOnUse" id="color-12"><stop offset="0" stop-color="#ff0000"/><stop offset="1" stop-color="#ff7100"/></linearGradient><linearGradient x1="323.32554" y1="224.33955" x2="313.36057" y2="224.33955" gradientUnits="userSpaceOnUse" id="color-13"><stop offset="0" stop-color="#ff0000"/><stop offset="1" stop-color="#ff7100"/></linearGradient><linearGradient x1="324.16581" y1="224.33955" x2="314.20085" y2="224.33955" gradientUnits="userSpaceOnUse" id="color-14"><stop offset="0" stop-color="#ff0000"/><stop offset="1" stop-color="#ff7100"/></linearGradient><linearGradient x1="319.29225" y1="202.36487" x2="309.32728" y2="202.36487" gradientUnits="userSpaceOnUse" id="color-15"><stop offset="0" stop-color="#ff0000"/><stop offset="1" stop-color="#ff7100"/></linearGradient><linearGradient x1="320.13252" y1="202.36487" x2="310.16755" y2="202.36487" gradientUnits="userSpaceOnUse" id="color-16"><stop offset="0" stop-color="#ff0000"/><stop offset="1" stop-color="#ff7100"/></linearGradient><linearGradient x1="320.80473" y1="202.36487" x2="310.83977" y2="202.36487" gradientUnits="userSpaceOnUse" id="color-17"><stop offset="0" stop-color="#ff0000"/><stop offset="1" stop-color="#ff7100"/></linearGradient><linearGradient x1="321.645" y1="202.36487" x2="311.68003" y2="202.36487" gradientUnits="userSpaceOnUse" id="color-18"><stop offset="0" stop-color="#ff0000"/><stop offset="1" stop-color="#ff7100"/></linearGradient><linearGradient x1="322.48527" y1="202.36487" x2="312.5203" y2="202.36487" gradientUnits="userSpaceOnUse" id="color-19"><stop offset="0" stop-color="#ff0000"/><stop offset="1" stop-color="#ff7100"/></linearGradient><linearGradient x1="323.32554" y1="202.36487" x2="313.36057" y2="202.36487" gradientUnits="userSpaceOnUse" id="color-20"><stop offset="0" stop-color="#ff0000"/><stop offset="1" stop-color="#ff7100"/></linearGradient><linearGradient x1="324.16581" y1="202.36487" x2="314.20085" y2="202.36487" gradientUnits="userSpaceOnUse" id="color-21"><stop offset="0" stop-color="#ff0000"/><stop offset="1" stop-color="#ff7100"/></linearGradient><linearGradient x1="346.20571" y1="213.79477" x2="325.41008" y2="213.79477" gradientUnits="userSpaceOnUse" id="color-22"><stop offset="0" stop-color="#ff0000"/><stop offset="1" stop-color="#ff7166"/></linearGradient><linearGradient x1="358.15909" y1="213.79477" x2="342.19395" y2="213.79477" gradientUnits="userSpaceOnUse" id="color-23"><stop offset="0" stop-color="#740000"/><stop offset="1" stop-color="#ff0000"/></linearGradient><radialGradient cx="312.99561" cy="201.8607" r="10.39782" gradientUnits="userSpaceOnUse" id="color-24"><stop offset="0" stop-color="#ff6300"/><stop offset="1" stop-color="#ff6300" stop-opacity="0"/></radialGradient><radialGradient cx="312.99561" cy="224.10613" r="10.39782" gradientUnits="userSpaceOnUse" id="color-25"><stop offset="0" stop-color="#ff6300"/><stop offset="1" stop-color="#ff6300" stop-opacity="0"/></radialGradient><radialGradient cx="331.13468" cy="215.61101" r="33.49878" gradientUnits="userSpaceOnUse" id="color-26"><stop offset="0" stop-color="#ff4e00" stop-opacity="0.49799"/><stop offset="1" stop-color="#ff4e00" stop-opacity="0"/></radialGradient><linearGradient x1="233.15557" y1="211.27646" x2="275.55407" y2="211.27646" gradientUnits="userSpaceOnUse" id="color-27"><stop offset="0" stop-color="#221818"/><stop offset="1" stop-color="#424242"/></linearGradient><radialGradient cx="254.35482" cy="211.27646" r="45.83333" gradientUnits="userSpaceOnUse" id="color-28"><stop offset="0" stop-color="#ff0000" stop-opacity="0.33061"/><stop offset="1" stop-color="#ff0000" stop-opacity="0"/></radialGradient><radialGradient cx="320" cy="141" r="182" gradientUnits="userSpaceOnUse" id="color-29"><stop offset="0" stop-color="#7d4d4d" stop-opacity="0.43922"/><stop offset="1" stop-color="#7d4d4d" stop-opacity="0"/></radialGradient></defs><g transform="translate(-138,41)"><g data-paper-data="{&quot;isPaintingLayer&quot;:true}" fill-rule="nonzero" stroke-linejoin="miter" stroke-miterlimit="10" stroke-dasharray="" stroke-dashoffset="0" style="mix-blend-mode: normal"><text transform="translate(173.75893,165.72156) scale(2.06013,2.06013)" font-size="40" xml:space="preserve" fill="#7d4e4e" fill-rule="nonzero" stroke="none" stroke-width="1" stroke-linecap="butt" stroke-linejoin="miter" stroke-miterlimit="10" stroke-dasharray="" stroke-dashoffset="0" font-family="&quot;MV Boli&quot;, Pixel" font-weight="normal" text-anchor="start" style="mix-blend-mode: normal"><tspan x="0" dy="0">Wave 2</tspan></text><text transform="translate(180.27074,55.5336) scale(0.5,0.5)" font-size="40" xml:space="preserve" fill="#66eeff" fill-rule="nonzero" stroke="none" stroke-width="1" stroke-linecap="butt" stroke-linejoin="miter" stroke-miterlimit="10" stroke-dasharray="" stroke-dashoffset="0" font-family="Pixel" font-weight="normal" text-anchor="start" style="mix-blend-mode: normal"><tspan x="0" dy="0"> </tspan></text><g><text transform="translate(235.14922,263.10979) scale(0.5,0.5)" font-size="40" xml:space="preserve" fill="#13f200" fill-rule="nonzero" stroke="none" stroke-width="1" stroke-linecap="butt" stroke-linejoin="miter" stroke-miterlimit="10" stroke-dasharray="" stroke-dashoffset="0" font-family="&quot;MV Boli&quot;, Pixel" font-weight="normal" text-anchor="start" style="mix-blend-mode: normal"><tspan x="0" dy="0">80%</tspan></text><text transform="translate(309.18815,263.10979) scale(0.5,0.5)" font-size="40" xml:space="preserve" fill="#13f200" fill-rule="nonzero" stroke="none" stroke-width="1" stroke-linecap="butt" stroke-linejoin="miter" stroke-miterlimit="10" stroke-dasharray="" stroke-dashoffset="0" font-family="&quot;MV Boli&quot;, Pixel" font-weight="normal" text-anchor="start" style="mix-blend-mode: normal"><tspan x="0" dy="0">20%</tspan></text><g stroke="none" stroke-linecap="butt"><path d="M417.5651,225.04321c-7.68416,0 -13.91339,-4.64361 -13.91339,-10.3718c0,-5.72819 6.22923,-10.3718 13.91339,-10.3718c7.68416,0 13.91339,4.64361 13.91339,10.3718c0,5.72819 -6.22923,10.3718 -13.91339,10.3718z" fill="url(#color-1)" stroke-width="0"/><path d="M414.32709,204.55258c0,7.68416 -4.64361,13.91339 -10.3718,13.91339c-5.72819,0 -10.3718,-6.22923 -10.3718,-13.91339c0,-7.68416 4.64361,-13.91339 10.3718,-13.91339c5.72819,0 10.3718,6.22923 10.3718,13.91339z" fill="url(#color-2)" stroke-width="0"/><path d="M390.04189,204.55258c7.68416,0 13.91339,4.64361 13.91339,10.3718c0,5.72819 -6.22923,10.3718 -13.91339,10.3718c-7.68416,0 -13.91339,-4.64361 -13.91339,-10.3718c0,-5.72819 6.22923,-10.3718 13.91339,-10.3718z" fill="url(#color-3)" stroke-width="0"/><path d="M393.58348,230.76035c0,-7.68416 4.64361,-13.91339 10.3718,-13.91339c5.72819,0 10.3718,6.22923 10.3718,13.91339c0,7.68416 -4.64361,13.91339 -10.3718,13.91339c-5.72819,0 -10.3718,-6.22923 -10.3718,-13.91339z" fill="url(#color-4)" stroke-width="0"/><path d="M390.04189,215.32913c0,-7.68416 6.22923,-13.91339 13.91339,-13.91339c7.68416,0 13.91339,6.22923 13.91339,13.91339c0,7.68416 -6.22923,13.91339 -13.91339,13.91339c-7.68416,0 -13.91339,-6.22923 -13.91339,-13.91339z" fill="#4d4d4d" stroke-width="0"/><path d="M394.79772,212.92591c0,-1.32727 1.07596,-2.40322 2.40322,-2.40322c1.32727,0 2.40322,1.07596 2.40322,2.40322c0,1.32727 -1.07596,2.40322 -2.40322,2.40322c-1.32727,0 -2.40322,-1.07596 -2.40322,-2.40322z" fill="url(#color-5)" stroke-width="0"/><path d="M407.95221,212.92591c0,-1.32727 1.07596,-2.40322 2.40322,-2.40322c1.32727,0 2.40322,1.07596 2.40322,2.40322c0,1.32727 -1.07596,2.40322 -2.40322,2.40322c-1.32727,0 -2.40322,-1.07596 -2.40322,-2.40322z" fill="url(#color-6)" stroke-width="0"/><path d="M379.06926,215.32913c0,-13.74417 11.14185,-24.88601 24.88601,-24.88601c13.74417,0 24.88601,11.14185 24.88601,24.88601c0,13.74417 -11.14185,24.88601 -24.88601,24.88601c-13.74417,0 -24.88599,-11.14185 -24.88599,-24.88599z" fill="url(#color-7)" stroke-width="NaN"/></g><g stroke-linecap="butt"><g fill="#ff8383" stroke="#ffffff" stroke-width="1.5"><path d="M330.17809,221.94539h4.20135v16.63735c0,0 -1.40494,0 -2.10606,0c-0.69932,0 -2.09529,-1.23705 -2.09529,-2.35276c0,-2.74913 0,-14.2846 0,-14.2846z"/><path d="M342.40296,234.38139v4.20135c0,0 -8.22456,0 -10.29764,0c-0.89684,0 -1.92723,-1.61573 -1.92723,-2.35276c0,-0.65331 0,-1.8486 0,-1.8486z"/></g><g stroke="none" stroke-width="0.5"><path d="M316.82252,222.88437c-0.23028,-0.23757 -0.64341,-0.81651 -0.10753,-1.53102c0.26284,-0.35046 0.55831,-0.47261 0.82568,-0.48786c0.02,-0.2255 0.09377,-0.46094 0.17768,-0.65707c-0.32694,0.0605 -1.03325,0.08222 -1.33245,-0.75553c-0.39579,-1.10821 0.71242,-1.50401 0.71242,-1.50401c0.6899,-0.11472 1.46752,-0.69981 2.06971,-0.34414c1.7486,1.03279 0.75928,2.23228 0.71875,3.45422c-0.0105,0.31671 0.30065,2.28548 0.32325,2.62653c0.08573,1.29349 0.00257,2.62988 0.00208,3.92625l-0.01483,0.03375l0.0133,0.00078l-0.08067,1.3713c-0.03172,0.62158 -0.54575,1.11581 -1.17522,1.11581c-0.52936,0 -0.97708,-0.34953 -1.12497,-0.83039l-0.47828,-1.43484l0.0317,-0.01057c-0.02445,-0.04583 -0.04809,-0.09216 -0.07086,-0.13902c-0.21813,-0.44901 -0.05172,-0.9973 -0.09745,-1.49439c-0.10616,-1.15394 -0.32726,-2.20617 -0.39233,-3.33982z" fill="#ff4200"/><path d="M319.10163,230.878c0,0.75205 -0.75205,0.75205 -0.75205,0.75205l-0.47886,-0.04788c-0.74885,-0.2814 -1.44366,-0.55849 -2.25286,-0.59796c-0.09253,-0.00451 -2.14781,0.02301 -2.24988,-0.04347c-0.07228,-0.04708 -0.13921,-0.10002 -0.20194,-0.15758l-0.02349,0.02819l-0.63999,-0.53332c-0.16791,-0.13793 -0.27501,-0.34716 -0.27501,-0.58141c0,-0.17956 0.06293,-0.34442 0.16793,-0.47374c-0.50021,-0.23514 -0.97569,-0.66763 -1.01083,-0.76673c-0.12162,-0.34307 0.56853,-1.04497 1.11564,-1.44428h-0.70209c-0.41534,0 -0.75205,-0.33671 -0.75205,-0.75205c0,-0.38303 0.28634,-0.69917 0.65664,-0.74605l0.54963,-0.07852c0.1938,-0.24057 0.24961,-0.59496 0.37718,-0.88172c-0.69395,-0.15608 -1.41384,-0.24505 -2.00762,-0.61894c-0.53594,-0.33747 -1.35488,-0.76377 -1.29119,-1.3939c0.06512,-0.64423 0.99505,-0.83737 1.55037,-1.17036c0.06788,-0.04071 0.15424,-0.08292 0.24832,-0.12002c-0.16902,-0.0751 -0.32379,-0.17126 -0.44261,-0.30794c-0.03385,-0.03894 -0.06566,-0.07923 -0.0957,-0.12069l-0.01511,0.0126l-0.53384,-0.64061c-0.11072,-0.13097 -0.17747,-0.30031 -0.17747,-0.48524c0,-0.41534 0.3367,-0.75205 0.75205,-0.75205h0.9666c0.40249,0.00296 0.94778,0.29302 1.20742,-0.01454c0.42367,-0.50187 0.12011,-1.54837 0.70949,-1.83817c0.40557,-0.19942 0.88224,0.2081 1.33187,0.25378c1.10889,0.11266 2.06091,-0.03612 3.07928,0.12385c0.18541,0.18917 0.395,0.35455 0.62376,0.49114c0.09934,0.10094 0.20559,0.19507 0.31797,0.28162c0.00612,0.20231 0.17205,0.36444 0.37585,0.36444c0.02154,0 0.04267,-0.00181 0.06322,-0.0053c-0.00682,0.02299 -0.0147,0.04649 -0.0237,0.0705c-0.26406,0.70417 -0.96823,0.4401 -0.96823,0.4401c-1.25868,-0.49424 -2.45242,0.01741 -3.73652,-0.28638c-0.17825,-0.04217 -0.21634,-0.32286 -0.38653,-0.39061c-0.10674,-0.04249 0.19071,0.19048 0.16517,0.30249c-0.10376,0.45505 -0.19017,0.97586 -0.52967,1.29613c-0.23768,0.22422 -0.57903,0.33002 -0.94226,0.37887c0.37107,0.39316 0.61112,0.91676 0.50775,1.32422c-0.03549,0.13991 -0.77523,0.66848 -1.46643,0.93218c0.21695,0.04901 0.43168,0.10881 0.64344,0.17499c0.53173,0.16618 1.03795,0.40508 1.55692,0.60762l0.07296,0.10398l0.02768,-0.03321l0.63999,0.53332c0.16791,0.13793 0.27501,0.34717 0.27501,0.58142c0,0.39037 -0.29742,0.71126 -0.67802,0.74846l-0.34517,0.03835c0.07544,0.19699 0.14854,0.44731 0.21787,0.76036c0.12982,0.58619 -0.27848,1.16341 -0.66704,1.67153c0.40027,-0.01715 0.83469,-0.02026 0.99088,0.29228c0.20055,0.40131 0.01825,0.86356 -0.13451,1.32112c1.42878,-0.03059 2.55673,0.19506 3.88699,0.69293l-0.04926,-0.04789c0,0 0.75205,0 0.75205,0.75205z" fill="url(#color-8)"/><path d="M319.9419,230.878c0,0.75205 -0.75205,0.75205 -0.75205,0.75205l-0.47886,-0.04788c-0.74885,-0.2814 -1.44366,-0.55849 -2.25286,-0.59796c-0.09253,-0.00451 -2.14781,0.02301 -2.24988,-0.04347c-0.07228,-0.04708 -0.13921,-0.10002 -0.20194,-0.15758l-0.02349,0.02819l-0.63999,-0.53332c-0.16791,-0.13793 -0.27501,-0.34716 -0.27501,-0.58141c0,-0.17956 0.06293,-0.34442 0.16793,-0.47374c-0.50021,-0.23514 -0.97569,-0.66763 -1.01083,-0.76673c-0.12162,-0.34307 0.56853,-1.04497 1.11564,-1.44428h-0.70209c-0.41534,0 -0.75205,-0.33671 -0.75205,-0.75205c0,-0.38303 0.28634,-0.69917 0.65664,-0.74605l0.54963,-0.07852c0.1938,-0.24057 0.24961,-0.59496 0.37718,-0.88172c-0.69395,-0.15608 -1.41385,-0.24505 -2.00763,-0.61894c-0.53594,-0.33747 -1.35488,-0.76377 -1.29119,-1.3939c0.06512,-0.64423 0.99505,-0.83737 1.55037,-1.17036c0.06788,-0.04071 0.15424,-0.08292 0.24832,-0.12002c-0.16902,-0.0751 -0.32379,-0.17126 -0.44261,-0.30794c-0.03385,-0.03894 -0.06566,-0.07923 -0.0957,-0.12069l-0.01511,0.0126l-0.53384,-0.64061c-0.11072,-0.13097 -0.17747,-0.30031 -0.17747,-0.48524c0,-0.41534 0.3367,-0.75205 0.75205,-0.75205h0.9666c0.40249,0.00296 0.94778,0.29302 1.20742,-0.01454c0.42367,-0.50187 0.12011,-1.54837 0.70949,-1.83817c0.40557,-0.19942 0.88224,0.2081 1.33187,0.25378c1.10889,0.11266 2.06091,-0.03612 3.07928,0.12385c0.18541,0.18917 0.395,0.35455 0.62376,0.49114c0.09934,0.10094 0.20559,0.19507 0.31797,0.28162c0.00612,0.20231 0.17205,0.36444 0.37585,0.36444c0.02154,0 0.04267,-0.00181 0.06323,-0.0053c-0.00682,0.02299 -0.0147,0.04649 -0.0237,0.0705c-0.26406,0.70417 -0.96822,0.4401 -0.96822,0.4401c-1.25868,-0.49424 -2.45242,0.01741 -3.73652,-0.28638c-0.17825,-0.04217 -0.21634,-0.32286 -0.38653,-0.39061c-0.10674,-0.04249 0.19071,0.19048 0.16517,0.30249c-0.10376,0.45505 -0.19017,0.97586 -0.52967,1.29613c-0.23768,0.22422 -0.57903,0.33002 -0.94226,0.37887c0.37107,0.39316 0.61112,0.91676 0.50775,1.32422c-0.03549,0.13991 -0.77522,0.66848 -1.46643,0.93218c0.21695,0.04901 0.43168,0.10881 0.64344,0.17499c0.53173,0.16618 1.03795,0.40508 1.55692,0.60762l0.07296,0.10398l0.02768,-0.03321l0.63999,0.53332c0.16791,0.13793 0.27501,0.34717 0.27501,0.58142c0,0.39037 -0.29742,0.71126 -0.67802,0.74846l-0.34517,0.03835c0.07544,0.19699 0.14854,0.44731 0.21787,0.76036c0.12982,0.58619 -0.27848,1.16341 -0.66704,1.67153c0.40027,-0.01715 0.83469,-0.02026 0.99088,0.29228c0.20055,0.40131 0.01825,0.86356 -0.13451,1.32112c1.42878,-0.03059 2.55673,0.19506 3.88699,0.69293l-0.04926,-0.04789c0,0 0.75205,0 0.75205,0.75205z" fill="url(#color-9)"/><path d="M320.61411,230.878c0,0.75205 -0.75205,0.75205 -0.75205,0.75205l-0.47886,-0.04788c-0.74885,-0.2814 -1.44366,-0.55849 -2.25286,-0.59796c-0.09253,-0.00451 -2.14781,0.02301 -2.24988,-0.04347c-0.07228,-0.04708 -0.13921,-0.10002 -0.20194,-0.15758l-0.02349,0.02819l-0.63999,-0.53332c-0.16791,-0.13793 -0.27501,-0.34716 -0.27501,-0.58141c0,-0.17956 0.06293,-0.34442 0.16793,-0.47374c-0.50021,-0.23514 -0.97569,-0.66763 -1.01083,-0.76673c-0.12162,-0.34307 0.56853,-1.04497 1.11564,-1.44428h-0.70209c-0.41534,0 -0.75205,-0.33671 -0.75205,-0.75205c0,-0.38303 0.28634,-0.69917 0.65664,-0.74605l0.54963,-0.07852c0.1938,-0.24057 0.24961,-0.59496 0.37718,-0.88172c-0.69395,-0.15608 -1.41385,-0.24505 -2.00763,-0.61894c-0.53594,-0.33747 -1.35487,-0.76377 -1.29118,-1.3939c0.06512,-0.64423 0.99505,-0.83737 1.55037,-1.17036c0.06788,-0.04071 0.15425,-0.08292 0.24832,-0.12002c-0.16902,-0.0751 -0.32379,-0.17126 -0.44261,-0.30794c-0.03385,-0.03894 -0.06566,-0.07923 -0.0957,-0.12069l-0.01511,0.0126l-0.53384,-0.64061c-0.11072,-0.13097 -0.17747,-0.30031 -0.17747,-0.48524c0,-0.41534 0.3367,-0.75205 0.75205,-0.75205h0.9666c0.40249,0.00296 0.94778,0.29302 1.20742,-0.01454c0.42367,-0.50187 0.12011,-1.54837 0.70949,-1.83817c0.40557,-0.19942 0.88224,0.2081 1.33187,0.25378c1.10889,0.11266 2.06091,-0.03612 3.07928,0.12385c0.18541,0.18917 0.395,0.35455 0.62376,0.49114c0.09934,0.10094 0.20559,0.19507 0.31797,0.28162c0.00612,0.20231 0.17205,0.36444 0.37585,0.36444c0.02154,0 0.04267,-0.00181 0.06322,-0.0053c-0.00682,0.02299 -0.0147,0.04649 -0.0237,0.0705c-0.26406,0.70417 -0.96822,0.4401 -0.96822,0.4401c-1.25868,-0.49424 -2.45242,0.01741 -3.73652,-0.28638c-0.17825,-0.04217 -0.21634,-0.32286 -0.38653,-0.39061c-0.10674,-0.04249 0.19071,0.19048 0.16517,0.30249c-0.10376,0.45505 -0.19017,0.97586 -0.52967,1.29613c-0.23768,0.22422 -0.57903,0.33002 -0.94226,0.37887c0.37107,0.39316 0.61112,0.91676 0.50775,1.32422c-0.03549,0.13991 -0.77522,0.66848 -1.46643,0.93218c0.21695,0.04901 0.43168,0.10881 0.64344,0.17499c0.53173,0.16618 1.03795,0.40508 1.55692,0.60762l0.07296,0.10398l0.02768,-0.03321l0.63999,0.53332c0.16791,0.13793 0.27501,0.34717 0.27501,0.58142c0,0.39037 -0.29742,0.71126 -0.67802,0.74846l-0.34517,0.03835c0.07544,0.19699 0.14854,0.44731 0.21787,0.76036c0.12982,0.58619 -0.27848,1.16341 -0.66704,1.67153c0.40027,-0.01715 0.83469,-0.02026 0.99088,0.29228c0.20055,0.40131 0.01825,0.86356 -0.13451,1.32112c1.42878,-0.03059 2.55673,0.19506 3.88699,0.69293l-0.04926,-0.04789c0,0 0.75205,0 0.75205,0.75205z" fill="url(#color-10)"/><path d="M321.45439,230.878c0,0.75205 -0.75205,0.75205 -0.75205,0.75205l-0.47886,-0.04788c-0.74885,-0.2814 -1.44366,-0.55849 -2.25286,-0.59796c-0.09253,-0.00451 -2.14781,0.02301 -2.24988,-0.04347c-0.07228,-0.04708 -0.13921,-0.10002 -0.20194,-0.15758l-0.02349,0.02819l-0.63999,-0.53332c-0.16791,-0.13793 -0.27501,-0.34716 -0.27501,-0.58141c0,-0.17956 0.06292,-0.34442 0.16793,-0.47374c-0.50021,-0.23514 -0.97569,-0.66763 -1.01083,-0.76673c-0.12162,-0.34307 0.56853,-1.04497 1.11564,-1.44428h-0.70209c-0.41534,0 -0.75205,-0.33671 -0.75205,-0.75205c0,-0.38303 0.28634,-0.69917 0.65664,-0.74605l0.54963,-0.07852c0.1938,-0.24057 0.24961,-0.59496 0.37718,-0.88172c-0.69395,-0.15608 -1.41385,-0.24505 -2.00763,-0.61894c-0.53594,-0.33747 -1.35488,-0.76377 -1.29119,-1.3939c0.06512,-0.64423 0.99505,-0.83737 1.55037,-1.17036c0.06788,-0.04071 0.15424,-0.08292 0.24832,-0.12002c-0.16902,-0.0751 -0.32379,-0.17126 -0.44261,-0.30794c-0.03385,-0.03894 -0.06566,-0.07923 -0.0957,-0.12069l-0.01511,0.0126l-0.53384,-0.64061c-0.11072,-0.13097 -0.17747,-0.30031 -0.17747,-0.48524c0,-0.41534 0.3367,-0.75205 0.75205,-0.75205h0.9666c0.40249,0.00296 0.94778,0.29302 1.20742,-0.01454c0.42367,-0.50187 0.12011,-1.54837 0.70949,-1.83817c0.40557,-0.19942 0.88224,0.2081 1.33187,0.25378c1.10889,0.11266 2.06091,-0.03612 3.07928,0.12385c0.18541,0.18917 0.395,0.35455 0.62376,0.49114c0.09934,0.10094 0.20559,0.19507 0.31797,0.28162c0.00612,0.20231 0.17205,0.36444 0.37585,0.36444c0.02154,0 0.04267,-0.00181 0.06323,-0.0053c-0.00682,0.02299 -0.0147,0.04649 -0.0237,0.0705c-0.26406,0.70417 -0.96823,0.4401 -0.96823,0.4401c-1.25868,-0.49424 -2.45241,0.01741 -3.73652,-0.28638c-0.17825,-0.04217 -0.21634,-0.32286 -0.38653,-0.39061c-0.10674,-0.04249 0.19071,0.19048 0.16517,0.30249c-0.10376,0.45505 -0.19017,0.97586 -0.52967,1.29613c-0.23768,0.22422 -0.57903,0.33002 -0.94226,0.37887c0.37107,0.39316 0.61112,0.91676 0.50775,1.32422c-0.03549,0.13991 -0.77522,0.66848 -1.46643,0.93218c0.21695,0.04901 0.43168,0.10881 0.64344,0.17499c0.53173,0.16618 1.03795,0.40508 1.55692,0.60762l0.07296,0.10398l0.02768,-0.03321l0.63999,0.53332c0.16791,0.13793 0.27501,0.34717 0.27501,0.58142c0,0.39037 -0.29742,0.71126 -0.67802,0.74846l-0.34517,0.03835c0.07544,0.19699 0.14854,0.44731 0.21787,0.76036c0.12982,0.58619 -0.27848,1.16341 -0.66704,1.67153c0.40027,-0.01715 0.83469,-0.02026 0.99088,0.29228c0.20055,0.40131 0.01825,0.86356 -0.13451,1.32112c1.42878,-0.03059 2.55673,0.19506 3.88699,0.69293l-0.04926,-0.04789c0,0 0.75205,0 0.75205,0.75205z" fill="url(#color-11)"/><path d="M322.29466,230.878c0,0.75205 -0.75205,0.75205 -0.75205,0.75205l-0.47886,-0.04788c-0.74885,-0.2814 -1.44366,-0.55849 -2.25286,-0.59796c-0.09253,-0.00451 -2.14781,0.02301 -2.24988,-0.04347c-0.07228,-0.04708 -0.13921,-0.10002 -0.20194,-0.15758l-0.02349,0.02819l-0.63999,-0.53332c-0.16791,-0.13793 -0.27501,-0.34716 -0.27501,-0.58141c0,-0.17956 0.06293,-0.34442 0.16793,-0.47374c-0.50021,-0.23514 -0.97569,-0.66763 -1.01083,-0.76673c-0.12162,-0.34307 0.56853,-1.04497 1.11564,-1.44428h-0.70209c-0.41534,0 -0.75205,-0.33671 -0.75205,-0.75205c0,-0.38303 0.28634,-0.69917 0.65664,-0.74605l0.54963,-0.07852c0.1938,-0.24057 0.24961,-0.59496 0.37718,-0.88172c-0.69395,-0.15608 -1.41385,-0.24505 -2.00763,-0.61894c-0.53594,-0.33747 -1.35488,-0.76377 -1.29119,-1.3939c0.06512,-0.64423 0.99505,-0.83737 1.55037,-1.17036c0.06788,-0.04071 0.15425,-0.08292 0.24832,-0.12002c-0.16902,-0.0751 -0.32379,-0.17126 -0.44261,-0.30794c-0.03385,-0.03894 -0.06566,-0.07923 -0.0957,-0.12069l-0.01511,0.0126l-0.53384,-0.64061c-0.11072,-0.13097 -0.17747,-0.30031 -0.17747,-0.48524c0,-0.41534 0.3367,-0.75205 0.75205,-0.75205h0.9666c0.40249,0.00296 0.94778,0.29302 1.20742,-0.01454c0.42367,-0.50187 0.12011,-1.54837 0.70949,-1.83817c0.40557,-0.19942 0.88224,0.2081 1.33187,0.25378c1.10889,0.11266 2.06091,-0.03612 3.07928,0.12385c0.18541,0.18917 0.39499,0.35455 0.62376,0.49114c0.09934,0.10094 0.20559,0.19507 0.31797,0.28162c0.00612,0.20231 0.17205,0.36444 0.37585,0.36444c0.02154,0 0.04267,-0.00181 0.06323,-0.0053c-0.00682,0.02299 -0.0147,0.04649 -0.0237,0.0705c-0.26406,0.70417 -0.96822,0.4401 -0.96822,0.4401c-1.25868,-0.49424 -2.45242,0.01741 -3.73652,-0.28638c-0.17825,-0.04217 -0.21634,-0.32286 -0.38653,-0.39061c-0.10674,-0.04249 0.19071,0.19048 0.16517,0.30249c-0.10376,0.45505 -0.19017,0.97586 -0.52967,1.29613c-0.23768,0.22422 -0.57903,0.33002 -0.94226,0.37887c0.37107,0.39316 0.61112,0.91676 0.50775,1.32422c-0.03549,0.13991 -0.77522,0.66848 -1.46643,0.93218c0.21695,0.04901 0.43168,0.10881 0.64344,0.17499c0.53173,0.16618 1.03795,0.40508 1.55692,0.60762l0.07297,0.10398l0.02768,-0.03321l0.63999,0.53332c0.16791,0.13793 0.27501,0.34717 0.27501,0.58142c0,0.39037 -0.29742,0.71126 -0.67802,0.74846l-0.34517,0.03835c0.07544,0.19699 0.14854,0.44731 0.21787,0.76036c0.12982,0.58619 -0.27848,1.16341 -0.66704,1.67153c0.40027,-0.01715 0.83469,-0.02026 0.99088,0.29228c0.20055,0.40131 0.01825,0.86356 -0.13451,1.32112c1.42878,-0.03059 2.55673,0.19506 3.88699,0.69293l-0.04926,-0.04789c0,0 0.75205,0 0.75205,0.75205z" fill="url(#color-12)"/><path d="M323.13493,230.878c0,0.75205 -0.75205,0.75205 -0.75205,0.75205l-0.47886,-0.04788c-0.74885,-0.2814 -1.44366,-0.55849 -2.25286,-0.59796c-0.09253,-0.00451 -2.14781,0.02301 -2.24988,-0.04347c-0.07228,-0.04708 -0.13921,-0.10002 -0.20194,-0.15758l-0.02349,0.02819l-0.63999,-0.53332c-0.16791,-0.13793 -0.27501,-0.34716 -0.27501,-0.58141c0,-0.17956 0.06293,-0.34442 0.16793,-0.47374c-0.50021,-0.23514 -0.97569,-0.66763 -1.01083,-0.76673c-0.12162,-0.34307 0.56853,-1.04497 1.11564,-1.44428h-0.70209c-0.41534,0 -0.75205,-0.33671 -0.75205,-0.75205c0,-0.38303 0.28634,-0.69917 0.65664,-0.74605l0.54963,-0.07852c0.1938,-0.24057 0.24961,-0.59496 0.37718,-0.88172c-0.69395,-0.15608 -1.41385,-0.24505 -2.00763,-0.61894c-0.53594,-0.33747 -1.35487,-0.76377 -1.29118,-1.3939c0.06512,-0.64423 0.99505,-0.83737 1.55037,-1.17036c0.06788,-0.04071 0.15424,-0.08292 0.24832,-0.12002c-0.16902,-0.0751 -0.32379,-0.17126 -0.44261,-0.30794c-0.03385,-0.03894 -0.06566,-0.07923 -0.0957,-0.12069l-0.01511,0.0126l-0.53384,-0.64061c-0.11072,-0.13097 -0.17747,-0.30031 -0.17747,-0.48524c0,-0.41534 0.3367,-0.75205 0.75205,-0.75205h0.9666c0.40249,0.00296 0.94778,0.29302 1.20742,-0.01454c0.42367,-0.50187 0.12011,-1.54837 0.70949,-1.83817c0.40557,-0.19942 0.88224,0.2081 1.33187,0.25378c1.10889,0.11266 2.06091,-0.03612 3.07928,0.12385c0.18541,0.18917 0.395,0.35455 0.62376,0.49114c0.09934,0.10094 0.20559,0.19507 0.31797,0.28162c0.00612,0.20231 0.17205,0.36444 0.37585,0.36444c0.02154,0 0.04267,-0.00181 0.06322,-0.0053c-0.00682,0.02299 -0.0147,0.04649 -0.0237,0.0705c-0.26406,0.70417 -0.96822,0.4401 -0.96822,0.4401c-1.25868,-0.49424 -2.45242,0.01741 -3.73652,-0.28638c-0.17825,-0.04217 -0.21634,-0.32286 -0.38653,-0.39061c-0.10674,-0.04249 0.19071,0.19048 0.16517,0.30249c-0.10376,0.45505 -0.19017,0.97586 -0.52967,1.29613c-0.23768,0.22422 -0.57903,0.33002 -0.94226,0.37887c0.37107,0.39316 0.61112,0.91676 0.50775,1.32422c-0.03549,0.13991 -0.77522,0.66848 -1.46643,0.93218c0.21695,0.04901 0.43168,0.10881 0.64344,0.17499c0.53173,0.16618 1.03795,0.40508 1.55692,0.60762l0.07296,0.10398l0.02768,-0.03321l0.63999,0.53332c0.16791,0.13793 0.27501,0.34717 0.27501,0.58142c0,0.39037 -0.29742,0.71126 -0.67802,0.74846l-0.34517,0.03835c0.07544,0.19699 0.14854,0.44731 0.21787,0.76036c0.12982,0.58619 -0.27848,1.16341 -0.66704,1.67153c0.40027,-0.01715 0.83469,-0.02026 0.99088,0.29228c0.20055,0.40131 0.01825,0.86356 -0.13451,1.32112c1.42878,-0.03059 2.55673,0.19506 3.88699,0.69293l-0.04926,-0.04789c0,0 0.75205,0 0.75205,0.75205z" fill="url(#color-13)"/><path d="M323.97519,230.878c0,0.75205 -0.75205,0.75205 -0.75205,0.75205l-0.47886,-0.04788c-0.74885,-0.2814 -1.44366,-0.55849 -2.25286,-0.59796c-0.09253,-0.00451 -2.14781,0.02301 -2.24988,-0.04347c-0.07228,-0.04708 -0.13921,-0.10002 -0.20194,-0.15758l-0.02349,0.02819l-0.63999,-0.53332c-0.16791,-0.13793 -0.27501,-0.34716 -0.27501,-0.58141c0,-0.17956 0.06292,-0.34442 0.16793,-0.47374c-0.50021,-0.23514 -0.97569,-0.66763 -1.01083,-0.76673c-0.12162,-0.34307 0.56853,-1.04497 1.11564,-1.44428h-0.70209c-0.41534,0 -0.75205,-0.33671 -0.75205,-0.75205c0,-0.38303 0.28634,-0.69917 0.65664,-0.74605l0.54963,-0.07852c0.1938,-0.24057 0.24961,-0.59496 0.37718,-0.88172c-0.69395,-0.15608 -1.41385,-0.24505 -2.00763,-0.61894c-0.53594,-0.33747 -1.35488,-0.76377 -1.29119,-1.3939c0.06512,-0.64423 0.99505,-0.83737 1.55037,-1.17036c0.06788,-0.04071 0.15424,-0.08292 0.24832,-0.12002c-0.16902,-0.0751 -0.32379,-0.17126 -0.44261,-0.30794c-0.03385,-0.03894 -0.06566,-0.07923 -0.0957,-0.12069l-0.01511,0.0126l-0.53384,-0.64061c-0.11072,-0.13097 -0.17747,-0.30031 -0.17747,-0.48524c0,-0.41534 0.3367,-0.75205 0.75205,-0.75205h0.9666c0.40249,0.00296 0.94778,0.29302 1.20742,-0.01454c0.42367,-0.50187 0.12011,-1.54837 0.70949,-1.83817c0.40557,-0.19942 0.88224,0.2081 1.33187,0.25378c1.10889,0.11266 2.06091,-0.03612 3.07928,0.12385c0.18541,0.18917 0.395,0.35455 0.62376,0.49114c0.09934,0.10094 0.20559,0.19507 0.31797,0.28162c0.00612,0.20231 0.17205,0.36444 0.37585,0.36444c0.02154,0 0.04267,-0.00181 0.06323,-0.0053c-0.00682,0.02299 -0.0147,0.04649 -0.0237,0.0705c-0.26406,0.70417 -0.96823,0.4401 -0.96823,0.4401c-1.25868,-0.49424 -2.45241,0.01741 -3.73652,-0.28638c-0.17825,-0.04217 -0.21634,-0.32286 -0.38653,-0.39061c-0.10674,-0.04249 0.19071,0.19048 0.16517,0.30249c-0.10376,0.45505 -0.19017,0.97586 -0.52967,1.29613c-0.23768,0.22422 -0.57903,0.33002 -0.94226,0.37887c0.37107,0.39316 0.61112,0.91676 0.50775,1.32422c-0.03549,0.13991 -0.77522,0.66848 -1.46643,0.93218c0.21695,0.04901 0.43168,0.10881 0.64344,0.17499c0.53173,0.16618 1.03795,0.40508 1.55692,0.60762l0.07296,0.10398l0.02768,-0.03321l0.63999,0.53332c0.16791,0.13793 0.27501,0.34717 0.27501,0.58142c0,0.39037 -0.29742,0.71126 -0.67802,0.74846l-0.34517,0.03835c0.07544,0.19699 0.14854,0.44731 0.21787,0.76036c0.12982,0.58619 -0.27848,1.16341 -0.66704,1.67153c0.40027,-0.01715 0.83469,-0.02026 0.99088,0.29228c0.20055,0.40131 0.01825,0.86356 -0.13451,1.32112c1.42878,-0.03059 2.55673,0.19506 3.88699,0.69293l-0.04926,-0.04789c0,0 0.75205,0 0.75205,0.75205z" fill="url(#color-14)"/></g><path d="M331.52252,224.42069l-12.22487,10.20823v-20.41645z" fill="#ff7166" stroke="#ffffff" stroke-width="1.5"/><g stroke="none" stroke-width="0.5"><path d="M316.82252,200.90969c-0.23028,-0.23757 -0.64341,-0.81651 -0.10753,-1.53102c0.26284,-0.35046 0.55831,-0.47261 0.82568,-0.48786c0.02,-0.2255 0.09377,-0.46094 0.17768,-0.65707c-0.32694,0.0605 -1.03325,0.08222 -1.33245,-0.75553c-0.39579,-1.10821 0.71242,-1.50401 0.71242,-1.50401c0.6899,-0.11472 1.46752,-0.69981 2.06971,-0.34414c1.7486,1.03279 0.75928,2.23228 0.71875,3.45422c-0.0105,0.31671 0.30065,2.28548 0.32325,2.62653c0.08573,1.29349 0.00257,2.62988 0.00208,3.92625l-0.01483,0.03375l0.0133,0.00078l-0.08067,1.3713c-0.03172,0.62158 -0.54575,1.11581 -1.17522,1.11581c-0.52936,0 -0.97708,-0.34953 -1.12497,-0.83039l-0.47828,-1.43484l0.0317,-0.01057c-0.02445,-0.04583 -0.04809,-0.09216 -0.07086,-0.13902c-0.21813,-0.44901 -0.05172,-0.9973 -0.09745,-1.49439c-0.10616,-1.15394 -0.32726,-2.20617 -0.39233,-3.33982z" fill="#ff4200"/><path d="M319.10163,208.90332c0,0.75205 -0.75205,0.75205 -0.75205,0.75205l-0.47886,-0.04789c-0.74885,-0.28141 -1.44366,-0.55849 -2.25286,-0.59796c-0.09253,-0.00451 -2.14781,0.02301 -2.24988,-0.04347c-0.07228,-0.04708 -0.13921,-0.10002 -0.20194,-0.15758l-0.02349,0.02819l-0.63999,-0.53332c-0.16791,-0.13793 -0.27501,-0.34717 -0.27501,-0.58142c0,-0.17956 0.06293,-0.34442 0.16793,-0.47374c-0.50021,-0.23514 -0.97569,-0.66763 -1.01083,-0.76673c-0.12162,-0.34307 0.56853,-1.04497 1.11564,-1.44428h-0.70209c-0.41534,0 -0.75205,-0.33671 -0.75205,-0.75205c0,-0.38303 0.28634,-0.69918 0.65664,-0.74606l0.54963,-0.07851c0.1938,-0.24057 0.24961,-0.59496 0.37718,-0.88172c-0.69395,-0.15608 -1.41384,-0.24505 -2.00762,-0.61894c-0.53594,-0.33748 -1.35488,-0.76377 -1.29119,-1.3939c0.06512,-0.64423 0.99505,-0.83737 1.55037,-1.17036c0.06788,-0.04071 0.15424,-0.08292 0.24832,-0.12002c-0.16902,-0.0751 -0.32379,-0.17126 -0.44261,-0.30794c-0.03385,-0.03894 -0.06566,-0.07923 -0.0957,-0.12069l-0.01511,0.0126l-0.53384,-0.64061c-0.11072,-0.13097 -0.17747,-0.30031 -0.17747,-0.48524c0,-0.41534 0.3367,-0.75205 0.75205,-0.75205h0.9666c0.40249,0.00296 0.94778,0.29302 1.20742,-0.01454c0.42367,-0.50187 0.12011,-1.54837 0.70949,-1.83817c0.40557,-0.19942 0.88224,0.2081 1.33187,0.25378c1.10889,0.11266 2.06091,-0.03612 3.07928,0.12385c0.18541,0.18917 0.395,0.35455 0.62376,0.49114c0.09934,0.10094 0.20559,0.19507 0.31797,0.28162c0.00612,0.20231 0.17205,0.36444 0.37585,0.36444c0.02154,0 0.04267,-0.00181 0.06322,-0.0053c-0.00682,0.02299 -0.0147,0.04649 -0.0237,0.0705c-0.26406,0.70417 -0.96823,0.4401 -0.96823,0.4401c-1.25868,-0.49424 -2.45242,0.0174 -3.73652,-0.28638c-0.17825,-0.04217 -0.21634,-0.32286 -0.38653,-0.39061c-0.10674,-0.04249 0.19071,0.19048 0.16517,0.30249c-0.10376,0.45505 -0.19017,0.97586 -0.52967,1.29613c-0.23768,0.22422 -0.57903,0.33002 -0.94226,0.37887c0.37107,0.39316 0.61112,0.91676 0.50775,1.32423c-0.03549,0.13992 -0.77523,0.66847 -1.46643,0.93218c0.21695,0.04901 0.43168,0.10881 0.64344,0.17499c0.53173,0.16619 1.03795,0.40508 1.55692,0.60761l0.07296,0.10398l0.02768,-0.03321l0.63999,0.53332c0.16791,0.13793 0.27501,0.34717 0.27501,0.58142c0,0.39037 -0.29742,0.71126 -0.67802,0.74846l-0.34517,0.03835c0.07544,0.19699 0.14854,0.44731 0.21787,0.76036c0.12982,0.58619 -0.27848,1.16341 -0.66704,1.67153c0.40027,-0.01715 0.83469,-0.02026 0.99088,0.29228c0.20055,0.40131 0.01825,0.86356 -0.13451,1.32112c1.42878,-0.03059 2.55673,0.19506 3.88699,0.69293l-0.04926,-0.04789c0,0 0.75205,0 0.75205,0.75205z" fill="url(#color-15)"/><path d="M319.9419,208.90332c0,0.75205 -0.75205,0.75205 -0.75205,0.75205l-0.47886,-0.04789c-0.74885,-0.28141 -1.44366,-0.55849 -2.25286,-0.59796c-0.09253,-0.00451 -2.14781,0.02301 -2.24988,-0.04347c-0.07228,-0.04708 -0.13921,-0.10002 -0.20194,-0.15758l-0.02349,0.02819l-0.63999,-0.53332c-0.16791,-0.13793 -0.27501,-0.34717 -0.27501,-0.58142c0,-0.17956 0.06293,-0.34442 0.16793,-0.47374c-0.50021,-0.23514 -0.97569,-0.66763 -1.01083,-0.76673c-0.12162,-0.34307 0.56853,-1.04497 1.11564,-1.44428h-0.70209c-0.41534,0 -0.75205,-0.33671 -0.75205,-0.75205c0,-0.38303 0.28634,-0.69918 0.65664,-0.74606l0.54963,-0.07851c0.1938,-0.24057 0.24961,-0.59496 0.37718,-0.88172c-0.69395,-0.15608 -1.41385,-0.24505 -2.00763,-0.61894c-0.53594,-0.33748 -1.35488,-0.76377 -1.29119,-1.3939c0.06512,-0.64423 0.99505,-0.83737 1.55037,-1.17036c0.06788,-0.04071 0.15424,-0.08292 0.24832,-0.12002c-0.16902,-0.0751 -0.32379,-0.17126 -0.44261,-0.30794c-0.03385,-0.03894 -0.06566,-0.07923 -0.0957,-0.12069l-0.01511,0.0126l-0.53384,-0.64061c-0.11072,-0.13097 -0.17747,-0.30031 -0.17747,-0.48524c0,-0.41534 0.3367,-0.75205 0.75205,-0.75205h0.9666c0.40249,0.00296 0.94778,0.29302 1.20742,-0.01454c0.42367,-0.50187 0.12011,-1.54837 0.70949,-1.83817c0.40557,-0.19942 0.88224,0.2081 1.33187,0.25378c1.10889,0.11266 2.06091,-0.03612 3.07928,0.12385c0.18541,0.18917 0.395,0.35455 0.62376,0.49114c0.09934,0.10094 0.20559,0.19507 0.31797,0.28162c0.00612,0.20231 0.17205,0.36444 0.37585,0.36444c0.02154,0 0.04267,-0.00181 0.06323,-0.0053c-0.00682,0.02299 -0.0147,0.04649 -0.0237,0.0705c-0.26406,0.70417 -0.96822,0.4401 -0.96822,0.4401c-1.25868,-0.49424 -2.45242,0.0174 -3.73652,-0.28638c-0.17825,-0.04217 -0.21634,-0.32286 -0.38653,-0.39061c-0.10674,-0.04249 0.19071,0.19048 0.16517,0.30249c-0.10376,0.45505 -0.19017,0.97586 -0.52967,1.29613c-0.23768,0.22422 -0.57903,0.33002 -0.94226,0.37887c0.37107,0.39316 0.61112,0.91676 0.50775,1.32423c-0.03549,0.13992 -0.77522,0.66847 -1.46643,0.93218c0.21695,0.04901 0.43168,0.10881 0.64344,0.17499c0.53173,0.16619 1.03795,0.40508 1.55692,0.60761l0.07296,0.10398l0.02768,-0.03321l0.63999,0.53332c0.16791,0.13793 0.27501,0.34717 0.27501,0.58142c0,0.39037 -0.29742,0.71126 -0.67802,0.74846l-0.34517,0.03835c0.07544,0.19699 0.14854,0.44731 0.21787,0.76036c0.12982,0.58619 -0.27848,1.16341 -0.66704,1.67153c0.40027,-0.01715 0.83469,-0.02026 0.99088,0.29228c0.20055,0.40131 0.01825,0.86356 -0.13451,1.32112c1.42878,-0.03059 2.55673,0.19506 3.88699,0.69293l-0.04926,-0.04789c0,0 0.75205,0 0.75205,0.75205z" fill="url(#color-16)"/><path d="M320.61411,208.90332c0,0.75205 -0.75205,0.75205 -0.75205,0.75205l-0.47886,-0.04789c-0.74885,-0.28141 -1.44366,-0.55849 -2.25286,-0.59796c-0.09253,-0.00451 -2.14781,0.02301 -2.24988,-0.04347c-0.07228,-0.04708 -0.13921,-0.10002 -0.20194,-0.15758l-0.02349,0.02819l-0.63999,-0.53332c-0.16791,-0.13793 -0.27501,-0.34717 -0.27501,-0.58142c0,-0.17956 0.06293,-0.34442 0.16793,-0.47374c-0.50021,-0.23514 -0.97569,-0.66763 -1.01083,-0.76673c-0.12162,-0.34307 0.56853,-1.04497 1.11564,-1.44428h-0.70209c-0.41534,0 -0.75205,-0.33671 -0.75205,-0.75205c0,-0.38303 0.28634,-0.69918 0.65664,-0.74606l0.54963,-0.07851c0.1938,-0.24057 0.24961,-0.59496 0.37718,-0.88172c-0.69395,-0.15608 -1.41385,-0.24505 -2.00763,-0.61894c-0.53594,-0.33748 -1.35487,-0.76377 -1.29118,-1.3939c0.06512,-0.64423 0.99505,-0.83737 1.55037,-1.17036c0.06788,-0.04071 0.15425,-0.08292 0.24832,-0.12002c-0.16902,-0.0751 -0.32379,-0.17126 -0.44261,-0.30794c-0.03385,-0.03894 -0.06566,-0.07923 -0.0957,-0.12069l-0.01511,0.0126l-0.53384,-0.64061c-0.11072,-0.13097 -0.17747,-0.30031 -0.17747,-0.48524c0,-0.41534 0.3367,-0.75205 0.75205,-0.75205h0.9666c0.40249,0.00296 0.94778,0.29302 1.20742,-0.01454c0.42367,-0.50187 0.12011,-1.54837 0.70949,-1.83817c0.40557,-0.19942 0.88224,0.2081 1.33187,0.25378c1.10889,0.11266 2.06091,-0.03612 3.07928,0.12385c0.18541,0.18917 0.395,0.35455 0.62376,0.49114c0.09934,0.10094 0.20559,0.19507 0.31797,0.28162c0.00612,0.20231 0.17205,0.36444 0.37585,0.36444c0.02154,0 0.04267,-0.00181 0.06322,-0.0053c-0.00682,0.02299 -0.0147,0.04649 -0.0237,0.0705c-0.26406,0.70417 -0.96822,0.4401 -0.96822,0.4401c-1.25868,-0.49424 -2.45242,0.0174 -3.73652,-0.28638c-0.17825,-0.04217 -0.21634,-0.32286 -0.38653,-0.39061c-0.10674,-0.04249 0.19071,0.19048 0.16517,0.30249c-0.10376,0.45505 -0.19017,0.97586 -0.52967,1.29613c-0.23768,0.22422 -0.57903,0.33002 -0.94226,0.37887c0.37107,0.39316 0.61112,0.91676 0.50775,1.32423c-0.03549,0.13992 -0.77522,0.66847 -1.46643,0.93218c0.21695,0.04901 0.43168,0.10881 0.64344,0.17499c0.53173,0.16619 1.03795,0.40508 1.55692,0.60761l0.07296,0.10398l0.02768,-0.03321l0.63999,0.53332c0.16791,0.13793 0.27501,0.34717 0.27501,0.58142c0,0.39037 -0.29742,0.71126 -0.67802,0.74846l-0.34517,0.03835c0.07544,0.19699 0.14854,0.44731 0.21787,0.76036c0.12982,0.58619 -0.27848,1.16341 -0.66704,1.67153c0.40027,-0.01715 0.83469,-0.02026 0.99088,0.29228c0.20055,0.40131 0.01825,0.86356 -0.13451,1.32112c1.42878,-0.03059 2.55673,0.19506 3.88699,0.69293l-0.04926,-0.04789c0,0 0.75205,0 0.75205,0.75205z" fill="url(#color-17)"/><path d="M321.45439,208.90332c0,0.75205 -0.75205,0.75205 -0.75205,0.75205l-0.47886,-0.04789c-0.74885,-0.28141 -1.44366,-0.55849 -2.25286,-0.59796c-0.09253,-0.00451 -2.14781,0.02301 -2.24988,-0.04347c-0.07228,-0.04708 -0.13921,-0.10002 -0.20194,-0.15758l-0.02349,0.02819l-0.63999,-0.53332c-0.16791,-0.13793 -0.27501,-0.34717 -0.27501,-0.58142c0,-0.17956 0.06292,-0.34442 0.16793,-0.47374c-0.50021,-0.23514 -0.97569,-0.66763 -1.01083,-0.76673c-0.12162,-0.34307 0.56853,-1.04497 1.11564,-1.44428h-0.70209c-0.41534,0 -0.75205,-0.33671 -0.75205,-0.75205c0,-0.38303 0.28634,-0.69918 0.65664,-0.74606l0.54963,-0.07851c0.1938,-0.24057 0.24961,-0.59496 0.37718,-0.88172c-0.69395,-0.15608 -1.41385,-0.24505 -2.00763,-0.61894c-0.53594,-0.33748 -1.35488,-0.76377 -1.29119,-1.3939c0.06512,-0.64423 0.99505,-0.83737 1.55037,-1.17036c0.06788,-0.04071 0.15424,-0.08292 0.24832,-0.12002c-0.16902,-0.0751 -0.32379,-0.17126 -0.44261,-0.30794c-0.03385,-0.03894 -0.06566,-0.07923 -0.0957,-0.12069l-0.01511,0.0126l-0.53384,-0.64061c-0.11072,-0.13097 -0.17747,-0.30031 -0.17747,-0.48524c0,-0.41534 0.3367,-0.75205 0.75205,-0.75205h0.9666c0.40249,0.00296 0.94778,0.29302 1.20742,-0.01454c0.42367,-0.50187 0.12011,-1.54837 0.70949,-1.83817c0.40557,-0.19942 0.88224,0.2081 1.33187,0.25378c1.10889,0.11266 2.06091,-0.03612 3.07928,0.12385c0.18541,0.18917 0.395,0.35455 0.62376,0.49114c0.09934,0.10094 0.20559,0.19507 0.31797,0.28162c0.00612,0.20231 0.17205,0.36444 0.37585,0.36444c0.02154,0 0.04267,-0.00181 0.06323,-0.0053c-0.00682,0.02299 -0.0147,0.04649 -0.0237,0.0705c-0.26406,0.70417 -0.96823,0.4401 -0.96823,0.4401c-1.25868,-0.49424 -2.45241,0.0174 -3.73652,-0.28638c-0.17825,-0.04217 -0.21634,-0.32286 -0.38653,-0.39061c-0.10674,-0.04249 0.19071,0.19048 0.16517,0.30249c-0.10376,0.45505 -0.19017,0.97586 -0.52967,1.29613c-0.23768,0.22422 -0.57903,0.33002 -0.94226,0.37887c0.37107,0.39316 0.61112,0.91676 0.50775,1.32423c-0.03549,0.13992 -0.77522,0.66847 -1.46643,0.93218c0.21695,0.04901 0.43168,0.10881 0.64344,0.17499c0.53173,0.16619 1.03795,0.40508 1.55692,0.60761l0.07296,0.10398l0.02768,-0.03321l0.63999,0.53332c0.16791,0.13793 0.27501,0.34717 0.27501,0.58142c0,0.39037 -0.29742,0.71126 -0.67802,0.74846l-0.34517,0.03835c0.07544,0.19699 0.14854,0.44731 0.21787,0.76036c0.12982,0.58619 -0.27848,1.16341 -0.66704,1.67153c0.40027,-0.01715 0.83469,-0.02026 0.99088,0.29228c0.20055,0.40131 0.01825,0.86356 -0.13451,1.32112c1.42878,-0.03059 2.55673,0.19506 3.88699,0.69293l-0.04926,-0.04789c0,0 0.75205,0 0.75205,0.75205z" fill="url(#color-18)"/><path d="M322.29466,208.90332c0,0.75205 -0.75205,0.75205 -0.75205,0.75205l-0.47886,-0.04789c-0.74885,-0.28141 -1.44366,-0.55849 -2.25286,-0.59796c-0.09253,-0.00451 -2.14781,0.02301 -2.24988,-0.04347c-0.07228,-0.04708 -0.13921,-0.10002 -0.20194,-0.15758l-0.02349,0.02819l-0.63999,-0.53332c-0.16791,-0.13793 -0.27501,-0.34717 -0.27501,-0.58142c0,-0.17956 0.06293,-0.34442 0.16793,-0.47374c-0.50021,-0.23514 -0.97569,-0.66763 -1.01083,-0.76673c-0.12162,-0.34307 0.56853,-1.04497 1.11564,-1.44428h-0.70209c-0.41534,0 -0.75205,-0.33671 -0.75205,-0.75205c0,-0.38303 0.28634,-0.69918 0.65664,-0.74606l0.54963,-0.07851c0.1938,-0.24057 0.24961,-0.59496 0.37718,-0.88172c-0.69395,-0.15608 -1.41385,-0.24505 -2.00763,-0.61894c-0.53594,-0.33748 -1.35488,-0.76377 -1.29119,-1.3939c0.06512,-0.64423 0.99505,-0.83737 1.55037,-1.17036c0.06788,-0.04071 0.15425,-0.08292 0.24832,-0.12002c-0.16902,-0.0751 -0.32379,-0.17126 -0.44261,-0.30794c-0.03385,-0.03894 -0.06566,-0.07923 -0.0957,-0.12069l-0.01511,0.0126l-0.53384,-0.64061c-0.11072,-0.13097 -0.17747,-0.30031 -0.17747,-0.48524c0,-0.41534 0.3367,-0.75205 0.75205,-0.75205h0.9666c0.40249,0.00296 0.94778,0.29302 1.20742,-0.01454c0.42367,-0.50187 0.12011,-1.54837 0.70949,-1.83817c0.40557,-0.19942 0.88224,0.2081 1.33187,0.25378c1.10889,0.11266 2.06091,-0.03612 3.07928,0.12385c0.18541,0.18917 0.39499,0.35455 0.62376,0.49114c0.09934,0.10094 0.20559,0.19507 0.31797,0.28162c0.00612,0.20231 0.17205,0.36444 0.37585,0.36444c0.02154,0 0.04267,-0.00181 0.06323,-0.0053c-0.00682,0.02299 -0.0147,0.04649 -0.0237,0.0705c-0.26406,0.70417 -0.96822,0.4401 -0.96822,0.4401c-1.25868,-0.49424 -2.45242,0.0174 -3.73652,-0.28638c-0.17825,-0.04217 -0.21634,-0.32286 -0.38653,-0.39061c-0.10674,-0.04249 0.19071,0.19048 0.16517,0.30249c-0.10376,0.45505 -0.19017,0.97586 -0.52967,1.29613c-0.23768,0.22422 -0.57903,0.33002 -0.94226,0.37887c0.37107,0.39316 0.61112,0.91676 0.50775,1.32423c-0.03549,0.13992 -0.77522,0.66847 -1.46643,0.93218c0.21695,0.04901 0.43168,0.10881 0.64344,0.17499c0.53173,0.16619 1.03795,0.40508 1.55692,0.60761l0.07297,0.10398l0.02768,-0.03321l0.63999,0.53332c0.16791,0.13793 0.27501,0.34717 0.27501,0.58142c0,0.39037 -0.29742,0.71126 -0.67802,0.74846l-0.34517,0.03835c0.07544,0.19699 0.14854,0.44731 0.21787,0.76036c0.12982,0.58619 -0.27848,1.16341 -0.66704,1.67153c0.40027,-0.01715 0.83469,-0.02026 0.99088,0.29228c0.20055,0.40131 0.01825,0.86356 -0.13451,1.32112c1.42878,-0.03059 2.55673,0.19506 3.88699,0.69293l-0.04926,-0.04789c0,0 0.75205,0 0.75205,0.75205z" fill="url(#color-19)"/><path d="M323.13493,208.90332c0,0.75205 -0.75205,0.75205 -0.75205,0.75205l-0.47886,-0.04789c-0.74885,-0.28141 -1.44366,-0.55849 -2.25286,-0.59796c-0.09253,-0.00451 -2.14781,0.02301 -2.24988,-0.04347c-0.07228,-0.04708 -0.13921,-0.10002 -0.20194,-0.15758l-0.02349,0.02819l-0.63999,-0.53332c-0.16791,-0.13793 -0.27501,-0.34717 -0.27501,-0.58142c0,-0.17956 0.06293,-0.34442 0.16793,-0.47374c-0.50021,-0.23514 -0.97569,-0.66763 -1.01083,-0.76673c-0.12162,-0.34307 0.56853,-1.04497 1.11564,-1.44428h-0.70209c-0.41534,0 -0.75205,-0.33671 -0.75205,-0.75205c0,-0.38303 0.28634,-0.69918 0.65664,-0.74606l0.54963,-0.07851c0.1938,-0.24057 0.24961,-0.59496 0.37718,-0.88172c-0.69395,-0.15608 -1.41385,-0.24505 -2.00763,-0.61894c-0.53594,-0.33748 -1.35487,-0.76377 -1.29118,-1.3939c0.06512,-0.64423 0.99505,-0.83737 1.55037,-1.17036c0.06788,-0.04071 0.15424,-0.08292 0.24832,-0.12002c-0.16902,-0.0751 -0.32379,-0.17126 -0.44261,-0.30794c-0.03385,-0.03894 -0.06566,-0.07923 -0.0957,-0.12069l-0.01511,0.0126l-0.53384,-0.64061c-0.11072,-0.13097 -0.17747,-0.30031 -0.17747,-0.48524c0,-0.41534 0.3367,-0.75205 0.75205,-0.75205h0.9666c0.40249,0.00296 0.94778,0.29302 1.20742,-0.01454c0.42367,-0.50187 0.12011,-1.54837 0.70949,-1.83817c0.40557,-0.19942 0.88224,0.2081 1.33187,0.25378c1.10889,0.11266 2.06091,-0.03612 3.07928,0.12385c0.18541,0.18917 0.395,0.35455 0.62376,0.49114c0.09934,0.10094 0.20559,0.19507 0.31797,0.28162c0.00612,0.20231 0.17205,0.36444 0.37585,0.36444c0.02154,0 0.04267,-0.00181 0.06322,-0.0053c-0.00682,0.02299 -0.0147,0.04649 -0.0237,0.0705c-0.26406,0.70417 -0.96822,0.4401 -0.96822,0.4401c-1.25868,-0.49424 -2.45242,0.0174 -3.73652,-0.28638c-0.17825,-0.04217 -0.21634,-0.32286 -0.38653,-0.39061c-0.10674,-0.04249 0.19071,0.19048 0.16517,0.30249c-0.10376,0.45505 -0.19017,0.97586 -0.52967,1.29613c-0.23768,0.22422 -0.57903,0.33002 -0.94226,0.37887c0.37107,0.39316 0.61112,0.91676 0.50775,1.32423c-0.03549,0.13992 -0.77522,0.66847 -1.46643,0.93218c0.21695,0.04901 0.43168,0.10881 0.64344,0.17499c0.53173,0.16619 1.03795,0.40508 1.55692,0.60761l0.07296,0.10398l0.02768,-0.03321l0.63999,0.53332c0.16791,0.13793 0.27501,0.34717 0.27501,0.58142c0,0.39037 -0.29742,0.71126 -0.67802,0.74846l-0.34517,0.03835c0.07544,0.19699 0.14854,0.44731 0.21787,0.76036c0.12982,0.58619 -0.27848,1.16341 -0.66704,1.67153c0.40027,-0.01715 0.83469,-0.02026 0.99088,0.29228c0.20055,0.40131 0.01825,0.86356 -0.13451,1.32112c1.42878,-0.03059 2.55673,0.19506 3.88699,0.69293l-0.04926,-0.04789c0,0 0.75205,0 0.75205,0.75205z" fill="url(#color-20)"/><path d="M323.97519,208.90332c0,0.75205 -0.75205,0.75205 -0.75205,0.75205l-0.47886,-0.04789c-0.74885,-0.28141 -1.44366,-0.55849 -2.25286,-0.59796c-0.09253,-0.00451 -2.14781,0.02301 -2.24988,-0.04347c-0.07228,-0.04708 -0.13921,-0.10002 -0.20194,-0.15758l-0.02349,0.02819l-0.63999,-0.53332c-0.16791,-0.13793 -0.27501,-0.34717 -0.27501,-0.58142c0,-0.17956 0.06292,-0.34442 0.16793,-0.47374c-0.50021,-0.23514 -0.97569,-0.66763 -1.01083,-0.76673c-0.12162,-0.34307 0.56853,-1.04497 1.11564,-1.44428h-0.70209c-0.41534,0 -0.75205,-0.33671 -0.75205,-0.75205c0,-0.38303 0.28634,-0.69918 0.65664,-0.74606l0.54963,-0.07851c0.1938,-0.24057 0.24961,-0.59496 0.37718,-0.88172c-0.69395,-0.15608 -1.41385,-0.24505 -2.00763,-0.61894c-0.53594,-0.33748 -1.35488,-0.76377 -1.29119,-1.3939c0.06512,-0.64423 0.99505,-0.83737 1.55037,-1.17036c0.06788,-0.04071 0.15424,-0.08292 0.24832,-0.12002c-0.16902,-0.0751 -0.32379,-0.17126 -0.44261,-0.30794c-0.03385,-0.03894 -0.06566,-0.07923 -0.0957,-0.12069l-0.01511,0.0126l-0.53384,-0.64061c-0.11072,-0.13097 -0.17747,-0.30031 -0.17747,-0.48524c0,-0.41534 0.3367,-0.75205 0.75205,-0.75205h0.9666c0.40249,0.00296 0.94778,0.29302 1.20742,-0.01454c0.42367,-0.50187 0.12011,-1.54837 0.70949,-1.83817c0.40557,-0.19942 0.88224,0.2081 1.33187,0.25378c1.10889,0.11266 2.06091,-0.03612 3.07928,0.12385c0.18541,0.18917 0.395,0.35455 0.62376,0.49114c0.09934,0.10094 0.20559,0.19507 0.31797,0.28162c0.00612,0.20231 0.17205,0.36444 0.37585,0.36444c0.02154,0 0.04267,-0.00181 0.06323,-0.0053c-0.00682,0.02299 -0.0147,0.04649 -0.0237,0.0705c-0.26406,0.70417 -0.96823,0.4401 -0.96823,0.4401c-1.25868,-0.49424 -2.45241,0.0174 -3.73652,-0.28638c-0.17825,-0.04217 -0.21634,-0.32286 -0.38653,-0.39061c-0.10674,-0.04249 0.19071,0.19048 0.16517,0.30249c-0.10376,0.45505 -0.19017,0.97586 -0.52967,1.29613c-0.23768,0.22422 -0.57903,0.33002 -0.94226,0.37887c0.37107,0.39316 0.61112,0.91676 0.50775,1.32423c-0.03549,0.13992 -0.77522,0.66847 -1.46643,0.93218c0.21695,0.04901 0.43168,0.10881 0.64344,0.17499c0.53173,0.16619 1.03795,0.40508 1.55692,0.60761l0.07296,0.10398l0.02768,-0.03321l0.63999,0.53332c0.16791,0.13793 0.27501,0.34717 0.27501,0.58142c0,0.39037 -0.29742,0.71126 -0.67802,0.74846l-0.34517,0.03835c0.07544,0.19699 0.14854,0.44731 0.21787,0.76036c0.12982,0.58619 -0.27848,1.16341 -0.66704,1.67153c0.40027,-0.01715 0.83469,-0.02026 0.99088,0.29228c0.20055,0.40131 0.01825,0.86356 -0.13451,1.32112c1.42878,-0.03059 2.55673,0.19506 3.88699,0.69293l-0.04926,-0.04789c0,0 0.75205,0 0.75205,0.75205z" fill="url(#color-21)"/></g><path d="M331.52252,203.24588l-12.22487,10.20823v-20.41645z" fill="#ff7166" stroke="#ffffff" stroke-width="1.5"/><path d="M346.20571,213.79477l-20.79563,20.79563v-41.3334c0.05339,-0.03225 0.10611,-0.06551 0.15812,-0.09975z" fill="url(#color-22)" stroke="#ffffff" stroke-width="1.5"/><path d="M342.19395,210.09758h15.96514v7.39438h-15.96514z" fill="url(#color-23)" stroke="#ffffff" stroke-width="1.5"/><path d="M358.15909,209.08925h1.51249v9.41103h-1.51249z" fill="#740000" stroke="#ffffff" stroke-width="1"/><path d="M312.99561,191.46289c5.74255,0 10.39782,4.65526 10.39782,10.39782c0,5.74255 -4.65526,10.39782 -10.39782,10.39782c-5.74255,0 -10.39782,-4.65526 -10.39782,-10.39782c0,-5.74255 4.65526,-10.39782 10.39782,-10.39782z" fill="url(#color-24)" stroke="none" stroke-width="0"/><path d="M312.99561,213.70831c5.74255,0 10.39782,4.65526 10.39782,10.39782c0,5.74256 -4.65526,10.39782 -10.39782,10.39782c-5.74255,0 -10.39782,-4.65526 -10.39782,-10.39782c0,-5.74255 4.65526,-10.39782 10.39782,-10.39782z" fill="url(#color-25)" stroke="none" stroke-width="0"/><path d="M345.1349,233.03696c1.85627,0 3.36108,1.50481 3.36108,3.36108c0,1.85627 -1.50481,3.36108 -3.36108,3.36108c-1.85627,0 -3.36108,-1.50481 -3.36108,-3.36108c0,-1.85627 1.50481,-3.36108 3.36108,-3.36108z" fill="#ff8383" stroke="#ffffff" stroke-width="1.5"/><path d="M345.1349,234.04528c1.29939,0 2.35276,1.05337 2.35276,2.35276c0,1.29939 -1.05337,2.35276 -2.35276,2.35276c-1.29939,0 -2.35276,-1.05337 -2.35276,-2.35276c0,-1.29939 1.05337,-2.35276 2.35276,-2.35276z" fill="#000000" stroke="#ffffff" stroke-width="0.5"/><path d="M346.11646,237.70953c-0.59066,0 -0.59066,-2.67141 0,-2.67141c0.59066,0 1.06949,0.59801 1.06949,1.3357c0,0.73769 -0.47883,1.33571 -1.06949,1.33571z" fill="#ffffff" stroke="#ffffff" stroke-width="0.5"/><path d="M297.6359,215.61101c0,-18.50086 14.99791,-33.49878 33.49878,-33.49878c18.50086,0 33.49878,14.99791 33.49878,33.49878c0,18.50086 -14.99791,33.49878 -33.49878,33.49878c-18.50086,0 -33.49878,-14.99791 -33.49878,-33.49878z" fill="url(#color-26)" stroke="none" stroke-width="0"/></g><text transform="translate(379.27341,262.67374) scale(0.5,0.5)" font-size="40" xml:space="preserve" fill="#4d4d4d" fill-rule="nonzero" stroke="none" stroke-width="1" stroke-linecap="butt" stroke-linejoin="miter" stroke-miterlimit="10" stroke-dasharray="" stroke-dashoffset="0" font-family="&quot;MV Boli&quot;, Pixel" font-weight="normal" text-anchor="start" style="mix-blend-mode: normal"><tspan x="0" dy="0">100%</tspan></text><g><path d="M254.35482,190.07721c11.70803,0 21.19925,9.49123 21.19925,21.19925c0,11.70803 -9.49123,21.19925 -21.19925,21.19925c-11.70803,0 -21.19925,-9.49123 -21.19925,-21.19925c0,-11.70803 9.49123,-21.19925 21.19925,-21.19925z" fill="url(#color-27)" stroke="#d4d4d4" stroke-width="2" stroke-linecap="butt"/><path d="M267.10446,220.04081v-17.30507l8.65253,8.65254z" fill="#221818" stroke="#d4d4d4" stroke-width="2" stroke-linecap="butt"/><path d="M267.10446,202.73573l15.02732,-17.17408" fill="none" stroke="#d4d4d4" stroke-width="2" stroke-linecap="round"/><path d="M267.16995,218.75275l17.17408,15.02732" fill="none" stroke="#d4d4d4" stroke-width="2" stroke-linecap="round"/><path d="M258.87218,204.30397c1.36347,0 2.46877,1.10531 2.46877,2.46878c0,1.36347 -1.10531,2.46878 -2.46877,2.46878c-1.36347,0 -2.46878,-1.10531 -2.46878,-2.46878c0,-1.36347 1.10531,-2.46878 2.46878,-2.46878z" fill="none" stroke="#d4d4d4" stroke-width="2" stroke-linecap="butt"/><path d="M258.87218,214.17906c1.36347,0 2.46877,1.10531 2.46877,2.46878c0,1.36347 -1.10531,2.46878 -2.46877,2.46878c-1.36347,0 -2.46878,-1.10531 -2.46878,-2.46878c0,-1.36347 1.10531,-2.46878 2.46878,-2.46878z" fill="none" stroke="#d4d4d4" stroke-width="2" stroke-linecap="butt"/><path d="M271.43073,209.24151c1.06706,0 1.93208,0.86502 1.93208,1.93208c0,1.06706 -0.86502,1.93208 -1.93208,1.93208c-1.06706,0 -1.93208,-0.86502 -1.93208,-1.93208c0,-1.06706 0.86502,-1.93208 1.93208,-1.93208z" fill="none" stroke="#d4d4d4" stroke-width="2" stroke-linecap="butt"/><path d="M208.52149,211.27646c0,-25.31304 20.52028,-45.83333 45.83333,-45.83333c25.31304,0 45.83333,20.52028 45.83333,45.83333c0,25.31304 -20.52028,45.83333 -45.83333,45.83333c-25.31304,0 -45.83333,-20.52028 -45.83333,-45.83333z" fill="url(#color-28)" stroke="none" stroke-width="0" stroke-linecap="butt"/></g></g><path d="M138,141c0,-100.51582 81.48418,-182 182,-182c100.51582,0 182,81.48418 182,182c0,100.51582 -81.48418,182 -182,182c-100.51582,0 -182,-81.48418 -182,-182z" fill="url(#color-29)" stroke="none" stroke-width="0" stroke-linecap="butt"/></g></g></svg>