<svg version="1.1" xmlns="http://www.w3.org/2000/svg" xmlns:xlink="http://www.w3.org/1999/xlink" width="66.67544" height="42.17506" viewBox="0,0,66.67544,42.17506"><defs><radialGradient cx="353.33773" cy="182.30125" r="12.25019" gradientUnits="userSpaceOnUse" id="color-1"><stop offset="0" stop-color="#980000"/><stop offset="1" stop-color="#980000" stop-opacity="0"/></radialGradient><radialGradient cx="320" cy="180" r="21.08753" gradientUnits="userSpaceOnUse" id="color-2"><stop offset="0" stop-color="#980000"/><stop offset="1" stop-color="#980000" stop-opacity="0"/></radialGradient><radialGradient cx="320.06119" cy="180.09739" r="7.29349" gradientUnits="userSpaceOnUse" id="color-3"><stop offset="0" stop-color="#030303"/><stop offset="1" stop-color="#000000" stop-opacity="0.16078"/></radialGradient><radialGradient cx="320.06119" cy="180.09739" r="5.89305" gradientUnits="userSpaceOnUse" id="color-4"><stop offset="0" stop-color="#252525"/><stop offset="1" stop-color="#000000"/></radialGradient><radialGradient cx="320.06119" cy="180.09739" r="3.08553" gradientUnits="userSpaceOnUse" id="color-5"><stop offset="0" stop-color="#630000"/><stop offset="1" stop-color="#630000" stop-opacity="0"/></radialGradient></defs><g transform="translate(-298.91247,-158.91247)"><g stroke-width="0" stroke-miterlimit="10"><path d="M352.68798,185.18088v-5.50925h5.9289v5.50925z" fill="#ab0000" stroke="#000000"/><path d="M331.47331,185.27726c-1.70084,0 -3.07965,-1.40281 -3.07965,-3.13326v-3.5955c0,-1.73045 1.37881,-3.13326 3.07965,-3.13326h4.28685c1.70084,0 3.07965,1.40281 3.07965,3.13326v3.5955c0,1.73045 -1.37881,3.13326 -3.07965,3.13326z" fill="#980000" stroke="none"/><path d="M347.63443,186.2263c-1.1851,0 -2.14582,-1.40281 -2.14582,-3.13326v-1.58479c0,-1.73045 0.96072,-3.13326 2.14582,-3.13326h5.87219c1.1851,0 2.14582,1.40281 2.14582,3.13326v1.58479c0,1.73045 -0.96072,3.13326 -2.14582,3.13326z" fill="#6a0000" stroke="none"/><path d="M323.42084,186.81955c0,-1.73045 1.37881,-3.13326 3.07965,-3.13326h4.00453c1.70084,0 3.07965,1.40281 3.07965,3.13326v4.07424c0,1.73045 -1.37881,3.13326 -3.07965,3.13326h-4.00453c-1.70084,0 -3.07965,-1.40281 -3.07965,-3.13326z" fill="#424242" stroke="none"/><path d="M323.42084,169.10621c0,-1.73045 1.37881,-3.13326 3.07965,-3.13326h4.00453c1.70084,0 3.07965,1.40281 3.07965,3.13326v4.07424c0,1.73045 -1.37881,3.13326 -3.07965,3.13326h-4.00453c-1.70084,0 -3.07965,-1.40281 -3.07965,-3.13326z" fill="#424242" stroke="none"/><path d="M320.06121,169.66088c5.66531,0 10.25794,4.67258 10.25794,10.43651c0,5.76393 -4.59263,10.43651 -10.25794,10.43651c-5.66531,0 -10.25794,-4.67258 -10.25794,-10.43651c0,-5.76393 4.59263,-10.43651 10.25794,-10.43651z" fill="#7c0000" stroke="#000000"/><path d="M316.57916,190.89379c0,1.73045 -1.37881,3.13326 -3.07965,3.13326h-4.00453c-1.70084,0 -3.07965,-1.40281 -3.07965,-3.13326v-4.07424c0,-1.73045 1.37881,-3.13326 3.07965,-3.13326h4.00453c1.70084,0 3.07965,1.40281 3.07965,3.13326z" fill="#424242" stroke="none"/><path d="M316.57916,173.18045c0,1.73045 -1.37881,3.13326 -3.07965,3.13326h-4.00453c-1.70084,0 -3.07965,-1.40281 -3.07965,-3.13326v-4.07424c0,-1.73045 1.37881,-3.13326 3.07965,-3.13326h4.00453c1.70084,0 3.07965,1.40281 3.07965,3.13326z" fill="#424242" stroke="none"/><path d="M315.36261,181.91107c-0.96535,0 -1.74791,-0.79619 -1.74791,-1.77834v-2.04069c0,-0.98215 0.78257,-1.77834 1.74791,-1.77834h2.43308c0.96535,0 1.74791,0.79619 1.74791,1.77834v2.04069c0,0.98215 -0.78257,1.77834 -1.74791,1.77834z" fill="#980000" stroke="none"/><path d="M321.29152,187.50844c-0.96535,0 -1.74791,-0.79619 -1.74791,-1.77834v-2.04069c0,-0.98215 0.78257,-1.77834 1.74791,-1.77834h2.43308c0.96535,0 1.74791,0.79619 1.74791,1.77834v2.04069c0,0.98215 -0.78257,1.77834 -1.74791,1.77834z" fill="#980000" stroke="none"/><path d="M320.23414,176.31371c-0.96535,0 -1.74791,-0.79619 -1.74791,-1.77834v-2.04069c0,-0.98215 0.78257,-1.77834 1.74791,-1.77834h2.43308c0.96535,0 1.74791,0.79619 1.74791,1.77834v2.04069c0,0.98215 -0.78257,1.77834 -1.74791,1.77834z" fill="#980000" stroke="none"/><path d="M324.25597,181.91107c-0.96535,0 -1.74791,-0.79619 -1.74791,-1.77834v-2.04069c0,-0.98215 0.78257,-1.77834 1.74791,-1.77834h2.43308c0.96535,0 1.74791,0.79619 1.74791,1.77834v2.04069c0,0.98215 -0.78257,1.77834 -1.74791,1.77834z" fill="#980000" stroke="none"/><g><path d="M341.21063,183.85217v-4.50014h5.9289v4.50014z" fill="#6b2f2f" stroke="#000000"/><path d="M338.21621,181.6021c-1.70084,0 -3.07965,-1.40281 -3.07965,-3.13326v-1.58479c0,-1.73045 1.37881,-3.13326 3.07965,-3.13326h8.42767c1.70084,0 3.07965,1.40281 3.07965,3.13326v1.58479c0,1.73045 -1.37881,3.13326 -3.07965,3.13326z" fill="#6a0000" stroke="none"/></g><path d="M341.08753,182.30125c0,-6.76559 5.4846,-12.25019 12.25019,-12.25019c6.76559,0 12.25019,5.4846 12.25019,12.25019c0,6.76559 -5.4846,12.2502 -12.25019,12.2502c-6.76559,0 -12.25019,-5.4846 -12.25019,-12.2502z" fill="url(#color-1)" stroke="#000000"/><path d="M298.91247,180c0,-11.64632 9.44121,-21.08753 21.08753,-21.08753c11.64632,0 21.08753,9.44121 21.08753,21.08753c0,11.64632 -9.44121,21.08753 -21.08753,21.08753c-11.64632,0 -21.08753,-9.44121 -21.08753,-21.08753z" fill="url(#color-2)" stroke="#000000"/><g stroke="#000000"><path d="M312.76772,180.09739c0,-4.09821 3.2654,-7.42045 7.29348,-7.42045c4.02808,0 7.29349,3.32224 7.29349,7.42045c0,4.09821 -3.2654,7.42045 -7.29349,7.42045c-4.02808,0 -7.29348,-3.32224 -7.29348,-7.42045z" fill="url(#color-3)"/><path d="M314.16815,180.09739c0,-3.3113 2.6384,-5.99564 5.89305,-5.99564c3.25464,0 5.89305,2.68434 5.89305,5.99564c0,3.3113 -2.6384,5.99564 -5.89305,5.99564c-3.25464,0 -5.89305,-2.68434 -5.89305,-5.99564z" fill="url(#color-4)"/><path d="M319.22588,180.09739c0,-0.84803 0.374,-1.5355 0.83534,-1.5355c0.46134,0 0.83532,0.68747 0.83532,1.5355c0,0.84803 -0.374,1.5355 -0.83532,1.5355c-0.46134,0 -0.83534,-0.68747 -0.83534,-1.5355z" fill="#630000"/><path d="M319.50127,180.09739c0,-0.31463 0.2507,-0.56971 0.55995,-0.56971c0.30925,0 0.55993,0.25506 0.55993,0.56971c0,0.31463 -0.25069,0.56971 -0.55993,0.56971c-0.30925,0 -0.55995,-0.25506 -0.55995,-0.56971z" fill="#000000"/><path d="M316.97568,180.09739c0,-1.73374 1.38143,-3.13924 3.08551,-3.13924c1.70408,0 3.08553,1.40549 3.08553,3.13924c0,1.73374 -1.38144,3.13924 -3.08553,3.13924c-1.70408,0 -3.08551,-1.40549 -3.08551,-3.13924z" fill="url(#color-5)"/></g></g></g></svg>