<svg version="1.1" xmlns="http://www.w3.org/2000/svg" xmlns:xlink="http://www.w3.org/1999/xlink" width="233.92718" height="233.92718" viewBox="0,0,233.92718,233.92718"><defs><radialGradient cx="320" cy="180" r="116.96359" gradientUnits="userSpaceOnUse" id="color-1"><stop offset="0" stop-color="#077f34"/><stop offset="1" stop-color="#077f34" stop-opacity="0"/></radialGradient></defs><g transform="translate(-203.03641,-63.03641)"><g data-paper-data="{&quot;isPaintingLayer&quot;:true}" fill-rule="nonzero" stroke-linecap="butt" stroke-linejoin="miter" stroke-miterlimit="10" stroke-dasharray="" stroke-dashoffset="0" style="mix-blend-mode: normal"><path d="M291.29854,180c0,-15.85138 12.85008,-28.70146 28.70146,-28.70146c15.85138,0 28.70146,12.85008 28.70146,28.70146c0,15.85138 -12.85008,28.70146 -28.70146,28.70146c-15.85138,0 -28.70146,-12.85008 -28.70146,-28.70146z" fill="#ffffff" stroke="none" stroke-width="0"/><path d="M226.28641,180c0,-51.75659 41.957,-93.71359 93.71359,-93.71359c51.75659,0 93.71359,41.957 93.71359,93.71359c0,51.75659 -41.957,93.71359 -93.71359,93.71359c-51.75659,0 -93.71359,-41.957 -93.71359,-93.71359z" fill="none" stroke-opacity="0.23529" stroke="#ffffff" stroke-width="8"/><path d="M203.03641,180c0,-64.5972 52.36639,-116.96359 116.96359,-116.96359c64.5972,0 116.96359,52.36639 116.96359,116.96359c0,64.5972 -52.36639,116.96359 -116.96359,116.96359c-64.5972,0 -116.96359,-52.36639 -116.96359,-116.96359z" fill="url(#color-1)" stroke="#000000" stroke-width="0"/></g></g></svg>