<svg version="1.1" xmlns="http://www.w3.org/2000/svg" xmlns:xlink="http://www.w3.org/1999/xlink" width="38.5" height="38.5" viewBox="0,0,38.5,38.5"><defs><radialGradient cx="320" cy="180" r="19.25" gradientUnits="userSpaceOnUse" id="color-1"><stop offset="0" stop-color="#4961d1"/><stop offset="1" stop-color="#4961d1" stop-opacity="0"/></radialGradient><radialGradient cx="346.25002" cy="180" r="3.78571" gradientUnits="userSpaceOnUse" id="color-2"><stop offset="0" stop-color="#2d7002" stop-opacity="0.46175"/><stop offset="1" stop-color="#2d7002" stop-opacity="0"/></radialGradient><radialGradient cx="319.91757" cy="178.79828" r="9.1377" gradientUnits="userSpaceOnUse" id="color-3"><stop offset="0" stop-color="#162773"/><stop offset="1" stop-color="#4961d1"/></radialGradient><radialGradient cx="346.25002" cy="180" r="3.78571" gradientUnits="userSpaceOnUse" id="color-4"><stop offset="0" stop-color="#2d7002" stop-opacity="0.46175"/><stop offset="1" stop-color="#2d7002" stop-opacity="0"/></radialGradient><radialGradient cx="319.32932" cy="182.85278" r="6.28979" gradientUnits="userSpaceOnUse" id="color-5"><stop offset="0" stop-color="#595903" stop-opacity="0.9098"/><stop offset="1" stop-color="#595903" stop-opacity="0"/></radialGradient></defs><g transform="translate(-300.75,-160.75)"><g data-paper-data="{&quot;isPaintingLayer&quot;:true}" fill-rule="nonzero" stroke-linejoin="miter" stroke-miterlimit="10" stroke-dasharray="" stroke-dashoffset="0" style="mix-blend-mode: normal"><path d="M300.75,180c0,-10.63148 8.61852,-19.25 19.25,-19.25c10.63148,0 19.25,8.61852 19.25,19.25c0,10.63148 -8.61852,19.25 -19.25,19.25c-10.63148,0 -19.25,-8.61852 -19.25,-19.25z" fill="url(#color-1)" stroke="#6e6e6e" stroke-width="0" stroke-linecap="butt"/><path d="" fill="#494949" stroke="#6e6e6e" stroke-width="1" stroke-linecap="butt"/><g><path d="" fill="none" stroke="#ffffff" stroke-width="2.5" stroke-linecap="round"/><path d="" fill="url(#color-2)" stroke="none" stroke-width="0" stroke-linecap="butt"/></g><path d="M311.04022,184.80004c2.03756,-3.52916 6.28582,-10.88736 7.53541,-13.05172c0.6754,-1.16982 2.18018,-1.15796 2.86003,0.01958c1.20176,2.08151 5.15684,8.93191 7.27091,12.59359c0.81845,1.41759 0.16334,2.35726 -1.62147,2.35726c-4.47345,0 -12.63562,0 -14.875,0c-1.11885,0 -1.84519,-0.74906 -1.16989,-1.91871z" fill="url(#color-3)" stroke="#6f87f2" stroke-width="1" stroke-linecap="butt"/><path d="" fill="#494949" stroke="#6e6e6e" stroke-width="1" stroke-linecap="butt"/><g><path d="" fill="none" stroke="#ffffff" stroke-width="2.5" stroke-linecap="round"/><path d="" fill="url(#color-4)" stroke="none" stroke-width="0" stroke-linecap="butt"/></g><text transform="translate(316.47436,179.97449) scale(0.25488,0.25488)" font-size="40" xml:space="preserve" fill="#00ff08" fill-rule="nonzero" stroke="none" stroke-width="1" stroke-linecap="butt" stroke-linejoin="miter" stroke-miterlimit="10" stroke-dasharray="" stroke-dashoffset="0" font-family="&quot;MV Boli&quot;, Technological" font-weight="normal" text-anchor="start" style="mix-blend-mode: normal"><tspan x="0" dy="0">+</tspan></text><g stroke="none" stroke-width="0" stroke-linecap="butt"><path d="M315.4917,183.257c0,-0.7127 0.57776,-1.29046 1.29046,-1.29046c0.7127,0 1.29046,0.57776 1.29046,1.29046c0,0.7127 -0.57776,1.29046 -1.29046,1.29046c-0.7127,0 -1.29046,-0.57776 -1.29046,-1.29046z" fill="#d0d16b"/><path d="M316.34961,182.80382c0,-0.7127 0.57776,-1.29046 1.29046,-1.29046c0.7127,0 1.29046,0.57776 1.29046,1.29046c0,0.7127 -0.57776,1.29046 -1.29046,1.29046c-0.7127,0 -1.29046,-0.57776 -1.29046,-1.29046z" fill="#898a46"/><path d="M316.34961,181.51336c0,-0.7127 0.57776,-1.29046 1.29046,-1.29046c0.7127,0 1.29046,0.57776 1.29046,1.29046c0,0.7127 -0.57776,1.29046 -1.29046,1.29046c-0.7127,0 -1.29046,-0.57776 -1.29046,-1.29046z" fill="#747502"/><path d="M318.07262,181.96654c0,-0.7127 0.57776,-1.29046 1.29046,-1.29046c0.7127,0 1.29046,0.57776 1.29046,1.29046c0,0.7127 -0.57776,1.29046 -1.29046,1.29046c-0.7127,0 -1.29046,-0.57776 -1.29046,-1.29046z" fill="#747502"/><path d="M318.30834,183.257c0,-0.7127 0.57776,-1.29046 1.29046,-1.29046c0.7127,0 1.29046,0.57776 1.29046,1.29046c0,0.7127 -0.57776,1.29046 -1.29046,1.29046c-0.7127,0 -1.29046,-0.57776 -1.29046,-1.29046z" fill="#747502"/><path d="M317.77833,184.54746c0,-0.7127 0.57776,-1.29046 1.29046,-1.29046c0.7127,0 1.29046,0.57776 1.29046,1.29046c0,0.7127 -0.57776,1.29046 -1.29046,1.29046c-0.7127,0 -1.29046,-0.57776 -1.29046,-1.29046z" fill="#898a24"/><path d="M320.05968,182.56568c0,-0.7127 0.57776,-1.29046 1.29046,-1.29046c0.7127,0 1.29046,0.57776 1.29046,1.29046c0,0.7127 -0.57776,1.29046 -1.29046,1.29046c-0.7127,0 -1.29046,-0.57776 -1.29046,-1.29046z" fill="#747502"/><path d="M319.36308,180.67608c0,-0.7127 0.57776,-1.29046 1.29046,-1.29046c0.7127,0 1.29046,0.57776 1.29046,1.29046c0,0.7127 -0.57776,1.29046 -1.29046,1.29046c-0.7127,0 -1.29046,-0.57776 -1.29046,-1.29046z" fill="#565704"/><path d="M317.64007,180.83739c0,-0.7127 0.57776,-1.29046 1.29046,-1.29046c0.7127,0 1.29046,0.57776 1.29046,1.29046c0,0.7127 -0.57776,1.29046 -1.29046,1.29046c-0.7127,0 -1.29046,-0.57776 -1.29046,-1.29046z" fill="#757502"/><path d="M319.87533,184.5705c0,-0.7127 0.57776,-1.29046 1.29046,-1.29046c0.7127,0 1.29046,0.57776 1.29046,1.29046c0,0.7127 -0.57776,1.29046 -1.29046,1.29046c-0.7127,0 -1.29046,-0.57776 -1.29046,-1.29046z" fill="#d0d16b"/><path d="M313.03953,182.85278c0,-3.47375 2.81603,-6.28979 6.28979,-6.28979c3.47375,0 6.28979,2.81603 6.28979,6.28979c0,3.47375 -2.81603,6.28979 -6.28979,6.28979c-3.47375,0 -6.28979,-2.81603 -6.28979,-6.28979z" fill="url(#color-5)"/></g></g></g></svg>