<svg version="1.1" xmlns="http://www.w3.org/2000/svg" xmlns:xlink="http://www.w3.org/1999/xlink" width="62.37198" height="42.17506" viewBox="0,0,62.37198,42.17506"><defs><radialGradient cx="349.03427" cy="182.42625" r="12.25019" gradientUnits="userSpaceOnUse" id="color-1"><stop offset="0" stop-color="#980000"/><stop offset="1" stop-color="#980000" stop-opacity="0"/></radialGradient><radialGradient cx="320" cy="180" r="21.08753" gradientUnits="userSpaceOnUse" id="color-2"><stop offset="0" stop-color="#980000"/><stop offset="1" stop-color="#980000" stop-opacity="0"/></radialGradient><radialGradient cx="320.05326" cy="180.09739" r="4.76422" gradientUnits="userSpaceOnUse" id="color-3"><stop offset="0" stop-color="#030303"/><stop offset="1" stop-color="#000000" stop-opacity="0.16078"/></radialGradient><radialGradient cx="320.05326" cy="180.09739" r="3.84944" gradientUnits="userSpaceOnUse" id="color-4"><stop offset="0" stop-color="#252525"/><stop offset="1" stop-color="#000000"/></radialGradient><radialGradient cx="320.05326" cy="180.09739" r="2.01552" gradientUnits="userSpaceOnUse" id="color-5"><stop offset="0" stop-color="#630000"/><stop offset="1" stop-color="#630000" stop-opacity="0"/></radialGradient></defs><g transform="translate(-298.91247,-158.91247)"><g stroke-width="0" stroke-miterlimit="10"><path d="M348.04076,185.18088v-5.50925h5.15835v5.50925z" fill="#ab0000" stroke="#000000"/><path d="M329.58326,185.27726c-1.47979,0 -2.67941,-1.40281 -2.67941,-3.13326v-3.5955c0,-1.73045 1.19961,-3.13326 2.67941,-3.13326h3.7297c1.47979,0 2.67941,1.40281 2.67941,3.13326v3.5955c0,1.73045 -1.19961,3.13326 -2.67941,3.13326z" fill="#980000" stroke="none"/><path d="M343.644,186.2263c-1.03108,0 -1.86694,-1.40281 -1.86694,-3.13326v-1.58479c0,-1.73045 0.83586,-3.13326 1.86694,-3.13326h5.109c1.03108,0 1.86694,1.40281 1.86694,3.13326v1.58479c0,1.73045 -0.83586,3.13326 -1.86694,3.13326z" fill="#6a0000" stroke="none"/><path d="M322.97625,186.81955c0,-1.73045 1.19961,-3.13326 2.67941,-3.13326h3.48408c1.47979,0 2.67941,1.40281 2.67941,3.13326v4.07424c0,1.73045 -1.19961,3.13326 -2.67941,3.13326h-3.48408c-1.47979,0 -2.67941,-1.40281 -2.67941,-3.13326z" fill="#424242" stroke="none"/><path d="M322.97625,169.10621c0,-1.73045 1.19961,-3.13326 2.67941,-3.13326h3.48408c1.47979,0 2.67941,1.40281 2.67941,3.13326v4.07424c0,1.73045 -1.19961,3.13326 -2.67941,3.13326h-3.48408c-1.47979,0 -2.67941,-1.40281 -2.67941,-3.13326z" fill="#424242" stroke="none"/><path d="M320.05326,169.66088c4.92901,0 8.92477,4.67258 8.92477,10.43651c0,5.76393 -3.99576,10.43651 -8.92477,10.43651c-4.92901,0 -8.92477,-4.67258 -8.92477,-10.43651c0,-5.76393 3.99576,-10.43651 8.92477,-10.43651z" fill="#7c0000" stroke="#000000"/><path d="M317.02374,190.89379c0,1.73045 -1.19961,3.13326 -2.67941,3.13326h-3.48408c-1.47979,0 -2.67941,-1.40281 -2.67941,-3.13326v-4.07424c0,-1.73045 1.19961,-3.13326 2.67941,-3.13326h3.48408c1.47979,0 2.67941,1.40281 2.67941,3.13326z" fill="#424242" stroke="none"/><path d="M317.02374,173.18045c0,1.73045 -1.19961,3.13326 -2.67941,3.13326h-3.48408c-1.47979,0 -2.67941,-1.40281 -2.67941,-3.13326v-4.07424c0,-1.73045 1.19961,-3.13326 2.67941,-3.13326h3.48408c1.47979,0 2.67941,1.40281 2.67941,3.13326z" fill="#424242" stroke="none"/><path d="M315.96531,181.91107c-0.83988,0 -1.52074,-0.79619 -1.52074,-1.77834v-2.04069c0,-0.98215 0.68086,-1.77834 1.52074,-1.77834h2.11686c0.83988,0 1.52074,0.79619 1.52074,1.77834v2.04069c0,0.98215 -0.68086,1.77834 -1.52074,1.77834z" fill="#980000" stroke="none"/><path d="M321.12369,187.50844c-0.83988,0 -1.52074,-0.79619 -1.52074,-1.77834v-2.04069c0,-0.98215 0.68086,-1.77834 1.52074,-1.77834h2.11686c0.83988,0 1.52074,0.79619 1.52074,1.77834v2.04069c0,0.98215 -0.68086,1.77834 -1.52074,1.77834z" fill="#980000" stroke="none"/><path d="M320.2037,176.31371c-0.83988,0 -1.52074,-0.79619 -1.52074,-1.77834v-2.04069c0,-0.98215 0.68086,-1.77834 1.52074,-1.77834h2.11686c0.83988,0 1.52074,0.79619 1.52074,1.77834v2.04069c0,0.98215 -0.68086,1.77834 -1.52074,1.77834z" fill="#980000" stroke="none"/><path d="M323.70285,181.91107c-0.83988,0 -1.52074,-0.79619 -1.52074,-1.77834v-2.04069c0,-0.98215 0.68086,-1.77834 1.52074,-1.77834h2.11686c0.83988,0 1.52074,0.79619 1.52074,1.77834v2.04069c0,0.98215 -0.68086,1.77834 -1.52074,1.77834z" fill="#980000" stroke="none"/><g><path d="M338.05507,185.12756v-4.50014h5.15835v4.50014z" fill="#6b2f2f" stroke="#000000"/><path d="M335.44982,182.87749c-1.47979,0 -2.67941,-1.40281 -2.67941,-3.13326v-1.58479c0,-1.73045 1.19961,-3.13326 2.67941,-3.13326h7.33237c1.47979,0 2.67941,1.40281 2.67941,3.13326v1.58479c0,1.73045 -1.19961,3.13326 -2.67941,3.13326z" fill="#6a0000" stroke="none"/></g><path d="M336.78407,182.42625c0,-6.76559 5.4846,-12.25019 12.25019,-12.25019c6.76559,0 12.25019,5.4846 12.25019,12.25019c0,6.76559 -5.4846,12.2502 -12.25019,12.2502c-6.76559,0 -12.25019,-5.4846 -12.25019,-12.2502z" fill="url(#color-1)" stroke="#000000"/><path d="M298.91247,180c0,-11.64632 9.44121,-21.08753 21.08753,-21.08753c11.64632,0 21.08753,9.44121 21.08753,21.08753c0,11.64632 -9.44121,21.08753 -21.08753,21.08753c-11.64632,0 -21.08753,-9.44121 -21.08753,-21.08753z" fill="url(#color-2)" stroke="#000000"/><g stroke="#000000"><path d="M315.28905,180.09739c0,-3.0769 2.13301,-5.57121 4.76421,-5.57121c2.6312,0 4.76422,2.49432 4.76422,5.57121c0,3.0769 -2.13301,5.57122 -4.76422,5.57122c-2.6312,0 -4.76421,-2.49432 -4.76421,-5.57122z" fill="url(#color-3)"/><path d="M316.20382,180.09739c0,-2.4861 1.72345,-4.50148 3.84944,-4.50148c2.12599,0 3.84944,2.01538 3.84944,4.50148c0,2.4861 -1.72345,4.50148 -3.84944,4.50148c-2.12599,0 -3.84944,-2.01538 -3.84944,-4.50148z" fill="url(#color-4)"/><path d="M319.50762,180.09739c0,-0.63669 0.24429,-1.15284 0.54566,-1.15284c0.30136,0 0.54565,0.51614 0.54565,1.15284c0,0.63669 -0.24429,1.15284 -0.54565,1.15284c-0.30136,0 -0.54566,-0.51614 -0.54566,-1.15284z" fill="#630000"/><path d="M319.68749,180.09739c0,-0.23622 0.16377,-0.42773 0.36576,-0.42773c0.20202,0 0.36575,0.19149 0.36575,0.42773c0,0.23622 -0.16376,0.42773 -0.36575,0.42773c-0.20202,0 -0.36576,-0.19149 -0.36576,-0.42773z" fill="#000000"/><path d="M318.03774,180.09739c0,-1.30168 0.90238,-2.35692 2.01552,-2.35692c1.11313,0 2.01552,1.05523 2.01552,2.35692c0,1.30168 -0.90239,2.35692 -2.01552,2.35692c-1.11313,0 -2.01552,-1.05523 -2.01552,-2.35692z" fill="url(#color-5)"/></g></g></g></svg>