<svg version="1.1" xmlns="http://www.w3.org/2000/svg" xmlns:xlink="http://www.w3.org/1999/xlink" width="299.33334" height="299.33334" viewBox="0,0,299.33334,299.33334"><defs><linearGradient x1="315.56772" y1="261.95914" x2="310.33361" y2="292.60701" gradientUnits="userSpaceOnUse" id="color-1"><stop offset="0" stop-color="#000000"/><stop offset="1" stop-color="#82c9ff"/></linearGradient><linearGradient x1="311.13553" y1="289.33417" x2="305.95266" y2="319.68202" gradientUnits="userSpaceOnUse" id="color-2"><stop offset="0" stop-color="#000000"/><stop offset="1" stop-color="#82c9ff"/></linearGradient><linearGradient x1="372.66667" y1="192.5527" x2="367.62775" y2="223.14591" gradientUnits="userSpaceOnUse" id="color-3"><stop offset="0" stop-color="#000000"/><stop offset="1" stop-color="#82c9ff"/></linearGradient><linearGradient x1="368.40814" y1="219.87748" x2="363.41855" y2="250.1712" gradientUnits="userSpaceOnUse" id="color-4"><stop offset="0" stop-color="#000000"/><stop offset="1" stop-color="#82c9ff"/></linearGradient><linearGradient x1="306.34991" y1="131.92404" x2="348.20946" y2="115.50819" gradientUnits="userSpaceOnUse" id="color-5"><stop offset="0" stop-color="#000000"/><stop offset="1" stop-color="#82c9ff"/></linearGradient><linearGradient x1="343.55782" y1="116.96036" x2="385.00759" y2="100.70522" gradientUnits="userSpaceOnUse" id="color-6"><stop offset="0" stop-color="#000000"/><stop offset="1" stop-color="#82c9ff"/></linearGradient><radialGradient cx="320.71814" cy="136.18192" r="55.04665" gradientUnits="userSpaceOnUse" id="color-7"><stop offset="0" stop-color="#81e9ff"/><stop offset="1" stop-color="#82bdff"/></radialGradient><radialGradient cx="321.56622" cy="243.31452" r="54.50775" gradientUnits="userSpaceOnUse" id="color-8"><stop offset="0" stop-color="#81e9ff"/><stop offset="1" stop-color="#82bdff"/></radialGradient><radialGradient cx="300.99307" cy="164.47958" r="12.50072" gradientUnits="userSpaceOnUse" id="color-9"><stop offset="0" stop-color="#000000"/><stop offset="1" stop-color="#82a8ff"/></radialGradient><radialGradient cx="300.99307" cy="164.47958" r="8.69932" gradientUnits="userSpaceOnUse" id="color-10"><stop offset="0" stop-color="#000000"/><stop offset="1" stop-color="#81e3ff"/></radialGradient><linearGradient x1="333.78574" y1="233.76354" x2="338.16842" y2="264.55737" gradientUnits="userSpaceOnUse" id="color-11"><stop offset="0" stop-color="#000000"/><stop offset="1" stop-color="#82c9ff"/></linearGradient><linearGradient x1="337.93185" y1="261.19467" x2="342.27162" y2="291.68704" gradientUnits="userSpaceOnUse" id="color-12"><stop offset="0" stop-color="#000000"/><stop offset="1" stop-color="#82c9ff"/></linearGradient><radialGradient cx="339.00693" cy="164.47958" r="12.50072" gradientUnits="userSpaceOnUse" id="color-13"><stop offset="0" stop-color="#000000"/><stop offset="1" stop-color="#82a8ff"/></radialGradient><radialGradient cx="339.00693" cy="164.47958" r="8.69932" gradientUnits="userSpaceOnUse" id="color-14"><stop offset="0" stop-color="#000000"/><stop offset="1" stop-color="#81e3ff"/></radialGradient><linearGradient x1="279.62997" y1="214.65889" x2="282.86466" y2="236.93083" gradientUnits="userSpaceOnUse" id="color-15"><stop offset="0" stop-color="#000000"/><stop offset="1" stop-color="#82c9ff"/></linearGradient><linearGradient x1="282.68654" y1="234.49823" x2="285.88956" y2="256.55213" gradientUnits="userSpaceOnUse" id="color-16"><stop offset="0" stop-color="#000000"/><stop offset="1" stop-color="#82c9ff"/></linearGradient><radialGradient cx="300.99307" cy="164.47958" r="28.97784" gradientUnits="userSpaceOnUse" id="color-17"><stop offset="0" stop-color="#ffffff" stop-opacity="0.51765"/><stop offset="1" stop-color="#ffffff" stop-opacity="0"/></radialGradient><radialGradient cx="339.00693" cy="164.47958" r="28.97784" gradientUnits="userSpaceOnUse" id="color-18"><stop offset="0" stop-color="#000000" stop-opacity="0.51765"/><stop offset="1" stop-color="#000000" stop-opacity="0"/></radialGradient><radialGradient cx="320" cy="180" r="149.66667" gradientUnits="userSpaceOnUse" id="color-19"><stop offset="0" stop-color="#000000" stop-opacity="0.51765"/><stop offset="1" stop-color="#000000" stop-opacity="0"/></radialGradient></defs><g transform="translate(-170.33333,-30.33333)"><g data-paper-data="{&quot;isPaintingLayer&quot;:true}" fill-rule="nonzero" stroke="none" stroke-width="0" stroke-linecap="butt" stroke-linejoin="miter" stroke-miterlimit="10" stroke-dasharray="" stroke-dashoffset="0" style="mix-blend-mode: normal"><g><path d="M325.14415,293.04078c0,0 -0.95371,0.36103 -2.36223,0.12048c-3.56072,-0.60811 -19.19299,-3.27782 -25.19811,-4.30338c-1.46831,-0.25077 -1.34924,1.34127 -1.34924,1.34127c0,0 -0.37643,-2.61704 0.66273,-4.04405c4.13692,-5.68094 14.67296,-20.14937 16.99408,-23.3368c0.88393,-1.21386 1.46866,-0.8478 1.46866,-0.8478c0,0 0.64291,-0.25193 1.0493,1.10446c1.06508,3.55479 5.90763,19.71708 8.08767,26.99306c0.6547,2.18511 0.64714,2.97276 0.64714,2.97276z" fill="url(#color-1)"/><path d="M296.6637,289.2202c0,0 0.0813,-0.85118 2.02196,-0.64258c6.70456,0.72063 21.96853,2.38217 24.91033,2.88458c0.94305,0.16106 1.59237,1.31975 1.59237,1.31975c0,0 0.20369,1.28893 -0.59074,2.37985c-3.60408,4.94923 -13.82461,18.98438 -16.51686,22.68147c-1.25965,1.7298 -2.30957,1.80775 -2.30957,1.80775c0,0 -0.89876,-0.2024 -1.46718,-2.09955c-1.21514,-4.05562 -5.85415,-19.53859 -7.85499,-26.2165c-0.57132,-1.90679 0.21468,-2.11477 0.21468,-2.11477z" fill="url(#color-2)"/></g><g><path d="M382.39952,223.49122c0,0 -0.94892,0.36563 -2.35494,0.13406c-3.55437,-0.58542 -19.15876,-3.15559 -25.15316,-4.14291c-1.46569,-0.2414 -1.33758,1.34547 -1.33758,1.34547c0,0 -0.3908,-2.60752 0.63706,-4.03666c4.09191,-5.68947 14.5133,-20.17961 16.80917,-23.37182c0.87432,-1.21567 1.45957,-0.85409 1.45957,-0.85409c0,0 0.63962,-0.25502 1.05288,1.09519c1.08305,3.53859 6.00733,19.62727 8.22415,26.8701c0.66575,2.17515 0.66286,2.96065 0.66286,2.96065z" fill="url(#color-3)"/><path d="M353.97602,219.8491c0,0 0.07606,-0.84927 2.01252,-0.6527c6.69011,0.67912 21.92127,2.24607 24.85783,2.72975c0.94137,0.15505 1.59571,1.30669 1.59571,1.30669c0,0 0.21072,1.28414 -0.57507,2.37669c-3.56486,4.95666 -13.67417,19.01287 -16.33714,22.71552c-1.24595,1.73239 -2.29248,1.81632 -2.29248,1.81632c0,0 -0.89744,-0.19655 -1.47546,-2.08506c-1.23565,-4.03714 -5.95296,-19.44958 -7.98756,-26.09707c-0.58096,-1.8981 0.20164,-2.11014 0.20164,-2.11014z" fill="url(#color-4)"/></g><g><path d="M337.68169,96.84525c0,0 1.15954,0.91118 1.91399,2.83499c1.90723,4.86332 10.2803,26.21421 13.4968,34.41614c0.78647,2.00545 2.66882,0.66862 2.66882,0.66862c0,0 -2.95928,2.42127 -5.50259,2.20066c-10.125,-0.87825 -35.91169,-3.11503 -41.59256,-3.60779c-2.16342,-0.18765 -2.147,-1.18515 -2.147,-1.18515c0,0 -0.79226,-0.60783 0.58365,-2.12441c3.60594,-3.97458 20.00074,-22.04558 27.38141,-30.18081c2.21654,-2.44315 3.19748,-3.02225 3.19748,-3.02225z" fill="url(#color-5)"/><path d="M354.22853,134.965c0,0 -1.11468,0.53523 -2.30625,-2.02359c-4.11664,-8.84019 -13.46291,-28.98183 -15.03862,-32.99982c-0.50513,-1.28804 0.4445,-2.95771 0.4445,-2.95771c0,0 1.44383,-1.21517 3.38815,-1.0465c8.82089,0.76513 33.83537,2.93493 40.42461,3.50649c3.08298,0.26742 3.96388,1.50922 3.96388,1.50922c0,0 0.42083,1.26408 -1.50362,3.38528c-4.11396,4.53457 -19.81968,21.84599 -26.59367,29.31253c-1.93422,2.13197 -2.77897,1.31411 -2.77897,1.31411z" fill="url(#color-6)"/></g><g><path d="M372.67138,188.54773c0,0 -3.11362,2.00613 -8.17334,2.00613c-12.79082,0 -68.94502,0 -90.51662,0c-5.27447,0 -3.90987,6.0184 -3.90987,6.0184c0,0 -2.8739,-9.77508 -0.09746,-15.91897c11.05309,-24.45902 39.20348,-86.75213 45.40508,-100.47547c2.36172,-5.22617 4.62083,-4.20689 4.62083,-4.20689c0,0 2.09379,-1.38512 4.32083,3.54303c5.83657,12.91556 32.3733,71.63786 44.31967,98.0736c3.58771,7.93912 4.03088,10.96016 4.03088,10.96016z" fill="url(#color-7)"/><path d="M270.98586,192.54299c0,0 -0.22362,-3.31246 6.67436,-3.78284c23.83118,-1.62507 78.09888,-5.24476 88.66644,-5.24476c3.38763,0 6.34472,4.01227 6.34472,4.01227c0,0 1.47929,4.80242 -0.64327,9.49935c-9.62944,21.30869 -36.93682,81.73632 -44.13005,97.65399c-3.36557,7.44755 -6.98375,8.43266 -6.98375,8.43266c0,0 -3.25765,-0.18729 -6.37257,-7.0802c-6.65888,-14.73521 -32.08023,-70.98932 -43.04464,-95.25212c-3.13074,-6.92792 -0.51125,-8.23836 -0.51125,-8.23836z" fill="url(#color-8)"/></g><g><path d="M281.98614,164.18716c0,-2.21651 6.9936,-4.00968 7.98056,-5.83038c2.17712,-4.01621 6.42946,-6.74344 11.31878,-6.74344c4.47017,0 8.40789,2.27968 10.71402,5.73987c1.35971,2.04016 8.0005,4.49071 8.0005,7.12636c0,2.21211 -6.40655,4.29383 -7.38988,6.11197c-2.17534,4.02213 -6.43093,6.75426 -11.32464,6.75426c-5.20929,0 -9.6955,-3.09586 -11.71914,-7.54809c-0.73674,-1.62091 -7.5802,-3.71402 -7.5802,-5.61056z" fill="#82a8ff"/><path d="M288.49235,164.47958c0,-6.90395 5.59676,-12.50071 12.50072,-12.50071c6.90395,0 12.50071,5.59676 12.50071,12.50071c0,6.90395 -5.59676,12.50071 -12.50071,12.50071c-6.90395,0 -12.50072,-5.59676 -12.50072,-12.50071z" fill="url(#color-9)"/><path d="M292.29375,164.47958c0,-4.80451 3.89482,-8.69933 8.69932,-8.69933c4.80451,0 8.69932,3.89482 8.69932,8.69933c0,4.80451 -3.89482,8.69932 -8.69932,8.69932c-4.80451,0 -8.69932,-3.89482 -8.69932,-8.69932z" fill="url(#color-10)"/></g><g><path d="M352.4089,260.44326c0,0 -0.7981,0.63543 -2.21334,0.83685c-3.57769,0.50919 -19.28439,2.74462 -25.31811,3.60335c-1.4753,0.20998 -0.87523,1.69008 -0.87523,1.69008c0,0 -1.15855,-2.37782 -0.60489,-4.05477c2.2041,-6.676 7.81756,-23.67867 9.05422,-27.4244c0.47095,-1.42647 1.13982,-1.25652 1.13982,-1.25652c0,0 0.53538,-0.4365 1.33713,0.73131c2.10118,3.06056 11.6545,16.9758 15.95523,23.24019c1.29159,1.88131 1.52516,2.6339 1.52516,2.6339z" fill="url(#color-11)"/><path d="M324.11175,265.50986c0,0 -0.18275,-0.83564 1.7296,-1.23017c6.60677,-1.36301 21.65447,-4.44621 24.61028,-4.86689c0.94754,-0.13486 1.92025,0.77039 1.92025,0.77039c0,0 0.58803,1.16551 0.16477,2.44752c-1.92021,5.81613 -7.36557,22.30963 -8.79997,26.6543c-0.67112,2.03278 -1.64741,2.42797 -1.64741,2.42797c0,0 -0.91798,0.08194 -2.03936,-1.55146c-2.39722,-3.49176 -11.549,-16.82212 -15.49623,-22.57159c-1.12708,-1.64169 -0.44194,-2.08007 -0.44194,-2.08007z" fill="url(#color-12)"/></g><g><path d="M320,164.18716c0,-2.21651 6.9936,-4.00968 7.98056,-5.83038c2.17712,-4.01621 6.42946,-6.74344 11.31878,-6.74344c4.47017,0 8.40789,2.27968 10.71402,5.73987c1.35971,2.04016 8.0005,4.49071 8.0005,7.12636c0,2.21211 -6.40655,4.29383 -7.38988,6.11197c-2.17534,4.02213 -6.43093,6.75426 -11.32464,6.75426c-5.20929,0 -9.6955,-3.09586 -11.71915,-7.54809c-0.73674,-1.62091 -7.5802,-3.71402 -7.5802,-5.61056z" fill="#82a8ff"/><path d="M326.50622,164.47958c0,-6.90395 5.59676,-12.50071 12.50072,-12.50071c6.90395,0 12.50071,5.59676 12.50071,12.50071c0,6.90395 -5.59675,12.50071 -12.50071,12.50071c-6.90395,0 -12.50072,-5.59676 -12.50072,-12.50071z" fill="url(#color-13)"/><path d="M330.3076,164.47958c0,-4.80451 3.89483,-8.69933 8.69933,-8.69933c4.80451,0 8.69932,3.89482 8.69932,8.69933c0,4.80451 -3.89482,8.69932 -8.69932,8.69932c-4.80451,0 -8.69933,-3.89482 -8.69933,-8.69932z" fill="url(#color-14)"/></g><g><path d="M293.15992,233.92466c0,0 -0.57616,0.46141 -1.59975,0.61007c-2.58759,0.37581 -13.94762,2.0257 -18.31157,2.6595c-1.06703,0.15497 -0.62979,1.22467 -0.62979,1.22467c0,0 -0.84318,-1.71808 -0.44605,-2.93259c1.581,-4.83499 5.60753,-17.14892 6.49459,-19.86172c0.33781,-1.0331 0.82213,-0.91152 0.82213,-0.91152c0,0 0.38648,-0.31694 0.96899,0.52638c1.52663,2.21014 8.4677,12.25884 11.59245,16.78258c0.93842,1.35856 1.10899,1.90263 1.10899,1.90263z" fill="url(#color-15)"/><path d="M272.69588,237.64903c0,0 -0.13396,-0.60425 1.24891,-0.89365c4.77754,-0.99986 15.65899,-3.26178 17.79681,-3.57227c0.68532,-0.09954 1.391,0.55345 1.391,0.55345c0,0 0.42788,0.8421 0.12427,1.77058c-1.37737,4.21224 -5.28332,16.15741 -6.31222,19.30397c-0.4814,1.47221 -1.18698,1.76018 -1.18698,1.76018c0,0 -0.66404,0.06118 -1.47879,-1.11835c-1.74173,-2.52152 -8.39105,-12.14786 -11.25895,-16.29977c-0.81889,-1.18553 -0.32406,-1.50413 -0.32406,-1.50413z" fill="url(#color-16)"/></g><path d="M272.01523,164.47958c0,-16.00402 12.97382,-28.97784 28.97784,-28.97784c16.00401,0 28.97784,12.97382 28.97784,28.97784c0,16.00402 -12.97382,28.97784 -28.97784,28.97784c-16.00401,0 -28.97784,-12.97382 -28.97784,-28.97784z" fill="url(#color-17)"/><path d="M310.02909,164.47958c0,-16.00402 12.97382,-28.97784 28.97784,-28.97784c16.00401,0 28.97784,12.97382 28.97784,28.97784c0,16.00402 -12.97382,28.97784 -28.97784,28.97784c-16.00401,0 -28.97784,-12.97382 -28.97784,-28.97784z" fill="url(#color-18)"/><path d="M170.33333,180c0,-82.6586 67.00805,-149.66667 149.66667,-149.66667c82.6586,0 149.66667,67.00805 149.66667,149.66667c0,82.6586 -67.00804,149.66667 -149.66667,149.66667c-82.6586,0 -149.66667,-67.00804 -149.66667,-149.66667z" fill="url(#color-19)"/></g></g></svg>