<svg version="1.1" xmlns="http://www.w3.org/2000/svg" xmlns:xlink="http://www.w3.org/1999/xlink" width="434.19942" height="325.69509" viewBox="0,0,434.19942,325.69509"><defs><linearGradient x1="298.15727" y1="194.30891" x2="298.15727" y2="37.83921" gradientUnits="userSpaceOnUse" id="color-1"><stop offset="0" stop-color="#140f1e"/><stop offset="1" stop-color="#000000"/></linearGradient><linearGradient x1="354.17329" y1="179.99999" x2="354.17329" y2="23.53029" gradientUnits="userSpaceOnUse" id="color-2"><stop offset="0" stop-color="#140f1e"/><stop offset="1" stop-color="#000000"/></linearGradient><linearGradient x1="280.65486" y1="168.57028" x2="124.1852" y2="168.57028" gradientUnits="userSpaceOnUse" id="color-3"><stop offset="0" stop-color="#140f1e"/><stop offset="1" stop-color="#000000"/></linearGradient><linearGradient x1="362.79747" y1="173.76865" x2="519.26717" y2="173.76865" gradientUnits="userSpaceOnUse" id="color-4"><stop offset="0" stop-color="#140f1e"/><stop offset="1" stop-color="#000000"/></linearGradient><linearGradient x1="317.4489" y1="72.54585" x2="317.4489" y2="293.96212" gradientUnits="userSpaceOnUse" id="color-5"><stop offset="0" stop-color="#261c37"/><stop offset="1" stop-color="#000000"/></linearGradient><radialGradient cx="303.3612" cy="141.09107" r="34.86554" gradientUnits="userSpaceOnUse" id="color-6"><stop offset="0" stop-color="#000000" stop-opacity="0.54118"/><stop offset="1" stop-color="#000000" stop-opacity="0"/></radialGradient><radialGradient cx="348.77374" cy="141.09107" r="24.19109" gradientUnits="userSpaceOnUse" id="color-7"><stop offset="0" stop-color="#000000" stop-opacity="0.54118"/><stop offset="1" stop-color="#000000" stop-opacity="0"/></radialGradient><radialGradient cx="317.4489" cy="188.35627" r="23.81061" gradientUnits="userSpaceOnUse" id="color-8"><stop offset="0" stop-color="#000000"/><stop offset="1" stop-color="#000000" stop-opacity="0"/></radialGradient><radialGradient cx="293.63829" cy="211.27573" r="23.81061" gradientUnits="userSpaceOnUse" id="color-9"><stop offset="0" stop-color="#000000"/><stop offset="1" stop-color="#000000" stop-opacity="0"/></radialGradient><radialGradient cx="356.14114" cy="223.99063" r="23.81061" gradientUnits="userSpaceOnUse" id="color-10"><stop offset="0" stop-color="#000000"/><stop offset="1" stop-color="#000000" stop-opacity="0"/></radialGradient><radialGradient cx="317.4489" cy="234.19518" r="23.81061" gradientUnits="userSpaceOnUse" id="color-11"><stop offset="0" stop-color="#000000"/><stop offset="1" stop-color="#000000" stop-opacity="0"/></radialGradient><radialGradient cx="269.82768" cy="234.19518" r="23.81061" gradientUnits="userSpaceOnUse" id="color-12"><stop offset="0" stop-color="#000000"/><stop offset="1" stop-color="#000000" stop-opacity="0"/></radialGradient><radialGradient cx="269.82768" cy="257.11463" r="23.81061" gradientUnits="userSpaceOnUse" id="color-13"><stop offset="0" stop-color="#000000"/><stop offset="1" stop-color="#000000" stop-opacity="0"/></radialGradient><radialGradient cx="308.51991" cy="257.11463" r="23.81061" gradientUnits="userSpaceOnUse" id="color-14"><stop offset="0" stop-color="#000000"/><stop offset="1" stop-color="#000000" stop-opacity="0"/></radialGradient><radialGradient cx="341.25951" cy="257.11463" r="16.0657" gradientUnits="userSpaceOnUse" id="color-15"><stop offset="0" stop-color="#000000"/><stop offset="1" stop-color="#000000" stop-opacity="0"/></radialGradient><radialGradient cx="379.95174" cy="251.2571" r="21.61592" gradientUnits="userSpaceOnUse" id="color-16"><stop offset="0" stop-color="#000000"/><stop offset="1" stop-color="#000000" stop-opacity="0"/></radialGradient><radialGradient cx="379.95174" cy="223.99063" r="29.07514" gradientUnits="userSpaceOnUse" id="color-17"><stop offset="0" stop-color="#000000"/><stop offset="1" stop-color="#000000" stop-opacity="0"/></radialGradient><radialGradient cx="341.25952" cy="206.17346" r="23.81061" gradientUnits="userSpaceOnUse" id="color-18"><stop offset="0" stop-color="#000000"/><stop offset="1" stop-color="#000000" stop-opacity="0"/></radialGradient><radialGradient cx="365.07012" cy="188.35627" r="23.81061" gradientUnits="userSpaceOnUse" id="color-19"><stop offset="0" stop-color="#000000"/><stop offset="1" stop-color="#000000" stop-opacity="0"/></radialGradient><radialGradient cx="343.81066" cy="202.91946" r="23.81061" gradientUnits="userSpaceOnUse" id="color-20"><stop offset="0" stop-color="#000000"/><stop offset="1" stop-color="#000000" stop-opacity="0"/></radialGradient><radialGradient cx="308.51991" cy="223.99062" r="23.03282" gradientUnits="userSpaceOnUse" id="color-21"><stop offset="0" stop-color="#000000"/><stop offset="1" stop-color="#000000" stop-opacity="0"/></radialGradient><radialGradient cx="280.65486" cy="186.71682" r="23.81061" gradientUnits="userSpaceOnUse" id="color-22"><stop offset="0" stop-color="#000000"/><stop offset="1" stop-color="#000000" stop-opacity="0"/></radialGradient><radialGradient cx="284.7093" cy="223.99063" r="23.81061" gradientUnits="userSpaceOnUse" id="color-23"><stop offset="0" stop-color="#000000"/><stop offset="1" stop-color="#000000" stop-opacity="0"/></radialGradient><radialGradient cx="256.8443" cy="178.04178" r="23.81061" gradientUnits="userSpaceOnUse" id="color-24"><stop offset="0" stop-color="#000000"/><stop offset="1" stop-color="#000000" stop-opacity="0"/></radialGradient><radialGradient cx="261.07606" cy="200.9675" r="27.71653" gradientUnits="userSpaceOnUse" id="color-25"><stop offset="0" stop-color="#000000"/><stop offset="1" stop-color="#000000" stop-opacity="0"/></radialGradient><radialGradient cx="233.0337" cy="163.79737" r="34.86554" gradientUnits="userSpaceOnUse" id="color-26"><stop offset="0" stop-color="#000000"/><stop offset="1" stop-color="#000000" stop-opacity="0"/></radialGradient><radialGradient cx="205.5326" cy="170.69669" r="16.0657" gradientUnits="userSpaceOnUse" id="color-27"><stop offset="0" stop-color="#000000"/><stop offset="1" stop-color="#000000" stop-opacity="0"/></radialGradient><radialGradient cx="403.76235" cy="178.15173" r="34.86554" gradientUnits="userSpaceOnUse" id="color-28"><stop offset="0" stop-color="#000000"/><stop offset="1" stop-color="#000000" stop-opacity="0"/></radialGradient><radialGradient cx="450.81166" cy="171.75221" r="16.0657" gradientUnits="userSpaceOnUse" id="color-29"><stop offset="0" stop-color="#000000"/><stop offset="1" stop-color="#000000" stop-opacity="0"/></radialGradient><radialGradient cx="371.48003" cy="95.46534" r="23.81061" gradientUnits="userSpaceOnUse" id="color-30"><stop offset="0" stop-color="#000000"/><stop offset="1" stop-color="#000000" stop-opacity="0"/></radialGradient><radialGradient cx="371.48002" cy="95.46534" r="32.28232" gradientUnits="userSpaceOnUse" id="color-31"><stop offset="0" stop-color="#000000"/><stop offset="1" stop-color="#000000" stop-opacity="0"/></radialGradient><radialGradient cx="371.48003" cy="72.54589" r="23.81061" gradientUnits="userSpaceOnUse" id="color-32"><stop offset="0" stop-color="#000000"/><stop offset="1" stop-color="#000000" stop-opacity="0"/></radialGradient><radialGradient cx="352.15685" cy="91.9858" r="34.86554" gradientUnits="userSpaceOnUse" id="color-33"><stop offset="0" stop-color="#000000"/><stop offset="1" stop-color="#000000" stop-opacity="0"/></radialGradient><radialGradient cx="347.66943" cy="49.62644" r="30.44324" gradientUnits="userSpaceOnUse" id="color-34"><stop offset="0" stop-color="#000000"/><stop offset="1" stop-color="#000000" stop-opacity="0"/></radialGradient><radialGradient cx="371.48003" cy="49.62644" r="23.81061" gradientUnits="userSpaceOnUse" id="color-35"><stop offset="0" stop-color="#000000"/><stop offset="1" stop-color="#000000" stop-opacity="0"/></radialGradient><radialGradient cx="371.48002" cy="49.62644" r="16.0657" gradientUnits="userSpaceOnUse" id="color-36"><stop offset="0" stop-color="#000000"/><stop offset="1" stop-color="#000000" stop-opacity="0"/></radialGradient><radialGradient cx="323.85882" cy="95.46534" r="16.0657" gradientUnits="userSpaceOnUse" id="color-37"><stop offset="0" stop-color="#000000"/><stop offset="1" stop-color="#000000" stop-opacity="0"/></radialGradient><radialGradient cx="282.31581" cy="153.24548" r="17.69688" gradientUnits="userSpaceOnUse" id="color-38"><stop offset="0" stop-color="#000000"/><stop offset="1" stop-color="#000000" stop-opacity="0"/></radialGradient><radialGradient cx="260.89869" cy="132.31283" r="23.81061" gradientUnits="userSpaceOnUse" id="color-39"><stop offset="0" stop-color="#000000"/><stop offset="1" stop-color="#000000" stop-opacity="0"/></radialGradient><radialGradient cx="260.89869" cy="132.31283" r="16.0657" gradientUnits="userSpaceOnUse" id="color-40"><stop offset="0" stop-color="#000000"/><stop offset="1" stop-color="#000000" stop-opacity="0"/></radialGradient><radialGradient cx="320" cy="180" r="149.66667" gradientUnits="userSpaceOnUse" id="color-41"><stop offset="0" stop-color="#171122"/><stop offset="1" stop-color="#171122" stop-opacity="0"/></radialGradient></defs><g transform="translate(-104.62645,-3.97158)"><g data-paper-data="{&quot;isPaintingLayer&quot;:true}" fill-rule="nonzero" stroke="none" stroke-width="0" stroke-linecap="butt" stroke-linejoin="miter" stroke-miterlimit="10" stroke-dasharray="" stroke-dashoffset="0" style="mix-blend-mode: normal"><path d="M284.7093,194.30892c0,0 0,-69.96031 0,-85.88826c0,-6.13825 2.30453,-28.91288 2.30453,-28.91288c0,0 6.27498,-61.22728 8.50379,-61.22728c0.56684,0 3.35047,37.62764 5.71033,45.1017c5.38772,17.06378 11.00866,37.38504 11.00866,37.38504c0,0 3.40151,3.06136 3.40151,10.20454c0,16.66743 0,83.33713 0,83.33713h-30.92882z" data-paper-data="{&quot;index&quot;:null}" fill="url(#color-1)"/><path d="M367.62124,179.99999h-30.92882c0,0 0,-66.6697 0,-83.33713c0,-7.14318 3.40151,-10.20454 3.40151,-10.20454c0,0 5.62094,-20.32126 11.00866,-37.38504c2.35986,-7.47406 5.14349,-45.1017 5.71033,-45.1017c2.22881,0 8.50379,61.22728 8.50379,61.22728c0,0 2.30453,22.77463 2.30453,28.91288c0,15.92795 0,85.88826 0,85.88826z" fill="url(#color-2)"/><path d="M280.65486,155.12232v30.92882c0,0 -66.6697,0 -83.33712,0c-7.14318,0 -10.20454,-3.40152 -10.20454,-3.40152c0,0 -20.32126,-5.62095 -37.38504,-11.00866c-7.47406,-2.35986 -45.10171,-5.1435 -45.10171,-5.71033c0,-2.22881 61.22728,-8.50378 61.22728,-8.50378c0,0 22.77463,-2.30453 28.91288,-2.30453c15.92795,0 85.88826,0 85.88826,0z" fill="url(#color-3)"/><path d="M362.79747,187.21661v-30.92882c0,0 66.6697,0 83.33713,0c7.14318,0 10.20454,3.40151 10.20454,3.40151c0,0 20.32126,5.62094 37.38504,11.00866c7.47406,2.35986 45.1017,5.14349 45.1017,5.71033c0,2.22881 -61.22728,8.50379 -61.22728,8.50379c0,0 -22.77463,2.30453 -28.91288,2.30453c-15.92795,0 -85.88826,0 -85.88826,0z" fill="url(#color-4)"/><path d="M268.55212,289.5651c0,0 -13.60606,-28.80109 -13.60606,-47.3436c0,-30.64027 17.87124,-104.65017 21.42819,-141.14144c0.93877,-9.63093 20.24036,-11.35277 20.24036,-11.35277c0,0 44.21601,-12.47119 57.69394,-16.20092c7.10933,-1.96736 12.03713,-0.36594 12.03713,-0.36594c0,0 5.5657,3.50113 6.27618,15.70358c2.33299,40.06913 7.32989,129.30301 7.32989,158.53466c0,17.40544 -8.50379,42.16646 -8.50379,42.16646c0,0 -6.33414,-26.76501 -14.50261,-30.21694c-2.28661,-0.96631 -5.50071,23.75152 -7.80552,22.3449c-2.93147,-1.78909 -2.62933,-12.56216 -5.76319,-13.35673c-2.43831,-0.61821 -3.24551,21.28917 -5.77678,20.09506c-2.6713,-1.26016 -4.53804,-29.17146 -7.25262,-29.77958c-2.84719,-0.63783 -2.35581,22.49904 -5.29137,21.78209c-2.50056,-0.61073 -7.54311,-22.75866 -9.99646,-22.90616c-2.87344,-0.17276 -4.01459,36.82808 -6.78302,36.43123c-3.17989,-0.45584 -4.58425,-21.51182 -7.55611,-21.72008c-3.95977,-0.27752 -6.0139,14.93407 -9.43422,14.56554c-2.08733,-0.2249 -3.20425,-23.12505 -5.02269,-23.12505c-1.87369,0 -4.43554,25.88572 -5.95265,25.88572c-2.61785,0 -2.95629,-24.8503 -4.25189,-24.8503c-3.11009,0 -7.5067,24.8503 -7.5067,24.8503z" fill="url(#color-5)"/><path d="M268.49562,141.09107c0,-19.2557 15.60983,-34.86554 34.86553,-34.86554c19.2557,0 34.86554,15.60983 34.86554,34.86554c0,19.2557 -15.60983,34.86554 -34.86554,34.86554c-19.2557,0 -34.86553,-15.60983 -34.86553,-34.86554z" fill="url(#color-6)"/><path d="M324.58266,141.09107c0,-13.36037 10.83072,-24.1911 24.19109,-24.1911c13.36038,0 24.19109,10.83072 24.19109,24.1911c0,13.36038 -10.83072,24.1911 -24.19109,24.1911c-13.36038,0 -24.19109,-10.83072 -24.19109,-24.1911z" fill="url(#color-7)"/><path d="M293.63829,179.04288c0,-2.18008 5.84259,2.28848 9.24353,1.70062c2.95839,-0.51137 3.4485,-6.09032 4.47816,-7.51998c1.76415,-2.44948 5.80687,-0.20315 8.52704,-1.56516c2.51718,-1.26037 3.65745,-6.22155 6.66415,-6.22155c2.27735,0 4.09144,7.096 5.65332,8.75439c2.54926,2.70678 4.42662,0.83298 6.54971,3.55198c2.47775,3.17319 6.5053,2.06402 6.5053,6.40197c0,2.18651 -0.65165,9.90153 -2.63848,11.51314c-3.06114,2.48303 -8.12348,-1.34449 -9.76584,1.42255c-2.3289,3.92373 2.72491,10.02454 -2.05212,10.02454c-1.52762,0 -8.42738,-3.19598 -12.15703,-2.12094c-5.00977,1.44404 -7.03554,7.1745 -8.66527,6.17495c-1.55773,-0.95539 -5.17838,-4.59437 -4.54575,-8.94763c0.52312,-3.59968 5.29908,-7.95668 4.58728,-9.29522c-0.77511,-1.45759 -5.38118,-0.36185 -8.55553,-3.41957c-2.52305,-2.43035 -3.82847,-9.05042 -3.82847,-10.45409z" fill="url(#color-8)"/><path d="M269.82768,201.96234c0,-2.18008 5.84259,2.28848 9.24353,1.70062c2.95839,-0.51137 3.4485,-6.09032 4.47816,-7.51998c1.76415,-2.44948 5.80687,-0.20315 8.52704,-1.56516c2.51718,-1.26037 3.65745,-6.22155 6.66415,-6.22155c2.27735,0 4.09144,7.096 5.65332,8.75439c2.54926,2.70678 4.42662,0.83298 6.54971,3.55198c2.47775,3.17319 6.5053,2.06402 6.5053,6.40197c0,2.18651 -0.65165,9.90153 -2.63848,11.51314c-3.06114,2.48303 -8.12348,-1.34449 -9.76584,1.42255c-2.3289,3.92373 2.72491,10.02454 -2.05212,10.02454c-1.52762,0 -8.42738,-3.19598 -12.15703,-2.12094c-5.00977,1.44404 -7.03554,7.1745 -8.66527,6.17495c-1.55773,-0.95539 -5.17838,-4.59437 -4.54575,-8.94763c0.52312,-3.59968 5.29908,-7.95668 4.58728,-9.29522c-0.77511,-1.45759 -5.38118,-0.36185 -8.55553,-3.41957c-2.52305,-2.43035 -3.82847,-9.05042 -3.82847,-10.45409z" fill="url(#color-9)"/><path d="M332.33052,214.67724c0,-2.18008 5.84259,2.28848 9.24353,1.70062c2.95839,-0.51137 3.4485,-6.09032 4.47816,-7.51998c1.76415,-2.44948 5.80687,-0.20315 8.52704,-1.56516c2.51718,-1.26037 3.65745,-6.22155 6.66415,-6.22155c2.27735,0 4.09144,7.096 5.65332,8.75439c2.54926,2.70678 4.42662,0.83298 6.54971,3.55198c2.47775,3.17319 6.5053,2.06402 6.5053,6.40197c0,2.18651 -0.65165,9.90153 -2.63848,11.51314c-3.06114,2.48303 -8.12348,-1.34449 -9.76584,1.42255c-2.3289,3.92373 2.72491,10.02454 -2.05212,10.02454c-1.52762,0 -8.42738,-3.19598 -12.15703,-2.12094c-5.00977,1.44404 -7.03554,7.1745 -8.66527,6.17495c-1.55773,-0.95539 -5.17838,-4.59437 -4.54575,-8.94763c0.52312,-3.59968 5.29908,-7.95668 4.58728,-9.29522c-0.77511,-1.45759 -5.38118,-0.36185 -8.55553,-3.41957c-2.52305,-2.43035 -3.82847,-9.05042 -3.82847,-10.45409z" fill="url(#color-10)"/><path d="M293.63829,224.88179c0,-2.18008 5.84259,2.28848 9.24353,1.70062c2.95839,-0.51137 3.4485,-6.09032 4.47816,-7.51998c1.76415,-2.44948 5.80687,-0.20315 8.52704,-1.56516c2.51718,-1.26037 3.65745,-6.22155 6.66415,-6.22155c2.27735,0 4.09144,7.096 5.65332,8.75439c2.54926,2.70678 4.42662,0.83298 6.54971,3.55198c2.47775,3.17319 6.5053,2.06402 6.5053,6.40197c0,2.18651 -0.65165,9.90153 -2.63848,11.51314c-3.06114,2.48303 -8.12348,-1.34449 -9.76584,1.42255c-2.3289,3.92373 2.72491,10.02454 -2.05212,10.02454c-1.52762,0 -8.42738,-3.19598 -12.15703,-2.12094c-5.00977,1.44404 -7.03554,7.1745 -8.66527,6.17495c-1.55773,-0.95539 -5.17838,-4.59437 -4.54575,-8.94763c0.52312,-3.59968 5.29908,-7.95668 4.58728,-9.29522c-0.77511,-1.45759 -5.38118,-0.36185 -8.55553,-3.41957c-2.52305,-2.43035 -3.82847,-9.05042 -3.82847,-10.45409z" fill="url(#color-11)"/><path d="M246.01708,224.88179c0,-2.18008 5.84259,2.28848 9.24353,1.70062c2.95839,-0.51137 3.4485,-6.09032 4.47816,-7.51998c1.76415,-2.44948 5.80687,-0.20315 8.52704,-1.56516c2.51718,-1.26037 3.65745,-6.22155 6.66415,-6.22155c2.27735,0 4.09144,7.096 5.65332,8.75439c2.54926,2.70678 4.42662,0.83298 6.54971,3.55198c2.47775,3.17319 6.5053,2.06402 6.5053,6.40197c0,2.18651 -0.65165,9.90153 -2.63848,11.51314c-3.06114,2.48303 -8.12348,-1.34449 -9.76584,1.42255c-2.3289,3.92373 2.72491,10.02454 -2.05212,10.02454c-1.52762,0 -8.42738,-3.19598 -12.15703,-2.12094c-5.00977,1.44404 -7.03554,7.1745 -8.66527,6.17495c-1.55773,-0.95539 -5.17838,-4.59437 -4.54575,-8.94763c0.52312,-3.59968 5.29908,-7.95668 4.58728,-9.29522c-0.77511,-1.45759 -5.38118,-0.36185 -8.55553,-3.41957c-2.52305,-2.43035 -3.82847,-9.05042 -3.82847,-10.45409z" fill="url(#color-12)"/><path d="M249.86583,241.13938c0.64856,-2.08137 4.89725,3.92301 8.31909,4.37352c2.97657,0.39189 5.1042,-4.78866 6.51256,-5.84727c2.41298,-1.81375 5.60439,1.53356 8.60659,1.04246c2.77816,-0.45446 5.34273,-4.85179 8.2133,-3.95731c2.17424,0.6775 1.79517,7.9919 2.79297,10.03985c1.62858,3.34262 3.97839,2.11216 5.19647,5.33966c1.42156,3.76664 5.59673,3.90586 4.30621,8.0474c-0.65048,2.08751 -3.5678,9.25936 -5.94412,10.20693c-3.66123,1.45993 -7.3557,-3.70031 -9.74688,-1.54715c-3.39075,3.05324 -0.38071,10.38131 -4.94146,8.96017c-1.45845,-0.45446 -7.09503,-5.55838 -10.97563,-5.64157c-5.21254,-0.11172 -8.85137,4.75663 -10.10995,3.3175c-1.20298,-1.37555 -3.57712,-5.92689 -1.67806,-9.89485c1.57032,-3.28107 7.42623,-6.01998 7.14486,-7.50967c-0.30639,-1.62219 -5.02989,-1.94634 -7.15086,-5.80997c-1.6858,-3.07091 -0.96268,-9.7796 -0.54509,-11.11971z" fill="url(#color-13)"/><path d="M284.7093,247.80124c0,-2.18008 5.84259,2.28848 9.24353,1.70062c2.95839,-0.51137 3.4485,-6.09032 4.47816,-7.51998c1.76415,-2.44948 5.80687,-0.20315 8.52704,-1.56516c2.51718,-1.26037 3.65745,-6.22155 6.66415,-6.22155c2.27735,0 4.09144,7.096 5.65332,8.75439c2.54926,2.70678 4.42662,0.83298 6.54971,3.55198c2.47775,3.17319 6.5053,2.06402 6.5053,6.40197c0,2.18651 -0.65165,9.90153 -2.63848,11.51314c-3.06114,2.48303 -8.12348,-1.34449 -9.76584,1.42255c-2.3289,3.92373 2.72491,10.02454 -2.05212,10.02454c-1.52762,0 -8.42738,-3.19598 -12.15703,-2.12094c-5.00977,1.44404 -7.03554,7.1745 -8.66527,6.17495c-1.55773,-0.95539 -5.17838,-4.59437 -4.54575,-8.94763c0.52312,-3.59968 5.29908,-7.95668 4.58728,-9.29522c-0.77511,-1.45759 -5.38118,-0.36185 -8.55553,-3.41957c-2.52305,-2.43035 -3.82847,-9.05042 -3.82847,-10.45409z" fill="url(#color-14)"/><path d="M325.19379,250.83062c0,-1.47096 3.94216,1.5441 6.23687,1.14746c1.99611,-0.34504 2.3268,-4.10931 3.02154,-5.07395c1.19032,-1.65273 3.91806,-0.13707 5.75344,-1.05606c1.69841,-0.85041 2.46779,-4.19786 4.49649,-4.19786c1.53659,0 2.76061,4.78787 3.81446,5.90684c1.72006,1.82634 2.98677,0.56204 4.41928,2.39662c1.67181,2.14104 4.38931,1.39265 4.38931,4.31959c0,1.4753 -0.43969,6.68085 -1.78026,7.76825c-2.06544,1.67537 -5.48114,-0.90717 -6.58929,0.95984c-1.57138,2.64745 1.83857,6.76384 -1.38462,6.76384c-1.03073,0 -5.68619,-2.15642 -8.2027,-1.43106c-3.38024,0.97434 -4.74708,4.84084 -5.84671,4.16642c-1.05105,-0.64463 -3.494,-3.09995 -3.06715,-6.03722c0.35296,-2.42881 3.57544,-5.3686 3.09517,-6.27175c-0.52299,-0.98348 -3.63084,-0.24415 -5.77266,-2.30728c-1.70237,-1.63983 -2.58318,-6.10658 -2.58318,-7.05367z" fill="url(#color-15)"/><path d="M358.33583,242.80216c0,-1.97914 5.30406,2.07754 8.39153,1.54387c2.68571,-0.46423 3.13064,-5.52896 4.0654,-6.82684c1.60154,-2.22371 5.27164,-0.18443 7.74108,-1.42089c2.28516,-1.1442 3.32033,-5.64809 6.0499,-5.64809c2.06744,0 3.71432,6.44194 5.13224,7.94747c2.31429,2.45729 4.01861,0.7562 5.94601,3.22458c2.24937,2.88071 5.90569,1.87378 5.90569,5.81188c0,1.98498 -0.59158,8.98888 -2.39528,10.45194c-2.77898,2.25416 -7.37472,-1.22057 -8.86569,1.29143c-2.11424,3.56207 2.47375,9.10055 -1.86297,9.10055c-1.38681,0 -7.6506,-2.9014 -11.03648,-1.92545c-4.548,1.31094 -6.38705,6.51321 -7.86657,5.60579c-1.41415,-0.86733 -4.70107,-4.17089 -4.12676,-8.1229c0.4749,-3.26789 4.81065,-7.22329 4.16446,-8.43845c-0.70366,-1.32324 -4.88518,-0.3285 -7.76694,-3.10438c-2.2905,-2.20634 -3.47559,-8.21622 -3.47559,-9.4905z" fill="url(#color-16)"/><path d="M348.7316,223.9633c-0.96755,-2.48004 7.66214,0.01033 11.27012,-2.1678c3.13849,-1.89471 1.22001,-8.45879 1.75684,-10.54214c0.91977,-3.56946 6.51568,-2.80828 9.00565,-5.56494c2.30415,-2.55095 1.39947,-8.70081 4.81986,-10.03523c2.59069,-1.01072 7.8037,6.25651 10.31649,7.44989c4.10132,1.94781 5.40537,-1.01701 9.02731,1.13384c4.22698,2.51013 8.31641,-0.53914 10.24166,4.39568c0.97041,2.48735 3.65313,11.55311 2.10819,14.26824c-2.38032,4.18325 -9.8379,2.07584 -10.47819,5.9525c-0.90793,5.4972 7.54887,10.19447 2.11456,12.31459c-1.73781,0.67798 -11.00534,0.10448 -14.77104,2.98271c-5.05818,3.86614 -4.81942,11.28412 -7.117,10.87034c-2.19608,-0.3955 -7.92993,-2.92827 -9.1423,-8.16127c-1.00249,-4.32713 2.4969,-11.40326 1.09309,-12.61006c-1.52866,-1.31414 -6.28218,1.97661 -11.25035,-0.093c-3.94882,-1.64498 -8.37194,-8.59655 -8.99491,-10.19335z" fill="url(#color-17)"/><path d="M317.44885,196.86007c0,-2.18008 5.84259,2.28848 9.24353,1.70062c2.95839,-0.51137 3.4485,-6.09032 4.47816,-7.51998c1.76415,-2.44948 5.80687,-0.20315 8.52704,-1.56516c2.51718,-1.26037 3.65745,-6.22155 6.66415,-6.22155c2.27735,0 4.09144,7.096 5.65332,8.75439c2.54926,2.70678 4.42662,0.83298 6.54971,3.55198c2.47775,3.17319 6.5053,2.06402 6.5053,6.40197c0,2.18651 -0.65165,9.90153 -2.63848,11.51314c-3.06114,2.48303 -8.12348,-1.34449 -9.76584,1.42255c-2.3289,3.92373 2.72491,10.02454 -2.05212,10.02454c-1.52762,0 -8.42738,-3.19598 -12.15703,-2.12094c-5.00977,1.44404 -7.03554,7.1745 -8.66527,6.17495c-1.55773,-0.95539 -5.17838,-4.59437 -4.54575,-8.94763c0.52312,-3.59968 5.29908,-7.95668 4.58728,-9.29522c-0.77511,-1.45759 -5.38118,-0.36185 -8.55553,-3.41957c-2.52305,-2.43035 -3.82847,-9.05042 -3.82847,-10.45409z" fill="url(#color-18)"/><path d="M354.81903,164.93407c1.54155,-1.54155 2.51314,5.74953 5.33364,7.73868c2.45349,1.7303 6.74496,-1.86805 8.48397,-2.15089c2.97949,-0.4846 4.24973,3.96243 7.13626,4.92279c2.67113,0.8887 6.98551,-1.81309 9.11157,0.31297c1.61033,1.61033 -2.12454,7.91071 -2.19279,10.18779c-0.11138,3.71658 2.54109,3.7191 2.11972,7.14297c-0.49175,3.99582 3.14046,6.05942 0.07307,9.12682c-1.5461,1.5461 -7.46223,6.54065 -10.00671,6.27533c-3.92032,-0.40879 -4.79347,-6.69487 -7.91139,-5.8996c-4.42128,1.12772 -5.16162,9.01522 -8.53949,5.63735c-1.08019,-1.08019 -3.69916,-8.21896 -7.09659,-10.09605c-4.56353,-2.52135 -10.04802,0.09826 -10.49362,-1.76092c-0.42592,-1.77704 -0.41296,-6.91038 3.1126,-9.54126c2.91526,-2.17546 9.37324,-1.87921 9.81641,-3.32902c0.48259,-1.57876 -3.5492,-4.06094 -3.63167,-8.46767c-0.06555,-3.50258 3.69248,-9.10675 4.68502,-10.0993z" fill="url(#color-19)"/><path d="M318.31967,200.94594c-0.63505,-2.08554 6.25584,0.4873 9.33805,-1.06575c2.68113,-1.35097 1.52485,-6.83074 2.0934,-8.49833c0.97412,-2.85714 5.49586,-1.88587 7.70132,-3.98119c2.04087,-1.93896 1.68651,-7.01714 4.56282,-7.89299c2.17859,-0.66339 5.98105,5.59644 7.95828,6.72793c3.22718,1.8468 4.47729,-0.49261 7.30035,1.49002c3.29464,2.31381 6.82443,0.07953 8.08806,4.22935c0.63693,2.09169 2.2609,9.66195 0.8297,11.78243c-2.20508,3.26705 -8.16283,1.08017 -8.92793,4.20562c-1.08493,4.43197 5.52686,8.79604 0.957,10.18758c-1.46137,0.44499 -8.99289,-0.6025 -12.24763,1.51235c-4.37186,2.84075 -4.64051,8.9128 -6.49073,8.43133c-1.76848,-0.46019 -6.29214,-2.88667 -6.95504,-7.23543c-0.54814,-3.59595 2.75151,-9.15523 1.68066,-10.22837c-1.16609,-1.16859 -5.25322,1.22137 -9.18061,-0.77907c-3.12159,-1.58999 -6.29881,-7.5427 -6.70769,-8.8855z" fill="url(#color-20)"/><path d="M285.57496,233.22127c-1.4457,-1.53535 5.63229,-2.26276 7.63761,-4.93205c1.74437,-2.32196 -1.61007,-6.576 -1.83298,-8.26567c-0.38192,-2.89495 3.95484,-3.99382 4.96735,-6.75688c0.93695,-2.55686 -1.54994,-6.80699 0.56756,-8.80085c1.60385,-1.5102 7.58706,2.28425 9.78678,2.41645c3.59031,0.21577 3.66988,-2.34882 6.96816,-1.84184c3.84925,0.59167 5.95016,-2.8603 8.82682,0.19475c1.44996,1.53988 6.10715,7.4054 5.77661,9.85793c-0.50926,3.77866 -6.61263,4.44011 -5.93436,7.47794c0.96182,4.30771 8.5667,5.2529 5.20242,8.42074c-1.07584,1.01302 -8.05445,3.33771 -9.9682,6.56808c-2.57059,4.33915 -0.19718,9.71826 -2.00777,10.09504c-1.73061,0.36015 -6.69363,0.19834 -9.13491,-3.28701c-2.01867,-2.88201 -1.54444,-9.1176 -2.93336,-9.58826c-1.51246,-0.51252 -4.02971,3.31363 -8.29298,3.26522c-3.38854,-0.03847 -8.69792,-3.83506 -9.62874,-4.82361z" fill="url(#color-21)"/><path d="M256.84425,177.40343c0,-2.18008 5.84259,2.28848 9.24353,1.70062c2.95839,-0.51137 3.4485,-6.09032 4.47816,-7.51998c1.76415,-2.44948 5.80687,-0.20315 8.52704,-1.56516c2.51718,-1.26037 3.65745,-6.22155 6.66415,-6.22155c2.27735,0 4.09144,7.096 5.65332,8.75439c2.54926,2.70678 4.42662,0.83298 6.54971,3.55198c2.47775,3.17319 6.5053,2.06402 6.5053,6.40197c0,2.18651 -0.65165,9.90153 -2.63848,11.51314c-3.06114,2.48303 -8.12348,-1.34449 -9.76584,1.42255c-2.3289,3.92373 2.72491,10.02454 -2.05212,10.02454c-1.52762,0 -8.42738,-3.19598 -12.15703,-2.12094c-5.00977,1.44404 -7.03554,7.1745 -8.66527,6.17495c-1.55773,-0.95539 -5.17838,-4.59437 -4.54575,-8.94763c0.52312,-3.59968 5.29908,-7.95668 4.58728,-9.29522c-0.77511,-1.45759 -5.38118,-0.36185 -8.55553,-3.41957c-2.52305,-2.43035 -3.82847,-9.05042 -3.82847,-10.45409z" fill="url(#color-22)"/><path d="M262.59945,211.15168c0.33279,-2.15453 5.42478,3.15354 8.8756,3.09172c3.00178,-0.05378 4.33778,-5.49253 5.57361,-6.74825c2.11739,-2.15147 5.76983,0.68566 8.66603,-0.24516c2.68008,-0.86135 4.56431,-5.59032 7.53577,-5.13135c2.25066,0.34764 2.96028,7.6374 4.2507,9.51477c2.10619,3.0642 4.24759,1.49895 5.93074,4.51017c1.96432,3.51423 6.11398,3.03287 5.45179,7.31998c-0.33377,2.16088 -2.15549,9.68601 -4.36505,10.97544c-3.4043,1.98664 -7.82304,-2.56879 -9.86854,-0.08489c-2.90057,3.52224 1.16272,10.32301 -3.55833,9.5938c-1.50972,-0.23319 -7.84074,-4.44497 -11.69079,-3.95187c-5.17149,0.66237 -8.04828,6.01643 -9.50633,4.77982c-1.39363,-1.18198 -4.41635,-5.33101 -3.12661,-9.53668c1.06648,-3.47764 6.45157,-7.05452 5.95244,-8.48603c-0.54352,-1.55883 -5.26288,-1.17905 -7.93326,-4.6855c-2.12248,-2.78701 -2.40205,-9.52877 -2.18777,-10.91599z" fill="url(#color-23)"/><path d="M233.03371,168.72839c0,-2.18008 5.84259,2.28848 9.24353,1.70062c2.95839,-0.51137 3.4485,-6.09032 4.47816,-7.51998c1.76415,-2.44948 5.80687,-0.20315 8.52704,-1.56516c2.51718,-1.26037 3.65745,-6.22155 6.66415,-6.22155c2.27735,0 4.09144,7.096 5.65332,8.75439c2.54926,2.70678 4.42662,0.83298 6.54971,3.55198c2.47775,3.17319 6.5053,2.06402 6.5053,6.40197c0,2.18651 -0.65165,9.90153 -2.63848,11.51314c-3.06114,2.48303 -8.12348,-1.34449 -9.76584,1.42255c-2.3289,3.92373 2.72491,10.02454 -2.05212,10.02454c-1.52762,0 -8.42738,-3.19598 -12.15703,-2.12094c-5.00977,1.44404 -7.03554,7.1745 -8.66527,6.17495c-1.55773,-0.95539 -5.17838,-4.59437 -4.54575,-8.94763c0.52312,-3.59968 5.29908,-7.95668 4.58728,-9.29522c-0.77511,-1.45759 -5.38118,-0.36185 -8.55553,-3.41957c-2.52305,-2.43035 -3.82847,-9.05042 -3.82847,-10.45409z" fill="url(#color-24)"/><path d="M231.68501,196.28753c-0.54127,-2.4793 7.2127,1.15198 10.93448,-0.36096c3.23748,-1.31608 2.4097,-7.78244 3.22573,-9.66397c1.39813,-3.22368 6.55345,-1.67277 9.30881,-3.89709c2.54975,-2.05833 2.61476,-7.98356 6.03414,-8.73007c2.58992,-0.56542 6.41481,7.05414 8.60281,8.55236c3.5712,2.44536 5.241,-0.15173 8.33058,2.41334c3.60568,2.99354 7.91064,0.73217 8.98768,5.66553c0.54287,2.48661 1.71727,11.42235 -0.14213,13.74845c-2.86481,3.58386 -9.57228,0.48788 -10.75305,4.04248c-1.67437,5.04051 5.58783,10.72391 0.15512,11.90996c-1.7373,0.37928 -10.37758,-1.54228 -14.35223,0.60631c-5.33885,2.88608 -6.2199,9.90602 -8.3215,9.17391c-2.00874,-0.69976 -7.02983,-3.93928 -7.39121,-9.04711c-0.29881,-4.22363 4.05091,-10.36444 2.90908,-11.70996c-1.24339,-1.4652 -6.20961,0.92453 -10.57883,-1.76474c-3.47277,-2.13751 -6.601,-9.34209 -6.9495,-10.93842z" fill="url(#color-25)"/><path d="M198.16816,150.15991c0,-3.19226 8.55522,3.35099 13.53517,2.49019c4.33193,-0.74879 5.04959,-8.91797 6.55731,-11.0114c2.58322,-3.58674 8.50292,-0.29747 12.48602,-2.29184c3.68587,-1.84554 5.35555,-9.11013 9.75822,-9.11013c3.33469,0 5.99104,10.39057 8.27808,12.81893c3.73285,3.9635 6.48184,1.21972 9.59065,5.20111c3.62813,4.64646 9.52562,3.02232 9.52562,9.37431c0,3.20168 -0.9542,14.49867 -3.86349,16.85853c-4.48238,3.63587 -11.8951,-1.96872 -14.29998,2.08302c-3.41018,5.74546 3.99005,14.67879 -3.00489,14.67879c-2.23687,0 -12.34009,-4.67983 -17.80137,-3.10566c-7.33573,2.11449 -10.30204,10.50552 -12.68843,9.04189c-2.28096,-1.39896 -7.58263,-6.72747 -6.65628,-13.10189c0.766,-5.27096 7.75937,-11.65085 6.71709,-13.61086c-1.13498,-2.13433 -7.87959,-0.52985 -12.52774,-5.00723c-3.69447,-3.55873 -5.60597,-13.2524 -5.60597,-15.30777z" fill="url(#color-26)"/><path d="M189.46691,164.41268c0,-1.47096 3.94216,1.5441 6.23687,1.14746c1.99611,-0.34504 2.3268,-4.10931 3.02154,-5.07395c1.19032,-1.65273 3.91806,-0.13707 5.75344,-1.05606c1.69841,-0.85041 2.46779,-4.19786 4.49649,-4.19786c1.53659,0 2.76061,4.78787 3.81446,5.90684c1.72006,1.82634 2.98677,0.56204 4.41928,2.39662c1.67181,2.14104 4.38931,1.39265 4.38931,4.31959c0,1.4753 -0.43969,6.68085 -1.78026,7.76825c-2.06544,1.67537 -5.48114,-0.90717 -6.58929,0.95984c-1.57138,2.64745 1.83857,6.76384 -1.38462,6.76384c-1.03073,0 -5.68619,-2.15642 -8.2027,-1.43106c-3.38024,0.97434 -4.74708,4.84084 -5.84671,4.16642c-1.05105,-0.64463 -3.494,-3.09995 -3.06715,-6.03722c0.35296,-2.42881 3.57544,-5.3686 3.09517,-6.27175c-0.52299,-0.98348 -3.63084,-0.24415 -5.77266,-2.30728c-1.70237,-1.63983 -2.58318,-6.10658 -2.58318,-7.05367z" fill="url(#color-27)"/><path d="M368.89681,164.51427c0,-3.19226 8.55522,3.35099 13.53517,2.49019c4.33193,-0.74879 5.04959,-8.91797 6.55731,-11.0114c2.58322,-3.58674 8.50292,-0.29747 12.48602,-2.29184c3.68587,-1.84554 5.35555,-9.11013 9.75822,-9.11013c3.33469,0 5.99104,10.39057 8.27808,12.81893c3.73285,3.9635 6.48184,1.21972 9.59065,5.20111c3.62813,4.64646 9.52562,3.02232 9.52562,9.37431c0,3.20168 -0.9542,14.49867 -3.86349,16.85853c-4.48238,3.63587 -11.8951,-1.96872 -14.29998,2.08302c-3.41018,5.74546 3.99005,14.67879 -3.00489,14.67879c-2.23687,0 -12.34009,-4.67983 -17.80137,-3.10566c-7.33573,2.11449 -10.30204,10.50552 -12.68843,9.04189c-2.28096,-1.39896 -7.58263,-6.72747 -6.65628,-13.10189c0.766,-5.27096 7.75937,-11.65085 6.71709,-13.61086c-1.13498,-2.13433 -7.87959,-0.52985 -12.52774,-5.00723c-3.69447,-3.55873 -5.60597,-13.2524 -5.60597,-15.30777z" fill="url(#color-28)"/><path d="M434.74596,165.4682c0,-1.47096 3.94216,1.5441 6.23687,1.14746c1.99611,-0.34504 2.3268,-4.10931 3.02154,-5.07395c1.19032,-1.65273 3.91806,-0.13707 5.75344,-1.05606c1.69841,-0.85041 2.46779,-4.19786 4.49649,-4.19786c1.53659,0 2.76061,4.78787 3.81446,5.90684c1.72006,1.82634 2.98677,0.56204 4.41928,2.39662c1.67181,2.14104 4.38931,1.39265 4.38931,4.31959c0,1.4753 -0.43969,6.68085 -1.78026,7.76825c-2.06544,1.67537 -5.48114,-0.90717 -6.58929,0.95984c-1.57138,2.64745 1.83857,6.76384 -1.38462,6.76384c-1.03073,0 -5.68619,-2.15642 -8.2027,-1.43106c-3.38024,0.97434 -4.74708,4.84084 -5.84671,4.16642c-1.05105,-0.64463 -3.494,-3.09995 -3.06715,-6.03722c0.35296,-2.42881 3.57544,-5.3686 3.09517,-6.27175c-0.52299,-0.98348 -3.63084,-0.24415 -5.77266,-2.30728c-1.70237,-1.63983 -2.58318,-6.10658 -2.58318,-7.05367z" fill="url(#color-29)"/><path d="M347.66943,86.15195c0,-2.18008 5.84259,2.28848 9.24353,1.70062c2.95839,-0.51137 3.4485,-6.09032 4.47816,-7.51998c1.76415,-2.44948 5.80687,-0.20315 8.52704,-1.56516c2.51718,-1.26037 3.65745,-6.22155 6.66415,-6.22155c2.27735,0 4.09144,7.096 5.65332,8.75439c2.54926,2.70678 4.42662,0.83298 6.54971,3.55198c2.47775,3.17319 6.5053,2.06402 6.5053,6.40197c0,2.18651 -0.65165,9.90153 -2.63848,11.51314c-3.06114,2.48303 -8.12348,-1.34449 -9.76584,1.42255c-2.3289,3.92373 2.72491,10.02454 -2.05212,10.02454c-1.52762,0 -8.42738,-3.19598 -12.15703,-2.12094c-5.00977,1.44404 -7.03554,7.1745 -8.66527,6.17495c-1.55773,-0.95539 -5.17838,-4.59437 -4.54575,-8.94763c0.52312,-3.59968 5.29908,-7.95668 4.58728,-9.29522c-0.77511,-1.45759 -5.38118,-0.36185 -8.55553,-3.41957c-2.52305,-2.43035 -3.82847,-9.05042 -3.82847,-10.45409z" fill="url(#color-30)"/><path d="M344.06865,74.24727c0.83351,-2.83579 6.72492,5.21058 11.37352,5.74619c4.0437,0.4659 6.81422,-6.60365 8.70017,-8.06964c3.23126,-2.51173 7.63108,1.95588 11.69013,1.22422c3.75615,-0.67706 7.13618,-6.69446 11.04721,-5.54492c2.96231,0.8707 2.60902,10.79455 4.00662,13.54889c2.28112,4.49556 5.43955,2.77594 7.16165,7.12446c2.00978,5.07491 7.67277,5.17198 6.01425,10.81466c-0.83597,2.84415 -4.63329,12.63048 -7.83387,13.96719c-4.93118,2.05949 -10.05275,-4.85472 -13.24701,-1.88335c-4.52952,4.21347 -0.28819,14.08145 -6.50201,12.25505c-1.98708,-0.58405 -9.74018,-7.37927 -15.00262,-7.40684c-7.06866,-0.03701 -11.89465,6.64249 -13.6324,4.71921c-1.66098,-1.83831 -4.97933,-7.95607 -2.49204,-13.37679c2.05672,-4.48236 9.93496,-8.32383 9.52083,-10.33711c-0.45096,-2.19234 -6.86134,-2.52806 -9.82139,-7.71911c-2.35272,-4.12596 -1.51973,-13.23626 -0.98306,-15.06211z" fill="url(#color-31)"/><path d="M347.66943,63.2325c0,-2.18008 5.84259,2.28848 9.24353,1.70062c2.95839,-0.51137 3.4485,-6.09032 4.47816,-7.51998c1.76415,-2.44948 5.80687,-0.20315 8.52704,-1.56516c2.51718,-1.26037 3.65745,-6.22155 6.66415,-6.22155c2.27735,0 4.09144,7.096 5.65332,8.75439c2.54926,2.70678 4.42662,0.83298 6.54971,3.55198c2.47775,3.17319 6.5053,2.06402 6.5053,6.40197c0,2.18651 -0.65165,9.90153 -2.63848,11.51314c-3.06114,2.48303 -8.12348,-1.34449 -9.76584,1.42255c-2.3289,3.92373 2.72491,10.02454 -2.05212,10.02454c-1.52762,0 -8.42738,-3.19598 -12.15703,-2.12094c-5.00977,1.44404 -7.03554,7.1745 -8.66527,6.17495c-1.55773,-0.95539 -5.17838,-4.59437 -4.54575,-8.94763c0.52312,-3.59968 5.29908,-7.95668 4.58728,-9.29522c-0.77511,-1.45759 -5.38118,-0.36185 -8.55553,-3.41957c-2.52305,-2.43035 -3.82847,-9.05042 -3.82847,-10.45409z" fill="url(#color-32)"/><path d="M317.29128,78.34834c0,-3.19226 8.55522,3.35099 13.53517,2.49019c4.33193,-0.74879 5.04959,-8.91797 6.55731,-11.0114c2.58322,-3.58674 8.50292,-0.29747 12.48603,-2.29184c3.68587,-1.84554 5.35555,-9.11013 9.75822,-9.11013c3.33469,0 5.99104,10.39057 8.27808,12.81893c3.73285,3.9635 6.48184,1.21972 9.59065,5.20111c3.62813,4.64646 9.52562,3.02232 9.52562,9.37431c0,3.20168 -0.9542,14.49867 -3.86349,16.85853c-4.48238,3.63587 -11.8951,-1.96872 -14.29998,2.08302c-3.41018,5.74546 3.99005,14.67879 -3.00489,14.67879c-2.23687,0 -12.34009,-4.67983 -17.80137,-3.10566c-7.33574,2.11449 -10.30204,10.50552 -12.68843,9.04189c-2.28096,-1.39896 -7.58263,-6.72747 -6.65628,-13.10189c0.766,-5.27096 7.75937,-11.65085 6.71709,-13.61086c-1.13498,-2.13433 -7.87959,-0.52985 -12.52774,-5.00723c-3.69447,-3.55873 -5.60597,-13.2524 -5.60597,-15.30778z" fill="url(#color-33)"/><path d="M334.56282,19.6798c1.97096,-1.97096 3.21319,7.35111 6.81937,9.89435c3.13693,2.21229 8.62383,-2.38841 10.84724,-2.75004c3.80945,-0.61959 5.43352,5.06619 9.12412,6.29407c3.4152,1.13625 8.93138,-2.31814 11.64966,0.40014c2.0589,2.0589 -2.71635,10.11431 -2.80361,13.02568c-0.14241,4.75186 3.24893,4.75508 2.71018,9.1327c-0.62873,5.10888 4.01526,7.74732 0.09342,11.66916c-1.97677,1.97677 -9.54089,8.3626 -12.79415,8.02337c-5.01236,-0.52266 -6.12873,-8.55977 -10.11516,-7.54298c-5.65286,1.44185 -6.59943,11.52648 -10.91823,7.20768c-1.38109,-1.38109 -4.72959,-10.50841 -9.0734,-12.90838c-5.83474,-3.22369 -12.84697,0.12563 -13.4167,-2.25144c-0.54456,-2.27205 -0.52799,-8.83532 3.97964,-12.19905c3.72733,-2.78145 11.98423,-2.40267 12.55085,-4.25634c0.61701,-2.01853 -4.53786,-5.19214 -4.6433,-10.82641c-0.08381,-4.47825 4.72104,-11.64351 5.99007,-12.91253z" fill="url(#color-34)"/><path d="M347.66943,40.31305c0,-2.18008 5.84259,2.28848 9.24353,1.70062c2.95839,-0.51137 3.4485,-6.09032 4.47816,-7.51998c1.76415,-2.44948 5.80687,-0.20315 8.52704,-1.56516c2.51718,-1.26037 3.65745,-6.22155 6.66415,-6.22155c2.27735,0 4.09144,7.096 5.65332,8.75439c2.54926,2.70678 4.42662,0.83298 6.54971,3.55198c2.47775,3.17319 6.5053,2.06402 6.5053,6.40197c0,2.18651 -0.65165,9.90153 -2.63848,11.51314c-3.06114,2.48303 -8.12348,-1.34449 -9.76584,1.42255c-2.3289,3.92373 2.72491,10.02454 -2.05212,10.02454c-1.52762,0 -8.42738,-3.19598 -12.15703,-2.12094c-5.00977,1.44404 -7.03554,7.1745 -8.66527,6.17495c-1.55773,-0.95539 -5.17838,-4.59437 -4.54575,-8.94763c0.52312,-3.59968 5.29908,-7.95668 4.58728,-9.29522c-0.77511,-1.45759 -5.38118,-0.36185 -8.55553,-3.41957c-2.52305,-2.43035 -3.82847,-9.05042 -3.82847,-10.45409z" fill="url(#color-35)"/><path d="M355.41432,43.34242c0,-1.47096 3.94216,1.5441 6.23688,1.14746c1.99611,-0.34504 2.3268,-4.10931 3.02154,-5.07395c1.19032,-1.65273 3.91806,-0.13707 5.75344,-1.05606c1.69841,-0.85041 2.46779,-4.19786 4.49649,-4.19786c1.53659,0 2.76061,4.78788 3.81446,5.90684c1.72006,1.82634 2.98677,0.56204 4.41928,2.39662c1.67181,2.14104 4.38931,1.39265 4.38931,4.31959c0,1.4753 -0.43969,6.68085 -1.78026,7.76825c-2.06544,1.67537 -5.48115,-0.90717 -6.58929,0.95984c-1.57138,2.64745 1.83858,6.76385 -1.38462,6.76385c-1.03073,0 -5.6862,-2.15642 -8.2027,-1.43106c-3.38024,0.97434 -4.74708,4.84084 -5.84671,4.16642c-1.05105,-0.64463 -3.494,-3.09995 -3.06715,-6.03722c0.35296,-2.42881 3.57544,-5.3686 3.09517,-6.27175c-0.52299,-0.98348 -3.63084,-0.24415 -5.77266,-2.30728c-1.70237,-1.63983 -2.58318,-6.10658 -2.58318,-7.05368z" fill="url(#color-36)"/><path d="M307.79312,89.18133c0,-1.47096 3.94216,1.5441 6.23688,1.14746c1.99611,-0.34504 2.3268,-4.10931 3.02154,-5.07395c1.19032,-1.65273 3.91806,-0.13707 5.75344,-1.05606c1.69841,-0.85041 2.46779,-4.19786 4.49649,-4.19786c1.53659,0 2.76061,4.78788 3.81446,5.90684c1.72006,1.82634 2.98677,0.56204 4.41928,2.39662c1.67181,2.14104 4.38931,1.39265 4.38931,4.31959c0,1.4753 -0.43969,6.68085 -1.78026,7.76825c-2.06544,1.67537 -5.48115,-0.90717 -6.58929,0.95984c-1.57138,2.64745 1.83858,6.76385 -1.38462,6.76385c-1.03073,0 -5.6862,-2.15642 -8.2027,-1.43106c-3.38024,0.97434 -4.74708,4.84084 -5.84671,4.16642c-1.05105,-0.64463 -3.494,-3.09995 -3.06715,-6.03722c0.35296,-2.42881 3.57544,-5.3686 3.09517,-6.27175c-0.52299,-0.98348 -3.63084,-0.24415 -5.77266,-2.30728c-1.70237,-1.63983 -2.58318,-6.10658 -2.58318,-7.05368z" fill="url(#color-37)"/><path d="M266.93818,142.08204c0.40885,-1.56788 3.77273,2.74155 6.32888,2.95657c2.22354,0.18704 3.62227,-3.73335 4.6309,-4.56844c1.72812,-1.43079 4.21431,0.9429 6.42605,0.4735c2.04668,-0.43438 3.79716,-3.78854 5.95953,-3.22467c1.63784,0.42709 1.61174,5.87064 2.42401,7.35624c1.32577,2.42476 3.02734,1.42923 4.04433,3.78285c1.18687,2.74678 4.29144,2.7044 3.47791,5.82419c-0.41005,1.57251 -2.32557,6.99883 -4.0567,7.78527c-2.66719,1.21168 -5.59014,-2.49039 -7.29024,-0.80838c-2.41076,2.38514 0.07974,7.72052 -3.35583,6.82466c-1.09864,-0.28649 -5.46148,-3.87895 -8.34541,-3.80524c-3.87376,0.09901 -6.40535,3.84037 -7.38997,2.81587c-0.94113,-0.97923 -2.8626,-4.27535 -1.59122,-7.28751c1.0513,-2.49074 5.3032,-4.72856 5.04231,-5.8247c-0.28409,-1.19364 -3.8022,-1.26941 -5.51172,-4.06379c-1.35876,-2.22104 -1.05608,-7.22691 -0.79285,-8.23641z" fill="url(#color-38)"/><path d="M237.08812,122.99944c0,-2.18008 5.84259,2.28848 9.24353,1.70062c2.95839,-0.51137 3.4485,-6.09032 4.47816,-7.51998c1.76415,-2.44948 5.80687,-0.20315 8.52704,-1.56516c2.51718,-1.26037 3.65745,-6.22155 6.66415,-6.22155c2.27735,0 4.09144,7.096 5.65332,8.75439c2.54926,2.70678 4.42662,0.83298 6.54971,3.55198c2.47775,3.17319 6.5053,2.06402 6.5053,6.40197c0,2.18651 -0.65165,9.90153 -2.63848,11.51314c-3.06114,2.48303 -8.12348,-1.34449 -9.76584,1.42255c-2.3289,3.92373 2.72491,10.02454 -2.05212,10.02454c-1.52762,0 -8.42738,-3.19598 -12.15703,-2.12094c-5.00977,1.44404 -7.03554,7.1745 -8.66527,6.17495c-1.55773,-0.95539 -5.17838,-4.59437 -4.54575,-8.94763c0.52312,-3.59968 5.29908,-7.95668 4.58728,-9.29522c-0.77511,-1.45759 -5.38118,-0.36185 -8.55553,-3.41957c-2.52305,-2.43035 -3.82847,-9.05042 -3.82847,-10.45409z" fill="url(#color-39)"/><path d="M244.83302,126.02882c0,-1.47096 3.94216,1.5441 6.23687,1.14746c1.99611,-0.34504 2.3268,-4.10931 3.02154,-5.07395c1.19032,-1.65273 3.91806,-0.13707 5.75344,-1.05606c1.69841,-0.85041 2.46779,-4.19786 4.49649,-4.19786c1.53659,0 2.76061,4.78787 3.81446,5.90684c1.72006,1.82634 2.98677,0.56204 4.41928,2.39662c1.67181,2.14104 4.38931,1.39265 4.38931,4.31959c0,1.4753 -0.43969,6.68085 -1.78026,7.76825c-2.06544,1.67537 -5.48114,-0.90717 -6.58929,0.95984c-1.57138,2.64745 1.83857,6.76384 -1.38462,6.76384c-1.03073,0 -5.68619,-2.15642 -8.2027,-1.43106c-3.38024,0.97434 -4.74708,4.84084 -5.84671,4.16642c-1.05105,-0.64463 -3.494,-3.09995 -3.06715,-6.03722c0.35296,-2.42881 3.57544,-5.3686 3.09517,-6.27175c-0.52299,-0.98348 -3.63084,-0.24415 -5.77266,-2.30728c-1.70237,-1.63983 -2.58318,-6.10658 -2.58318,-7.05367z" fill="url(#color-40)"/><path d="M170.33333,180c0,-82.6586 67.00805,-149.66667 149.66667,-149.66667c82.6586,0 149.66667,67.00805 149.66667,149.66667c0,82.6586 -67.00804,149.66667 -149.66667,149.66667c-82.6586,0 -149.66667,-67.00804 -149.66667,-149.66667z" fill="url(#color-41)"/></g></g></svg>