<svg version="1.1" xmlns="http://www.w3.org/2000/svg" xmlns:xlink="http://www.w3.org/1999/xlink" width="126.41066" height="126.41066" viewBox="0,0,126.41066,126.41066"><defs><radialGradient cx="319.09349" cy="173.63118" r="18.21741" gradientUnits="userSpaceOnUse" id="color-1"><stop offset="0" stop-color="#005907" stop-opacity="0"/><stop offset="1" stop-color="#005907" stop-opacity="0.4"/></radialGradient><radialGradient cx="319.09355" cy="173.63118" r="40.70533" gradientUnits="userSpaceOnUse" id="color-2"><stop offset="0" stop-color="#005907" stop-opacity="0.70196"/><stop offset="1" stop-color="#005907" stop-opacity="0"/></radialGradient></defs><g transform="translate(-255.8882,-110.42585)"><g data-paper-data="{&quot;isPaintingLayer&quot;:true}" fill-rule="nonzero" stroke-linecap="butt" stroke-linejoin="miter" stroke-miterlimit="10" stroke-dasharray="" stroke-dashoffset="0" style="mix-blend-mode: normal"><path d="M300.87613,173.63118c0,-10.06121 8.1562,-18.21741 18.21741,-18.21741c10.06121,0 18.21741,8.1562 18.21741,18.21741c0,10.06121 -8.1562,18.21741 -18.21741,18.21741c-10.06121,0 -18.21741,-8.1562 -18.21741,-18.21741z" fill="url(#color-1)" stroke="none" stroke-width="0"/><path d="M278.3882,173.63118c0,-22.48096 18.22437,-40.70533 40.70533,-40.70533c22.48096,0 40.70533,18.22437 40.70533,40.70533c0,22.48096 -18.22437,40.70533 -40.70533,40.70533c-22.48096,0 -40.70533,-18.22437 -40.70533,-40.70533z" fill="none" stroke="url(#color-2)" stroke-width="45"/></g></g></svg>