<svg version="1.1" xmlns="http://www.w3.org/2000/svg" xmlns:xlink="http://www.w3.org/1999/xlink" width="52.40582" height="51.44983" viewBox="0,0,52.40582,51.44983"><defs><linearGradient x1="247.4887" y1="179.99999" x2="260.6583" y2="179.99999" gradientUnits="userSpaceOnUse" id="color-1"><stop offset="0" stop-color="#ff0000"/><stop offset="1" stop-color="#ff7100"/></linearGradient><linearGradient x1="246.3782" y1="179.99999" x2="259.54781" y2="179.99999" gradientUnits="userSpaceOnUse" id="color-2"><stop offset="0" stop-color="#ff0000"/><stop offset="1" stop-color="#ff7100"/></linearGradient><linearGradient x1="245.48981" y1="180" x2="258.65942" y2="179.99999" gradientUnits="userSpaceOnUse" id="color-3"><stop offset="0" stop-color="#ff0000"/><stop offset="1" stop-color="#ff7100"/></linearGradient><linearGradient x1="244.37932" y1="180" x2="257.54893" y2="179.99999" gradientUnits="userSpaceOnUse" id="color-4"><stop offset="0" stop-color="#ff0000"/><stop offset="1" stop-color="#ff7100"/></linearGradient><linearGradient x1="243.26883" y1="179.99999" x2="256.43843" y2="179.99999" gradientUnits="userSpaceOnUse" id="color-5"><stop offset="0" stop-color="#ff0000"/><stop offset="1" stop-color="#ff7100"/></linearGradient><linearGradient x1="242.15834" y1="179.99999" x2="255.32795" y2="180" gradientUnits="userSpaceOnUse" id="color-6"><stop offset="0" stop-color="#ff0000"/><stop offset="1" stop-color="#ff7100"/></linearGradient><linearGradient x1="241.04785" y1="179.99999" x2="254.21745" y2="180" gradientUnits="userSpaceOnUse" id="color-7"><stop offset="0" stop-color="#ff0000"/><stop offset="1" stop-color="#ff7100"/></linearGradient><linearGradient x1="240.05308" y1="185.63563" x2="240.05308" y2="198.80523" gradientUnits="userSpaceOnUse" id="color-8"><stop offset="0" stop-color="#ff0000"/><stop offset="1" stop-color="#ff7100"/></linearGradient><linearGradient x1="240.05308" y1="184.52513" x2="240.05308" y2="197.69474" gradientUnits="userSpaceOnUse" id="color-9"><stop offset="0" stop-color="#ff0000"/><stop offset="1" stop-color="#ff7100"/></linearGradient><linearGradient x1="240.05308" y1="183.63674" x2="240.05308" y2="196.80635" gradientUnits="userSpaceOnUse" id="color-10"><stop offset="0" stop-color="#ff0000"/><stop offset="1" stop-color="#ff7100"/></linearGradient><linearGradient x1="240.05308" y1="182.52625" x2="240.05308" y2="195.69586" gradientUnits="userSpaceOnUse" id="color-11"><stop offset="0" stop-color="#ff0000"/><stop offset="1" stop-color="#ff7100"/></linearGradient><linearGradient x1="240.05308" y1="181.41576" x2="240.05308" y2="194.58536" gradientUnits="userSpaceOnUse" id="color-12"><stop offset="0" stop-color="#ff0000"/><stop offset="1" stop-color="#ff7100"/></linearGradient><linearGradient x1="240.05308" y1="180.30527" x2="240.05308" y2="193.47488" gradientUnits="userSpaceOnUse" id="color-13"><stop offset="0" stop-color="#ff0000"/><stop offset="1" stop-color="#ff7100"/></linearGradient><linearGradient x1="240.05308" y1="179.19478" x2="240.05308" y2="192.36438" gradientUnits="userSpaceOnUse" id="color-14"><stop offset="0" stop-color="#ff0000"/><stop offset="1" stop-color="#ff7100"/></linearGradient><linearGradient x1="233.80161" y1="180.00001" x2="220.632" y2="180.00001" gradientUnits="userSpaceOnUse" id="color-15"><stop offset="0" stop-color="#ff0000"/><stop offset="1" stop-color="#ff7100"/></linearGradient><linearGradient x1="234.9121" y1="180.00001" x2="221.74249" y2="180.00001" gradientUnits="userSpaceOnUse" id="color-16"><stop offset="0" stop-color="#ff0000"/><stop offset="1" stop-color="#ff7100"/></linearGradient><linearGradient x1="235.80049" y1="180.00001" x2="222.63089" y2="180.00001" gradientUnits="userSpaceOnUse" id="color-17"><stop offset="0" stop-color="#ff0000"/><stop offset="1" stop-color="#ff7100"/></linearGradient><linearGradient x1="236.91099" y1="180.00001" x2="223.74138" y2="180.00001" gradientUnits="userSpaceOnUse" id="color-18"><stop offset="0" stop-color="#ff0000"/><stop offset="1" stop-color="#ff7100"/></linearGradient><linearGradient x1="238.02147" y1="180.00001" x2="224.85187" y2="180.00001" gradientUnits="userSpaceOnUse" id="color-19"><stop offset="0" stop-color="#ff0000"/><stop offset="1" stop-color="#ff7100"/></linearGradient><linearGradient x1="239.13196" y1="180.00001" x2="225.96236" y2="180.00001" gradientUnits="userSpaceOnUse" id="color-20"><stop offset="0" stop-color="#ff0000"/><stop offset="1" stop-color="#ff7100"/></linearGradient><linearGradient x1="240.24246" y1="180.00001" x2="227.07286" y2="180.00001" gradientUnits="userSpaceOnUse" id="color-21"><stop offset="0" stop-color="#ff0000"/><stop offset="1" stop-color="#ff7100"/></linearGradient><linearGradient x1="240.25307" y1="176.4066" x2="240.25307" y2="163.56103" gradientUnits="userSpaceOnUse" id="color-22"><stop offset="0" stop-color="#ff0000"/><stop offset="1" stop-color="#ff7100"/></linearGradient><linearGradient x1="240.25307" y1="177.48977" x2="240.25307" y2="164.64419" gradientUnits="userSpaceOnUse" id="color-23"><stop offset="0" stop-color="#ff0000"/><stop offset="1" stop-color="#ff7100"/></linearGradient><linearGradient x1="240.25307" y1="178.35631" x2="240.25307" y2="165.51073" gradientUnits="userSpaceOnUse" id="color-24"><stop offset="0" stop-color="#ff0000"/><stop offset="1" stop-color="#ff7100"/></linearGradient><linearGradient x1="240.25307" y1="179.43948" x2="240.25307" y2="166.5939" gradientUnits="userSpaceOnUse" id="color-25"><stop offset="0" stop-color="#ff0000"/><stop offset="1" stop-color="#ff7100"/></linearGradient><linearGradient x1="240.25307" y1="180.52264" x2="240.25307" y2="167.67707" gradientUnits="userSpaceOnUse" id="color-26"><stop offset="0" stop-color="#ff0000"/><stop offset="1" stop-color="#ff7100"/></linearGradient><linearGradient x1="240.25307" y1="181.60581" x2="240.25307" y2="168.76024" gradientUnits="userSpaceOnUse" id="color-27"><stop offset="0" stop-color="#ff0000"/><stop offset="1" stop-color="#ff7100"/></linearGradient><linearGradient x1="240.25307" y1="182.68899" x2="240.25307" y2="169.84341" gradientUnits="userSpaceOnUse" id="color-28"><stop offset="0" stop-color="#ff0000"/><stop offset="1" stop-color="#ff7100"/></linearGradient><radialGradient cx="236.66253" cy="178.8125" r="1.1875" gradientUnits="userSpaceOnUse" id="color-29"><stop offset="0" stop-color="#ffffff"/><stop offset="1" stop-color="#ffffff" stop-opacity="0"/></radialGradient><radialGradient cx="243.16253" cy="178.8125" r="1.1875" gradientUnits="userSpaceOnUse" id="color-30"><stop offset="0" stop-color="#ffffff"/><stop offset="1" stop-color="#ffffff" stop-opacity="0"/></radialGradient><radialGradient cx="240.00003" cy="180" r="12.29688" gradientUnits="userSpaceOnUse" id="color-31"><stop offset="0" stop-color="#ff6200" stop-opacity="0.48627"/><stop offset="1" stop-color="#ff6200" stop-opacity="0"/></radialGradient><radialGradient cx="240" cy="170.10295" r="14.62794" gradientUnits="userSpaceOnUse" id="color-32"><stop offset="0" stop-color="#ff6300"/><stop offset="1" stop-color="#ff6300" stop-opacity="0"/></radialGradient><radialGradient cx="250.85308" cy="180" r="14.62794" gradientUnits="userSpaceOnUse" id="color-33"><stop offset="0" stop-color="#ff6300"/><stop offset="1" stop-color="#ff6300" stop-opacity="0"/></radialGradient><radialGradient cx="240.05308" cy="192.29688" r="14.62794" gradientUnits="userSpaceOnUse" id="color-34"><stop offset="0" stop-color="#ff6300"/><stop offset="1" stop-color="#ff6300" stop-opacity="0"/></radialGradient><radialGradient cx="227.70314" cy="180.09689" r="14.62794" gradientUnits="userSpaceOnUse" id="color-35"><stop offset="0" stop-color="#ff6300"/><stop offset="1" stop-color="#ff6300" stop-opacity="0"/></radialGradient></defs><g transform="translate(-213.07519,-155.475)"><g data-paper-data="{&quot;isPaintingLayer&quot;:true}" fill-rule="nonzero" stroke="none" stroke-linecap="butt" stroke-linejoin="miter" stroke-miterlimit="10" stroke-dasharray="" stroke-dashoffset="0" style="mix-blend-mode: normal"><g stroke-width="0.5"><path d="M250.75267,181.37224c0.30435,0.22403 0.85033,0.76997 0.14211,1.44376c-0.34737,0.33049 -0.73786,0.44568 -1.09121,0.46006c-0.02642,0.21265 -0.12393,0.43467 -0.23483,0.61962c0.43207,-0.05705 1.36554,-0.07754 1.76095,0.71247c0.52308,1.04505 -0.94153,1.41829 -0.94153,1.41829c-0.91177,0.10818 -1.93946,0.65992 -2.73531,0.32452c-2.31093,-0.97393 -1.00346,-2.10505 -0.94989,-3.25735c0.01388,-0.29865 -0.39733,-2.15522 -0.4272,-2.47684c-0.11329,-1.21977 -0.0034,-2.48 -0.00275,-3.70248l0.0196,-0.03183l-0.01758,-0.00074l0.10661,-1.29315c0.04192,-0.58615 0.72126,-1.05221 1.55316,-1.05221c0.69959,0 1.2913,0.32961 1.48675,0.78306l0.63209,1.35307l-0.0419,0.00996c0.03231,0.04322 0.06356,0.08691 0.09364,0.1311c0.28827,0.42342 0.06835,0.94046 0.12878,1.40921c0.1403,1.08818 0.4325,2.08043 0.51851,3.14947z" fill="#ff4200"/><path d="M247.74062,173.83419c0,-0.70918 0.99389,-0.70918 0.99389,-0.70918l0.63286,0.04515c0.98968,0.26537 1.90793,0.52666 2.97736,0.56388c0.12229,0.00426 2.83853,-0.0217 2.97343,0.04099c0.09552,0.0444 0.18397,0.09432 0.26689,0.1486l0.03104,-0.02658l0.8458,0.50293c0.22191,0.13007 0.36345,0.32738 0.36345,0.54828c0,0.16932 -0.08317,0.32479 -0.22194,0.44673c0.66108,0.22174 1.28947,0.62958 1.3359,0.72304c0.16073,0.32352 -0.75137,0.98541 -1.47442,1.36196h0.92788c0.54892,0 0.9939,0.31752 0.9939,0.70919c0,0.3612 -0.37843,0.65932 -0.86781,0.70353l-0.72638,0.07405c-0.25612,0.22686 -0.32988,0.56105 -0.49847,0.83146c0.91712,0.14719 1.86852,0.23108 2.65325,0.58367c0.7083,0.31824 1.79059,0.72024 1.70642,1.31446c-0.08606,0.60751 -1.31505,0.78965 -2.04896,1.10366c-0.08971,0.03839 -0.20385,0.07819 -0.32817,0.11318c0.22338,0.07082 0.42792,0.1615 0.58495,0.29039c0.04474,0.03672 0.08678,0.07471 0.12648,0.11381l0.01997,-0.01188l0.70552,0.6041c0.14632,0.1235 0.23454,0.2832 0.23454,0.45758c0,0.39167 -0.44499,0.70919 -0.99391,0.70919h-1.27744c-0.53193,-0.00279 -1.25257,-0.27632 -1.59571,0.01372c-0.55991,0.47326 -0.15873,1.46012 -0.93766,1.73341c-0.536,0.18805 -1.16596,-0.19624 -1.76019,-0.23932c-1.4655,-0.10625 -2.72368,0.03406 -4.06954,-0.11679c-0.24503,-0.17838 -0.52202,-0.33435 -0.82434,-0.46316c-0.13129,-0.09519 -0.2717,-0.18395 -0.42022,-0.26557c-0.00809,-0.19078 -0.22738,-0.34366 -0.49671,-0.34366c-0.02847,0 -0.05639,0.00171 -0.08356,0.00499c0.00902,-0.02168 0.01942,-0.04384 0.03132,-0.06648c0.34898,-0.66404 1.27961,-0.41503 1.27961,-0.41503c1.66345,0.46607 3.24109,-0.01641 4.93814,0.27007c0.23558,0.03976 0.28591,0.30446 0.51083,0.36835c0.14106,0.04006 -0.25204,-0.17962 -0.21829,-0.28525c0.13712,-0.42911 0.25133,-0.92025 0.70001,-1.22227c0.31411,-0.21144 0.76524,-0.31122 1.24528,-0.35728c-0.49041,-0.37076 -0.80765,-0.86451 -0.67104,-1.24875c0.04691,-0.13194 1.02453,-0.63038 1.93802,-0.87905c-0.28672,-0.04621 -0.57051,-0.1026 -0.85036,-0.16501c-0.70273,-0.15671 -1.37174,-0.38199 -2.05761,-0.57299l-0.09643,-0.09806l-0.03658,0.03132l-0.8458,-0.50293c-0.22191,-0.13007 -0.36345,-0.32738 -0.36345,-0.54828c0,-0.36812 0.39307,-0.67073 0.89606,-0.7058l0.45618,-0.03616c-0.09969,-0.18577 -0.19631,-0.42181 -0.28794,-0.71703c-0.17157,-0.55279 0.36804,-1.09711 0.88156,-1.57627c-0.529,0.01617 -1.10312,0.0191 -1.30954,-0.27562c-0.26504,-0.37843 -0.02412,-0.81435 0.17776,-1.24582c-1.88825,0.02884 -3.37895,-0.18394 -5.137,-0.65344l0.06511,0.04516c0,0 -0.9939,0 -0.9939,-0.70919z" fill="url(#color-1)"/><path d="M246.63013,173.83419c0,-0.70918 0.99391,-0.70918 0.99391,-0.70918l0.63286,0.04515c0.98968,0.26537 1.90794,0.52666 2.97736,0.56388c0.12229,0.00426 2.83853,-0.0217 2.97342,0.04099c0.09552,0.0444 0.18397,0.09432 0.26689,0.1486l0.03104,-0.02658l0.8458,0.50293c0.22191,0.13007 0.36345,0.32738 0.36345,0.54828c0,0.16932 -0.08317,0.32479 -0.22194,0.44673c0.66108,0.22174 1.28947,0.62958 1.3359,0.72304c0.16073,0.32352 -0.75137,0.98541 -1.47442,1.36196h0.92787c0.54892,0 0.9939,0.31752 0.9939,0.70919c0,0.3612 -0.37842,0.65932 -0.8678,0.70353l-0.72638,0.07405c-0.25612,0.22686 -0.32989,0.56105 -0.49848,0.83146c0.91711,0.14719 1.86853,0.23108 2.65326,0.58367c0.7083,0.31824 1.79059,0.72024 1.70642,1.31446c-0.08606,0.60751 -1.31505,0.78965 -2.04896,1.10366c-0.08971,0.03839 -0.20385,0.07819 -0.32817,0.11318c0.22338,0.07082 0.42791,0.1615 0.58495,0.29039c0.04474,0.03672 0.08678,0.07471 0.12648,0.11381l0.01997,-0.01188l0.70552,0.6041c0.14632,0.1235 0.23455,0.2832 0.23455,0.45758c0,0.39167 -0.44498,0.70919 -0.9939,0.70919h-1.27745c-0.53193,-0.00279 -1.25258,-0.27632 -1.59572,0.01372c-0.55991,0.47326 -0.15874,1.46012 -0.93766,1.73341c-0.536,0.18805 -1.16595,-0.19624 -1.76019,-0.23932c-1.4655,-0.10625 -2.72368,0.03406 -4.06954,-0.11679c-0.24503,-0.17838 -0.52203,-0.33435 -0.82435,-0.46316c-0.13129,-0.09519 -0.27169,-0.18395 -0.42022,-0.26557c-0.00809,-0.19078 -0.22738,-0.34366 -0.49672,-0.34366c-0.02847,0 -0.05639,0.00171 -0.08355,0.00499c0.00902,-0.02168 0.01942,-0.04384 0.03132,-0.06648c0.34898,-0.66404 1.2796,-0.41503 1.2796,-0.41503c1.66345,0.46607 3.24109,-0.01641 4.93814,0.27007c0.23558,0.03976 0.28592,0.30446 0.51084,0.36835c0.14106,0.04006 -0.25204,-0.17962 -0.21829,-0.28525c0.13712,-0.42911 0.25132,-0.92025 0.70001,-1.22227c0.31411,-0.21144 0.76524,-0.31122 1.24528,-0.35728c-0.49041,-0.37076 -0.80764,-0.86451 -0.67104,-1.24875c0.04691,-0.13194 1.02453,-0.63038 1.93802,-0.87905c-0.28672,-0.04621 -0.57051,-0.1026 -0.85036,-0.16501c-0.70273,-0.15671 -1.37174,-0.38199 -2.05761,-0.57299l-0.09643,-0.09806l-0.03658,0.03132l-0.8458,-0.50293c-0.22191,-0.13007 -0.36345,-0.32738 -0.36345,-0.54828c0,-0.36812 0.39307,-0.67073 0.89606,-0.7058l0.45618,-0.03616c-0.09969,-0.18577 -0.19631,-0.42181 -0.28794,-0.71703c-0.17157,-0.55279 0.36804,-1.09711 0.88156,-1.57627c-0.529,0.01617 -1.10312,0.0191 -1.30954,-0.27562c-0.26504,-0.37843 -0.02412,-0.81435 0.17776,-1.24582c-1.88825,0.02884 -3.37894,-0.18394 -5.137,-0.65344l0.0651,0.04516c0,0 -0.9939,0 -0.9939,-0.70919z" fill="url(#color-2)"/><path d="M245.74174,173.83419c0,-0.70918 0.99389,-0.70919 0.99389,-0.70919l0.63286,0.04515c0.98968,0.26537 1.90794,0.52666 2.97736,0.56388c0.12229,0.00426 2.83852,-0.0217 2.97342,0.04099c0.09552,0.0444 0.18398,0.09432 0.26689,0.1486l0.03104,-0.02658l0.84581,0.50293c0.22191,0.13007 0.36345,0.32738 0.36345,0.54828c0,0.16932 -0.08317,0.32479 -0.22194,0.44674c0.66108,0.22174 1.28947,0.62957 1.3359,0.72303c0.16074,0.32352 -0.75137,0.98541 -1.47442,1.36196h0.92788c0.54891,0 0.9939,0.31752 0.9939,0.70919c0,0.3612 -0.37843,0.65933 -0.86781,0.70354l-0.72638,0.07404c-0.25612,0.22686 -0.32988,0.56105 -0.49847,0.83147c0.91711,0.14719 1.86853,0.23108 2.65325,0.58366c0.7083,0.31824 1.79059,0.72024 1.70641,1.31446c-0.08606,0.60751 -1.31505,0.78965 -2.04896,1.10366c-0.08971,0.03839 -0.20385,0.07819 -0.32817,0.11318c0.22338,0.07082 0.42792,0.1615 0.58495,0.29039c0.04474,0.03672 0.08677,0.07471 0.12647,0.11381l0.01998,-0.01188l0.70552,0.6041c0.14632,0.1235 0.23454,0.2832 0.23454,0.45759c0,0.39167 -0.44498,0.70919 -0.9939,0.70919h-1.27744c-0.53193,-0.00279 -1.25258,-0.27631 -1.59571,0.01372c-0.55991,0.47326 -0.15873,1.46012 -0.93766,1.73341c-0.536,0.18805 -1.16596,-0.19624 -1.76019,-0.23932c-1.4655,-0.10625 -2.72368,0.03406 -4.06954,-0.11679c-0.24503,-0.17838 -0.52202,-0.33434 -0.82434,-0.46315c-0.13129,-0.09519 -0.2717,-0.18395 -0.42023,-0.26557c-0.00809,-0.19078 -0.22738,-0.34366 -0.49671,-0.34366c-0.02847,0 -0.05639,0.0017 -0.08355,0.00499c0.00902,-0.02168 0.01942,-0.04384 0.03132,-0.06648c0.34898,-0.66404 1.2796,-0.41502 1.2796,-0.41502c1.66345,0.46607 3.24109,-0.01641 4.93814,0.27006c0.23558,0.03976 0.28591,0.30446 0.51083,0.36835c0.14106,0.04006 -0.25204,-0.17962 -0.21828,-0.28525c0.13712,-0.42911 0.25132,-0.92025 0.70001,-1.22226c0.31411,-0.21144 0.76524,-0.31122 1.24528,-0.35728c-0.49041,-0.37076 -0.80764,-0.86451 -0.67104,-1.24875c0.04691,-0.13194 1.02453,-0.63038 1.93801,-0.87905c-0.28672,-0.04621 -0.57051,-0.10261 -0.85036,-0.16502c-0.70273,-0.15671 -1.37174,-0.38199 -2.05761,-0.57299l-0.09643,-0.09806l-0.03658,0.03132l-0.8458,-0.50293c-0.22191,-0.13007 -0.36345,-0.32739 -0.36345,-0.54829c0,-0.36812 0.39307,-0.67073 0.89606,-0.7058l0.45618,-0.03617c-0.09969,-0.18577 -0.19631,-0.42181 -0.28794,-0.71703c-0.17157,-0.55279 0.36804,-1.09711 0.88156,-1.57626c-0.529,0.01617 -1.10312,0.0191 -1.30954,-0.27563c-0.26504,-0.37843 -0.02412,-0.81435 0.17776,-1.24582c-1.88825,0.02884 -3.37895,-0.18394 -5.13701,-0.65344l0.06511,0.04515c0,0 -0.9939,0 -0.9939,-0.70919z" fill="url(#color-3)"/><path d="M244.63124,173.83419c0,-0.70918 0.99391,-0.70919 0.99391,-0.70919l0.63286,0.04515c0.98968,0.26537 1.90794,0.52666 2.97736,0.56388c0.12229,0.00426 2.83853,-0.0217 2.97342,0.04099c0.09552,0.0444 0.18397,0.09432 0.26689,0.1486l0.03104,-0.02658l0.8458,0.50293c0.22191,0.13007 0.36345,0.32738 0.36345,0.54828c0,0.16932 -0.08316,0.32479 -0.22194,0.44674c0.66108,0.22174 1.28947,0.62957 1.3359,0.72303c0.16073,0.32352 -0.75136,0.98541 -1.47442,1.36196h0.92788c0.54891,0 0.99389,0.31752 0.99389,0.70919c0,0.3612 -0.37842,0.65933 -0.86781,0.70354l-0.72638,0.07404c-0.25612,0.22686 -0.32989,0.56105 -0.49848,0.83147c0.91711,0.14719 1.86853,0.23108 2.65326,0.58366c0.7083,0.31824 1.79059,0.72024 1.70642,1.31446c-0.08606,0.60751 -1.31505,0.78965 -2.04896,1.10366c-0.08971,0.03839 -0.20385,0.07819 -0.32818,0.11318c0.22338,0.07082 0.42792,0.1615 0.58495,0.29039c0.04474,0.03672 0.08678,0.07471 0.12648,0.11381l0.01997,-0.01188l0.70552,0.6041c0.14632,0.1235 0.23454,0.2832 0.23454,0.45759c0,0.39167 -0.44498,0.70919 -0.99389,0.70919h-1.27745c-0.53193,-0.00279 -1.25258,-0.27631 -1.59572,0.01372c-0.55991,0.47326 -0.15874,1.46012 -0.93766,1.73341c-0.536,0.18805 -1.16595,-0.19624 -1.76019,-0.23932c-1.4655,-0.10625 -2.72368,0.03406 -4.06954,-0.11679c-0.24503,-0.17838 -0.52203,-0.33434 -0.82435,-0.46315c-0.13129,-0.09519 -0.27169,-0.18395 -0.42022,-0.26557c-0.00809,-0.19078 -0.22738,-0.34366 -0.49672,-0.34366c-0.02847,0 -0.05639,0.0017 -0.08355,0.00499c0.00902,-0.02168 0.01942,-0.04384 0.03132,-0.06648c0.34898,-0.66404 1.2796,-0.41502 1.2796,-0.41502c1.66345,0.46607 3.24108,-0.01641 4.93814,0.27006c0.23558,0.03976 0.28591,0.30446 0.51083,0.36835c0.14106,0.04006 -0.25204,-0.17962 -0.21828,-0.28525c0.13712,-0.42911 0.25133,-0.92025 0.70001,-1.22226c0.31411,-0.21144 0.76524,-0.31122 1.24528,-0.35728c-0.49041,-0.37076 -0.80764,-0.86451 -0.67104,-1.24875c0.04691,-0.13194 1.02453,-0.63038 1.93802,-0.87905c-0.28672,-0.04621 -0.5705,-0.10261 -0.85036,-0.16502c-0.70273,-0.15671 -1.37173,-0.38199 -2.05761,-0.57299l-0.09643,-0.09806l-0.03658,0.03132l-0.8458,-0.50293c-0.22191,-0.13007 -0.36345,-0.32739 -0.36345,-0.54829c0,-0.36812 0.39307,-0.67073 0.89606,-0.7058l0.45618,-0.03617c-0.09969,-0.18577 -0.19631,-0.42181 -0.28794,-0.71703c-0.17157,-0.55279 0.36803,-1.09711 0.88155,-1.57626c-0.529,0.01617 -1.10313,0.0191 -1.30954,-0.27563c-0.26504,-0.37843 -0.02411,-0.81435 0.17776,-1.24582c-1.88825,0.02884 -3.37895,-0.18394 -5.13701,-0.65344l0.06511,0.04515c0,0 -0.9939,0 -0.9939,-0.70919z" fill="url(#color-4)"/><path d="M243.52075,173.83419c0,-0.70918 0.9939,-0.70919 0.9939,-0.70919l0.63286,0.04515c0.98968,0.26537 1.90794,0.52666 2.97736,0.56388c0.12229,0.00426 2.83853,-0.0217 2.97342,0.04099c0.09552,0.0444 0.18397,0.09432 0.26689,0.1486l0.03104,-0.02658l0.8458,0.50293c0.22191,0.13007 0.36345,0.32738 0.36345,0.54828c0,0.16932 -0.08317,0.32479 -0.22194,0.44674c0.66108,0.22174 1.28947,0.62957 1.3359,0.72303c0.16073,0.32352 -0.75136,0.98541 -1.47442,1.36196h0.92788c0.54891,0 0.9939,0.31752 0.9939,0.70919c0,0.3612 -0.37842,0.65933 -0.86781,0.70354l-0.72638,0.07404c-0.25612,0.22686 -0.32988,0.56105 -0.49847,0.83147c0.91711,0.14719 1.86853,0.23108 2.65326,0.58366c0.7083,0.31824 1.79059,0.72024 1.70642,1.31446c-0.08606,0.60751 -1.31504,0.78965 -2.04896,1.10366c-0.08971,0.03839 -0.20385,0.07819 -0.32817,0.11318c0.22338,0.07082 0.42792,0.1615 0.58495,0.29039c0.04474,0.03672 0.08677,0.07471 0.12647,0.11381l0.01997,-0.01188l0.70552,0.6041c0.14632,0.1235 0.23454,0.2832 0.23454,0.45759c0,0.39167 -0.44499,0.70919 -0.9939,0.70919h-1.27745c-0.53193,-0.00279 -1.25258,-0.27631 -1.59571,0.01372c-0.55991,0.47326 -0.15873,1.46012 -0.93766,1.73341c-0.536,0.18805 -1.16596,-0.19624 -1.76019,-0.23932c-1.4655,-0.10625 -2.72368,0.03406 -4.06954,-0.11679c-0.24503,-0.17838 -0.52202,-0.33434 -0.82435,-0.46315c-0.13129,-0.09519 -0.2717,-0.18395 -0.42022,-0.26557c-0.00809,-0.19078 -0.22738,-0.34366 -0.49671,-0.34366c-0.02847,0 -0.0564,0.0017 -0.08356,0.00499c0.00902,-0.02168 0.01942,-0.04384 0.03132,-0.06648c0.34898,-0.66404 1.2796,-0.41502 1.2796,-0.41502c1.66345,0.46607 3.24109,-0.01641 4.93814,0.27006c0.23558,0.03976 0.2859,0.30446 0.51083,0.36835c0.14106,0.04006 -0.25204,-0.17962 -0.21828,-0.28525c0.13712,-0.42911 0.25133,-0.92025 0.70002,-1.22226c0.31411,-0.21144 0.76524,-0.31122 1.24528,-0.35728c-0.49041,-0.37076 -0.80764,-0.86451 -0.67104,-1.24875c0.04691,-0.13194 1.02453,-0.63038 1.93802,-0.87905c-0.28672,-0.04621 -0.57051,-0.10261 -0.85036,-0.16502c-0.70273,-0.15671 -1.37174,-0.38199 -2.05761,-0.57299l-0.09643,-0.09806l-0.03658,0.03132l-0.8458,-0.50293c-0.22191,-0.13007 -0.36345,-0.32739 -0.36345,-0.54829c0,-0.36812 0.39307,-0.67073 0.89606,-0.7058l0.45617,-0.03617c-0.09969,-0.18577 -0.19631,-0.42181 -0.28794,-0.71703c-0.17157,-0.55279 0.36803,-1.09711 0.88155,-1.57626c-0.529,0.01617 -1.10312,0.0191 -1.30954,-0.27563c-0.26504,-0.37843 -0.02411,-0.81435 0.17776,-1.24582c-1.88825,0.02884 -3.37895,-0.18394 -5.13701,-0.65344l0.06511,0.04515c0,0 -0.99391,0 -0.99391,-0.70919z" fill="url(#color-5)"/><path d="M242.41025,173.83419c0,-0.70918 0.9939,-0.70919 0.9939,-0.70919l0.63286,0.04515c0.98968,0.26537 1.90794,0.52666 2.97736,0.56388c0.12229,0.00426 2.83852,-0.0217 2.97342,0.04099c0.09552,0.0444 0.18397,0.09432 0.26689,0.1486l0.03105,-0.02658l0.8458,0.50293c0.22191,0.13007 0.36345,0.32738 0.36345,0.54828c0,0.16932 -0.08317,0.32479 -0.22194,0.44674c0.66108,0.22174 1.28947,0.62957 1.3359,0.72303c0.16073,0.32352 -0.75137,0.98541 -1.47442,1.36196h0.92788c0.54891,0 0.9939,0.31752 0.9939,0.70919c0,0.3612 -0.37842,0.65933 -0.86781,0.70354l-0.72638,0.07404c-0.25612,0.22686 -0.32988,0.56105 -0.49847,0.83147c0.91711,0.14719 1.86853,0.23108 2.65326,0.58366c0.7083,0.31824 1.79059,0.72024 1.70641,1.31446c-0.08606,0.60751 -1.31505,0.78965 -2.04896,1.10366c-0.08971,0.03839 -0.20385,0.07819 -0.32818,0.11318c0.22338,0.07082 0.42792,0.1615 0.58495,0.29039c0.04474,0.03672 0.08677,0.07471 0.12647,0.11381l0.01997,-0.01188l0.70551,0.6041c0.14632,0.1235 0.23454,0.2832 0.23454,0.45759c0,0.39167 -0.44498,0.70919 -0.9939,0.70919h-1.27745c-0.53193,-0.00279 -1.25257,-0.27631 -1.59571,0.01372c-0.55991,0.47326 -0.15873,1.46012 -0.93766,1.73341c-0.536,0.18805 -1.16596,-0.19624 -1.76019,-0.23932c-1.4655,-0.10625 -2.72368,0.03406 -4.06954,-0.11679c-0.24503,-0.17838 -0.52203,-0.33434 -0.82435,-0.46315c-0.13129,-0.09519 -0.27169,-0.18395 -0.42022,-0.26557c-0.00809,-0.19078 -0.22738,-0.34366 -0.49672,-0.34366c-0.02847,0 -0.05639,0.0017 -0.08355,0.00499c0.00902,-0.02168 0.01942,-0.04384 0.03132,-0.06648c0.34898,-0.66404 1.2796,-0.41502 1.2796,-0.41502c1.66345,0.46607 3.24109,-0.01641 4.93814,0.27006c0.23558,0.03976 0.28591,0.30446 0.51083,0.36835c0.14106,0.04006 -0.25204,-0.17962 -0.21828,-0.28525c0.13712,-0.42911 0.25132,-0.92025 0.70001,-1.22226c0.31411,-0.21144 0.76524,-0.31122 1.24528,-0.35728c-0.49041,-0.37076 -0.80765,-0.86451 -0.67105,-1.24875c0.04691,-0.13194 1.02453,-0.63038 1.93802,-0.87905c-0.28672,-0.04621 -0.57051,-0.10261 -0.85036,-0.16502c-0.70273,-0.15671 -1.37174,-0.38199 -2.05761,-0.57299l-0.09643,-0.09806l-0.03658,0.03132l-0.8458,-0.50293c-0.22191,-0.13007 -0.36345,-0.32739 -0.36345,-0.54829c0,-0.36812 0.39307,-0.67073 0.89606,-0.7058l0.45618,-0.03617c-0.09969,-0.18577 -0.19631,-0.42181 -0.28794,-0.71703c-0.17157,-0.55279 0.36804,-1.09711 0.88156,-1.57626c-0.529,0.01617 -1.10312,0.0191 -1.30954,-0.27563c-0.26504,-0.37843 -0.02412,-0.81435 0.17776,-1.24582c-1.88825,0.02884 -3.37895,-0.18394 -5.137,-0.65344l0.0651,0.04515c0,0 -0.99389,0 -0.99389,-0.70919z" fill="url(#color-6)"/><path d="M241.29976,173.83419c0,-0.70918 0.9939,-0.70919 0.9939,-0.70919l0.63286,0.04515c0.98968,0.26537 1.90794,0.52666 2.97736,0.56388c0.12229,0.00426 2.83853,-0.0217 2.97342,0.04099c0.09552,0.0444 0.18397,0.09432 0.26689,0.1486l0.03104,-0.02658l0.8458,0.50293c0.22191,0.13007 0.36345,0.32738 0.36345,0.54828c0,0.16932 -0.08316,0.32479 -0.22194,0.44674c0.66108,0.22174 1.28947,0.62957 1.3359,0.72303c0.16073,0.32352 -0.75137,0.98541 -1.47442,1.36196h0.92788c0.54891,0 0.99389,0.31752 0.99389,0.70919c0,0.3612 -0.37842,0.65933 -0.86781,0.70354l-0.72638,0.07404c-0.25612,0.22686 -0.32988,0.56105 -0.49847,0.83147c0.91711,0.14719 1.86853,0.23108 2.65326,0.58366c0.7083,0.31824 1.79059,0.72024 1.70642,1.31446c-0.08606,0.60751 -1.31505,0.78965 -2.04896,1.10366c-0.08971,0.03839 -0.20385,0.07819 -0.32818,0.11318c0.22338,0.07082 0.42792,0.1615 0.58495,0.29039c0.04474,0.03672 0.08677,0.07471 0.12647,0.11381l0.01997,-0.01188l0.70552,0.6041c0.14632,0.1235 0.23454,0.2832 0.23454,0.45759c0,0.39167 -0.44499,0.70919 -0.9939,0.70919h-1.27744c-0.53193,-0.00279 -1.25258,-0.27631 -1.59572,0.01372c-0.55991,0.47326 -0.15873,1.46012 -0.93766,1.73341c-0.536,0.18805 -1.16595,-0.19624 -1.76019,-0.23932c-1.4655,-0.10625 -2.72369,0.03406 -4.06955,-0.11679c-0.24503,-0.17838 -0.52202,-0.33434 -0.82434,-0.46315c-0.13129,-0.09519 -0.2717,-0.18395 -0.42022,-0.26557c-0.00809,-0.19078 -0.22738,-0.34366 -0.49672,-0.34366c-0.02847,0 -0.05639,0.0017 -0.08355,0.00499c0.00902,-0.02168 0.01942,-0.04384 0.03132,-0.06648c0.34898,-0.66404 1.2796,-0.41502 1.2796,-0.41502c1.66345,0.46607 3.24108,-0.01641 4.93814,0.27006c0.23558,0.03976 0.28591,0.30446 0.51083,0.36835c0.14106,0.04006 -0.25204,-0.17962 -0.21828,-0.28525c0.13712,-0.42911 0.25133,-0.92025 0.70001,-1.22226c0.31411,-0.21144 0.76524,-0.31122 1.24528,-0.35728c-0.49041,-0.37076 -0.80764,-0.86451 -0.67104,-1.24875c0.04691,-0.13194 1.02453,-0.63038 1.93802,-0.87905c-0.28672,-0.04621 -0.5705,-0.10261 -0.85036,-0.16502c-0.70273,-0.15671 -1.37174,-0.38199 -2.05761,-0.57299l-0.09643,-0.09806l-0.03658,0.03132l-0.8458,-0.50293c-0.22191,-0.13007 -0.36345,-0.32739 -0.36345,-0.54829c0,-0.36812 0.39307,-0.67073 0.89606,-0.7058l0.45617,-0.03617c-0.09969,-0.18577 -0.1963,-0.42181 -0.28793,-0.71703c-0.17157,-0.55279 0.36803,-1.09711 0.88155,-1.57626c-0.529,0.01617 -1.10313,0.0191 -1.30954,-0.27563c-0.26504,-0.37843 -0.02411,-0.81435 0.17776,-1.24582c-1.88825,0.02884 -3.37895,-0.18394 -5.13701,-0.65344l0.06511,0.04515c0,0 -0.9939,0 -0.9939,-0.70919z" fill="url(#color-7)"/></g><g stroke-width="0.5"><path d="M238.68083,188.8996c-0.22403,0.30435 -0.76997,0.85033 -1.44376,0.14211c-0.33049,-0.34737 -0.44567,-0.73786 -0.46005,-1.09121c-0.21265,-0.02642 -0.43467,-0.12393 -0.61963,-0.23483c0.05705,0.43207 0.07754,1.36554 -0.71247,1.76096c-1.04505,0.52308 -1.41829,-0.94154 -1.41829,-0.94154c-0.10818,-0.91177 -0.65992,-1.93946 -0.32453,-2.73531c0.97393,-2.31093 2.10505,-1.00346 3.25735,-0.94989c0.29865,0.01388 2.15522,-0.39733 2.47684,-0.4272c1.21977,-0.11329 2.48,-0.0034 3.70248,-0.00275l0.03183,0.0196l0.00073,-0.01758l1.29315,0.10661c0.58615,0.04192 1.05221,0.72126 1.05221,1.55316c0,0.69959 -0.32961,1.2913 -0.78306,1.48675l-1.35307,0.63209l-0.00997,-0.0419c-0.04322,0.03231 -0.0869,0.06356 -0.1311,0.09364c-0.42342,0.28827 -0.94046,0.06835 -1.40922,0.12879c-1.08818,0.1403 -2.08043,0.4325 -3.14947,0.5185z" fill="#ff4200"/><path d="M246.21889,185.88755c0.70918,0 0.70918,0.9939 0.70918,0.9939l-0.04515,0.63286c-0.26537,0.98968 -0.52666,1.90794 -0.56388,2.97736c-0.00426,0.12229 0.0217,2.83853 -0.04099,2.97342c-0.0444,0.09552 -0.09432,0.18397 -0.1486,0.26689l0.02658,0.03104l-0.50293,0.8458c-0.13007,0.22191 -0.32738,0.36345 -0.54828,0.36345c-0.16932,0 -0.32479,-0.08317 -0.44673,-0.22194c-0.22174,0.66108 -0.62958,1.28947 -0.72304,1.3359c-0.32352,0.16073 -0.98541,-0.75137 -1.36196,-1.47442v0.92788c0,0.54891 -0.31751,0.9939 -0.70919,0.9939c-0.3612,0 -0.65933,-0.37843 -0.70354,-0.86781l-0.07404,-0.72638c-0.22686,-0.25612 -0.56105,-0.32988 -0.83147,-0.49847c-0.14719,0.91711 -0.23108,1.86852 -0.58366,2.65325c-0.31824,0.7083 -0.72024,1.79059 -1.31446,1.70642c-0.60751,-0.08606 -0.78965,-1.31505 -1.10366,-2.04896c-0.03839,-0.08971 -0.07819,-0.20385 -0.11318,-0.32818c-0.07082,0.22338 -0.1615,0.42792 -0.2904,0.58495c-0.03672,0.04474 -0.07471,0.08677 -0.1138,0.12647l0.01188,0.01997l-0.6041,0.70552c-0.1235,0.14632 -0.2832,0.23454 -0.45758,0.23454c-0.39167,0 -0.70919,-0.44498 -0.70919,-0.9939v-1.27744c0.00279,-0.53193 0.27631,-1.25258 -0.01372,-1.59571c-0.47326,-0.55991 -1.46012,-0.15873 -1.73341,-0.93766c-0.18805,-0.536 0.19624,-1.16596 0.23932,-1.76019c0.10625,-1.4655 -0.03406,-2.72368 0.11679,-4.06954c0.17838,-0.24503 0.33435,-0.52202 0.46316,-0.82434c0.09519,-0.13129 0.18395,-0.2717 0.26556,-0.42022c0.19078,-0.00809 0.34367,-0.22738 0.34367,-0.49671c0,-0.02847 -0.00171,-0.05639 -0.005,-0.08356c0.02168,0.00902 0.04384,0.01942 0.06648,0.03132c0.66404,0.34898 0.41502,1.2796 0.41502,1.2796c-0.46607,1.66345 0.01641,3.24109 -0.27006,4.93814c-0.03976,0.23558 -0.30446,0.28591 -0.36835,0.51083c-0.04006,0.14106 0.17963,-0.25204 0.28525,-0.21828c0.42911,0.13712 0.92025,0.25132 1.22226,0.70001c0.21144,0.31411 0.31122,0.76524 0.35728,1.24528c0.37076,-0.49041 0.86451,-0.80765 1.24875,-0.67104c0.13194,0.04691 0.63038,1.02453 0.87905,1.93802c0.04621,-0.28672 0.10261,-0.57051 0.16502,-0.85037c0.15671,-0.70273 0.38199,-1.37173 0.57299,-2.05761l0.09806,-0.09643l-0.03132,-0.03658l0.50293,-0.8458c0.13007,-0.22191 0.32738,-0.36345 0.54828,-0.36345c0.36812,0 0.67073,0.39307 0.7058,0.89606l0.03617,0.45618c0.18577,-0.09969 0.42181,-0.19631 0.71702,-0.28793c0.55279,-0.17157 1.09711,0.36803 1.57627,0.88155c-0.01617,-0.529 -0.0191,-1.10312 0.27562,-1.30954c0.37843,-0.26504 0.81435,-0.02412 1.24582,0.17776c-0.02884,-1.88825 0.18394,-3.37895 0.65344,-5.13701l-0.04515,0.06511c0,0 0,-0.9939 0.70919,-0.9939z" fill="url(#color-8)"/><path d="M246.21889,184.77706c0.70918,0 0.70918,0.99391 0.70918,0.99391l-0.04515,0.63286c-0.26537,0.98968 -0.52666,1.90794 -0.56388,2.97736c-0.00426,0.12229 0.0217,2.83853 -0.04099,2.97342c-0.0444,0.09552 -0.09432,0.18397 -0.1486,0.26689l0.02658,0.03104l-0.50293,0.8458c-0.13007,0.22191 -0.32738,0.36345 -0.54828,0.36345c-0.16932,0 -0.32479,-0.08317 -0.44673,-0.22194c-0.22174,0.66108 -0.62958,1.28947 -0.72304,1.3359c-0.32352,0.16073 -0.98541,-0.75136 -1.36196,-1.47442v0.92788c0,0.54891 -0.31751,0.99389 -0.70919,0.99389c-0.3612,0 -0.65933,-0.37842 -0.70354,-0.8678l-0.07404,-0.72638c-0.22686,-0.25612 -0.56105,-0.32989 -0.83147,-0.49848c-0.14719,0.91711 -0.23108,1.86853 -0.58366,2.65326c-0.31824,0.7083 -0.72024,1.79059 -1.31446,1.70642c-0.60751,-0.08606 -0.78965,-1.31505 -1.10366,-2.04896c-0.03839,-0.08971 -0.07819,-0.20385 -0.11318,-0.32818c-0.07082,0.22338 -0.1615,0.42792 -0.2904,0.58495c-0.03672,0.04474 -0.07471,0.08678 -0.1138,0.12648l0.01188,0.01997l-0.6041,0.70552c-0.1235,0.14632 -0.2832,0.23454 -0.45758,0.23454c-0.39167,0 -0.70919,-0.44498 -0.70919,-0.99389v-1.27745c0.00279,-0.53193 0.27631,-1.25258 -0.01372,-1.59572c-0.47326,-0.55991 -1.46012,-0.15874 -1.73341,-0.93766c-0.18805,-0.536 0.19624,-1.16595 0.23932,-1.76019c0.10625,-1.4655 -0.03406,-2.72368 0.11679,-4.06954c0.17838,-0.24503 0.33435,-0.52203 0.46316,-0.82435c0.09519,-0.13129 0.18395,-0.27169 0.26556,-0.42022c0.19078,-0.00809 0.34367,-0.22738 0.34367,-0.49672c0,-0.02847 -0.00171,-0.05639 -0.005,-0.08355c0.02168,0.00902 0.04384,0.01942 0.06648,0.03132c0.66404,0.34898 0.41502,1.2796 0.41502,1.2796c-0.46607,1.66345 0.01641,3.24109 -0.27006,4.93814c-0.03976,0.23558 -0.30446,0.28592 -0.36835,0.51084c-0.04006,0.14106 0.17963,-0.25204 0.28525,-0.21829c0.42911,0.13712 0.92025,0.25132 1.22226,0.70001c0.21144,0.31411 0.31122,0.76524 0.35728,1.24528c0.37076,-0.49041 0.86451,-0.80764 1.24875,-0.67104c0.13194,0.04691 0.63038,1.02453 0.87905,1.93802c0.04621,-0.28672 0.10261,-0.57051 0.16502,-0.85036c0.15671,-0.70273 0.38199,-1.37174 0.57299,-2.05761l0.09806,-0.09643l-0.03132,-0.03658l0.50293,-0.8458c0.13007,-0.22191 0.32738,-0.36345 0.54828,-0.36345c0.36812,0 0.67073,0.39307 0.7058,0.89606l0.03617,0.45618c0.18577,-0.09969 0.42181,-0.19631 0.71702,-0.28794c0.55279,-0.17157 1.09711,0.36804 1.57627,0.88156c-0.01617,-0.529 -0.0191,-1.10312 0.27562,-1.30954c0.37843,-0.26504 0.81435,-0.02412 1.24582,0.17776c-0.02884,-1.88825 0.18394,-3.37894 0.65344,-5.137l-0.04515,0.0651c0,0 0,-0.9939 0.70919,-0.9939z" fill="url(#color-9)"/><path d="M246.21888,183.88867c0.70918,0 0.70918,0.9939 0.70918,0.9939l-0.04515,0.63286c-0.26537,0.98968 -0.52666,1.90794 -0.56388,2.97736c-0.00426,0.12229 0.0217,2.83852 -0.04099,2.97342c-0.0444,0.09552 -0.09432,0.18398 -0.1486,0.26689l0.02658,0.03104l-0.50293,0.84581c-0.13007,0.22191 -0.32738,0.36345 -0.54828,0.36345c-0.16932,0 -0.32479,-0.08317 -0.44673,-0.22194c-0.22174,0.66108 -0.62958,1.28947 -0.72304,1.3359c-0.32352,0.16073 -0.98541,-0.75137 -1.36196,-1.47442v0.92788c0,0.54891 -0.31752,0.9939 -0.70919,0.9939c-0.3612,0 -0.65932,-0.37843 -0.70353,-0.86781l-0.07405,-0.72638c-0.22686,-0.25612 -0.56105,-0.32988 -0.83147,-0.49847c-0.14719,0.91711 -0.23108,1.86853 -0.58366,2.65326c-0.31824,0.7083 -0.72024,1.79059 -1.31446,1.70641c-0.60751,-0.08606 -0.78965,-1.31505 -1.10366,-2.04896c-0.03839,-0.08971 -0.07819,-0.20386 -0.11318,-0.32818c-0.07082,0.22338 -0.1615,0.42792 -0.29039,0.58495c-0.03672,0.04474 -0.07471,0.08677 -0.11381,0.12647l0.01188,0.01997l-0.6041,0.70552c-0.1235,0.14632 -0.2832,0.23454 -0.45759,0.23454c-0.39167,0 -0.70919,-0.44499 -0.70919,-0.99391v-1.27744c0.00279,-0.53193 0.27632,-1.25258 -0.01372,-1.59571c-0.47326,-0.55991 -1.46012,-0.15873 -1.73341,-0.93765c-0.18805,-0.536 0.19624,-1.16596 0.23932,-1.76019c0.10625,-1.4655 -0.03406,-2.72368 0.11679,-4.06954c0.17838,-0.24503 0.33434,-0.52202 0.46315,-0.82434c0.09519,-0.13129 0.18395,-0.2717 0.26557,-0.42023c0.19078,-0.00809 0.34366,-0.22738 0.34366,-0.49671c0,-0.02847 -0.0017,-0.05639 -0.00499,-0.08355c0.02168,0.00902 0.04384,0.01942 0.06648,0.03132c0.66404,0.34898 0.41502,1.2796 0.41502,1.2796c-0.46607,1.66345 0.01641,3.24109 -0.27007,4.93814c-0.03976,0.23558 -0.30446,0.28591 -0.36835,0.51083c-0.04006,0.14106 0.17962,-0.25204 0.28525,-0.21828c0.42911,0.13712 0.92025,0.25132 1.22227,0.70001c0.21144,0.31411 0.31121,0.76524 0.35728,1.24528c0.37076,-0.49041 0.86451,-0.80764 1.24875,-0.67104c0.13194,0.04691 0.63038,1.02453 0.87906,1.93802c0.04621,-0.28672 0.1026,-0.57051 0.16501,-0.85037c0.15671,-0.70273 0.38199,-1.37174 0.57299,-2.05761l0.09806,-0.09643l-0.03132,-0.03658l0.50293,-0.8458c0.13007,-0.22191 0.32738,-0.36345 0.54828,-0.36345c0.36812,0 0.67073,0.39307 0.7058,0.89606l0.03617,0.45618c0.18577,-0.09969 0.42181,-0.19631 0.71703,-0.28793c0.55279,-0.17157 1.09711,0.36803 1.57627,0.88155c-0.01617,-0.529 -0.0191,-1.10312 0.27562,-1.30954c0.37843,-0.26504 0.81435,-0.02412 1.24582,0.17776c-0.02884,-1.88825 0.18394,-3.37895 0.65344,-5.13701l-0.04515,0.06511c0,0 0,-0.9939 0.70919,-0.9939z" fill="url(#color-10)"/><path d="M246.21888,182.77817c0.70918,0 0.70918,0.99391 0.70918,0.99391l-0.04515,0.63286c-0.26537,0.98968 -0.52666,1.90794 -0.56388,2.97736c-0.00426,0.12229 0.0217,2.83853 -0.04099,2.97342c-0.0444,0.09552 -0.09432,0.18397 -0.1486,0.26689l0.02658,0.03104l-0.50293,0.8458c-0.13007,0.22191 -0.32738,0.36345 -0.54828,0.36345c-0.16932,0 -0.32479,-0.08316 -0.44673,-0.22194c-0.22174,0.66108 -0.62958,1.28947 -0.72304,1.3359c-0.32352,0.16073 -0.98541,-0.75136 -1.36196,-1.47442v0.92788c0,0.54891 -0.31752,0.99389 -0.70919,0.99389c-0.3612,0 -0.65932,-0.37842 -0.70353,-0.8678l-0.07405,-0.72638c-0.22686,-0.25612 -0.56105,-0.32989 -0.83147,-0.49848c-0.14719,0.91711 -0.23108,1.86853 -0.58366,2.65326c-0.31824,0.7083 -0.72024,1.79059 -1.31446,1.70642c-0.60751,-0.08606 -0.78965,-1.31505 -1.10366,-2.04896c-0.03839,-0.08971 -0.07819,-0.20385 -0.11318,-0.32818c-0.07082,0.22338 -0.1615,0.42792 -0.29039,0.58495c-0.03672,0.04474 -0.07471,0.08678 -0.11381,0.12648l0.01188,0.01997l-0.6041,0.70552c-0.1235,0.14632 -0.2832,0.23454 -0.45759,0.23454c-0.39167,0 -0.70919,-0.44498 -0.70919,-0.99389v-1.27745c0.00279,-0.53193 0.27632,-1.25258 -0.01372,-1.59572c-0.47326,-0.55991 -1.46012,-0.15874 -1.73341,-0.93766c-0.18805,-0.536 0.19624,-1.16595 0.23932,-1.76019c0.10625,-1.4655 -0.03406,-2.72368 0.11679,-4.06954c0.17838,-0.24503 0.33434,-0.52203 0.46315,-0.82435c0.09519,-0.13129 0.18395,-0.27169 0.26557,-0.42022c0.19078,-0.00809 0.34366,-0.22738 0.34366,-0.49672c0,-0.02847 -0.0017,-0.05639 -0.00499,-0.08356c0.02168,0.00902 0.04384,0.01942 0.06648,0.03132c0.66404,0.34898 0.41502,1.2796 0.41502,1.2796c-0.46607,1.66345 0.01641,3.24108 -0.27007,4.93814c-0.03976,0.23558 -0.30446,0.28591 -0.36835,0.51083c-0.04006,0.14106 0.17962,-0.25204 0.28525,-0.21828c0.42911,0.13712 0.92025,0.25133 1.22227,0.70001c0.21144,0.31411 0.31121,0.76524 0.35728,1.24528c0.37076,-0.49041 0.86451,-0.80764 1.24875,-0.67104c0.13194,0.04691 0.63038,1.02453 0.87906,1.93802c0.04621,-0.28672 0.1026,-0.5705 0.16501,-0.85036c0.15671,-0.70273 0.38199,-1.37173 0.57299,-2.05761l0.09806,-0.09643l-0.03132,-0.03658l0.50293,-0.8458c0.13007,-0.22191 0.32738,-0.36345 0.54828,-0.36345c0.36812,0 0.67073,0.39307 0.7058,0.89606l0.03617,0.45618c0.18577,-0.09969 0.42181,-0.19631 0.71703,-0.28794c0.55279,-0.17157 1.09711,0.36803 1.57627,0.88155c-0.01617,-0.529 -0.0191,-1.10313 0.27562,-1.30954c0.37843,-0.26504 0.81435,-0.02411 1.24582,0.17776c-0.02884,-1.88825 0.18394,-3.37895 0.65344,-5.13701l-0.04515,0.06511c0,0 0,-0.9939 0.70919,-0.9939z" fill="url(#color-11)"/><path d="M246.21888,181.66768c0.70918,0 0.70918,0.9939 0.70918,0.9939l-0.04515,0.63286c-0.26537,0.98968 -0.52666,1.90794 -0.56388,2.97736c-0.00426,0.12229 0.0217,2.83853 -0.04099,2.97342c-0.0444,0.09552 -0.09432,0.18397 -0.1486,0.26689l0.02658,0.03104l-0.50293,0.8458c-0.13007,0.22191 -0.32738,0.36345 -0.54828,0.36345c-0.16932,0 -0.32479,-0.08317 -0.44673,-0.22194c-0.22174,0.66108 -0.62958,1.28947 -0.72304,1.3359c-0.32352,0.16073 -0.98541,-0.75136 -1.36196,-1.47442v0.92788c0,0.54891 -0.31752,0.9939 -0.70919,0.9939c-0.3612,0 -0.65932,-0.37842 -0.70353,-0.86781l-0.07405,-0.72638c-0.22686,-0.25612 -0.56105,-0.32988 -0.83147,-0.49847c-0.14719,0.91711 -0.23108,1.86853 -0.58366,2.65326c-0.31824,0.7083 -0.72024,1.79059 -1.31446,1.70642c-0.60751,-0.08606 -0.78965,-1.31504 -1.10366,-2.04895c-0.03839,-0.08971 -0.07819,-0.20386 -0.11318,-0.32818c-0.07082,0.22338 -0.1615,0.42792 -0.29039,0.58495c-0.03672,0.04474 -0.07471,0.08677 -0.11381,0.12647l0.01188,0.01997l-0.6041,0.70552c-0.1235,0.14632 -0.2832,0.23454 -0.45759,0.23454c-0.39167,0 -0.70919,-0.44499 -0.70919,-0.9939v-1.27745c0.00279,-0.53193 0.27632,-1.25258 -0.01372,-1.59571c-0.47326,-0.55991 -1.46012,-0.15873 -1.73341,-0.93766c-0.18805,-0.536 0.19624,-1.16596 0.23932,-1.76019c0.10625,-1.4655 -0.03406,-2.72368 0.11679,-4.06954c0.17838,-0.24503 0.33434,-0.52202 0.46315,-0.82435c0.09519,-0.13129 0.18395,-0.2717 0.26557,-0.42022c0.19078,-0.00809 0.34366,-0.22738 0.34366,-0.49671c0,-0.02847 -0.0017,-0.0564 -0.00499,-0.08356c0.02168,0.00902 0.04384,0.01942 0.06648,0.03132c0.66404,0.34898 0.41502,1.2796 0.41502,1.2796c-0.46607,1.66345 0.01641,3.24109 -0.27007,4.93814c-0.03976,0.23558 -0.30446,0.2859 -0.36835,0.51083c-0.04006,0.14106 0.17962,-0.25204 0.28525,-0.21829c0.42911,0.13712 0.92025,0.25133 1.22227,0.70002c0.21144,0.31411 0.31121,0.76524 0.35728,1.24528c0.37076,-0.49041 0.86451,-0.80764 1.24875,-0.67104c0.13194,0.04691 0.63038,1.02453 0.87906,1.93802c0.04621,-0.28672 0.1026,-0.57051 0.16501,-0.85036c0.15671,-0.70273 0.38199,-1.37174 0.57299,-2.05761l0.09806,-0.09643l-0.03132,-0.03658l0.50293,-0.8458c0.13007,-0.22191 0.32738,-0.36345 0.54828,-0.36345c0.36812,0 0.67073,0.39307 0.7058,0.89606l0.03617,0.45617c0.18577,-0.09969 0.42181,-0.19631 0.71703,-0.28794c0.55279,-0.17157 1.09711,0.36803 1.57627,0.88155c-0.01617,-0.529 -0.0191,-1.10312 0.27562,-1.30954c0.37843,-0.26504 0.81435,-0.02411 1.24582,0.17776c-0.02884,-1.88825 0.18394,-3.37895 0.65344,-5.13701l-0.04515,0.06511c0,0 0,-0.99391 0.70919,-0.99391z" fill="url(#color-12)"/><path d="M246.21888,180.55718c0.70918,0 0.70918,0.9939 0.70918,0.9939l-0.04515,0.63286c-0.26537,0.98968 -0.52666,1.90794 -0.56388,2.97736c-0.00426,0.12229 0.0217,2.83852 -0.04099,2.97342c-0.0444,0.09552 -0.09432,0.18397 -0.1486,0.26689l0.02658,0.03105l-0.50293,0.8458c-0.13007,0.22191 -0.32738,0.36345 -0.54828,0.36345c-0.16932,0 -0.32479,-0.08317 -0.44673,-0.22194c-0.22174,0.66108 -0.62958,1.28947 -0.72304,1.3359c-0.32352,0.16073 -0.98541,-0.75137 -1.36196,-1.47442v0.92788c0,0.54891 -0.31752,0.9939 -0.70919,0.9939c-0.3612,0 -0.65932,-0.37842 -0.70353,-0.86781l-0.07405,-0.72638c-0.22686,-0.25612 -0.56105,-0.32988 -0.83147,-0.49847c-0.14719,0.91711 -0.23108,1.86853 -0.58366,2.65326c-0.31824,0.7083 -0.72024,1.79059 -1.31446,1.70641c-0.60751,-0.08606 -0.78965,-1.31505 -1.10366,-2.04896c-0.03839,-0.08971 -0.07819,-0.20385 -0.11318,-0.32818c-0.07082,0.22338 -0.1615,0.42792 -0.29039,0.58495c-0.03672,0.04474 -0.07471,0.08677 -0.11381,0.12647l0.01188,0.01997l-0.6041,0.70551c-0.1235,0.14632 -0.2832,0.23455 -0.45759,0.23455c-0.39167,0 -0.70919,-0.44499 -0.70919,-0.99391v-1.27745c0.00279,-0.53193 0.27632,-1.25257 -0.01372,-1.59571c-0.47326,-0.55991 -1.46012,-0.15873 -1.73341,-0.93765c-0.18805,-0.536 0.19624,-1.16596 0.23932,-1.76019c0.10625,-1.4655 -0.03406,-2.72368 0.11679,-4.06954c0.17838,-0.24503 0.33434,-0.52203 0.46315,-0.82435c0.09519,-0.13129 0.18395,-0.27169 0.26557,-0.42022c0.19078,-0.00809 0.34366,-0.22738 0.34366,-0.49672c0,-0.02847 -0.0017,-0.05639 -0.00499,-0.08355c0.02168,0.00902 0.04384,0.01942 0.06648,0.03132c0.66404,0.34898 0.41502,1.2796 0.41502,1.2796c-0.46607,1.66345 0.01641,3.24109 -0.27007,4.93814c-0.03976,0.23558 -0.30446,0.28591 -0.36835,0.51083c-0.04006,0.14106 0.17962,-0.25204 0.28525,-0.21828c0.42911,0.13712 0.92025,0.25132 1.22227,0.70001c0.21144,0.31411 0.31121,0.76524 0.35728,1.24528c0.37076,-0.49041 0.86451,-0.80765 1.24875,-0.67105c0.13194,0.04691 0.63038,1.02454 0.87906,1.93802c0.04621,-0.28672 0.1026,-0.57051 0.16501,-0.85037c0.15671,-0.70273 0.38199,-1.37174 0.57299,-2.05761l0.09806,-0.09643l-0.03132,-0.03658l0.50293,-0.8458c0.13007,-0.22191 0.32738,-0.36345 0.54828,-0.36345c0.36812,0 0.67073,0.39307 0.7058,0.89606l0.03617,0.45618c0.18577,-0.09969 0.42181,-0.19631 0.71703,-0.28793c0.55279,-0.17157 1.09711,0.36803 1.57627,0.88155c-0.01617,-0.529 -0.0191,-1.10312 0.27562,-1.30954c0.37843,-0.26504 0.81435,-0.02412 1.24582,0.17776c-0.02884,-1.88825 0.18394,-3.37895 0.65344,-5.13701l-0.04515,0.06511c0,0 0,-0.9939 0.70919,-0.9939z" fill="url(#color-13)"/><path d="M246.21888,179.44669c0.70918,0 0.70918,0.9939 0.70918,0.9939l-0.04515,0.63286c-0.26537,0.98968 -0.52666,1.90794 -0.56388,2.97736c-0.00426,0.12229 0.0217,2.83853 -0.04099,2.97342c-0.0444,0.09552 -0.09432,0.18397 -0.1486,0.26689l0.02658,0.03104l-0.50293,0.8458c-0.13007,0.22191 -0.32738,0.36345 -0.54828,0.36345c-0.16932,0 -0.32479,-0.08316 -0.44673,-0.22194c-0.22174,0.66108 -0.62958,1.28947 -0.72304,1.3359c-0.32352,0.16073 -0.98541,-0.75137 -1.36196,-1.47442v0.92788c0,0.54891 -0.31752,0.99389 -0.70919,0.99389c-0.3612,0 -0.65932,-0.37842 -0.70353,-0.8678l-0.07405,-0.72639c-0.22686,-0.25612 -0.56105,-0.32988 -0.83147,-0.49847c-0.14719,0.91711 -0.23108,1.86853 -0.58366,2.65326c-0.31824,0.7083 -0.72024,1.79059 -1.31446,1.70642c-0.60751,-0.08606 -0.78965,-1.31505 -1.10366,-2.04896c-0.03839,-0.08971 -0.07819,-0.20385 -0.11318,-0.32818c-0.07082,0.22338 -0.1615,0.42792 -0.29039,0.58495c-0.03672,0.04474 -0.07471,0.08677 -0.11381,0.12647l0.01188,0.01997l-0.6041,0.70552c-0.1235,0.14632 -0.2832,0.23454 -0.45759,0.23454c-0.39167,0 -0.70919,-0.44499 -0.70919,-0.9939v-1.27744c0.00279,-0.53193 0.27632,-1.25258 -0.01372,-1.59572c-0.47326,-0.55991 -1.46012,-0.15873 -1.73341,-0.93766c-0.18805,-0.536 0.19624,-1.16595 0.23932,-1.76019c0.10625,-1.4655 -0.03406,-2.72369 0.11679,-4.06955c0.17838,-0.24503 0.33434,-0.52202 0.46315,-0.82434c0.09519,-0.13129 0.18395,-0.2717 0.26557,-0.42022c0.19078,-0.00809 0.34366,-0.22738 0.34366,-0.49672c0,-0.02847 -0.0017,-0.05639 -0.00499,-0.08355c0.02168,0.00902 0.04384,0.01942 0.06648,0.03132c0.66404,0.34898 0.41502,1.2796 0.41502,1.2796c-0.46607,1.66345 0.01641,3.24108 -0.27007,4.93814c-0.03976,0.23558 -0.30446,0.28591 -0.36835,0.51083c-0.04006,0.14106 0.17962,-0.25204 0.28525,-0.21828c0.42911,0.13712 0.92025,0.25133 1.22227,0.70001c0.21144,0.31411 0.31121,0.76524 0.35728,1.24528c0.37076,-0.49041 0.86451,-0.80764 1.24875,-0.67104c0.13194,0.04691 0.63038,1.02453 0.87906,1.93802c0.04621,-0.28672 0.1026,-0.5705 0.16501,-0.85036c0.15671,-0.70273 0.38199,-1.37174 0.57299,-2.05761l0.09806,-0.09642l-0.03132,-0.03658l0.50293,-0.8458c0.13007,-0.22191 0.32738,-0.36345 0.54828,-0.36345c0.36812,0 0.67073,0.39307 0.7058,0.89606l0.03617,0.45617c0.18577,-0.09969 0.42181,-0.1963 0.71703,-0.28793c0.55279,-0.17157 1.09711,0.36803 1.57627,0.88155c-0.01617,-0.529 -0.0191,-1.10313 0.27562,-1.30954c0.37843,-0.26504 0.81435,-0.02411 1.24582,0.17776c-0.02884,-1.88825 0.18394,-3.37895 0.65344,-5.13701l-0.04515,0.06511c0,0 0,-0.9939 0.70919,-0.9939z" fill="url(#color-14)"/></g><g stroke-width="0.5"><path d="M230.53764,178.62776c-0.30435,-0.22403 -0.85033,-0.76997 -0.14211,-1.44376c0.34737,-0.33049 0.73786,-0.44568 1.09121,-0.46006c0.02642,-0.21265 0.12393,-0.43467 0.23483,-0.61962c-0.43207,0.05705 -1.36554,0.07754 -1.76096,-0.71247c-0.52308,-1.04505 0.94154,-1.41829 0.94154,-1.41829c0.91177,-0.10818 1.93946,-0.65992 2.73531,-0.32452c2.31093,0.97393 1.00346,2.10505 0.94989,3.25735c-0.01388,0.29865 0.39733,2.15522 0.4272,2.47684c0.11329,1.21977 0.0034,2.48 0.00275,3.70248l-0.0196,0.03183l0.01758,0.00074l-0.10661,1.29315c-0.04192,0.58615 -0.72126,1.05221 -1.55316,1.05221c-0.69959,0 -1.2913,-0.32961 -1.48675,-0.78306l-0.63209,-1.35307l0.0419,-0.00996c-0.03231,-0.04322 -0.06356,-0.08691 -0.09364,-0.1311c-0.28827,-0.42342 -0.06835,-0.94046 -0.12879,-1.40921c-0.1403,-1.08818 -0.4325,-2.08043 -0.5185,-3.14947z" fill="#ff4200"/><path d="M233.54968,186.16582c0,0.70918 -0.9939,0.70918 -0.9939,0.70918l-0.63286,-0.04515c-0.98968,-0.26537 -1.90794,-0.52666 -2.97736,-0.56388c-0.12229,-0.00426 -2.83853,0.0217 -2.97342,-0.04099c-0.09552,-0.0444 -0.18397,-0.09432 -0.26689,-0.1486l-0.03104,0.02658l-0.8458,-0.50293c-0.22191,-0.13007 -0.36345,-0.32738 -0.36345,-0.54828c0,-0.16932 0.08317,-0.32479 0.22194,-0.44673c-0.66108,-0.22174 -1.28947,-0.62958 -1.3359,-0.72304c-0.16073,-0.32352 0.75137,-0.98541 1.47442,-1.36196h-0.92788c-0.54891,0 -0.9939,-0.31752 -0.9939,-0.70919c0,-0.3612 0.37843,-0.65932 0.86781,-0.70353l0.72638,-0.07405c0.25612,-0.22686 0.32988,-0.56105 0.49847,-0.83146c-0.91711,-0.14719 -1.86852,-0.23108 -2.65325,-0.58367c-0.7083,-0.31824 -1.79059,-0.72024 -1.70642,-1.31446c0.08606,-0.60751 1.31505,-0.78965 2.04896,-1.10366c0.08971,-0.03839 0.20385,-0.07819 0.32818,-0.11318c-0.22338,-0.07082 -0.42792,-0.1615 -0.58495,-0.29039c-0.04474,-0.03672 -0.08677,-0.07471 -0.12647,-0.11381l-0.01997,0.01188l-0.70552,-0.6041c-0.14632,-0.1235 -0.23454,-0.2832 -0.23454,-0.45758c0,-0.39167 0.44498,-0.70919 0.9939,-0.70919h1.27744c0.53193,0.00279 1.25258,0.27632 1.59571,-0.01372c0.55991,-0.47326 0.15873,-1.46012 0.93766,-1.73341c0.536,-0.18805 1.16596,0.19624 1.76019,0.23932c1.4655,0.10625 2.72368,-0.03406 4.06954,0.11679c0.24503,0.17838 0.52202,0.33435 0.82434,0.46316c0.13129,0.09519 0.2717,0.18395 0.42022,0.26557c0.00809,0.19078 0.22738,0.34366 0.49671,0.34366c0.02847,0 0.05639,-0.00171 0.08356,-0.00499c-0.00902,0.02168 -0.01942,0.04384 -0.03132,0.06648c-0.34898,0.66404 -1.27961,0.41503 -1.27961,0.41503c-1.66345,-0.46607 -3.24109,0.01641 -4.93814,-0.27007c-0.23558,-0.03976 -0.28591,-0.30446 -0.51083,-0.36835c-0.14106,-0.04006 0.25204,0.17962 0.21828,0.28525c-0.13712,0.42911 -0.25132,0.92025 -0.70001,1.22227c-0.31411,0.21144 -0.76524,0.31122 -1.24528,0.35728c0.49041,0.37076 0.80765,0.86451 0.67104,1.24875c-0.04691,0.13194 -1.02453,0.63038 -1.93802,0.87905c0.28672,0.04621 0.57051,0.1026 0.85037,0.16501c0.70273,0.15671 1.37173,0.38199 2.05761,0.57299l0.09643,0.09806l0.03658,-0.03132l0.8458,0.50293c0.22191,0.13007 0.36345,0.32738 0.36345,0.54828c0,0.36812 -0.39307,0.67073 -0.89606,0.7058l-0.45618,0.03616c0.09969,0.18577 0.19631,0.42181 0.28793,0.71703c0.17157,0.55279 -0.36803,1.09711 -0.88155,1.57627c0.529,-0.01617 1.10312,-0.0191 1.30954,0.27562c0.26504,0.37843 0.02412,0.81435 -0.17776,1.24582c1.88825,-0.02884 3.37895,0.18394 5.13701,0.65344l-0.06511,-0.04516c0,0 0.9939,0 0.9939,0.70919z" fill="url(#color-15)"/><path d="M234.66018,186.16582c0,0.70918 -0.99391,0.70918 -0.99391,0.70918l-0.63286,-0.04515c-0.98968,-0.26537 -1.90794,-0.52666 -2.97736,-0.56388c-0.12229,-0.00426 -2.83853,0.0217 -2.97342,-0.04099c-0.09552,-0.0444 -0.18397,-0.09432 -0.26689,-0.1486l-0.03104,0.02658l-0.8458,-0.50293c-0.22191,-0.13007 -0.36345,-0.32738 -0.36345,-0.54828c0,-0.16932 0.08317,-0.32479 0.22194,-0.44673c-0.66108,-0.22174 -1.28947,-0.62958 -1.3359,-0.72304c-0.16073,-0.32352 0.75136,-0.98541 1.47442,-1.36196h-0.92788c-0.54891,0 -0.99389,-0.31752 -0.99389,-0.70919c0,-0.3612 0.37842,-0.65932 0.8678,-0.70353l0.72638,-0.07405c0.25612,-0.22686 0.32989,-0.56105 0.49848,-0.83146c-0.91711,-0.14719 -1.86853,-0.23108 -2.65326,-0.58367c-0.7083,-0.31824 -1.79059,-0.72024 -1.70642,-1.31446c0.08606,-0.60751 1.31505,-0.78965 2.04896,-1.10366c0.08971,-0.03839 0.20385,-0.07819 0.32818,-0.11318c-0.22338,-0.07082 -0.42792,-0.1615 -0.58495,-0.29039c-0.04474,-0.03672 -0.08678,-0.07471 -0.12648,-0.11381l-0.01997,0.01188l-0.70552,-0.6041c-0.14632,-0.1235 -0.23454,-0.2832 -0.23454,-0.45758c0,-0.39167 0.44498,-0.70919 0.99389,-0.70919h1.27745c0.53193,0.00279 1.25258,0.27632 1.59572,-0.01372c0.55991,-0.47326 0.15874,-1.46012 0.93766,-1.73341c0.536,-0.18805 1.16595,0.19624 1.76019,0.23932c1.4655,0.10625 2.72368,-0.03406 4.06954,0.11679c0.24503,0.17838 0.52203,0.33435 0.82435,0.46316c0.13129,0.09519 0.27169,0.18395 0.42022,0.26557c0.00809,0.19078 0.22738,0.34366 0.49672,0.34366c0.02847,0 0.05639,-0.00171 0.08355,-0.00499c-0.00902,0.02168 -0.01942,0.04384 -0.03132,0.06648c-0.34898,0.66404 -1.2796,0.41503 -1.2796,0.41503c-1.66345,-0.46607 -3.24109,0.01641 -4.93814,-0.27007c-0.23558,-0.03976 -0.28592,-0.30446 -0.51084,-0.36835c-0.14106,-0.04006 0.25204,0.17962 0.21829,0.28525c-0.13712,0.42911 -0.25132,0.92025 -0.70001,1.22227c-0.31411,0.21144 -0.76524,0.31122 -1.24528,0.35728c0.49041,0.37076 0.80764,0.86451 0.67104,1.24875c-0.04691,0.13194 -1.02453,0.63038 -1.93802,0.87905c0.28672,0.04621 0.57051,0.1026 0.85036,0.16501c0.70273,0.15671 1.37174,0.38199 2.05761,0.57299l0.09643,0.09806l0.03658,-0.03132l0.8458,0.50293c0.22191,0.13007 0.36345,0.32738 0.36345,0.54828c0,0.36812 -0.39307,0.67073 -0.89606,0.7058l-0.45618,0.03616c0.09969,0.18577 0.19631,0.42181 0.28794,0.71703c0.17157,0.55279 -0.36804,1.09711 -0.88156,1.57627c0.529,-0.01617 1.10312,-0.0191 1.30954,0.27562c0.26504,0.37843 0.02412,0.81435 -0.17776,1.24582c1.88825,-0.02884 3.37894,0.18394 5.137,0.65344l-0.0651,-0.04516c0,0 0.9939,0 0.9939,0.70919z" fill="url(#color-16)"/><path d="M235.54857,186.16581c0,0.70918 -0.9939,0.70919 -0.9939,0.70919l-0.63286,-0.04515c-0.98968,-0.26537 -1.90794,-0.52666 -2.97736,-0.56388c-0.12229,-0.00426 -2.83852,0.0217 -2.97342,-0.04099c-0.09552,-0.0444 -0.18398,-0.09432 -0.26689,-0.1486l-0.03104,0.02658l-0.84581,-0.50293c-0.22191,-0.13007 -0.36345,-0.32738 -0.36345,-0.54828c0,-0.16932 0.08317,-0.32479 0.22194,-0.44674c-0.66108,-0.22174 -1.28947,-0.62957 -1.3359,-0.72303c-0.16073,-0.32352 0.75137,-0.98541 1.47442,-1.36196h-0.92788c-0.54891,0 -0.9939,-0.31752 -0.9939,-0.70919c0,-0.3612 0.37843,-0.65933 0.86781,-0.70354l0.72638,-0.07404c0.25612,-0.22686 0.32988,-0.56105 0.49847,-0.83147c-0.91711,-0.14719 -1.86853,-0.23108 -2.65326,-0.58366c-0.7083,-0.31824 -1.79059,-0.72024 -1.70641,-1.31446c0.08606,-0.60751 1.31505,-0.78965 2.04896,-1.10366c0.08971,-0.03839 0.20386,-0.07819 0.32818,-0.11318c-0.22338,-0.07082 -0.42792,-0.1615 -0.58495,-0.29039c-0.04474,-0.03672 -0.08677,-0.07471 -0.12647,-0.11381l-0.01997,0.01188l-0.70552,-0.6041c-0.14632,-0.1235 -0.23454,-0.2832 -0.23454,-0.45759c0,-0.39167 0.44499,-0.70919 0.99391,-0.70919h1.27744c0.53193,0.00279 1.25258,0.27631 1.59571,-0.01372c0.55991,-0.47326 0.15873,-1.46012 0.93765,-1.73341c0.536,-0.18805 1.16596,0.19624 1.76019,0.23932c1.4655,0.10625 2.72368,-0.03406 4.06954,0.11679c0.24503,0.17838 0.52202,0.33434 0.82434,0.46315c0.13129,0.09519 0.2717,0.18395 0.42023,0.26557c0.00809,0.19078 0.22738,0.34366 0.49671,0.34366c0.02847,0 0.05639,-0.0017 0.08355,-0.00499c-0.00902,0.02168 -0.01942,0.04384 -0.03132,0.06648c-0.34898,0.66404 -1.2796,0.41502 -1.2796,0.41502c-1.66345,-0.46607 -3.24109,0.01641 -4.93814,-0.27006c-0.23558,-0.03976 -0.28591,-0.30446 -0.51083,-0.36835c-0.14106,-0.04006 0.25204,0.17962 0.21828,0.28525c-0.13712,0.42911 -0.25132,0.92025 -0.70001,1.22226c-0.31411,0.21144 -0.76524,0.31122 -1.24528,0.35728c0.49041,0.37076 0.80764,0.86451 0.67104,1.24875c-0.04691,0.13194 -1.02453,0.63038 -1.93802,0.87905c0.28672,0.04621 0.57051,0.10261 0.85037,0.16502c0.70273,0.15671 1.37174,0.38199 2.05761,0.57299l0.09643,0.09806l0.03658,-0.03132l0.8458,0.50293c0.22191,0.13007 0.36345,0.32739 0.36345,0.54829c0,0.36812 -0.39307,0.67073 -0.89606,0.7058l-0.45618,0.03617c0.09969,0.18577 0.19631,0.42181 0.28793,0.71703c0.17157,0.55279 -0.36803,1.09711 -0.88155,1.57626c0.529,-0.01617 1.10312,-0.0191 1.30954,0.27563c0.26504,0.37843 0.02412,0.81435 -0.17776,1.24582c1.88825,-0.02884 3.37895,0.18394 5.13701,0.65344l-0.06511,-0.04515c0,0 0.9939,0 0.9939,0.70919z" fill="url(#color-17)"/><path d="M236.65906,186.16581c0,0.70918 -0.99391,0.70919 -0.99391,0.70919l-0.63286,-0.04515c-0.98968,-0.26537 -1.90794,-0.52666 -2.97736,-0.56388c-0.12229,-0.00426 -2.83853,0.0217 -2.97342,-0.04099c-0.09552,-0.0444 -0.18397,-0.09432 -0.26689,-0.1486l-0.03104,0.02658l-0.8458,-0.50293c-0.22191,-0.13007 -0.36345,-0.32738 -0.36345,-0.54828c0,-0.16932 0.08316,-0.32479 0.22194,-0.44674c-0.66108,-0.22174 -1.28947,-0.62957 -1.3359,-0.72303c-0.16073,-0.32352 0.75136,-0.98541 1.47442,-1.36196h-0.92788c-0.54891,0 -0.99389,-0.31752 -0.99389,-0.70919c0,-0.3612 0.37842,-0.65933 0.8678,-0.70354l0.72638,-0.07404c0.25612,-0.22686 0.32989,-0.56105 0.49848,-0.83147c-0.91711,-0.14719 -1.86853,-0.23108 -2.65326,-0.58366c-0.7083,-0.31824 -1.79059,-0.72024 -1.70642,-1.31446c0.08606,-0.60751 1.31505,-0.78965 2.04896,-1.10366c0.08971,-0.03839 0.20385,-0.07819 0.32818,-0.11318c-0.22338,-0.07082 -0.42792,-0.1615 -0.58495,-0.29039c-0.04474,-0.03672 -0.08678,-0.07471 -0.12648,-0.11381l-0.01997,0.01188l-0.70552,-0.6041c-0.14632,-0.1235 -0.23454,-0.2832 -0.23454,-0.45759c0,-0.39167 0.44498,-0.70919 0.99389,-0.70919h1.27745c0.53193,0.00279 1.25258,0.27631 1.59572,-0.01372c0.55991,-0.47326 0.15874,-1.46012 0.93766,-1.73341c0.536,-0.18805 1.16595,0.19624 1.76019,0.23932c1.4655,0.10625 2.72368,-0.03406 4.06954,0.11679c0.24503,0.17838 0.52203,0.33434 0.82435,0.46315c0.13129,0.09519 0.27169,0.18395 0.42022,0.26557c0.00809,0.19078 0.22738,0.34366 0.49672,0.34366c0.02847,0 0.05639,-0.0017 0.08356,-0.00499c-0.00902,0.02168 -0.01942,0.04384 -0.03132,0.06648c-0.34898,0.66404 -1.2796,0.41502 -1.2796,0.41502c-1.66345,-0.46607 -3.24108,0.01641 -4.93814,-0.27006c-0.23558,-0.03976 -0.28591,-0.30446 -0.51083,-0.36835c-0.14106,-0.04006 0.25204,0.17962 0.21828,0.28525c-0.13712,0.42911 -0.25133,0.92025 -0.70001,1.22226c-0.31411,0.21144 -0.76524,0.31122 -1.24528,0.35728c0.49041,0.37076 0.80764,0.86451 0.67104,1.24875c-0.04691,0.13194 -1.02453,0.63038 -1.93802,0.87905c0.28672,0.04621 0.5705,0.10261 0.85036,0.16502c0.70273,0.15671 1.37173,0.38199 2.05761,0.57299l0.09643,0.09806l0.03658,-0.03132l0.8458,0.50293c0.22191,0.13007 0.36345,0.32739 0.36345,0.54829c0,0.36812 -0.39307,0.67073 -0.89606,0.7058l-0.45618,0.03617c0.09969,0.18577 0.19631,0.42181 0.28794,0.71703c0.17157,0.55279 -0.36803,1.09711 -0.88155,1.57626c0.529,-0.01617 1.10313,-0.0191 1.30954,0.27563c0.26504,0.37843 0.02411,0.81435 -0.17776,1.24582c1.88825,-0.02884 3.37895,0.18394 5.13701,0.65344l-0.06511,-0.04515c0,0 0.9939,0 0.9939,0.70919z" fill="url(#color-18)"/><path d="M237.76956,186.16581c0,0.70918 -0.9939,0.70919 -0.9939,0.70919l-0.63286,-0.04515c-0.98968,-0.26537 -1.90794,-0.52666 -2.97736,-0.56388c-0.12229,-0.00426 -2.83853,0.0217 -2.97342,-0.04099c-0.09552,-0.0444 -0.18397,-0.09432 -0.26689,-0.1486l-0.03104,0.02658l-0.8458,-0.50293c-0.22191,-0.13007 -0.36345,-0.32738 -0.36345,-0.54828c0,-0.16932 0.08317,-0.32479 0.22194,-0.44674c-0.66108,-0.22174 -1.28947,-0.62957 -1.3359,-0.72303c-0.16073,-0.32352 0.75136,-0.98541 1.47442,-1.36196h-0.92788c-0.54891,0 -0.9939,-0.31752 -0.9939,-0.70919c0,-0.3612 0.37842,-0.65933 0.86781,-0.70354l0.72638,-0.07404c0.25612,-0.22686 0.32988,-0.56105 0.49847,-0.83147c-0.91711,-0.14719 -1.86853,-0.23108 -2.65326,-0.58366c-0.7083,-0.31824 -1.79059,-0.72024 -1.70642,-1.31446c0.08606,-0.60751 1.31504,-0.78965 2.04895,-1.10366c0.08971,-0.03839 0.20386,-0.07819 0.32818,-0.11318c-0.22338,-0.07082 -0.42792,-0.1615 -0.58495,-0.29039c-0.04474,-0.03672 -0.08677,-0.07471 -0.12647,-0.11381l-0.01997,0.01188l-0.70552,-0.6041c-0.14632,-0.1235 -0.23454,-0.2832 -0.23454,-0.45759c0,-0.39167 0.44499,-0.70919 0.9939,-0.70919h1.27745c0.53193,0.00279 1.25258,0.27631 1.59571,-0.01372c0.55991,-0.47326 0.15873,-1.46012 0.93766,-1.73341c0.536,-0.18805 1.16596,0.19624 1.76019,0.23932c1.4655,0.10625 2.72368,-0.03406 4.06954,0.11679c0.24503,0.17838 0.52202,0.33434 0.82435,0.46315c0.13129,0.09519 0.2717,0.18395 0.42022,0.26557c0.00809,0.19078 0.22738,0.34366 0.49671,0.34366c0.02847,0 0.0564,-0.0017 0.08356,-0.00499c-0.00902,0.02168 -0.01942,0.04384 -0.03132,0.06648c-0.34898,0.66404 -1.2796,0.41502 -1.2796,0.41502c-1.66345,-0.46607 -3.24109,0.01641 -4.93814,-0.27006c-0.23558,-0.03976 -0.28591,-0.30446 -0.51083,-0.36835c-0.14106,-0.04006 0.25204,0.17962 0.21829,0.28525c-0.13712,0.42911 -0.25133,0.92025 -0.70002,1.22226c-0.31411,0.21144 -0.76524,0.31122 -1.24528,0.35728c0.49041,0.37076 0.80764,0.86451 0.67104,1.24875c-0.04691,0.13194 -1.02453,0.63038 -1.93802,0.87905c0.28672,0.04621 0.57051,0.10261 0.85036,0.16502c0.70273,0.15671 1.37174,0.38199 2.05761,0.57299l0.09643,0.09806l0.03658,-0.03132l0.8458,0.50293c0.22191,0.13007 0.36345,0.32739 0.36345,0.54829c0,0.36812 -0.39307,0.67073 -0.89606,0.7058l-0.45617,0.03617c0.09969,0.18577 0.19631,0.42181 0.28794,0.71703c0.17157,0.55279 -0.36803,1.09711 -0.88155,1.57626c0.529,-0.01617 1.10312,-0.0191 1.30954,0.27563c0.26504,0.37843 0.02411,0.81435 -0.17776,1.24582c1.88825,-0.02884 3.37895,0.18394 5.13701,0.65344l-0.06511,-0.04515c0,0 0.99391,0 0.99391,0.70919z" fill="url(#color-19)"/><path d="M238.88005,186.16581c0,0.70918 -0.9939,0.70919 -0.9939,0.70919l-0.63286,-0.04515c-0.98968,-0.26537 -1.90794,-0.52666 -2.97736,-0.56388c-0.12229,-0.00426 -2.83852,0.0217 -2.97342,-0.04099c-0.09552,-0.0444 -0.18397,-0.09432 -0.26689,-0.1486l-0.03105,0.02658l-0.8458,-0.50293c-0.22191,-0.13007 -0.36345,-0.32738 -0.36345,-0.54828c0,-0.16932 0.08317,-0.32479 0.22194,-0.44674c-0.66108,-0.22174 -1.28947,-0.62957 -1.3359,-0.72303c-0.16073,-0.32352 0.75137,-0.98541 1.47442,-1.36196h-0.92788c-0.54891,0 -0.9939,-0.31752 -0.9939,-0.70919c0,-0.3612 0.37842,-0.65933 0.86781,-0.70354l0.72638,-0.07404c0.25612,-0.22686 0.32988,-0.56105 0.49847,-0.83147c-0.91711,-0.14719 -1.86853,-0.23108 -2.65326,-0.58366c-0.7083,-0.31824 -1.79059,-0.72024 -1.70641,-1.31446c0.08606,-0.60751 1.31505,-0.78965 2.04896,-1.10366c0.08971,-0.03839 0.20385,-0.07819 0.32818,-0.11318c-0.22338,-0.07082 -0.42792,-0.1615 -0.58495,-0.29039c-0.04474,-0.03672 -0.08677,-0.07471 -0.12647,-0.11381l-0.01997,0.01188l-0.70551,-0.6041c-0.14632,-0.1235 -0.23454,-0.2832 -0.23454,-0.45759c0,-0.39167 0.44498,-0.70919 0.9939,-0.70919h1.27745c0.53193,0.00279 1.25257,0.27631 1.59571,-0.01372c0.55991,-0.47326 0.15873,-1.46012 0.93766,-1.73341c0.536,-0.18805 1.16596,0.19624 1.76019,0.23932c1.4655,0.10625 2.72368,-0.03406 4.06954,0.11679c0.24503,0.17838 0.52203,0.33434 0.82435,0.46315c0.13129,0.09519 0.27169,0.18395 0.42022,0.26557c0.00809,0.19078 0.22738,0.34366 0.49672,0.34366c0.02847,0 0.05639,-0.0017 0.08355,-0.00499c-0.00902,0.02168 -0.01942,0.04384 -0.03132,0.06648c-0.34898,0.66404 -1.2796,0.41502 -1.2796,0.41502c-1.66345,-0.46607 -3.24109,0.01641 -4.93814,-0.27006c-0.23558,-0.03976 -0.28591,-0.30446 -0.51083,-0.36835c-0.14106,-0.04006 0.25204,0.17962 0.21828,0.28525c-0.13712,0.42911 -0.25132,0.92025 -0.70001,1.22226c-0.31411,0.21144 -0.76524,0.31122 -1.24528,0.35728c0.49041,0.37076 0.80765,0.86451 0.67105,1.24875c-0.04691,0.13194 -1.02454,0.63038 -1.93802,0.87905c0.28672,0.04621 0.57051,0.10261 0.85037,0.16502c0.70273,0.15671 1.37174,0.38199 2.05761,0.57299l0.09643,0.09806l0.03658,-0.03132l0.8458,0.50293c0.22191,0.13007 0.36345,0.32739 0.36345,0.54829c0,0.36812 -0.39307,0.67073 -0.89606,0.7058l-0.45618,0.03617c0.09969,0.18577 0.19631,0.42181 0.28793,0.71703c0.17157,0.55279 -0.36803,1.09711 -0.88155,1.57626c0.529,-0.01617 1.10312,-0.0191 1.30954,0.27563c0.26504,0.37843 0.02412,0.81435 -0.17776,1.24582c1.88825,-0.02884 3.37895,0.18394 5.13701,0.65344l-0.06511,-0.04515c0,0 0.9939,0 0.9939,0.70919z" fill="url(#color-20)"/><path d="M239.99055,186.16581c0,0.70918 -0.9939,0.70919 -0.9939,0.70919l-0.63286,-0.04515c-0.98968,-0.26537 -1.90794,-0.52666 -2.97736,-0.56388c-0.12229,-0.00426 -2.83853,0.0217 -2.97342,-0.04099c-0.09552,-0.0444 -0.18397,-0.09432 -0.26689,-0.1486l-0.03104,0.02658l-0.8458,-0.50293c-0.22191,-0.13007 -0.36345,-0.32738 -0.36345,-0.54828c0,-0.16932 0.08316,-0.32479 0.22194,-0.44674c-0.66108,-0.22174 -1.28947,-0.62957 -1.3359,-0.72303c-0.16073,-0.32352 0.75137,-0.98541 1.47442,-1.36196h-0.92788c-0.54891,0 -0.99389,-0.31752 -0.99389,-0.70919c0,-0.3612 0.37842,-0.65933 0.8678,-0.70354l0.72639,-0.07404c0.25612,-0.22686 0.32988,-0.56105 0.49847,-0.83147c-0.91711,-0.14719 -1.86853,-0.23108 -2.65326,-0.58366c-0.7083,-0.31824 -1.79059,-0.72024 -1.70642,-1.31446c0.08606,-0.60751 1.31505,-0.78965 2.04896,-1.10366c0.08971,-0.03839 0.20385,-0.07819 0.32818,-0.11318c-0.22338,-0.07082 -0.42792,-0.1615 -0.58495,-0.29039c-0.04474,-0.03672 -0.08677,-0.07471 -0.12647,-0.11381l-0.01997,0.01188l-0.70552,-0.6041c-0.14632,-0.1235 -0.23454,-0.2832 -0.23454,-0.45759c0,-0.39167 0.44499,-0.70919 0.9939,-0.70919h1.27744c0.53193,0.00279 1.25258,0.27631 1.59572,-0.01372c0.55991,-0.47326 0.15873,-1.46012 0.93766,-1.73341c0.536,-0.18805 1.16595,0.19624 1.76019,0.23932c1.4655,0.10625 2.72369,-0.03406 4.06955,0.11679c0.24503,0.17838 0.52202,0.33434 0.82434,0.46315c0.13129,0.09519 0.2717,0.18395 0.42022,0.26557c0.00809,0.19078 0.22738,0.34366 0.49672,0.34366c0.02847,0 0.05639,-0.0017 0.08355,-0.00499c-0.00902,0.02168 -0.01942,0.04384 -0.03132,0.06648c-0.34898,0.66404 -1.2796,0.41502 -1.2796,0.41502c-1.66345,-0.46607 -3.24108,0.01641 -4.93814,-0.27006c-0.23558,-0.03976 -0.28591,-0.30446 -0.51083,-0.36835c-0.14106,-0.04006 0.25204,0.17962 0.21828,0.28525c-0.13712,0.42911 -0.25133,0.92025 -0.70001,1.22226c-0.31411,0.21144 -0.76524,0.31122 -1.24528,0.35728c0.49041,0.37076 0.80764,0.86451 0.67104,1.24875c-0.04691,0.13194 -1.02453,0.63038 -1.93802,0.87905c0.28672,0.04621 0.5705,0.10261 0.85036,0.16502c0.70273,0.15671 1.37174,0.38199 2.05761,0.57299l0.09643,0.09806l0.03658,-0.03132l0.8458,0.50293c0.22191,0.13007 0.36345,0.32739 0.36345,0.54829c0,0.36812 -0.39307,0.67073 -0.89606,0.7058l-0.45617,0.03617c0.09969,0.18577 0.1963,0.42181 0.28793,0.71703c0.17157,0.55279 -0.36803,1.09711 -0.88155,1.57626c0.529,-0.01617 1.10313,-0.0191 1.30954,0.27563c0.26504,0.37843 0.02411,0.81435 -0.17776,1.24582c1.88825,-0.02884 3.37895,0.18394 5.13701,0.65344l-0.06511,-0.04515c0,0 0.9939,0 0.9939,0.70919z" fill="url(#color-21)"/></g><g stroke-width="0.5"><path d="M241.59156,173.22294c0.21852,-0.29685 0.75103,-0.8294 1.40824,-0.13861c0.32236,0.33883 0.43471,0.7197 0.44873,1.06436c0.20741,0.02577 0.42397,0.12088 0.60438,0.22904c-0.05565,-0.42144 -0.07563,-1.33194 0.69494,-1.71762c1.01934,-0.5102 1.38339,0.91837 1.38339,0.91837c0.10552,0.88934 0.64369,1.89175 0.31654,2.66801c-0.94996,2.25407 -2.05326,0.97877 -3.17721,0.92652c-0.29131,-0.01354 -2.10219,0.38756 -2.4159,0.41669c-1.18976,0.1105 -2.41898,0.00331 -3.61138,0.00268l-0.03105,-0.01912l-0.00072,0.01715l-1.26133,-0.10398c-0.57173,-0.04089 -1.02633,-0.70351 -1.02633,-1.51494c0,-0.68238 0.3215,-1.25953 0.76379,-1.45016l1.31978,-0.61654l0.00972,0.04087c0.04216,-0.03151 0.08477,-0.06199 0.12787,-0.09134c0.413,-0.28118 0.91733,-0.06667 1.37455,-0.12562c1.0614,-0.13685 2.02924,-0.42186 3.07198,-0.50575z" fill="#ff4200"/><path d="M234.23897,176.16088c-0.69174,0 -0.69174,-0.96944 -0.69174,-0.96944l0.04404,-0.61729c0.25884,-0.96533 0.5137,-1.86099 0.55,-2.90411c0.00415,-0.11928 -0.02116,-2.76869 0.03999,-2.90027c0.0433,-0.09317 0.09199,-0.17945 0.14494,-0.26032l-0.02593,-0.03027l0.49055,-0.82499c0.12687,-0.21645 0.31932,-0.35451 0.53479,-0.35451c0.16516,0 0.3168,0.08112 0.43574,0.21647c0.21629,-0.64481 0.61409,-1.25774 0.70525,-1.30303c0.31556,-0.15678 0.96117,0.73288 1.32845,1.43814v-0.90505c0,-0.53541 0.30971,-0.96944 0.69174,-0.96944c0.35231,0 0.64311,0.36911 0.68623,0.84646l0.07222,0.70851c0.22128,0.24982 0.54725,0.32177 0.81101,0.48621c0.14356,-0.89455 0.2254,-1.82255 0.56931,-2.58797c0.31042,-0.69087 0.70252,-1.74654 1.28212,-1.66444c0.59256,0.08394 0.77021,1.28269 1.0765,1.99855c0.03744,0.0875 0.07627,0.19883 0.1104,0.3201c0.06908,-0.21788 0.15752,-0.41739 0.28325,-0.57056c0.03582,-0.04363 0.07288,-0.08464 0.11101,-0.12337l-0.01159,-0.01948l0.58923,-0.68816c0.12047,-0.14272 0.27622,-0.22877 0.44632,-0.22877c0.38204,0 0.69175,0.43404 0.69175,0.96945v1.24601c-0.00272,0.51884 -0.26952,1.22176 0.01338,1.55645c0.46162,0.54614 1.4242,0.15483 1.69076,0.91459c0.18342,0.52281 -0.19141,1.13727 -0.23343,1.71688c-0.10363,1.42944 0.03322,2.65667 -0.11392,3.96942c-0.174,0.239 -0.32612,0.50918 -0.45176,0.80407c-0.09285,0.12806 -0.17942,0.26501 -0.25903,0.40988c-0.18609,0.00789 -0.33521,0.22179 -0.33521,0.4845c0,0.02777 0.00167,0.055 0.00487,0.08149c-0.02115,-0.00879 -0.04276,-0.01894 -0.06484,-0.03055c-0.6477,-0.3404 -0.40481,-1.24812 -0.40481,-1.24812c0.45461,-1.62252 -0.01601,-3.16134 0.26342,-4.81664c0.03879,-0.22978 0.29697,-0.27888 0.35929,-0.49827c0.03908,-0.1376 -0.1752,0.24583 -0.27823,0.21291c-0.41856,-0.13375 -0.89761,-0.24514 -1.19219,-0.68279c-0.20624,-0.30638 -0.30355,-0.74641 -0.34849,-1.21464c-0.36163,0.47834 -0.84324,0.78778 -1.21803,0.65453c-0.1287,-0.04575 -0.61486,-0.99933 -0.85743,-1.89034c-0.04507,0.27967 -0.10009,0.55647 -0.16096,0.82944c-0.15286,0.68544 -0.37259,1.33799 -0.55889,2.00699l-0.09565,0.09405l0.03055,0.03568l-0.49055,0.82499c-0.12687,0.21645 -0.31933,0.35451 -0.53479,0.35451c-0.35906,0 -0.65422,-0.3834 -0.68843,-0.87402l-0.03528,-0.44495c-0.1812,0.09724 -0.41143,0.19147 -0.69938,0.28085c-0.53918,0.16735 -1.07012,-0.35898 -1.53748,-0.85986c0.01578,0.51598 0.01863,1.07598 -0.26884,1.27732c-0.36912,0.25853 -0.79431,0.02352 -1.21517,-0.17339c0.02813,1.8418 -0.17942,3.29581 -0.63736,5.01062l0.04404,-0.06351c0,0 0,0.96944 -0.69174,0.96944z" fill="url(#color-22)"/><path d="M234.23897,177.24405c-0.69174,0 -0.69174,-0.96945 -0.69174,-0.96945l0.04404,-0.61729c0.25884,-0.96533 0.5137,-1.86099 0.55,-2.90411c0.00415,-0.11928 -0.02116,-2.76869 0.03999,-2.90027c0.0433,-0.09317 0.09199,-0.17945 0.14494,-0.26032l-0.02593,-0.03028l0.49055,-0.82499c0.12687,-0.21645 0.31932,-0.35451 0.53479,-0.35451c0.16516,0 0.3168,0.08112 0.43574,0.21648c0.21629,-0.64481 0.61409,-1.25774 0.70525,-1.30303c0.31556,-0.15678 0.96117,0.73287 1.32845,1.43814v-0.90505c0,-0.53541 0.30971,-0.96944 0.69174,-0.96944c0.35231,0 0.64311,0.36911 0.68623,0.84646l0.07222,0.70851c0.22128,0.24982 0.54725,0.32177 0.81101,0.48621c0.14356,-0.89455 0.2254,-1.82256 0.56931,-2.58797c0.31042,-0.69087 0.70252,-1.74654 1.28212,-1.66444c0.59256,0.08394 0.77021,1.28269 1.0765,1.99855c0.03744,0.0875 0.07627,0.19883 0.1104,0.3201c0.06908,-0.21788 0.15752,-0.41739 0.28325,-0.57056c0.03582,-0.04363 0.07288,-0.08464 0.11101,-0.12337l-0.01159,-0.01948l0.58923,-0.68816c0.12047,-0.14272 0.27622,-0.22877 0.44632,-0.22877c0.38204,0 0.69175,0.43403 0.69175,0.96944v1.24601c-0.00272,0.51884 -0.26952,1.22176 0.01338,1.55645c0.46162,0.54614 1.4242,0.15483 1.69076,0.91459c0.18342,0.52281 -0.19141,1.13727 -0.23343,1.71688c-0.10363,1.42944 0.03322,2.65667 -0.11392,3.96942c-0.174,0.239 -0.32612,0.50918 -0.45176,0.80406c-0.09285,0.12806 -0.17942,0.26502 -0.25903,0.40989c-0.18609,0.00789 -0.33521,0.22179 -0.33521,0.48449c0,0.02777 0.00167,0.05501 0.00487,0.0815c-0.02115,-0.00879 -0.04276,-0.01894 -0.06484,-0.03055c-0.6477,-0.3404 -0.40481,-1.24811 -0.40481,-1.24811c0.45461,-1.62252 -0.01601,-3.16134 0.26342,-4.81664c0.03879,-0.22978 0.29697,-0.27888 0.35929,-0.49826c0.03908,-0.1376 -0.1752,0.24583 -0.27823,0.21291c-0.41856,-0.13375 -0.89761,-0.24515 -1.19219,-0.68279c-0.20624,-0.30638 -0.30355,-0.74641 -0.34849,-1.21464c-0.36163,0.47834 -0.84324,0.78778 -1.21803,0.65453c-0.1287,-0.04575 -0.61486,-0.99932 -0.85743,-1.89033c-0.04507,0.27967 -0.10009,0.55647 -0.16096,0.82944c-0.15286,0.68544 -0.37259,1.33799 -0.55889,2.00698l-0.09565,0.09406l0.03055,0.03568l-0.49055,0.82499c-0.12687,0.21645 -0.31933,0.35451 -0.53479,0.35451c-0.35906,0 -0.65422,-0.3834 -0.68843,-0.87402l-0.03528,-0.44495c-0.1812,0.09724 -0.41143,0.19148 -0.69938,0.28085c-0.53918,0.16735 -1.07012,-0.35898 -1.53748,-0.85987c0.01578,0.51598 0.01863,1.07598 -0.26884,1.27733c-0.36912,0.25853 -0.79431,0.02352 -1.21517,-0.17339c0.02813,1.8418 -0.17942,3.29581 -0.63736,5.01062l0.04404,-0.06351c0,0 0,0.96945 -0.69174,0.96945z" fill="url(#color-23)"/><path d="M234.23897,178.11059c-0.69174,0 -0.69174,-0.96944 -0.69174,-0.96944l0.04404,-0.61729c0.25884,-0.96533 0.5137,-1.86099 0.55,-2.90411c0.00415,-0.11928 -0.02116,-2.76868 0.03999,-2.90026c0.0433,-0.09317 0.09199,-0.17945 0.14494,-0.26032l-0.02593,-0.03028l0.49055,-0.82499c0.12687,-0.21645 0.31932,-0.35451 0.53479,-0.35451c0.16516,0 0.3168,0.08112 0.43574,0.21648c0.21629,-0.64481 0.61409,-1.25774 0.70525,-1.30303c0.31556,-0.15678 0.96117,0.73287 1.32845,1.43814v-0.90505c0,-0.53541 0.30971,-0.96944 0.69174,-0.96944c0.35231,0 0.64311,0.36911 0.68623,0.84646l0.07222,0.70851c0.22128,0.24982 0.54725,0.32177 0.81101,0.48621c0.14356,-0.89455 0.2254,-1.82256 0.56931,-2.58797c0.31042,-0.69087 0.70252,-1.74653 1.28212,-1.66443c0.59256,0.08394 0.77021,1.28269 1.0765,1.99855c0.03744,0.0875 0.07627,0.19884 0.1104,0.3201c0.06908,-0.21788 0.15752,-0.41739 0.28325,-0.57056c0.03582,-0.04363 0.07288,-0.08464 0.11101,-0.12336l-0.01159,-0.01948l0.58923,-0.68816c0.12047,-0.14272 0.27622,-0.22877 0.44632,-0.22877c0.38204,0 0.69175,0.43404 0.69175,0.96945v1.24601c-0.00272,0.51884 -0.26952,1.22175 0.01338,1.55644c0.46162,0.54614 1.4242,0.15483 1.69076,0.91459c0.18342,0.52281 -0.19141,1.13728 -0.23343,1.71688c-0.10363,1.42944 0.03322,2.65667 -0.11392,3.96942c-0.174,0.239 -0.32612,0.50918 -0.45176,0.80407c-0.09285,0.12806 -0.17942,0.26501 -0.25903,0.40988c-0.18609,0.00789 -0.33521,0.22179 -0.33521,0.4845c0,0.02777 0.00167,0.055 0.00487,0.08149c-0.02115,-0.00879 -0.04276,-0.01894 -0.06484,-0.03055c-0.6477,-0.3404 -0.40481,-1.24811 -0.40481,-1.24811c0.45461,-1.62252 -0.01601,-3.16134 0.26342,-4.81664c0.03879,-0.22978 0.29697,-0.27887 0.35929,-0.49826c0.03908,-0.1376 -0.1752,0.24583 -0.27823,0.21291c-0.41856,-0.13375 -0.89761,-0.24515 -1.19219,-0.68279c-0.20624,-0.30638 -0.30355,-0.74641 -0.34849,-1.21464c-0.36163,0.47834 -0.84324,0.78778 -1.21803,0.65453c-0.1287,-0.04575 -0.61486,-0.99932 -0.85743,-1.89033c-0.04507,0.27967 -0.10009,0.55647 -0.16096,0.82944c-0.15286,0.68544 -0.37259,1.33799 -0.55889,2.00699l-0.09565,0.09405l0.03055,0.03568l-0.49055,0.82499c-0.12687,0.21645 -0.31933,0.35451 -0.53479,0.35451c-0.35906,0 -0.65422,-0.3834 -0.68843,-0.87402l-0.03528,-0.44495c-0.1812,0.09724 -0.41143,0.19148 -0.69938,0.28085c-0.53918,0.16735 -1.07012,-0.35898 -1.53748,-0.85987c0.01578,0.51598 0.01863,1.07598 -0.26884,1.27733c-0.36912,0.25853 -0.79431,0.02352 -1.21517,-0.17339c0.02813,1.8418 -0.17942,3.29581 -0.63736,5.01062l0.04404,-0.06351c0,0 0,0.96944 -0.69174,0.96944z" fill="url(#color-24)"/><path d="M234.23897,179.19376c-0.69174,0 -0.69174,-0.96945 -0.69174,-0.96945l0.04404,-0.61729c0.25884,-0.96533 0.5137,-1.86099 0.55,-2.90411c0.00415,-0.11928 -0.02116,-2.76869 0.03999,-2.90027c0.0433,-0.09317 0.09199,-0.17945 0.14494,-0.26032l-0.02593,-0.03028l0.49055,-0.82499c0.12687,-0.21645 0.31932,-0.35451 0.53479,-0.35451c0.16516,0 0.3168,0.08112 0.43574,0.21647c0.21629,-0.64481 0.61409,-1.25774 0.70525,-1.30303c0.31556,-0.15678 0.96117,0.73288 1.32845,1.43814v-0.90505c0,-0.53541 0.30971,-0.96944 0.69174,-0.96944c0.35231,0 0.64311,0.36911 0.68623,0.84646l0.07222,0.70851c0.22128,0.24982 0.54725,0.32177 0.81101,0.48621c0.14356,-0.89455 0.2254,-1.82256 0.56931,-2.58797c0.31042,-0.69087 0.70252,-1.74654 1.28212,-1.66443c0.59256,0.08394 0.77021,1.28269 1.0765,1.99855c0.03744,0.0875 0.07627,0.19883 0.1104,0.3201c0.06908,-0.21788 0.15752,-0.41739 0.28325,-0.57056c0.03582,-0.04363 0.07288,-0.08464 0.11101,-0.12336l-0.01159,-0.01948l0.58923,-0.68816c0.12047,-0.14272 0.27622,-0.22877 0.44632,-0.22877c0.38204,0 0.69175,0.43403 0.69175,0.96944v1.24601c-0.00272,0.51884 -0.26952,1.22176 0.01338,1.55645c0.46162,0.54614 1.4242,0.15483 1.69076,0.91459c0.18342,0.52281 -0.19141,1.13728 -0.23343,1.71688c-0.10363,1.42944 0.03322,2.65667 -0.11392,3.96942c-0.174,0.239 -0.32612,0.50918 -0.45176,0.80407c-0.09285,0.12806 -0.17942,0.26501 -0.25903,0.40988c-0.18609,0.00789 -0.33521,0.22179 -0.33521,0.4845c0,0.02777 0.00167,0.055 0.00487,0.0815c-0.02115,-0.00879 -0.04276,-0.01894 -0.06484,-0.03055c-0.6477,-0.3404 -0.40481,-1.24812 -0.40481,-1.24812c0.45461,-1.62252 -0.01601,-3.16134 0.26342,-4.81664c0.03879,-0.22978 0.29697,-0.27888 0.35929,-0.49826c0.03908,-0.1376 -0.1752,0.24583 -0.27823,0.21291c-0.41856,-0.13375 -0.89761,-0.24515 -1.19219,-0.68279c-0.20624,-0.30638 -0.30355,-0.74641 -0.34849,-1.21464c-0.36163,0.47834 -0.84324,0.78778 -1.21803,0.65453c-0.1287,-0.04575 -0.61486,-0.99932 -0.85743,-1.89033c-0.04507,0.27967 -0.10009,0.55647 -0.16096,0.82944c-0.15286,0.68544 -0.37259,1.33799 -0.55889,2.00698l-0.09565,0.09406l0.03055,0.03568l-0.49055,0.82499c-0.12687,0.21645 -0.31933,0.35451 -0.53479,0.35451c-0.35906,0 -0.65422,-0.3834 -0.68843,-0.87402l-0.03528,-0.44495c-0.1812,0.09724 -0.41143,0.19148 -0.69938,0.28085c-0.53918,0.16735 -1.07012,-0.35898 -1.53748,-0.85987c0.01578,0.51598 0.01863,1.07598 -0.26884,1.27732c-0.36912,0.25853 -0.79431,0.02352 -1.21517,-0.17339c0.02813,1.8418 -0.17942,3.29581 -0.63736,5.01062l0.04404,-0.06351c0,0 0,0.96945 -0.69174,0.96945z" fill="url(#color-25)"/><path d="M234.23897,180.27693c-0.69174,0 -0.69174,-0.96945 -0.69174,-0.96945l0.04404,-0.61729c0.25884,-0.96533 0.5137,-1.86099 0.55,-2.90411c0.00415,-0.11928 -0.02116,-2.76869 0.03999,-2.90027c0.0433,-0.09317 0.09199,-0.17945 0.14494,-0.26032l-0.02593,-0.03028l0.49055,-0.82499c0.12687,-0.21645 0.31932,-0.35451 0.53479,-0.35451c0.16516,0 0.3168,0.08112 0.43574,0.21648c0.21629,-0.64481 0.61409,-1.25774 0.70525,-1.30303c0.31556,-0.15678 0.96117,0.73287 1.32845,1.43814v-0.90505c0,-0.53541 0.30971,-0.96945 0.69174,-0.96945c0.35231,0 0.64311,0.36911 0.68623,0.84646l0.07222,0.70851c0.22128,0.24982 0.54725,0.32177 0.81101,0.48621c0.14356,-0.89455 0.2254,-1.82256 0.56931,-2.58797c0.31042,-0.69087 0.70252,-1.74654 1.28212,-1.66443c0.59256,0.08394 0.77021,1.28269 1.0765,1.99855c0.03744,0.0875 0.07627,0.19884 0.1104,0.3201c0.06908,-0.21788 0.15752,-0.41739 0.28325,-0.57056c0.03582,-0.04363 0.07288,-0.08464 0.11101,-0.12336l-0.01159,-0.01948l0.58923,-0.68816c0.12047,-0.14272 0.27622,-0.22877 0.44632,-0.22877c0.38204,0 0.69175,0.43403 0.69175,0.96944v1.24602c-0.00272,0.51884 -0.26952,1.22176 0.01338,1.55645c0.46162,0.54614 1.4242,0.15483 1.69076,0.91459c0.18342,0.52281 -0.19141,1.13727 -0.23343,1.71688c-0.10363,1.42944 0.03322,2.65667 -0.11392,3.96942c-0.174,0.239 -0.32612,0.50917 -0.45176,0.80406c-0.09285,0.12806 -0.17942,0.26502 -0.25903,0.40989c-0.18609,0.00789 -0.33521,0.22179 -0.33521,0.48449c0,0.02777 0.00167,0.05501 0.00487,0.0815c-0.02115,-0.00879 -0.04276,-0.01894 -0.06484,-0.03055c-0.6477,-0.3404 -0.40481,-1.24811 -0.40481,-1.24811c0.45461,-1.62252 -0.01601,-3.16134 0.26342,-4.81664c0.03879,-0.22978 0.29697,-0.27887 0.35929,-0.49826c0.03908,-0.1376 -0.1752,0.24583 -0.27823,0.21291c-0.41856,-0.13375 -0.89761,-0.24515 -1.19219,-0.68279c-0.20624,-0.30638 -0.30355,-0.74641 -0.34849,-1.21464c-0.36163,0.47834 -0.84324,0.78778 -1.21803,0.65453c-0.1287,-0.04575 -0.61486,-0.99932 -0.85743,-1.89033c-0.04507,0.27967 -0.10009,0.55647 -0.16096,0.82944c-0.15286,0.68544 -0.37259,1.33799 -0.55889,2.00698l-0.09565,0.09406l0.03055,0.03568l-0.49055,0.82499c-0.12687,0.21645 -0.31933,0.35451 -0.53479,0.35451c-0.35906,0 -0.65422,-0.3834 -0.68843,-0.87402l-0.03528,-0.44495c-0.1812,0.09724 -0.41143,0.19148 -0.69938,0.28085c-0.53918,0.16735 -1.07012,-0.35898 -1.53748,-0.85986c0.01578,0.51598 0.01863,1.07598 -0.26884,1.27732c-0.36912,0.25853 -0.79431,0.02352 -1.21517,-0.17339c0.02813,1.8418 -0.17942,3.29581 -0.63736,5.01062l0.04404,-0.06351c0,0 0,0.96945 -0.69174,0.96945z" fill="url(#color-26)"/><path d="M234.23897,181.3601c-0.69174,0 -0.69174,-0.96944 -0.69174,-0.96944l0.04404,-0.61729c0.25884,-0.96533 0.5137,-1.86099 0.55,-2.90411c0.00415,-0.11928 -0.02116,-2.76868 0.03999,-2.90026c0.0433,-0.09317 0.09199,-0.17945 0.14494,-0.26032l-0.02593,-0.03028l0.49055,-0.82499c0.12687,-0.21645 0.31932,-0.35451 0.53479,-0.35451c0.16516,0 0.3168,0.08112 0.43574,0.21647c0.21629,-0.64481 0.61409,-1.25774 0.70525,-1.30303c0.31556,-0.15678 0.96117,0.73288 1.32845,1.43814v-0.90505c0,-0.53541 0.30971,-0.96944 0.69174,-0.96944c0.35231,0 0.64311,0.36911 0.68623,0.84646l0.07222,0.70851c0.22128,0.24982 0.54725,0.32177 0.81101,0.48621c0.14356,-0.89455 0.2254,-1.82256 0.56931,-2.58798c0.31042,-0.69087 0.70252,-1.74653 1.28212,-1.66443c0.59256,0.08394 0.77021,1.28269 1.0765,1.99855c0.03744,0.0875 0.07627,0.19883 0.1104,0.3201c0.06908,-0.21788 0.15752,-0.41739 0.28325,-0.57056c0.03582,-0.04363 0.07288,-0.08464 0.11101,-0.12337l-0.01159,-0.01948l0.58923,-0.68816c0.12047,-0.14272 0.27622,-0.22877 0.44632,-0.22877c0.38204,0 0.69175,0.43404 0.69175,0.96945v1.24601c-0.00272,0.51884 -0.26952,1.22176 0.01338,1.55645c0.46162,0.54614 1.4242,0.15483 1.69076,0.91459c0.18342,0.52281 -0.19141,1.13727 -0.23343,1.71688c-0.10363,1.42944 0.03322,2.65667 -0.11392,3.96942c-0.174,0.239 -0.32612,0.50918 -0.45176,0.80406c-0.09285,0.12806 -0.17942,0.26502 -0.25903,0.40989c-0.18609,0.00789 -0.33521,0.22179 -0.33521,0.48449c0,0.02777 0.00167,0.055 0.00487,0.0815c-0.02115,-0.00879 -0.04276,-0.01894 -0.06484,-0.03055c-0.6477,-0.3404 -0.40481,-1.24811 -0.40481,-1.24811c0.45461,-1.62252 -0.01601,-3.16134 0.26342,-4.81664c0.03879,-0.22978 0.29697,-0.27888 0.35929,-0.49827c0.03908,-0.1376 -0.1752,0.24584 -0.27823,0.21291c-0.41856,-0.13375 -0.89761,-0.24515 -1.19219,-0.68279c-0.20624,-0.30638 -0.30355,-0.74641 -0.34849,-1.21464c-0.36163,0.47834 -0.84324,0.78778 -1.21803,0.65453c-0.1287,-0.04575 -0.61486,-0.99932 -0.85743,-1.89033c-0.04507,0.27967 -0.10009,0.55647 -0.16096,0.82944c-0.15286,0.68544 -0.37259,1.33799 -0.55889,2.00698l-0.09565,0.09406l0.03055,0.03568l-0.49055,0.82499c-0.12687,0.21645 -0.31933,0.35451 -0.53479,0.35451c-0.35906,0 -0.65422,-0.3834 -0.68843,-0.87402l-0.03528,-0.44495c-0.1812,0.09724 -0.41143,0.19148 -0.69938,0.28085c-0.53918,0.16735 -1.07012,-0.35898 -1.53748,-0.85987c0.01578,0.51598 0.01863,1.07598 -0.26884,1.27733c-0.36912,0.25853 -0.79431,0.02352 -1.21517,-0.17339c0.02813,1.8418 -0.17942,3.29581 -0.63736,5.01062l0.04404,-0.06351c0,0 0,0.96944 -0.69174,0.96944z" fill="url(#color-27)"/><path d="M234.23897,182.44327c-0.69174,0 -0.69174,-0.96945 -0.69174,-0.96945l0.04404,-0.61729c0.25884,-0.96533 0.5137,-1.86099 0.55,-2.90411c0.00415,-0.11928 -0.02116,-2.76869 0.03999,-2.90027c0.0433,-0.09317 0.09199,-0.17945 0.14494,-0.26032l-0.02593,-0.03028l0.49055,-0.82499c0.12687,-0.21645 0.31932,-0.35451 0.53479,-0.35451c0.16516,0 0.3168,0.08112 0.43574,0.21648c0.21629,-0.64481 0.61409,-1.25774 0.70525,-1.30303c0.31556,-0.15678 0.96117,0.73287 1.32845,1.43814v-0.90505c0,-0.53541 0.30971,-0.96944 0.69174,-0.96944c0.35231,0 0.64311,0.36911 0.68623,0.84646l0.07222,0.70851c0.22128,0.24982 0.54725,0.32177 0.81101,0.48621c0.14356,-0.89455 0.2254,-1.82256 0.56931,-2.58797c0.31042,-0.69087 0.70252,-1.74654 1.28212,-1.66444c0.59256,0.08394 0.77021,1.28269 1.0765,1.99855c0.03744,0.0875 0.07627,0.19883 0.1104,0.3201c0.06908,-0.21788 0.15752,-0.41739 0.28325,-0.57056c0.03582,-0.04363 0.07288,-0.08464 0.11101,-0.12337l-0.01159,-0.01948l0.58923,-0.68816c0.12047,-0.14272 0.27622,-0.22877 0.44632,-0.22877c0.38204,0 0.69175,0.43403 0.69175,0.96944v1.24601c-0.00272,0.51884 -0.26952,1.22176 0.01338,1.55645c0.46162,0.54614 1.4242,0.15483 1.69076,0.91459c0.18342,0.52281 -0.19141,1.13727 -0.23343,1.71688c-0.10363,1.42944 0.03322,2.65667 -0.11392,3.96942c-0.174,0.239 -0.32612,0.50918 -0.45176,0.80406c-0.09285,0.12806 -0.17942,0.26502 -0.25903,0.40989c-0.18609,0.00789 -0.33521,0.22179 -0.33521,0.48449c0,0.02777 0.00167,0.05501 0.00487,0.0815c-0.02115,-0.00879 -0.04276,-0.01894 -0.06484,-0.03055c-0.6477,-0.3404 -0.40481,-1.24812 -0.40481,-1.24812c0.45461,-1.62252 -0.01601,-3.16134 0.26342,-4.81664c0.03879,-0.22978 0.29697,-0.27888 0.35929,-0.49827c0.03908,-0.1376 -0.1752,0.24584 -0.27823,0.21291c-0.41856,-0.13375 -0.89761,-0.24515 -1.19219,-0.68279c-0.20624,-0.30638 -0.30355,-0.74641 -0.34849,-1.21464c-0.36163,0.47834 -0.84324,0.78778 -1.21803,0.65453c-0.1287,-0.04575 -0.61486,-0.99932 -0.85743,-1.89033c-0.04507,0.27967 -0.10009,0.55647 -0.16096,0.82944c-0.15286,0.68544 -0.37259,1.33799 -0.55889,2.00698l-0.09565,0.09406l0.03055,0.03568l-0.49055,0.82499c-0.12687,0.21645 -0.31933,0.35451 -0.53479,0.35451c-0.35906,0 -0.65422,-0.3834 -0.68843,-0.87402l-0.03528,-0.44495c-0.1812,0.09724 -0.41143,0.19147 -0.69938,0.28085c-0.53918,0.16735 -1.07012,-0.35898 -1.53748,-0.85986c0.01578,0.51598 0.01863,1.07598 -0.26884,1.27732c-0.36912,0.25853 -0.79431,0.02352 -1.21517,-0.17339c0.02813,1.8418 -0.17942,3.29581 -0.63736,5.01062l0.04404,-0.06351c0,0 0,0.96945 -0.69174,0.96945z" fill="url(#color-28)"/></g><path d="M233.12503,180c0,-3.79696 3.07804,-6.875 6.875,-6.875c3.79696,0 6.875,3.07804 6.875,6.875c0,3.79696 -3.07804,6.875 -6.875,6.875c-3.79696,0 -6.875,-3.07804 -6.875,-6.875z" fill="#4d4d4d" stroke-width="0"/><path d="M235.47503,178.8125c0,-0.65584 0.53166,-1.1875 1.1875,-1.1875c0.65584,0 1.1875,0.53166 1.1875,1.1875c0,0.65584 -0.53166,1.1875 -1.1875,1.1875c-0.65584,0 -1.1875,-0.53166 -1.1875,-1.1875z" fill="url(#color-29)" stroke-width="0"/><path d="M241.97503,178.8125c0,-0.65584 0.53166,-1.1875 1.1875,-1.1875c0.65584,0 1.1875,0.53166 1.1875,1.1875c0,0.65584 -0.53166,1.1875 -1.1875,1.1875c-0.65584,0 -1.1875,-0.53166 -1.1875,-1.1875z" fill="url(#color-30)" stroke-width="0"/><path d="M227.70314,180c0,-6.79138 5.5055,-12.29688 12.29688,-12.29688c6.79138,0 12.29688,5.5055 12.29688,12.29688c0,6.79138 -5.50549,12.29688 -12.29687,12.29688c-6.79138,0 -12.29687,-5.5055 -12.29687,-12.29687z" fill="url(#color-31)" stroke-width="NaN"/><path d="M240,155.475c8.07879,0 14.62794,6.54915 14.62794,14.62795c0,8.0788 -6.54914,14.62794 -14.62794,14.62794c-8.07879,0 -14.62795,-6.54914 -14.62795,-14.62794c0,-8.07879 6.54915,-14.62795 14.62795,-14.62795z" fill="url(#color-32)" stroke-width="0"/><path d="M250.85308,165.37205c8.07879,0 14.62794,6.54915 14.62794,14.62795c0,8.0788 -6.54914,14.62794 -14.62794,14.62794c-8.07879,0 -14.62795,-6.54914 -14.62795,-14.62794c0,-8.07879 6.54915,-14.62795 14.62795,-14.62795z" fill="url(#color-33)" stroke-width="0"/><path d="M240.05308,177.66893c8.07879,0 14.62794,6.54915 14.62794,14.62795c0,8.0788 -6.54914,14.62794 -14.62794,14.62794c-8.07879,0 -14.62795,-6.54914 -14.62795,-14.62794c0,-8.07879 6.54915,-14.62795 14.62795,-14.62795z" fill="url(#color-34)" stroke-width="0"/><path d="M227.70314,165.46893c8.07879,0 14.62794,6.54915 14.62794,14.62795c0,8.0788 -6.54914,14.62794 -14.62794,14.62794c-8.07879,0 -14.62795,-6.54914 -14.62795,-14.62794c0,-8.07879 6.54915,-14.62795 14.62795,-14.62795z" fill="url(#color-35)" stroke-width="0"/></g></g></svg>