<svg version="1.1" xmlns="http://www.w3.org/2000/svg" xmlns:xlink="http://www.w3.org/1999/xlink" width="299.33334" height="299.33334" viewBox="0,0,299.33334,299.33334"><defs><linearGradient x1="304.85316" y1="263.24068" x2="311.00972" y2="292.54625" gradientUnits="userSpaceOnUse" id="color-1"><stop offset="0" stop-color="#000000"/><stop offset="1" stop-color="#82c9ff"/></linearGradient><linearGradient x1="310.56992" y1="289.33077" x2="316.6662" y2="318.34946" gradientUnits="userSpaceOnUse" id="color-2"><stop offset="0" stop-color="#000000"/><stop offset="1" stop-color="#82c9ff"/></linearGradient><linearGradient x1="363.93862" y1="193.46282" x2="368.17838" y2="223.10644" gradientUnits="userSpaceOnUse" id="color-3"><stop offset="0" stop-color="#000000"/><stop offset="1" stop-color="#82c9ff"/></linearGradient><linearGradient x1="367.9484" y1="219.86918" x2="372.14665" y2="249.2226" gradientUnits="userSpaceOnUse" id="color-4"><stop offset="0" stop-color="#000000"/><stop offset="1" stop-color="#82c9ff"/></linearGradient><linearGradient x1="330.00914" y1="132.10608" x2="357.89789" y2="121.20021" gradientUnits="userSpaceOnUse" id="color-5"><stop offset="0" stop-color="#000000"/><stop offset="1" stop-color="#82c9ff"/></linearGradient><linearGradient x1="354.79899" y1="122.16435" x2="382.41471" y2="111.36526" gradientUnits="userSpaceOnUse" id="color-6"><stop offset="0" stop-color="#000000"/><stop offset="1" stop-color="#82c9ff"/></linearGradient><radialGradient cx="320.71814" cy="140.89563" r="55.04665" gradientUnits="userSpaceOnUse" id="color-7"><stop offset="0" stop-color="#81e9ff"/><stop offset="1" stop-color="#82bdff"/></radialGradient><radialGradient cx="321.56622" cy="238.5485" r="54.50775" gradientUnits="userSpaceOnUse" id="color-8"><stop offset="0" stop-color="#81e9ff"/><stop offset="1" stop-color="#82bdff"/></radialGradient><radialGradient cx="300.99307" cy="164.47958" r="12.50071" gradientUnits="userSpaceOnUse" id="color-9"><stop offset="0" stop-color="#000000"/><stop offset="1" stop-color="#82a8ff"/></radialGradient><radialGradient cx="300.99307" cy="164.47958" r="8.69933" gradientUnits="userSpaceOnUse" id="color-10"><stop offset="0" stop-color="#000000"/><stop offset="1" stop-color="#81e3ff"/></radialGradient><linearGradient x1="335.14314" y1="237.27069" x2="339.3829" y2="266.91431" gradientUnits="userSpaceOnUse" id="color-11"><stop offset="0" stop-color="#000000"/><stop offset="1" stop-color="#82c9ff"/></linearGradient><linearGradient x1="339.15291" y1="263.67706" x2="343.35117" y2="293.03048" gradientUnits="userSpaceOnUse" id="color-12"><stop offset="0" stop-color="#000000"/><stop offset="1" stop-color="#82c9ff"/></linearGradient><radialGradient cx="339.00693" cy="164.47958" r="12.50071" gradientUnits="userSpaceOnUse" id="color-13"><stop offset="0" stop-color="#000000"/><stop offset="1" stop-color="#82a8ff"/></radialGradient><radialGradient cx="339.00693" cy="164.47958" r="8.69932" gradientUnits="userSpaceOnUse" id="color-14"><stop offset="0" stop-color="#000000"/><stop offset="1" stop-color="#81e3ff"/></radialGradient><linearGradient x1="288.28762" y1="207.99776" x2="282.29659" y2="237.33762" gradientUnits="userSpaceOnUse" id="color-15"><stop offset="0" stop-color="#000000"/><stop offset="1" stop-color="#82c9ff"/></linearGradient><linearGradient x1="283.17026" y1="234.21201" x2="277.23788" y2="263.26464" gradientUnits="userSpaceOnUse" id="color-16"><stop offset="0" stop-color="#000000"/><stop offset="1" stop-color="#82c9ff"/></linearGradient><radialGradient cx="300.99307" cy="164.47958" r="28.97784" gradientUnits="userSpaceOnUse" id="color-17"><stop offset="0" stop-color="#ffffff" stop-opacity="0.51765"/><stop offset="1" stop-color="#ffffff" stop-opacity="0"/></radialGradient><radialGradient cx="339.00693" cy="164.47958" r="28.97784" gradientUnits="userSpaceOnUse" id="color-18"><stop offset="0" stop-color="#000000" stop-opacity="0.51765"/><stop offset="1" stop-color="#000000" stop-opacity="0"/></radialGradient><radialGradient cx="320" cy="180" r="149.66667" gradientUnits="userSpaceOnUse" id="color-19"><stop offset="0" stop-color="#000000" stop-opacity="0.51765"/><stop offset="1" stop-color="#000000" stop-opacity="0"/></radialGradient></defs><g transform="translate(-170.33333,-30.33333)"><g data-paper-data="{&quot;isPaintingLayer&quot;:true}" fill-rule="nonzero" stroke="none" stroke-width="0" stroke-linecap="butt" stroke-linejoin="miter" stroke-miterlimit="10" stroke-dasharray="" stroke-dashoffset="0" style="mix-blend-mode: normal"><g><path d="M324.43004,287.69393c0,0 -0.72655,0.66088 -2.07339,0.94382c-3.40478,0.71528 -18.35237,3.8555 -24.09449,5.06181c-1.404,0.29495 -0.73399,1.67891 -0.73399,1.67891c0,0 -1.26326,-2.21106 -0.83738,-3.85704c1.69545,-6.55271 6.0135,-23.24138 6.96477,-26.91794c0.36227,-1.40012 1.01557,-1.27913 1.01557,-1.27913c0,0 0.48674,-0.45317 1.33075,0.61803c2.21197,2.80738 12.269,15.57147 16.7965,21.31764c1.35969,1.72568 1.63164,2.4339 1.63164,2.4339z" fill="url(#color-1)"/><path d="M297.56616,294.34971c0,0 -0.22836,-0.79122 1.58382,-1.29109c6.26075,-1.72697 20.52168,-5.63994 23.33465,-6.23089c0.90175,-0.18944 1.89341,0.61871 1.89341,0.61871c0,0 0.63856,1.0825 0.31297,2.34084c-1.47708,5.70871 -5.66581,21.89762 -6.7692,26.16205c-0.51625,1.99524 -1.42915,2.4366 -1.42915,2.4366c0,0 -0.8767,0.13673 -2.0572,-1.36154c-2.52362,-3.2029 -12.15793,-15.43049 -16.31328,-20.70434c-1.1865,-1.50588 -0.55603,-1.97032 -0.55603,-1.97032z" fill="url(#color-2)"/></g><g><path d="M381.88558,219.1362c0,0 -0.76795,0.61228 -2.13033,0.80714c-3.44405,0.49259 -18.56407,2.65511 -24.37242,3.48585c-1.4202,0.20313 -0.84151,1.62769 -0.84151,1.62769c0,0 -1.11696,-2.28845 -0.58504,-3.9033c2.11756,-6.42872 7.51064,-22.80163 8.69875,-26.40862c0.45246,-1.37363 1.09652,-1.21045 1.09652,-1.21045c0,0 0.51515,-0.4206 1.2878,0.70317c2.02492,2.94514 11.2315,16.33561 15.37614,22.36377c1.24471,1.81036 1.47009,2.53476 1.47009,2.53476z" fill="url(#color-3)"/><path d="M354.64607,224.03274c0,0 -0.17649,-0.80439 1.66435,-1.18547c6.35971,-1.3166 20.84472,-4.29487 23.69014,-4.70184c0.91215,-0.13046 1.84922,0.74041 1.84922,0.74041c0,0 0.56689,1.1217 0.16025,2.35622c-1.84481,5.6007 -7.07639,21.48329 -8.45448,25.66704c-0.64477,1.95749 -1.58442,2.33861 -1.58442,2.33861c0,0 -0.88373,0.07949 -1.96441,-1.4923c-2.31022,-3.36007 -11.12983,-16.18773 -14.93379,-21.72038c-1.08617,-1.57977 -0.42685,-2.00228 -0.42685,-2.00228z" fill="url(#color-4)"/></g><g><path d="M350.89849,108.76404c0,0 0.77166,0.6076 1.27288,1.88932c1.26706,3.24016 6.82971,17.4651 8.96659,22.9296c0.52249,1.33612 1.77698,0.44702 1.77698,0.44702c0,0 -1.97242,1.61065 -3.6661,1.46208c-6.74261,-0.59144 -23.91492,-2.09773 -27.69802,-2.42957c-1.4407,-0.12637 -1.42912,-0.79069 -1.42912,-0.79069c0,0 -0.52725,-0.40533 0.39007,-1.41447c2.40409,-2.64472 13.33456,-14.6693 18.25527,-20.08255c1.47777,-1.6257 2.13145,-2.01074 2.13145,-2.01074z" fill="url(#color-5)"/><path d="M361.894,134.16218c0,0 -0.74272,0.35574 -1.53464,-1.34918c-2.73596,-5.89016 -8.94752,-19.31037 -9.99435,-21.98733c-0.33558,-0.85815 0.29794,-1.96953 0.29794,-1.96953c0,0 0.96235,-0.80836 2.25716,-0.69478c5.87415,0.51526 22.53221,1.97645 26.92023,2.36135c2.05306,0.18008 2.63894,1.00769 2.63894,1.00769c0,0 0.27946,0.84214 -1.00358,2.2536c-2.74279,3.01734 -13.21384,14.5365 -17.73008,19.5048c-1.28955,1.41863 -1.85163,0.87339 -1.85163,0.87339z" fill="url(#color-6)"/></g><g><path d="M372.67138,188.6278c0,0 -3.11362,1.82862 -8.17334,1.82862c-12.79082,0 -68.94502,0 -90.51662,0c-5.27447,0 -3.90987,5.48585 -3.90987,5.48585c0,0 -2.8739,-8.91012 -0.09746,-14.51037c11.05309,-22.29475 39.20348,-79.07579 45.40508,-91.58481c2.36172,-4.76373 4.62083,-3.83463 4.62083,-3.83463c0,0 2.09379,-1.26257 4.32083,3.22952c5.83657,11.77272 32.3733,65.29891 44.31967,89.39547c3.58771,7.23663 4.03088,9.99035 4.03088,9.99035z" fill="url(#color-7)"/><path d="M270.98586,192.26954c0,0 -0.22362,-3.01935 6.67436,-3.44812c23.83118,-1.48128 78.09888,-4.78067 88.66644,-4.78067c3.38763,0 6.34472,3.65724 6.34472,3.65724c0,0 1.47929,4.37747 -0.64327,8.65879c-9.62944,19.42317 -36.93682,74.5038 -44.13005,89.01298c-3.36557,6.78854 -6.98375,7.68649 -6.98375,7.68649c0,0 -3.25765,-0.17072 -6.37257,-6.4537c-6.65888,-13.43135 -32.08023,-64.70777 -43.04464,-86.82364c-3.13074,-6.3149 -0.51125,-7.50938 -0.51125,-7.50938z" fill="url(#color-8)"/></g><g><path d="M281.98614,164.18716c0,-2.2165 6.9936,-4.00968 7.98056,-5.83037c2.17712,-4.01621 6.42946,-6.74344 11.31878,-6.74344c4.47017,0 8.4079,2.27968 10.71402,5.73987c1.35971,2.04016 8.0005,4.49071 8.0005,7.12636c0,2.21211 -6.40655,4.29383 -7.38988,6.11197c-2.17535,4.02213 -6.43093,6.75426 -11.32464,6.75426c-5.20929,0 -9.6955,-3.09586 -11.71914,-7.54809c-0.73674,-1.62091 -7.5802,-3.71402 -7.5802,-5.61055z" fill="#82a8ff"/><path d="M288.49236,164.47958c0,-6.90395 5.59676,-12.50071 12.50071,-12.50071c6.90395,0 12.50071,5.59676 12.50071,12.50071c0,6.90395 -5.59676,12.50071 -12.50071,12.50071c-6.90395,0 -12.50071,-5.59676 -12.50071,-12.50071z" fill="url(#color-9)"/><path d="M292.29374,164.47958c0,-4.8045 3.89482,-8.69933 8.69933,-8.69933c4.8045,0 8.69933,3.89482 8.69933,8.69933c0,4.8045 -3.89482,8.69933 -8.69933,8.69933c-4.8045,0 -8.69933,-3.89482 -8.69933,-8.69933z" fill="url(#color-10)"/></g><g><path d="M353.09009,262.94408c0,0 -0.76795,0.61228 -2.13032,0.80713c-3.44405,0.49258 -18.56408,2.65511 -24.37243,3.48585c-1.4202,0.20312 -0.8415,1.62768 -0.8415,1.62768c0,0 -1.11695,-2.28846 -0.58504,-3.90329c2.11756,-6.42872 7.51063,-22.80163 8.69874,-26.40862c0.45246,-1.37363 1.09653,-1.21046 1.09653,-1.21046c0,0 0.51515,-0.42059 1.2878,0.70318c2.02492,2.94514 11.23151,16.33561 15.37615,22.36377c1.24471,1.81036 1.47008,2.53476 1.47008,2.53476z" fill="url(#color-11)"/><path d="M325.85059,267.84062c0,0 -0.17648,-0.80438 1.66435,-1.18547c6.35972,-1.3166 20.84472,-4.29487 23.69013,-4.70184c0.91215,-0.13046 1.84922,0.74041 1.84922,0.74041c0,0 0.56689,1.1217 0.16025,2.35623c-1.84482,5.6007 -7.07639,21.48329 -8.45447,25.66703c-0.64478,1.95749 -1.58442,2.33861 -1.58442,2.33861c0,0 -0.88373,0.07949 -1.96441,-1.4923c-2.31021,-3.36008 -11.12983,-16.18772 -14.93379,-21.72038c-1.08617,-1.57978 -0.42685,-2.00228 -0.42685,-2.00228z" fill="url(#color-12)"/></g><g><path d="M320,164.18716c0,-2.21651 6.99359,-4.00968 7.98056,-5.83038c2.17712,-4.01621 6.42947,-6.74344 11.31879,-6.74344c4.47017,0 8.40789,2.27968 10.71402,5.73987c1.35971,2.04016 8.0005,4.49071 8.0005,7.12636c0,2.21211 -6.40655,4.29383 -7.38987,6.11197c-2.17534,4.02213 -6.43093,6.75426 -11.32464,6.75426c-5.20929,0 -9.6955,-3.09586 -11.71915,-7.54809c-0.73674,-1.62091 -7.5802,-3.71402 -7.5802,-5.61056z" fill="#82a8ff"/><path d="M326.50622,164.47958c0,-6.90395 5.59676,-12.50071 12.50072,-12.50071c6.90395,0 12.50071,5.59676 12.50071,12.50071c0,6.90395 -5.59675,12.50071 -12.50071,12.50071c-6.90395,0 -12.50072,-5.59676 -12.50072,-12.50071z" fill="url(#color-13)"/><path d="M330.3076,164.47958c0,-4.80451 3.89483,-8.69933 8.69933,-8.69933c4.80451,0 8.69932,3.89482 8.69932,8.69933c0,4.80451 -3.89482,8.69932 -8.69932,8.69932c-4.80451,0 -8.69933,-3.89482 -8.69933,-8.69932z" fill="url(#color-14)"/></g><g><path d="M296.54016,238.21549c0,0 -0.92929,0.31789 -2.27771,0.04255c-3.40875,-0.69605 -18.37385,-3.75183 -24.12268,-4.92571c-1.40565,-0.28702 -1.34051,1.24921 -1.34051,1.24921c0,0 -0.28102,-2.53094 0.76365,-3.87232c4.15888,-5.34007 14.75085,-18.94033 17.08429,-21.93651c0.88863,-1.14101 1.44012,-0.77048 1.44012,-0.77048c0,0 0.6267,-0.22253 0.97576,1.0958c0.9148,3.45504 5.07407,19.16384 6.94649,26.23566c0.56232,2.1238 0.53058,2.88178 0.53058,2.88178z" fill="url(#color-15)"/><path d="M269.2428,233.65252c0,0 0.10471,-0.81683 1.96636,-0.55572c6.43162,0.90208 21.0735,2.97592 23.88976,3.55098c0.9028,0.18435 1.49185,1.31992 1.49185,1.31992c0,0 0.15602,1.24709 -0.64262,2.27256c-3.62321,4.65226 -13.89799,17.84524 -16.60454,21.3205c-1.26634,1.626 -2.27945,1.66841 -2.27945,1.66841c0,0 -0.85887,-0.22277 -1.34709,-2.06669c-1.04369,-3.94182 -5.02813,-18.99035 -6.74665,-25.48089c-0.4907,-1.85329 0.2724,-2.02907 0.2724,-2.02907z" fill="url(#color-16)"/></g><path d="M272.01523,164.47958c0,-16.00402 12.97382,-28.97784 28.97784,-28.97784c16.00402,0 28.97784,12.97382 28.97784,28.97784c0,16.00402 -12.97382,28.97784 -28.97784,28.97784c-16.00402,0 -28.97784,-12.97382 -28.97784,-28.97784z" fill="url(#color-17)"/><path d="M310.02909,164.47958c0,-16.00402 12.97382,-28.97784 28.97784,-28.97784c16.00401,0 28.97784,12.97382 28.97784,28.97784c0,16.00402 -12.97382,28.97784 -28.97784,28.97784c-16.00401,0 -28.97784,-12.97382 -28.97784,-28.97784z" fill="url(#color-18)"/><path d="M170.33333,180c0,-82.6586 67.00805,-149.66667 149.66667,-149.66667c82.6586,0 149.66667,67.00805 149.66667,149.66667c0,82.6586 -67.00804,149.66667 -149.66667,149.66667c-82.6586,0 -149.66667,-67.00804 -149.66667,-149.66667z" fill="url(#color-19)"/></g></g></svg>