<svg version="1.1" xmlns="http://www.w3.org/2000/svg" xmlns:xlink="http://www.w3.org/1999/xlink" width="43.91514" height="40.86" viewBox="0,0,43.91514,40.86"><defs><radialGradient cx="315.33565" cy="173.69956" r="4.39751" gradientUnits="userSpaceOnUse" id="color-1"><stop offset="0" stop-color="#030303"/><stop offset="1" stop-color="#000000" stop-opacity="0.16078"/></radialGradient><radialGradient cx="315.33565" cy="173.69956" r="3.55313" gradientUnits="userSpaceOnUse" id="color-2"><stop offset="0" stop-color="#252525"/><stop offset="1" stop-color="#000000"/></radialGradient><radialGradient cx="315.33565" cy="173.69956" r="1.86037" gradientUnits="userSpaceOnUse" id="color-3"><stop offset="0" stop-color="#630000"/><stop offset="1" stop-color="#630000" stop-opacity="0"/></radialGradient><radialGradient cx="315.33565" cy="184.89468" r="3.3125" gradientUnits="userSpaceOnUse" id="color-4"><stop offset="0" stop-color="#030303"/><stop offset="1" stop-color="#000000" stop-opacity="0.16078"/></radialGradient><radialGradient cx="315.33565" cy="184.89468" r="2.67646" gradientUnits="userSpaceOnUse" id="color-5"><stop offset="0" stop-color="#252525"/><stop offset="1" stop-color="#000000"/></radialGradient><radialGradient cx="315.33565" cy="184.89468" r="1.40137" gradientUnits="userSpaceOnUse" id="color-6"><stop offset="0" stop-color="#630000"/><stop offset="1" stop-color="#630000" stop-opacity="0"/></radialGradient><radialGradient cx="324.42546" cy="174.52273" r="2.52411" gradientUnits="userSpaceOnUse" id="color-7"><stop offset="0" stop-color="#030303"/><stop offset="1" stop-color="#000000" stop-opacity="0.16078"/></radialGradient><radialGradient cx="324.42546" cy="174.52273" r="2.03945" gradientUnits="userSpaceOnUse" id="color-8"><stop offset="0" stop-color="#252525"/><stop offset="1" stop-color="#000000"/></radialGradient><radialGradient cx="324.42546" cy="174.52273" r="1.06783" gradientUnits="userSpaceOnUse" id="color-9"><stop offset="0" stop-color="#630000"/><stop offset="1" stop-color="#630000" stop-opacity="0"/></radialGradient><radialGradient cx="320.20014" cy="180.64912" r="2.00459" gradientUnits="userSpaceOnUse" id="color-10"><stop offset="0" stop-color="#030303"/><stop offset="1" stop-color="#000000" stop-opacity="0.16078"/></radialGradient><radialGradient cx="320.20014" cy="180.64912" r="1.61968" gradientUnits="userSpaceOnUse" id="color-11"><stop offset="0" stop-color="#252525"/><stop offset="1" stop-color="#000000"/></radialGradient><radialGradient cx="320.20014" cy="180.64912" r="0.84805" gradientUnits="userSpaceOnUse" id="color-12"><stop offset="0" stop-color="#630000"/><stop offset="1" stop-color="#630000" stop-opacity="0"/></radialGradient><radialGradient cx="320" cy="180" r="20.43" gradientUnits="userSpaceOnUse" id="color-13"><stop offset="0" stop-color="#8f0000" stop-opacity="0.5098"/><stop offset="1" stop-color="#8f0000" stop-opacity="0"/></radialGradient></defs><g transform="translate(-299.57,-159.57)"><g stroke-width="0" stroke-miterlimit="10"><path d="M309.97727,181.1422c0,-5.5354 4.48733,-10.02273 10.02273,-10.02273c5.5354,0 10.02273,4.48733 10.02273,10.02273c0,5.5354 -4.48733,10.02273 -10.02273,10.02273c-5.5354,0 -10.02273,-4.48733 -10.02273,-10.02273z" fill="#630000" stroke="#000000"/><g stroke="#000000"><path d="M310.93815,173.69956c0,-2.42868 1.96883,-4.39751 4.39751,-4.39751c2.42867,0 4.39751,1.96883 4.39751,4.39751c0,2.42868 -1.96883,4.39751 -4.39751,4.39751c-2.42867,0 -4.39751,-1.96883 -4.39751,-4.39751z" fill="url(#color-1)"/><path d="M311.78253,173.69956c0,-1.96234 1.59079,-3.55313 3.55313,-3.55313c1.96234,0 3.55313,1.59079 3.55313,3.55313c0,1.96234 -1.59079,3.55313 -3.55313,3.55313c-1.96234,0 -3.55313,-1.59079 -3.55313,-3.55313z" fill="url(#color-2)"/><path d="M314.83201,173.69956c0,-0.50256 0.22549,-0.90997 0.50366,-0.90997c0.27816,0 0.50365,0.40741 0.50365,0.90997c0,0.50256 -0.22549,0.90997 -0.50365,0.90997c-0.27816,0 -0.50366,-0.40741 -0.50366,-0.90997z" fill="#630000"/><path d="M314.99805,173.69956c0,-0.18646 0.15116,-0.33762 0.33762,-0.33762c0.18646,0 0.33761,0.15116 0.33761,0.33762c0,0.18646 -0.15115,0.33762 -0.33761,0.33762c-0.18646,0 -0.33762,-0.15116 -0.33762,-0.33762z" fill="#000000"/><path d="M313.47529,173.69956c0,-1.02745 0.83291,-1.86037 1.86036,-1.86037c1.02745,0 1.86037,0.83292 1.86037,1.86037c0,1.02745 -0.83292,1.86037 -1.86037,1.86037c-1.02745,0 -1.86036,-0.83292 -1.86036,-1.86037z" fill="url(#color-3)"/></g><g stroke="#000000"><path d="M312.02316,184.89468c0,-1.82945 1.48305,-3.3125 3.3125,-3.3125c1.82945,0 3.3125,1.48305 3.3125,3.3125c0,1.82945 -1.48305,3.3125 -3.3125,3.3125c-1.82945,0 -3.3125,-1.48305 -3.3125,-3.3125z" fill="url(#color-4)"/><path d="M312.6592,184.89468c0,-1.47817 1.19829,-2.67646 2.67646,-2.67646c1.47817,0 2.67646,1.19829 2.67646,2.67646c0,1.47817 -1.19829,2.67647 -2.67646,2.67647c-1.47817,0 -2.67646,-1.1983 -2.67646,-2.67647z" fill="url(#color-5)"/><path d="M314.95628,184.89468c0,-0.37856 0.16986,-0.68545 0.37939,-0.68545c0.20953,0 0.37938,0.30688 0.37938,0.68545c0,0.37856 -0.16985,0.68545 -0.37938,0.68545c-0.20953,0 -0.37939,-0.30688 -0.37939,-0.68545z" fill="#630000"/><path d="M315.08135,184.89468c0,-0.14045 0.11386,-0.25431 0.25431,-0.25431c0.14045,0 0.25431,0.11386 0.25431,0.25431c0,0.14045 -0.11386,0.25431 -0.25431,0.25431c-0.14045,0 -0.25431,-0.11386 -0.25431,-0.25431z" fill="#000000"/><path d="M313.9343,184.89468c0,-0.77395 0.6274,-1.40136 1.40136,-1.40136c0.77395,0 1.40137,0.6274 1.40137,1.40136c0,0.77395 -0.62741,1.40136 -1.40137,1.40136c-0.77395,0 -1.40136,-0.6274 -1.40136,-1.40136z" fill="url(#color-6)"/></g><g stroke="#000000"><path d="M321.90136,174.52273c0,-1.39403 1.13007,-2.52411 2.5241,-2.52411c1.39403,0 2.52411,1.13008 2.52411,2.52411c0,1.39403 -1.13008,2.52411 -2.52411,2.52411c-1.39403,0 -2.5241,-1.13008 -2.5241,-2.52411z" fill="url(#color-7)"/><path d="M322.38602,174.52273c0,-1.12635 0.91309,-2.03945 2.03944,-2.03945c1.12636,0 2.03945,0.9131 2.03945,2.03945c0,1.12635 -0.9131,2.03945 -2.03945,2.03945c-1.12636,0 -2.03944,-0.9131 -2.03944,-2.03945z" fill="url(#color-8)"/><path d="M324.13637,174.52273c0,-0.28846 0.12943,-0.52231 0.28909,-0.52231c0.15966,0 0.28909,0.23384 0.28909,0.52231c0,0.28846 -0.12943,0.52231 -0.28909,0.52231c-0.15966,0 -0.28909,-0.23384 -0.28909,-0.52231z" fill="#630000"/><path d="M324.23167,174.52273c0,-0.10703 0.08676,-0.19379 0.19379,-0.19379c0.10703,0 0.19379,0.08676 0.19379,0.19379c0,0.10703 -0.08676,0.19379 -0.19379,0.19379c-0.10703,0 -0.19379,-0.08676 -0.19379,-0.19379z" fill="#000000"/><path d="M323.35764,174.52273c0,-0.58975 0.47809,-1.06782 1.06782,-1.06782c0.58975,0 1.06783,0.47809 1.06783,1.06782c0,0.58975 -0.4781,1.06782 -1.06783,1.06782c-0.58975,0 -1.06782,-0.47809 -1.06782,-1.06782z" fill="url(#color-9)"/></g><g stroke="#000000"><path d="M318.19556,180.64912c0,-1.1071 0.89748,-2.00459 2.00458,-2.00459c1.1071,0 2.00459,0.89748 2.00459,2.00459c0,1.1071 -0.89748,2.00458 -2.00459,2.00458c-1.1071,0 -2.00458,-0.89748 -2.00458,-2.00458z" fill="url(#color-10)"/><path d="M318.58046,180.64912c0,-0.89452 0.72515,-1.61968 1.61968,-1.61968c0.89452,0 1.61968,0.72516 1.61968,1.61968c0,0.89452 -0.72515,1.61968 -1.61968,1.61968c-0.89452,0 -1.61968,-0.72515 -1.61968,-1.61968z" fill="url(#color-11)"/><path d="M319.97055,180.64912c0,-0.2291 0.10279,-0.41481 0.22959,-0.41481c0.1268,0 0.22959,0.18572 0.22959,0.41481c0,0.2291 -0.10279,0.4148 -0.22959,0.4148c-0.1268,0 -0.22959,-0.18571 -0.22959,-0.4148z" fill="#630000"/><path d="M320.04625,180.64912c0,-0.08499 0.0689,-0.1539 0.1539,-0.1539c0.085,0 0.1539,0.06891 0.1539,0.1539c0,0.08499 -0.0689,0.1539 -0.1539,0.1539c-0.085,0 -0.1539,-0.0689 -0.1539,-0.1539z" fill="#000000"/><path d="M319.3521,180.64912c0,-0.46836 0.37968,-0.84804 0.84804,-0.84804c0.46836,0 0.84805,0.37968 0.84805,0.84804c0,0.46836 -0.37969,0.84804 -0.84805,0.84804c-0.46836,0 -0.84804,-0.37968 -0.84804,-0.84804z" fill="url(#color-12)"/></g><g fill="#730000"><path d="M325.36014,180.64453c0,-1.10457 0.8431,-2 1.88312,-2h13.29951c1.04002,0 1.88312,0.89543 1.88312,2v2.625c0,1.10457 -0.8431,2 -1.88312,2h-13.29951c-1.04002,0 -1.88312,-0.89543 -1.88312,-2z" stroke="none"/><path d="M341.60202,183.89453v-3.875h1.88312v3.875z" stroke="#000000"/></g><path d="M299.57,180c0,-11.28317 9.14682,-20.43 20.43,-20.43c11.28318,0 20.43,9.14683 20.43,20.43c0,11.28318 -9.14682,20.43 -20.43,20.43c-11.28318,0 -20.43,-9.14683 -20.43,-20.43z" fill="url(#color-13)" stroke="#000000"/></g></g></svg>