<svg version="1.1" xmlns="http://www.w3.org/2000/svg" xmlns:xlink="http://www.w3.org/1999/xlink" width="43.75" height="33.72943" viewBox="0,0,43.75,33.72943"><g transform="translate(-298.125,-149.64558)"><g data-paper-data="{&quot;isPaintingLayer&quot;:true}" fill-rule="nonzero" stroke-linecap="butt" stroke-linejoin="miter" stroke-miterlimit="10" stroke-dasharray="" stroke-dashoffset="0" style="mix-blend-mode: normal"><path d="M300.03905,170.31282c0,-4.51869 0,-13.01338 0,-15.4348c0,-1.26567 2.60172,-2.61607 5.03442,-2.61607c4.74667,0 21.62775,0 30.06113,0c2.95133,0 4.86806,1.50665 4.86806,2.87768c0,2.332 0,9.82189 0,14.38837c0,2.15754 -3.14032,3.66249 -5.92905,3.66249c-4.94885,0 -21.23824,0 -29.3538,0c-2.84135,0 -4.68077,-1.14732 -4.68077,-2.87767z" fill-opacity="0.70196" fill="#000000" stroke="none" stroke-width="0"/><text transform="translate(320.02085,165.98402) scale(0.1148,0.1148)" font-size="40" xml:space="preserve" fill="#ffffff" fill-rule="nonzero" stroke="none" stroke-width="1" stroke-linecap="butt" stroke-linejoin="miter" stroke-miterlimit="10" stroke-dasharray="" stroke-dashoffset="0" font-family="&quot;MV Boli&quot;, Sans Serif" font-weight="normal" text-anchor="middle" style="mix-blend-mode: normal"><tspan x="0" dy="0">Press set key </tspan><tspan x="0" dy="48px">to use!</tspan></text><text transform="translate(308.49405,161.67008) scale(0.26019,0.26019)" font-size="40" xml:space="preserve" fill="#66ffff" fill-rule="nonzero" stroke="none" stroke-width="1" stroke-linecap="butt" stroke-linejoin="miter" stroke-miterlimit="10" stroke-dasharray="" stroke-dashoffset="0" font-family="&quot;MV Boli&quot;, Sans Serif" font-weight="normal" text-anchor="start" style="mix-blend-mode: normal"><tspan x="0" dy="0">Dash</tspan></text><path d="M301.125,182.37501c-1.10457,0 -2,-0.89543 -2,-2v-0.75c0,-1.10457 0.89543,-2 2,-2h37.75c1.10457,0 2,0.89543 2,2v0.75c0,1.10457 -0.89543,2 -2,2z" fill="#6d0000" stroke="#333333" stroke-width="2"/><path d="M301.01266,181.46063c-0.55928,0 -1.01266,-0.51178 -1.01266,-1.1431v-0.63505c0,-0.63132 0.45338,-1.1431 1.01266,-1.1431h37.97468c0.55928,0 1.01266,0.51178 1.01266,1.1431v0.63505c0,0.63132 -0.45338,1.1431 -1.01266,1.1431z" fill="#66ffff" stroke="none" stroke-width="0"/></g></g></svg>