<svg version="1.1" xmlns="http://www.w3.org/2000/svg" xmlns:xlink="http://www.w3.org/1999/xlink" width="69.94599" height="36.57319" viewBox="0,0,69.94599,36.57319"><defs><radialGradient cx="64.57487" cy="286.97557" r="10.55569" gradientUnits="userSpaceOnUse" id="color-1"><stop offset="0" stop-color="#0017c2"/><stop offset="1" stop-color="#00094f" stop-opacity="0.58039"/></radialGradient><radialGradient cx="64.57487" cy="286.97557" r="17.25141" gradientUnits="userSpaceOnUse" id="color-2"><stop offset="0" stop-color="#0017c2" stop-opacity="0.35294"/><stop offset="1" stop-color="#0017c2" stop-opacity="0"/></radialGradient></defs><g transform="translate(-12.85046,-268.21064)"><g data-paper-data="{&quot;isPaintingLayer&quot;:true}" fill-rule="nonzero" stroke-linecap="butt" stroke-linejoin="miter" stroke-miterlimit="10" stroke-dasharray="" stroke-dashoffset="0" style="mix-blend-mode: normal"><path d="M24.70541,303.24051c-5.71888,0 -10.35495,-4.13788 -10.35495,-9.24221v-15.04545c0,-5.10433 4.63607,-9.24221 10.35495,-9.24221h46.23609c5.71889,0 10.35495,4.13788 10.35495,9.24221v15.04545c0,5.10433 -4.63606,9.24221 -10.35495,9.24221z" fill-opacity="0.70196" fill="#000000" stroke="#ffffff" stroke-width="3"/><text transform="translate(32.42474,279.9629) scale(0.21832,0.21832)" font-size="40" xml:space="preserve" fill-opacity="0.9098" fill="#00631b" fill-rule="nonzero" stroke-opacity="0.9098" stroke="#00631b" stroke-width="1" stroke-linecap="butt" stroke-linejoin="miter" stroke-miterlimit="10" stroke-dasharray="" stroke-dashoffset="0" font-family="&quot;MV Boli&quot;, Technological" font-weight="normal" text-anchor="middle" style="mix-blend-mode: normal"><tspan x="0" dy="0">Ancient</tspan><tspan x="0" dy="48px">Power</tspan></text><g stroke="none"><path d="M64.57487,279.97798c5.82975,0 10.55569,3.13293 10.55569,6.9976c0,3.86466 -4.72594,6.9976 -10.55569,6.9976c-5.82975,0 -10.55569,-3.13293 -10.55569,-6.9976c0,-3.86466 4.72594,-6.9976 10.55569,-6.9976z" fill="#096b22" stroke-width="NaN"/><path d="M64.57486,281.91483c4.21616,0 7.63403,2.26577 7.63403,5.06075c0,2.79498 -3.41787,5.06076 -7.63403,5.06076c-4.21616,0 -7.63403,-2.26578 -7.63403,-5.06076c0,-2.79498 3.41786,-5.06075 7.63403,-5.06075z" fill="#009f29" stroke-width="NaN"/><path d="M64.57487,283.57496c2.83307,0 5.12974,1.5225 5.12974,3.40061c0,1.87811 -2.29666,3.40061 -5.12974,3.40061c-2.83307,0 -5.12974,-1.5225 -5.12974,-3.40061c0,-1.87811 2.29666,-3.40061 5.12974,-3.40061z" fill="#37d660" stroke-width="NaN"/><path d="M64.57487,279.97798c5.82975,0 10.55569,3.13293 10.55569,6.9976c0,3.86466 -4.72594,6.9976 -10.55569,6.9976c-5.82975,0 -10.55569,-3.13293 -10.55569,-6.9976c0,-3.86466 4.72594,-6.9976 10.55569,-6.9976z" fill="url(#color-1)" stroke-width="NaN"/><path d="M70.88054,283.57496c0.64946,0 1.17594,0.52648 1.17594,1.17593c0,0.64946 -0.52648,1.17594 -1.17594,1.17594c-0.64946,0 -1.17594,-0.52648 -1.17594,-1.17594c0,-0.64946 0.52648,-1.17593 1.17594,-1.17593z" fill="#000000" stroke-width="0"/><path d="M70.88054,288.02431c0.64946,0 1.17593,0.52648 1.17593,1.17594c0,0.64946 -0.52648,1.17594 -1.17593,1.17594c-0.64946,0 -1.17594,-0.52648 -1.17594,-1.17594c0,-0.64946 0.52648,-1.17594 1.17594,-1.17594z" fill="#000000" stroke-width="0"/><path d="M47.32346,286.97557c0,-9.52769 7.72372,-17.25141 17.25141,-17.25141c9.52769,0 17.25141,7.72372 17.25141,17.25141c0,9.52769 -7.72372,17.25141 -17.25141,17.25141c-9.52769,0 -17.25141,-7.72372 -17.25141,-17.25141z" fill="url(#color-2)" stroke-width="0"/></g><g fill="#ffffff" stroke="#ffffff" stroke-width="0" font-weight="normal" font-size="40" text-anchor="start"><text transform="translate(18.49699,299.39808) scale(0.21833,0.21833)" font-size="40" xml:space="preserve" fill="#ffffff" fill-rule="nonzero" stroke="#ffffff" stroke-width="0" stroke-linecap="butt" stroke-linejoin="miter" stroke-miterlimit="10" stroke-dasharray="" stroke-dashoffset="0" font-family="&quot;MV Boli&quot;, Technological" font-weight="normal" text-anchor="start" style="mix-blend-mode: normal"><tspan x="0" dy="0">Lv</tspan></text><text transform="translate(28.98934,299.41903) scale(0.3353,0.3353)" font-size="40" xml:space="preserve" fill="#ffffff" fill-rule="nonzero" stroke="#ffffff" stroke-width="0" stroke-linecap="butt" stroke-linejoin="miter" stroke-miterlimit="10" stroke-dasharray="" stroke-dashoffset="0" font-family="Handwriting" font-weight="normal" text-anchor="start" style="mix-blend-mode: normal"><tspan x="0" dy="0">.</tspan></text></g></g></g></svg>