<svg version="1.1" xmlns="http://www.w3.org/2000/svg" xmlns:xlink="http://www.w3.org/1999/xlink" width="38.5" height="57.6765" viewBox="0,0,38.5,57.6765"><defs><radialGradient cx="320" cy="180" r="19.25" gradientUnits="userSpaceOnUse" id="color-1"><stop offset="0" stop-color="#58bd33"/><stop offset="1" stop-color="#58bd33" stop-opacity="0"/></radialGradient><radialGradient cx="316.30001" cy="180.00003" r="3.78571" gradientUnits="userSpaceOnUse" id="color-2"><stop offset="0" stop-color="#2d7002" stop-opacity="0.46175"/><stop offset="1" stop-color="#2d7002" stop-opacity="0"/></radialGradient><radialGradient cx="323.50001" cy="180.00003" r="3.78571" gradientUnits="userSpaceOnUse" id="color-3"><stop offset="0" stop-color="#2d7002" stop-opacity="0.46175"/><stop offset="1" stop-color="#2d7002" stop-opacity="0"/></radialGradient><radialGradient cx="320" cy="180" r="8.6875" gradientUnits="userSpaceOnUse" id="color-4"><stop offset="0" stop-color="#58ef23"/><stop offset="1" stop-color="#618355"/></radialGradient><radialGradient cx="323.8125" cy="180.06666" r="11.6" gradientUnits="userSpaceOnUse" id="color-5"><stop offset="0" stop-color="#2c7002" stop-opacity="0.24314"/><stop offset="1" stop-color="#2c7002" stop-opacity="0"/></radialGradient><radialGradient cx="323.44341" cy="178.43212" r="5.43091" gradientUnits="userSpaceOnUse" id="color-6"><stop offset="0" stop-color="#2c7002" stop-opacity="0.24314"/><stop offset="1" stop-color="#2c7002" stop-opacity="0"/></radialGradient><radialGradient cx="324.33977" cy="181.70121" r="5.43091" gradientUnits="userSpaceOnUse" id="color-7"><stop offset="0" stop-color="#2c7002" stop-opacity="0.24314"/><stop offset="1" stop-color="#2c7002" stop-opacity="0"/></radialGradient><radialGradient cx="323.44341" cy="180.27757" r="5.43091" gradientUnits="userSpaceOnUse" id="color-8"><stop offset="0" stop-color="#2c7002" stop-opacity="0.24314"/><stop offset="1" stop-color="#2c7002" stop-opacity="0"/></radialGradient><radialGradient cx="324.33977" cy="177.4303" r="5.43091" gradientUnits="userSpaceOnUse" id="color-9"><stop offset="0" stop-color="#2c7002" stop-opacity="0.24314"/><stop offset="1" stop-color="#2c7002" stop-opacity="0"/></radialGradient><radialGradient cx="319.83062" cy="163.63652" r="15.96574" gradientUnits="userSpaceOnUse" id="color-10"><stop offset="0" stop-color="#00ff19" stop-opacity="0.50196"/><stop offset="1" stop-color="#00ff19" stop-opacity="0"/></radialGradient><radialGradient cx="319.83062" cy="160.46101" r="15.96574" gradientUnits="userSpaceOnUse" id="color-11"><stop offset="0" stop-color="#00ff19" stop-opacity="0.50196"/><stop offset="1" stop-color="#00ff19" stop-opacity="0"/></radialGradient><radialGradient cx="319.79251" cy="157.53924" r="15.96574" gradientUnits="userSpaceOnUse" id="color-12"><stop offset="0" stop-color="#00ff19" stop-opacity="0.50196"/><stop offset="1" stop-color="#00ff19" stop-opacity="0"/></radialGradient></defs><g transform="translate(-300.75,-141.57349)"><g data-paper-data="{&quot;isPaintingLayer&quot;:true}" fill-rule="nonzero" stroke-linejoin="miter" stroke-miterlimit="10" stroke-dasharray="" stroke-dashoffset="0" style="mix-blend-mode: normal"><path d="M300.75,180c0,-10.63148 8.61852,-19.25 19.25,-19.25c10.63148,0 19.25,8.61852 19.25,19.25c0,10.63148 -8.61852,19.25 -19.25,19.25c-10.63148,0 -19.25,-8.61852 -19.25,-19.25z" fill="url(#color-1)" stroke="#6e6e6e" stroke-width="0" stroke-linecap="butt"/><path d="" fill="#494949" stroke="#6e6e6e" stroke-width="1" stroke-linecap="butt"/><g><path d="" fill="none" stroke="#ffffff" stroke-width="2.5" stroke-linecap="round"/><path d="" fill="url(#color-2)" stroke="none" stroke-width="0" stroke-linecap="butt"/></g><g data-paper-data="{&quot;index&quot;:null}"><path d="" fill="none" stroke="#ffffff" stroke-width="2.5" stroke-linecap="round"/><path d="" fill="url(#color-3)" stroke="none" stroke-width="0" stroke-linecap="butt"/></g><path d="M311.3125,180c0,-4.79797 3.88953,-8.6875 8.6875,-8.6875c4.79797,0 8.6875,3.88953 8.6875,8.6875c0,4.79797 -3.88953,8.6875 -8.6875,8.6875c-4.79797,0 -8.6875,-3.88953 -8.6875,-8.6875z" fill="url(#color-4)" stroke="#7b9e72" stroke-width="1" stroke-linecap="butt"/><g stroke="none" stroke-linecap="butt"><path d="M323.8125,168.46666c6.4065,0 11.6,5.1935 11.6,11.6c0,6.4065 -5.1935,11.6 -11.6,11.6c-6.4065,0 -11.6,-5.1935 -11.6,-11.6c0,-6.4065 5.1935,-11.6 11.6,-11.6z" fill="url(#color-5)" stroke-width="0"/><path d="M321.99341,177.95757c0,-0.93186 0.75542,-1.68727 1.68727,-1.68727h0.26364c0.93186,0 1.68727,0.75542 1.68727,1.68727v4.21818c0,0.93186 -0.75542,1.68727 -1.68727,1.68727h-0.26364c-0.93186,0 -1.68727,-0.75542 -1.68727,-1.68727z" fill="#9ff4a8" stroke-width="NaN"/><path d="M323.44341,173.00121c2.99941,0 5.43091,2.4315 5.43091,5.43091c0,2.99941 -2.4315,5.43091 -5.43091,5.43091c-2.99941,0 -5.43091,-2.4315 -5.43091,-5.43091c0,-2.99941 2.4315,-5.43091 5.43091,-5.43091z" fill="url(#color-6)" stroke-width="0"/><path d="M324.33977,176.2703c2.99941,0 5.43091,2.4315 5.43091,5.43091c0,2.99941 -2.4315,5.43091 -5.43091,5.43091c-2.99941,0 -5.43091,-2.4315 -5.43091,-5.43091c0,-2.99941 2.4315,-5.43091 5.43091,-5.43091z" fill="url(#color-7)" stroke-width="0"/><path d="M323.44341,174.84666c2.99941,0 5.43091,2.4315 5.43091,5.43091c0,2.99941 -2.4315,5.43091 -5.43091,5.43091c-2.99941,0 -5.43091,-2.4315 -5.43091,-5.43091c0,-2.99941 2.4315,-5.43091 5.43091,-5.43091z" fill="url(#color-8)" stroke-width="0"/><path d="M324.33977,171.99939c2.99941,0 5.43091,2.4315 5.43091,5.43091c0,2.99941 -2.4315,5.43091 -5.43091,5.43091c-2.99941,0 -5.43091,-2.4315 -5.43091,-5.43091c0,-2.99941 2.4315,-5.43091 5.43091,-5.43091z" fill="url(#color-9)" stroke-width="0"/></g><text transform="translate(311.6125,185.33004) scale(0.37195,0.37195)" font-size="40" xml:space="preserve" fill="#00ff08" fill-rule="nonzero" stroke="none" stroke-width="1" stroke-linecap="butt" stroke-linejoin="miter" stroke-miterlimit="10" stroke-dasharray="" stroke-dashoffset="0" font-family="&quot;MV Boli&quot;, Technological" font-weight="normal" text-anchor="start" style="mix-blend-mode: normal"><tspan x="0" dy="0">+</tspan></text><g stroke="#ffffff" stroke-linecap="butt"><g><path d="M303.86488,163.63652c0,-8.81764 7.14811,-15.96574 15.96574,-15.96574c8.81764,0 15.96574,7.14811 15.96574,15.96574c0,8.81764 -7.14811,15.96574 -15.96574,15.96574c-8.81764,0 -15.96574,-7.14811 -15.96574,-15.96574z" fill="url(#color-10)" stroke-width="0"/><path d="M311.55026,165.91098c1.17457,-0.78149 5.56684,-3.70387 7.49924,-4.98959c0.56702,-0.37726 1.18607,-0.43808 1.62097,-0.14872c1.74148,1.15869 6.22614,4.14253 7.49924,4.98959c0.65339,0.43473 0.35983,0.91989 -0.64658,0.91989c-2.34931,0 -11.98115,0 -15.67792,0c-0.90474,0 -0.85855,-0.39617 -0.29495,-0.77117z" fill-opacity="0.50196" fill="#00ff19" stroke-width="1.5"/></g><g><path d="M303.86488,160.46101c0,-8.81764 7.14811,-15.96574 15.96574,-15.96574c8.81764,0 15.96574,7.14811 15.96574,15.96574c0,8.81764 -7.14811,15.96574 -15.96574,15.96574c-8.81764,0 -15.96574,-7.14811 -15.96574,-15.96574z" fill="url(#color-11)" stroke-width="0"/><path d="M311.55026,162.73547c1.17457,-0.78149 5.56684,-3.70387 7.49924,-4.98959c0.56702,-0.37726 1.18607,-0.43808 1.62097,-0.14872c1.74148,1.15869 6.22614,4.14253 7.49924,4.98959c0.65339,0.43473 0.35983,0.91989 -0.64658,0.91989c-2.34931,0 -11.98115,0 -15.67792,0c-0.90474,0 -0.85855,-0.39617 -0.29495,-0.77117z" fill-opacity="0.50196" fill="#00ff19" stroke-width="1.5"/></g><g><path d="M303.82677,157.53924c0,-8.81764 7.14811,-15.96574 15.96574,-15.96574c8.81764,0 15.96574,7.14811 15.96574,15.96574c0,8.81764 -7.14811,15.96574 -15.96574,15.96574c-8.81764,0 -15.96574,-7.14811 -15.96574,-15.96574z" fill="url(#color-12)" stroke-width="0"/><path d="M311.51215,159.8137c1.17457,-0.78149 5.56684,-3.70387 7.49924,-4.98959c0.56702,-0.37726 1.18607,-0.43808 1.62097,-0.14872c1.74148,1.15869 6.22614,4.14253 7.49924,4.98959c0.65339,0.43473 0.35983,0.91989 -0.64658,0.91989c-2.34931,0 -11.98115,0 -15.67792,0c-0.90474,0 -0.85855,-0.39617 -0.29495,-0.77117z" fill-opacity="0.50196" fill="#00ff19" stroke-width="1.5"/></g></g></g></g></svg>