<svg version="1.1" xmlns="http://www.w3.org/2000/svg" xmlns:xlink="http://www.w3.org/1999/xlink" width="59.68314" height="42.17506" viewBox="0,0,59.68314,42.17506"><defs><radialGradient cx="346.34543" cy="181.6875" r="12.25019" gradientUnits="userSpaceOnUse" id="color-1"><stop offset="0" stop-color="#980000"/><stop offset="1" stop-color="#980000" stop-opacity="0"/></radialGradient><radialGradient cx="320" cy="180" r="21.08753" gradientUnits="userSpaceOnUse" id="color-2"><stop offset="0" stop-color="#980000"/><stop offset="1" stop-color="#980000" stop-opacity="0"/></radialGradient><radialGradient cx="320.04837" cy="180.41336" r="3.6363" gradientUnits="userSpaceOnUse" id="color-3"><stop offset="0" stop-color="#030303"/><stop offset="1" stop-color="#000000" stop-opacity="0.16078"/></radialGradient><radialGradient cx="320.04837" cy="180.41336" r="2.93809" gradientUnits="userSpaceOnUse" id="color-4"><stop offset="0" stop-color="#252525"/><stop offset="1" stop-color="#000000"/></radialGradient><radialGradient cx="320.04837" cy="180.41336" r="1.53834" gradientUnits="userSpaceOnUse" id="color-5"><stop offset="0" stop-color="#630000"/><stop offset="1" stop-color="#630000" stop-opacity="0"/></radialGradient></defs><g transform="translate(-298.91247,-158.91247)"><g stroke-width="0" stroke-miterlimit="10"><g><path d="M345.26441,184.60219v-5.70563h4.68471v5.70563z" fill="#ab0000" stroke="#000000"/><path d="M341.27137,185.68487c-0.93641,0 -1.69551,-1.45281 -1.69551,-3.24495v-1.64128c0,-1.79213 0.75911,-3.24495 1.69551,-3.24495h4.63989c0.93641,0 1.69551,1.45281 1.69551,3.24495v1.64128c0,1.79213 -0.75911,3.24495 -1.69551,3.24495z" fill="#6a0000" stroke="none"/></g><path d="M328.50168,185.46537c-1.34392,0 -2.43338,-1.45281 -2.43338,-3.24495v-3.72366c0,-1.79213 1.08946,-3.24495 2.43338,-3.24495h3.38724c1.34392,0 2.43338,1.45281 2.43338,3.24495v3.72366c0,1.79213 -1.08946,3.24495 -2.43338,3.24495z" fill="#980000" stroke="none"/><path d="M322.70298,187.06264c0,-1.79213 1.08946,-3.24495 2.43338,-3.24495h3.16417c1.34392,0 2.43338,1.45281 2.43338,3.24495v4.21947c0,1.79213 -1.08946,3.24495 -2.43338,3.24495h-3.16417c-1.34392,0 -2.43338,-1.45281 -2.43338,-3.24495z" fill="#424242" stroke="none"/><path d="M322.70298,168.7179c0,-1.79213 1.08946,-3.24495 2.43338,-3.24495h3.16417c1.34392,0 2.43338,1.45281 2.43338,3.24495v4.21947c0,1.79213 -1.08946,3.24495 -2.43338,3.24495h-3.16417c-1.34392,0 -2.43338,-1.45281 -2.43338,-3.24495z" fill="#424242" stroke="none"/><path d="M320.04837,169.29234c4.47643,0 8.1053,4.83914 8.1053,10.80852c0,5.96939 -3.62887,10.80852 -8.1053,10.80852c-4.47643,0 -8.1053,-4.83914 -8.1053,-10.80852c0,-5.96939 3.62887,-10.80852 8.1053,-10.80852z" fill="#7c0000" stroke="#000000"/><path d="M317.29702,191.2821c0,1.79213 -1.08946,3.24495 -2.43338,3.24495h-3.16417c-1.34392,0 -2.43338,-1.45281 -2.43338,-3.24495v-4.21947c0,-1.79213 1.08946,-3.24495 2.43338,-3.24495h3.16417c1.34392,0 2.43338,1.45281 2.43338,3.24495z" fill="#424242" stroke="none"/><path d="M317.29702,172.93736c0,1.79213 -1.08946,3.24495 -2.43338,3.24495h-3.16417c-1.34392,0 -2.43338,-1.45281 -2.43338,-3.24495v-4.21947c0,-1.79213 1.08946,-3.24495 2.43338,-3.24495h3.16417c1.34392,0 2.43338,1.45281 2.43338,3.24495z" fill="#424242" stroke="none"/><path d="M316.33577,181.97919c-0.76277,0 -1.38111,-0.82457 -1.38111,-1.84173v-2.11343c0,-1.01716 0.61834,-1.84173 1.38111,-1.84173h1.92249c0.76277,0 1.38111,0.82457 1.38111,1.84173v2.11343c0,1.01716 -0.61834,1.84173 -1.38111,1.84173z" fill="#980000" stroke="none"/><path d="M321.02051,187.77608c-0.76277,0 -1.38111,-0.82457 -1.38111,-1.84173v-2.11343c0,-1.01716 0.61834,-1.84173 1.38111,-1.84173h1.92249c0.76277,0 1.38111,0.82457 1.38111,1.84173v2.11343c0,1.01716 -0.61834,1.84173 -1.38111,1.84173z" fill="#980000" stroke="none"/><path d="M320.185,176.18231c-0.76277,0 -1.38111,-0.82457 -1.38111,-1.84173v-2.11343c0,-1.01716 0.61834,-1.84173 1.38111,-1.84173h1.92249c0.76277,0 1.38111,0.82457 1.38111,1.84173v2.11343c0,1.01716 -0.61834,1.84173 -1.38111,1.84173z" fill="#980000" stroke="none"/><path d="M323.36286,181.97919c-0.76277,0 -1.38111,-0.82457 -1.38111,-1.84173v-2.11343c0,-1.01716 0.61834,-1.84173 1.38111,-1.84173h1.92249c0.76277,0 1.38111,0.82457 1.38111,1.84173v2.11343c0,1.01716 -0.61834,1.84173 -1.38111,1.84173z" fill="#980000" stroke="none"/><g><path d="M336.19561,186.21652v-4.66055h4.68471v4.66055z" fill="#6b2f2f" stroke="#000000"/><path d="M333.82956,183.88625c-1.34392,0 -2.43338,-1.45281 -2.43338,-3.24495v-1.64128c0,-1.79213 1.08946,-3.24495 2.43338,-3.24495h6.65911c1.34392,0 2.43338,1.45281 2.43338,3.24495v1.64128c0,1.79213 -1.08946,3.24495 -2.43338,3.24495z" fill="#6a0000" stroke="none"/></g><path d="M334.09523,181.6875c0,-6.76559 5.4846,-12.25019 12.25019,-12.25019c6.76559,0 12.25019,5.4846 12.25019,12.25019c0,6.76559 -5.4846,12.2502 -12.25019,12.2502c-6.76559,0 -12.25019,-5.4846 -12.25019,-12.2502z" fill="url(#color-1)" stroke="#000000"/><path d="M298.91247,180c0,-11.64632 9.44121,-21.08753 21.08753,-21.08753c11.64632,0 21.08753,9.44121 21.08753,21.08753c0,11.64632 -9.44121,21.08753 -21.08753,21.08753c-11.64632,0 -21.08753,-9.44121 -21.08753,-21.08753z" fill="url(#color-2)" stroke="#000000"/><g stroke="#000000"><path d="M316.41208,180.41336c0,-2.67805 1.62803,-4.84905 3.63629,-4.84905c2.00827,0 3.6363,2.17099 3.6363,4.84905c0,2.67805 -1.62803,4.84905 -3.6363,4.84905c-2.00827,0 -3.63629,-2.17099 -3.63629,-4.84905z" fill="url(#color-3)"/><path d="M317.11029,180.41336c0,-2.16384 1.31543,-3.91798 2.93809,-3.91798c1.62267,0 2.93809,1.75413 2.93809,3.91798c0,2.16384 -1.31543,3.91798 -2.93809,3.91798c-1.62267,0 -2.93809,-1.75413 -2.93809,-3.91798z" fill="url(#color-4)"/><path d="M319.63192,180.41336c0,-0.55415 0.18645,-1.00341 0.41647,-1.00341c0.23001,0 0.41647,0.44924 0.41647,1.00341c0,0.55415 -0.18645,1.00341 -0.41647,1.00341c-0.23001,0 -0.41647,-0.44924 -0.41647,-1.00341z" fill="#630000"/><path d="M319.7692,180.41336c0,-0.2056 0.125,-0.37229 0.27917,-0.37229c0.15419,0 0.27917,0.16667 0.27917,0.37229c0,0.2056 -0.12499,0.37229 -0.27917,0.37229c-0.15419,0 -0.27917,-0.16667 -0.27917,-0.37229z" fill="#000000"/><path d="M318.51003,180.41336c0,-1.13295 0.68874,-2.05141 1.53834,-2.05141c0.8496,0 1.53834,0.91845 1.53834,2.05141c0,1.13295 -0.68875,2.05141 -1.53834,2.05141c-0.8496,0 -1.53834,-0.91845 -1.53834,-2.05141z" fill="url(#color-5)"/></g></g></g></svg>