<svg version="1.1" xmlns="http://www.w3.org/2000/svg" xmlns:xlink="http://www.w3.org/1999/xlink" width="392.02014" height="265.98589" viewBox="0,0,392.02014,265.98589"><g transform="translate(4.45972,-78.41926)"><g data-paper-data="{&quot;isPaintingLayer&quot;:true}" fill-rule="nonzero" stroke-linecap="butt" stroke-linejoin="miter" stroke-miterlimit="10" stroke-dasharray="" stroke-dashoffset="0" style="mix-blend-mode: normal"><path d="M-1.45969,305.65711c0,-56.13369 0,-161.65954 0,-191.73963c0,-15.72281 10.05566,-32.49823 19.45809,-32.49823c18.34593,0 83.59142,0 116.1865,0c11.40691,0 18.8151,18.71633 18.8151,35.74803c0,28.96936 0,122.01298 0,178.74035c0,26.80223 -12.13733,45.49751 -22.91581,45.49751c-19.12738,0 -82.08602,0 -113.4527,0c-10.98184,0 -18.09121,-14.2527 -18.09121,-35.74802z" fill-opacity="0.70196" fill="#000000" stroke="#000000" stroke-width="6"/><text transform="translate(75.77014,96.08359) scale(0.31461,0.31461)" font-size="40" xml:space="preserve" fill-opacity="0.9098" fill="#ffffff" fill-rule="nonzero" stroke-opacity="0.9098" stroke="#ffffff" stroke-width="1" stroke-linecap="butt" stroke-linejoin="miter" stroke-miterlimit="10" stroke-dasharray="" stroke-dashoffset="0" font-family="&quot;MV Boli&quot;, Technological" font-weight="normal" text-anchor="middle" style="mix-blend-mode: normal"><tspan x="0" dy="0">Upgrading</tspan><tspan x="0" dy="48px">this for the</tspan><tspan x="0" dy="48px">first time</tspan><tspan x="0" dy="48px">grants all</tspan><tspan x="0" dy="48px">weapons a</tspan><tspan x="0" dy="48px">Charge Shot,</tspan><tspan x="0" dy="48px">which has a</tspan><tspan x="0" dy="48px">cooldown and</tspan><tspan x="0" dy="48px">deals extra</tspan><tspan x="0" dy="48px">damage</tspan><tspan x="0" dy="48px">Upgrading this</tspan><tspan x="0" dy="48px">further,</tspan><tspan x="0" dy="48px">decreases</tspan><tspan x="0" dy="48px">its cooldown</tspan><tspan x="0" dy="48px">time and</tspan><tspan x="0" dy="48px">increases its damage</tspan><tspan x="0" dy="48px">Right click to use</tspan></text><text transform="translate(253.94354,112.92551) scale(0.57646,0.57646)" font-size="40" xml:space="preserve" fill-opacity="0.9098" fill="#00631b" fill-rule="nonzero" stroke-opacity="0.9098" stroke="#00631b" stroke-width="1" stroke-linecap="butt" stroke-linejoin="miter" stroke-miterlimit="10" stroke-dasharray="" stroke-dashoffset="0" font-family="&quot;MV Boli&quot;, Technological" font-weight="normal" text-anchor="start" style="mix-blend-mode: normal"><tspan x="0" dy="0">Charge Shot</tspan></text></g></g></svg>