<svg version="1.1" xmlns="http://www.w3.org/2000/svg" xmlns:xlink="http://www.w3.org/1999/xlink" width="46.00002" height="47.87271" viewBox="0,0,46.00002,47.87271"><defs><radialGradient cx="320.0598" cy="180" r="17.01163" gradientUnits="userSpaceOnUse" id="color-1"><stop offset="0" stop-color="#4200ff"/><stop offset="1" stop-color="#4200ff" stop-opacity="0"/></radialGradient><radialGradient cx="320.0598" cy="180" r="17.01163" gradientUnits="userSpaceOnUse" id="color-2"><stop offset="0" stop-color="#ff0000"/><stop offset="1" stop-color="#ff0000" stop-opacity="0"/></radialGradient><radialGradient cx="320.0598" cy="180" r="11.85659" gradientUnits="userSpaceOnUse" id="color-3"><stop offset="0" stop-color="#ff0000"/><stop offset="1" stop-color="#ff0000" stop-opacity="0"/></radialGradient><radialGradient cx="316.08305" cy="180" r="17.01163" gradientUnits="userSpaceOnUse" id="color-4"><stop offset="0" stop-color="#4200ff"/><stop offset="1" stop-color="#4200ff" stop-opacity="0"/></radialGradient><radialGradient cx="316.08305" cy="180" r="17.01163" gradientUnits="userSpaceOnUse" id="color-5"><stop offset="0" stop-color="#ff0000"/><stop offset="1" stop-color="#ff0000" stop-opacity="0"/></radialGradient><radialGradient cx="316.08305" cy="180" r="11.85659" gradientUnits="userSpaceOnUse" id="color-6"><stop offset="0" stop-color="#ff0000"/><stop offset="1" stop-color="#ff0000" stop-opacity="0"/></radialGradient></defs><g transform="translate(-295.07142,-153.13893)"><g data-paper-data="{&quot;isPaintingLayer&quot;:true}" fill-rule="nonzero" stroke-linecap="butt" stroke-linejoin="miter" stroke-miterlimit="10" stroke-dasharray="" stroke-dashoffset="0" style="mix-blend-mode: normal"><g stroke-width="8"><path d="M303.04818,180c0,-9.39526 7.61636,-17.01163 17.01163,-17.01163c9.39526,0 17.01163,7.61636 17.01163,17.01163c0,9.39526 -7.61636,17.01163 -17.01163,17.01163c-9.39526,0 -17.01163,-7.61636 -17.01163,-17.01163z" fill="url(#color-1)" stroke="url(#color-2)"/><path d="M308.20321,180c0,-6.54822 5.30837,-11.85659 11.85659,-11.85659c6.54822,0 11.85659,5.30837 11.85659,11.85659c0,6.54822 -5.30837,11.85659 -11.85659,11.85659c-6.54822,0 -11.85659,-5.30837 -11.85659,-11.85659z" fill="none" stroke="url(#color-3)"/></g><g stroke-width="8"><path d="M299.07142,180c0,-9.39526 7.61636,-17.01163 17.01163,-17.01163c9.39526,0 17.01163,7.61636 17.01163,17.01163c0,9.39526 -7.61636,17.01163 -17.01163,17.01163c-9.39526,0 -17.01163,-7.61636 -17.01163,-17.01163z" fill="url(#color-4)" stroke="url(#color-5)"/><path d="M304.22646,180c0,-6.54821 5.30838,-11.85659 11.85659,-11.85659c6.54821,0 11.85659,5.30838 11.85659,11.85659c0,6.54821 -5.30838,11.85659 -11.85659,11.85659c-6.54821,0 -11.85659,-5.30838 -11.85659,-11.85659z" fill="none" stroke="url(#color-6)"/></g><text transform="translate(296.21043,162.83071) scale(0.20828,0.20828)" font-size="40" xml:space="preserve" fill="#00ff08" fill-rule="nonzero" stroke="#00ff09" stroke-width="2" stroke-linecap="butt" stroke-linejoin="miter" stroke-miterlimit="10" stroke-dasharray="" stroke-dashoffset="0" font-family="&quot;MV Boli&quot;, Technological" font-weight="normal" text-anchor="start" style="mix-blend-mode: normal"><tspan x="0" dy="0">Warp Gate</tspan></text></g></g></svg>