<svg version="1.1" xmlns="http://www.w3.org/2000/svg" xmlns:xlink="http://www.w3.org/1999/xlink" width="80.26483" height="38.5" viewBox="0,0,80.26483,38.5"><defs><radialGradient cx="170.38434" cy="188.19052" r="19.25" gradientUnits="userSpaceOnUse" id="color-1"><stop offset="0" stop-color="#205069"/><stop offset="1" stop-color="#205069" stop-opacity="0"/></radialGradient><radialGradient cx="170.38435" cy="183.35338" r="5.58052" gradientUnits="userSpaceOnUse" id="color-2"><stop offset="0" stop-color="#2c7da8"/><stop offset="1" stop-color="#49a2d1"/></radialGradient><radialGradient cx="170.38432" cy="193.02766" r="5.58052" gradientUnits="userSpaceOnUse" id="color-3"><stop offset="0" stop-color="#2c7da8"/><stop offset="1" stop-color="#49a2d1"/></radialGradient><radialGradient cx="165.54719" cy="188.26141" r="5.58052" gradientUnits="userSpaceOnUse" id="color-4"><stop offset="0" stop-color="#2c7da8"/><stop offset="1" stop-color="#49a2d1"/></radialGradient><radialGradient cx="175.22148" cy="188.26143" r="5.58052" gradientUnits="userSpaceOnUse" id="color-5"><stop offset="0" stop-color="#2c7da8"/><stop offset="1" stop-color="#49a2d1"/></radialGradient><radialGradient cx="170.37184" cy="188.26142" r="5.58051" gradientUnits="userSpaceOnUse" id="color-6"><stop offset="0" stop-color="#a1deff"/><stop offset="1" stop-color="#00a5ff"/></radialGradient><radialGradient cx="189.63435" cy="186.27401" r="10.81884" gradientUnits="userSpaceOnUse" id="color-7"><stop offset="0" stop-color="#ba0000" stop-opacity="0.3451"/><stop offset="1" stop-color="#ba0000" stop-opacity="0"/></radialGradient></defs><g transform="translate(-121.18836,-168.94052)"><g data-paper-data="{&quot;isPaintingLayer&quot;:true}" fill-rule="nonzero" stroke-linecap="butt" stroke-linejoin="miter" stroke-miterlimit="10" stroke-dasharray="" stroke-dashoffset="0" style="mix-blend-mode: normal"><path d="M133.04331,204.14098c-5.71888,0 -10.35495,-4.13788 -10.35495,-9.24221v-15.04545c0,-5.10433 4.63607,-9.24221 10.35495,-9.24221h46.23608c5.71889,0 10.35495,4.13788 10.35495,9.24221v15.04545c0,5.10433 -4.63607,9.24221 -10.35495,9.24221z" fill-opacity="0.70196" fill="#000000" stroke="#000000" stroke-width="3"/><text transform="translate(126.70794,181.73844) scale(0.21833,0.21833)" font-size="40" xml:space="preserve" fill-opacity="0.9098" fill="#00631b" fill-rule="nonzero" stroke-opacity="0.9098" stroke="#00631b" stroke-width="1" stroke-linecap="butt" stroke-linejoin="miter" stroke-miterlimit="10" stroke-dasharray="" stroke-dashoffset="0" font-family="&quot;MV Boli&quot;, Technological" font-weight="normal" text-anchor="start" style="mix-blend-mode: normal"><tspan x="0" dy="0">Defense</tspan></text><g><path d="M151.13434,188.19052c0,-10.63148 8.61852,-19.25 19.25,-19.25c10.63148,0 19.25,8.61852 19.25,19.25c0,10.63148 -8.61852,19.25 -19.25,19.25c-10.63148,0 -19.25,-8.61852 -19.25,-19.25z" fill="url(#color-1)" stroke="#6e6e6e" stroke-width="0"/><path d="M164.96283,187.01874c1.24437,-2.15531 3.83883,-6.64906 4.60198,-7.97086c0.41248,-0.71442 1.33146,-0.70718 1.74666,0.01196c0.73393,1.27121 3.14935,5.45484 4.44044,7.69107c0.49984,0.86574 0.09975,1.43961 -0.99025,1.43961c-2.732,0 -7.71674,0 -9.08436,0c-0.6833,0 -1.12688,-0.45746 -0.71447,-1.17178z" fill="url(#color-2)" stroke="#6fc5f2" stroke-width="0.5"/><path d="M175.80585,189.3623c-1.24437,2.15531 -3.83883,6.64906 -4.60198,7.97086c-0.41248,0.71442 -1.33146,0.70718 -1.74666,-0.01196c-0.73393,-1.27121 -3.14935,-5.45484 -4.44044,-7.69107c-0.49984,-0.86574 -0.09975,-1.43961 0.99025,-1.43961c2.732,0 7.71674,0 9.08436,0c0.6833,0 1.12688,0.45746 0.71447,1.17178z" fill="url(#color-3)" stroke="#6fc5f2" stroke-width="0.5"/><path d="M169.21256,193.68293c-2.15531,-1.24437 -6.64906,-3.83883 -7.97086,-4.60198c-0.71442,-0.41248 -0.70718,-1.33146 0.01196,-1.74666c1.27121,-0.73393 5.45484,-3.14935 7.69107,-4.44044c0.86574,-0.49984 1.43961,-0.09975 1.43961,0.99025c0,2.732 0,7.71674 0,9.08436c0,0.6833 -0.45746,1.12688 -1.17178,0.71447z" fill="url(#color-4)" stroke="#6fc5f2" stroke-width="0.5"/><path d="M171.55612,182.83992c2.15531,1.24437 6.64906,3.83883 7.97086,4.60198c0.71442,0.41248 0.70718,1.33146 -0.01196,1.74666c-1.27121,0.73393 -5.45484,3.14935 -7.69107,4.44044c-0.86574,0.49984 -1.43961,0.09975 -1.43961,-0.99025c0,-2.732 0,-7.71674 0,-9.08436c0,-0.6833 0.45746,-1.12688 1.17178,-0.71447z" fill="url(#color-5)" stroke="#6fc5f2" stroke-width="0.5"/><path d="M164.79132,188.26142c0,-3.08203 2.49849,-5.58052 5.58052,-5.58052c3.08203,0 5.58051,2.49849 5.58051,5.58052c0,3.08203 -2.49849,5.58051 -5.58051,5.58051c-3.08203,0 -5.58052,-2.49848 -5.58052,-5.58051z" fill="url(#color-6)" stroke="#72a2bb" stroke-width="0.5"/></g><g fill="#ffffff" stroke="#ffffff" stroke-width="0" font-weight="normal" font-size="40" text-anchor="start"><text transform="translate(126.70794,196.40825) scale(0.21833,0.21833)" font-size="40" xml:space="preserve" fill="#ffffff" fill-rule="nonzero" stroke="#ffffff" stroke-width="0" stroke-linecap="butt" stroke-linejoin="miter" stroke-miterlimit="10" stroke-dasharray="" stroke-dashoffset="0" font-family="&quot;MV Boli&quot;, Technological" font-weight="normal" text-anchor="start" style="mix-blend-mode: normal"><tspan x="0" dy="0">Lv</tspan></text><text transform="translate(137.20029,196.4292) scale(0.3353,0.3353)" font-size="40" xml:space="preserve" fill="#ffffff" fill-rule="nonzero" stroke="#ffffff" stroke-width="0" stroke-linecap="butt" stroke-linejoin="miter" stroke-miterlimit="10" stroke-dasharray="" stroke-dashoffset="0" font-family="Handwriting" font-weight="normal" text-anchor="start" style="mix-blend-mode: normal"><tspan x="0" dy="0">.</tspan></text></g><g><path d="M178.8155,186.27401c0,-5.97508 4.84377,-10.81885 10.81885,-10.81885c5.97508,0 10.81884,4.84377 10.81884,10.81885c0,5.97508 -4.84377,10.81885 -10.81884,10.81885c-5.97508,0 -10.81885,-4.84376 -10.81885,-10.81885z" fill="#000000" stroke="#000000" stroke-width="2"/><text transform="translate(185.39373,193.1353) scale(0.46866,0.46866)" font-size="40" xml:space="preserve" fill-opacity="0.70196" fill="#ff0000" fill-rule="nonzero" stroke="none" stroke-width="1" stroke-linecap="butt" stroke-linejoin="miter" stroke-miterlimit="10" stroke-dasharray="" stroke-dashoffset="0" font-family="&quot;MV Boli&quot;, Pixel" font-weight="normal" text-anchor="start" style="mix-blend-mode: normal"><tspan x="0" dy="0">!</tspan></text><path d="M178.8155,186.27401c0,-5.97508 4.84377,-10.81885 10.81885,-10.81885c5.97508,0 10.81884,4.84377 10.81884,10.81885c0,5.97508 -4.84377,10.81885 -10.81884,10.81885c-5.97508,0 -10.81885,-4.84376 -10.81885,-10.81885z" fill="url(#color-7)" stroke="#000000" stroke-width="0"/></g></g></g></svg>