<svg version="1.1" xmlns="http://www.w3.org/2000/svg" xmlns:xlink="http://www.w3.org/1999/xlink" width="64.25534" height="80.69146" viewBox="0,0,64.25534,80.69146"><defs><radialGradient cx="494.28103" cy="208.467" r="31.33333" gradientUnits="userSpaceOnUse" id="color-1"><stop offset="0" stop-color="#ff66b2" stop-opacity="0.29804"/><stop offset="1" stop-color="#ff66b2" stop-opacity="0"/></radialGradient><radialGradient cx="494.33304" cy="186.68976" r="31.28132" gradientUnits="userSpaceOnUse" id="color-2"><stop offset="0" stop-color="#ff66b2" stop-opacity="0.29804"/><stop offset="1" stop-color="#ff66b2" stop-opacity="0"/></radialGradient></defs><g transform="translate(-462.94775,-139.65432)"><g data-paper-data="{&quot;isPaintingLayer&quot;:true}" fill-rule="nonzero" stroke="none" stroke-linecap="butt" stroke-linejoin="miter" stroke-miterlimit="10" stroke-dasharray="" stroke-dashoffset="0" style="mix-blend-mode: normal"><path d="M464.64045,185.4962c0,-11.47564 0,-33.04873 0,-39.19813c0,-3.21429 4.07296,-6.64375 7.88134,-6.64375c7.43087,0 33.85802,0 47.06039,0c4.62028,0 7.62091,3.82626 7.62091,7.30813c0,5.92232 0,24.94361 0,36.54062c0,5.47929 -4.91613,9.30125 -9.28186,9.30125c-7.74739,0 -33.24827,0 -45.95309,0c-4.44811,0 -7.32769,-2.91373 -7.32769,-7.30812z" fill-opacity="0.2" fill="#c70063" stroke-width="0"/><path d="M514.20805,186.68976c0,1.79493 -8.89834,3.25 -19.875,3.25c-10.97666,0 -19.875,-1.45507 -19.875,-3.25c0,-1.79493 8.89834,-3.25 19.875,-3.25c10.97666,0 19.875,1.45507 19.875,3.25z" fill="#ff66b2" stroke-width="0"/><path d="M462.94775,220.34578v-23.75758h62.66667v23.75758z" fill="url(#color-1)" stroke-width="0"/><text transform="translate(469.50435,216.33867) scale(0.16964,0.16964)" font-size="40" xml:space="preserve" fill-opacity="0.29804" fill="#ff66b2" fill-rule="nonzero" stroke="none" stroke-width="1" stroke-linecap="butt" stroke-linejoin="miter" stroke-miterlimit="10" stroke-dasharray="" stroke-dashoffset="0" font-family="&quot;MV Boli&quot;, Sans Serif" font-weight="normal" text-anchor="start" style="mix-blend-mode: normal"><tspan x="0" dy="0">Ancient matter</tspan></text><text transform="translate(484.03626,208.81674) scale(0.29052,0.29052)" font-size="40" xml:space="preserve" fill-opacity="0.68627" fill="#9dc0eb" fill-rule="nonzero" stroke="none" stroke-width="1" stroke-linecap="butt" stroke-linejoin="miter" stroke-miterlimit="10" stroke-dasharray="" stroke-dashoffset="0" font-family="&quot;MV Boli&quot;, Sans Serif" font-weight="normal" text-anchor="start" style="mix-blend-mode: normal"><tspan x="0" dy="0">180</tspan></text><text transform="translate(466.22912,170.49599) scale(0.29626,0.35556)" font-size="40" xml:space="preserve" fill="#c70065" fill-rule="nonzero" stroke="none" stroke-width="1" stroke-linecap="butt" stroke-linejoin="miter" stroke-miterlimit="10" stroke-dasharray="" stroke-dashoffset="0" font-family="&quot;MV Boli&quot;, Sans Serif" font-weight="normal" text-anchor="start" style="mix-blend-mode: normal"><tspan x="0" dy="0">Force Field</tspan></text><path d="M463.05179,186.68976c0,-17.2762 14.00512,-31.28132 31.28132,-31.28132c17.2762,0 31.28132,14.00512 31.28132,31.28132c0,17.2762 -14.00512,31.28132 -31.28132,31.28132c-17.2762,0 -31.28132,-14.00512 -31.28132,-31.28132z" fill="url(#color-2)" stroke-width="0"/></g></g></svg>