<svg version="1.1" xmlns="http://www.w3.org/2000/svg" xmlns:xlink="http://www.w3.org/1999/xlink" width="37.9857" height="37.9857" viewBox="0,0,37.9857,37.9857"><defs><radialGradient cx="320.00001" cy="180" r="11.40628" gradientUnits="userSpaceOnUse" id="color-1"><stop offset="0" stop-color="#4200ff"/><stop offset="1" stop-color="#4200ff" stop-opacity="0"/></radialGradient><radialGradient cx="320.00001" cy="180" r="11.40628" gradientUnits="userSpaceOnUse" id="color-2"><stop offset="0" stop-color="#ff0000"/><stop offset="1" stop-color="#ff0000" stop-opacity="0"/></radialGradient><radialGradient cx="320" cy="180" r="14.99285" gradientUnits="userSpaceOnUse" id="color-3"><stop offset="0" stop-color="#ff0000"/><stop offset="1" stop-color="#ff0000" stop-opacity="0"/></radialGradient></defs><g transform="translate(-301.00716,-161.00715)"><g data-paper-data="{&quot;isPaintingLayer&quot;:true}" fill-rule="nonzero" stroke-linecap="butt" stroke-linejoin="miter" stroke-miterlimit="10" stroke-dasharray="" stroke-dashoffset="0" style="mix-blend-mode: normal"><path d="M308.59373,180c0,-6.29952 5.10676,-11.40628 11.40628,-11.40628c6.29952,0 11.40628,5.10676 11.40628,11.40628c0,6.29952 -5.10676,11.40628 -11.40628,11.40628c-6.29952,0 -11.40628,-5.10676 -11.40628,-11.40628z" fill="url(#color-1)" stroke="url(#color-2)" stroke-width="8"/><path d="M305.00716,180c0,-8.28033 6.71252,-14.99285 14.99285,-14.99285c8.28033,0 14.99285,6.71252 14.99285,14.99285c0,8.28033 -6.71252,14.99285 -14.99285,14.99285c-8.28033,0 -14.99285,-6.71252 -14.99285,-14.99285z" fill="none" stroke="url(#color-3)" stroke-width="8"/><text transform="translate(304.01815,165.72681) scale(0.09658,0.09658)" font-size="40" xml:space="preserve" fill="#ffffff" fill-rule="nonzero" stroke="none" stroke-width="1" stroke-linecap="butt" stroke-linejoin="miter" stroke-miterlimit="10" stroke-dasharray="" stroke-dashoffset="0" font-family="&quot;MV Boli&quot;, Technological" font-weight="normal" text-anchor="start" style="mix-blend-mode: normal"><tspan x="0" dy="0">Warp Gate Guard</tspan></text></g></g></svg>