<svg version="1.1" xmlns="http://www.w3.org/2000/svg" xmlns:xlink="http://www.w3.org/1999/xlink" width="364" height="377.02668" viewBox="0,0,364,377.02668"><defs><radialGradient cx="320" cy="143.26681" r="182" gradientUnits="userSpaceOnUse" id="color-1"><stop offset="0" stop-color="#331f47" stop-opacity="0.43922"/><stop offset="1" stop-color="#331f47" stop-opacity="0"/></radialGradient><radialGradient cx="354.15754" cy="213.04786" r="2.03346" gradientUnits="userSpaceOnUse" id="color-2"><stop offset="0" stop-color="#ffffff"/><stop offset="1" stop-color="#ffffff" stop-opacity="0"/></radialGradient><radialGradient cx="365.28806" cy="213.04786" r="2.03346" gradientUnits="userSpaceOnUse" id="color-3"><stop offset="0" stop-color="#ffffff"/><stop offset="1" stop-color="#ffffff" stop-opacity="0"/></radialGradient><radialGradient cx="359.87258" cy="215.08134" r="25.0487" gradientUnits="userSpaceOnUse" id="color-4"><stop offset="0" stop-color="#81e8fc" stop-opacity="0.48235"/><stop offset="1" stop-color="#81e8fc" stop-opacity="0"/></radialGradient><linearGradient x1="291.60206" y1="189.23797" x2="291.60206" y2="236.49326" gradientUnits="userSpaceOnUse" id="color-5"><stop offset="0" stop-color="#534278"/><stop offset="1" stop-color="#342448"/></linearGradient><linearGradient x1="279.10891" y1="191.63113" x2="279.10891" y2="194.04312" gradientUnits="userSpaceOnUse" id="color-6"><stop offset="0" stop-color="#493561"/><stop offset="1" stop-color="#0d021a"/></linearGradient><radialGradient cx="281.49371" cy="205.06907" r="35.75899" gradientUnits="userSpaceOnUse" id="color-7"><stop offset="0" stop-color="#483766" stop-opacity="0.2902"/><stop offset="1" stop-color="#483766" stop-opacity="0"/></radialGradient></defs><g transform="translate(-138,51.75987)"><g data-paper-data="{&quot;isPaintingLayer&quot;:true}" fill-rule="nonzero" stroke-linecap="butt" stroke-linejoin="miter" stroke-miterlimit="10" stroke-dasharray="" stroke-dashoffset="0" style="mix-blend-mode: normal"><text transform="translate(174.34237,167.98837) scale(2.06013,2.06013)" font-size="40" xml:space="preserve" fill="#332048" fill-rule="nonzero" stroke="none" stroke-width="1" stroke-linecap="butt" stroke-linejoin="miter" stroke-miterlimit="10" stroke-dasharray="" stroke-dashoffset="0" font-family="&quot;MV Boli&quot;, Pixel" font-weight="normal" text-anchor="start" style="mix-blend-mode: normal"><tspan x="0" dy="0">Wave 6</tspan></text><path d="M138,143.26681c0,-100.51582 81.48418,-182 182,-182c100.51582,0 182,81.48418 182,182c0,100.51582 -81.48418,182 -182,182c-100.51582,0 -182,-81.48418 -182,-182z" fill="url(#color-1)" stroke="none" stroke-width="0"/><text transform="translate(180.27076,94.53361) scale(0.5,0.5)" font-size="40" xml:space="preserve" fill="#66eeff" fill-rule="nonzero" stroke="none" stroke-width="1" stroke-linecap="butt" stroke-linejoin="miter" stroke-miterlimit="10" stroke-dasharray="" stroke-dashoffset="0" font-family="Pixel" font-weight="normal" text-anchor="start" style="mix-blend-mode: normal"><tspan x="0" dy="0"> </tspan></text><text transform="translate(139.27076,10.53361) scale(0.5,0.5)" font-size="40" xml:space="preserve" fill="#6668ff" fill-rule="nonzero" stroke="none" stroke-width="1" stroke-linecap="butt" stroke-linejoin="miter" stroke-miterlimit="10" stroke-dasharray="" stroke-dashoffset="0" font-family="Pixel" font-weight="normal" text-anchor="start" style="mix-blend-mode: normal"><tspan x="0" dy="0"> </tspan></text><text transform="translate(197.27076,13.53361) scale(0.5,0.5)" font-size="40" xml:space="preserve" fill="#ddff66" fill-rule="nonzero" stroke="none" stroke-width="1" stroke-linecap="butt" stroke-linejoin="miter" stroke-miterlimit="10" stroke-dasharray="" stroke-dashoffset="0" font-family="Pixel" font-weight="normal" text-anchor="start" style="mix-blend-mode: normal"><tspan x="0" dy="0"> </tspan></text><text transform="translate(180.27074,57.53361) scale(0.5,0.5)" font-size="40" xml:space="preserve" fill="#66eeff" fill-rule="nonzero" stroke="none" stroke-width="1" stroke-linecap="butt" stroke-linejoin="miter" stroke-miterlimit="10" stroke-dasharray="" stroke-dashoffset="0" font-family="Pixel" font-weight="normal" text-anchor="start" style="mix-blend-mode: normal"><tspan x="0" dy="0"> </tspan></text><text transform="translate(139.27074,-26.46639) scale(0.5,0.5)" font-size="40" xml:space="preserve" fill="#6668ff" fill-rule="nonzero" stroke="none" stroke-width="1" stroke-linecap="butt" stroke-linejoin="miter" stroke-miterlimit="10" stroke-dasharray="" stroke-dashoffset="0" font-family="Pixel" font-weight="normal" text-anchor="start" style="mix-blend-mode: normal"><tspan x="0" dy="0"> </tspan></text><text transform="translate(259.0787,262.1098) scale(0.5,0.5)" font-size="40" xml:space="preserve" fill="#13f200" fill-rule="nonzero" stroke="none" stroke-width="1" stroke-linecap="butt" stroke-linejoin="miter" stroke-miterlimit="10" stroke-dasharray="" stroke-dashoffset="0" font-family="&quot;MV Boli&quot;, Pixel" font-weight="normal" text-anchor="start" style="mix-blend-mode: normal"><tspan x="0" dy="0">100%</tspan></text><text transform="translate(334.7162,261.67375) scale(0.5,0.5)" font-size="40" xml:space="preserve" fill="#4d4d4d" fill-rule="nonzero" stroke="none" stroke-width="1" stroke-linecap="butt" stroke-linejoin="miter" stroke-miterlimit="10" stroke-dasharray="" stroke-dashoffset="0" font-family="&quot;MV Boli&quot;, Pixel" font-weight="normal" text-anchor="start" style="mix-blend-mode: normal"><tspan x="0" dy="0">100%</tspan></text><g stroke="none" stroke-width="0"><path d="M348.64087,213.04786v4.06692l-13.92467,-2.03346z" fill="#80e7fc"/><path d="M370.67631,217.11478v-4.06692l13.92467,2.03346z" fill="#80e7fc"/><path d="M357.83918,226.02988h4.06692l-2.03346,13.92467z" fill="#80e7fc"/><path d="M361.90604,203.56632h-4.06692l2.03346,-13.92467z" fill="#80e7fc"/><path d="M348.09997,215.08132c0,-6.50187 5.27079,-11.77267 11.77266,-11.77267c6.50187,0 11.77266,5.2708 11.77266,11.77267c0,6.50187 -5.2708,11.77266 -11.77266,11.77266c-6.50187,0 -11.77266,-5.27079 -11.77266,-11.77266z" fill="#4d4d4d"/><path d="M352.12408,213.04786c0,-1.12305 0.91041,-2.03346 2.03346,-2.03346c1.12305,0 2.03346,0.91041 2.03346,2.03346c0,1.12305 -0.91041,2.03346 -2.03346,2.03346c-1.12305,0 -2.03346,-0.91041 -2.03346,-2.03346z" fill="url(#color-2)"/><path d="M363.2546,213.04786c0,-1.12305 0.91041,-2.03346 2.03346,-2.03346c1.12305,0 2.03346,0.91041 2.03346,2.03346c0,1.12305 -0.91041,2.03346 -2.03346,2.03346c-1.12305,0 -2.03346,-0.91041 -2.03346,-2.03346z" fill="url(#color-3)"/><path d="M359.87258,190.03263c13.83402,0 25.0487,11.21468 25.0487,25.04871c0,13.83403 -11.21467,25.0487 -25.0487,25.0487c-13.83402,0 -25.04871,-11.21466 -25.04871,-25.0487c0,-13.83401 11.21468,-25.04871 25.04871,-25.04871z" fill="url(#color-4)"/></g><text transform="translate(180.27075,94.5336) scale(0.5,0.5)" font-size="40" xml:space="preserve" fill="#66eeff" fill-rule="nonzero" stroke="none" stroke-width="1" stroke-linecap="butt" stroke-linejoin="miter" stroke-miterlimit="10" stroke-dasharray="" stroke-dashoffset="0" font-family="Pixel" font-weight="normal" text-anchor="start" style="mix-blend-mode: normal"><tspan x="0" dy="0"> </tspan></text><text transform="translate(197.27075,13.5336) scale(0.5,0.5)" font-size="40" xml:space="preserve" fill="#ddff66" fill-rule="nonzero" stroke="none" stroke-width="1" stroke-linecap="butt" stroke-linejoin="miter" stroke-miterlimit="10" stroke-dasharray="" stroke-dashoffset="0" font-family="Pixel" font-weight="normal" text-anchor="start" style="mix-blend-mode: normal"><tspan x="0" dy="0"> </tspan></text><path d="M255.15286,211.07664l0.46212,-11.55301c0,0 2.73857,2.3106 4.67555,2.3106c2.81233,0 10.34336,0 10.34336,0v7.39392c0,0 -8.46688,0 -11.2676,0c-1.66504,0 -4.21343,1.84848 -4.21343,1.84848z" fill="#2e1267" stroke="none" stroke-width="0"/><path d="M304.24641,223.84542c0,0 0.52512,0.0677 1.06146,1.20201c0.3917,0.82841 1.80131,2.12672 3.08156,3.19493c1.21574,1.01438 9.02708,2.60684 9.02708,2.60684c0,0 -8.31293,-1.50079 -9.99058,-2.36971c-1.47679,-0.76488 -3.01323,-1.64886 -3.57001,-2.2689c-0.86792,-0.96653 -2.25195,-2.50781 -2.25195,-2.50781l1.17907,0.21965z" data-paper-data="{&quot;index&quot;:null}" fill="#2e1267" stroke="none" stroke-width="0"/><path d="M293.24523,223.10358c0,0 0.8332,1.76214 1.36954,2.89645c0.3917,0.82841 1.80131,2.12672 3.08156,3.19493c1.21574,1.01438 9.02708,2.60684 9.02708,2.60684c0,0 -8.31293,-1.50079 -9.99058,-2.36971c-1.47679,-0.76488 -3.01323,-1.64886 -3.57001,-2.2689c-0.86792,-0.96653 -2.25195,-2.50781 -2.25195,-2.50781l2.33437,-1.55181z" data-paper-data="{&quot;index&quot;:null}" fill="#2e1267" stroke="none" stroke-width="0"/><path d="M286.97119,223.99006c0,0 0.52889,1.87607 0.86935,3.08371c0.24865,0.88197 1.42299,2.39641 2.508,3.66245c1.03034,1.20225 8.4686,4.07021 8.4686,4.07021c0,0 -7.94811,-2.86089 -9.45811,-3.99643c-1.32921,-0.99957 -2.69745,-2.12651 -3.1435,-2.83043c-0.6953,-1.09728 -1.80406,-2.84707 -1.80406,-2.84707l2.55972,-1.14246z" data-paper-data="{&quot;index&quot;:null}" fill="#2e1267" stroke="none" stroke-width="0"/><path d="M294.5143,224.7965l-2.0187,-1.94479c0,0 1.63769,-1.26849 2.66468,-2.06395c0.65883,-0.5103 2.32875,-1.10482 3.91864,-1.59285c1.80615,-0.55441 10.25346,-0.54213 10.25346,-0.54213c0,0 -7.97025,0.16775 -9.348,0.94799c-1.45086,0.82165 -3.0702,1.84652 -3.60393,2.59138c-0.73082,1.01991 -1.86614,2.60434 -1.86614,2.60434z" fill="#2e1267" stroke="none" stroke-width="0"/><path d="M299.15888,224.72215l-1.19679,-2.26444c0,0 1.78366,-0.63334 2.90219,-1.0305c0.71755,-0.25479 2.33673,-0.29395 3.85604,-0.26353c1.72596,0.03455 9.05432,2.45738 9.05432,2.45738c0,0 -6.9657,-2.13035 -8.38433,-1.84656c-1.49391,0.29886 -3.19207,0.72598 -3.86803,1.22008c-0.92556,0.67655 -2.3634,1.72756 -2.3634,1.72756z" fill="#2e1267" stroke="none" stroke-width="0"/><path d="M289.27863,223.87226l-2.01871,-1.94479c0,0 1.63769,-1.26849 2.66468,-2.06395c0.65883,-0.5103 2.32875,-1.10482 3.91864,-1.59285c1.80615,-0.55441 10.25346,-0.54213 10.25346,-0.54213c0,0 -7.97025,0.16775 -9.348,0.94799c-1.45086,0.82165 -3.0702,1.84652 -3.60393,2.59138c-0.73082,1.01991 -1.86613,2.60434 -1.86613,2.60434z" fill="#2e1267" stroke="none" stroke-width="0"/><path d="M281.57058,233.91642l0.21307,1.86669c0,0 -1.38776,-0.04353 -2.25802,-0.07082c-0.55828,-0.01751 -1.67501,-0.42308 -2.70494,-0.84953c-1.17001,-0.48445 -5.53008,-4.0965 -5.53008,-4.0965c0,0 4.19038,3.31539 5.23541,3.50028c1.10048,0.19469 2.37477,0.35628 2.96853,0.19918c0.81301,-0.21511 2.07602,-0.54929 2.07602,-0.54929z" fill="#2e1267" stroke="none" stroke-width="0"/><path d="M281.45505,231.40799l0.21307,1.86669c0,0 -1.38776,-0.04353 -2.25802,-0.07082c-0.55828,-0.01751 -1.67501,-0.42308 -2.70494,-0.84953c-1.17001,-0.48445 -5.53008,-4.0965 -5.53008,-4.0965c0,0 4.19038,3.31539 5.23541,3.50028c1.10048,0.19469 2.37477,0.35628 2.96853,0.19918c0.81301,-0.21511 2.07602,-0.54929 2.07602,-0.54929z" fill="#2e1267" stroke="none" stroke-width="0"/><path d="M281.45505,231.40799l0.21307,1.86669c0,0 -1.38776,-0.04353 -2.25802,-0.07082c-0.55828,-0.01751 -1.67501,-0.42308 -2.70494,-0.84953c-1.17001,-0.48445 -5.53008,-4.0965 -5.53008,-4.0965c0,0 4.19038,3.31539 5.23541,3.50028c1.10048,0.19469 2.37477,0.35628 2.96853,0.19918c0.81301,-0.21511 2.07602,-0.54929 2.07602,-0.54929z" fill="#2e1267" stroke="none" stroke-width="0"/><path d="M313.5461,207.2091c0,0 0.52512,0.0677 1.06146,1.20201c0.3917,0.82841 1.80132,2.12672 3.08156,3.19493c1.21574,1.01438 9.02708,2.60684 9.02708,2.60684c0,0 -8.31293,-1.50079 -9.99058,-2.3697c-1.47679,-0.76488 -3.01323,-1.64886 -3.57001,-2.2689c-0.86792,-0.96653 -2.25195,-2.50781 -2.25195,-2.50781l1.17907,0.21965z" data-paper-data="{&quot;index&quot;:null}" fill="#2e1267" stroke="none" stroke-width="0"/><path d="M302.54491,206.46725c0,0 0.8332,1.76214 1.36954,2.89645c0.3917,0.82841 1.80131,2.12672 3.08156,3.19493c1.21574,1.01438 9.02708,2.60684 9.02708,2.60684c0,0 -8.31293,-1.50079 -9.99058,-2.36971c-1.47679,-0.76488 -3.01323,-1.64886 -3.57001,-2.2689c-0.86792,-0.96653 -2.25195,-2.50781 -2.25195,-2.50781l2.33437,-1.55181z" data-paper-data="{&quot;index&quot;:null}" fill="#2e1267" stroke="none" stroke-width="0"/><path d="M296.27087,207.35374c0,0 0.52889,1.87607 0.86935,3.08371c0.24865,0.88197 1.42299,2.39641 2.508,3.66245c1.03034,1.20225 8.4686,4.07021 8.4686,4.07021c0,0 -7.94811,-2.86089 -9.45811,-3.99643c-1.32921,-0.99957 -2.69745,-2.12651 -3.1435,-2.83043c-0.6953,-1.09728 -1.80406,-2.84706 -1.80406,-2.84706l2.55972,-1.14246z" data-paper-data="{&quot;index&quot;:null}" fill="#2e1267" stroke="none" stroke-width="0"/><path d="M311.73612,207.30014l-1.17907,0.21965c0,0 1.38403,-1.54128 2.25195,-2.50781c0.55678,-0.62004 2.09323,-1.50402 3.57001,-2.2689c1.67765,-0.86892 9.99058,-2.36971 9.99058,-2.36971c0,0 -7.81134,1.59246 -9.02708,2.60684c-1.28025,1.06821 -2.68986,2.36652 -3.08156,3.19493c-0.53634,1.13431 -1.06146,1.20201 -1.06146,1.20201z" fill="#2e1267" stroke="none" stroke-width="0"/><path d="M302.19832,208.119l-2.33437,-1.55181c0,0 1.38403,-1.54128 2.25195,-2.50781c0.55678,-0.62004 2.09323,-1.50402 3.57001,-2.2689c1.67765,-0.86892 9.99058,-2.3697 9.99058,-2.3697c0,0 -7.81134,1.59246 -9.02708,2.60684c-1.28025,1.06821 -2.68986,2.36652 -3.08156,3.19493c-0.53634,1.13431 -1.36954,2.89645 -1.36954,2.89645z" fill="#2e1267" stroke="none" stroke-width="0"/><path d="M295.92428,207.23252l-2.55972,-1.14246c0,0 1.10876,-1.74978 1.80406,-2.84707c0.44605,-0.70392 1.81429,-1.83086 3.1435,-2.83043c1.51,-1.13554 9.45811,-3.99643 9.45811,-3.99643c0,0 -7.43826,2.86797 -8.4686,4.07021c-1.08501,1.26605 -2.25935,2.78049 -2.508,3.66245c-0.34046,1.20764 -0.86935,3.08371 -0.86935,3.08371z" fill="#2e1267" stroke="none" stroke-width="0"/><path d="M280.02982,190.29422l-2.7995,0.14208c0,0 0.19505,-2.06229 0.31737,-3.35555c0.07847,-0.82964 0.78717,-2.45439 1.51881,-3.94793c0.83115,-1.69668 2.72328,-3.27639 2.72328,-3.27639c0,0 -1.43448,1.35488 -1.80784,2.89358c-0.39317,1.62035 -0.75337,3.5026 -0.57518,4.40146c0.244,1.23076 0.62306,3.14275 0.62306,3.14275z" fill="#413658" stroke="none" stroke-width="0"/><path d="M277.75009,190.17869l-2.7995,0.14208c0,0 0.19505,-2.06229 0.31737,-3.35555c0.07847,-0.82964 0.78717,-2.45439 1.51881,-3.94793c0.83115,-1.69668 2.72328,-3.27639 2.72328,-3.27639c0,0 -1.43448,1.35488 -1.80784,2.89358c-0.39317,1.62035 -0.75337,3.5026 -0.57518,4.40145c0.244,1.23076 0.62306,3.14275 0.62306,3.14275z" fill="#413658" stroke="none" stroke-width="0"/><path d="M283.92266,196.74166c0,-1.02785 2.25409,-1.77699 3.94416,-2.08226c0.5481,-0.099 2.57729,0.77292 2.91063,0.77292c1.36118,0 -3.851,0.33326 -3.851,1.69444c0,1.36118 -0.30808,2.54166 -0.30808,2.54166c0,0 -2.6957,-1.56558 -2.6957,-2.92676z" fill="#16032e" stroke="none" stroke-width="0"/><path d="M292.41076,196.76483c0,0.12465 -3.38757,0.73265 -4.26305,1.10131c-0.46889,0.19745 -1.02913,0.34282 -1.64401,0.34282c-0.60951,0 -1.35241,-0.24961 -1.83685,-0.28179c-0.91677,-0.0609 -1.47078,-0.97933 -1.47078,-1.10457c0,-0.12557 0.49949,0.57317 1.42031,0.51237c0.2212,-0.01461 0.55701,0.04636 0.91432,0.11672c0.42268,0.08323 0.87543,0.17962 1.20407,0.17962c1.76295,0 5.676,-1.05789 5.676,-0.86648z" fill="#000000" stroke="none" stroke-width="0"/><g stroke-width="0"><path d="M259.42747,206.22438c0.1234,-4.93053 10.40993,-4.21864 11.9256,-5.49664c1.4224,-1.19935 1.3909,-10.36135 3.53822,-11.11083c2.75784,-0.96256 8.45114,-0.02086 11.8624,2.02718c2.17386,1.30513 3.01635,3.95152 4.44455,3.95152c0.61783,0 -4.77614,-1.01753 -5.53099,-0.28192c-0.54943,0.53543 -0.74952,1.28266 -1.05514,1.80927c-0.35983,0.62003 2.11153,2.48073 2.11153,2.48073c0,0 -5.53595,1.47996 -2.66776,2.32483c1.56998,0.46246 3.86507,2.45481 6.90306,2.94365c12.18012,1.9599 32.81877,2.39197 32.81877,2.39197c0,0 -19.94788,-0.39328 -31.00253,3.43216c-4.76156,1.64773 -5.42668,6.90102 -6.17826,8.6427c-0.43942,1.0183 25.48163,5.13143 25.48163,5.13143c0,0 -27.53793,0.4066 -27.88683,1.59279c-1.70176,5.78574 -2.23589,10.43004 -2.23589,10.43004c0,0 -1.74921,-8.42003 -5.64223,-16.81404c-1.49976,-3.23373 -3.62039,-6.35667 -5.20947,-9.0047c-1.27185,-2.11939 -11.80005,0.4804 -11.67665,-4.45013z" fill="url(#color-5)" stroke="none"/><path d="M270.12713,243.04307c-0.36578,-0.06951 10.49336,1.55383 10.85831,-3.59486c0.11922,-1.68201 0.26272,-3.25397 0.41466,-4.60584c0.31315,-2.78626 0.12302,-4.71466 0.36931,-4.66787c0.36578,0.06951 0.36646,4.29969 0.00151,9.44839c-0.36495,5.14869 -11.27801,3.48969 -11.64379,3.42018z" fill="#342448" stroke="#000000"/><path d="M282.15208,239.62288c-0.36495,-5.14869 -0.36427,-9.37888 0.00151,-9.44839c0.24361,-0.04629 0.04859,1.91866 0.3591,4.6545c0.15572,1.37199 0.53404,2.82255 0.65593,4.54219c0.36495,5.14869 8.29733,4.0645 7.93155,4.134c-0.36578,0.06951 -8.58314,1.26639 -8.94809,-3.8823z" data-paper-data="{&quot;index&quot;:null}" fill="#342448" stroke="#000000"/></g><path d="M282.69034,192.83712c0,0 -1.60346,1.34785 -3.58143,1.34785c-1.97797,0 -3.58143,-1.34785 -3.58143,-1.34785c0,0 1.60346,-1.34785 3.58143,-1.34785c1.97797,0 3.58143,1.34785 3.58143,1.34785z" fill="#000000" stroke="none" stroke-width="0"/><path d="M281.2063,192.83712c0,0.66605 -0.93903,1.206 -2.09739,1.206c-1.15836,0 -2.09739,-0.53994 -2.09739,-1.206c0,-0.66605 0.93903,-1.206 2.09739,-1.206c1.15836,0 2.09739,0.53994 2.09739,1.206z" fill="url(#color-6)" stroke="none" stroke-width="0"/><path d="M279.41699,192.91414c0,0.14888 -0.10345,0.26957 -0.23106,0.26957c-0.12761,0 -0.23106,-0.12069 -0.23106,-0.26957c0,-0.14888 0.10345,-0.26957 0.23106,-0.26957c0.12761,0 0.23106,0.12069 0.23106,0.26957z" fill="#780cff" stroke="none" stroke-width="0"/><path d="M245.73472,205.06907c0,-19.74915 16.00984,-35.75899 35.75899,-35.75899c19.74915,0 35.75899,16.00984 35.75899,35.75899c0,19.74915 -16.00984,35.75899 -35.75899,35.75899c-19.74915,0 -35.75899,-16.00984 -35.75899,-35.75899z" fill="url(#color-7)" stroke="none" stroke-width="NaN"/></g></g></svg>