<svg version="1.1" xmlns="http://www.w3.org/2000/svg" xmlns:xlink="http://www.w3.org/1999/xlink" width="337.39504" height="337.39504" viewBox="0,0,337.39504,337.39504"><defs><radialGradient cx="320" cy="180" r="61.88311" gradientUnits="userSpaceOnUse" id="color-1"><stop offset="0" stop-color="#39ff29" stop-opacity="0.63137"/><stop offset="1" stop-color="#39ff29" stop-opacity="0"/></radialGradient><radialGradient cx="320" cy="180" r="35.98777" gradientUnits="userSpaceOnUse" id="color-2"><stop offset="0" stop-color="#00ff08" stop-opacity="0.75686"/><stop offset="1" stop-color="#2eff53" stop-opacity="0.05098"/></radialGradient><radialGradient cx="320" cy="180" r="88.69752" gradientUnits="userSpaceOnUse" id="color-3"><stop offset="0" stop-color="#39ff29" stop-opacity="0.63137"/><stop offset="1" stop-color="#39ff29" stop-opacity="0"/></radialGradient><radialGradient cx="240" cy="180" r="88.69752" gradientUnits="userSpaceOnUse" id="color-4"><stop offset="0" stop-color="#37ff29" stop-opacity="0.16471"/><stop offset="1" stop-color="#37ff29" stop-opacity="0"/></radialGradient><radialGradient cx="400" cy="188.69752" r="88.69752" gradientUnits="userSpaceOnUse" id="color-5"><stop offset="0" stop-color="#37ff29" stop-opacity="0.16471"/><stop offset="1" stop-color="#37ff29" stop-opacity="0"/></radialGradient><radialGradient cx="323.69752" cy="100" r="88.69752" gradientUnits="userSpaceOnUse" id="color-6"><stop offset="0" stop-color="#37ff29" stop-opacity="0.16471"/><stop offset="1" stop-color="#37ff29" stop-opacity="0"/></radialGradient><radialGradient cx="315.30248" cy="260" r="88.69752" gradientUnits="userSpaceOnUse" id="color-7"><stop offset="0" stop-color="#37ff29" stop-opacity="0.16471"/><stop offset="1" stop-color="#37ff29" stop-opacity="0"/></radialGradient></defs><g transform="translate(-151.30248,-11.30248)"><g data-paper-data="{&quot;isPaintingLayer&quot;:true}" fill-rule="nonzero" stroke-linecap="butt" stroke-linejoin="miter" stroke-miterlimit="10" stroke-dasharray="" stroke-dashoffset="0" style="mix-blend-mode: normal"><path d="M258.1169,180c0,-34.17709 27.70601,-61.8831 61.88311,-61.8831c34.17709,0 61.88311,27.70601 61.88311,61.88311c0,34.17709 -27.70601,61.88311 -61.8831,61.88311c-34.17709,0 -61.8831,-27.70601 -61.8831,-61.8831z" fill="url(#color-1)" stroke="#000000" stroke-width="0"/><path d="M284.01223,180c0,-19.87549 16.11228,-35.98777 35.98777,-35.98777c19.8755,0 35.98777,16.11228 35.98777,35.98777c0,19.8755 -16.11228,35.98777 -35.98777,35.98777c-19.87549,0 -35.98777,-16.11228 -35.98777,-35.98777z" fill="url(#color-2)" stroke="#000000" stroke-width="0"/><path d="M231.30248,180c0,-48.98629 39.71123,-88.69752 88.69752,-88.69752c48.98629,0 88.69752,39.71123 88.69752,88.69752c0,48.98629 -39.71123,88.69752 -88.69752,88.69752c-48.98629,0 -88.69752,-39.71123 -88.69752,-88.69752z" fill="url(#color-3)" stroke="#000000" stroke-width="0"/><path d="M240,180c0,-44.18278 35.81721,-80 80,-80c44.18278,0 80,35.81722 80,80c0,44.18278 -35.81721,80 -80,80c-44.18278,0 -80,-35.81722 -80,-80z" fill="none" stroke-opacity="0.11373" stroke="#29ff21" stroke-width="12.5"/><path d="M151.30248,180c0,-48.98629 39.71123,-88.69752 88.69752,-88.69752c48.98629,0 88.69752,39.71123 88.69752,88.69752c0,48.98629 -39.71123,88.69752 -88.69752,88.69752c-48.98629,0 -88.69752,-39.71123 -88.69752,-88.69752z" fill="url(#color-4)" stroke="#000000" stroke-width="0"/><path d="M311.30248,188.69752c0,-48.98629 39.71123,-88.69752 88.69752,-88.69752c48.98629,0 88.69752,39.71123 88.69752,88.69752c0,48.98629 -39.71123,88.69752 -88.69752,88.69752c-48.98629,0 -88.69752,-39.71123 -88.69752,-88.69752z" fill="url(#color-5)" stroke="#000000" stroke-width="0"/><path d="M235,100c0,-48.98629 39.71123,-88.69752 88.69752,-88.69752c48.98629,0 88.69752,39.71123 88.69752,88.69752c0,48.98629 -39.71123,88.69752 -88.69752,88.69752c-48.98629,0 -88.69752,-39.71123 -88.69752,-88.69752z" fill="url(#color-6)" stroke="#000000" stroke-width="0"/><path d="M226.60496,260c0,-48.98629 39.71123,-88.69752 88.69752,-88.69752c48.98629,0 88.69752,39.71123 88.69752,88.69752c0,48.98629 -39.71123,88.69752 -88.69752,88.69752c-48.98629,0 -88.69752,-39.71123 -88.69752,-88.69752z" fill="url(#color-7)" stroke="#000000" stroke-width="0"/></g></g></svg>