<svg version="1.1" xmlns="http://www.w3.org/2000/svg" xmlns:xlink="http://www.w3.org/1999/xlink" width="59.87198" height="42.17506" viewBox="0,0,59.87198,42.17506"><defs><radialGradient cx="346.53427" cy="182.4375" r="12.25019" gradientUnits="userSpaceOnUse" id="color-1"><stop offset="0" stop-color="#980000"/><stop offset="1" stop-color="#980000" stop-opacity="0"/></radialGradient><radialGradient cx="320" cy="180" r="21.08753" gradientUnits="userSpaceOnUse" id="color-2"><stop offset="0" stop-color="#980000"/><stop offset="1" stop-color="#980000" stop-opacity="0"/></radialGradient><radialGradient cx="320.05075" cy="180.09739" r="4.21274" gradientUnits="userSpaceOnUse" id="color-3"><stop offset="0" stop-color="#030303"/><stop offset="1" stop-color="#000000" stop-opacity="0.16078"/></radialGradient><radialGradient cx="320.05075" cy="180.09739" r="3.40385" gradientUnits="userSpaceOnUse" id="color-4"><stop offset="0" stop-color="#252525"/><stop offset="1" stop-color="#000000"/></radialGradient><radialGradient cx="320.05075" cy="180.09739" r="1.78221" gradientUnits="userSpaceOnUse" id="color-5"><stop offset="0" stop-color="#630000"/><stop offset="1" stop-color="#630000" stop-opacity="0"/></radialGradient></defs><g transform="translate(-298.91247,-158.91247)"><g stroke-width="0" stroke-miterlimit="10"><path d="M346.53426,185.18088v-5.50925h4.91486v5.50925z" fill="#ab0000" stroke="#000000"/><path d="M328.94802,185.27726c-1.40994,0 -2.55293,-1.40281 -2.55293,-3.13326v-3.5955c0,-1.73045 1.14298,-3.13326 2.55293,-3.13326h3.55365c1.40994,0 2.55293,1.40281 2.55293,3.13326v3.5955c0,1.73045 -1.14298,3.13326 -2.55293,3.13326z" fill="#980000" stroke="none"/><path d="M342.34505,186.2263c-0.98241,0 -1.77881,-1.40281 -1.77881,-3.13326v-1.58479c0,-1.73045 0.7964,-3.13326 1.77881,-3.13326h4.86784c0.98241,0 1.77881,1.40281 1.77881,3.13326v1.58479c0,1.73045 -0.7964,3.13326 -1.77881,3.13326z" fill="#6a0000" stroke="none"/><path d="M322.83577,186.81955c0,-1.73045 1.14298,-3.13326 2.55293,-3.13326h3.31962c1.40994,0 2.55293,1.40281 2.55293,3.13326v4.07424c0,1.73045 -1.14298,3.13326 -2.55293,3.13326h-3.31962c-1.40994,0 -2.55293,-1.40281 -2.55293,-3.13326z" fill="#424242" stroke="none"/><path d="M322.83577,169.10621c0,-1.73045 1.14298,-3.13326 2.55293,-3.13326h3.31962c1.40994,0 2.55293,1.40281 2.55293,3.13326v4.07424c0,1.73045 -1.14298,3.13326 -2.55293,3.13326h-3.31962c-1.40994,0 -2.55293,-1.40281 -2.55293,-3.13326z" fill="#424242" stroke="none"/><path d="M320.05075,169.66088c4.69635,0 8.50349,4.67258 8.50349,10.43651c0,5.76393 -3.80715,10.43651 -8.50349,10.43651c-4.69635,0 -8.50349,-4.67258 -8.50349,-10.43651c0,-5.76393 3.80715,-10.43651 8.50349,-10.43651z" fill="#7c0000" stroke="#000000"/><path d="M317.16423,190.89379c0,1.73045 -1.14298,3.13326 -2.55293,3.13326h-3.31962c-1.40994,0 -2.55293,-1.40281 -2.55293,-3.13326v-4.07424c0,-1.73045 1.14298,-3.13326 2.55293,-3.13326h3.31962c1.40994,0 2.55293,1.40281 2.55293,3.13326z" fill="#424242" stroke="none"/><path d="M317.16423,173.18045c0,1.73045 -1.14298,3.13326 -2.55293,3.13326h-3.31962c-1.40994,0 -2.55293,-1.40281 -2.55293,-3.13326v-4.07424c0,-1.73045 1.14298,-3.13326 2.55293,-3.13326h3.31962c1.40994,0 2.55293,1.40281 2.55293,3.13326z" fill="#424242" stroke="none"/><path d="M316.15576,181.91107c-0.80024,0 -1.44896,-0.79619 -1.44896,-1.77834v-2.04069c0,-0.98215 0.64872,-1.77834 1.44896,-1.77834h2.01694c0.80024,0 1.44896,0.79619 1.44896,1.77834v2.04069c0,0.98215 -0.64872,1.77834 -1.44896,1.77834z" fill="#980000" stroke="none"/><path d="M321.07065,187.50844c-0.80024,0 -1.44896,-0.79619 -1.44896,-1.77834v-2.04069c0,-0.98215 0.64872,-1.77834 1.44896,-1.77834h2.01694c0.80024,0 1.44896,0.79619 1.44896,1.77834v2.04069c0,0.98215 -0.64872,1.77834 -1.44896,1.77834z" fill="#980000" stroke="none"/><path d="M320.19409,176.31371c-0.80024,0 -1.44896,-0.79619 -1.44896,-1.77834v-2.04069c0,-0.98215 0.64872,-1.77834 1.44896,-1.77834h2.01694c0.80024,0 1.44896,0.79619 1.44896,1.77834v2.04069c0,0.98215 -0.64872,1.77834 -1.44896,1.77834z" fill="#980000" stroke="none"/><path d="M323.52807,181.91107c-0.80024,0 -1.44896,-0.79619 -1.44896,-1.77834v-2.04069c0,-0.98215 0.64872,-1.77834 1.44896,-1.77834h2.01694c0.80024,0 1.44896,0.79619 1.44896,1.77834v2.04069c0,0.98215 -0.64872,1.77834 -1.44896,1.77834z" fill="#980000" stroke="none"/><g><path d="M337.01993,186.00256v-4.50014h4.91486v4.50014z" fill="#6b2f2f" stroke="#000000"/><path d="M334.53765,183.75249c-1.40994,0 -2.55293,-1.40281 -2.55293,-3.13326v-1.58479c0,-1.73045 1.14298,-3.13326 2.55293,-3.13326h6.98626c1.40994,0 2.55293,1.40281 2.55293,3.13326v1.58479c0,1.73045 -1.14298,3.13326 -2.55293,3.13326z" fill="#6a0000" stroke="none"/></g><path d="M334.28407,182.4375c0,-6.76559 5.4846,-12.25019 12.25019,-12.25019c6.76559,0 12.25019,5.4846 12.25019,12.25019c0,6.76559 -5.4846,12.2502 -12.25019,12.2502c-6.76559,0 -12.25019,-5.4846 -12.25019,-12.2502z" fill="url(#color-1)" stroke="#000000"/><path d="M298.91247,180c0,-11.64632 9.44121,-21.08753 21.08753,-21.08753c11.64632,0 21.08753,9.44121 21.08753,21.08753c0,11.64632 -9.44121,21.08753 -21.08753,21.08753c-11.64632,0 -21.08753,-9.44121 -21.08753,-21.08753z" fill="url(#color-2)" stroke="#000000"/><g stroke="#000000"><path d="M315.83802,180.09739c0,-2.85552 1.88611,-5.17038 4.21273,-5.17038c2.32663,0 4.21274,2.31486 4.21274,5.17038c0,2.85552 -1.88611,5.17038 -4.21274,5.17038c-2.32663,0 -4.21273,-2.31486 -4.21273,-5.17038z" fill="url(#color-3)"/><path d="M316.6469,180.09739c0,-2.30723 1.52396,-4.17761 3.40385,-4.17761c1.8799,0 3.40385,1.87038 3.40385,4.17761c0,2.30723 -1.52396,4.17761 -3.40385,4.17761c-1.8799,0 -3.40385,-1.87038 -3.40385,-4.17761z" fill="url(#color-4)"/><path d="M319.56827,180.09739c0,-0.59088 0.21601,-1.0699 0.48249,-1.0699c0.26647,0 0.48249,0.47901 0.48249,1.0699c0,0.59088 -0.21601,1.0699 -0.48249,1.0699c-0.26647,0 -0.48249,-0.47901 -0.48249,-1.0699z" fill="#630000"/><path d="M319.72732,180.09739c0,-0.21922 0.14481,-0.39696 0.32343,-0.39696c0.17863,0 0.32342,0.17771 0.32342,0.39696c0,0.21922 -0.1448,0.39696 -0.32342,0.39696c-0.17863,0 -0.32343,-0.17771 -0.32343,-0.39696z" fill="#000000"/><path d="M318.26854,180.09739c0,-1.20803 0.79792,-2.18735 1.78221,-2.18735c0.98428,0 1.78221,0.97931 1.78221,2.18735c0,1.20803 -0.79793,2.18735 -1.78221,2.18735c-0.98428,0 -1.78221,-0.97931 -1.78221,-2.18735z" fill="url(#color-5)"/></g></g></g></svg>