<svg version="1.1" xmlns="http://www.w3.org/2000/svg" xmlns:xlink="http://www.w3.org/1999/xlink" width="458.00996" height="325.69509" viewBox="0,0,458.00996,325.69509"><defs><linearGradient x1="298.15725" y1="194.30891" x2="298.15725" y2="37.83921" gradientUnits="userSpaceOnUse" id="color-1"><stop offset="0" stop-color="#140f1e"/><stop offset="1" stop-color="#000000"/></linearGradient><linearGradient x1="354.17327" y1="179.99999" x2="354.17327" y2="23.53029" gradientUnits="userSpaceOnUse" id="color-2"><stop offset="0" stop-color="#140f1e"/><stop offset="1" stop-color="#000000"/></linearGradient><linearGradient x1="280.65486" y1="168.57028" x2="124.18518" y2="168.57028" gradientUnits="userSpaceOnUse" id="color-3"><stop offset="0" stop-color="#140f1e"/><stop offset="1" stop-color="#000000"/></linearGradient><linearGradient x1="292.56017" y1="168.57028" x2="114.92551" y2="168.57028" gradientUnits="userSpaceOnUse" id="color-4"><stop offset="0" stop-color="#140f1e"/><stop offset="1" stop-color="#000000"/></linearGradient><linearGradient x1="350.89213" y1="173.76865" x2="528.52682" y2="173.76865" gradientUnits="userSpaceOnUse" id="color-5"><stop offset="0" stop-color="#140f1e"/><stop offset="1" stop-color="#000000"/></linearGradient><linearGradient x1="317.44888" y1="51.28637" x2="317.44888" y2="315.22159" gradientUnits="userSpaceOnUse" id="color-6"><stop offset="0" stop-color="#261c37"/><stop offset="1" stop-color="#000000"/></linearGradient><radialGradient cx="303.36116" cy="141.09107" r="22.70629" gradientUnits="userSpaceOnUse" id="color-7"><stop offset="0" stop-color="#000000" stop-opacity="0.54118"/><stop offset="1" stop-color="#000000" stop-opacity="0"/></radialGradient><radialGradient cx="348.77374" cy="141.09107" r="22.70628" gradientUnits="userSpaceOnUse" id="color-8"><stop offset="0" stop-color="#ff0000" stop-opacity="0.54118"/><stop offset="1" stop-color="#ff0000" stop-opacity="0"/></radialGradient><radialGradient cx="318.92665" cy="188.74502" r="44.93522" gradientUnits="userSpaceOnUse" id="color-9"><stop offset="0" stop-color="#000000"/><stop offset="1" stop-color="#000000" stop-opacity="0"/></radialGradient><radialGradient cx="293.63827" cy="211.27573" r="23.81061" gradientUnits="userSpaceOnUse" id="color-10"><stop offset="0" stop-color="#000000"/><stop offset="1" stop-color="#000000" stop-opacity="0"/></radialGradient><radialGradient cx="356.14112" cy="223.99063" r="23.81061" gradientUnits="userSpaceOnUse" id="color-11"><stop offset="0" stop-color="#000000"/><stop offset="1" stop-color="#000000" stop-opacity="0"/></radialGradient><radialGradient cx="317.44888" cy="234.19518" r="23.81061" gradientUnits="userSpaceOnUse" id="color-12"><stop offset="0" stop-color="#000000"/><stop offset="1" stop-color="#000000" stop-opacity="0"/></radialGradient><radialGradient cx="269.82768" cy="234.19518" r="23.81061" gradientUnits="userSpaceOnUse" id="color-13"><stop offset="0" stop-color="#000000"/><stop offset="1" stop-color="#000000" stop-opacity="0"/></radialGradient><radialGradient cx="269.61699" cy="257.01257" r="23.81061" gradientUnits="userSpaceOnUse" id="color-14"><stop offset="0" stop-color="#000000"/><stop offset="1" stop-color="#000000" stop-opacity="0"/></radialGradient><radialGradient cx="308.05378" cy="256.70399" r="36.55903" gradientUnits="userSpaceOnUse" id="color-15"><stop offset="0" stop-color="#000000"/><stop offset="1" stop-color="#000000" stop-opacity="0"/></radialGradient><radialGradient cx="341.83941" cy="256.80207" r="31.01166" gradientUnits="userSpaceOnUse" id="color-16"><stop offset="0" stop-color="#000000"/><stop offset="1" stop-color="#000000" stop-opacity="0"/></radialGradient><radialGradient cx="376.676" cy="249.57016" r="16.81613" gradientUnits="userSpaceOnUse" id="color-17"><stop offset="0" stop-color="#000000"/><stop offset="1" stop-color="#000000" stop-opacity="0"/></radialGradient><radialGradient cx="379.95173" cy="223.99063" r="23.81061" gradientUnits="userSpaceOnUse" id="color-18"><stop offset="0" stop-color="#000000"/><stop offset="1" stop-color="#000000" stop-opacity="0"/></radialGradient><radialGradient cx="341.25949" cy="206.17346" r="23.81061" gradientUnits="userSpaceOnUse" id="color-19"><stop offset="0" stop-color="#000000"/><stop offset="1" stop-color="#000000" stop-opacity="0"/></radialGradient><radialGradient cx="366.28786" cy="187.9338" r="32.9016" gradientUnits="userSpaceOnUse" id="color-20"><stop offset="0" stop-color="#000000"/><stop offset="1" stop-color="#000000" stop-opacity="0"/></radialGradient><radialGradient cx="345.08618" cy="213.34944" r="16.79808" gradientUnits="userSpaceOnUse" id="color-21"><stop offset="0" stop-color="#000000"/><stop offset="1" stop-color="#000000" stop-opacity="0"/></radialGradient><radialGradient cx="308.51989" cy="223.99063" r="23.03282" gradientUnits="userSpaceOnUse" id="color-22"><stop offset="0" stop-color="#000000"/><stop offset="1" stop-color="#000000" stop-opacity="0"/></radialGradient><radialGradient cx="280.65486" cy="186.71682" r="23.81061" gradientUnits="userSpaceOnUse" id="color-23"><stop offset="0" stop-color="#000000"/><stop offset="1" stop-color="#000000" stop-opacity="0"/></radialGradient><radialGradient cx="284.78209" cy="224.19892" r="20.58073" gradientUnits="userSpaceOnUse" id="color-24"><stop offset="0" stop-color="#000000"/><stop offset="1" stop-color="#000000" stop-opacity="0"/></radialGradient><radialGradient cx="256.8443" cy="178.04178" r="23.81061" gradientUnits="userSpaceOnUse" id="color-25"><stop offset="0" stop-color="#000000"/><stop offset="1" stop-color="#000000" stop-opacity="0"/></radialGradient><radialGradient cx="261.02574" cy="201.43641" r="23.81061" gradientUnits="userSpaceOnUse" id="color-26"><stop offset="0" stop-color="#000000"/><stop offset="1" stop-color="#000000" stop-opacity="0"/></radialGradient><radialGradient cx="237.10552" cy="177.31255" r="23.9426" gradientUnits="userSpaceOnUse" id="color-27"><stop offset="0" stop-color="#000000"/><stop offset="1" stop-color="#000000" stop-opacity="0"/></radialGradient><radialGradient cx="205.53256" cy="170.6967" r="31.42302" gradientUnits="userSpaceOnUse" id="color-28"><stop offset="0" stop-color="#000000"/><stop offset="1" stop-color="#000000" stop-opacity="0"/></radialGradient><radialGradient cx="399.88038" cy="187.21662" r="20.86265" gradientUnits="userSpaceOnUse" id="color-29"><stop offset="0" stop-color="#000000"/><stop offset="1" stop-color="#000000" stop-opacity="0"/></radialGradient><radialGradient cx="449.68121" cy="171.22123" r="33.26089" gradientUnits="userSpaceOnUse" id="color-30"><stop offset="0" stop-color="#000000"/><stop offset="1" stop-color="#000000" stop-opacity="0"/></radialGradient><radialGradient cx="371.48002" cy="95.46535" r="33.39256" gradientUnits="userSpaceOnUse" id="color-31"><stop offset="0" stop-color="#000000"/><stop offset="1" stop-color="#000000" stop-opacity="0"/></radialGradient><radialGradient cx="347.66941" cy="72.54589" r="23.81061" gradientUnits="userSpaceOnUse" id="color-32"><stop offset="0" stop-color="#000000"/><stop offset="1" stop-color="#000000" stop-opacity="0"/></radialGradient><radialGradient cx="344.41193" cy="99.44083" r="16.0657" gradientUnits="userSpaceOnUse" id="color-33"><stop offset="0" stop-color="#000000"/><stop offset="1" stop-color="#000000" stop-opacity="0"/></radialGradient><radialGradient cx="347.66942" cy="49.62644" r="23.81061" gradientUnits="userSpaceOnUse" id="color-34"><stop offset="0" stop-color="#000000"/><stop offset="1" stop-color="#000000" stop-opacity="0"/></radialGradient><radialGradient cx="371.48002" cy="49.62644" r="23.81061" gradientUnits="userSpaceOnUse" id="color-35"><stop offset="0" stop-color="#000000"/><stop offset="1" stop-color="#000000" stop-opacity="0"/></radialGradient><radialGradient cx="304.46547" cy="95.46534" r="23.81061" gradientUnits="userSpaceOnUse" id="color-36"><stop offset="0" stop-color="#000000"/><stop offset="1" stop-color="#000000" stop-opacity="0"/></radialGradient><radialGradient cx="280.80253" cy="154.68601" r="23.81061" gradientUnits="userSpaceOnUse" id="color-37"><stop offset="0" stop-color="#000000"/><stop offset="1" stop-color="#000000" stop-opacity="0"/></radialGradient><radialGradient cx="284.70932" cy="86.47393" r="23.81061" gradientUnits="userSpaceOnUse" id="color-38"><stop offset="0" stop-color="#000000"/><stop offset="1" stop-color="#000000" stop-opacity="0"/></radialGradient><radialGradient cx="300.0482" cy="72.54589" r="23.81061" gradientUnits="userSpaceOnUse" id="color-39"><stop offset="0" stop-color="#000000"/><stop offset="1" stop-color="#000000" stop-opacity="0"/></radialGradient><radialGradient cx="291.82752" cy="51.28642" r="23.81061" gradientUnits="userSpaceOnUse" id="color-40"><stop offset="0" stop-color="#000000"/><stop offset="1" stop-color="#000000" stop-opacity="0"/></radialGradient><radialGradient cx="320" cy="180" r="149.66667" gradientUnits="userSpaceOnUse" id="color-41"><stop offset="0" stop-color="#000000" stop-opacity="0.50196"/><stop offset="1" stop-color="#000000" stop-opacity="0"/></radialGradient><radialGradient cx="320" cy="180" r="149.66667" gradientUnits="userSpaceOnUse" id="color-42"><stop offset="0" stop-color="#171122"/><stop offset="1" stop-color="#171122" stop-opacity="0"/></radialGradient></defs><g transform="translate(-92.72117,-3.97158)"><g data-paper-data="{&quot;isPaintingLayer&quot;:true}" fill-rule="nonzero" stroke="none" stroke-width="0" stroke-linecap="butt" stroke-linejoin="miter" stroke-miterlimit="10" stroke-dasharray="" stroke-dashoffset="0" style="mix-blend-mode: normal"><path d="M284.7093,194.30892c0,0 0,-69.96031 0,-85.88826c0,-6.13825 2.30453,-28.91288 2.30453,-28.91288c0,0 6.27498,-61.22728 8.50379,-61.22728c0.56684,0 3.35047,37.62764 5.71033,45.1017c5.38772,17.06378 11.00866,37.38504 11.00866,37.38504c0,0 3.40151,3.06136 3.40151,10.20454c0,16.66743 0,83.33713 0,83.33713h-30.92882z" data-paper-data="{&quot;index&quot;:null}" fill="url(#color-1)"/><path d="M367.62123,179.99999h-30.92882c0,0 0,-66.6697 0,-83.33713c0,-7.14318 3.40151,-10.20454 3.40151,-10.20454c0,0 5.62094,-20.32126 11.00866,-37.38504c2.35986,-7.47406 5.14349,-45.1017 5.71033,-45.1017c2.22881,0 8.50379,61.22728 8.50379,61.22728c0,0 2.30453,22.77463 2.30453,28.91288c0,15.92795 0,85.88826 0,85.88826z" fill="url(#color-2)"/><path d="M280.65486,155.12232v30.92882c0,0 -66.6697,0 -83.33712,0c-7.14318,0 -10.20454,-3.40152 -10.20454,-3.40152c0,0 -20.32126,-5.62095 -37.38504,-11.00866c-7.47406,-2.35986 -45.10171,-5.1435 -45.10171,-5.71033c0,-2.22881 61.22728,-8.50378 61.22728,-8.50378c0,0 22.77463,-2.30453 28.91288,-2.30453c15.92795,0 85.88826,0 85.88826,0z" fill="url(#color-3)"/><path d="M292.56017,155.12232v30.92882c0,0 -75.68782,0 -94.60977,0c-8.10941,0 -11.58486,-3.40152 -11.58486,-3.40152c0,0 -23.07003,-5.62095 -42.44195,-11.00866c-8.48504,-2.35986 -51.20242,-5.1435 -51.20242,-5.71033c0,-2.22881 69.50923,-8.50378 69.50923,-8.50378c0,0 25.85526,-2.30453 32.8238,-2.30453c18.08246,0 97.506,0 97.506,0z" fill="url(#color-4)"/><path d="M350.89213,187.21661v-30.92882c0,0 75.68782,0 94.60978,0c8.10941,0 11.58486,3.40151 11.58486,3.40151c0,0 23.07003,5.62094 42.44195,11.00866c8.48504,2.35986 51.20241,5.14349 51.20241,5.71033c0,2.22881 -69.50923,8.50379 -69.50923,8.50379c0,0 -25.85526,2.30453 -32.8238,2.30453c-18.08246,0 -97.506,0 -97.506,0z" fill="url(#color-5)"/><path d="M268.5521,309.98019c0,0 -13.60606,-34.33182 -13.60606,-56.43507c0,-36.52417 17.87124,-124.74631 21.42819,-168.24507c0.93877,-11.48038 20.24036,-13.53286 20.24036,-13.53286c0,0 44.21601,-14.86605 57.69394,-19.312c7.10933,-2.34515 12.03713,-0.43621 12.03713,-0.43621c0,0 5.5657,4.17345 6.27618,18.71916c2.33299,47.76368 7.32989,154.13328 7.32989,188.97834c0,20.74783 -8.50379,50.26375 -8.50379,50.26375c0,0 -6.33414,-31.90474 -14.50261,-36.01954c-2.28661,-1.15187 -5.50071,28.31257 -7.80552,26.63583c-2.93147,-2.13265 -2.62933,-14.97449 -5.76319,-15.92165c-2.43831,-0.73693 -3.24551,25.37737 -5.77678,23.95395c-2.6713,-1.50216 -4.53804,-34.77331 -7.25262,-35.4982c-2.84719,-0.76031 -2.35581,26.81957 -5.29137,25.96494c-2.50056,-0.72801 -7.54311,-27.12904 -9.99646,-27.30487c-2.87344,-0.20594 -4.01459,43.90024 -6.78302,43.42718c-3.17989,-0.54337 -4.58425,-25.64277 -7.55611,-25.89102c-3.95977,-0.33081 -6.0139,17.80189 -9.43422,17.36259c-2.08733,-0.26809 -3.20425,-27.5658 -5.02269,-27.5658c-1.87369,0 -4.43554,30.8566 -5.95265,30.8566c-2.61785,0 -2.95629,-29.62234 -4.25189,-29.62234c-3.11009,0 -7.5067,29.62234 -7.5067,29.62234z" fill="url(#color-6)"/><path d="M280.65486,141.09107c0,-12.54033 10.16595,-22.70629 22.70628,-22.70629c12.54033,0 22.70629,10.16595 22.70629,22.70629c0,12.54033 -10.16595,22.70629 -22.70629,22.70629c-12.54033,0 -22.70628,-10.16595 -22.70628,-22.70629z" fill="url(#color-7)"/><path d="M326.06746,141.09107c0,-12.54033 10.16595,-22.70629 22.70628,-22.70629c12.54034,0 22.70628,10.16595 22.70628,22.70629c0,12.54034 -10.16595,22.70629 -22.70628,22.70629c-12.54034,0 -22.70628,-10.16595 -22.70628,-22.70629z" fill="url(#color-8)"/><path d="M308.07994,141.72964c3.39659,-2.32167 2.65659,11.53991 7.19429,16.21255c3.94725,4.06461 13.16123,-1.11307 16.48519,-1.03137c5.69504,0.13998 6.50052,8.8308 11.51938,11.61838c4.64433,2.57955 13.58822,-0.92729 16.79019,3.75718c2.42526,3.54812 -6.69846,13.93135 -7.61891,18.13087c-1.50236,6.85434 3.41633,7.78379 1.44109,13.98716c-2.30517,7.23963 3.71205,12.33338 -3.04652,16.95307c-3.4066,2.32852 -16.12063,9.52932 -20.7474,8.15011c-7.12853,-2.12498 -6.55634,-14.08825 -12.61644,-13.70031c-8.59335,0.55012 -12.71642,14.92103 -17.80371,7.47838c-1.62684,-2.38004 -3.99536,-16.53347 -9.64215,-21.19943c-7.58496,-6.26743 -18.6704,-3.32095 -18.84866,-6.92455c-0.17039,-3.44439 1.64337,-12.96072 9.09949,-16.61107c6.16543,-3.01845 18.03981,-0.21743 19.36722,-2.7519c1.44547,-2.75989 -5.1669,-8.76927 -3.78346,-16.97124c1.09959,-6.51912 10.0235,-15.60301 12.21043,-17.09783z" fill="url(#color-9)"/><path d="M269.82766,201.96234c0,-2.18008 5.84259,2.28848 9.24353,1.70062c2.95839,-0.51137 3.4485,-6.09032 4.47816,-7.51998c1.76415,-2.44948 5.80687,-0.20315 8.52704,-1.56516c2.51718,-1.26037 3.65745,-6.22155 6.66415,-6.22155c2.27735,0 4.09144,7.096 5.65332,8.75439c2.54926,2.70678 4.42662,0.83298 6.54971,3.55198c2.47775,3.17319 6.5053,2.06402 6.5053,6.40197c0,2.18651 -0.65165,9.90153 -2.63848,11.51314c-3.06114,2.48303 -8.12348,-1.34449 -9.76584,1.42255c-2.3289,3.92373 2.72491,10.02454 -2.05212,10.02454c-1.52762,0 -8.42738,-3.19598 -12.15703,-2.12094c-5.00977,1.44404 -7.03554,7.1745 -8.66527,6.17495c-1.55773,-0.95539 -5.17838,-4.59437 -4.54575,-8.94763c0.52312,-3.59968 5.29908,-7.95668 4.58728,-9.29522c-0.77511,-1.45759 -5.38118,-0.36185 -8.55553,-3.41957c-2.52305,-2.43035 -3.82847,-9.05042 -3.82847,-10.45409z" fill="url(#color-10)"/><path d="M332.3305,214.67724c0,-2.18008 5.84259,2.28848 9.24353,1.70062c2.95839,-0.51137 3.4485,-6.09032 4.47816,-7.51998c1.76415,-2.44948 5.80687,-0.20315 8.52704,-1.56516c2.51718,-1.26037 3.65745,-6.22155 6.66415,-6.22155c2.27735,0 4.09144,7.096 5.65332,8.75439c2.54926,2.70678 4.42662,0.83298 6.54971,3.55198c2.47775,3.17319 6.5053,2.06402 6.5053,6.40197c0,2.18651 -0.65165,9.90153 -2.63848,11.51314c-3.06114,2.48303 -8.12348,-1.34449 -9.76584,1.42255c-2.3289,3.92373 2.72491,10.02454 -2.05212,10.02454c-1.52762,0 -8.42738,-3.19598 -12.15703,-2.12094c-5.00977,1.44404 -7.03554,7.1745 -8.66527,6.17495c-1.55773,-0.95539 -5.17838,-4.59437 -4.54575,-8.94763c0.52312,-3.59968 5.29908,-7.95668 4.58728,-9.29522c-0.77511,-1.45759 -5.38118,-0.36185 -8.55553,-3.41957c-2.52305,-2.43035 -3.82847,-9.05042 -3.82847,-10.45409z" fill="url(#color-11)"/><path d="M293.63827,224.88179c0,-2.18008 5.84259,2.28848 9.24353,1.70062c2.95839,-0.51137 3.4485,-6.09032 4.47816,-7.51998c1.76415,-2.44948 5.80687,-0.20315 8.52704,-1.56516c2.51718,-1.26037 3.65745,-6.22155 6.66415,-6.22155c2.27735,0 4.09144,7.096 5.65332,8.75439c2.54926,2.70678 4.42662,0.83298 6.54971,3.55198c2.47775,3.17319 6.5053,2.06402 6.5053,6.40197c0,2.18651 -0.65165,9.90153 -2.63848,11.51314c-3.06114,2.48303 -8.12348,-1.34449 -9.76584,1.42255c-2.3289,3.92373 2.72491,10.02454 -2.05212,10.02454c-1.52762,0 -8.42738,-3.19598 -12.15703,-2.12094c-5.00977,1.44404 -7.03554,7.1745 -8.66527,6.17495c-1.55773,-0.95539 -5.17838,-4.59437 -4.54575,-8.94763c0.52312,-3.59968 5.29908,-7.95668 4.58728,-9.29522c-0.77511,-1.45759 -5.38118,-0.36185 -8.55553,-3.41957c-2.52305,-2.43035 -3.82847,-9.05042 -3.82847,-10.45409z" fill="url(#color-12)"/><path d="M246.01706,224.88179c0,-2.18008 5.84259,2.28848 9.24353,1.70062c2.95839,-0.51137 3.4485,-6.09032 4.47816,-7.51998c1.76415,-2.44948 5.80687,-0.20315 8.52704,-1.56516c2.51718,-1.26037 3.65745,-6.22155 6.66415,-6.22155c2.27735,0 4.09144,7.096 5.65332,8.75439c2.54926,2.70678 4.42662,0.83298 6.54971,3.55198c2.47775,3.17319 6.5053,2.06402 6.5053,6.40197c0,2.18651 -0.65165,9.90153 -2.63848,11.51314c-3.06114,2.48303 -8.12348,-1.34449 -9.76584,1.42255c-2.3289,3.92373 2.72491,10.02454 -2.05212,10.02454c-1.52762,0 -8.42738,-3.19598 -12.15703,-2.12094c-5.00977,1.44404 -7.03554,7.1745 -8.66527,6.17495c-1.55773,-0.95539 -5.17838,-4.59437 -4.54575,-8.94763c0.52312,-3.59968 5.29908,-7.95668 4.58728,-9.29522c-0.77511,-1.45759 -5.38118,-0.36185 -8.55553,-3.41957c-2.52305,-2.43035 -3.82847,-9.05042 -3.82847,-10.45409z" fill="url(#color-13)"/><path d="M244.05665,257.60703c-0.84113,-2.01128 6.27317,-0.14293 9.18396,-1.99744c2.53203,-1.6132 0.83169,-6.94928 1.23002,-8.66551c0.68248,-2.94048 5.27887,-2.42786 7.26293,-4.73392c1.836,-2.13397 0.97383,-7.15096 3.74773,-8.31102c2.10102,-0.87866 6.51246,4.96799 8.59326,5.89536c3.39622,1.51363 4.40526,-0.93942 7.41302,0.74991c3.5102,1.97152 6.79796,-0.6057 8.47165,3.39637c0.84361,2.01721 3.21907,9.3863 2.00788,11.6397c-1.8661,3.47183 -8.01324,1.89385 -8.46083,5.08031c-0.63471,4.51847 6.38164,8.19702 1.97449,10.04012c-1.40934,0.5894 -9.00796,0.30297 -12.03405,2.73376c-4.06473,3.26512 -3.72269,9.33348 -5.61188,9.04011c-1.80573,-0.2804 -6.55005,-2.24068 -7.646,-6.50097c-0.90623,-3.5228 1.81889,-9.38512 0.64576,-10.3454c-1.27747,-1.04567 -5.10414,1.74236 -9.21244,0.14614c-3.26539,-1.26872 -7.02392,-6.87255 -7.56549,-8.16753z" fill="url(#color-14)"/><path d="M280.97641,228.28103c1.41603,-3.03305 6.64211,6.97878 11.75552,8.36993c4.44802,1.2101 8.75358,-6.2333 11.1147,-7.55354c4.04538,-2.26199 8.2108,3.48909 12.87991,3.361c4.32069,-0.11852 9.12952,-6.28016 13.31261,-4.32722c3.16838,1.4792 1.08319,12.52985 2.179,15.8516c1.78854,5.42164 5.61752,4.03409 6.80523,9.19594c1.38611,6.02408 7.70991,7.09696 4.89229,13.13216c-1.42021,3.042 -7.33793,13.3523 -11.1489,14.30396c-5.87162,1.46624 -10.42856,-7.14696 -14.51078,-4.36405c-5.78867,3.94623 -2.72016,15.71661 -9.36624,12.61379c-2.12532,-0.99223 -9.64878,-9.92025 -15.53594,-10.8471c-7.90782,-1.24496 -14.44828,5.4118 -16.06642,2.96261c-1.54664,-2.34098 -4.22029,-9.75545 -0.51257,-15.40104c3.06589,-4.6683 12.54047,-7.62789 12.41958,-9.95248c-0.13163,-2.53134 -7.25158,-3.99865 -9.68183,-10.31455c-1.93163,-5.02004 0.55212,-15.07816 1.46383,-17.03103z" fill="url(#color-15)"/><path d="M309.23234,250.04627c-0.47632,-2.79915 8.00172,1.6618 12.24001,0.16396c3.68676,-1.30297 3.09711,-8.57326 4.1068,-10.63388c1.72994,-3.5305 7.41147,-1.52957 10.60653,-3.87269c2.95661,-2.16825 3.33674,-8.78741 7.19725,-9.44435c2.92404,-0.49757 6.80368,8.21714 9.17145,10.00522c3.86458,2.91844 5.86567,0.10236 9.18573,3.1296c3.87468,3.53294 8.80359,1.22881 9.75139,6.79862c0.47773,2.80741 1.32666,12.85568 -0.87225,15.35905c-3.38791,3.85696 -10.72408,0.04859 -12.22825,3.96025c-2.13296,5.5468 5.68895,12.27587 -0.44463,13.31959c-1.96142,0.33377 -11.51881,-2.26228 -16.0727,-0.06706c-6.11692,2.94869 -7.46591,10.74904 -9.77683,9.82175c-2.20883,-0.88636 -7.65272,-4.76763 -7.79157,-10.49532c-0.11483,-4.73619 5.06544,-11.37396 3.85906,-12.93708c-1.31369,-1.70216 -6.98835,0.71112 -11.7322,-2.52134c-3.77052,-2.56925 -6.89307,-10.78402 -7.19976,-12.58629z" fill="url(#color-16)"/><path d="M381.96445,232.3052c0.77698,0.61567 3.86883,4.24193 4.10745,6.70451c0.30023,3.09827 -2.3266,5.16727 -1.85975,6.23564c0.42872,0.98111 4.93527,0.24852 7.15726,1.53783c2.68715,1.55923 3.11337,5.1595 2.95896,6.4408c-0.16154,1.34053 -4.22207,-0.05162 -7.21876,2.08807c-2.23096,1.59295 -3.48823,6.814 -4.15827,7.65959c-2.09528,2.64424 -3.2556,-2.82912 -6.449,-3.26101c-2.25201,-0.30457 -2.35377,4.17642 -5.07088,4.78176c-1.76354,0.3929 -6.31988,-2.63033 -7.53018,-3.58937c-2.40119,-1.90269 -0.02068,-3.64557 -0.69036,-6.4089c-0.57383,-2.36779 1.28682,-2.58509 0.90668,-5.18343c-0.23291,-1.59195 -3.36508,-5.70853 -2.3662,-6.96912c1.31879,-1.66431 4.56511,-0.11943 6.36684,-0.95995c1.94702,-0.90829 2.47681,-4.13135 4.60646,-4.03348c1.24299,0.05712 4.54609,2.23285 6.12675,0.81958c1.81711,-1.62468 1.90628,-6.81873 3.11302,-5.86251z" fill="url(#color-17)"/><path d="M356.14112,214.67724c0,-2.18008 5.84259,2.28848 9.24353,1.70062c2.95839,-0.51137 3.4485,-6.09032 4.47816,-7.51998c1.76415,-2.44948 5.80687,-0.20315 8.52704,-1.56516c2.51718,-1.26037 3.65745,-6.22155 6.66415,-6.22155c2.27735,0 4.09144,7.096 5.65332,8.75439c2.54926,2.70678 4.42662,0.83298 6.54971,3.55198c2.47775,3.17319 6.5053,2.06402 6.5053,6.40197c0,2.18651 -0.65165,9.90153 -2.63848,11.51314c-3.06114,2.48303 -8.12348,-1.34449 -9.76584,1.42255c-2.3289,3.92373 2.72491,10.02454 -2.05212,10.02454c-1.52762,0 -8.42738,-3.19598 -12.15703,-2.12094c-5.00977,1.44404 -7.03554,7.1745 -8.66527,6.17495c-1.55773,-0.95539 -5.17838,-4.59437 -4.54575,-8.94763c0.52312,-3.59968 5.29908,-7.95668 4.58728,-9.29522c-0.77511,-1.45759 -5.38118,-0.36185 -8.55553,-3.41957c-2.52305,-2.43035 -3.82847,-9.05042 -3.82847,-10.45409z" fill="url(#color-18)"/><path d="M317.44885,196.86007c0,-2.18008 5.84259,2.28848 9.24353,1.70062c2.95839,-0.51137 3.4485,-6.09032 4.47816,-7.51998c1.76415,-2.44948 5.80687,-0.20315 8.52704,-1.56516c2.51718,-1.26037 3.65745,-6.22155 6.66415,-6.22155c2.27735,0 4.09144,7.096 5.65332,8.75439c2.54926,2.70678 4.42662,0.83298 6.54971,3.55198c2.47775,3.17319 6.5053,2.06402 6.5053,6.40197c0,2.18651 -0.65165,9.90153 -2.63848,11.51314c-3.06114,2.48303 -8.12348,-1.34449 -9.76584,1.42255c-2.3289,3.92373 2.72491,10.02454 -2.05212,10.02454c-1.52762,0 -8.42738,-3.19598 -12.15703,-2.12094c-5.00977,1.44404 -7.03554,7.1745 -8.66527,6.17495c-1.55773,-0.95539 -5.17838,-4.59437 -4.54575,-8.94763c0.52312,-3.59968 5.29908,-7.95668 4.58728,-9.29522c-0.77511,-1.45759 -5.38118,-0.36185 -8.55553,-3.41957c-2.52305,-2.43035 -3.82847,-9.05042 -3.82847,-10.45409z" fill="url(#color-19)"/><path d="M341.34376,162.9153c1.21194,-2.7579 6.11896,6.143 10.7481,7.28996c4.02678,0.99769 7.7482,-5.78747 9.84554,-7.02366c3.59344,-2.11799 7.4589,2.97112 11.65719,2.76029c3.88501,-0.19509 8.08549,-5.83733 11.88911,-4.16586c2.88096,1.26601 1.23111,11.25125 2.28503,14.21747c1.7202,4.84137 5.13682,3.51457 6.3111,8.13448c1.37045,5.39165 7.08209,6.22746 4.67058,11.71517c-1.21551,2.76604 -6.32876,12.16364 -9.73811,13.09789c-5.25284,1.43942 -9.52917,-6.2168 -13.14506,-3.62937c-5.12742,3.66904 -2.12564,14.19632 -8.1688,11.54071c-1.93251,-0.84922 -8.88435,-8.72796 -14.20016,-9.44134c-7.14035,-0.95822 -12.88869,5.16493 -14.39471,2.99447c-1.43949,-2.07457 -3.99683,-8.69082 -0.77648,-13.84621c2.66288,-4.26296 11.12681,-7.11975 10.97046,-9.20877c-0.17025,-2.27482 -6.60629,-3.44923 -8.92216,-9.08204c-1.84071,-4.4771 0.18806,-13.5775 0.96837,-15.35322z" fill="url(#color-20)"/><path d="M332.08583,200.84595c0.5891,-1.42073 3.18913,3.07015 5.56433,3.60605c2.06612,0.46617 3.89306,-3.03712 4.9504,-3.69057c1.81157,-1.11958 3.83915,1.43674 5.97988,1.28419c1.98098,-0.14117 4.06469,-3.06618 6.02411,-2.2537c1.48411,0.61539 0.74885,5.72994 1.31857,7.23274c0.92989,2.45283 2.65967,1.739 3.30853,4.08463c0.75725,2.73746 3.68167,3.10295 2.50947,5.92993c-0.59084,1.42492 -3.10026,6.27659 -4.83054,6.78997c-2.66586,0.79097 -4.93064,-3.07131 -6.74865,-1.71187c-2.57798,1.92772 -0.93305,7.26917 -4.04617,5.97832c-0.99553,-0.41279 -4.62838,-4.36002 -7.34943,-4.66726c-3.655,-0.41268 -6.52365,2.77437 -7.31562,1.68259c-0.75698,-1.04354 -2.13318,-4.39338 -0.54457,-7.05939c1.31362,-2.2045 5.60338,-3.75333 5.50122,-4.81798c-0.11126,-1.15934 -3.40906,-1.68991 -4.65147,-4.54036c-0.98751,-2.2656 -0.04935,-6.93255 0.32995,-7.8473z" fill="url(#color-21)"/><path d="M285.48708,214.98147c0,-2.10887 5.65174,2.21372 8.94158,1.64507c2.86175,-0.49467 3.33585,-5.89137 4.33188,-7.27433c1.70652,-2.36947 5.61718,-0.19651 8.2485,-1.51403c2.43495,-1.2192 3.53798,-6.01832 6.44646,-6.01832c2.20296,0 3.95779,6.8642 5.46865,8.46842c2.46599,2.61836 4.28202,0.80577 6.33576,3.43595c2.39681,3.06954 6.2928,1.9966 6.2928,6.19284c0,2.11509 -0.63036,9.57809 -2.55229,11.13705c-2.96115,2.40192 -7.85812,-1.30057 -9.44683,1.37608c-2.25282,3.79556 2.6359,9.69708 -1.98509,9.69708c-1.47772,0 -8.15209,-3.09158 -11.75991,-2.05166c-4.84612,1.39687 -6.80572,6.94014 -8.38221,5.97324c-1.50685,-0.92418 -5.00922,-4.44429 -4.39726,-8.65535c0.50603,-3.48209 5.12598,-7.69677 4.43743,-8.99158c-0.74979,-1.40998 -5.2054,-0.35003 -8.27606,-3.30787c-2.44063,-2.35096 -3.70341,-8.75478 -3.70341,-10.1126z" fill="url(#color-22)"/><path d="M256.84425,177.40343c0,-2.18008 5.84259,2.28848 9.24353,1.70062c2.95839,-0.51137 3.4485,-6.09032 4.47816,-7.51998c1.76415,-2.44948 5.80687,-0.20315 8.52704,-1.56516c2.51718,-1.26037 3.65745,-6.22155 6.66415,-6.22155c2.27735,0 4.09144,7.096 5.65332,8.75439c2.54926,2.70678 4.42662,0.83298 6.54971,3.55198c2.47775,3.17319 6.5053,2.06402 6.5053,6.40197c0,2.18651 -0.65165,9.90153 -2.63848,11.51314c-3.06114,2.48303 -8.12348,-1.34449 -9.76584,1.42255c-2.3289,3.92373 2.72491,10.02454 -2.05212,10.02454c-1.52762,0 -8.42738,-3.19598 -12.15703,-2.12094c-5.00977,1.44404 -7.03554,7.1745 -8.66527,6.17495c-1.55773,-0.95539 -5.17838,-4.59437 -4.54575,-8.94763c0.52312,-3.59968 5.29908,-7.95668 4.58728,-9.29522c-0.77511,-1.45759 -5.38118,-0.36185 -8.55553,-3.41957c-2.52305,-2.43035 -3.82847,-9.05042 -3.82847,-10.45409z" fill="url(#color-23)"/><path d="M263.8877,217.00209c-0.0775,-1.88276 5.12713,1.7687 8.04335,1.14011c2.53675,-0.5468 2.7617,-5.38231 3.60012,-6.65359c1.43648,-2.17812 5.00771,-0.38186 7.30849,-1.65482c2.12909,-1.17796 2.93749,-5.50306 5.53413,-5.60994c1.96676,-0.08095 3.78569,5.98281 5.19351,7.3595c2.29781,2.24701 3.85253,0.56203 5.78272,2.83474c2.25263,2.65235 5.69147,1.55129 5.84567,5.29763c0.07773,1.88831 -0.21081,8.57432 -1.86939,10.03677c-2.55539,2.2532 -7.0634,-0.87236 -8.38341,1.57569c-1.87181,3.4714 2.70963,8.56053 -1.41592,8.73034c-1.31929,0.05431 -7.39166,-2.46055 -10.57445,-1.39955c-4.27521,1.42518 -5.821,6.44613 -7.264,5.64083c-1.37924,-0.76972 -4.63546,-3.78372 -4.24386,-7.56577c0.32382,-3.12735 4.29356,-7.05991 3.63125,-8.1906c-0.72121,-1.23125 -4.66016,-0.12121 -7.51028,-2.64909c-2.26535,-2.00921 -3.62806,-7.68003 -3.67795,-8.89227z" fill="url(#color-24)"/><path d="M233.03369,168.72839c0,-2.18008 5.84259,2.28848 9.24353,1.70062c2.95839,-0.51137 3.4485,-6.09032 4.47816,-7.51998c1.76415,-2.44948 5.80687,-0.20315 8.52704,-1.56516c2.51718,-1.26037 3.65745,-6.22155 6.66415,-6.22155c2.27735,0 4.09144,7.096 5.65332,8.75439c2.54926,2.70678 4.42662,0.83298 6.54971,3.55198c2.47775,3.17319 6.5053,2.06402 6.5053,6.40197c0,2.18651 -0.65165,9.90153 -2.63848,11.51314c-3.06114,2.48303 -8.12348,-1.34449 -9.76584,1.42255c-2.3289,3.92373 2.72491,10.02454 -2.05212,10.02454c-1.52762,0 -8.42738,-3.19598 -12.15703,-2.12094c-5.00977,1.44404 -7.03554,7.1745 -8.66527,6.17495c-1.55773,-0.95539 -5.17838,-4.59437 -4.54575,-8.94763c0.52312,-3.59968 5.29908,-7.95668 4.58728,-9.29522c-0.77511,-1.45759 -5.38118,-0.36185 -8.55553,-3.41957c-2.52305,-2.43035 -3.82847,-9.05042 -3.82847,-10.45409z" fill="url(#color-25)"/><path d="M241.45761,184.98125c0.69891,-2.06501 4.80056,4.04074 8.21046,4.5742c2.96618,0.46403 5.21895,-4.66334 6.65259,-5.68745c2.4563,-1.75463 5.5655,1.66916 8.57875,1.25108c2.78838,-0.38688 5.45895,-4.72065 8.30696,-3.75675c2.15715,0.73008 1.60062,8.03313 2.54841,10.1047c1.54696,3.38117 3.92593,2.20812 5.0653,5.46425c1.3297,3.80003 5.50026,4.04058 4.10957,8.14958c-0.70096,2.07111 -3.79154,9.17001 -6.19016,10.05961c-3.6956,1.37062 -7.26371,-3.87779 -9.70645,-1.78331c-3.46387,2.97002 -0.63263,10.36901 -5.15753,8.83756c-1.44699,-0.48974 -6.95799,-5.72899 -10.83544,-5.90636c-5.20829,-0.23822 -8.96424,4.54034 -10.18751,3.07108c-1.16923,-1.40435 -3.43218,-6.01199 -1.43735,-9.93267c1.64951,-3.24198 7.57019,-5.83792 7.32507,-7.334c-0.26692,-1.62914 -4.98116,-2.06788 -7.0077,-5.98186c-1.61075,-3.11093 -0.72498,-9.80009 -0.27498,-11.12967z" fill="url(#color-26)"/><path d="M211.6503,180.91577c-1.07679,-1.90948 6.24771,-0.88136 8.93616,-3.07605c2.3386,-1.90911 0.01232,-7.03766 0.20803,-8.79844c0.33533,-3.01679 4.98576,-3.04608 6.69556,-5.58257c1.58221,-2.34721 0.13051,-7.2558 2.76401,-8.74087c1.99468,-1.12483 7.08846,4.19436 9.27559,4.87546c3.56977,1.11166 4.2886,-1.45682 7.49113,-0.12396c3.73751,1.55551 6.7173,-1.40528 8.85991,2.39421c1.07997,1.91511 4.31982,8.99438 3.37561,11.38729c-1.45475,3.68679 -7.77924,2.83476 -7.85103,6.06953c-0.10182,4.587 7.33802,7.43436 3.15393,9.79384c-1.33801,0.75453 -8.9599,1.36318 -11.69563,4.14694c-3.67469,3.73923 -2.61862,9.75897 -4.53976,9.68846c-1.83626,-0.0674 -6.80488,-1.46638 -8.40094,-5.59177c-1.31977,-3.41126 0.71136,-9.5864 -0.57322,-10.40722c-1.39883,-0.89382 -4.89197,2.34095 -9.18258,1.23065c-3.41029,-0.88249 -7.82346,-6.03608 -8.51677,-7.26552z" fill="url(#color-27)"/><path d="M174.10958,158.40576c0,-2.87706 7.7105,3.02012 12.19874,2.24433c3.90421,-0.67487 4.551,-8.03743 5.90985,-9.92418c2.32816,-3.23259 7.66336,-0.2681 11.25319,-2.06556c3.32193,-1.66332 4.82677,-8.21062 8.79472,-8.21062c3.00543,0 5.3995,9.36463 7.46073,11.55323c3.36428,3.57215 5.84184,1.0993 8.6437,4.68757c3.26991,4.18768 8.58508,2.72389 8.58508,8.44872c0,2.88555 -0.85999,13.06712 -3.48202,15.19398c-4.03981,3.27687 -10.7206,-1.77434 -12.88804,1.87736c-3.07347,5.17817 3.59607,13.22944 -2.70819,13.22944c-2.01601,0 -11.12166,-4.21776 -16.04372,-2.79902c-6.61144,1.90572 -9.28485,9.46823 -11.43562,8.14913c-2.05576,-1.26084 -6.83394,-6.06321 -5.99906,-11.80824c0.69036,-4.75053 6.99323,-10.50048 6.05387,-12.26696c-1.02292,-1.9236 -7.10159,-0.47753 -11.29079,-4.51283c-3.32968,-3.20736 -5.05246,-11.9439 -5.05246,-13.79632z" fill="url(#color-28)"/><path d="M377.54364,188.92265c-0.82927,-1.72077 5.48215,-0.41611 7.94294,-2.17379c2.14058,-1.52896 0.40528,-6.11894 0.67418,-7.63906c0.46072,-2.60447 4.50617,-2.3692 6.13515,-4.47897c1.50742,-1.95233 0.52029,-6.302 2.89352,-7.44571c1.79754,-0.86627 5.92865,4.04465 7.7923,4.75952c3.04179,1.1668 3.81085,-1.02634 6.5209,0.31221c3.16276,1.56215 5.91985,-0.84536 7.56995,2.57864c0.83172,1.72585 3.25205,8.0633 2.29685,10.09113c-1.47169,3.12431 -6.92341,2.02883 -7.1672,4.83763c-0.34571,3.98294 5.96401,6.876 2.19343,8.69311c-1.20577,0.58108 -7.86756,0.68302 -10.4025,2.95028c-3.40499,3.04545 -2.82417,8.33916 -4.49076,8.17012c-1.59295,-0.16156 -5.835,-1.65662 -6.99158,-5.33336c-0.95636,-3.04027 1.15603,-8.29602 0.08504,-9.08179c-1.16625,-0.85566 -4.38509,1.76131 -8.05376,0.55529c-2.91595,-0.95858 -6.46452,-5.68733 -6.99845,-6.79527z" fill="url(#color-29)"/><path d="M423.46339,146.96904c1.11153,-2.83524 6.43163,5.95507 11.15435,6.92455c4.10819,0.84328 7.59003,-6.16236 9.65803,-7.49672c3.54318,-2.28613 7.65555,2.69645 11.88763,2.31201c3.91625,-0.35576 7.92869,-6.22652 11.83895,-4.69355c2.96174,1.16111 1.70309,11.31455 2.88884,14.26767c1.93532,4.81998 5.33223,3.34025 6.70708,7.95881c1.60453,5.3901 7.40794,6.00105 5.19624,11.64265c-1.1148,2.8436 -5.89581,12.54493 -9.30142,13.62788c-5.24706,1.6685 -9.87927,-5.89033 -13.42601,-3.12908c-5.02933,3.9155 -1.56724,14.42644 -7.77985,11.99087c-1.98671,-0.77887 -9.33051,-8.45318 -14.72914,-8.95663c-7.25159,-0.67622 -12.80784,5.74352 -14.41772,3.61266c-1.53877,-2.03672 -4.39215,-8.61528 -1.34988,-13.95427c2.51563,-4.41476 10.94831,-7.64611 10.70507,-9.74981c-0.2649,-2.29083 -6.81387,-3.21421 -9.3832,-8.80929c-2.04215,-4.44712 -0.36464,-13.72225 0.35102,-15.54774z" fill="url(#color-30)"/><path d="M344.63278,71.698c1.05347,-2.87017 6.58617,5.83616 11.34772,6.70564c4.14195,0.75633 7.48309,-6.35177 9.52953,-7.73642c3.50623,-2.37237 7.74316,2.53857 11.98254,2.05987c3.92302,-0.44297 7.8216,-6.42357 11.78005,-4.97066c2.99823,1.10047 1.9576,11.31927 3.21251,14.25735c2.04823,4.79546 5.42532,3.2357 6.90657,7.84131c1.7287,5.37495 7.56712,5.86089 5.47092,11.57199c-1.05657,2.87863 -5.64259,12.7209 -9.0371,13.88257c-5.22998,1.7898 -10.04522,-5.69554 -13.54456,-2.84624c-4.96214,4.04038 -1.25664,14.51448 -7.54581,12.2061c-2.01118,-0.73818 -9.55063,-8.27996 -14.98036,-8.66688c-7.29337,-0.5197 -12.72948,6.04579 -14.39209,3.94232c-1.58915,-2.01055 -4.59745,-8.55101 -1.66096,-13.97656c2.42816,-4.48635 10.82133,-7.91467 10.53103,-10.02087c-0.31612,-2.29353 -6.9097,-3.07671 -9.6113,-8.63625c-2.1473,-4.41886 -0.66696,-13.76528 0.01133,-15.61327z" fill="url(#color-31)"/><path d="M323.8588,63.2325c0,-2.18008 5.84259,2.28848 9.24353,1.70062c2.95839,-0.51137 3.4485,-6.09032 4.47816,-7.51998c1.76415,-2.44948 5.80687,-0.20315 8.52704,-1.56516c2.51718,-1.26037 3.65745,-6.22155 6.66415,-6.22155c2.27735,0 4.09144,7.096 5.65332,8.75439c2.54926,2.70678 4.42662,0.83298 6.54971,3.55198c2.47775,3.17319 6.5053,2.06402 6.5053,6.40197c0,2.18651 -0.65165,9.90153 -2.63848,11.51314c-3.06114,2.48303 -8.12348,-1.34449 -9.76584,1.42255c-2.3289,3.92373 2.72491,10.02454 -2.05212,10.02454c-1.52762,0 -8.42738,-3.19598 -12.15703,-2.12094c-5.00977,1.44404 -7.03554,7.1745 -8.66527,6.17495c-1.55773,-0.95539 -5.17838,-4.59437 -4.54575,-8.94763c0.52312,-3.59968 5.29908,-7.95668 4.58728,-9.29522c-0.77511,-1.45759 -5.38118,-0.36185 -8.55553,-3.41957c-2.52305,-2.43035 -3.82847,-9.05042 -3.82847,-10.45409z" fill="url(#color-32)"/><path d="M328.34622,93.15682c0,-1.47096 3.94216,1.5441 6.23688,1.14746c1.99611,-0.34504 2.3268,-4.10931 3.02154,-5.07395c1.19032,-1.65273 3.91806,-0.13707 5.75344,-1.05606c1.69841,-0.85041 2.46779,-4.19786 4.49649,-4.19786c1.53659,0 2.76061,4.78788 3.81446,5.90684c1.72006,1.82634 2.98677,0.56204 4.41928,2.39662c1.67181,2.14104 4.38931,1.39265 4.38931,4.31959c0,1.4753 -0.43969,6.68085 -1.78026,7.76825c-2.06544,1.67537 -5.48115,-0.90717 -6.58929,0.95984c-1.57138,2.64745 1.83858,6.76385 -1.38462,6.76385c-1.03073,0 -5.6862,-2.15642 -8.2027,-1.43106c-3.38024,0.97434 -4.74708,4.84084 -5.84671,4.16642c-1.05105,-0.64463 -3.494,-3.09995 -3.06715,-6.03722c0.35296,-2.42881 3.57544,-5.3686 3.09517,-6.27175c-0.52299,-0.98348 -3.63084,-0.24415 -5.77266,-2.30728c-1.70237,-1.63983 -2.58318,-6.10658 -2.58318,-7.05368z" fill="url(#color-33)"/><path d="M323.8588,40.31305c0,-2.18008 5.84259,2.28848 9.24353,1.70062c2.95839,-0.51137 3.4485,-6.09032 4.47816,-7.51998c1.76415,-2.44948 5.80687,-0.20315 8.52704,-1.56516c2.51718,-1.26037 3.65745,-6.22155 6.66415,-6.22155c2.27735,0 4.09144,7.096 5.65332,8.75439c2.54926,2.70678 4.42662,0.83298 6.54971,3.55198c2.47775,3.17319 6.5053,2.06402 6.5053,6.40197c0,2.18651 -0.65165,9.90153 -2.63848,11.51314c-3.06114,2.48303 -8.12348,-1.34449 -9.76584,1.42255c-2.3289,3.92373 2.72491,10.02454 -2.05212,10.02454c-1.52762,0 -8.42738,-3.19598 -12.15703,-2.12094c-5.00977,1.44404 -7.03554,7.1745 -8.66527,6.17495c-1.55773,-0.95539 -5.17838,-4.59437 -4.54575,-8.94763c0.52312,-3.59968 5.29908,-7.95668 4.58728,-9.29522c-0.77511,-1.45759 -5.38118,-0.36185 -8.55553,-3.41957c-2.52305,-2.43035 -3.82847,-9.05042 -3.82847,-10.45409z" fill="url(#color-34)"/><path d="M347.66941,40.31305c0,-2.18008 5.84259,2.28848 9.24353,1.70062c2.95839,-0.51137 3.4485,-6.09032 4.47816,-7.51998c1.76415,-2.44948 5.80687,-0.20315 8.52704,-1.56516c2.51718,-1.26037 3.65745,-6.22155 6.66415,-6.22155c2.27735,0 4.09144,7.096 5.65332,8.75439c2.54926,2.70678 4.42662,0.83298 6.54971,3.55198c2.47775,3.17319 6.5053,2.06402 6.5053,6.40197c0,2.18651 -0.65165,9.90153 -2.63848,11.51314c-3.06114,2.48303 -8.12348,-1.34449 -9.76584,1.42255c-2.3289,3.92373 2.72491,10.02454 -2.05212,10.02454c-1.52762,0 -8.42738,-3.19598 -12.15703,-2.12094c-5.00977,1.44404 -7.03554,7.1745 -8.66527,6.17495c-1.55773,-0.95539 -5.17838,-4.59437 -4.54575,-8.94763c0.52312,-3.59968 5.29908,-7.95668 4.58728,-9.29522c-0.77511,-1.45759 -5.38118,-0.36185 -8.55553,-3.41957c-2.52305,-2.43035 -3.82847,-9.05042 -3.82847,-10.45409z" fill="url(#color-35)"/><path d="M280.65486,86.15195c0,-2.18008 5.84259,2.28848 9.24353,1.70062c2.95839,-0.51137 3.4485,-6.09032 4.47816,-7.51998c1.76415,-2.44948 5.80687,-0.20315 8.52704,-1.56516c2.51718,-1.26037 3.65745,-6.22155 6.66415,-6.22155c2.27735,0 4.09144,7.096 5.65332,8.75439c2.54926,2.70678 4.42662,0.83298 6.54971,3.55198c2.47775,3.17319 6.5053,2.06402 6.5053,6.40197c0,2.18651 -0.65165,9.90153 -2.63848,11.51314c-3.06114,2.48303 -8.12348,-1.34449 -9.76584,1.42255c-2.3289,3.92373 2.72491,10.02454 -2.05212,10.02454c-1.52762,0 -8.42738,-3.19598 -12.15703,-2.12094c-5.00977,1.44404 -7.03554,7.1745 -8.66527,6.17495c-1.55773,-0.95539 -5.17838,-4.59437 -4.54575,-8.94763c0.52312,-3.59968 5.29908,-7.95668 4.58728,-9.29522c-0.77511,-1.45759 -5.38118,-0.36185 -8.55553,-3.41957c-2.52305,-2.43035 -3.82847,-9.05042 -3.82847,-10.45409z" fill="url(#color-36)"/><path d="M271.6574,130.81028c1.61192,-1.46782 2.24165,5.86072 4.96611,7.97951c2.36993,1.8431 6.82491,-1.55075 8.57523,-1.75201c2.99888,-0.34481 4.05988,4.15673 6.89837,5.25096c2.62667,1.01257 7.06261,-1.48461 9.08698,0.7385c1.53331,1.68384 -2.49196,7.80278 -2.66657,10.07417c-0.28498,3.70731 2.36448,3.8338 1.78353,7.23424c-0.67797,3.96846 2.85381,6.19959 -0.3536,9.12025c-1.61667,1.47215 -7.75978,6.18472 -10.28908,5.80076c-3.89693,-0.59157 -4.47531,-6.91159 -7.627,-6.26292c-4.46915,0.91983 -5.57734,8.76411 -8.79365,5.23206c-1.02852,-1.1295 -3.31096,-8.38286 -6.61695,-10.4167c-4.4407,-2.73189 -10.04163,-0.37149 -10.39984,-2.24947c-0.3424,-1.79501 -0.08951,-6.92213 3.55516,-9.38535c3.01376,-2.03682 9.45083,-1.43905 9.96128,-2.86656c0.55585,-1.55448 -3.35551,-4.22238 -3.23193,-8.62816c0.09824,-3.50181 4.11409,-8.92421 5.15194,-9.86928z" fill="url(#color-37)"/><path d="M260.89871,77.16054c0,-2.18008 5.84259,2.28848 9.24353,1.70062c2.95839,-0.51137 3.4485,-6.09032 4.47816,-7.51998c1.76415,-2.44948 5.80687,-0.20315 8.52704,-1.56516c2.51718,-1.26037 3.65745,-6.22155 6.66415,-6.22155c2.27735,0 4.09144,7.096 5.65332,8.75439c2.54926,2.70678 4.42662,0.83298 6.54971,3.55198c2.47775,3.17319 6.5053,2.06402 6.5053,6.40197c0,2.18651 -0.65165,9.90153 -2.63848,11.51314c-3.06114,2.48303 -8.12348,-1.34449 -9.76584,1.42255c-2.3289,3.92373 2.72491,10.02454 -2.05212,10.02454c-1.52762,0 -8.42738,-3.19598 -12.15703,-2.12094c-5.00977,1.44404 -7.03554,7.1745 -8.66527,6.17495c-1.55773,-0.95539 -5.17838,-4.59437 -4.54575,-8.94763c0.52312,-3.59968 5.29908,-7.95668 4.58728,-9.29522c-0.77511,-1.45759 -5.38118,-0.36185 -8.55553,-3.41957c-2.52305,-2.43035 -3.82847,-9.05042 -3.82847,-10.45409z" fill="url(#color-38)"/><path d="M276.23759,63.2325c0,-2.18008 5.84259,2.28848 9.24353,1.70062c2.95839,-0.51137 3.4485,-6.09032 4.47816,-7.51998c1.76415,-2.44948 5.80687,-0.20315 8.52704,-1.56516c2.51718,-1.26037 3.65745,-6.22155 6.66415,-6.22155c2.27735,0 4.09144,7.096 5.65332,8.75439c2.54926,2.70678 4.42662,0.83298 6.54971,3.55198c2.47775,3.17319 6.5053,2.06402 6.5053,6.40197c0,2.18651 -0.65165,9.90153 -2.63848,11.51314c-3.06114,2.48303 -8.12348,-1.34449 -9.76584,1.42255c-2.3289,3.92373 2.72491,10.02454 -2.05212,10.02454c-1.52762,0 -8.42738,-3.19598 -12.15703,-2.12094c-5.00977,1.44404 -7.03554,7.1745 -8.66527,6.17495c-1.55773,-0.95539 -5.17838,-4.59437 -4.54575,-8.94763c0.52312,-3.59968 5.29908,-7.95668 4.58728,-9.29522c-0.77511,-1.45759 -5.38118,-0.36185 -8.55553,-3.41957c-2.52305,-2.43035 -3.82847,-9.05042 -3.82847,-10.45409z" fill="url(#color-39)"/><path d="M268.01691,41.97303c0,-2.18008 5.84259,2.28848 9.24353,1.70062c2.95839,-0.51137 3.4485,-6.09032 4.47816,-7.51998c1.76415,-2.44948 5.80687,-0.20315 8.52704,-1.56516c2.51718,-1.26037 3.65745,-6.22155 6.66415,-6.22155c2.27735,0 4.09144,7.096 5.65332,8.75439c2.54926,2.70678 4.42662,0.83298 6.54971,3.55198c2.47775,3.17319 6.5053,2.06402 6.5053,6.40197c0,2.18651 -0.65165,9.90153 -2.63848,11.51314c-3.06114,2.48303 -8.12348,-1.34449 -9.76584,1.42255c-2.3289,3.92373 2.72491,10.02454 -2.05212,10.02454c-1.52762,0 -8.42738,-3.19598 -12.15703,-2.12094c-5.00977,1.44404 -7.03554,7.1745 -8.66527,6.17495c-1.55773,-0.95539 -5.17838,-4.59437 -4.54575,-8.94763c0.52312,-3.59968 5.29908,-7.95668 4.58728,-9.29522c-0.77511,-1.45759 -5.38118,-0.36185 -8.55553,-3.41957c-2.52305,-2.43035 -3.82847,-9.05042 -3.82847,-10.45409z" fill="url(#color-40)"/><path d="M170.33333,180c0,-82.6586 67.00805,-149.66667 149.66667,-149.66667c82.6586,0 149.66667,67.00805 149.66667,149.66667c0,82.6586 -67.00804,149.66667 -149.66667,149.66667c-82.6586,0 -149.66667,-67.00804 -149.66667,-149.66667z" fill="url(#color-41)"/><path d="M170.33333,180c0,-82.6586 67.00805,-149.66667 149.66667,-149.66667c82.6586,0 149.66667,67.00805 149.66667,149.66667c0,82.6586 -67.00804,149.66667 -149.66667,149.66667c-82.6586,0 -149.66667,-67.00804 -149.66667,-149.66667z" fill="url(#color-42)"/></g></g></svg>