<svg version="1.1" xmlns="http://www.w3.org/2000/svg" xmlns:xlink="http://www.w3.org/1999/xlink" width="59.68314" height="42.17506" viewBox="0,0,59.68314,42.17506"><defs><radialGradient cx="346.34543" cy="182.125" r="12.25019" gradientUnits="userSpaceOnUse" id="color-1"><stop offset="0" stop-color="#980000"/><stop offset="1" stop-color="#980000" stop-opacity="0"/></radialGradient><radialGradient cx="320" cy="180" r="21.08753" gradientUnits="userSpaceOnUse" id="color-2"><stop offset="0" stop-color="#980000"/><stop offset="1" stop-color="#980000" stop-opacity="0"/></radialGradient><radialGradient cx="320.04837" cy="180.09739" r="3.6363" gradientUnits="userSpaceOnUse" id="color-3"><stop offset="0" stop-color="#030303"/><stop offset="1" stop-color="#000000" stop-opacity="0.16078"/></radialGradient><radialGradient cx="320.04837" cy="180.09739" r="2.93809" gradientUnits="userSpaceOnUse" id="color-4"><stop offset="0" stop-color="#252525"/><stop offset="1" stop-color="#000000"/></radialGradient><radialGradient cx="320.04837" cy="180.09739" r="1.53834" gradientUnits="userSpaceOnUse" id="color-5"><stop offset="0" stop-color="#630000"/><stop offset="1" stop-color="#630000" stop-opacity="0"/></radialGradient></defs><g transform="translate(-298.91247,-158.91247)"><g stroke-width="0" stroke-miterlimit="10"><g><path d="M345.26441,184.80588v-5.50925h4.68471v5.50925z" fill="#ab0000" stroke="#000000"/><path d="M341.27137,185.8513c-0.93641,0 -1.69551,-1.40281 -1.69551,-3.13326v-1.58479c0,-1.73045 0.75911,-3.13326 1.69551,-3.13326h4.63989c0.93641,0 1.69551,1.40281 1.69551,3.13326v1.58479c0,1.73045 -0.75911,3.13326 -1.69551,3.13326z" fill="#6a0000" stroke="none"/></g><path d="M328.50168,185.27726c-1.34392,0 -2.43338,-1.40281 -2.43338,-3.13326v-3.5955c0,-1.73045 1.08946,-3.13326 2.43338,-3.13326h3.38724c1.34392,0 2.43338,1.40281 2.43338,3.13326v3.5955c0,1.73045 -1.08946,3.13326 -2.43338,3.13326z" fill="#980000" stroke="none"/><path d="M322.70298,186.81955c0,-1.73045 1.08946,-3.13326 2.43338,-3.13326h3.16417c1.34392,0 2.43338,1.40281 2.43338,3.13326v4.07424c0,1.73045 -1.08946,3.13326 -2.43338,3.13326h-3.16417c-1.34392,0 -2.43338,-1.40281 -2.43338,-3.13326z" fill="#424242" stroke="none"/><path d="M322.70298,169.10621c0,-1.73045 1.08946,-3.13326 2.43338,-3.13326h3.16417c1.34392,0 2.43338,1.40281 2.43338,3.13326v4.07424c0,1.73045 -1.08946,3.13326 -2.43338,3.13326h-3.16417c-1.34392,0 -2.43338,-1.40281 -2.43338,-3.13326z" fill="#424242" stroke="none"/><path d="M320.04837,169.66088c4.47643,0 8.1053,4.67258 8.1053,10.43651c0,5.76393 -3.62887,10.43651 -8.1053,10.43651c-4.47643,0 -8.1053,-4.67258 -8.1053,-10.43651c0,-5.76393 3.62887,-10.43651 8.1053,-10.43651z" fill="#7c0000" stroke="#000000"/><path d="M317.29702,190.89379c0,1.73045 -1.08946,3.13326 -2.43338,3.13326h-3.16417c-1.34392,0 -2.43338,-1.40281 -2.43338,-3.13326v-4.07424c0,-1.73045 1.08946,-3.13326 2.43338,-3.13326h3.16417c1.34392,0 2.43338,1.40281 2.43338,3.13326z" fill="#424242" stroke="none"/><path d="M317.29702,173.18045c0,1.73045 -1.08946,3.13326 -2.43338,3.13326h-3.16417c-1.34392,0 -2.43338,-1.40281 -2.43338,-3.13326v-4.07424c0,-1.73045 1.08946,-3.13326 2.43338,-3.13326h3.16417c1.34392,0 2.43338,1.40281 2.43338,3.13326z" fill="#424242" stroke="none"/><path d="M316.33577,181.91107c-0.76277,0 -1.38111,-0.79619 -1.38111,-1.77834v-2.04069c0,-0.98215 0.61834,-1.77834 1.38111,-1.77834h1.92249c0.76277,0 1.38111,0.79619 1.38111,1.77834v2.04069c0,0.98215 -0.61834,1.77834 -1.38111,1.77834z" fill="#980000" stroke="none"/><path d="M321.02051,187.50844c-0.76277,0 -1.38111,-0.79619 -1.38111,-1.77834v-2.04069c0,-0.98215 0.61834,-1.77834 1.38111,-1.77834h1.92249c0.76277,0 1.38111,0.79619 1.38111,1.77834v2.04069c0,0.98215 -0.61834,1.77834 -1.38111,1.77834z" fill="#980000" stroke="none"/><path d="M320.185,176.31371c-0.76277,0 -1.38111,-0.79619 -1.38111,-1.77834v-2.04069c0,-0.98215 0.61834,-1.77834 1.38111,-1.77834h1.92249c0.76277,0 1.38111,0.79619 1.38111,1.77834v2.04069c0,0.98215 -0.61834,1.77834 -1.38111,1.77834z" fill="#980000" stroke="none"/><path d="M323.36286,181.91107c-0.76277,0 -1.38111,-0.79619 -1.38111,-1.77834v-2.04069c0,-0.98215 0.61834,-1.77834 1.38111,-1.77834h1.92249c0.76277,0 1.38111,0.79619 1.38111,1.77834v2.04069c0,0.98215 -0.61834,1.77834 -1.38111,1.77834z" fill="#980000" stroke="none"/><g><path d="M336.19561,186.00256v-4.50014h4.68471v4.50014z" fill="#6b2f2f" stroke="#000000"/><path d="M333.82956,183.75249c-1.34392,0 -2.43338,-1.40281 -2.43338,-3.13326v-1.58479c0,-1.73045 1.08946,-3.13326 2.43338,-3.13326h6.65911c1.34392,0 2.43338,1.40281 2.43338,3.13326v1.58479c0,1.73045 -1.08946,3.13326 -2.43338,3.13326z" fill="#6a0000" stroke="none"/></g><path d="M334.09523,182.125c0,-6.76559 5.4846,-12.25019 12.25019,-12.25019c6.76559,0 12.25019,5.4846 12.25019,12.25019c0,6.76559 -5.4846,12.2502 -12.25019,12.2502c-6.76559,0 -12.25019,-5.4846 -12.25019,-12.2502z" fill="url(#color-1)" stroke="#000000"/><path d="M298.91247,180c0,-11.64632 9.44121,-21.08753 21.08753,-21.08753c11.64632,0 21.08753,9.44121 21.08753,21.08753c0,11.64632 -9.44121,21.08753 -21.08753,21.08753c-11.64632,0 -21.08753,-9.44121 -21.08753,-21.08753z" fill="url(#color-2)" stroke="#000000"/><g stroke="#000000"><path d="M316.41208,180.09739c0,-2.58588 1.62803,-4.68215 3.63629,-4.68215c2.00827,0 3.6363,2.09627 3.6363,4.68215c0,2.58588 -1.62803,4.68215 -3.6363,4.68215c-2.00827,0 -3.63629,-2.09627 -3.63629,-4.68215z" fill="url(#color-3)"/><path d="M317.11029,180.09739c0,-2.08936 1.31543,-3.78313 2.93809,-3.78313c1.62267,0 2.93809,1.69376 2.93809,3.78313c0,2.08936 -1.31543,3.78313 -2.93809,3.78313c-1.62267,0 -2.93809,-1.69376 -2.93809,-3.78313z" fill="url(#color-4)"/><path d="M319.63192,180.09739c0,-0.53508 0.18645,-0.96887 0.41647,-0.96887c0.23001,0 0.41647,0.43378 0.41647,0.96887c0,0.53508 -0.18645,0.96887 -0.41647,0.96887c-0.23001,0 -0.41647,-0.43378 -0.41647,-0.96887z" fill="#630000"/><path d="M319.7692,180.09739c0,-0.19852 0.125,-0.35948 0.27917,-0.35948c0.15419,0 0.27917,0.16093 0.27917,0.35948c0,0.19852 -0.12499,0.35948 -0.27917,0.35948c-0.15419,0 -0.27917,-0.16093 -0.27917,-0.35948z" fill="#000000"/><path d="M318.51003,180.09739c0,-1.09396 0.68874,-1.9808 1.53834,-1.9808c0.8496,0 1.53834,0.88684 1.53834,1.9808c0,1.09396 -0.68875,1.9808 -1.53834,1.9808c-0.8496,0 -1.53834,-0.88684 -1.53834,-1.9808z" fill="url(#color-5)"/></g></g></g></svg>