<svg version="1.1" xmlns="http://www.w3.org/2000/svg" xmlns:xlink="http://www.w3.org/1999/xlink" width="274.28604" height="109.55184" viewBox="0,0,274.28604,109.55184"><defs><radialGradient cx="439.53386" cy="146.8865" r="29.21832" gradientUnits="userSpaceOnUse" id="color-1"><stop offset="0" stop-color="#ba0000" stop-opacity="0.3451"/><stop offset="1" stop-color="#ba0000" stop-opacity="0"/></radialGradient></defs><g transform="translate(-197.46614,-106.56165)"><g data-paper-data="{&quot;isPaintingLayer&quot;:true}" fill-rule="nonzero" stroke-linecap="butt" stroke-linejoin="miter" stroke-miterlimit="10" stroke-dasharray="" stroke-dashoffset="0" style="mix-blend-mode: normal"><path d="M200.46614,204.00729c0,-14.29909 0,-41.18003 0,-48.84242c0,-4.00513 15.5638,-8.27837 30.11661,-8.27837c28.39523,0 129.3801,0 179.8297,0c17.65526,0 29.12141,4.76767 29.12141,9.10621c0,7.37945 0,31.08073 0,45.53107c0,6.82742 -18.78577,11.58972 -35.46834,11.58972c-29.60473,0 -127.05008,0 -175.59841,0c-16.99733,0 -28.00097,-3.63062 -28.00097,-9.10621z" fill-opacity="0.70196" fill="#000000" stroke="#000000" stroke-width="6"/><text transform="translate(223.73549,194.10028) scale(1.07625,1.07625)" font-size="40" xml:space="preserve" fill-opacity="0.70196" fill="#008017" fill-rule="nonzero" stroke="none" stroke-width="1" stroke-linecap="butt" stroke-linejoin="miter" stroke-miterlimit="10" stroke-dasharray="" stroke-dashoffset="0" font-family="&quot;MV Boli&quot;, Pixel" font-weight="normal" text-anchor="start" style="mix-blend-mode: normal"><tspan x="0" dy="0">Skill Tree</tspan></text><g><path d="M410.31554,146.8865c0,-16.13683 13.0815,-29.21833 29.21832,-29.21833c16.13683,0 29.21832,13.0815 29.21832,29.21833c0,16.13683 -13.0815,29.21832 -29.21832,29.21832c-16.13683,0 -29.21832,-13.08149 -29.21832,-29.21832z" fill="#000000" stroke="#000000" stroke-width="6"/><text transform="translate(428.08129,165.41671) scale(1.2657,1.2657)" font-size="40" xml:space="preserve" fill-opacity="0.70196" fill="#ff0000" fill-rule="nonzero" stroke="none" stroke-width="1" stroke-linecap="butt" stroke-linejoin="miter" stroke-miterlimit="10" stroke-dasharray="" stroke-dashoffset="0" font-family="&quot;MV Boli&quot;, Pixel" font-weight="normal" text-anchor="start" style="mix-blend-mode: normal"><tspan x="0" dy="0">!</tspan></text><path d="M410.31554,146.8865c0,-16.13683 13.0815,-29.21833 29.21832,-29.21833c16.13683,0 29.21832,13.0815 29.21832,29.21833c0,16.13683 -13.0815,29.21832 -29.21832,29.21832c-16.13683,0 -29.21832,-13.08149 -29.21832,-29.21832z" fill="url(#color-1)" stroke="#000000" stroke-width="0"/></g></g></g></svg>