<svg version="1.1" xmlns="http://www.w3.org/2000/svg" xmlns:xlink="http://www.w3.org/1999/xlink" width="60.68314" height="42.17506" viewBox="0,0,60.68314,42.17506"><defs><radialGradient cx="347.34543" cy="181.22358" r="12.25019" gradientUnits="userSpaceOnUse" id="color-1"><stop offset="0" stop-color="#980000"/><stop offset="1" stop-color="#980000" stop-opacity="0"/></radialGradient><radialGradient cx="320" cy="180" r="21.08753" gradientUnits="userSpaceOnUse" id="color-2"><stop offset="0" stop-color="#980000"/><stop offset="1" stop-color="#980000" stop-opacity="0"/></radialGradient><radialGradient cx="320.04837" cy="180.79903" r="3.6363" gradientUnits="userSpaceOnUse" id="color-3"><stop offset="0" stop-color="#030303"/><stop offset="1" stop-color="#000000" stop-opacity="0.16078"/></radialGradient><radialGradient cx="320.04837" cy="180.79903" r="2.93809" gradientUnits="userSpaceOnUse" id="color-4"><stop offset="0" stop-color="#252525"/><stop offset="1" stop-color="#000000"/></radialGradient><radialGradient cx="320.04837" cy="180.79903" r="1.53834" gradientUnits="userSpaceOnUse" id="color-5"><stop offset="0" stop-color="#630000"/><stop offset="1" stop-color="#630000" stop-opacity="0"/></radialGradient></defs><g transform="translate(-298.91247,-158.91247)"><g stroke-width="0" stroke-miterlimit="10"><g><path d="M345.26441,184.28349v-5.85291h4.68471v5.85291z" fill="#ab0000" stroke="#000000"/><path d="M341.27137,185.39412c-0.93641,0 -1.69551,-1.49031 -1.69551,-3.32871v-1.68365c0,-1.83839 0.75911,-3.32871 1.69551,-3.32871h4.63989c0.93641,0 1.69551,1.49031 1.69551,3.32871v1.68365c0,1.83839 -0.75911,3.32871 -1.69551,3.32871z" fill="#6a0000" stroke="none"/></g><path d="M328.50168,185.60645c-1.34392,0 -2.43338,-1.49031 -2.43338,-3.32871v-3.81978c0,-1.83839 1.08946,-3.32871 2.43338,-3.32871h3.38724c1.34392,0 2.43338,1.49031 2.43338,3.32871v3.81978c0,1.83839 -1.08946,3.32871 -2.43338,3.32871z" fill="#980000" stroke="none"/><path d="M322.70298,187.24495c0,-1.83839 1.08946,-3.32871 2.43338,-3.32871h3.16417c1.34392,0 2.43338,1.49031 2.43338,3.32871v4.32839c0,1.83839 -1.08946,3.32871 -2.43338,3.32871h-3.16417c-1.34392,0 -2.43338,-1.49031 -2.43338,-3.32871z" fill="#424242" stroke="none"/><path d="M322.70298,168.42667c0,-1.83839 1.08946,-3.32871 2.43338,-3.32871h3.16417c1.34392,0 2.43338,1.49031 2.43338,3.32871v4.32839c0,1.83839 -1.08946,3.32871 -2.43338,3.32871h-3.16417c-1.34392,0 -2.43338,-1.49031 -2.43338,-3.32871z" fill="#424242" stroke="none"/><path d="M320.04837,169.01593c4.47643,0 8.1053,4.96406 8.1053,11.08753c0,6.12348 -3.62887,11.08753 -8.1053,11.08753c-4.47643,0 -8.1053,-4.96406 -8.1053,-11.08753c0,-6.12348 3.62887,-11.08753 8.1053,-11.08753z" fill="#7c0000" stroke="#000000"/><path d="M317.29702,191.57333c0,1.83839 -1.08946,3.32871 -2.43338,3.32871h-3.16417c-1.34392,0 -2.43338,-1.49031 -2.43338,-3.32871v-4.32839c0,-1.83839 1.08946,-3.32871 2.43338,-3.32871h3.16417c1.34392,0 2.43338,1.49031 2.43338,3.32871z" fill="#424242" stroke="none"/><path d="M317.29702,172.75505c0,1.83839 -1.08946,3.32871 -2.43338,3.32871h-3.16417c-1.34392,0 -2.43338,-1.49031 -2.43338,-3.32871v-4.32839c0,-1.83839 1.08946,-3.32871 2.43338,-3.32871h3.16417c1.34392,0 2.43338,1.49031 2.43338,3.32871z" fill="#424242" stroke="none"/><path d="M316.33577,182.03028c-0.76277,0 -1.38111,-0.84586 -1.38111,-1.88927v-2.16799c0,-1.04342 0.61834,-1.88927 1.38111,-1.88927h1.92249c0.76277,0 1.38111,0.84586 1.38111,1.88927v2.16799c0,1.04342 -0.61834,1.88927 -1.38111,1.88927z" fill="#980000" stroke="none"/><path d="M321.02051,187.97681c-0.76277,0 -1.38111,-0.84586 -1.38111,-1.88927v-2.16799c0,-1.04342 0.61834,-1.88927 1.38111,-1.88927h1.92249c0.76277,0 1.38111,0.84586 1.38111,1.88927v2.16799c0,1.04342 -0.61834,1.88927 -1.38111,1.88927z" fill="#980000" stroke="none"/><path d="M320.185,176.08376c-0.76277,0 -1.38111,-0.84586 -1.38111,-1.88927v-2.16799c0,-1.04342 0.61834,-1.88927 1.38111,-1.88927h1.92249c0.76277,0 1.38111,0.84586 1.38111,1.88927v2.16799c0,1.04342 -0.61834,1.88927 -1.38111,1.88927z" fill="#980000" stroke="none"/><path d="M323.36286,182.03028c-0.76277,0 -1.38111,-0.84586 -1.38111,-1.88927v-2.16799c0,-1.04342 0.61834,-1.88927 1.38111,-1.88927h1.92249c0.76277,0 1.38111,0.84586 1.38111,1.88927v2.16799c0,1.04342 -0.61834,1.88927 -1.38111,1.88927z" fill="#980000" stroke="none"/><g><path d="M336.19561,186.37699v-4.78086h4.68471v4.78086z" fill="#6b2f2f" stroke="#000000"/><path d="M333.82956,183.98657c-1.34392,0 -2.43338,-1.49031 -2.43338,-3.32871v-1.68365c0,-1.83839 1.08946,-3.32871 2.43338,-3.32871h6.65911c1.34392,0 2.43338,1.49031 2.43338,3.32871v1.68365c0,1.83839 -1.08946,3.32871 -2.43338,3.32871z" fill="#6a0000" stroke="none"/></g><path d="M335.09523,181.22358c0,-6.76559 5.4846,-12.25019 12.25019,-12.25019c6.76559,0 12.25019,5.4846 12.25019,12.25019c0,6.76559 -5.4846,12.2502 -12.25019,12.2502c-6.76559,0 -12.25019,-5.4846 -12.25019,-12.2502z" fill="url(#color-1)" stroke="#000000"/><path d="M298.91247,180c0,-11.64632 9.44121,-21.08753 21.08753,-21.08753c11.64632,0 21.08753,9.44121 21.08753,21.08753c0,11.64632 -9.44121,21.08753 -21.08753,21.08753c-11.64632,0 -21.08753,-9.44121 -21.08753,-21.08753z" fill="url(#color-2)" stroke="#000000"/><g stroke="#000000"><path d="M316.41208,180.79903c0,-2.74718 1.62803,-4.97422 3.63629,-4.97422c2.00827,0 3.6363,2.22703 3.6363,4.97422c0,2.74718 -1.62803,4.97422 -3.6363,4.97422c-2.00827,0 -3.63629,-2.22703 -3.63629,-4.97422z" fill="url(#color-3)"/><path d="M317.11029,180.79903c0,-2.2197 1.31543,-4.01912 2.93809,-4.01912c1.62267,0 2.93809,1.79941 2.93809,4.01912c0,2.2197 -1.31543,4.01912 -2.93809,4.01912c-1.62267,0 -2.93809,-1.79941 -2.93809,-4.01912z" fill="url(#color-4)"/><path d="M319.63192,180.79903c0,-0.56845 0.18645,-1.02931 0.41647,-1.02931c0.23001,0 0.41647,0.46084 0.41647,1.02931c0,0.56845 -0.18645,1.02931 -0.41647,1.02931c-0.23001,0 -0.41647,-0.46084 -0.41647,-1.02931z" fill="#630000"/><path d="M319.7692,180.79903c0,-0.21091 0.125,-0.3819 0.27917,-0.3819c0.15419,0 0.27917,0.17097 0.27917,0.3819c0,0.21091 -0.12499,0.3819 -0.27917,0.3819c-0.15419,0 -0.27917,-0.17097 -0.27917,-0.3819z" fill="#000000"/><path d="M318.51003,180.79903c0,-1.1622 0.68874,-2.10436 1.53834,-2.10436c0.8496,0 1.53834,0.94216 1.53834,2.10436c0,1.1622 -0.68875,2.10436 -1.53834,2.10436c-0.8496,0 -1.53834,-0.94216 -1.53834,-2.10436z" fill="url(#color-5)"/></g></g></g></svg>