<svg version="1.1" xmlns="http://www.w3.org/2000/svg" xmlns:xlink="http://www.w3.org/1999/xlink" width="51.42858" height="51.87436" viewBox="0,0,51.42858,51.87436"><defs><radialGradient cx="320.34386" cy="180" r="19.44186" gradientUnits="userSpaceOnUse" id="color-1"><stop offset="0" stop-color="#4200ff"/><stop offset="1" stop-color="#4200ff" stop-opacity="0"/></radialGradient><radialGradient cx="320.34386" cy="180" r="19.44186" gradientUnits="userSpaceOnUse" id="color-2"><stop offset="0" stop-color="#ff0000"/><stop offset="1" stop-color="#ff0000" stop-opacity="0"/></radialGradient><radialGradient cx="320.34386" cy="180" r="13.55039" gradientUnits="userSpaceOnUse" id="color-3"><stop offset="0" stop-color="#ff0000"/><stop offset="1" stop-color="#ff0000" stop-opacity="0"/></radialGradient><radialGradient cx="315.799" cy="180" r="19.44186" gradientUnits="userSpaceOnUse" id="color-4"><stop offset="0" stop-color="#4200ff"/><stop offset="1" stop-color="#4200ff" stop-opacity="0"/></radialGradient><radialGradient cx="315.799" cy="180" r="19.44186" gradientUnits="userSpaceOnUse" id="color-5"><stop offset="0" stop-color="#ff0000"/><stop offset="1" stop-color="#ff0000" stop-opacity="0"/></radialGradient><radialGradient cx="315.799" cy="180" r="13.55039" gradientUnits="userSpaceOnUse" id="color-6"><stop offset="0" stop-color="#ff0000"/><stop offset="1" stop-color="#ff0000" stop-opacity="0"/></radialGradient></defs><g transform="translate(-292.35714,-151.5675)"><g data-paper-data="{&quot;isPaintingLayer&quot;:true}" fill-rule="nonzero" stroke-linecap="butt" stroke-linejoin="miter" stroke-miterlimit="10" stroke-dasharray="" stroke-dashoffset="0" style="mix-blend-mode: normal"><g stroke-width="8"><path d="M300.902,180c0,-10.73744 8.70442,-19.44186 19.44186,-19.44186c10.73744,0 19.44186,8.70442 19.44186,19.44186c0,10.73744 -8.70442,19.44186 -19.44186,19.44186c-10.73744,0 -19.44186,-8.70442 -19.44186,-19.44186z" fill="url(#color-1)" stroke="url(#color-2)"/><path d="M306.79347,180c0,-7.48368 6.06671,-13.55039 13.55039,-13.55039c7.48368,0 13.55039,6.06671 13.55039,13.55039c0,7.48368 -6.06671,13.55039 -13.55039,13.55039c-7.48368,0 -13.55039,-6.06671 -13.55039,-13.55039z" fill="none" stroke="url(#color-3)"/></g><g stroke-width="8"><path d="M296.35714,180c0,-10.73744 8.70442,-19.44186 19.44186,-19.44186c10.73744,0 19.44186,8.70442 19.44186,19.44186c0,10.73744 -8.70442,19.44186 -19.44186,19.44186c-10.73744,0 -19.44186,-8.70442 -19.44186,-19.44186z" fill="url(#color-4)" stroke="url(#color-5)"/><path d="M302.24861,180c0,-7.48367 6.06672,-13.55039 13.55039,-13.55039c7.48367,0 13.55039,6.06672 13.55039,13.55039c0,7.48367 -6.06672,13.55039 -13.55039,13.55039c-7.48367,0 -13.55039,-6.06672 -13.55039,-13.55039z" fill="none" stroke="url(#color-6)"/></g><text transform="translate(297.28387,161.25928) scale(0.20828,0.20828)" font-size="40" xml:space="preserve" fill="#00ff08" fill-rule="nonzero" stroke="#00ff09" stroke-width="2" stroke-linecap="butt" stroke-linejoin="miter" stroke-miterlimit="10" stroke-dasharray="" stroke-dashoffset="0" font-family="&quot;MV Boli&quot;, Technological" font-weight="normal" text-anchor="start" style="mix-blend-mode: normal"><tspan x="0" dy="0">Warp Gate</tspan></text></g></g></svg>