<svg version="1.1" xmlns="http://www.w3.org/2000/svg" xmlns:xlink="http://www.w3.org/1999/xlink" width="64.37064" height="42.17506" viewBox="0,0,64.37064,42.17506"><defs><radialGradient cx="351.03293" cy="182.3196" r="12.25019" gradientUnits="userSpaceOnUse" id="color-1"><stop offset="0" stop-color="#980000"/><stop offset="1" stop-color="#980000" stop-opacity="0"/></radialGradient><radialGradient cx="320" cy="180" r="21.08753" gradientUnits="userSpaceOnUse" id="color-2"><stop offset="0" stop-color="#980000"/><stop offset="1" stop-color="#980000" stop-opacity="0"/></radialGradient><radialGradient cx="320.05911" cy="180.09739" r="6.83859" gradientUnits="userSpaceOnUse" id="color-3"><stop offset="0" stop-color="#030303"/><stop offset="1" stop-color="#000000" stop-opacity="0.16078"/></radialGradient><radialGradient cx="320.05911" cy="180.09739" r="5.52549" gradientUnits="userSpaceOnUse" id="color-4"><stop offset="0" stop-color="#252525"/><stop offset="1" stop-color="#000000"/></radialGradient><radialGradient cx="320.05911" cy="180.09739" r="2.89308" gradientUnits="userSpaceOnUse" id="color-5"><stop offset="0" stop-color="#630000"/><stop offset="1" stop-color="#630000" stop-opacity="0"/></radialGradient></defs><g transform="translate(-298.91247,-158.91247)"><g stroke-width="0" stroke-miterlimit="10"><path d="M351.84164,185.18088v-5.50925h5.72427v5.50925z" fill="#ab0000" stroke="#000000"/><path d="M331.35918,185.27726c-1.64214,0 -2.97336,-1.40281 -2.97336,-3.13326v-3.5955c0,-1.73045 1.33122,-3.13326 2.97336,-3.13326h4.13889c1.64214,0 2.97336,1.40281 2.97336,3.13326v3.5955c0,1.73045 -1.33122,3.13326 -2.97336,3.13326z" fill="#980000" stroke="none"/><path d="M346.96251,186.2263c-1.1442,0 -2.07176,-1.40281 -2.07176,-3.13326v-1.58479c0,-1.73045 0.92756,-3.13326 2.07176,-3.13326h5.66951c1.1442,0 2.07176,1.40281 2.07176,3.13326v1.58479c0,1.73045 -0.92756,3.13326 -2.07176,3.13326z" fill="#6a0000" stroke="none"/><path d="M323.30278,186.81955c0,-1.73045 1.33122,-3.13326 2.97336,-3.13326h3.86632c1.64214,0 2.97336,1.40281 2.97336,3.13326v4.07424c0,1.73045 -1.33122,3.13326 -2.97336,3.13326h-3.86632c-1.64214,0 -2.97336,-1.40281 -2.97336,-3.13326z" fill="#424242" stroke="none"/><path d="M323.30278,169.10621c0,-1.73045 1.33122,-3.13326 2.97336,-3.13326h3.86632c1.64214,0 2.97336,1.40281 2.97336,3.13326v4.07424c0,1.73045 -1.33122,3.13326 -2.97336,3.13326h-3.86632c-1.64214,0 -2.97336,-1.40281 -2.97336,-3.13326z" fill="#424242" stroke="none"/><path d="M320.05911,169.66088c5.46977,0 9.90389,4.67258 9.90389,10.43651c0,5.76393 -4.43412,10.43651 -9.90389,10.43651c-5.46977,0 -9.90389,-4.67258 -9.90389,-10.43651c0,-5.76393 4.43412,-10.43651 9.90389,-10.43651z" fill="#7c0000" stroke="#000000"/><path d="M316.69723,190.89379c0,1.73045 -1.33122,3.13326 -2.97336,3.13326h-3.86632c-1.64214,0 -2.97336,-1.40281 -2.97336,-3.13326v-4.07424c0,-1.73045 1.33122,-3.13326 2.97336,-3.13326h3.86632c1.64214,0 2.97336,1.40281 2.97336,3.13326z" fill="#424242" stroke="none"/><path d="M316.69723,173.18045c0,1.73045 -1.33122,3.13326 -2.97336,3.13326h-3.86632c-1.64214,0 -2.97336,-1.40281 -2.97336,-3.13326v-4.07424c0,-1.73045 1.33122,-3.13326 2.97336,-3.13326h3.86632c1.64214,0 2.97336,1.40281 2.97336,3.13326z" fill="#424242" stroke="none"/><path d="M315.52268,181.91107c-0.93203,0 -1.68758,-0.79619 -1.68758,-1.77834v-2.04069c0,-0.98215 0.75556,-1.77834 1.68758,-1.77834h2.3491c0.93203,0 1.68758,0.79619 1.68758,1.77834v2.04069c0,0.98215 -0.75556,1.77834 -1.68758,1.77834z" fill="#980000" stroke="none"/><path d="M321.24697,187.50844c-0.93203,0 -1.68758,-0.79619 -1.68758,-1.77834v-2.04069c0,-0.98215 0.75556,-1.77834 1.68758,-1.77834h2.3491c0.93203,0 1.68758,0.79619 1.68758,1.77834v2.04069c0,0.98215 -0.75556,1.77834 -1.68758,1.77834z" fill="#980000" stroke="none"/><path d="M320.22605,176.31371c-0.93203,0 -1.68758,-0.79619 -1.68758,-1.77834v-2.04069c0,-0.98215 0.75556,-1.77834 1.68758,-1.77834h2.3491c0.93203,0 1.68758,0.79619 1.68758,1.77834v2.04069c0,0.98215 -0.75556,1.77834 -1.68758,1.77834z" fill="#980000" stroke="none"/><path d="M324.10909,181.91107c-0.93203,0 -1.68758,-0.79619 -1.68758,-1.77834v-2.04069c0,-0.98215 0.75556,-1.77834 1.68758,-1.77834h2.3491c0.93203,0 1.68758,0.79619 1.68758,1.77834v2.04069c0,0.98215 -0.75556,1.77834 -1.68758,1.77834z" fill="#980000" stroke="none"/><g><path d="M340.76043,184.08294v-4.50014h5.72427v4.50014z" fill="#6b2f2f" stroke="#000000"/><path d="M337.86936,181.83287c-1.64214,0 -2.97336,-1.40281 -2.97336,-3.13326v-1.58479c0,-1.73045 1.33122,-3.13326 2.97336,-3.13326h8.13679c1.64214,0 2.97336,1.40281 2.97336,3.13326v1.58479c0,1.73045 -1.33122,3.13326 -2.97336,3.13326z" fill="#6a0000" stroke="none"/></g><path d="M338.78273,182.3196c0,-6.76559 5.4846,-12.25019 12.25019,-12.25019c6.76559,0 12.25019,5.4846 12.25019,12.25019c0,6.76559 -5.4846,12.2502 -12.25019,12.2502c-6.76559,0 -12.25019,-5.4846 -12.25019,-12.2502z" fill="url(#color-1)" stroke="#000000"/><path d="M298.91247,180c0,-11.64632 9.44121,-21.08753 21.08753,-21.08753c11.64632,0 21.08753,9.44121 21.08753,21.08753c0,11.64632 -9.44121,21.08753 -21.08753,21.08753c-11.64632,0 -21.08753,-9.44121 -21.08753,-21.08753z" fill="url(#color-2)" stroke="#000000"/><g stroke="#000000"><path d="M313.22054,180.09739c0,-3.97997 3.06174,-7.20635 6.83858,-7.20635c3.77684,0 6.83859,3.22639 6.83859,7.20635c0,3.97997 -3.06174,7.20635 -6.83859,7.20635c-3.77684,0 -6.83858,-3.22639 -6.83858,-7.20635z" fill="url(#color-3)"/><path d="M314.5336,180.09739c0,-3.21576 2.47384,-5.82265 5.52549,-5.82265c3.05165,0 5.52549,2.60689 5.52549,5.82265c0,3.21576 -2.47384,5.82265 -5.52549,5.82265c-3.05165,0 -5.52549,-2.60689 -5.52549,-5.82265z" fill="url(#color-4)"/><path d="M319.27588,180.09739c0,-0.82356 0.35067,-1.4912 0.78324,-1.4912c0.43257,0 0.78322,0.66763 0.78322,1.4912c0,0.82356 -0.35067,1.4912 -0.78322,1.4912c-0.43257,0 -0.78324,-0.66763 -0.78324,-1.4912z" fill="#630000"/><path d="M319.53409,180.09739c0,-0.30555 0.23507,-0.55327 0.52502,-0.55327c0.28997,0 0.525,0.2477 0.525,0.55327c0,0.30555 -0.23506,0.55327 -0.525,0.55327c-0.28997,0 -0.52502,-0.2477 -0.52502,-0.55327z" fill="#000000"/><path d="M317.16603,180.09739c0,-1.68372 1.29527,-3.04867 2.89307,-3.04867c1.59779,0 2.89308,1.36494 2.89308,3.04867c0,1.68372 -1.29528,3.04867 -2.89308,3.04867c-1.59779,0 -2.89307,-1.36494 -2.89307,-3.04867z" fill="url(#color-5)"/></g></g></g></svg>