<svg version="1.1" xmlns="http://www.w3.org/2000/svg" xmlns:xlink="http://www.w3.org/1999/xlink" width="38.5" height="38.5" viewBox="0,0,38.5,38.5"><defs><radialGradient cx="320" cy="180" r="19.25" gradientUnits="userSpaceOnUse" id="color-1"><stop offset="0" stop-color="#33bd79"/><stop offset="1" stop-color="#33bd79" stop-opacity="0"/></radialGradient><radialGradient cx="316.30001" cy="180.00003" r="3.78571" gradientUnits="userSpaceOnUse" id="color-2"><stop offset="0" stop-color="#2d7002" stop-opacity="0.46175"/><stop offset="1" stop-color="#2d7002" stop-opacity="0"/></radialGradient><radialGradient cx="323.50001" cy="180.00003" r="3.78571" gradientUnits="userSpaceOnUse" id="color-3"><stop offset="0" stop-color="#2d7002" stop-opacity="0.46175"/><stop offset="1" stop-color="#2d7002" stop-opacity="0"/></radialGradient><radialGradient cx="320" cy="180" r="8.6875" gradientUnits="userSpaceOnUse" id="color-4"><stop offset="0" stop-color="#24f08a"/><stop offset="1" stop-color="#55826b"/></radialGradient><radialGradient cx="324.7875" cy="179.56844" r="11.6" gradientUnits="userSpaceOnUse" id="color-5"><stop offset="0" stop-color="#2c7002" stop-opacity="0.24314"/><stop offset="1" stop-color="#2c7002" stop-opacity="0"/></radialGradient><radialGradient cx="324.41841" cy="177.9339" r="5.43091" gradientUnits="userSpaceOnUse" id="color-6"><stop offset="0" stop-color="#2c7002" stop-opacity="0.24314"/><stop offset="1" stop-color="#2c7002" stop-opacity="0"/></radialGradient><radialGradient cx="325.31477" cy="181.20299" r="5.43091" gradientUnits="userSpaceOnUse" id="color-7"><stop offset="0" stop-color="#2c7002" stop-opacity="0.24314"/><stop offset="1" stop-color="#2c7002" stop-opacity="0"/></radialGradient><radialGradient cx="324.41841" cy="179.77935" r="5.43091" gradientUnits="userSpaceOnUse" id="color-8"><stop offset="0" stop-color="#2c7002" stop-opacity="0.24314"/><stop offset="1" stop-color="#2c7002" stop-opacity="0"/></radialGradient><radialGradient cx="325.31477" cy="176.93208" r="5.43091" gradientUnits="userSpaceOnUse" id="color-9"><stop offset="0" stop-color="#2c7002" stop-opacity="0.24314"/><stop offset="1" stop-color="#2c7002" stop-opacity="0"/></radialGradient></defs><g transform="translate(-300.75,-160.75)"><g data-paper-data="{&quot;isPaintingLayer&quot;:true}" fill-rule="nonzero" stroke-linejoin="miter" stroke-miterlimit="10" stroke-dasharray="" stroke-dashoffset="0" style="mix-blend-mode: normal"><path d="M300.75,180c0,-10.63148 8.61852,-19.25 19.25,-19.25c10.63148,0 19.25,8.61852 19.25,19.25c0,10.63148 -8.61852,19.25 -19.25,19.25c-10.63148,0 -19.25,-8.61852 -19.25,-19.25z" fill="url(#color-1)" stroke="#6e6e6e" stroke-width="0" stroke-linecap="butt"/><path d="" fill="#494949" stroke="#6e6e6e" stroke-width="1" stroke-linecap="butt"/><g><path d="" fill="none" stroke="#ffffff" stroke-width="2.5" stroke-linecap="round"/><path d="" fill="url(#color-2)" stroke="none" stroke-width="0" stroke-linecap="butt"/></g><g data-paper-data="{&quot;index&quot;:null}"><path d="" fill="none" stroke="#ffffff" stroke-width="2.5" stroke-linecap="round"/><path d="" fill="url(#color-3)" stroke="none" stroke-width="0" stroke-linecap="butt"/></g><path d="M311.3125,180c0,-4.79797 3.88953,-8.6875 8.6875,-8.6875c4.79797,0 8.6875,3.88953 8.6875,8.6875c0,4.79797 -3.88953,8.6875 -8.6875,8.6875c-4.79797,0 -8.6875,-3.88953 -8.6875,-8.6875z" fill="url(#color-4)" stroke="#729e88" stroke-width="1" stroke-linecap="butt"/><g stroke="none" stroke-linecap="butt"><path d="M324.7875,167.96844c6.4065,0 11.6,5.1935 11.6,11.6c0,6.4065 -5.1935,11.6 -11.6,11.6c-6.4065,0 -11.6,-5.1935 -11.6,-11.6c0,-6.4065 5.1935,-11.6 11.6,-11.6z" fill="url(#color-5)" stroke-width="0"/><path d="M322.96841,177.45935c0,-0.93186 0.75542,-1.68727 1.68727,-1.68727h0.26364c0.93186,0 1.68727,0.75542 1.68727,1.68727v4.21818c0,0.93186 -0.75542,1.68727 -1.68727,1.68727h-0.26364c-0.93186,0 -1.68727,-0.75542 -1.68727,-1.68727z" fill="#9ff4a8" stroke-width="NaN"/><path d="M324.41841,172.50299c2.99941,0 5.43091,2.4315 5.43091,5.43091c0,2.99941 -2.4315,5.43091 -5.43091,5.43091c-2.99941,0 -5.43091,-2.4315 -5.43091,-5.43091c0,-2.99941 2.4315,-5.43091 5.43091,-5.43091z" fill="url(#color-6)" stroke-width="0"/><path d="M325.31477,175.77208c2.99941,0 5.43091,2.4315 5.43091,5.43091c0,2.99941 -2.4315,5.43091 -5.43091,5.43091c-2.99941,0 -5.43091,-2.4315 -5.43091,-5.43091c0,-2.99941 2.4315,-5.43091 5.43091,-5.43091z" fill="url(#color-7)" stroke-width="0"/><path d="M324.41841,174.34844c2.99941,0 5.43091,2.4315 5.43091,5.43091c0,2.99941 -2.4315,5.43091 -5.43091,5.43091c-2.99941,0 -5.43091,-2.4315 -5.43091,-5.43091c0,-2.99941 2.4315,-5.43091 5.43091,-5.43091z" fill="url(#color-8)" stroke-width="0"/><path d="M325.31477,171.50117c2.99941,0 5.43091,2.4315 5.43091,5.43091c0,2.99941 -2.4315,5.43091 -5.43091,5.43091c-2.99941,0 -5.43091,-2.4315 -5.43091,-5.43091c0,-2.99941 2.4315,-5.43091 5.43091,-5.43091z" fill="url(#color-9)" stroke-width="0"/></g><text transform="translate(311.6125,185.33004) scale(0.37195,0.37195)" font-size="40" xml:space="preserve" fill="#00ff80" fill-rule="nonzero" stroke="none" stroke-width="1" stroke-linecap="butt" stroke-linejoin="miter" stroke-miterlimit="10" stroke-dasharray="" stroke-dashoffset="0" font-family="&quot;MV Boli&quot;, Technological" font-weight="normal" text-anchor="start" style="mix-blend-mode: normal"><tspan x="0" dy="0">+</tspan></text><text transform="translate(317.59591,186.77507) scale(0.10271,0.10271)" font-size="40" xml:space="preserve" fill="#00ff80" fill-rule="nonzero" stroke="none" stroke-width="1" stroke-linecap="butt" stroke-linejoin="miter" stroke-miterlimit="10" stroke-dasharray="" stroke-dashoffset="0" font-family="&quot;MV Boli&quot;, Technological" font-weight="normal" text-anchor="start" style="mix-blend-mode: normal"><tspan x="0" dy="0">x8</tspan></text></g></g></svg>