<svg version="1.1" xmlns="http://www.w3.org/2000/svg" xmlns:xlink="http://www.w3.org/1999/xlink" width="80.26482" height="50.79445" viewBox="0,0,80.26482,50.79445"><defs><linearGradient x1="174.92977" y1="108.3125" x2="174.92977" y2="110.52093" gradientUnits="userSpaceOnUse" id="color-1"><stop offset="0" stop-color="#203123"/><stop offset="1" stop-color="#0d741e"/></linearGradient><linearGradient x1="169.50743" y1="110.54947" x2="169.50743" y2="112.08331" gradientUnits="userSpaceOnUse" id="color-2"><stop offset="0" stop-color="#0d741e"/><stop offset="1" stop-color="#24c539"/></linearGradient><linearGradient x1="165.60912" y1="112.22506" x2="168.78437" y2="112.22506" gradientUnits="userSpaceOnUse" id="color-3"><stop offset="0" stop-color="#0a6519"/><stop offset="1" stop-color="#24c539"/></linearGradient><linearGradient x1="165.60912" y1="116.29536" x2="168.78437" y2="116.29536" gradientUnits="userSpaceOnUse" id="color-4"><stop offset="0" stop-color="#0a6519"/><stop offset="1" stop-color="#23c439"/></linearGradient><linearGradient x1="167.19674" y1="108.43948" x2="167.19674" y2="109.56534" gradientUnits="userSpaceOnUse" id="color-5"><stop offset="0" stop-color="#203123"/><stop offset="1" stop-color="#23c439"/></linearGradient><radialGradient cx="189.63434" cy="88.81804" r="10.81884" gradientUnits="userSpaceOnUse" id="color-6"><stop offset="0" stop-color="#ba0000" stop-opacity="0.3451"/><stop offset="1" stop-color="#ba0000" stop-opacity="0"/></radialGradient></defs><g transform="translate(-121.18836,-73.88664)"><g data-paper-data="{&quot;isPaintingLayer&quot;:true}" fill-rule="nonzero" stroke-linecap="butt" stroke-linejoin="miter" stroke-miterlimit="10" stroke-dasharray="" stroke-dashoffset="0" style="mix-blend-mode: normal"><path d="M133.04331,123.18109c-5.71888,0 -10.35495,-4.13788 -10.35495,-9.24221v-15.04545c0,-5.10433 4.63607,-9.24221 10.35495,-9.24221h46.23608c5.71889,0 10.35495,4.13788 10.35495,9.24221v15.04545c0,5.10433 -4.63607,9.24221 -10.35495,9.24221z" fill-opacity="0.70196" fill="#000000" stroke="#000000" stroke-width="3"/><text transform="translate(143.31464,99.5111) scale(0.21833,0.21833)" font-size="40" xml:space="preserve" fill-opacity="0.9098" fill="#00631b" fill-rule="nonzero" stroke-opacity="0.9098" stroke="#00631b" stroke-width="1" stroke-linecap="butt" stroke-linejoin="miter" stroke-miterlimit="10" stroke-dasharray="" stroke-dashoffset="0" font-family="&quot;MV Boli&quot;, Technological" font-weight="normal" text-anchor="middle" style="mix-blend-mode: normal"><tspan x="0" dy="0">Weapon</tspan><tspan x="0" dy="48px">Cooldown</tspan></text><g><path d="M168.64814,108.3125h12.56327c0,0 0,1.0446 0,1.45032c0,0.29333 -0.23431,0.52382 -0.23431,0.52382c0,0 -0.15183,0.23431 -0.58295,0.23431c-1.63441,0 -11.74602,0 -11.74602,0z" fill="url(#color-1)" stroke="#000000" stroke-width="1"/><path d="M168.67097,112.08331v-1.53383h1.67293c0,0 0,0.37862 0,0.60084c0,0.27692 -0.18745,0.69869 -0.18745,0.69869c0,0 -0.45795,0.2343 -0.7517,0.2343c-0.25966,0 -0.73378,0 -0.73378,0z" fill="url(#color-2)" stroke="#000000" stroke-width="1"/><path d="M165.60912,108.48279c0,0 0,-1.53025 0,-2.11109c0,-0.40819 0.42174,-0.76141 0.42174,-0.76141c0,0 0.49196,-1.03093 1.37856,-1.03093c1.21321,0 0.32877,-0.01474 4.54607,-0.02768c3.30373,-0.01015 4.99018,0.79401 6.50786,0.91803c0.65252,0.05332 2.73794,0.15674 4.30839,0.24585c1.05476,0.05986 1.40862,0.34754 1.40862,0.37497c0,0.06377 0.46861,0.28446 0.46861,0.74976c0,0.36944 0,0.74539 0,0.93721c0,0.40362 -0.23431,0.51783 -0.23431,0.51783c0,0 -0.12046,0.18745 -0.55715,0.18745c-2.09689,0 -18.24839,0 -18.24839,0z" fill="#203123" stroke="#000000" stroke-width="1"/><g stroke="#000000" stroke-width="1"><path d="M165.60912,115.96733v-7.48454h3.17525c0,0 0,1.98904 0,3.74649c0,0.19113 -0.46861,1.08244 -0.46861,1.26524c0,0.72576 0.46861,0.66039 0.46861,1.03093c0,0.16722 -0.42174,0.4851 -0.42174,0.65605c0,0.48922 0.42174,0.78583 0.42174,0.78583z" fill="url(#color-3)"/><path d="M165.80046,116.49482c0,0 -0.19136,-0.31295 -0.19136,-0.44301c0,-0.05994 0,-0.13134 0,-0.13134h3.17526c0,0 0,0.16085 0,0.26152c0,0.13755 -0.09277,0.41402 -0.09277,0.41402c0,0 -0.21533,0.07422 -0.47249,0.07422c-0.31411,0 -1.11444,0 -1.74672,0c-0.48006,0 -0.6719,-0.17541 -0.6719,-0.17541z" fill="url(#color-4)"/></g><path d="M165.60912,109.56534v-1.12586h3.17525v1.12586z" fill="url(#color-5)" stroke="none" stroke-width="0"/></g><g fill="#ffffff" stroke="#ffffff" stroke-width="0" font-weight="normal" font-size="40" text-anchor="start"><text transform="translate(126.68836,118.61355) scale(0.21833,0.21833)" font-size="40" xml:space="preserve" fill="#ffffff" fill-rule="nonzero" stroke="#ffffff" stroke-width="0" stroke-linecap="butt" stroke-linejoin="miter" stroke-miterlimit="10" stroke-dasharray="" stroke-dashoffset="0" font-family="&quot;MV Boli&quot;, Technological" font-weight="normal" text-anchor="start" style="mix-blend-mode: normal"><tspan x="0" dy="0">Lv</tspan></text><text transform="translate(137.18071,118.6345) scale(0.3353,0.3353)" font-size="40" xml:space="preserve" fill="#ffffff" fill-rule="nonzero" stroke="#ffffff" stroke-width="0" stroke-linecap="butt" stroke-linejoin="miter" stroke-miterlimit="10" stroke-dasharray="" stroke-dashoffset="0" font-family="Handwriting" font-weight="normal" text-anchor="start" style="mix-blend-mode: normal"><tspan x="0" dy="0">.</tspan></text></g><g><path d="M178.81549,88.81804c0,-5.97508 4.84377,-10.81885 10.81885,-10.81885c5.97508,0 10.81884,4.84377 10.81884,10.81885c0,5.97508 -4.84377,10.81885 -10.81884,10.81885c-5.97508,0 -10.81885,-4.84376 -10.81885,-10.81885z" fill="#000000" stroke="#000000" stroke-width="2"/><text transform="translate(185.39372,95.67933) scale(0.46866,0.46866)" font-size="40" xml:space="preserve" fill-opacity="0.70196" fill="#ff0000" fill-rule="nonzero" stroke="none" stroke-width="1" stroke-linecap="butt" stroke-linejoin="miter" stroke-miterlimit="10" stroke-dasharray="" stroke-dashoffset="0" font-family="&quot;MV Boli&quot;, Pixel" font-weight="normal" text-anchor="start" style="mix-blend-mode: normal"><tspan x="0" dy="0">!</tspan></text><path d="M178.81549,88.81804c0,-5.97508 4.84377,-10.81885 10.81885,-10.81885c5.97508,0 10.81884,4.84377 10.81884,10.81885c0,5.97508 -4.84377,10.81885 -10.81884,10.81885c-5.97508,0 -10.81885,-4.84376 -10.81885,-10.81885z" fill="url(#color-6)" stroke="#000000" stroke-width="0"/></g></g></g></svg>