<svg version="1.1" xmlns="http://www.w3.org/2000/svg" xmlns:xlink="http://www.w3.org/1999/xlink" width="38.5" height="38.5" viewBox="0,0,38.5,38.5"><defs><radialGradient cx="320" cy="180" r="19.25" gradientUnits="userSpaceOnUse" id="color-1"><stop offset="0" stop-color="#bcbd33"/><stop offset="1" stop-color="#bcbd33" stop-opacity="0"/></radialGradient><radialGradient cx="316.30001" cy="180.00003" r="3.78571" gradientUnits="userSpaceOnUse" id="color-2"><stop offset="0" stop-color="#2d7002" stop-opacity="0.46175"/><stop offset="1" stop-color="#2d7002" stop-opacity="0"/></radialGradient><radialGradient cx="323.50001" cy="180.00003" r="3.78571" gradientUnits="userSpaceOnUse" id="color-3"><stop offset="0" stop-color="#2d7002" stop-opacity="0.46175"/><stop offset="1" stop-color="#2d7002" stop-opacity="0"/></radialGradient><radialGradient cx="320" cy="180" r="8.6875" gradientUnits="userSpaceOnUse" id="color-4"><stop offset="0" stop-color="#f0f024"/><stop offset="1" stop-color="#828255"/></radialGradient><radialGradient cx="322.41397" cy="180.33334" r="6.27353" gradientUnits="userSpaceOnUse" id="color-5"><stop offset="0" stop-color="#ffcf00" stop-opacity="0.97647"/><stop offset="1" stop-color="#ffcf00" stop-opacity="0"/></radialGradient></defs><g transform="translate(-300.75,-160.75)"><g data-paper-data="{&quot;isPaintingLayer&quot;:true}" fill-rule="nonzero" stroke-linejoin="miter" stroke-miterlimit="10" stroke-dasharray="" stroke-dashoffset="0" style="mix-blend-mode: normal"><path d="M300.75,180c0,-10.63148 8.61852,-19.25 19.25,-19.25c10.63148,0 19.25,8.61852 19.25,19.25c0,10.63148 -8.61852,19.25 -19.25,19.25c-10.63148,0 -19.25,-8.61852 -19.25,-19.25z" fill="url(#color-1)" stroke="#6e6e6e" stroke-width="0" stroke-linecap="butt"/><path d="" fill="#494949" stroke="#6e6e6e" stroke-width="1" stroke-linecap="butt"/><g><path d="" fill="none" stroke="#ffffff" stroke-width="2.5" stroke-linecap="round"/><path d="" fill="url(#color-2)" stroke="none" stroke-width="0" stroke-linecap="butt"/></g><g data-paper-data="{&quot;index&quot;:null}"><path d="" fill="none" stroke="#ffffff" stroke-width="2.5" stroke-linecap="round"/><path d="" fill="url(#color-3)" stroke="none" stroke-width="0" stroke-linecap="butt"/></g><path d="M311.3125,180c0,-4.79797 3.88953,-8.6875 8.6875,-8.6875c4.79797,0 8.6875,3.88953 8.6875,8.6875c0,4.79797 -3.88953,8.6875 -8.6875,8.6875c-4.79797,0 -8.6875,-3.88953 -8.6875,-8.6875z" fill="url(#color-4)" stroke="#9e9e72" stroke-width="1" stroke-linecap="butt"/><path d="M322.41397,177.38514c2.45616,0 4.44727,1.31995 4.44727,2.94819c0,1.62824 -1.99111,2.94819 -4.44727,2.94819c-2.45616,0 -4.44727,-1.31995 -4.44727,-2.94819c0,-1.62824 1.99111,-2.94819 4.44727,-2.94819z" fill="#ffffff" stroke="none" stroke-width="NaN" stroke-linecap="butt"/><path d="M322.41397,178.20116c1.77633,0 3.21633,0.95461 3.21633,2.13218c0,1.17757 -1.44,2.13217 -3.21633,2.13217c-1.77633,0 -3.21633,-0.9546 -3.21633,-2.13217c0,-1.17757 1.44,-2.13218 3.21633,-2.13218z" fill="#ffffff" stroke="none" stroke-width="NaN" stroke-linecap="butt"/><path d="M322.41397,178.90061c1.19362,0 2.16124,0.64145 2.16124,1.43273c0,0.79128 -0.96762,1.43273 -2.16124,1.43273c-1.19362,0 -2.16124,-0.64145 -2.16124,-1.43273c0,-0.79128 0.96762,-1.43273 2.16124,-1.43273z" fill="#ffffff" stroke="none" stroke-width="NaN" stroke-linecap="butt"/><path d="M325.07065,178.90061c0.27362,0 0.49544,0.22181 0.49544,0.49543c0,0.27363 -0.22182,0.49544 -0.49544,0.49544c-0.27362,0 -0.49544,-0.22182 -0.49544,-0.49544c0,-0.27363 0.22182,-0.49543 0.49544,-0.49543z" fill="#000000" stroke="none" stroke-width="0" stroke-linecap="butt"/><path d="M325.07065,180.77518c0.27362,0 0.49544,0.22182 0.49544,0.49544c0,0.27363 -0.22181,0.49545 -0.49544,0.49545c-0.27362,0 -0.49544,-0.22182 -0.49544,-0.49545c0,-0.27363 0.22182,-0.49544 0.49544,-0.49544z" fill="#000000" stroke="none" stroke-width="0" stroke-linecap="butt"/><path d="M316.14044,180.33334c0,-3.46478 2.80875,-6.27354 6.27353,-6.27354c3.46478,0 6.27353,2.80876 6.27353,6.27354c0,3.46478 -2.80875,6.27353 -6.27353,6.27353c-3.46478,0 -6.27353,-2.80875 -6.27353,-6.27353z" fill="url(#color-5)" stroke="none" stroke-width="0" stroke-linecap="butt"/><path d="M312.98897,178.07445h4.32248" fill="none" stroke="#fed521" stroke-width="1" stroke-linecap="round"/><path d="M312.52384,180.30974h4.32247" fill="none" stroke="#fed521" stroke-width="1" stroke-linecap="round"/><path d="M312.98897,182.48622h4.32247" fill="none" stroke="#fed521" stroke-width="1" stroke-linecap="round"/></g></g></svg>