<svg version="1.1" xmlns="http://www.w3.org/2000/svg" xmlns:xlink="http://www.w3.org/1999/xlink" width="203.71879" height="82.50903" viewBox="0,0,203.71879,82.50903"><g transform="translate(-16.88365,0)"><g data-paper-data="{&quot;isPaintingLayer&quot;:true}" fill-rule="nonzero" stroke="none" stroke-linecap="butt" stroke-linejoin="miter" stroke-miterlimit="10" stroke-dasharray="" stroke-dashoffset="0" style="mix-blend-mode: normal"><path d="M20.82358,32.92312c-2.17596,0 -3.93993,-1.79086 -3.93993,-4v-24.92312c0,-2.20914 1.76397,-4 3.93993,-4h195.83893c2.17596,0 3.93993,1.79086 3.93993,4v24.92312c0,2.20914 -1.76397,4 -3.93993,4z" fill-opacity="0.50196" fill="#606060" stroke-width="0"/><path d="M18.0857,82.50903c-0.66387,0 -1.20205,-2.69724 -1.20205,-6.02445v-37.53701c0,-3.32721 0.53818,-6.02445 1.20205,-6.02445h59.74937c0.66387,0 1.20205,2.69724 1.20205,6.02445v37.53701c0,3.32721 -0.53818,6.02445 -1.20205,6.02445z" fill-opacity="0.50196" fill="#606060" stroke-width="0"/><text transform="translate(21.23065,40.50689) scale(0.1561,0.1561)" font-size="40" xml:space="preserve" fill="#77bde6" fill-rule="nonzero" stroke="none" stroke-width="1" stroke-linecap="butt" stroke-linejoin="miter" stroke-miterlimit="10" stroke-dasharray="" stroke-dashoffset="0" font-family="&quot;MV Boli&quot;, Technological" font-weight="normal" text-anchor="start" style="mix-blend-mode: normal"><tspan x="0" dy="0">Skill Rating is a</tspan><tspan x="0" dy="46.150000000000006px">way to see how</tspan><tspan x="0" dy="46.150000000000006px">"skilled" you are</tspan><tspan x="0" dy="46.150000000000006px">at the game, and</tspan><tspan x="0" dy="46.150000000000006px">it ignores what</tspan><tspan x="0" dy="46.150000000000006px">upgrades you have</tspan></text><text transform="translate(75.92131,76.82938) rotate(-180) scale(0.10592,-0.10592)" font-size="40" xml:space="preserve" fill="#77bde6" fill-rule="nonzero" stroke="none" stroke-width="1" stroke-linecap="butt" stroke-linejoin="miter" stroke-miterlimit="10" stroke-dasharray="" stroke-dashoffset="0" font-family="Sans Serif" font-weight="normal" text-anchor="start" style="mix-blend-mode: normal"><tspan x="0" dy="0">.</tspan></text><text transform="translate(188.83541,22.61116) scale(0.40796,0.40796)" font-size="40" xml:space="preserve" fill="#ababab" fill-rule="nonzero" stroke="none" stroke-width="1" stroke-linecap="butt" stroke-linejoin="miter" stroke-miterlimit="10" stroke-dasharray="" stroke-dashoffset="0" font-family="&quot;MV Boli&quot;, Technological" font-weight="normal" text-anchor="start" style="mix-blend-mode: normal"><tspan x="0" dy="0">NA</tspan></text><text transform="translate(25.56622,20.46524) scale(0.40796,0.40796)" font-size="40" xml:space="preserve" fill="#77bde6" fill-rule="nonzero" stroke="none" stroke-width="1" stroke-linecap="butt" stroke-linejoin="miter" stroke-miterlimit="10" stroke-dasharray="" stroke-dashoffset="0" font-family="&quot;MV Boli&quot;, Technological" font-weight="normal" text-anchor="start" style="mix-blend-mode: normal"><tspan x="0" dy="0">Overall Skill Rating: </tspan></text></g></g></svg>