<svg version="1.1" xmlns="http://www.w3.org/2000/svg" xmlns:xlink="http://www.w3.org/1999/xlink" width="434.19943" height="325.69509" viewBox="0,0,434.19943,325.69509"><defs><linearGradient x1="298.15729" y1="194.30891" x2="298.15729" y2="37.83921" gradientUnits="userSpaceOnUse" id="color-1"><stop offset="0" stop-color="#140f1e"/><stop offset="1" stop-color="#000000"/></linearGradient><linearGradient x1="354.17331" y1="179.99999" x2="354.17331" y2="23.53029" gradientUnits="userSpaceOnUse" id="color-2"><stop offset="0" stop-color="#140f1e"/><stop offset="1" stop-color="#000000"/></linearGradient><linearGradient x1="280.65486" y1="168.57028" x2="124.18522" y2="168.57028" gradientUnits="userSpaceOnUse" id="color-3"><stop offset="0" stop-color="#140f1e"/><stop offset="1" stop-color="#000000"/></linearGradient><linearGradient x1="362.79748" y1="173.76865" x2="519.26717" y2="173.76865" gradientUnits="userSpaceOnUse" id="color-4"><stop offset="0" stop-color="#140f1e"/><stop offset="1" stop-color="#000000"/></linearGradient><linearGradient x1="317.44892" y1="72.54585" x2="317.44892" y2="293.96212" gradientUnits="userSpaceOnUse" id="color-5"><stop offset="0" stop-color="#261c37"/><stop offset="1" stop-color="#000000"/></linearGradient><radialGradient cx="303.36122" cy="141.09107" r="34.86554" gradientUnits="userSpaceOnUse" id="color-6"><stop offset="0" stop-color="#000000" stop-opacity="0.54118"/><stop offset="1" stop-color="#000000" stop-opacity="0"/></radialGradient><radialGradient cx="348.77377" cy="141.09107" r="24.19109" gradientUnits="userSpaceOnUse" id="color-7"><stop offset="0" stop-color="#000000" stop-opacity="0.54118"/><stop offset="1" stop-color="#000000" stop-opacity="0"/></radialGradient><radialGradient cx="317.17409" cy="188.48101" r="29.29817" gradientUnits="userSpaceOnUse" id="color-8"><stop offset="0" stop-color="#000000"/><stop offset="1" stop-color="#000000" stop-opacity="0"/></radialGradient><radialGradient cx="293.63831" cy="211.27572" r="23.81061" gradientUnits="userSpaceOnUse" id="color-9"><stop offset="0" stop-color="#000000"/><stop offset="1" stop-color="#000000" stop-opacity="0"/></radialGradient><radialGradient cx="356.14116" cy="223.99063" r="23.81061" gradientUnits="userSpaceOnUse" id="color-10"><stop offset="0" stop-color="#000000"/><stop offset="1" stop-color="#000000" stop-opacity="0"/></radialGradient><radialGradient cx="317.44892" cy="234.19518" r="23.81061" gradientUnits="userSpaceOnUse" id="color-11"><stop offset="0" stop-color="#000000"/><stop offset="1" stop-color="#000000" stop-opacity="0"/></radialGradient><radialGradient cx="269.82768" cy="234.19518" r="23.81061" gradientUnits="userSpaceOnUse" id="color-12"><stop offset="0" stop-color="#000000"/><stop offset="1" stop-color="#000000" stop-opacity="0"/></radialGradient><radialGradient cx="260.66783" cy="258.52001" r="23.81061" gradientUnits="userSpaceOnUse" id="color-13"><stop offset="0" stop-color="#000000"/><stop offset="1" stop-color="#000000" stop-opacity="0"/></radialGradient><radialGradient cx="306.77653" cy="256.7828" r="23.81061" gradientUnits="userSpaceOnUse" id="color-14"><stop offset="0" stop-color="#000000"/><stop offset="1" stop-color="#000000" stop-opacity="0"/></radialGradient><radialGradient cx="332.33056" cy="262.37449" r="16.0657" gradientUnits="userSpaceOnUse" id="color-15"><stop offset="0" stop-color="#000000"/><stop offset="1" stop-color="#000000" stop-opacity="0"/></radialGradient><radialGradient cx="379.95175" cy="251.2571" r="21.61592" gradientUnits="userSpaceOnUse" id="color-16"><stop offset="0" stop-color="#000000"/><stop offset="1" stop-color="#000000" stop-opacity="0"/></radialGradient><radialGradient cx="380.36847" cy="225.02287" r="29.07514" gradientUnits="userSpaceOnUse" id="color-17"><stop offset="0" stop-color="#000000"/><stop offset="1" stop-color="#000000" stop-opacity="0"/></radialGradient><radialGradient cx="341.25953" cy="206.17346" r="23.81061" gradientUnits="userSpaceOnUse" id="color-18"><stop offset="0" stop-color="#000000"/><stop offset="1" stop-color="#000000" stop-opacity="0"/></radialGradient><radialGradient cx="365.07012" cy="188.35627" r="23.81061" gradientUnits="userSpaceOnUse" id="color-19"><stop offset="0" stop-color="#000000"/><stop offset="1" stop-color="#000000" stop-opacity="0"/></radialGradient><radialGradient cx="343.30081" cy="202.44019" r="23.81061" gradientUnits="userSpaceOnUse" id="color-20"><stop offset="0" stop-color="#000000"/><stop offset="1" stop-color="#000000" stop-opacity="0"/></radialGradient><radialGradient cx="299.46768" cy="225.18421" r="23.03282" gradientUnits="userSpaceOnUse" id="color-21"><stop offset="0" stop-color="#000000"/><stop offset="1" stop-color="#000000" stop-opacity="0"/></radialGradient><radialGradient cx="280.65486" cy="186.71682" r="23.81061" gradientUnits="userSpaceOnUse" id="color-22"><stop offset="0" stop-color="#000000"/><stop offset="1" stop-color="#000000" stop-opacity="0"/></radialGradient><radialGradient cx="292.01964" cy="225.94016" r="23.81061" gradientUnits="userSpaceOnUse" id="color-23"><stop offset="0" stop-color="#000000"/><stop offset="1" stop-color="#000000" stop-opacity="0"/></radialGradient><radialGradient cx="256.84432" cy="178.04178" r="23.81061" gradientUnits="userSpaceOnUse" id="color-24"><stop offset="0" stop-color="#000000"/><stop offset="1" stop-color="#000000" stop-opacity="0"/></radialGradient><radialGradient cx="261.07608" cy="200.9675" r="27.71653" gradientUnits="userSpaceOnUse" id="color-25"><stop offset="0" stop-color="#000000"/><stop offset="1" stop-color="#000000" stop-opacity="0"/></radialGradient><radialGradient cx="233.74508" cy="163.90545" r="26.11738" gradientUnits="userSpaceOnUse" id="color-26"><stop offset="0" stop-color="#000000"/><stop offset="1" stop-color="#000000" stop-opacity="0"/></radialGradient><radialGradient cx="205.53262" cy="170.69669" r="16.0657" gradientUnits="userSpaceOnUse" id="color-27"><stop offset="0" stop-color="#000000"/><stop offset="1" stop-color="#000000" stop-opacity="0"/></radialGradient><radialGradient cx="403.76235" cy="178.15173" r="25.26704" gradientUnits="userSpaceOnUse" id="color-28"><stop offset="0" stop-color="#000000"/><stop offset="1" stop-color="#000000" stop-opacity="0"/></radialGradient><radialGradient cx="444.42443" cy="177.90038" r="9.67847" gradientUnits="userSpaceOnUse" id="color-29"><stop offset="0" stop-color="#000000"/><stop offset="1" stop-color="#000000" stop-opacity="0"/></radialGradient><radialGradient cx="371.48004" cy="95.46534" r="23.81061" gradientUnits="userSpaceOnUse" id="color-30"><stop offset="0" stop-color="#000000"/><stop offset="1" stop-color="#000000" stop-opacity="0"/></radialGradient><radialGradient cx="371.48004" cy="95.46534" r="32.28232" gradientUnits="userSpaceOnUse" id="color-31"><stop offset="0" stop-color="#000000"/><stop offset="1" stop-color="#000000" stop-opacity="0"/></radialGradient><radialGradient cx="371.48004" cy="72.54589" r="23.81061" gradientUnits="userSpaceOnUse" id="color-32"><stop offset="0" stop-color="#000000"/><stop offset="1" stop-color="#000000" stop-opacity="0"/></radialGradient><radialGradient cx="352.15687" cy="91.9858" r="34.86554" gradientUnits="userSpaceOnUse" id="color-33"><stop offset="0" stop-color="#000000"/><stop offset="1" stop-color="#000000" stop-opacity="0"/></radialGradient><radialGradient cx="347.23541" cy="49.24875" r="24.29949" gradientUnits="userSpaceOnUse" id="color-34"><stop offset="0" stop-color="#000000"/><stop offset="1" stop-color="#000000" stop-opacity="0"/></radialGradient><radialGradient cx="363.73515" cy="65.09085" r="23.81061" gradientUnits="userSpaceOnUse" id="color-35"><stop offset="0" stop-color="#000000"/><stop offset="1" stop-color="#000000" stop-opacity="0"/></radialGradient><radialGradient cx="371.48004" cy="49.62644" r="16.0657" gradientUnits="userSpaceOnUse" id="color-36"><stop offset="0" stop-color="#000000"/><stop offset="1" stop-color="#000000" stop-opacity="0"/></radialGradient><radialGradient cx="323.85884" cy="95.46534" r="16.0657" gradientUnits="userSpaceOnUse" id="color-37"><stop offset="0" stop-color="#000000"/><stop offset="1" stop-color="#000000" stop-opacity="0"/></radialGradient><radialGradient cx="282.41103" cy="153.60909" r="17.69688" gradientUnits="userSpaceOnUse" id="color-38"><stop offset="0" stop-color="#000000"/><stop offset="1" stop-color="#000000" stop-opacity="0"/></radialGradient><radialGradient cx="260.89869" cy="132.31283" r="23.81061" gradientUnits="userSpaceOnUse" id="color-39"><stop offset="0" stop-color="#000000"/><stop offset="1" stop-color="#000000" stop-opacity="0"/></radialGradient><radialGradient cx="260.89869" cy="132.31283" r="16.0657" gradientUnits="userSpaceOnUse" id="color-40"><stop offset="0" stop-color="#000000"/><stop offset="1" stop-color="#000000" stop-opacity="0"/></radialGradient><radialGradient cx="291.82754" cy="41.19996" r="23.81061" gradientUnits="userSpaceOnUse" id="color-41"><stop offset="0" stop-color="#000000"/><stop offset="1" stop-color="#000000" stop-opacity="0"/></radialGradient><radialGradient cx="278.75667" cy="72.54588" r="23.81061" gradientUnits="userSpaceOnUse" id="color-42"><stop offset="0" stop-color="#000000"/><stop offset="1" stop-color="#000000" stop-opacity="0"/></radialGradient><radialGradient cx="291.82754" cy="87.03886" r="23.81061" gradientUnits="userSpaceOnUse" id="color-43"><stop offset="0" stop-color="#000000"/><stop offset="1" stop-color="#000000" stop-opacity="0"/></radialGradient><radialGradient cx="308.51995" cy="86.47393" r="23.81061" gradientUnits="userSpaceOnUse" id="color-44"><stop offset="0" stop-color="#000000"/><stop offset="1" stop-color="#000000" stop-opacity="0"/></radialGradient><radialGradient cx="308.51995" cy="63.55448" r="23.81061" gradientUnits="userSpaceOnUse" id="color-45"><stop offset="0" stop-color="#000000"/><stop offset="1" stop-color="#000000" stop-opacity="0"/></radialGradient><radialGradient cx="283.98253" cy="102.92038" r="23.81061" gradientUnits="userSpaceOnUse" id="color-46"><stop offset="0" stop-color="#000000"/><stop offset="1" stop-color="#000000" stop-opacity="0"/></radialGradient><radialGradient cx="320" cy="180" r="149.66667" gradientUnits="userSpaceOnUse" id="color-47"><stop offset="0" stop-color="#171122"/><stop offset="1" stop-color="#171122" stop-opacity="0"/></radialGradient></defs><g transform="translate(-104.62645,-3.97158)"><g data-paper-data="{&quot;isPaintingLayer&quot;:true}" fill-rule="nonzero" stroke="none" stroke-width="0" stroke-linecap="butt" stroke-linejoin="miter" stroke-miterlimit="10" stroke-dasharray="" stroke-dashoffset="0" style="mix-blend-mode: normal"><path d="M284.7093,194.30892c0,0 0,-69.96031 0,-85.88826c0,-6.13825 2.30453,-28.91288 2.30453,-28.91288c0,0 6.27498,-61.22728 8.50379,-61.22728c0.56684,0 3.35047,37.62764 5.71033,45.1017c5.38772,17.06378 11.00866,37.38504 11.00866,37.38504c0,0 3.40151,3.06136 3.40151,10.20454c0,16.66743 0,83.33713 0,83.33713h-30.92882z" data-paper-data="{&quot;index&quot;:null}" fill="url(#color-1)"/><path d="M367.62125,179.99999h-30.92882c0,0 0,-66.6697 0,-83.33713c0,-7.14318 3.40151,-10.20454 3.40151,-10.20454c0,0 5.62094,-20.32126 11.00866,-37.38504c2.35986,-7.47406 5.14349,-45.1017 5.71033,-45.1017c2.22881,0 8.50379,61.22728 8.50379,61.22728c0,0 2.30453,22.77463 2.30453,28.91288c0,15.92795 0,85.88826 0,85.88826z" fill="url(#color-2)"/><path d="M280.65486,155.12232v30.92882c0,0 -66.6697,0 -83.33712,0c-7.14318,0 -10.20454,-3.40152 -10.20454,-3.40152c0,0 -20.32126,-5.62095 -37.38504,-11.00866c-7.47406,-2.35986 -45.10171,-5.1435 -45.10171,-5.71033c0,-2.22881 61.22728,-8.50378 61.22728,-8.50378c0,0 22.77463,-2.30453 28.91288,-2.30453c15.92795,0 85.88826,0 85.88826,0z" fill="url(#color-3)"/><path d="M362.79748,187.21661v-30.92882c0,0 66.6697,0 83.33713,0c7.14318,0 10.20454,3.40151 10.20454,3.40151c0,0 20.32126,5.62094 37.38504,11.00866c7.47406,2.35986 45.1017,5.14349 45.1017,5.71033c0,2.22881 -61.22728,8.50379 -61.22728,8.50379c0,0 -22.77463,2.30453 -28.91288,2.30453c-15.92795,0 -85.88826,0 -85.88826,0z" fill="url(#color-4)"/><path d="M268.55213,289.5651c0,0 -13.60606,-28.80109 -13.60606,-47.3436c0,-30.64027 17.87124,-104.65017 21.42819,-141.14144c0.93877,-9.63093 20.24036,-11.35277 20.24036,-11.35277c0,0 44.21601,-12.47119 57.69394,-16.20092c7.10933,-1.96736 12.03713,-0.36594 12.03713,-0.36594c0,0 5.5657,3.50113 6.27618,15.70358c2.33299,40.06913 7.32989,129.30301 7.32989,158.53466c0,17.40544 -8.50379,42.16646 -8.50379,42.16646c0,0 -6.33414,-26.76501 -14.50261,-30.21694c-2.28661,-0.96631 -5.50071,23.75152 -7.80552,22.3449c-2.93147,-1.78909 -2.62933,-12.56216 -5.76319,-13.35673c-2.43831,-0.61821 -3.24551,21.28917 -5.77678,20.09506c-2.6713,-1.26016 -4.53804,-29.17146 -7.25262,-29.77958c-2.84719,-0.63783 -2.35581,22.49904 -5.29137,21.78209c-2.50056,-0.61073 -7.54311,-22.75866 -9.99646,-22.90616c-2.87344,-0.17276 -4.01459,36.82808 -6.78302,36.43123c-3.17989,-0.45584 -4.58425,-21.51182 -7.55611,-21.72008c-3.95977,-0.27752 -6.0139,14.93407 -9.43422,14.56554c-2.08733,-0.2249 -3.20425,-23.12505 -5.02269,-23.12505c-1.87369,0 -4.43554,25.88572 -5.95265,25.88572c-2.61785,0 -2.95629,-24.8503 -4.25189,-24.8503c-3.11009,0 -7.5067,24.8503 -7.5067,24.8503z" fill="url(#color-5)"/><path d="M268.49564,141.09107c0,-19.2557 15.60983,-34.86554 34.86553,-34.86554c19.2557,0 34.86554,15.60983 34.86554,34.86554c0,19.2557 -15.60983,34.86554 -34.86554,34.86554c-19.2557,0 -34.86553,-15.60983 -34.86553,-34.86554z" fill="url(#color-6)"/><path d="M324.58268,141.09107c0,-13.36037 10.83072,-24.1911 24.19109,-24.1911c13.36038,0 24.19109,10.83072 24.19109,24.1911c0,13.36038 -10.83072,24.1911 -24.19109,24.1911c-13.36038,0 -24.19109,-10.83072 -24.19109,-24.1911z" fill="url(#color-7)"/><path d="M290.35704,172.03244c0.47322,-2.64045 6.57962,4.03997 10.82634,4.0662c3.69411,0.02281 5.49872,-6.62786 7.05614,-8.13592c2.66838,-2.5838 7.0772,1.01442 10.66743,-0.04474c3.32232,-0.98013 5.78028,-6.74144 9.4219,-6.08879c2.75826,0.49434 3.41513,9.48257 4.94685,11.83019c2.50004,3.83173 5.18058,1.96975 7.1618,5.72377c2.31218,4.38111 7.43099,3.91196 6.48937,9.16595c-0.47462,2.64823 -2.93854,11.85098 -5.69476,13.37164c-4.24654,2.3429 -9.54707,-3.39174 -12.13688,-0.39688c-3.6724,4.24678 1.12434,12.7329 -4.66145,11.69597c-1.85021,-0.33159 -9.51325,-5.70017 -14.26384,-5.2077c-6.38113,0.66153 -10.07857,7.16236 -11.83548,5.59798c-1.67929,-1.49527 -5.27462,-6.68861 -3.56345,-11.82383c1.41496,-4.24627 8.14521,-8.48664 7.57365,-10.26235c-0.6224,-1.93364 -6.43898,-1.60633 -9.61993,-5.99879c-2.5283,-3.49123 -2.67239,-11.79262 -2.3677,-13.49271z" fill="url(#color-8)"/><path d="M275.37012,193.38836c0.85301,-2.00627 4.48136,4.39209 7.84117,5.1818c2.92262,0.68694 5.55655,-4.25545 7.06351,-5.16825c2.58192,-1.56392 5.4234,2.08513 8.45962,1.89604c2.80965,-0.17498 5.80019,-4.29446 8.56718,-3.11801c2.09579,0.89107 0.98876,8.13114 1.77723,10.26844c1.28692,3.48844 3.74778,2.4986 4.63773,5.83153c1.03862,3.88969 5.17906,4.44482 3.48173,8.43693c-0.85553,2.01219 -4.47392,8.85714 -6.93293,9.56287c-3.78863,1.08732 -6.94976,-4.41581 -9.54386,-2.51199c-3.67848,2.69967 -1.41469,10.29151 -5.81086,8.42238c-1.40583,-0.59772 -6.50499,-6.2386 -10.35793,-6.70859c-5.17538,-0.63129 -9.28183,3.84967 -10.39052,2.29214c-1.05972,-1.48872 -2.96787,-6.25425 -0.68235,-10.01291c1.88988,-3.10801 7.98985,-5.24893 7.85854,-6.75926c-0.14299,-1.64466 -4.81058,-2.43852 -6.53544,-6.49451c-1.37096,-3.22379 0.01796,-9.82685 0.56718,-11.11861z" fill="url(#color-9)"/><path d="M332.33054,214.67724c0,-2.18008 5.84259,2.28848 9.24353,1.70062c2.95839,-0.51137 3.4485,-6.09032 4.47816,-7.51998c1.76415,-2.44948 5.80687,-0.20315 8.52704,-1.56516c2.51718,-1.26037 3.65745,-6.22155 6.66415,-6.22155c2.27735,0 4.09144,7.096 5.65332,8.75439c2.54926,2.70678 4.42662,0.83298 6.54971,3.55198c2.47775,3.17319 6.5053,2.06402 6.5053,6.40197c0,2.18651 -0.65165,9.90153 -2.63848,11.51314c-3.06114,2.48303 -8.12348,-1.34449 -9.76584,1.42255c-2.3289,3.92373 2.72491,10.02454 -2.05212,10.02454c-1.52762,0 -8.42738,-3.19598 -12.15703,-2.12094c-5.00977,1.44404 -7.03554,7.1745 -8.66527,6.17495c-1.55773,-0.95539 -5.17838,-4.59437 -4.54575,-8.94763c0.52312,-3.59968 5.29908,-7.95668 4.58728,-9.29522c-0.77511,-1.45759 -5.38118,-0.36185 -8.55553,-3.41957c-2.52305,-2.43035 -3.82847,-9.05042 -3.82847,-10.45409z" fill="url(#color-10)"/><path d="M293.63831,224.88179c0,-2.18008 5.84259,2.28848 9.24353,1.70062c2.95839,-0.51137 3.4485,-6.09032 4.47816,-7.51998c1.76415,-2.44948 5.80687,-0.20315 8.52704,-1.56516c2.51718,-1.26037 3.65745,-6.22155 6.66415,-6.22155c2.27735,0 4.09144,7.096 5.65332,8.75439c2.54926,2.70678 4.42662,0.83298 6.54971,3.55198c2.47775,3.17319 6.5053,2.06402 6.5053,6.40197c0,2.18651 -0.65165,9.90153 -2.63848,11.51314c-3.06114,2.48303 -8.12348,-1.34449 -9.76584,1.42255c-2.3289,3.92373 2.72491,10.02454 -2.05212,10.02454c-1.52762,0 -8.42738,-3.19598 -12.15703,-2.12094c-5.00977,1.44404 -7.03554,7.1745 -8.66527,6.17495c-1.55773,-0.95539 -5.17838,-4.59437 -4.54575,-8.94763c0.52312,-3.59968 5.29908,-7.95668 4.58728,-9.29522c-0.77511,-1.45759 -5.38118,-0.36185 -8.55553,-3.41957c-2.52305,-2.43035 -3.82847,-9.05042 -3.82847,-10.45409z" fill="url(#color-11)"/><path d="M246.01711,224.88179c0,-2.18008 5.84259,2.28848 9.24353,1.70062c2.95839,-0.51137 3.4485,-6.09032 4.47816,-7.51998c1.76415,-2.44948 5.80687,-0.20315 8.52704,-1.56516c2.51718,-1.26037 3.65745,-6.22155 6.66415,-6.22155c2.27735,0 4.09144,7.096 5.65332,8.75439c2.54926,2.70678 4.42662,0.83298 6.54971,3.55198c2.47775,3.17319 6.5053,2.06402 6.5053,6.40197c0,2.18651 -0.65165,9.90153 -2.63848,11.51314c-3.06114,2.48303 -8.12348,-1.34449 -9.76584,1.42255c-2.3289,3.92373 2.72491,10.02454 -2.05212,10.02454c-1.52762,0 -8.42738,-3.19598 -12.15703,-2.12094c-5.00977,1.44404 -7.03554,7.1745 -8.66527,6.17495c-1.55773,-0.95539 -5.17838,-4.59437 -4.54575,-8.94763c0.52312,-3.59968 5.29908,-7.95668 4.58728,-9.29522c-0.77511,-1.45759 -5.38118,-0.36185 -8.55553,-3.41957c-2.52305,-2.43035 -3.82847,-9.05042 -3.82847,-10.45409z" fill="url(#color-12)"/><path d="M247.63771,236.52229c1.34211,-1.71799 3.19535,5.40026 6.23732,7.0307c2.64614,1.41828 6.4669,-2.67643 8.15845,-3.16917c2.89818,-0.84423 4.70111,3.41476 7.68319,4.01605c2.75955,0.55641 6.71235,-2.65121 9.08175,-0.80021c1.79464,1.40199 -1.14426,8.11072 -0.93438,10.37912c0.34255,3.70244 2.97555,3.38156 2.97475,6.83126c-0.00093,4.02597 3.85577,5.63135 1.18522,9.04983c-1.34607,1.72305 -6.60915,7.40162 -9.167,7.44849c-3.94091,0.07221 -5.57392,-6.06053 -8.57162,-4.89107c-4.25082,1.65832 -4.02402,9.57726 -7.78851,6.6364c-1.20382,-0.94044 -4.67358,-7.70666 -8.27451,-9.15556c-4.83688,-1.94618 -9.96108,1.32254 -10.63003,-0.46845c-0.63939,-1.71186 -1.25236,-6.80848 1.92615,-9.84956c2.62829,-2.51464 9.07422,-3.00793 9.33732,-4.50095c0.28651,-1.62582 -4.01782,-3.59794 -4.63692,-7.96175c-0.49208,-3.46847 2.55468,-9.48899 3.41881,-10.59513z" fill="url(#color-13)"/><path d="M282.26662,249.50625c-0.18347,-2.17235 6.01445,1.78867 9.35386,0.91669c2.90486,-0.75852 2.92373,-6.35893 3.82942,-7.87017c1.55175,-2.58925 5.76917,-0.69111 8.36507,-2.27721c2.40218,-1.46773 3.1209,-6.50728 6.11693,-6.76031c2.26927,-0.19165 4.6741,6.72651 6.37,8.24758c2.76801,2.48264 4.48102,0.4575 6.8254,2.98818c2.736,2.95342 6.65592,1.50924 7.02099,5.8318c0.18401,2.17875 0.18393,9.92125 -1.66022,11.69434c-2.84132,2.73183 -8.20781,-0.65608 -9.61148,2.23936c-1.99043,4.1058 3.55887,9.75966 -1.20122,10.16168c-1.5222,0.12856 -8.66644,-2.47543 -12.29239,-1.09033c-4.87047,1.86052 -6.40681,7.74113 -8.11487,6.88228c-1.63261,-0.82091 -5.54665,-4.14228 -5.28262,-8.53334c0.21833,-3.63093 4.61068,-8.3744 3.78876,-9.64829c-0.89502,-1.38719 -5.39254,0.09229 -8.81296,-2.68744c-2.71863,-2.2094 -4.57653,-8.69613 -4.69466,-10.09482z" fill="url(#color-14)"/><path d="M316.26486,256.09048c0,-1.47096 3.94216,1.5441 6.23687,1.14746c1.99611,-0.34504 2.3268,-4.10931 3.02154,-5.07395c1.19032,-1.65273 3.91806,-0.13707 5.75344,-1.05606c1.69841,-0.85041 2.46779,-4.19786 4.49649,-4.19786c1.53659,0 2.76061,4.78787 3.81446,5.90684c1.72006,1.82634 2.98677,0.56204 4.41928,2.39662c1.67181,2.14104 4.38931,1.39265 4.38931,4.31959c0,1.4753 -0.43969,6.68085 -1.78026,7.76825c-2.06544,1.67537 -5.48114,-0.90717 -6.58929,0.95984c-1.57138,2.64745 1.83857,6.76384 -1.38462,6.76384c-1.03073,0 -5.68619,-2.15642 -8.2027,-1.43106c-3.38024,0.97434 -4.74708,4.84084 -5.84671,4.16642c-1.05105,-0.64463 -3.494,-3.09995 -3.06715,-6.03722c0.35296,-2.42881 3.57544,-5.3686 3.09517,-6.27175c-0.52299,-0.98348 -3.63084,-0.24415 -5.77266,-2.30728c-1.70237,-1.63983 -2.58318,-6.10658 -2.58318,-7.05367z" fill="url(#color-15)"/><path d="M358.33584,242.80216c0,-1.97914 5.30406,2.07754 8.39153,1.54387c2.68571,-0.46423 3.13064,-5.52896 4.0654,-6.82684c1.60154,-2.22371 5.27164,-0.18443 7.74108,-1.42089c2.28516,-1.1442 3.32033,-5.64809 6.0499,-5.64809c2.06744,0 3.71432,6.44194 5.13224,7.94747c2.31429,2.45729 4.01861,0.7562 5.94601,3.22458c2.24937,2.88071 5.90569,1.87378 5.90569,5.81188c0,1.98498 -0.59158,8.98888 -2.39528,10.45194c-2.77898,2.25416 -7.37472,-1.22057 -8.86569,1.29143c-2.11424,3.56207 2.47375,9.10055 -1.86297,9.10055c-1.38681,0 -7.6506,-2.9014 -11.03648,-1.92545c-4.548,1.31094 -6.38705,6.51321 -7.86657,5.60579c-1.41415,-0.86733 -4.70107,-4.17089 -4.12676,-8.1229c0.4749,-3.26789 4.81065,-7.22329 4.16446,-8.43845c-0.70366,-1.32324 -4.88518,-0.3285 -7.76694,-3.10438c-2.2905,-2.20634 -3.47559,-8.21622 -3.47559,-9.4905z" fill="url(#color-16)"/><path d="M353.21687,209.61215c0.38042,-2.63477 6.66184,3.78529 10.87468,3.66828c3.66465,-0.1018 5.23048,-6.75882 6.72437,-8.30699c2.55952,-2.65252 7.05344,0.76775 10.57863,-0.40367c3.26211,-1.08401 5.50591,-6.88095 9.13971,-6.3563c2.75233,0.39739 3.70656,9.28994 5.30481,11.56675c2.60863,3.71616 5.20452,1.77914 7.29596,5.4357c2.44083,4.26737 7.50193,3.62965 6.74498,8.87237c-0.38153,2.64254 -2.51534,11.85296 -5.19778,13.45401c-4.13287,2.46675 -9.58317,-3.04242 -12.05091,0.01514c-3.49931,4.33571 1.544,12.59082 -4.22937,11.75725c-1.84623,-0.26657 -9.62738,-5.3331 -14.32251,-4.68465c-6.30662,0.87104 -9.75485,7.44319 -11.55007,5.95079c-1.71591,-1.42647 -5.45673,-6.45621 -3.93253,-11.60703c1.26036,-4.25917 7.79271,-8.69152 7.16601,-10.43344c-0.68243,-1.89685 -6.44038,-1.37631 -9.74324,-5.62568c-2.62519,-3.3775 -3.0477,-11.6061 -2.80277,-13.30253z" fill="url(#color-17)"/><path d="M317.44885,196.86007c0,-2.18008 5.84259,2.28848 9.24353,1.70062c2.95839,-0.51137 3.4485,-6.09032 4.47816,-7.51998c1.76415,-2.44948 5.80687,-0.20315 8.52704,-1.56516c2.51718,-1.26037 3.65745,-6.22155 6.66415,-6.22155c2.27735,0 4.09144,7.096 5.65332,8.75439c2.54926,2.70678 4.42662,0.83298 6.54971,3.55198c2.47775,3.17319 6.5053,2.06402 6.5053,6.40197c0,2.18651 -0.65165,9.90153 -2.63848,11.51314c-3.06114,2.48303 -8.12348,-1.34449 -9.76584,1.42255c-2.3289,3.92373 2.72491,10.02454 -2.05212,10.02454c-1.52762,0 -8.42738,-3.19598 -12.15703,-2.12094c-5.00977,1.44404 -7.03554,7.1745 -8.66527,6.17495c-1.55773,-0.95539 -5.17838,-4.59437 -4.54575,-8.94763c0.52312,-3.59968 5.29908,-7.95668 4.58728,-9.29522c-0.77511,-1.45759 -5.38118,-0.36185 -8.55553,-3.41957c-2.52305,-2.43035 -3.82847,-9.05042 -3.82847,-10.45409z" fill="url(#color-18)"/><path d="M354.81904,164.93407c1.54155,-1.54155 2.51314,5.74953 5.33364,7.73868c2.45349,1.7303 6.74496,-1.86805 8.48397,-2.15089c2.97949,-0.4846 4.24973,3.96243 7.13626,4.92279c2.67113,0.8887 6.98551,-1.81309 9.11157,0.31297c1.61033,1.61033 -2.12454,7.91071 -2.19279,10.18779c-0.11138,3.71658 2.54109,3.7191 2.11972,7.14297c-0.49175,3.99582 3.14046,6.05942 0.07307,9.12682c-1.5461,1.5461 -7.46223,6.54065 -10.00671,6.27533c-3.92032,-0.40879 -4.79347,-6.69487 -7.91139,-5.8996c-4.42128,1.12772 -5.16162,9.01522 -8.53949,5.63735c-1.08019,-1.08019 -3.69916,-8.21896 -7.09659,-10.09605c-4.56353,-2.52135 -10.04802,0.09826 -10.49362,-1.76092c-0.42592,-1.77704 -0.41296,-6.91038 3.1126,-9.54126c2.91526,-2.17546 9.37324,-1.87921 9.81641,-3.32902c0.48259,-1.57876 -3.5492,-4.06094 -3.63167,-8.46767c-0.06555,-3.50258 3.69248,-9.10675 4.68502,-10.0993z" fill="url(#color-19)"/><path d="M319.53981,211.87946c-1.48761,-1.59367 5.83259,-2.31386 7.91759,-5.06427c1.81368,-2.39252 -1.63491,-6.80524 -1.85776,-8.55293c-0.38181,-2.99439 4.10627,-4.1109 5.16538,-6.96269c0.98006,-2.63898 -1.57171,-7.04374 0.62623,-9.09541c1.66477,-1.55398 7.83295,2.39543 10.10632,2.54196c3.71055,0.23917 3.80431,-2.41164 7.21167,-1.87274c3.97654,0.62892 6.16388,-2.93015 9.12393,0.24095c1.492,1.59837 6.28007,7.68282 5.92738,10.21666c-0.5434,3.90393 -6.8558,4.56032 -6.16826,7.70375c0.97495,4.45745 8.83232,5.4687 5.34025,8.72837c-1.11671,1.04239 -8.34135,3.41423 -10.3342,6.74507c-2.67685,4.47409 -0.24746,10.04545 -2.12087,10.42683c-1.79064,0.36454 -6.9205,0.17499 -9.42854,-3.43899c-2.07387,-2.98837 -1.55565,-9.43234 -2.98936,-9.92512c-1.56122,-0.53661 -4.18063,3.4074 -8.5876,3.33822c-3.50277,-0.05498 -8.97434,-4.00357 -9.93215,-5.02968z" fill="url(#color-20)"/><path d="M276.52272,234.41486c-1.4457,-1.53535 5.63229,-2.26276 7.63761,-4.93205c1.74437,-2.32196 -1.61007,-6.576 -1.83298,-8.26567c-0.38192,-2.89495 3.95484,-3.99382 4.96735,-6.75688c0.93695,-2.55686 -1.54994,-6.80699 0.56756,-8.80085c1.60385,-1.5102 7.58706,2.28425 9.78678,2.41645c3.59031,0.21577 3.66988,-2.34882 6.96816,-1.84184c3.84925,0.59167 5.95016,-2.8603 8.82682,0.19475c1.44996,1.53988 6.10715,7.4054 5.77661,9.85793c-0.50926,3.77866 -6.61263,4.44011 -5.93436,7.47794c0.96182,4.30771 8.5667,5.2529 5.20242,8.42074c-1.07584,1.01302 -8.05445,3.33771 -9.9682,6.56808c-2.57059,4.33915 -0.19718,9.71826 -2.00777,10.09504c-1.73061,0.36015 -6.69363,0.19834 -9.13491,-3.28701c-2.01867,-2.88201 -1.54444,-9.1176 -2.93336,-9.58826c-1.51246,-0.51252 -4.02971,3.31363 -8.29298,3.26522c-3.38854,-0.03847 -8.69792,-3.83506 -9.62874,-4.82361z" fill="url(#color-21)"/><path d="M256.84425,177.40343c0,-2.18008 5.84259,2.28848 9.24353,1.70062c2.95839,-0.51137 3.4485,-6.09032 4.47816,-7.51998c1.76415,-2.44948 5.80687,-0.20315 8.52704,-1.56516c2.51718,-1.26037 3.65745,-6.22155 6.66415,-6.22155c2.27735,0 4.09144,7.096 5.65332,8.75439c2.54926,2.70678 4.42662,0.83298 6.54971,3.55198c2.47775,3.17319 6.5053,2.06402 6.5053,6.40197c0,2.18651 -0.65165,9.90153 -2.63848,11.51314c-3.06114,2.48303 -8.12348,-1.34449 -9.76584,1.42255c-2.3289,3.92373 2.72491,10.02454 -2.05212,10.02454c-1.52762,0 -8.42738,-3.19598 -12.15703,-2.12094c-5.00977,1.44404 -7.03554,7.1745 -8.66527,6.17495c-1.55773,-0.95539 -5.17838,-4.59437 -4.54575,-8.94763c0.52312,-3.59968 5.29908,-7.95668 4.58728,-9.29522c-0.77511,-1.45759 -5.38118,-0.36185 -8.55553,-3.41957c-2.52305,-2.43035 -3.82847,-9.05042 -3.82847,-10.45409z" fill="url(#color-22)"/><path d="M269.90977,213.10121c0.33279,-2.15453 5.42478,3.15354 8.8756,3.09172c3.00178,-0.05378 4.33778,-5.49253 5.57361,-6.74825c2.11739,-2.15147 5.76983,0.68566 8.66603,-0.24516c2.68008,-0.86135 4.56431,-5.59032 7.53577,-5.13135c2.25066,0.34764 2.96028,7.6374 4.2507,9.51477c2.10619,3.0642 4.24759,1.49895 5.93074,4.51017c1.96432,3.51423 6.11398,3.03287 5.45179,7.31998c-0.33377,2.16088 -2.15549,9.68601 -4.36505,10.97544c-3.4043,1.98664 -7.82304,-2.56879 -9.86854,-0.08489c-2.90057,3.52224 1.16272,10.32301 -3.55833,9.5938c-1.50972,-0.23319 -7.84074,-4.44497 -11.69079,-3.95187c-5.17149,0.66237 -8.04828,6.01643 -9.50633,4.77982c-1.39363,-1.18198 -4.41635,-5.33101 -3.12661,-9.53668c1.06648,-3.47764 6.45157,-7.05452 5.95244,-8.48603c-0.54352,-1.55883 -5.26288,-1.17905 -7.93326,-4.6855c-2.12248,-2.78701 -2.40205,-9.52877 -2.18777,-10.91599z" fill="url(#color-23)"/><path d="M233.03372,168.72839c0,-2.18008 5.84259,2.28848 9.24353,1.70062c2.95839,-0.51137 3.4485,-6.09032 4.47816,-7.51998c1.76415,-2.44948 5.80687,-0.20315 8.52704,-1.56516c2.51718,-1.26037 3.65745,-6.22155 6.66415,-6.22155c2.27735,0 4.09144,7.096 5.65332,8.75439c2.54926,2.70678 4.42662,0.83298 6.54971,3.55198c2.47775,3.17319 6.5053,2.06402 6.5053,6.40197c0,2.18651 -0.65165,9.90153 -2.63848,11.51314c-3.06114,2.48303 -8.12348,-1.34449 -9.76584,1.42255c-2.3289,3.92373 2.72491,10.02454 -2.05212,10.02454c-1.52762,0 -8.42738,-3.19598 -12.15703,-2.12094c-5.00977,1.44404 -7.03554,7.1745 -8.66527,6.17495c-1.55773,-0.95539 -5.17838,-4.59437 -4.54575,-8.94763c0.52312,-3.59968 5.29908,-7.95668 4.58728,-9.29522c-0.77511,-1.45759 -5.38118,-0.36185 -8.55553,-3.41957c-2.52305,-2.43035 -3.82847,-9.05042 -3.82847,-10.45409z" fill="url(#color-24)"/><path d="M231.68503,196.28753c-0.54127,-2.4793 7.2127,1.15198 10.93448,-0.36096c3.23748,-1.31608 2.4097,-7.78244 3.22573,-9.66397c1.39813,-3.22368 6.55345,-1.67277 9.30881,-3.89709c2.54975,-2.05833 2.61476,-7.98356 6.03414,-8.73007c2.58992,-0.56542 6.41481,7.05414 8.60281,8.55236c3.5712,2.44536 5.241,-0.15173 8.33058,2.41334c3.60568,2.99354 7.91064,0.73217 8.98768,5.66553c0.54287,2.48661 1.71727,11.42235 -0.14213,13.74845c-2.86481,3.58386 -9.57228,0.48788 -10.75305,4.04248c-1.67437,5.04051 5.58783,10.72391 0.15512,11.90996c-1.7373,0.37928 -10.37758,-1.54228 -14.35223,0.60631c-5.33885,2.88608 -6.2199,9.90602 -8.3215,9.17391c-2.00874,-0.69976 -7.02983,-3.93928 -7.39121,-9.04711c-0.29881,-4.22363 4.05091,-10.36444 2.90908,-11.70996c-1.24339,-1.4652 -6.20961,0.92453 -10.57883,-1.76474c-3.47277,-2.13751 -6.601,-9.34209 -6.9495,-10.93842z" fill="url(#color-25)"/><path d="M212.08994,146.08602c0.74242,-2.27312 5.3126,4.37581 9.05887,4.92103c3.25879,0.47427 5.6697,-5.17586 7.23017,-6.31589c2.6736,-1.95324 6.12387,1.76568 9.42395,1.27189c3.05382,-0.45694 5.93225,-5.24154 9.06727,-4.21762c2.37454,0.77554 1.84954,8.79215 2.91332,11.05321c1.73628,3.69043 4.33187,2.37599 5.61962,5.93403c1.50287,4.1524 6.08003,4.36746 4.60277,8.89053c-0.74461,2.27983 -4.05137,10.10218 -6.67182,11.10596c-4.03736,1.54655 -8.0123,-4.16828 -10.66705,-1.84245c-3.7645,3.29808 -0.5726,11.38031 -5.5535,9.75351c-1.59281,-0.52022 -7.69865,-6.20228 -11.95358,-6.35147c-5.71533,-0.20038 -9.77903,5.08477 -11.13792,3.48756c-1.29885,-1.52664 -3.83479,-6.55391 -1.69268,-10.87752c1.7713,-3.57515 8.23483,-6.49166 7.94849,-8.12973c-0.31181,-1.78376 -5.48761,-2.20983 -7.75613,-6.47905c-1.80308,-3.39328 -0.90978,-10.74042 -0.43177,-12.20399z" fill="url(#color-26)"/><path d="M189.46692,164.41268c0,-1.47096 3.94216,1.5441 6.23687,1.14746c1.99611,-0.34504 2.3268,-4.10931 3.02154,-5.07395c1.19032,-1.65273 3.91806,-0.13707 5.75344,-1.05606c1.69841,-0.85041 2.46779,-4.19786 4.49649,-4.19786c1.53659,0 2.76061,4.78787 3.81446,5.90684c1.72006,1.82634 2.98677,0.56204 4.41928,2.39662c1.67181,2.14104 4.38931,1.39265 4.38931,4.31959c0,1.4753 -0.43969,6.68085 -1.78026,7.76825c-2.06544,1.67537 -5.48114,-0.90717 -6.58929,0.95984c-1.57138,2.64745 1.83857,6.76384 -1.38462,6.76384c-1.03073,0 -5.68619,-2.15642 -8.2027,-1.43106c-3.38024,0.97434 -4.74708,4.84084 -5.84671,4.16642c-1.05105,-0.64463 -3.494,-3.09995 -3.06715,-6.03722c0.35296,-2.42881 3.57544,-5.3686 3.09517,-6.27175c-0.52299,-0.98348 -3.63084,-0.24415 -5.77266,-2.30728c-1.70237,-1.63983 -2.58318,-6.10658 -2.58318,-7.05367z" fill="url(#color-27)"/><path d="M378.49532,168.26867c0,-2.31343 6.19996,2.42846 9.80893,1.80464c3.13935,-0.54265 3.65944,-6.46285 4.75208,-7.97996c1.87206,-2.59931 6.16206,-0.21558 9.04861,-1.6609c2.67115,-1.33746 3.88116,-6.60211 7.07178,-6.60211c2.41665,0 4.3417,7.53004 5.99912,9.28987c2.70519,2.87235 4.69739,0.88393 6.95034,3.76924c2.6293,3.36729 6.90321,2.19027 6.90321,6.79356c0,2.32026 -0.69151,10.50718 -2.79987,12.21737c-3.24838,2.63491 -8.62037,-1.42673 -10.36319,1.50956c-2.47136,4.16373 2.89159,10.63771 -2.17764,10.63771c-1.62106,0 -8.94286,-3.39147 -12.90064,-2.25067c-5.3162,1.53237 -7.46588,7.61335 -9.1953,6.55265c-1.65301,-1.01383 -5.49513,-4.87539 -4.8238,-9.49493c0.55512,-3.81986 5.62321,-8.44337 4.86787,-9.86378c-0.82252,-1.54675 -5.71033,-0.38398 -9.07885,-3.62874c-2.67738,-2.57901 -4.06264,-9.60401 -4.06264,-11.09353z" fill="url(#color-28)"/><path d="M434.74597,174.1147c0,-0.88615 2.37488,0.93021 3.75728,0.69127c1.20252,-0.20786 1.40174,-2.47557 1.82027,-3.0567c0.71709,-0.99566 2.36036,-0.08258 3.46605,-0.6362c1.02317,-0.51231 1.48667,-2.52892 2.70882,-2.52892c0.92569,0 1.66308,2.88436 2.29795,3.55846c1.03622,1.10024 1.79932,0.33859 2.66231,1.4438c1.00715,1.28983 2.64425,0.83897 2.64425,2.60225c0,0.88877 -0.26488,4.02475 -1.07248,4.67983c-1.24428,1.00929 -3.30201,-0.54651 -3.96959,0.57824c-0.94665,1.5949 1.10761,4.07474 -0.83414,4.07474c-0.62094,0 -3.42553,-1.29909 -4.94156,-0.86211c-2.03636,0.58697 -2.85979,2.91627 -3.52224,2.50998c-0.63318,-0.38834 -2.10489,-1.8675 -1.84775,-3.63701c0.21263,-1.46319 2.15395,-3.23421 1.86463,-3.77829c-0.31507,-0.59248 -2.18733,-0.14708 -3.47763,-1.38998c-1.02556,-0.98788 -1.55619,-3.67879 -1.55619,-4.24935z" fill="url(#color-29)"/><path d="M347.66945,86.15195c0,-2.18008 5.84259,2.28848 9.24353,1.70062c2.95839,-0.51137 3.4485,-6.09032 4.47816,-7.51998c1.76415,-2.44948 5.80687,-0.20315 8.52704,-1.56516c2.51718,-1.26037 3.65745,-6.22155 6.66415,-6.22155c2.27735,0 4.09144,7.096 5.65332,8.75439c2.54926,2.70678 4.42662,0.83298 6.54971,3.55198c2.47775,3.17319 6.5053,2.06402 6.5053,6.40197c0,2.18651 -0.65165,9.90153 -2.63848,11.51314c-3.06114,2.48303 -8.12348,-1.34449 -9.76584,1.42255c-2.3289,3.92373 2.72491,10.02454 -2.05212,10.02454c-1.52762,0 -8.42738,-3.19598 -12.15703,-2.12094c-5.00977,1.44404 -7.03554,7.1745 -8.66527,6.17495c-1.55773,-0.95539 -5.17838,-4.59437 -4.54575,-8.94763c0.52312,-3.59968 5.29908,-7.95668 4.58728,-9.29522c-0.77511,-1.45759 -5.38118,-0.36185 -8.55553,-3.41957c-2.52305,-2.43035 -3.82847,-9.05042 -3.82847,-10.45409z" fill="url(#color-30)"/><path d="M344.06867,74.24727c0.83351,-2.83579 6.72492,5.21058 11.37352,5.74619c4.0437,0.4659 6.81422,-6.60365 8.70017,-8.06964c3.23126,-2.51173 7.63108,1.95588 11.69013,1.22422c3.75615,-0.67706 7.13618,-6.69446 11.04721,-5.54492c2.96231,0.8707 2.60902,10.79455 4.00662,13.54889c2.28112,4.49556 5.43955,2.77594 7.16165,7.12446c2.00978,5.07491 7.67277,5.17198 6.01425,10.81466c-0.83597,2.84415 -4.63329,12.63048 -7.83387,13.96719c-4.93118,2.05949 -10.05275,-4.85472 -13.24701,-1.88335c-4.52952,4.21347 -0.28819,14.08145 -6.50201,12.25505c-1.98708,-0.58405 -9.74018,-7.37927 -15.00262,-7.40684c-7.06866,-0.03701 -11.89465,6.64249 -13.6324,4.71921c-1.66098,-1.83831 -4.97933,-7.95607 -2.49204,-13.37679c2.05672,-4.48236 9.93496,-8.32383 9.52083,-10.33711c-0.45096,-2.19234 -6.86134,-2.52806 -9.82139,-7.71911c-2.35272,-4.12596 -1.51973,-13.23626 -0.98306,-15.06211z" fill="url(#color-31)"/><path d="M347.66945,63.2325c0,-2.18008 5.84259,2.28848 9.24353,1.70062c2.95839,-0.51137 3.4485,-6.09032 4.47816,-7.51998c1.76415,-2.44948 5.80687,-0.20315 8.52704,-1.56516c2.51718,-1.26037 3.65745,-6.22155 6.66415,-6.22155c2.27735,0 4.09144,7.096 5.65332,8.75439c2.54926,2.70678 4.42662,0.83298 6.54971,3.55198c2.47775,3.17319 6.5053,2.06402 6.5053,6.40197c0,2.18651 -0.65165,9.90153 -2.63848,11.51314c-3.06114,2.48303 -8.12348,-1.34449 -9.76584,1.42255c-2.3289,3.92373 2.72491,10.02454 -2.05212,10.02454c-1.52762,0 -8.42738,-3.19598 -12.15703,-2.12094c-5.00977,1.44404 -7.03554,7.1745 -8.66527,6.17495c-1.55773,-0.95539 -5.17838,-4.59437 -4.54575,-8.94763c0.52312,-3.59968 5.29908,-7.95668 4.58728,-9.29522c-0.77511,-1.45759 -5.38118,-0.36185 -8.55553,-3.41957c-2.52305,-2.43035 -3.82847,-9.05042 -3.82847,-10.45409z" fill="url(#color-32)"/><path d="M317.2913,78.34834c0,-3.19226 8.55522,3.35099 13.53517,2.49019c4.33193,-0.74879 5.04959,-8.91797 6.55731,-11.0114c2.58322,-3.58674 8.50292,-0.29747 12.48603,-2.29184c3.68587,-1.84554 5.35555,-9.11013 9.75822,-9.11013c3.33469,0 5.99104,10.39057 8.27808,12.81893c3.73285,3.9635 6.48184,1.21972 9.59065,5.20111c3.62813,4.64646 9.52562,3.02232 9.52562,9.37431c0,3.20168 -0.9542,14.49867 -3.86349,16.85853c-4.48238,3.63587 -11.8951,-1.96872 -14.29998,2.08302c-3.41018,5.74546 3.99005,14.67879 -3.00489,14.67879c-2.23687,0 -12.34009,-4.67983 -17.80137,-3.10566c-7.33574,2.11449 -10.30204,10.50552 -12.68843,9.04189c-2.28096,-1.39896 -7.58263,-6.72747 -6.65628,-13.10189c0.766,-5.27096 7.75937,-11.65085 6.71709,-13.61086c-1.13498,-2.13433 -7.87959,-0.52985 -12.52774,-5.00723c-3.69447,-3.55873 -5.60597,-13.2524 -5.60597,-15.30778z" fill="url(#color-33)"/><path d="M336.77386,25.34564c1.5732,-1.5732 2.56474,5.86758 5.44315,7.89757c2.50387,1.76583 6.88345,-1.9064 8.65816,-2.19505c3.04066,-0.49455 4.33698,4.04378 7.28278,5.02386c2.72598,0.90694 7.12894,-1.85032 9.29864,0.31939c1.64339,1.64339 -2.16816,8.07314 -2.23781,10.39697c-0.11367,3.79289 2.59326,3.79546 2.16324,7.28963c-0.50185,4.07786 3.20494,6.18383 0.07457,9.31421c-1.57784,1.57784 -7.61544,6.67494 -10.21216,6.40417c-4.00082,-0.41718 -4.89189,-6.83232 -8.07382,-6.02073c-4.51206,1.15087 -5.2676,9.20032 -8.71482,5.7531c-1.10237,-1.10237 -3.77511,-8.38771 -7.2423,-10.30334c-4.65723,-2.57312 -10.25432,0.10028 -10.70907,-1.79708c-0.43466,-1.81353 -0.42144,-7.05226 3.17651,-9.73716c2.97512,-2.22013 9.56569,-1.91779 10.01796,-3.39737c0.49249,-1.61117 -3.62207,-4.14431 -3.70624,-8.64153c-0.0669,-3.57449 3.76829,-9.29373 4.78121,-10.30665z" fill="url(#color-34)"/><path d="M339.92454,55.77746c0,-2.18008 5.84259,2.28848 9.24353,1.70062c2.95839,-0.51137 3.4485,-6.09032 4.47816,-7.51998c1.76415,-2.44948 5.80687,-0.20315 8.52704,-1.56516c2.51718,-1.26037 3.65745,-6.22155 6.66415,-6.22155c2.27735,0 4.09144,7.096 5.65332,8.75439c2.54926,2.70678 4.42662,0.83298 6.54971,3.55198c2.47775,3.17319 6.5053,2.06402 6.5053,6.40197c0,2.18651 -0.65165,9.90153 -2.63848,11.51314c-3.06114,2.48303 -8.12348,-1.34449 -9.76584,1.42255c-2.3289,3.92373 2.72491,10.02454 -2.05212,10.02454c-1.52762,0 -8.42738,-3.19598 -12.15703,-2.12094c-5.00977,1.44404 -7.03554,7.1745 -8.66527,6.17495c-1.55773,-0.95539 -5.17838,-4.59437 -4.54575,-8.94763c0.52312,-3.59968 5.29908,-7.95668 4.58728,-9.29522c-0.77511,-1.45759 -5.38118,-0.36185 -8.55553,-3.41957c-2.52305,-2.43035 -3.82847,-9.05042 -3.82847,-10.45409z" fill="url(#color-35)"/><path d="M355.41435,43.34242c0,-1.47096 3.94216,1.5441 6.23688,1.14746c1.99611,-0.34504 2.3268,-4.10931 3.02154,-5.07395c1.19032,-1.65273 3.91806,-0.13707 5.75344,-1.05606c1.69841,-0.85041 2.46779,-4.19786 4.49649,-4.19786c1.53659,0 2.76061,4.78788 3.81446,5.90684c1.72006,1.82634 2.98677,0.56204 4.41928,2.39662c1.67181,2.14104 4.38931,1.39265 4.38931,4.31959c0,1.4753 -0.43969,6.68085 -1.78026,7.76825c-2.06544,1.67537 -5.48115,-0.90717 -6.58929,0.95984c-1.57138,2.64745 1.83858,6.76385 -1.38462,6.76385c-1.03073,0 -5.6862,-2.15642 -8.2027,-1.43106c-3.38024,0.97434 -4.74708,4.84084 -5.84671,4.16642c-1.05105,-0.64463 -3.494,-3.09995 -3.06715,-6.03722c0.35296,-2.42881 3.57544,-5.3686 3.09517,-6.27175c-0.52299,-0.98348 -3.63084,-0.24415 -5.77266,-2.30728c-1.70237,-1.63983 -2.58318,-6.10658 -2.58318,-7.05368z" fill="url(#color-36)"/><path d="M307.79314,89.18133c0,-1.47096 3.94216,1.5441 6.23688,1.14746c1.99611,-0.34504 2.3268,-4.10931 3.02154,-5.07395c1.19032,-1.65273 3.91806,-0.13707 5.75344,-1.05606c1.69841,-0.85041 2.46779,-4.19786 4.49649,-4.19786c1.53659,0 2.76061,4.78788 3.81446,5.90684c1.72006,1.82634 2.98677,0.56204 4.41928,2.39662c1.67181,2.14104 4.38931,1.39265 4.38931,4.31959c0,1.4753 -0.43969,6.68085 -1.78026,7.76825c-2.06544,1.67537 -5.48115,-0.90717 -6.58929,0.95984c-1.57138,2.64745 1.83858,6.76385 -1.38462,6.76385c-1.03073,0 -5.6862,-2.15642 -8.2027,-1.43106c-3.38024,0.97434 -4.74708,4.84084 -5.84671,4.16642c-1.05105,-0.64463 -3.494,-3.09995 -3.06715,-6.03722c0.35296,-2.42881 3.57544,-5.3686 3.09517,-6.27175c-0.52299,-0.98348 -3.63084,-0.24415 -5.77266,-2.30728c-1.70237,-1.63983 -2.58318,-6.10658 -2.58318,-7.05368z" fill="url(#color-37)"/><path d="M264.37771,147.61805c-0.08438,-1.61811 4.4251,1.47243 6.92661,0.90447c2.17601,-0.49406 2.32383,-4.65388 3.03273,-5.75486c1.21459,-1.88636 4.30214,-0.37555 6.26841,-1.49175c1.81953,-1.03291 2.47385,-4.75936 4.70549,-4.87574c1.69031,-0.08815 3.31143,5.10848 4.53489,6.27892c1.9969,1.91037 3.31779,0.44693 4.99885,2.38286c1.96187,2.25932 4.9083,1.28017 5.0762,4.49991c0.08463,1.62289 -0.10043,7.3744 -1.51272,8.64748c-2.17595,1.96145 -6.08149,-0.68349 -7.19341,1.43386c-1.5767,3.00244 2.41051,7.335 -1.13512,7.51991c-1.13384,0.05912 -6.37872,-2.04595 -9.10536,-1.10366c-3.66249,1.26571 -4.94427,5.59742 -6.19258,4.91861c-1.19317,-0.64882 -4.02136,-3.20963 -3.7203,-6.46522c0.24895,-2.69203 3.62515,-6.11077 3.04502,-7.07671c-0.63172,-1.05186 -4.00805,-0.06029 -6.4825,-2.20695c-1.96674,-1.70621 -3.19189,-6.56928 -3.24623,-7.61111z" fill="url(#color-38)"/><path d="M237.08814,122.99944c0,-2.18008 5.84259,2.28848 9.24353,1.70062c2.95839,-0.51137 3.4485,-6.09032 4.47816,-7.51998c1.76415,-2.44948 5.80687,-0.20315 8.52704,-1.56516c2.51718,-1.26037 3.65745,-6.22155 6.66415,-6.22155c2.27735,0 4.09144,7.096 5.65332,8.75439c2.54926,2.70678 4.42662,0.83298 6.54971,3.55198c2.47775,3.17319 6.5053,2.06402 6.5053,6.40197c0,2.18651 -0.65165,9.90153 -2.63848,11.51314c-3.06114,2.48303 -8.12348,-1.34449 -9.76584,1.42255c-2.3289,3.92373 2.72491,10.02454 -2.05212,10.02454c-1.52762,0 -8.42738,-3.19598 -12.15703,-2.12094c-5.00977,1.44404 -7.03554,7.1745 -8.66527,6.17495c-1.55773,-0.95539 -5.17838,-4.59437 -4.54575,-8.94763c0.52312,-3.59968 5.29908,-7.95668 4.58728,-9.29522c-0.77511,-1.45759 -5.38118,-0.36185 -8.55553,-3.41957c-2.52305,-2.43035 -3.82847,-9.05042 -3.82847,-10.45409z" fill="url(#color-39)"/><path d="M244.83304,126.02882c0,-1.47096 3.94216,1.5441 6.23687,1.14746c1.99611,-0.34504 2.3268,-4.10931 3.02154,-5.07395c1.19032,-1.65273 3.91806,-0.13707 5.75344,-1.05606c1.69841,-0.85041 2.46779,-4.19786 4.49649,-4.19786c1.53659,0 2.76061,4.78787 3.81446,5.90684c1.72006,1.82634 2.98677,0.56204 4.41928,2.39662c1.67181,2.14104 4.38931,1.39265 4.38931,4.31959c0,1.4753 -0.43969,6.68085 -1.78026,7.76825c-2.06544,1.67537 -5.48114,-0.90717 -6.58929,0.95984c-1.57138,2.64745 1.83857,6.76384 -1.38462,6.76384c-1.03073,0 -5.68619,-2.15642 -8.2027,-1.43106c-3.38024,0.97434 -4.74708,4.84084 -5.84671,4.16642c-1.05105,-0.64463 -3.494,-3.09995 -3.06715,-6.03722c0.35296,-2.42881 3.57544,-5.3686 3.09517,-6.27175c-0.52299,-0.98348 -3.63084,-0.24415 -5.77266,-2.30728c-1.70237,-1.63983 -2.58318,-6.10658 -2.58318,-7.05367z" fill="url(#color-40)"/><path d="M268.01694,31.88657c0,-2.18008 5.84259,2.28848 9.24353,1.70062c2.95839,-0.51137 3.4485,-6.09032 4.47816,-7.51998c1.76415,-2.44948 5.80687,-0.20315 8.52704,-1.56516c2.51718,-1.26037 3.65745,-6.22155 6.66415,-6.22155c2.27735,0 4.09144,7.096 5.65332,8.75439c2.54926,2.70678 4.42662,0.83298 6.54971,3.55198c2.47775,3.17319 6.5053,2.06402 6.5053,6.40197c0,2.18651 -0.65165,9.90153 -2.63848,11.51314c-3.06114,2.48303 -8.12348,-1.34449 -9.76584,1.42255c-2.3289,3.92373 2.72491,10.02454 -2.05212,10.02454c-1.52762,0 -8.42738,-3.19598 -12.15703,-2.12094c-5.00977,1.44404 -7.03554,7.1745 -8.66527,6.17495c-1.55773,-0.95539 -5.17838,-4.59437 -4.54575,-8.94763c0.52312,-3.59968 5.29908,-7.95668 4.58728,-9.29522c-0.77511,-1.45759 -5.38118,-0.36185 -8.55553,-3.41957c-2.52305,-2.43035 -3.82847,-9.05042 -3.82847,-10.45409z" fill="url(#color-41)"/><path d="M254.94607,63.23249c0,-2.18008 5.84259,2.28848 9.24353,1.70062c2.95839,-0.51137 3.4485,-6.09032 4.47816,-7.51998c1.76415,-2.44948 5.80687,-0.20315 8.52704,-1.56516c2.51718,-1.26037 3.65745,-6.22155 6.66415,-6.22155c2.27735,0 4.09144,7.096 5.65332,8.75439c2.54926,2.70678 4.42662,0.83298 6.54971,3.55198c2.47775,3.17319 6.5053,2.06402 6.5053,6.40197c0,2.18651 -0.65165,9.90153 -2.63848,11.51314c-3.06114,2.48303 -8.12348,-1.34449 -9.76584,1.42255c-2.3289,3.92373 2.72491,10.02454 -2.05212,10.02454c-1.52762,0 -8.42738,-3.19598 -12.15703,-2.12094c-5.00977,1.44404 -7.03554,7.1745 -8.66527,6.17495c-1.55773,-0.95539 -5.17838,-4.59437 -4.54575,-8.94763c0.52312,-3.59968 5.29908,-7.95668 4.58728,-9.29522c-0.77511,-1.45759 -5.38118,-0.36185 -8.55553,-3.41957c-2.52305,-2.43035 -3.82847,-9.05042 -3.82847,-10.45409z" fill="url(#color-42)"/><path d="M268.01694,77.72547c0,-2.18008 5.84259,2.28848 9.24353,1.70062c2.95839,-0.51137 3.4485,-6.09032 4.47816,-7.51998c1.76415,-2.44948 5.80687,-0.20315 8.52704,-1.56516c2.51718,-1.26037 3.65745,-6.22155 6.66415,-6.22155c2.27735,0 4.09144,7.096 5.65332,8.75439c2.54926,2.70678 4.42662,0.83298 6.54971,3.55198c2.47775,3.17319 6.5053,2.06402 6.5053,6.40197c0,2.18651 -0.65165,9.90153 -2.63848,11.51314c-3.06114,2.48303 -8.12348,-1.34449 -9.76584,1.42255c-2.3289,3.92373 2.72491,10.02454 -2.05212,10.02454c-1.52762,0 -8.42738,-3.19598 -12.15703,-2.12094c-5.00977,1.44404 -7.03554,7.1745 -8.66527,6.17495c-1.55773,-0.95539 -5.17838,-4.59437 -4.54575,-8.94763c0.52312,-3.59968 5.29908,-7.95668 4.58728,-9.29522c-0.77511,-1.45759 -5.38118,-0.36185 -8.55553,-3.41957c-2.52305,-2.43035 -3.82847,-9.05042 -3.82847,-10.45409z" fill="url(#color-43)"/><path d="M284.70934,77.16054c0,-2.18008 5.84259,2.28848 9.24353,1.70062c2.95839,-0.51137 3.4485,-6.09032 4.47816,-7.51998c1.76415,-2.44948 5.80687,-0.20315 8.52704,-1.56516c2.51718,-1.26037 3.65745,-6.22155 6.66415,-6.22155c2.27735,0 4.09144,7.096 5.65332,8.75439c2.54926,2.70678 4.42662,0.83298 6.54971,3.55198c2.47775,3.17319 6.5053,2.06402 6.5053,6.40197c0,2.18651 -0.65165,9.90153 -2.63848,11.51314c-3.06114,2.48303 -8.12348,-1.34449 -9.76584,1.42255c-2.3289,3.92373 2.72491,10.02454 -2.05212,10.02454c-1.52762,0 -8.42738,-3.19598 -12.15703,-2.12094c-5.00977,1.44404 -7.03554,7.1745 -8.66527,6.17495c-1.55773,-0.95539 -5.17838,-4.59437 -4.54575,-8.94763c0.52312,-3.59968 5.29908,-7.95668 4.58728,-9.29522c-0.77511,-1.45759 -5.38118,-0.36185 -8.55553,-3.41957c-2.52305,-2.43035 -3.82847,-9.05042 -3.82847,-10.45409z" fill="url(#color-44)"/><path d="M284.70934,54.24109c0,-2.18008 5.84259,2.28848 9.24353,1.70062c2.95839,-0.51137 3.4485,-6.09032 4.47816,-7.51998c1.76415,-2.44948 5.80687,-0.20315 8.52704,-1.56516c2.51718,-1.26037 3.65745,-6.22155 6.66415,-6.22155c2.27735,0 4.09144,7.096 5.65332,8.75439c2.54926,2.70678 4.42662,0.83298 6.54971,3.55198c2.47775,3.17319 6.5053,2.06402 6.5053,6.40197c0,2.18651 -0.65165,9.90153 -2.63848,11.51314c-3.06114,2.48303 -8.12348,-1.34449 -9.76584,1.42255c-2.3289,3.92373 2.72491,10.02454 -2.05212,10.02454c-1.52762,0 -8.42738,-3.19598 -12.15703,-2.12094c-5.00977,1.44404 -7.03554,7.1745 -8.66527,6.17495c-1.55773,-0.95539 -5.17838,-4.59437 -4.54575,-8.94763c0.52312,-3.59968 5.29908,-7.95668 4.58728,-9.29522c-0.77511,-1.45759 -5.38118,-0.36185 -8.55553,-3.41957c-2.52305,-2.43035 -3.82847,-9.05042 -3.82847,-10.45409z" fill="url(#color-45)"/><path d="M260.17192,93.60699c0,-2.18008 5.84259,2.28848 9.24353,1.70062c2.95839,-0.51137 3.4485,-6.09032 4.47816,-7.51998c1.76415,-2.44948 5.80687,-0.20315 8.52704,-1.56516c2.51718,-1.26037 3.65745,-6.22155 6.66415,-6.22155c2.27735,0 4.09144,7.096 5.65332,8.75439c2.54926,2.70678 4.42662,0.83298 6.54971,3.55198c2.47775,3.17319 6.5053,2.06402 6.5053,6.40197c0,2.18651 -0.65165,9.90153 -2.63848,11.51314c-3.06114,2.48303 -8.12348,-1.34449 -9.76584,1.42255c-2.3289,3.92373 2.72491,10.02454 -2.05212,10.02454c-1.52762,0 -8.42738,-3.19598 -12.15703,-2.12094c-5.00977,1.44404 -7.03554,7.1745 -8.66527,6.17495c-1.55773,-0.95539 -5.17838,-4.59437 -4.54575,-8.94763c0.52312,-3.59968 5.29908,-7.95668 4.58728,-9.29522c-0.77511,-1.45759 -5.38118,-0.36185 -8.55553,-3.41957c-2.52305,-2.43035 -3.82847,-9.05042 -3.82847,-10.45409z" fill="url(#color-46)"/><path d="M170.33333,180c0,-82.6586 67.00805,-149.66667 149.66667,-149.66667c82.6586,0 149.66667,67.00805 149.66667,149.66667c0,82.6586 -67.00804,149.66667 -149.66667,149.66667c-82.6586,0 -149.66667,-67.00804 -149.66667,-149.66667z" fill="url(#color-47)"/></g></g></svg>