<svg version="1.1" xmlns="http://www.w3.org/2000/svg" xmlns:xlink="http://www.w3.org/1999/xlink" width="64.37064" height="42.17506" viewBox="0,0,64.37064,42.17506"><defs><radialGradient cx="351.03293" cy="182.3196" r="12.25019" gradientUnits="userSpaceOnUse" id="color-1"><stop offset="0" stop-color="#980000"/><stop offset="1" stop-color="#980000" stop-opacity="0"/></radialGradient><radialGradient cx="320" cy="180" r="21.08753" gradientUnits="userSpaceOnUse" id="color-2"><stop offset="0" stop-color="#980000"/><stop offset="1" stop-color="#980000" stop-opacity="0"/></radialGradient><radialGradient cx="320.0565" cy="180.09739" r="5.97256" gradientUnits="userSpaceOnUse" id="color-3"><stop offset="0" stop-color="#030303"/><stop offset="1" stop-color="#000000" stop-opacity="0.16078"/></radialGradient><radialGradient cx="320.0565" cy="180.09739" r="4.82576" gradientUnits="userSpaceOnUse" id="color-4"><stop offset="0" stop-color="#252525"/><stop offset="1" stop-color="#000000"/></radialGradient><radialGradient cx="320.0565" cy="180.09739" r="2.52671" gradientUnits="userSpaceOnUse" id="color-5"><stop offset="0" stop-color="#630000"/><stop offset="1" stop-color="#630000" stop-opacity="0"/></radialGradient></defs><g transform="translate(-298.91247,-158.91247)"><g stroke-width="0" stroke-miterlimit="10"><path d="M350.10651,185.18088v-5.50925h5.47328v5.50925z" fill="#ab0000" stroke="#000000"/><path d="M330.52215,185.27726c-1.57014,0 -2.84299,-1.40281 -2.84299,-3.13326v-3.5955c0,-1.73045 1.27285,-3.13326 2.84299,-3.13326h3.95741c1.57014,0 2.84299,1.40281 2.84299,3.13326v3.5955c0,1.73045 -1.27285,3.13326 -2.84299,3.13326z" fill="#980000" stroke="none"/><path d="M345.44132,186.2263c-1.09403,0 -1.98092,-1.40281 -1.98092,-3.13326v-1.58479c0,-1.73045 0.88689,-3.13326 1.98092,-3.13326h5.42092c1.09403,0 1.98092,1.40281 1.98092,3.13326v1.58479c0,1.73045 -0.88689,3.13326 -1.98092,3.13326z" fill="#6a0000" stroke="none"/><path d="M323.15796,186.81955c0,-1.73045 1.27285,-3.13326 2.84299,-3.13326h3.69679c1.57014,0 2.84299,1.40281 2.84299,3.13326v4.07424c0,1.73045 -1.27285,3.13326 -2.84299,3.13326h-3.69679c-1.57014,0 -2.84299,-1.40281 -2.84299,-3.13326z" fill="#424242" stroke="none"/><path d="M323.15796,169.10621c0,-1.73045 1.27285,-3.13326 2.84299,-3.13326h3.69679c1.57014,0 2.84299,1.40281 2.84299,3.13326v4.07424c0,1.73045 -1.27285,3.13326 -2.84299,3.13326h-3.69679c-1.57014,0 -2.84299,-1.40281 -2.84299,-3.13326z" fill="#424242" stroke="none"/><path d="M320.05651,169.66088c5.22994,0 9.46964,4.67258 9.46964,10.43651c0,5.76393 -4.2397,10.43651 -9.46964,10.43651c-5.22994,0 -9.46964,-4.67258 -9.46964,-10.43651c0,-5.76393 4.2397,-10.43651 9.46964,-10.43651z" fill="#7c0000" stroke="#000000"/><path d="M316.84204,190.89379c0,1.73045 -1.27285,3.13326 -2.84299,3.13326h-3.69679c-1.57014,0 -2.84299,-1.40281 -2.84299,-3.13326v-4.07424c0,-1.73045 1.27285,-3.13326 2.84299,-3.13326h3.69679c1.57014,0 2.84299,1.40281 2.84299,3.13326z" fill="#424242" stroke="none"/><path d="M316.84204,173.18045c0,1.73045 -1.27285,3.13326 -2.84299,3.13326h-3.69679c-1.57014,0 -2.84299,-1.40281 -2.84299,-3.13326v-4.07424c0,-1.73045 1.27285,-3.13326 2.84299,-3.13326h3.69679c1.57014,0 2.84299,1.40281 2.84299,3.13326z" fill="#424242" stroke="none"/><path d="M315.71899,181.91107c-0.89116,0 -1.61359,-0.79619 -1.61359,-1.77834v-2.04069c0,-0.98215 0.72243,-1.77834 1.61359,-1.77834h2.2461c0.89116,0 1.61359,0.79619 1.61359,1.77834v2.04069c0,0.98215 -0.72243,1.77834 -1.61359,1.77834z" fill="#980000" stroke="none"/><path d="M321.19229,187.50844c-0.89116,0 -1.61359,-0.79619 -1.61359,-1.77834v-2.04069c0,-0.98215 0.72243,-1.77834 1.61359,-1.77834h2.2461c0.89116,0 1.61359,0.79619 1.61359,1.77834v2.04069c0,0.98215 -0.72243,1.77834 -1.61359,1.77834z" fill="#980000" stroke="none"/><path d="M320.21613,176.31371c-0.89116,0 -1.61359,-0.79619 -1.61359,-1.77834v-2.04069c0,-0.98215 0.72243,-1.77834 1.61359,-1.77834h2.2461c0.89116,0 1.61359,0.79619 1.61359,1.77834v2.04069c0,0.98215 -0.72243,1.77834 -1.61359,1.77834z" fill="#980000" stroke="none"/><path d="M323.92891,181.91107c-0.89116,0 -1.61359,-0.79619 -1.61359,-1.77834v-2.04069c0,-0.98215 0.72243,-1.77834 1.61359,-1.77834h2.2461c0.89116,0 1.61359,0.79619 1.61359,1.77834v2.04069c0,0.98215 -0.72243,1.77834 -1.61359,1.77834z" fill="#980000" stroke="none"/><g><path d="M339.51118,184.24294v-4.50014h5.47328v4.50014z" fill="#6b2f2f" stroke="#000000"/><path d="M336.74687,181.99287c-1.57014,0 -2.84299,-1.40281 -2.84299,-3.13326v-1.58479c0,-1.73045 1.27285,-3.13326 2.84299,-3.13326h7.78002c1.57014,0 2.84299,1.40281 2.84299,3.13326v1.58479c0,1.73045 -1.27285,3.13326 -2.84299,3.13326z" fill="#6a0000" stroke="none"/></g><path d="M338.78273,182.3196c0,-6.76559 5.4846,-12.25019 12.25019,-12.25019c6.76559,0 12.25019,5.4846 12.25019,12.25019c0,6.76559 -5.4846,12.2502 -12.25019,12.2502c-6.76559,0 -12.25019,-5.4846 -12.25019,-12.2502z" fill="url(#color-1)" stroke="#000000"/><path d="M298.91247,180c0,-11.64632 9.44121,-21.08753 21.08753,-21.08753c11.64632,0 21.08753,9.44121 21.08753,21.08753c0,11.64632 -9.44121,21.08753 -21.08753,21.08753c-11.64632,0 -21.08753,-9.44121 -21.08753,-21.08753z" fill="url(#color-2)" stroke="#000000"/><g stroke="#000000"><path d="M314.08396,180.09739c0,-3.63535 2.674,-6.58236 5.97255,-6.58236c3.29855,0 5.97256,2.94702 5.97256,6.58236c0,3.63535 -2.674,6.58237 -5.97256,6.58237c-3.29855,0 -5.97255,-2.94702 -5.97255,-6.58237z" fill="url(#color-3)"/><path d="M315.23075,180.09739c0,-2.93731 2.16056,-5.31848 4.82576,-5.31848c2.6652,0 4.82576,2.38116 4.82576,5.31848c0,2.93731 -2.16056,5.31848 -4.82576,5.31848c-2.6652,0 -4.82576,-2.38116 -4.82576,-5.31848z" fill="url(#color-4)"/><path d="M319.37247,180.09739c0,-0.75225 0.30626,-1.36208 0.68405,-1.36208c0.37779,0 0.68404,0.60982 0.68404,1.36208c0,0.75225 -0.30626,1.36208 -0.68404,1.36208c-0.37779,0 -0.68405,-0.60982 -0.68405,-1.36208z" fill="#630000"/><path d="M319.59798,180.09739c0,-0.27909 0.2053,-0.50536 0.45853,-0.50536c0.25325,0 0.45851,0.22625 0.45851,0.50536c0,0.27909 -0.20529,0.50536 -0.45851,0.50536c-0.25325,0 -0.45853,-0.22625 -0.45853,-0.50536z" fill="#000000"/><path d="M317.5298,180.09739c0,-1.53793 1.13124,-2.78469 2.5267,-2.78469c1.39545,0 2.52671,1.24675 2.52671,2.78469c0,1.53793 -1.13125,2.78469 -2.52671,2.78469c-1.39545,0 -2.5267,-1.24675 -2.5267,-2.78469z" fill="url(#color-5)"/></g></g></g></svg>