<svg version="1.1" xmlns="http://www.w3.org/2000/svg" xmlns:xlink="http://www.w3.org/1999/xlink" width="460.40238" height="381.67118" viewBox="0,0,460.40238,381.67118"><defs><radialGradient cx="160.5" cy="43.63427" r="75" gradientUnits="userSpaceOnUse" id="color-1"><stop offset="0" stop-color="#0090ff" stop-opacity="0.70196"/><stop offset="1" stop-color="#0090ff" stop-opacity="0"/></radialGradient><radialGradient cx="301.95122" cy="47.04885" r="24.77671" gradientUnits="userSpaceOnUse" id="color-2"><stop offset="0" stop-color="#096b14"/><stop offset="1" stop-color="#096b22" stop-opacity="0.58055"/></radialGradient><radialGradient cx="510.9512" cy="43.63427" r="29.36996" gradientUnits="userSpaceOnUse" id="color-3"><stop offset="0" stop-color="#0017c2"/><stop offset="1" stop-color="#00094f" stop-opacity="0.58039"/></radialGradient><radialGradient cx="510.9512" cy="43.63427" r="33.49496" gradientUnits="userSpaceOnUse" id="color-4"><stop offset="0" stop-color="#0017c2" stop-opacity="0.72549"/><stop offset="1" stop-color="#0017c2" stop-opacity="0"/></radialGradient><radialGradient cx="301.95122" cy="47.04886" r="34.95117" gradientUnits="userSpaceOnUse" id="color-5"><stop offset="0" stop-color="#0b6f19" stop-opacity="0.2419"/><stop offset="1" stop-color="#0b6f19" stop-opacity="0"/></radialGradient></defs><g transform="translate(-85.50003,31.36573)"><g data-paper-data="{&quot;isPaintingLayer&quot;:true}" fill-rule="nonzero" stroke-linecap="butt" stroke-linejoin="miter" stroke-miterlimit="10" stroke-dasharray="" stroke-dashoffset="0" style="mix-blend-mode: normal"><path d="M373.0001,47.04883c0,-19.303 15.64818,-34.95117 34.95117,-34.95117c19.303,0 34.95117,15.64818 34.95117,34.95117c0,19.303 -15.64818,34.95117 -34.95117,34.95117c-19.303,0 -34.95117,-15.64818 -34.95117,-34.95117z" fill-opacity="0.70196" fill="#0047ff" stroke="none" stroke-width="0"/><path d="M267.00001,47.04887c0,-19.30299 15.64817,-34.95118 34.95117,-34.95118c19.303,0 34.95118,15.64818 34.95118,34.95118c0,19.303 -15.64818,34.95117 -34.95118,34.95117c-19.303,0 -34.95117,-15.64818 -34.95117,-34.95117z" fill-opacity="0.70196" fill="#000000" stroke="none" stroke-width="0"/><path d="M85.50003,43.63427c0,-41.42136 33.57864,-75 75,-75c41.42136,0 75,33.57864 75,75c0,41.42136 -33.57864,75 -75,75c-41.42136,0 -75,-33.57864 -75,-75z" fill="url(#color-1)" stroke="none" stroke-width="0"/><path d="M155.5,338.39134c0,-17.27283 0,-49.74409 0,-59c0,-4.83806 21.41857,-10 41.44585,-10c39.07693,0 178.0502,0 247.47788,0c24.2968,0 40.07628,5.75919 40.07628,11c0,8.91413 0,37.54448 0,55c0,8.24729 -25.85259,14 -48.81079,14c-40.74141,0 -174.84367,0 -241.65487,0c-23.39138,0 -38.53434,-4.38567 -38.53434,-11z" fill-opacity="0.70196" fill="#000000" stroke="none" stroke-width="0"/><path d="M97.00003,62.90115c0,-11.47563 0,-33.04873 0,-39.19813c0,-3.21428 8.26796,-6.64375 15.99886,-6.64375c15.08441,0 68.73063,0 95.53098,0c9.37901,0 15.47018,3.82626 15.47018,7.30812c0,5.92233 0,24.94362 0,36.54063c0,5.4793 -9.97957,9.30125 -18.84186,9.30125c-15.72693,0 -67.49284,0 -93.28319,0c-9.0295,0 -14.87496,-2.91373 -14.87496,-7.30813z" fill-opacity="0.70196" fill="#000000" stroke="none" stroke-width="0"/><text transform="translate(121.25005,37.86552) scale(0.5,0.5)" font-size="40" xml:space="preserve" fill-opacity="0.70196" fill="#0084ff" fill-rule="nonzero" stroke="none" stroke-width="1" stroke-linecap="butt" stroke-linejoin="miter" stroke-miterlimit="10" stroke-dasharray="" stroke-dashoffset="0" font-family="&quot;MV Boli&quot;, Sans Serif" font-weight="normal" text-anchor="start" style="mix-blend-mode: normal"><tspan x="0" dy="0">Ancient</tspan><tspan x="0" dy="46.150000000000006px">Market</tspan></text><path d="M476.00008,43.63427c0,-19.30299 15.64818,-34.95118 34.95117,-34.95118c19.303,0 34.95117,15.64818 34.95117,34.95118c0,19.303 -15.64818,34.95117 -34.95117,34.95117c-19.303,0 -34.95117,-15.64818 -34.95117,-34.95117z" fill-opacity="0.70196" fill="#000000" stroke="none" stroke-width="0"/><path d="M301.95122,30.62384c13.68381,0 24.77671,7.35374 24.77671,16.42502c0,9.07128 -11.0929,16.42501 -24.77671,16.42501c-13.68381,0 -24.77671,-7.35373 -24.77671,-16.42501c0,-9.07128 11.09291,-16.42502 24.77671,-16.42502z" fill="#096b22" stroke="none" stroke-width="NaN"/><path d="M301.95117,35.17007c9.89632,0 17.91886,5.31831 17.91886,11.87878c0,6.56047 -8.02255,11.8788 -17.91886,11.8788c-9.89632,0 -17.91887,-5.31833 -17.91887,-11.8788c0,-6.56047 8.02253,-11.87878 17.91887,-11.87878z" fill="#009f29" stroke="none" stroke-width="NaN"/><path d="M301.95122,39.06681c6.64988,0 12.04071,3.57368 12.04071,7.98204c0,4.40836 -5.3908,7.98203 -12.04071,7.98203c-6.64988,0 -12.04071,-3.57367 -12.04071,-7.98203c0,-4.40836 5.3908,-7.98204 12.04071,-7.98204z" fill="#37d660" stroke="none" stroke-width="NaN"/><path d="M301.95122,30.62384c13.68381,0 24.77671,7.35374 24.77671,16.42502c0,9.07128 -11.0929,16.42501 -24.77671,16.42501c-13.68381,0 -24.77671,-7.35373 -24.77671,-16.42501c0,-9.07128 11.09291,-16.42502 24.77671,-16.42502z" fill="url(#color-2)" stroke="none" stroke-width="NaN"/><path d="M316.7521,39.06681c1.52443,0 2.76022,1.23577 2.76022,2.76018c0,1.52443 -1.23579,2.76021 -2.76022,2.76021c-1.52443,0 -2.76021,-1.23578 -2.76021,-2.76021c0,-1.52443 1.23578,-2.76018 2.76021,-2.76018z" fill="#000000" stroke="none" stroke-width="0"/><path d="M316.7521,49.51048c1.52443,0 2.76019,1.23579 2.76019,2.76022c0,1.52443 -1.23578,2.7602 -2.76019,2.7602c-1.52443,0 -2.76021,-1.23577 -2.76021,-2.7602c0,-1.52443 1.23578,-2.76022 2.76021,-2.76022z" fill="#000000" stroke="none" stroke-width="0"/><g stroke="#6e6e6e"><path d="M390.03241,56.92777c0,-7.4598 0,-17.96667 0,-21.77894c0,-2.76868 3.14184,-6.01887 5.64309,-6.01887c3.77925,0 14.80283,0 22.42905,0c4.46511,0 7.76559,2.02703 7.76559,5.0437c0,7.1845 0,19.98219 0,24.37942c0,2.91523 -3.313,6.41461 -7.76559,6.41461c-7.2635,0 -17.55969,0 -21.45388,0c-2.98944,0 -6.61826,-5.68295 -6.61826,-8.03992z" fill="#ffffff" stroke-width="1"/><path d="M403.40043,59.36952c0,-6.48363 0,-21.64226 0,-25.02953c0,-1.31439 1.10683,-2.56894 1.96652,-2.56894c1.04639,0 3.66887,0 5.42599,0c0.99267,0 1.70915,0.87626 1.70915,1.8688c0,3.03051 0,18.75961 0,25.55462c0,1.92429 -0.62881,3.1321 -1.53413,3.1321c-1.91785,0 -5.07651,0 -6.12611,0c-0.67022,0 -1.44143,-1.13657 -1.44143,-2.95706z" fill="#ff0000" stroke-width="0"/><path d="M420.41967,51.59963c-3.4586,0 -18.20643,0 -24.67945,0c-1.88374,0 -3.06671,-0.95615 -3.06671,-2.20692c0,-1.90361 0,-4.48964 0,-5.42599c0,-0.6806 0.75419,-1.46876 2.01652,-1.46876c5.7119,0 21.82793,0 25.55462,0c1.49706,0 2.98438,1.01031 2.98438,1.8188c0,0.80104 0,2.24419 0,3.8507c0,1.63811 -1.38855,3.43214 -2.80936,3.43214z" fill="#ff0000" stroke-width="0"/></g><path d="M510.9512,24.16429c16.22059,0 29.36996,8.71701 29.36996,19.46998c0,10.75297 -13.14937,19.46997 -29.36996,19.46997c-16.22059,0 -29.36996,-8.71701 -29.36996,-19.46997c0,-10.75297 13.14937,-19.46997 29.36996,-19.46997z" fill="#096b22" stroke="none" stroke-width="NaN"/><path d="M510.9512,29.55333c11.73095,0 21.24077,6.30423 21.24077,14.08093c0,7.7767 -9.50982,14.08096 -21.24077,14.08096c-11.73095,0 -21.24077,-6.30427 -21.24077,-14.08096c0,-7.7767 9.50979,-14.08093 21.24077,-14.08093z" fill="#009f29" stroke="none" stroke-width="NaN"/><path d="M510.95126,34.17247c7.88268,0 14.27288,4.23619 14.27288,9.46179c0,5.22561 -6.39018,9.46179 -14.27288,9.46179c-7.88268,0 -14.27288,-4.23619 -14.27288,-9.46179c0,-5.22561 6.39018,-9.46179 14.27288,-9.46179z" fill="#37d660" stroke="none" stroke-width="NaN"/><path d="M510.9512,24.16429c16.22059,0 29.36996,8.71701 29.36996,19.46997c0,10.75297 -13.14937,19.46998 -29.36996,19.46998c-16.22059,0 -29.36996,-8.71701 -29.36996,-19.46998c0,-10.75297 13.14937,-19.46997 29.36996,-19.46997z" fill="url(#color-3)" stroke="none" stroke-width="NaN"/><path d="M528.49596,34.17247c1.80704,0 3.27192,1.46486 3.27192,3.27188c0,1.80705 -1.46488,3.27192 -3.27192,3.27192c-1.80704,0 -3.27192,-1.46488 -3.27192,-3.27192c0,-1.80705 1.46488,-3.27188 3.27192,-3.27188z" fill="#000000" stroke="none" stroke-width="0"/><path d="M528.49596,46.55225c1.80704,0 3.27189,1.46488 3.27189,3.27192c0,1.80705 -1.46488,3.27191 -3.27189,3.27191c-1.80704,0 -3.27192,-1.46486 -3.27192,-3.27191c0,-1.80705 1.46488,-3.27192 3.27192,-3.27192z" fill="#000000" stroke="none" stroke-width="0"/><path d="M477.45622,43.63427c0,-18.49876 14.9962,-33.49496 33.49496,-33.49496c18.49876,0 33.49496,14.9962 33.49496,33.49496c0,18.49876 -14.9962,33.49496 -33.49496,33.49496c-18.49876,0 -33.49496,-14.9962 -33.49496,-33.49496z" fill="url(#color-4)" stroke="none" stroke-width="0"/><path d="M97.00003,229.375c0,-32.38656 0,-93.27017 0,-110.625c0,-9.07136 29.22446,-18.75 56.55057,-18.75c53.31831,0 242.93966,0 337.6699,0c33.15164,0 54.68187,10.79848 54.68187,20.625c0,16.71399 0,70.3959 0,103.125c0,15.46367 -35.27443,26.25 -66.59963,26.25c-55.5894,0 -238.56453,0 -329.72472,0c-31.91625,0 -52.57798,-8.22313 -52.57798,-20.625z" fill-opacity="0.70196" fill="#000000" stroke="none" stroke-width="0"/><path d="M267.00005,47.04886c0,-19.303 15.64817,-34.95119 34.95118,-34.95119c19.303,0 34.95117,15.64819 34.95117,34.95119c0,19.30301 -15.64817,34.95117 -34.95117,34.95117c-19.303,0 -34.95118,-15.64817 -34.95118,-34.95117z" fill="url(#color-5)" stroke="none" stroke-width="0"/><path d="M369.33802,333.67519c0,-14.46382 0,-41.6544 0,-49.40506c0,-4.05127 6.336,-8.37374 12.26042,-8.37374c11.55965,0 52.67042,0 73.20836,0c7.18743,0 11.85528,4.82259 11.85528,9.21111c0,7.46446 0,31.43877 0,46.05557c0,6.90607 -7.64765,11.72323 -14.4391,11.72323c-12.05203,0 -51.72188,0 -71.48581,0c-6.91959,0 -11.39914,-3.67244 -11.39914,-9.21112z" fill-opacity="0.70196" fill="#5a6ea6" stroke="none" stroke-width="0"/><text transform="translate(179.45788,284.01266) scale(0.3004,0.32895)" font-size="40" xml:space="preserve" fill-opacity="0.70196" fill="#00d1ff" fill-rule="nonzero" stroke="none" stroke-width="1" stroke-linecap="butt" stroke-linejoin="miter" stroke-miterlimit="10" stroke-dasharray="" stroke-dashoffset="0" font-family="&quot;MV Boli&quot;, Sans Serif" font-weight="normal" text-anchor="start" style="mix-blend-mode: normal"><tspan x="0" dy="0">Gives you loads of Ancient Slugs</tspan><tspan x="0" dy="48px">and gives you a dash ability</tspan><tspan x="0" dy="48px">that is used by pressing E</tspan><tspan x="0" dy="48px">Lasts for 30 seconds</tspan></text><text transform="translate(170.70349,343.56958) scale(0.34592,0.34592)" font-size="40" xml:space="preserve" fill-opacity="0.70196" fill="#ff0000" fill-rule="nonzero" stroke="none" stroke-width="1" stroke-linecap="butt" stroke-linejoin="miter" stroke-miterlimit="10" stroke-dasharray="" stroke-dashoffset="0" font-family="&quot;MV Boli&quot;, Sans Serif" font-weight="normal" text-anchor="start" style="mix-blend-mode: normal"><tspan x="0" dy="0">Acts like a regular powerup!</tspan></text></g></g></svg>