<svg version="1.1" xmlns="http://www.w3.org/2000/svg" xmlns:xlink="http://www.w3.org/1999/xlink" width="41.99099" height="41.99099" viewBox="0,0,41.99099,41.99099"><defs><radialGradient cx="314.65839" cy="180" r="5.34161" gradientUnits="userSpaceOnUse" id="color-1"><stop offset="0" stop-color="#2365c2"/><stop offset="1" stop-color="#2365c2" stop-opacity="0"/></radialGradient><radialGradient cx="317.92271" cy="177.02631" r="5.34161" gradientUnits="userSpaceOnUse" id="color-2"><stop offset="0" stop-color="#2365c2"/><stop offset="1" stop-color="#2365c2" stop-opacity="0"/></radialGradient><radialGradient cx="323.54884" cy="175.90461" r="5.34161" gradientUnits="userSpaceOnUse" id="color-3"><stop offset="0" stop-color="#2365c2"/><stop offset="1" stop-color="#2365c2" stop-opacity="0"/></radialGradient><radialGradient cx="320.75409" cy="184.04098" r="5.34161" gradientUnits="userSpaceOnUse" id="color-4"><stop offset="0" stop-color="#97a8c2" stop-opacity="0.40392"/><stop offset="1" stop-color="#97a8c2" stop-opacity="0"/></radialGradient><radialGradient cx="315.41248" cy="178.69937" r="5.34161" gradientUnits="userSpaceOnUse" id="color-5"><stop offset="0" stop-color="#97a8c2" stop-opacity="0.40392"/><stop offset="1" stop-color="#97a8c2" stop-opacity="0"/></radialGradient><radialGradient cx="315.41248" cy="182.26044" r="5.34161" gradientUnits="userSpaceOnUse" id="color-6"><stop offset="0" stop-color="#97a8c2" stop-opacity="0.40392"/><stop offset="1" stop-color="#97a8c2" stop-opacity="0"/></radialGradient><radialGradient cx="320.75409" cy="178.69937" r="5.34161" gradientUnits="userSpaceOnUse" id="color-7"><stop offset="0" stop-color="#97a8c2" stop-opacity="0.40392"/><stop offset="1" stop-color="#97a8c2" stop-opacity="0"/></radialGradient><radialGradient cx="320" cy="180" r="20.99549" gradientUnits="userSpaceOnUse" id="color-8"><stop offset="0" stop-color="#97a8c2" stop-opacity="0.40392"/><stop offset="1" stop-color="#97a8c2" stop-opacity="0"/></radialGradient></defs><g transform="translate(-299.00451,-159.00451)"><g data-paper-data="{&quot;isPaintingLayer&quot;:true}" fill-rule="nonzero" stroke-linecap="butt" stroke-linejoin="miter" stroke-miterlimit="10" stroke-dasharray="" stroke-dashoffset="0" style="mix-blend-mode: normal"><path d="M320,171.6847c6.92754,0 12.54342,3.72289 12.54342,8.3153c0,4.59241 -5.61588,8.3153 -12.54342,8.3153c-6.92754,0 -12.54342,-3.72289 -12.54342,-8.3153c0,-4.59241 5.61588,-8.3153 12.54342,-8.3153z" fill="#5481c2" stroke="none" stroke-width="NaN"/><path d="M327.49308,175.95903c0.77176,0 1.39738,0.62562 1.39738,1.39736c0,0.77176 -0.62562,1.39738 -1.39738,1.39738c-0.77176,0 -1.39738,-0.62562 -1.39738,-1.39738c0,-0.77176 0.62562,-1.39736 1.39738,-1.39736z" fill="#000000" stroke="none" stroke-width="0"/><path d="M327.49308,181.24622c0.77176,0 1.39737,0.62562 1.39737,1.39738c0,0.77176 -0.62562,1.39738 -1.39737,1.39738c-0.77176,0 -1.39738,-0.62562 -1.39738,-1.39738c0,-0.77176 0.62562,-1.39738 1.39738,-1.39738z" fill="#000000" stroke="none" stroke-width="0"/><path d="M309.31678,180c0,-2.95009 2.39152,-5.34161 5.34161,-5.34161c2.95009,0 5.34161,2.39152 5.34161,5.34161c0,2.95009 -2.39152,5.34161 -5.34161,5.34161c-2.95009,0 -5.34161,-2.39152 -5.34161,-5.34161z" fill="url(#color-1)" stroke="#000000" stroke-width="0"/><path d="M312.5811,177.02631c0,-2.95009 2.39152,-5.34161 5.34161,-5.34161c2.95009,0 5.34161,2.39152 5.34161,5.34161c0,2.95009 -2.39152,5.34161 -5.34161,5.34161c-2.95009,0 -5.34161,-2.39152 -5.34161,-5.34161z" fill="url(#color-2)" stroke="#000000" stroke-width="0"/><path d="M318.20723,175.90461c0,-2.95009 2.39152,-5.34161 5.34161,-5.34161c2.95009,0 5.34161,2.39152 5.34161,5.34161c0,2.95009 -2.39152,5.34161 -5.34161,5.34161c-2.95009,0 -5.34161,-2.39152 -5.34161,-5.34161z" fill="url(#color-3)" stroke="#000000" stroke-width="0"/><path d="M315.41248,184.04098c0,-2.95009 2.39152,-5.34161 5.34161,-5.34161c2.95009,0 5.34161,2.39152 5.34161,5.34161c0,2.95009 -2.39152,5.34161 -5.34161,5.34161c-2.95009,0 -5.34161,-2.39152 -5.34161,-5.34161z" fill="url(#color-4)" stroke="#000000" stroke-width="0"/><path d="M310.07087,178.69937c0,-2.95009 2.39152,-5.34161 5.34161,-5.34161c2.95009,0 5.34161,2.39152 5.34161,5.34161c0,2.95009 -2.39152,5.34161 -5.34161,5.34161c-2.95009,0 -5.34161,-2.39152 -5.34161,-5.34161z" fill="url(#color-5)" stroke="#000000" stroke-width="0"/><path d="M310.07087,182.26044c0,-2.95009 2.39152,-5.34161 5.34161,-5.34161c2.95009,0 5.34161,2.39152 5.34161,5.34161c0,2.95009 -2.39152,5.34161 -5.34161,5.34161c-2.95009,0 -5.34161,-2.39152 -5.34161,-5.34161z" fill="url(#color-6)" stroke="#000000" stroke-width="0"/><path d="M315.41248,178.69937c0,-2.95009 2.39152,-5.34161 5.34161,-5.34161c2.95009,0 5.34161,2.39152 5.34161,5.34161c0,2.95009 -2.39152,5.34161 -5.34161,5.34161c-2.95009,0 -5.34161,-2.39152 -5.34161,-5.34161z" fill="url(#color-7)" stroke="#000000" stroke-width="0"/><path d="M299.00451,180c0,-11.59549 9.4,-20.99549 20.99549,-20.99549c11.59549,0 20.99549,9.4 20.99549,20.99549c0,11.59549 -9.4,20.99549 -20.99549,20.99549c-11.59549,0 -20.99549,-9.4 -20.99549,-20.99549z" fill="url(#color-8)" stroke="#000000" stroke-width="0"/></g></g></svg>