<svg version="1.1" xmlns="http://www.w3.org/2000/svg" xmlns:xlink="http://www.w3.org/1999/xlink" width="54.17335" height="54.17335" viewBox="0,0,54.17335,54.17335"><defs><radialGradient cx="320" cy="180" r="27.08668" gradientUnits="userSpaceOnUse" id="color-1"><stop offset="0" stop-color="#ff5301"/><stop offset="1" stop-color="#ff5301" stop-opacity="0"/></radialGradient><radialGradient cx="320" cy="177.3435" r="14.80366" gradientUnits="userSpaceOnUse" id="color-2"><stop offset="0" stop-color="#ff5200"/><stop offset="1" stop-color="#ff8045"/></radialGradient><radialGradient cx="326.19305" cy="186.58324" r="7.82705" gradientUnits="userSpaceOnUse" id="color-3"><stop offset="0" stop-color="#46a400"/><stop offset="1" stop-color="#46a400" stop-opacity="0"/></radialGradient><radialGradient cx="313.57689" cy="186.58324" r="7.82704" gradientUnits="userSpaceOnUse" id="color-4"><stop offset="0" stop-color="#46a400"/><stop offset="1" stop-color="#46a400" stop-opacity="0"/></radialGradient></defs><g transform="translate(-292.91332,-152.91332)"><g data-paper-data="{&quot;isPaintingLayer&quot;:true}" fill-rule="nonzero" stroke-linecap="butt" stroke-linejoin="miter" stroke-miterlimit="10" stroke-dasharray="" stroke-dashoffset="0" style="mix-blend-mode: normal"><path d="M292.91332,180c0,-14.95956 12.12712,-27.08668 27.08668,-27.08668c14.95956,0 27.08668,12.12712 27.08668,27.08668c0,14.95956 -12.12712,27.08668 -27.08668,27.08668c-14.95956,0 -27.08668,-12.12712 -27.08668,-27.08668z" fill="url(#color-1)" stroke="#6e6e6e" stroke-width="0"/><path d="M306.0535,187.1217c2.0108,-3.87288 8.29569,-15.97783 11.70992,-22.55377c1.3581,-2.61575 3.1162,-2.7114 4.40563,-0.2279c3.29933,6.35464 9.44808,18.19739 11.42683,22.00854c1.77162,3.4122 0.75388,5.79859 -2.51456,5.79859c-7.17245,0 -19.2168,0 -22.97547,0c-2.2128,0 -3.26695,-2.6861 -2.05235,-5.02546z" fill="url(#color-2)" stroke="#ff5301" stroke-width="1.5"/><text transform="translate(312.24864,180.04885) scale(0.23448,0.23448)" font-size="40" xml:space="preserve" fill="#46a400" fill-rule="nonzero" stroke="none" stroke-width="1" stroke-linecap="butt" stroke-linejoin="miter" stroke-miterlimit="10" stroke-dasharray="" stroke-dashoffset="0" font-family="&quot;MV Boli&quot;, Technological" font-weight="normal" text-anchor="start" style="mix-blend-mode: normal"><tspan x="0" dy="0">XP</tspan></text><path d="M311.37105,189.50088c0,-0.45277 0,-1.54781 0,-2.25455c0,-0.37672 -0.87931,-0.64311 -1.38456,-0.64311c-0.2672,0 -0.68795,0 -1.07686,0c-0.50043,0 -0.35689,-0.43251 0.12608,-0.78581c0.68964,-0.50448 2.61867,-1.91559 3.75043,-2.74349c0.50988,-0.37299 1.13165,-0.42738 1.5488,-0.12223c1.08829,0.7961 3.15286,2.30636 3.8804,2.83856c0.25334,0.18532 0.59519,0.81297 0.05181,0.81297c-0.35596,0 -0.72361,0 -0.96546,0c-0.50525,0 -1.38456,0.29165 -1.38456,0.69744c0,0.72451 0,1.81284 0,2.25455c0,0.3713 -0.5442,0.85706 -1.21475,0.85706c-0.79881,0 -1.77694,0 -2.22798,0c-0.46968,0 -1.10335,-0.52211 -1.10335,-0.91139z" fill="#46a400" stroke="none" stroke-width="0"/><path d="M323.98721,189.50089c0,-0.45277 0,-1.5478 0,-2.25455c0,-0.37671 -0.8793,-0.64311 -1.38456,-0.64311c-0.2672,0 -0.68795,0 -1.07686,0c-0.50043,0 -0.35688,-0.43251 0.12608,-0.78581c0.68964,-0.50448 2.61867,-1.91559 3.75043,-2.74349c0.50988,-0.37299 1.13165,-0.42738 1.54879,-0.12223c1.08829,0.7961 3.15287,2.30636 3.8804,2.83856c0.25333,0.18532 0.59519,0.81297 0.05181,0.81297c-0.35597,0 -0.72361,0 -0.96546,0c-0.50525,0 -1.38456,0.29165 -1.38456,0.69743c0,0.72451 0,1.81284 0,2.25455c0,0.37131 -0.5442,0.85706 -1.21474,0.85706c-0.79881,0 -1.77695,0 -2.22798,0c-0.46967,0 -1.10335,-0.52211 -1.10335,-0.91138z" fill="#46a400" stroke="none" stroke-width="0"/><path d="M318.36601,186.58324c0,-4.32276 3.50429,-7.82705 7.82705,-7.82705c4.32276,0 7.82705,3.50429 7.82705,7.82705c0,4.32276 -3.50429,7.82705 -7.82705,7.82705c-4.32276,0 -7.82705,-3.50429 -7.82705,-7.82705z" fill="url(#color-3)" stroke="#6e6e6e" stroke-width="0"/><path d="M305.74984,186.58324c0,-4.32276 3.50429,-7.82705 7.82705,-7.82705c4.32276,0 7.82704,3.50429 7.82704,7.82705c0,4.32276 -3.50428,7.82705 -7.82704,7.82705c-4.32276,0 -7.82705,-3.50429 -7.82705,-7.82705z" fill="url(#color-4)" stroke="#6e6e6e" stroke-width="0"/></g></g></svg>