<svg version="1.1" xmlns="http://www.w3.org/2000/svg" xmlns:xlink="http://www.w3.org/1999/xlink" width="130.10296" height="130.10296" viewBox="0,0,130.10296,130.10296"><defs><radialGradient cx="319.09349" cy="173.75618" r="20.06353" gradientUnits="userSpaceOnUse" id="color-1"><stop offset="0" stop-color="#005907" stop-opacity="0"/><stop offset="1" stop-color="#005907" stop-opacity="0.4"/></radialGradient><radialGradient cx="319.09356" cy="173.75618" r="42.55148" gradientUnits="userSpaceOnUse" id="color-2"><stop offset="0" stop-color="#005907" stop-opacity="0.70196"/><stop offset="1" stop-color="#005907" stop-opacity="0"/></radialGradient><radialGradient cx="317.77778" cy="192.66667" r="5" gradientUnits="userSpaceOnUse" id="color-3"><stop offset="0" stop-color="#005907" stop-opacity="0.70196"/><stop offset="1" stop-color="#005907" stop-opacity="0"/></radialGradient><radialGradient cx="318.88889" cy="191.22222" r="5" gradientUnits="userSpaceOnUse" id="color-4"><stop offset="0" stop-color="#005907" stop-opacity="0.70196"/><stop offset="1" stop-color="#005907" stop-opacity="0"/></radialGradient><radialGradient cx="318.88889" cy="185.61111" r="5" gradientUnits="userSpaceOnUse" id="color-5"><stop offset="0" stop-color="#005907" stop-opacity="0.70196"/><stop offset="1" stop-color="#005907" stop-opacity="0"/></radialGradient><radialGradient cx="317.77778" cy="185.61111" r="5" gradientUnits="userSpaceOnUse" id="color-6"><stop offset="0" stop-color="#005907" stop-opacity="0.70196"/><stop offset="1" stop-color="#005907" stop-opacity="0"/></radialGradient><radialGradient cx="340.08334" cy="174.31173" r="5" gradientUnits="userSpaceOnUse" id="color-7"><stop offset="0" stop-color="#005907" stop-opacity="0.70196"/><stop offset="1" stop-color="#005907" stop-opacity="0"/></radialGradient><radialGradient cx="338.63889" cy="173.20062" r="5" gradientUnits="userSpaceOnUse" id="color-8"><stop offset="0" stop-color="#005907" stop-opacity="0.70196"/><stop offset="1" stop-color="#005907" stop-opacity="0"/></radialGradient><radialGradient cx="333.02778" cy="173.20062" r="5" gradientUnits="userSpaceOnUse" id="color-9"><stop offset="0" stop-color="#005907" stop-opacity="0.70196"/><stop offset="1" stop-color="#005907" stop-opacity="0"/></radialGradient><radialGradient cx="333.02778" cy="174.31173" r="5" gradientUnits="userSpaceOnUse" id="color-10"><stop offset="0" stop-color="#005907" stop-opacity="0.70196"/><stop offset="1" stop-color="#005907" stop-opacity="0"/></radialGradient></defs><g transform="translate(-254.04207,-108.7047)"><g data-paper-data="{&quot;isPaintingLayer&quot;:true}" fill-rule="nonzero" stroke-linecap="butt" stroke-linejoin="miter" stroke-miterlimit="10" stroke-dasharray="" stroke-dashoffset="0" style="mix-blend-mode: normal"><path d="M299.03002,173.75618c0,-11.08079 8.98273,-20.06352 20.06353,-20.06352c11.0808,0 20.06353,8.98273 20.06353,20.06352c0,11.08079 -8.98273,20.06352 -20.06353,20.06352c-11.0808,0 -20.06353,-8.98273 -20.06353,-20.06352z" fill="url(#color-1)" stroke="none" stroke-width="0"/><path d="M276.54207,173.75618c0,-23.50056 19.05092,-42.55148 42.55148,-42.55148c23.50056,0 42.55148,19.05092 42.55148,42.55148c0,23.50056 -19.05092,42.55148 -42.55148,42.55148c-23.50056,0 -42.55148,-19.05092 -42.55148,-42.55148z" fill="none" stroke="url(#color-2)" stroke-width="45"/><g fill-opacity="0.50196" fill="#5900ff" stroke-width="0"><path d="M316.66667,198.27778v-11.22222h2.22222v11.22222z" stroke="url(#color-3)"/><path d="M317.77778,196.83333v-11.22222h2.22222v11.22222z" stroke="url(#color-4)"/><path d="M317.77778,191.22222v-11.22222h2.22222v11.22222z" stroke="url(#color-5)"/><path d="M316.66667,191.22222v-11.22222h2.22222v11.22222z" stroke="url(#color-6)"/></g><g fill-opacity="0.30196" fill="#5900ff" stroke-width="0"><path d="M345.69445,175.42284h-11.22222v-2.22222h11.22222z" stroke="url(#color-7)"/><path d="M344.25,174.31173h-11.22222v-2.22222h11.22222z" stroke="url(#color-8)"/><path d="M338.63889,174.31173h-11.22222v-2.22222h11.22222z" stroke="url(#color-9)"/><path d="M338.63889,175.42284h-11.22222v-2.22222h11.22222z" stroke="url(#color-10)"/></g></g></g></svg>