<svg version="1.1" xmlns="http://www.w3.org/2000/svg" xmlns:xlink="http://www.w3.org/1999/xlink" width="43.75" height="6.75" viewBox="0,0,43.75,6.75"><g transform="translate(-298.125,-176.625)"><g data-paper-data="{&quot;isPaintingLayer&quot;:true}" fill-rule="nonzero" stroke-linecap="butt" stroke-linejoin="miter" stroke-miterlimit="10" stroke-dasharray="" stroke-dashoffset="0" style="mix-blend-mode: normal"><path d="M301.125,182.375c-1.10457,0 -2,-0.89543 -2,-2v-0.75c0,-1.10457 0.89543,-2 2,-2h37.75c1.10457,0 2,0.89543 2,2v0.75c0,1.10457 -0.89543,2 -2,2z" fill="#6d0000" stroke="#333333" stroke-width="2"/><path d="M300.82652,181.46062c-0.45648,0 -0.82652,-0.51178 -0.82652,-1.1431v-0.63505c0,-0.63132 0.37004,-1.1431 0.82652,-1.1431h30.9944c0.45648,0 0.82652,0.51178 0.82652,1.1431v0.63505c0,0.63132 -0.37004,1.1431 -0.82652,1.1431z" fill="#00ff27" stroke="none" stroke-width="0"/></g></g></svg>