<svg version="1.1" xmlns="http://www.w3.org/2000/svg" xmlns:xlink="http://www.w3.org/1999/xlink" width="48.57143" height="50.96019" viewBox="0,0,48.57143,50.96019"><defs><radialGradient cx="320.19436" cy="180.07918" r="18.16279" gradientUnits="userSpaceOnUse" id="color-1"><stop offset="0" stop-color="#4200ff"/><stop offset="1" stop-color="#4200ff" stop-opacity="0"/></radialGradient><radialGradient cx="320.19436" cy="180.07918" r="18.16279" gradientUnits="userSpaceOnUse" id="color-2"><stop offset="0" stop-color="#ff0000"/><stop offset="1" stop-color="#ff0000" stop-opacity="0"/></radialGradient><radialGradient cx="320.19436" cy="180.07918" r="12.65891" gradientUnits="userSpaceOnUse" id="color-3"><stop offset="0" stop-color="#ff0000"/><stop offset="1" stop-color="#ff0000" stop-opacity="0"/></radialGradient><radialGradient cx="315.9485" cy="178.34939" r="18.16279" gradientUnits="userSpaceOnUse" id="color-4"><stop offset="0" stop-color="#4200ff"/><stop offset="1" stop-color="#4200ff" stop-opacity="0"/></radialGradient><radialGradient cx="315.9485" cy="178.34939" r="18.16279" gradientUnits="userSpaceOnUse" id="color-5"><stop offset="0" stop-color="#ff0000"/><stop offset="1" stop-color="#ff0000" stop-opacity="0"/></radialGradient><radialGradient cx="315.9485" cy="178.34939" r="12.65891" gradientUnits="userSpaceOnUse" id="color-6"><stop offset="0" stop-color="#ff0000"/><stop offset="1" stop-color="#ff0000" stop-opacity="0"/></radialGradient></defs><g transform="translate(-293.78571,-151.28178)"><g data-paper-data="{&quot;isPaintingLayer&quot;:true}" fill-rule="nonzero" stroke-linecap="butt" stroke-linejoin="miter" stroke-miterlimit="10" stroke-dasharray="" stroke-dashoffset="0" style="mix-blend-mode: normal"><g stroke-width="8"><path d="M302.03156,180.07918c0,-10.03103 8.13176,-18.16279 18.16279,-18.16279c10.03103,0 18.16279,8.13176 18.16279,18.16279c0,10.03103 -8.13176,18.16279 -18.16279,18.16279c-10.03103,0 -18.16279,-8.13176 -18.16279,-18.16279z" fill="url(#color-1)" stroke="url(#color-2)"/><path d="M307.53544,180.07918c0,-6.99133 5.66758,-12.65891 12.65891,-12.65891c6.99133,0 12.65891,5.66758 12.65891,12.65891c0,6.99133 -5.66758,12.65891 -12.65891,12.65891c-6.99133,0 -12.65891,-5.66758 -12.65891,-12.65891z" fill="none" stroke="url(#color-3)"/></g><g stroke-width="8"><path d="M297.78571,178.34939c0,-10.03103 8.13176,-18.16279 18.16279,-18.16279c10.03103,0 18.16279,8.13176 18.16279,18.16279c0,10.03103 -8.13176,18.16279 -18.16279,18.16279c-10.03103,0 -18.16279,-8.13176 -18.16279,-18.16279z" fill="url(#color-4)" stroke="url(#color-5)"/><path d="M303.28959,178.34939c0,-6.99132 5.66759,-12.65891 12.65891,-12.65891c6.99132,0 12.65891,5.66759 12.65891,12.65891c0,6.99132 -5.66759,12.65891 -12.65891,12.65891c-6.99132,0 -12.65891,-5.66759 -12.65891,-12.65891z" fill="none" stroke="url(#color-6)"/></g><text transform="translate(297.14101,160.97357) scale(0.20828,0.20828)" font-size="40" xml:space="preserve" fill="#00ff08" fill-rule="nonzero" stroke="#00ff09" stroke-width="2" stroke-linecap="butt" stroke-linejoin="miter" stroke-miterlimit="10" stroke-dasharray="" stroke-dashoffset="0" font-family="&quot;MV Boli&quot;, Technological" font-weight="normal" text-anchor="start" style="mix-blend-mode: normal"><tspan x="0" dy="0">Warp Gate</tspan></text></g></g></svg>