<svg version="1.1" xmlns="http://www.w3.org/2000/svg" xmlns:xlink="http://www.w3.org/1999/xlink" width="43.24969" height="46.9325" viewBox="0,0,43.24969,46.9325"><defs><radialGradient cx="319.87707" cy="179.90893" r="15.44821" gradientUnits="userSpaceOnUse" id="color-1"><stop offset="0" stop-color="#4200ff"/><stop offset="1" stop-color="#4200ff" stop-opacity="0"/></radialGradient><radialGradient cx="319.87707" cy="179.90893" r="15.44821" gradientUnits="userSpaceOnUse" id="color-2"><stop offset="0" stop-color="#ff0000"/><stop offset="1" stop-color="#ff0000" stop-opacity="0"/></radialGradient><radialGradient cx="319.87707" cy="179.90893" r="10.76693" gradientUnits="userSpaceOnUse" id="color-3"><stop offset="0" stop-color="#ff0000"/><stop offset="1" stop-color="#ff0000" stop-opacity="0"/></radialGradient><radialGradient cx="316.26579" cy="177.23392" r="15.44821" gradientUnits="userSpaceOnUse" id="color-4"><stop offset="0" stop-color="#4200ff"/><stop offset="1" stop-color="#4200ff" stop-opacity="0"/></radialGradient><radialGradient cx="316.26579" cy="177.23392" r="15.44821" gradientUnits="userSpaceOnUse" id="color-5"><stop offset="0" stop-color="#ff0000"/><stop offset="1" stop-color="#ff0000" stop-opacity="0"/></radialGradient><radialGradient cx="316.26579" cy="177.23392" r="10.76693" gradientUnits="userSpaceOnUse" id="color-6"><stop offset="0" stop-color="#ff0000"/><stop offset="1" stop-color="#ff0000" stop-opacity="0"/></radialGradient></defs><g transform="translate(-296.07559,-152.42464)"><g data-paper-data="{&quot;isPaintingLayer&quot;:true}" fill-rule="nonzero" stroke-linecap="butt" stroke-linejoin="miter" stroke-miterlimit="10" stroke-dasharray="" stroke-dashoffset="0" style="mix-blend-mode: normal"><g stroke-width="8"><path d="M304.42886,179.90893c0,-8.53181 6.9164,-15.44821 15.44821,-15.44821c8.53181,0 15.44821,6.9164 15.44821,15.44821c0,8.53181 -6.9164,15.44821 -15.44821,15.44821c-8.53181,0 -15.44821,-6.9164 -15.44821,-15.44821z" fill="url(#color-1)" stroke="url(#color-2)"/><path d="M309.11013,179.90893c0,-5.94642 4.82051,-10.76693 10.76693,-10.76693c5.94642,0 10.76693,4.82051 10.76693,10.76693c0,5.94642 -4.82051,10.76693 -10.76693,10.76693c-5.94642,0 -10.76693,-4.82051 -10.76693,-10.76693z" fill="none" stroke="url(#color-3)"/></g><g stroke-width="8"><path d="M300.81758,177.23392c0,-8.53181 6.9164,-15.44821 15.44821,-15.44821c8.53181,0 15.44821,6.9164 15.44821,15.44821c0,8.53181 -6.9164,15.44821 -15.44821,15.44821c-8.53181,0 -15.44821,-6.9164 -15.44821,-15.44821z" fill="url(#color-4)" stroke="url(#color-5)"/><path d="M305.49886,177.23392c0,-5.94641 4.82052,-10.76693 10.76693,-10.76693c5.94641,0 10.76693,4.82052 10.76693,10.76693c0,5.94641 -4.82052,10.76693 -10.76693,10.76693c-5.94641,0 -10.76693,-4.82052 -10.76693,-10.76693z" fill="none" stroke="url(#color-6)"/></g><text transform="translate(296.28387,162.11643) scale(0.20828,0.20828)" font-size="40" xml:space="preserve" fill="#00ff08" fill-rule="nonzero" stroke="#00ff09" stroke-width="2" stroke-linecap="butt" stroke-linejoin="miter" stroke-miterlimit="10" stroke-dasharray="" stroke-dashoffset="0" font-family="&quot;MV Boli&quot;, Technological" font-weight="normal" text-anchor="start" style="mix-blend-mode: normal"><tspan x="0" dy="0">Warp Gate</tspan></text></g></g></svg>