<svg version="1.1" xmlns="http://www.w3.org/2000/svg" xmlns:xlink="http://www.w3.org/1999/xlink" width="64.25534" height="82.80204" viewBox="0,0,64.25534,82.80204"><defs><radialGradient cx="494.28104" cy="208.46701" r="31.33333" gradientUnits="userSpaceOnUse" id="color-1"><stop offset="0" stop-color="#4986ab" stop-opacity="0.94902"/><stop offset="1" stop-color="#4986ab" stop-opacity="0"/></radialGradient><radialGradient cx="494.33305" cy="186.68977" r="31.28132" gradientUnits="userSpaceOnUse" id="color-2"><stop offset="0" stop-color="#4887ab" stop-opacity="0.29804"/><stop offset="1" stop-color="#4887ab" stop-opacity="0"/></radialGradient></defs><g transform="translate(-462.94775,-137.54374)"><g data-paper-data="{&quot;isPaintingLayer&quot;:true}" fill-rule="nonzero" stroke="none" stroke-linecap="butt" stroke-linejoin="miter" stroke-miterlimit="10" stroke-dasharray="" stroke-dashoffset="0" style="mix-blend-mode: normal"><path d="M464.64046,185.49621c0,-11.47564 0,-33.04873 0,-39.19813c0,-3.21429 4.07296,-6.64375 7.88134,-6.64375c7.43087,0 33.85802,0 47.06039,0c4.62028,0 7.62091,3.82626 7.62091,7.30813c0,5.92232 0,24.94361 0,36.54062c0,5.47929 -4.91613,9.30125 -9.28186,9.30125c-7.74739,0 -33.24827,0 -45.95309,0c-4.44811,0 -7.32769,-2.91373 -7.32769,-7.30812z" fill-opacity="0.51373" fill="#50718f" stroke-width="0"/><path d="M514.20805,186.68977c0,1.79493 -8.89834,3.25 -19.875,3.25c-10.97666,0 -19.875,-1.45507 -19.875,-3.25c0,-1.79493 8.89834,-3.25 19.875,-3.25c10.97666,0 19.875,1.45507 19.875,3.25z" fill-opacity="0.8549" fill="#4489ad" stroke-width="0"/><path d="M462.94776,220.34579v-23.75758h62.66667v23.75758z" fill="url(#color-1)" stroke-width="0"/><text transform="translate(469.50436,216.33868) scale(0.16964,0.16964)" font-size="40" xml:space="preserve" fill-opacity="0.9451" fill="#4886ab" fill-rule="nonzero" stroke="none" stroke-width="1" stroke-linecap="butt" stroke-linejoin="miter" stroke-miterlimit="10" stroke-dasharray="" stroke-dashoffset="0" font-family="&quot;MV Boli&quot;, Sans Serif" font-weight="normal" text-anchor="start" style="mix-blend-mode: normal"><tspan x="0" dy="0">Ancient matter</tspan></text><text transform="translate(479.69549,209.48342) scale(0.29052,0.29052)" font-size="40" xml:space="preserve" fill-opacity="0.68627" fill="#9dc0eb" fill-rule="nonzero" stroke="none" stroke-width="1" stroke-linecap="butt" stroke-linejoin="miter" stroke-miterlimit="10" stroke-dasharray="" stroke-dashoffset="0" font-family="&quot;MV Boli&quot;, Sans Serif" font-weight="normal" text-anchor="start" style="mix-blend-mode: normal"><tspan x="0" dy="0">1000</tspan></text><text transform="translate(467.56647,157.12598) scale(0.40564,0.42539)" font-size="40" xml:space="preserve" fill-opacity="0.70196" fill="#428eb3" fill-rule="nonzero" stroke="none" stroke-width="1" stroke-linecap="butt" stroke-linejoin="miter" stroke-miterlimit="10" stroke-dasharray="" stroke-dashoffset="0" font-family="&quot;MV Boli&quot;, Sans Serif" font-weight="normal" text-anchor="start" style="mix-blend-mode: normal"><tspan x="0" dy="0">Ancient</tspan><tspan x="0" dy="48px"> Laser</tspan></text><path d="M463.0518,186.68977c0,-17.2762 14.00512,-31.28132 31.28132,-31.28132c17.2762,0 31.28132,14.00512 31.28132,31.28132c0,17.2762 -14.00512,31.28132 -31.28132,31.28132c-17.2762,0 -31.28132,-14.00512 -31.28132,-31.28132z" fill="url(#color-2)" stroke-width="0"/></g></g></svg>