<svg version="1.1" xmlns="http://www.w3.org/2000/svg" xmlns:xlink="http://www.w3.org/1999/xlink" width="142.33334" height="142.33334" viewBox="0,0,142.33334,142.33334"><defs><linearGradient x1="214.84128" y1="198.5434" x2="193.67115" y2="198.5434" gradientUnits="userSpaceOnUse" id="color-1"><stop offset="0" stop-color="#ff0000"/><stop offset="1" stop-color="#ff7100"/></linearGradient><linearGradient x1="216.62639" y1="198.5434" x2="195.45626" y2="198.5434" gradientUnits="userSpaceOnUse" id="color-2"><stop offset="0" stop-color="#ff0000"/><stop offset="1" stop-color="#ff7100"/></linearGradient><linearGradient x1="218.05448" y1="198.5434" x2="196.88436" y2="198.5434" gradientUnits="userSpaceOnUse" id="color-3"><stop offset="0" stop-color="#ff0000"/><stop offset="1" stop-color="#ff7100"/></linearGradient><linearGradient x1="219.8396" y1="198.5434" x2="198.66946" y2="198.5434" gradientUnits="userSpaceOnUse" id="color-4"><stop offset="0" stop-color="#ff0000"/><stop offset="1" stop-color="#ff7100"/></linearGradient><linearGradient x1="221.62471" y1="198.5434" x2="200.45458" y2="198.5434" gradientUnits="userSpaceOnUse" id="color-5"><stop offset="0" stop-color="#ff0000"/><stop offset="1" stop-color="#ff7100"/></linearGradient><linearGradient x1="223.40982" y1="198.5434" x2="202.23969" y2="198.5434" gradientUnits="userSpaceOnUse" id="color-6"><stop offset="0" stop-color="#ff0000"/><stop offset="1" stop-color="#ff7100"/></linearGradient><linearGradient x1="225.19495" y1="198.5434" x2="204.02482" y2="198.5434" gradientUnits="userSpaceOnUse" id="color-7"><stop offset="0" stop-color="#ff0000"/><stop offset="1" stop-color="#ff7100"/></linearGradient><linearGradient x1="214.84128" y1="151.85917" x2="193.67115" y2="151.85916" gradientUnits="userSpaceOnUse" id="color-8"><stop offset="0" stop-color="#ff0000"/><stop offset="1" stop-color="#ff7100"/></linearGradient><linearGradient x1="216.62639" y1="151.85917" x2="195.45626" y2="151.85917" gradientUnits="userSpaceOnUse" id="color-9"><stop offset="0" stop-color="#ff0000"/><stop offset="1" stop-color="#ff7100"/></linearGradient><linearGradient x1="218.05448" y1="151.85917" x2="196.88436" y2="151.85917" gradientUnits="userSpaceOnUse" id="color-10"><stop offset="0" stop-color="#ff0000"/><stop offset="1" stop-color="#ff7100"/></linearGradient><linearGradient x1="219.8396" y1="151.85917" x2="198.66946" y2="151.85917" gradientUnits="userSpaceOnUse" id="color-11"><stop offset="0" stop-color="#ff0000"/><stop offset="1" stop-color="#ff7100"/></linearGradient><linearGradient x1="221.62471" y1="151.85917" x2="200.45458" y2="151.85917" gradientUnits="userSpaceOnUse" id="color-12"><stop offset="0" stop-color="#ff0000"/><stop offset="1" stop-color="#ff7100"/></linearGradient><linearGradient x1="223.40982" y1="151.85917" x2="202.23969" y2="151.85916" gradientUnits="userSpaceOnUse" id="color-13"><stop offset="0" stop-color="#ff0000"/><stop offset="1" stop-color="#ff7100"/></linearGradient><linearGradient x1="225.19495" y1="151.85917" x2="204.02482" y2="151.85917" gradientUnits="userSpaceOnUse" id="color-14"><stop offset="0" stop-color="#ff0000"/><stop offset="1" stop-color="#ff7100"/></linearGradient><linearGradient x1="272.01774" y1="176.14148" x2="227.83835" y2="176.14148" gradientUnits="userSpaceOnUse" id="color-15"><stop offset="0" stop-color="#ff0000"/><stop offset="1" stop-color="#ff7166"/></linearGradient><linearGradient x1="297.41216" y1="176.14148" x2="263.49493" y2="176.14148" gradientUnits="userSpaceOnUse" id="color-16"><stop offset="0" stop-color="#740000"/><stop offset="1" stop-color="#ff0000"/></linearGradient><radialGradient cx="201.46436" cy="150.78809" r="22.0897" gradientUnits="userSpaceOnUse" id="color-17"><stop offset="0" stop-color="#ff6300"/><stop offset="1" stop-color="#ff6300" stop-opacity="0"/></radialGradient><radialGradient cx="201.46436" cy="198.0475" r="22.0897" gradientUnits="userSpaceOnUse" id="color-18"><stop offset="0" stop-color="#ff6300"/><stop offset="1" stop-color="#ff6300" stop-opacity="0"/></radialGradient><radialGradient cx="240" cy="180" r="71.16667" gradientUnits="userSpaceOnUse" id="color-19"><stop offset="0" stop-color="#ff4e00" stop-opacity="0.49799"/><stop offset="1" stop-color="#ff4e00" stop-opacity="0"/></radialGradient></defs><g transform="translate(-168.83333,-108.83333)"><g data-paper-data="{&quot;isPaintingLayer&quot;:true}" fill-rule="nonzero" stroke-linecap="butt" stroke-linejoin="miter" stroke-miterlimit="10" stroke-dasharray="" stroke-dashoffset="0" style="mix-blend-mode: normal"><g fill="#ff8383" stroke="#ffffff" stroke-width="1.5"><path d="M237.96776,193.45712h8.92558v35.34532c0,0 -2.98474,0 -4.47424,0c-1.48568,0 -4.45135,-2.62806 -4.45135,-4.99833c0,-5.84041 0,-30.34699 0,-30.34699z"/><path d="M263.93896,219.87685v8.92558c0,0 -17.47271,0 -21.87688,0c-1.90529,0 -4.09432,-3.43255 -4.09432,-4.99833c0,-1.38792 0,-3.92726 0,-3.92726z"/></g><g stroke="none" stroke-width="0.5"><path d="M209.59445,195.45194c-0.48923,-0.50471 -1.3669,-1.73464 -0.22844,-3.25258c0.5584,-0.74454 1.1861,-1.00403 1.75412,-1.03643c0.04248,-0.47906 0.19922,-0.97924 0.37748,-1.39592c-0.69456,0.12853 -2.1951,0.17468 -2.83073,-1.60509c-0.84084,-2.35435 1.51351,-3.1952 1.51351,-3.1952c1.46567,-0.24371 3.11769,-1.48671 4.39701,-0.73111c3.71482,2.19411 1.61306,4.74238 1.52695,7.33833c-0.02231,0.67283 0.63871,4.85539 0.68673,5.57995c0.18212,2.74797 0.00546,5.58706 0.00441,8.34114l-0.0315,0.07171l0.02826,0.00166l-0.17137,2.91327c-0.06739,1.32052 -1.15942,2.37049 -2.4967,2.37049c-1.1246,0 -2.07576,-0.74256 -2.38994,-1.76412l-1.01609,-3.04826l0.06735,-0.02245c-0.05194,-0.09737 -0.10217,-0.19579 -0.15053,-0.29535c-0.4634,-0.9539 -0.10988,-2.11872 -0.20703,-3.17476c-0.22553,-2.4515 -0.69525,-4.6869 -0.83349,-7.09529z" fill="#ff4200"/><path d="M214.43631,212.43404c0,1.59769 -1.59769,1.59769 -1.59769,1.59769l-1.01732,-0.10172c-1.5909,-0.59783 -3.067,-1.18649 -4.78611,-1.27035c-0.19657,-0.00959 -4.56293,0.04889 -4.77978,-0.09234c-0.15355,-0.10001 -0.29574,-0.21249 -0.42902,-0.33477l-0.0499,0.05988l-1.35962,-1.13302c-0.35672,-0.29302 -0.58425,-0.73753 -0.58425,-1.23519c0,-0.38146 0.13369,-0.73171 0.35676,-1.00643c-1.06268,-0.49955 -2.07282,-1.41834 -2.14746,-1.62889c-0.25838,-0.72884 1.20782,-2.21999 2.37013,-3.0683h-1.49156c-0.88238,0 -1.59769,-0.71532 -1.59769,-1.5977c0,-0.81372 0.60832,-1.48536 1.395,-1.58496l1.16766,-0.16681c0.41171,-0.51108 0.53029,-1.26397 0.8013,-1.87317c-1.47426,-0.33159 -3.00365,-0.52059 -4.2651,-1.31491c-1.13859,-0.71695 -2.87838,-1.62259 -2.74307,-2.96128c0.13834,-1.36863 2.11394,-1.77895 3.2937,-2.48637c0.14421,-0.08648 0.32768,-0.17615 0.52754,-0.25498c-0.35908,-0.15955 -0.68788,-0.36383 -0.9403,-0.65421c-0.07191,-0.08273 -0.13949,-0.16832 -0.20331,-0.25639l-0.03211,0.02676l-1.13412,-1.36094c-0.23522,-0.27824 -0.37703,-0.638 -0.37703,-1.03088c0,-0.88238 0.71531,-1.5977 1.5977,-1.5977h2.05349c0.85507,0.00628 2.01351,0.6225 2.5651,-0.0309c0.90006,-1.06619 0.25516,-3.28944 1.50729,-3.90511c0.86162,-0.42365 1.87428,0.4421 2.8295,0.53915c2.35579,0.23935 4.37832,-0.07673 6.54179,0.26311c0.39389,0.40188 0.83915,0.75322 1.32514,1.04341c0.21105,0.21445 0.43676,0.41441 0.67551,0.59828c0.01301,0.4298 0.36552,0.77423 0.79847,0.77423c0.04577,0 0.09064,-0.00385 0.13431,-0.01125c-0.01449,0.04885 -0.03122,0.09876 -0.05035,0.14977c-0.56099,1.49597 -2.05696,0.93498 -2.05696,0.93498c-2.674,-1.05 -5.21005,0.03698 -7.93806,-0.60841c-0.37869,-0.08959 -0.4596,-0.6859 -0.82116,-0.82984c-0.22676,-0.09026 0.40515,0.40467 0.35089,0.64263c-0.22043,0.96673 -0.40401,2.07318 -1.12527,2.75358c-0.50494,0.47634 -1.23012,0.70111 -2.00179,0.80489c0.78833,0.83526 1.2983,1.94761 1.0787,2.81325c-0.0754,0.29724 -1.64694,1.42015 -3.11537,1.98038c0.46091,0.10411 0.91709,0.23116 1.36696,0.37176c1.12964,0.35305 2.20507,0.86057 3.30761,1.29086l0.15501,0.22091l0.0588,-0.07056l1.35963,1.13302c0.35672,0.29302 0.58425,0.73754 0.58425,1.2352c0,0.82932 -0.63186,1.51105 -1.44042,1.59006l-0.7333,0.08148c0.16026,0.4185 0.31556,0.95028 0.46285,1.61535c0.2758,1.24534 -0.59162,2.47162 -1.4171,3.55109c0.85036,-0.03643 1.77327,-0.04304 2.10509,0.62094c0.42606,0.85256 0.03877,1.8346 -0.28575,2.80666c3.03537,-0.06498 5.43166,0.41439 8.25774,1.4721l-0.10466,-0.10173c0,0 1.59769,0 1.59769,1.5977z" fill="url(#color-1)"/><path d="M216.22144,212.43405c0,1.59769 -1.5977,1.59769 -1.5977,1.59769l-1.01732,-0.10172c-1.5909,-0.59783 -3.067,-1.18649 -4.78611,-1.27035c-0.19657,-0.00959 -4.56293,0.04889 -4.77978,-0.09234c-0.15355,-0.10001 -0.29574,-0.21249 -0.42902,-0.33477l-0.0499,0.05988l-1.35962,-1.13302c-0.35672,-0.29302 -0.58425,-0.73753 -0.58425,-1.23519c0,-0.38146 0.13369,-0.73171 0.35676,-1.00643c-1.06268,-0.49955 -2.07282,-1.41834 -2.14746,-1.62889c-0.25838,-0.72884 1.20782,-2.21999 2.37013,-3.0683h-1.49156c-0.88238,0 -1.59769,-0.71532 -1.59769,-1.5977c0,-0.81372 0.60832,-1.48536 1.395,-1.58496l1.16766,-0.16681c0.41171,-0.51108 0.53029,-1.26397 0.8013,-1.87317c-1.47426,-0.33159 -3.00366,-0.52059 -4.26511,-1.31491c-1.13859,-0.71695 -2.87838,-1.62259 -2.74307,-2.96128c0.13834,-1.36863 2.11394,-1.77895 3.2937,-2.48637c0.14421,-0.08648 0.32768,-0.17615 0.52754,-0.25498c-0.35908,-0.15955 -0.68788,-0.36383 -0.9403,-0.65421c-0.07191,-0.08273 -0.13949,-0.16832 -0.20331,-0.25639l-0.03211,0.02676l-1.13412,-1.36094c-0.23522,-0.27824 -0.37703,-0.638 -0.37703,-1.03088c0,-0.88238 0.71531,-1.5977 1.59769,-1.5977h2.05349c0.85507,0.00628 2.01352,0.6225 2.56511,-0.0309c0.90006,-1.06619 0.25516,-3.28944 1.50728,-3.90511c0.86162,-0.42365 1.87428,0.4421 2.8295,0.53915c2.35579,0.23935 4.37832,-0.07673 6.54179,0.26311c0.39389,0.40188 0.83915,0.75322 1.32514,1.04341c0.21105,0.21445 0.43676,0.41441 0.67551,0.59828c0.01301,0.4298 0.36552,0.77423 0.79847,0.77423c0.04577,0 0.09065,-0.00385 0.13432,-0.01125c-0.01449,0.04885 -0.03122,0.09876 -0.05035,0.14977c-0.56099,1.49597 -2.05695,0.93498 -2.05695,0.93498c-2.674,-1.05 -5.21005,0.03698 -7.93806,-0.60841c-0.37869,-0.08959 -0.45961,-0.6859 -0.82116,-0.82984c-0.22676,-0.09026 0.40515,0.40467 0.35089,0.64263c-0.22043,0.96673 -0.40401,2.07318 -1.12527,2.75358c-0.50494,0.47634 -1.23012,0.70111 -2.00179,0.80489c0.78833,0.83526 1.29829,1.94761 1.0787,2.81325c-0.0754,0.29724 -1.64693,1.42015 -3.11536,1.98038c0.46091,0.10411 0.91709,0.23116 1.36695,0.37176c1.12964,0.35305 2.20507,0.86057 3.30761,1.29086l0.15501,0.22091l0.0588,-0.07056l1.35962,1.13302c0.35672,0.29302 0.58425,0.73754 0.58425,1.2352c0,0.82932 -0.63186,1.51105 -1.44042,1.59006l-0.7333,0.08148c0.16026,0.4185 0.31556,0.95028 0.46285,1.61535c0.2758,1.24534 -0.59162,2.47162 -1.4171,3.55109c0.85036,-0.03643 1.77327,-0.04304 2.10509,0.62094c0.42606,0.85256 0.03877,1.8346 -0.28575,2.80666c3.03537,-0.06498 5.43165,0.41439 8.25774,1.4721l-0.10466,-0.10173c0,0 1.5977,0 1.5977,1.5977z" fill="url(#color-2)"/><path d="M217.64952,212.43405c0,1.59769 -1.59769,1.59769 -1.59769,1.59769l-1.01732,-0.10172c-1.5909,-0.59783 -3.067,-1.18649 -4.78611,-1.27035c-0.19657,-0.00959 -4.56292,0.04889 -4.77977,-0.09234c-0.15355,-0.10001 -0.29574,-0.21249 -0.42902,-0.33477l-0.0499,0.05988l-1.35963,-1.13302c-0.35672,-0.29302 -0.58425,-0.73753 -0.58425,-1.23519c0,-0.38146 0.13369,-0.73171 0.35676,-1.00643c-1.06268,-0.49955 -2.07282,-1.41834 -2.14746,-1.62889c-0.25838,-0.72884 1.20782,-2.21999 2.37013,-3.0683h-1.49156c-0.88238,0 -1.59769,-0.71532 -1.59769,-1.5977c0,-0.81372 0.60832,-1.48536 1.395,-1.58496l1.16766,-0.16681c0.41171,-0.51108 0.53029,-1.26397 0.8013,-1.87317c-1.47426,-0.33159 -3.00366,-0.52059 -4.26511,-1.31491c-1.13859,-0.71695 -2.87837,-1.62259 -2.74306,-2.96128c0.13834,-1.36863 2.11394,-1.77895 3.2937,-2.48637c0.14421,-0.08648 0.32769,-0.17615 0.52754,-0.25498c-0.35908,-0.15955 -0.68788,-0.36383 -0.9403,-0.65421c-0.07191,-0.08273 -0.13949,-0.16832 -0.20331,-0.25639l-0.03211,0.02676l-1.13412,-1.36094c-0.23522,-0.27824 -0.37703,-0.638 -0.37703,-1.03088c0,-0.88238 0.71531,-1.5977 1.5977,-1.5977h2.05349c0.85507,0.00628 2.01351,0.6225 2.5651,-0.0309c0.90006,-1.06619 0.25516,-3.28944 1.50728,-3.90511c0.86162,-0.42365 1.87428,0.4421 2.8295,0.53915c2.35579,0.23935 4.37832,-0.07673 6.54179,0.26311c0.39389,0.40188 0.83915,0.75322 1.32514,1.04341c0.21105,0.21445 0.43676,0.41441 0.67551,0.59828c0.01301,0.4298 0.36552,0.77423 0.79847,0.77423c0.04577,0 0.09064,-0.00385 0.13431,-0.01125c-0.01449,0.04885 -0.03122,0.09876 -0.05035,0.14977c-0.56099,1.49597 -2.05695,0.93498 -2.05695,0.93498c-2.674,-1.05 -5.21005,0.03698 -7.93806,-0.60841c-0.37869,-0.08959 -0.4596,-0.6859 -0.82116,-0.82984c-0.22676,-0.09026 0.40515,0.40467 0.35089,0.64263c-0.22043,0.96673 -0.40401,2.07318 -1.12527,2.75358c-0.50494,0.47634 -1.23012,0.70111 -2.00179,0.80489c0.78833,0.83526 1.29829,1.94761 1.0787,2.81325c-0.0754,0.29724 -1.64693,1.42015 -3.11536,1.98038c0.46091,0.10411 0.91709,0.23116 1.36696,0.37176c1.12964,0.35305 2.20507,0.86057 3.30761,1.29086l0.15501,0.22091l0.0588,-0.07056l1.35962,1.13302c0.35672,0.29302 0.58425,0.73754 0.58425,1.2352c0,0.82932 -0.63186,1.51105 -1.44042,1.59006l-0.7333,0.08148c0.16026,0.4185 0.31556,0.95028 0.46285,1.61535c0.2758,1.24534 -0.59162,2.47162 -1.4171,3.55109c0.85036,-0.03643 1.77327,-0.04304 2.10509,0.62094c0.42606,0.85256 0.03877,1.8346 -0.28575,2.80666c3.03537,-0.06498 5.43166,0.41439 8.25774,1.4721l-0.10466,-0.10173c0,0 1.59769,0 1.59769,1.5977z" fill="url(#color-3)"/><path d="M219.43465,212.43405c0,1.59769 -1.5977,1.59769 -1.5977,1.59769l-1.01732,-0.10172c-1.5909,-0.59783 -3.067,-1.18649 -4.78611,-1.27035c-0.19657,-0.00959 -4.56293,0.04889 -4.77978,-0.09234c-0.15355,-0.10001 -0.29574,-0.21249 -0.42902,-0.33477l-0.0499,0.05988l-1.35962,-1.13302c-0.35672,-0.29302 -0.58425,-0.73753 -0.58425,-1.23519c0,-0.38146 0.13368,-0.73171 0.35676,-1.00643c-1.06268,-0.49955 -2.07282,-1.41834 -2.14746,-1.62889c-0.25838,-0.72884 1.20782,-2.21999 2.37013,-3.0683h-1.49156c-0.88238,0 -1.59769,-0.71532 -1.59769,-1.5977c0,-0.81372 0.60832,-1.48536 1.395,-1.58496l1.16766,-0.16681c0.41171,-0.51108 0.53029,-1.26397 0.8013,-1.87317c-1.47426,-0.33159 -3.00366,-0.52059 -4.26511,-1.31491c-1.13859,-0.71695 -2.87838,-1.62259 -2.74307,-2.96128c0.13834,-1.36863 2.11394,-1.77895 3.2937,-2.48637c0.14421,-0.08648 0.32768,-0.17615 0.52754,-0.25498c-0.35908,-0.15955 -0.68788,-0.36383 -0.9403,-0.65421c-0.07191,-0.08273 -0.13949,-0.16832 -0.20331,-0.25639l-0.03211,0.02676l-1.13412,-1.36094c-0.23522,-0.27824 -0.37703,-0.638 -0.37703,-1.03088c0,-0.88238 0.71531,-1.5977 1.59769,-1.5977h2.05349c0.85507,0.00628 2.01352,0.6225 2.56511,-0.0309c0.90006,-1.06619 0.25516,-3.28944 1.50728,-3.90511c0.86162,-0.42365 1.87428,0.4421 2.8295,0.53915c2.35579,0.23935 4.37832,-0.07673 6.54179,0.26311c0.39389,0.40188 0.83915,0.75322 1.32514,1.04341c0.21105,0.21445 0.43676,0.41441 0.67551,0.59828c0.01301,0.4298 0.36552,0.77423 0.79847,0.77423c0.04577,0 0.09065,-0.00385 0.13432,-0.01125c-0.01449,0.04885 -0.03122,0.09876 -0.05035,0.14977c-0.56099,1.49597 -2.05696,0.93498 -2.05696,0.93498c-2.674,-1.05 -5.21004,0.03698 -7.93806,-0.60841c-0.37869,-0.08959 -0.45961,-0.6859 -0.82116,-0.82984c-0.22676,-0.09026 0.40515,0.40467 0.35089,0.64263c-0.22043,0.96673 -0.40401,2.07318 -1.12527,2.75358c-0.50494,0.47634 -1.23012,0.70111 -2.00179,0.80489c0.78833,0.83526 1.29829,1.94761 1.0787,2.81325c-0.0754,0.29724 -1.64693,1.42015 -3.11536,1.98038c0.46091,0.10411 0.91709,0.23116 1.36695,0.37176c1.12964,0.35305 2.20507,0.86057 3.30761,1.29086l0.15501,0.22091l0.0588,-0.07056l1.35962,1.13302c0.35672,0.29302 0.58425,0.73754 0.58425,1.2352c0,0.82932 -0.63186,1.51105 -1.44042,1.59006l-0.7333,0.08148c0.16026,0.4185 0.31556,0.95028 0.46285,1.61535c0.2758,1.24534 -0.59162,2.47162 -1.4171,3.55109c0.85036,-0.03643 1.77327,-0.04304 2.10508,0.62094c0.42606,0.85256 0.03877,1.8346 -0.28575,2.80666c3.03537,-0.06498 5.43165,0.41439 8.25774,1.4721l-0.10466,-0.10173c0,0 1.5977,0 1.5977,1.5977z" fill="url(#color-4)"/><path d="M221.21976,212.43404c0,1.59769 -1.5977,1.59769 -1.5977,1.59769l-1.01732,-0.10172c-1.5909,-0.59783 -3.067,-1.18649 -4.78611,-1.27035c-0.19657,-0.00959 -4.56293,0.04889 -4.77978,-0.09234c-0.15355,-0.10001 -0.29574,-0.21249 -0.42902,-0.33477l-0.0499,0.05988l-1.35962,-1.13302c-0.35672,-0.29302 -0.58425,-0.73753 -0.58425,-1.23519c0,-0.38146 0.13369,-0.73171 0.35676,-1.00643c-1.06268,-0.49955 -2.07282,-1.41834 -2.14746,-1.62889c-0.25838,-0.72884 1.20782,-2.21999 2.37013,-3.0683h-1.49156c-0.88238,0 -1.5977,-0.71532 -1.5977,-1.5977c0,-0.81372 0.60832,-1.48536 1.395,-1.58496l1.16766,-0.16681c0.41171,-0.51108 0.53029,-1.26397 0.8013,-1.87317c-1.47426,-0.33159 -3.00366,-0.52059 -4.26511,-1.31491c-1.13859,-0.71695 -2.87838,-1.62259 -2.74307,-2.96128c0.13834,-1.36863 2.11394,-1.77895 3.2937,-2.48637c0.14421,-0.08648 0.32769,-0.17615 0.52754,-0.25498c-0.35908,-0.15955 -0.68788,-0.36383 -0.9403,-0.65421c-0.07191,-0.08273 -0.13949,-0.16832 -0.20331,-0.25639l-0.03211,0.02676l-1.13412,-1.36094c-0.23522,-0.27824 -0.37703,-0.638 -0.37703,-1.03088c0,-0.88238 0.71531,-1.5977 1.59769,-1.5977h2.0535c0.85507,0.00628 2.01351,0.6225 2.5651,-0.0309c0.90006,-1.06619 0.25516,-3.28944 1.50728,-3.90511c0.86162,-0.42365 1.87428,0.4421 2.8295,0.53915c2.35579,0.23935 4.37832,-0.07673 6.54179,0.26311c0.39389,0.40188 0.83914,0.75322 1.32514,1.04341c0.21105,0.21445 0.43676,0.41441 0.67551,0.59828c0.01301,0.4298 0.36552,0.77423 0.79847,0.77423c0.04577,0 0.09065,-0.00385 0.13432,-0.01125c-0.01449,0.04885 -0.03122,0.09876 -0.05035,0.14977c-0.56099,1.49597 -2.05695,0.93498 -2.05695,0.93498c-2.674,-1.05 -5.21005,0.03698 -7.93806,-0.60841c-0.37869,-0.08959 -0.4596,-0.6859 -0.82116,-0.82984c-0.22676,-0.09026 0.40515,0.40467 0.35089,0.64263c-0.22043,0.96673 -0.40401,2.07318 -1.12527,2.75358c-0.50494,0.47634 -1.23012,0.70111 -2.00179,0.80489c0.78833,0.83526 1.29829,1.94761 1.0787,2.81325c-0.0754,0.29724 -1.64693,1.42015 -3.11536,1.98038c0.46091,0.10411 0.91709,0.23116 1.36695,0.37176c1.12964,0.35305 2.20507,0.86057 3.30761,1.29086l0.15502,0.22091l0.0588,-0.07056l1.35962,1.13302c0.35672,0.29302 0.58425,0.73754 0.58425,1.2352c0,0.82932 -0.63186,1.51105 -1.44042,1.59006l-0.7333,0.08148c0.16026,0.4185 0.31557,0.95028 0.46286,1.61535c0.2758,1.24534 -0.59162,2.47162 -1.4171,3.55109c0.85036,-0.03643 1.77327,-0.04304 2.10509,0.62094c0.42606,0.85256 0.03877,1.8346 -0.28575,2.80666c3.03537,-0.06498 5.43166,0.41439 8.25774,1.4721l-0.10466,-0.10173c0,0 1.5977,0 1.5977,1.5977z" fill="url(#color-5)"/><path d="M223.00488,212.43404c0,1.59769 -1.59769,1.59769 -1.59769,1.59769l-1.01732,-0.10172c-1.5909,-0.59783 -3.067,-1.18649 -4.78611,-1.27035c-0.19657,-0.00959 -4.56292,0.04889 -4.77977,-0.09234c-0.15355,-0.10001 -0.29574,-0.21249 -0.42902,-0.33477l-0.0499,0.05988l-1.35963,-1.13302c-0.35672,-0.29302 -0.58425,-0.73753 -0.58425,-1.23519c0,-0.38146 0.13369,-0.73171 0.35676,-1.00643c-1.06268,-0.49955 -2.07282,-1.41834 -2.14746,-1.62889c-0.25838,-0.72884 1.20782,-2.21999 2.37013,-3.0683h-1.49156c-0.88238,0 -1.59769,-0.71532 -1.59769,-1.5977c0,-0.81372 0.60832,-1.48536 1.395,-1.58496l1.16766,-0.16681c0.41171,-0.51108 0.53029,-1.26397 0.8013,-1.87317c-1.47426,-0.33159 -3.00366,-0.52059 -4.26511,-1.31491c-1.13859,-0.71695 -2.87837,-1.62259 -2.74306,-2.96128c0.13834,-1.36863 2.11394,-1.77895 3.2937,-2.48637c0.14421,-0.08648 0.32768,-0.17615 0.52754,-0.25498c-0.35908,-0.15955 -0.68788,-0.36383 -0.9403,-0.65421c-0.07191,-0.08273 -0.13949,-0.16832 -0.20331,-0.25639l-0.03211,0.02676l-1.13412,-1.36094c-0.23522,-0.27824 -0.37703,-0.638 -0.37703,-1.03088c0,-0.88238 0.71531,-1.5977 1.5977,-1.5977h2.05349c0.85507,0.00628 2.01351,0.6225 2.5651,-0.0309c0.90006,-1.06619 0.25516,-3.28944 1.50728,-3.90511c0.86162,-0.42365 1.87428,0.4421 2.8295,0.53915c2.35579,0.23935 4.37832,-0.07673 6.54179,0.26311c0.39389,0.40188 0.83915,0.75322 1.32514,1.04341c0.21105,0.21445 0.43676,0.41441 0.67551,0.59828c0.01301,0.4298 0.36552,0.77423 0.79847,0.77423c0.04577,0 0.09064,-0.00385 0.13431,-0.01125c-0.01449,0.04885 -0.03122,0.09876 -0.05035,0.14977c-0.56099,1.49597 -2.05695,0.93498 -2.05695,0.93498c-2.674,-1.05 -5.21005,0.03698 -7.93806,-0.60841c-0.37869,-0.08959 -0.4596,-0.6859 -0.82116,-0.82984c-0.22676,-0.09026 0.40515,0.40467 0.35089,0.64263c-0.22043,0.96673 -0.40401,2.07318 -1.12527,2.75358c-0.50494,0.47634 -1.23012,0.70111 -2.00179,0.80489c0.78833,0.83526 1.29829,1.94761 1.0787,2.81325c-0.0754,0.29724 -1.64693,1.42015 -3.11536,1.98038c0.46091,0.10411 0.91709,0.23116 1.36696,0.37176c1.12964,0.35305 2.20507,0.86057 3.30761,1.29086l0.15501,0.22091l0.0588,-0.07056l1.35962,1.13302c0.35672,0.29302 0.58425,0.73754 0.58425,1.2352c0,0.82932 -0.63186,1.51105 -1.44042,1.59006l-0.7333,0.08148c0.16026,0.4185 0.31556,0.95028 0.46285,1.61535c0.2758,1.24534 -0.59162,2.47162 -1.4171,3.55109c0.85036,-0.03643 1.77327,-0.04304 2.10509,0.62094c0.42606,0.85256 0.03877,1.8346 -0.28575,2.80666c3.03537,-0.06498 5.43166,0.41439 8.25774,1.4721l-0.10466,-0.10173c0,0 1.59769,0 1.59769,1.5977z" fill="url(#color-6)"/><path d="M224.78999,212.43405c0,1.59769 -1.5977,1.59769 -1.5977,1.59769l-1.01732,-0.10172c-1.5909,-0.59783 -3.067,-1.18649 -4.78611,-1.27035c-0.19657,-0.00959 -4.56293,0.04889 -4.77978,-0.09234c-0.15355,-0.10001 -0.29574,-0.21249 -0.42902,-0.33477l-0.0499,0.05988l-1.35962,-1.13302c-0.35672,-0.29302 -0.58425,-0.73753 -0.58425,-1.23519c0,-0.38146 0.13368,-0.73171 0.35676,-1.00643c-1.06268,-0.49955 -2.07282,-1.41834 -2.14746,-1.62889c-0.25838,-0.72884 1.20782,-2.21999 2.37013,-3.0683h-1.49156c-0.88238,0 -1.59769,-0.71532 -1.59769,-1.5977c0,-0.81372 0.60832,-1.48536 1.395,-1.58496l1.16766,-0.16681c0.41171,-0.51108 0.53029,-1.26397 0.8013,-1.87317c-1.47426,-0.33159 -3.00366,-0.52059 -4.26511,-1.31491c-1.13859,-0.71695 -2.87838,-1.62259 -2.74307,-2.96128c0.13834,-1.36863 2.11394,-1.77895 3.2937,-2.48637c0.14421,-0.08648 0.32768,-0.17615 0.52754,-0.25498c-0.35908,-0.15955 -0.68788,-0.36383 -0.9403,-0.65421c-0.07191,-0.08273 -0.13949,-0.16832 -0.20331,-0.25639l-0.03211,0.02676l-1.13412,-1.36094c-0.23522,-0.27824 -0.37703,-0.638 -0.37703,-1.03088c0,-0.88238 0.71531,-1.5977 1.59769,-1.5977h2.05349c0.85507,0.00628 2.01352,0.6225 2.56511,-0.0309c0.90006,-1.06619 0.25516,-3.28944 1.50728,-3.90511c0.86162,-0.42365 1.87428,0.4421 2.8295,0.53915c2.35579,0.23935 4.37832,-0.07673 6.54179,0.26311c0.39389,0.40188 0.83915,0.75322 1.32514,1.04341c0.21105,0.21445 0.43676,0.41441 0.67551,0.59828c0.01301,0.4298 0.36552,0.77423 0.79847,0.77423c0.04577,0 0.09065,-0.00385 0.13432,-0.01125c-0.01449,0.04885 -0.03122,0.09876 -0.05035,0.14977c-0.56099,1.49597 -2.05696,0.93498 -2.05696,0.93498c-2.674,-1.05 -5.21004,0.03698 -7.93806,-0.60841c-0.37869,-0.08959 -0.45961,-0.6859 -0.82116,-0.82984c-0.22676,-0.09026 0.40515,0.40467 0.35089,0.64263c-0.22043,0.96673 -0.40401,2.07318 -1.12527,2.75358c-0.50494,0.47634 -1.23012,0.70111 -2.00179,0.80489c0.78833,0.83526 1.29829,1.94761 1.0787,2.81325c-0.0754,0.29724 -1.64693,1.42015 -3.11536,1.98038c0.46091,0.10411 0.91709,0.23116 1.36695,0.37176c1.12964,0.35305 2.20507,0.86057 3.30761,1.29086l0.15501,0.22091l0.0588,-0.07056l1.35962,1.13302c0.35672,0.29302 0.58425,0.73754 0.58425,1.2352c0,0.82932 -0.63186,1.51105 -1.44042,1.59006l-0.7333,0.08148c0.16026,0.4185 0.31556,0.95028 0.46285,1.61535c0.2758,1.24534 -0.59162,2.47162 -1.4171,3.55109c0.85036,-0.03643 1.77327,-0.04304 2.10508,0.62094c0.42606,0.85256 0.03877,1.8346 -0.28575,2.80666c3.03537,-0.06498 5.43165,0.41439 8.25774,1.4721l-0.10466,-0.10173c0,0 1.5977,0 1.5977,1.5977z" fill="url(#color-7)"/></g><path d="M240.82394,198.71578l-25.9712,21.68692v-43.37384z" fill="#ff7166" stroke="#ffffff" stroke-width="1.5"/><g stroke="none" stroke-width="0.5"><path d="M209.59445,148.7677c-0.48923,-0.50471 -1.3669,-1.73463 -0.22844,-3.25258c0.5584,-0.74454 1.1861,-1.00403 1.75412,-1.03643c0.04248,-0.47906 0.19922,-0.97924 0.37748,-1.39592c-0.69456,0.12853 -2.1951,0.17468 -2.83073,-1.60509c-0.84084,-2.35435 1.51351,-3.1952 1.51351,-3.1952c1.46567,-0.24371 3.11769,-1.48671 4.39701,-0.73111c3.71482,2.19411 1.61306,4.74238 1.52695,7.33833c-0.02231,0.67283 0.63871,4.85539 0.68673,5.57995c0.18212,2.74796 0.00546,5.58706 0.00441,8.34114l-0.0315,0.07171l0.02826,0.00166l-0.17137,2.91327c-0.06739,1.32052 -1.15942,2.37049 -2.4967,2.37049c-1.1246,0 -2.07576,-0.74256 -2.38994,-1.76412l-1.01609,-3.04826l0.06735,-0.02245c-0.05194,-0.09737 -0.10217,-0.1958 -0.15053,-0.29535c-0.4634,-0.9539 -0.10988,-2.11872 -0.20703,-3.17476c-0.22553,-2.45149 -0.69525,-4.6869 -0.83349,-7.09529z" fill="#ff4200"/><path d="M214.43631,165.74982c0,1.59769 -1.59769,1.5977 -1.59769,1.5977l-1.01732,-0.10173c-1.5909,-0.59784 -3.067,-1.18649 -4.78611,-1.27035c-0.19657,-0.00959 -4.56293,0.04889 -4.77978,-0.09234c-0.15355,-0.10001 -0.29574,-0.21249 -0.42902,-0.33477l-0.0499,0.05989l-1.35962,-1.13302c-0.35672,-0.29302 -0.58425,-0.73754 -0.58425,-1.2352c0,-0.38146 0.13369,-0.73171 0.35676,-1.00643c-1.06268,-0.49955 -2.07282,-1.41834 -2.14746,-1.62889c-0.25838,-0.72884 1.20782,-2.21999 2.37013,-3.0683h-1.49156c-0.88238,0 -1.59769,-0.71532 -1.59769,-1.5977c0,-0.81372 0.60832,-1.48537 1.395,-1.58497l1.16766,-0.1668c0.41171,-0.51108 0.53029,-1.26397 0.8013,-1.87317c-1.47426,-0.33158 -3.00365,-0.52059 -4.2651,-1.31492c-1.13859,-0.71696 -2.87838,-1.62259 -2.74307,-2.96128c0.13834,-1.36863 2.11394,-1.77895 3.2937,-2.48637c0.14421,-0.08648 0.32768,-0.17615 0.52754,-0.25498c-0.35908,-0.15955 -0.68788,-0.36383 -0.9403,-0.65421c-0.07191,-0.08273 -0.13949,-0.16832 -0.20331,-0.25639l-0.03211,0.02676l-1.13412,-1.36094c-0.23522,-0.27824 -0.37703,-0.638 -0.37703,-1.03088c0,-0.88238 0.71531,-1.5977 1.5977,-1.5977h2.05349c0.85507,0.00628 2.01351,0.6225 2.5651,-0.0309c0.90006,-1.06619 0.25516,-3.28944 1.50729,-3.90511c0.86162,-0.42365 1.87428,0.4421 2.8295,0.53915c2.35579,0.23935 4.37832,-0.07673 6.54179,0.26311c0.39389,0.40188 0.83915,0.75322 1.32514,1.04341c0.21105,0.21445 0.43676,0.41441 0.67551,0.59828c0.01301,0.4298 0.36552,0.77423 0.79847,0.77423c0.04577,0 0.09064,-0.00385 0.13431,-0.01125c-0.01449,0.04885 -0.03122,0.09876 -0.05035,0.14977c-0.56099,1.49597 -2.05696,0.93498 -2.05696,0.93498c-2.674,-1.05 -5.21005,0.03697 -7.93806,-0.60841c-0.37869,-0.08959 -0.4596,-0.6859 -0.82116,-0.82984c-0.22676,-0.09026 0.40515,0.40467 0.35089,0.64263c-0.22043,0.96673 -0.40401,2.07318 -1.12527,2.75358c-0.50494,0.47634 -1.23012,0.70111 -2.00179,0.80489c0.78833,0.83526 1.2983,1.94761 1.0787,2.81326c-0.0754,0.29725 -1.64694,1.42014 -3.11537,1.98038c0.46091,0.10411 0.91709,0.23117 1.36696,0.37176c1.12964,0.35306 2.20507,0.86057 3.30761,1.29085l0.15501,0.22091l0.0588,-0.07056l1.35963,1.13302c0.35672,0.29302 0.58425,0.73754 0.58425,1.2352c0,0.82932 -0.63186,1.51105 -1.44042,1.59006l-0.7333,0.08148c0.16026,0.4185 0.31556,0.95028 0.46285,1.61535c0.2758,1.24534 -0.59162,2.47162 -1.4171,3.55109c0.85036,-0.03644 1.77327,-0.04304 2.10509,0.62094c0.42606,0.85256 0.03877,1.8346 -0.28575,2.80666c3.03537,-0.06498 5.43166,0.41439 8.25774,1.4721l-0.10466,-0.10173c0,0 1.59769,0 1.59769,1.5977z" fill="url(#color-8)"/><path d="M216.22144,165.74982c0,1.59769 -1.5977,1.5977 -1.5977,1.5977l-1.01732,-0.10173c-1.5909,-0.59784 -3.067,-1.18649 -4.78611,-1.27035c-0.19657,-0.00959 -4.56293,0.04889 -4.77978,-0.09234c-0.15355,-0.10001 -0.29574,-0.21249 -0.42902,-0.33477l-0.0499,0.05989l-1.35962,-1.13302c-0.35672,-0.29302 -0.58425,-0.73754 -0.58425,-1.2352c0,-0.38146 0.13369,-0.73171 0.35676,-1.00643c-1.06268,-0.49955 -2.07282,-1.41834 -2.14746,-1.62889c-0.25838,-0.72884 1.20782,-2.21999 2.37013,-3.0683h-1.49156c-0.88238,0 -1.59769,-0.71532 -1.59769,-1.5977c0,-0.81372 0.60832,-1.48537 1.395,-1.58497l1.16766,-0.1668c0.41171,-0.51108 0.53029,-1.26397 0.8013,-1.87317c-1.47426,-0.33158 -3.00366,-0.52059 -4.26511,-1.31492c-1.13859,-0.71696 -2.87838,-1.62259 -2.74307,-2.96128c0.13834,-1.36863 2.11394,-1.77895 3.2937,-2.48637c0.14421,-0.08648 0.32768,-0.17615 0.52754,-0.25498c-0.35908,-0.15955 -0.68788,-0.36383 -0.9403,-0.65421c-0.07191,-0.08273 -0.13949,-0.16832 -0.20331,-0.25639l-0.03211,0.02676l-1.13412,-1.36094c-0.23522,-0.27824 -0.37703,-0.638 -0.37703,-1.03088c0,-0.88238 0.71531,-1.5977 1.59769,-1.5977h2.05349c0.85507,0.00628 2.01352,0.6225 2.56511,-0.0309c0.90006,-1.06619 0.25516,-3.28944 1.50728,-3.90511c0.86162,-0.42365 1.87428,0.4421 2.8295,0.53915c2.35579,0.23935 4.37832,-0.07673 6.54179,0.26311c0.39389,0.40188 0.83915,0.75322 1.32514,1.04341c0.21105,0.21445 0.43676,0.41441 0.67551,0.59828c0.01301,0.4298 0.36552,0.77423 0.79847,0.77423c0.04577,0 0.09065,-0.00385 0.13432,-0.01125c-0.01449,0.04885 -0.03122,0.09876 -0.05035,0.14977c-0.56099,1.49597 -2.05695,0.93498 -2.05695,0.93498c-2.674,-1.05 -5.21005,0.03697 -7.93806,-0.60841c-0.37869,-0.08959 -0.45961,-0.6859 -0.82116,-0.82984c-0.22676,-0.09026 0.40515,0.40467 0.35089,0.64263c-0.22043,0.96673 -0.40401,2.07318 -1.12527,2.75358c-0.50494,0.47634 -1.23012,0.70111 -2.00179,0.80489c0.78833,0.83526 1.29829,1.94761 1.0787,2.81326c-0.0754,0.29725 -1.64693,1.42014 -3.11536,1.98038c0.46091,0.10411 0.91709,0.23117 1.36695,0.37176c1.12964,0.35306 2.20507,0.86057 3.30761,1.29085l0.15501,0.22091l0.0588,-0.07056l1.35962,1.13302c0.35672,0.29302 0.58425,0.73754 0.58425,1.2352c0,0.82932 -0.63186,1.51105 -1.44042,1.59006l-0.7333,0.08148c0.16026,0.4185 0.31556,0.95028 0.46285,1.61535c0.2758,1.24534 -0.59162,2.47162 -1.4171,3.55109c0.85036,-0.03644 1.77327,-0.04304 2.10509,0.62094c0.42606,0.85256 0.03877,1.8346 -0.28575,2.80666c3.03537,-0.06498 5.43165,0.41439 8.25774,1.4721l-0.10466,-0.10173c0,0 1.5977,0 1.5977,1.5977z" fill="url(#color-9)"/><path d="M217.64952,165.74982c0,1.59769 -1.59769,1.5977 -1.59769,1.5977l-1.01732,-0.10173c-1.5909,-0.59784 -3.067,-1.18649 -4.78611,-1.27035c-0.19657,-0.00959 -4.56292,0.04889 -4.77977,-0.09234c-0.15355,-0.10001 -0.29574,-0.21249 -0.42902,-0.33477l-0.0499,0.05989l-1.35963,-1.13302c-0.35672,-0.29302 -0.58425,-0.73754 -0.58425,-1.2352c0,-0.38146 0.13369,-0.73171 0.35676,-1.00643c-1.06268,-0.49955 -2.07282,-1.41834 -2.14746,-1.62889c-0.25838,-0.72884 1.20782,-2.21999 2.37013,-3.0683h-1.49156c-0.88238,0 -1.59769,-0.71532 -1.59769,-1.5977c0,-0.81372 0.60832,-1.48537 1.395,-1.58497l1.16766,-0.1668c0.41171,-0.51108 0.53029,-1.26397 0.8013,-1.87317c-1.47426,-0.33158 -3.00366,-0.52059 -4.26511,-1.31492c-1.13859,-0.71696 -2.87837,-1.62259 -2.74306,-2.96128c0.13834,-1.36863 2.11394,-1.77895 3.2937,-2.48637c0.14421,-0.08648 0.32769,-0.17615 0.52754,-0.25498c-0.35908,-0.15955 -0.68788,-0.36383 -0.9403,-0.65421c-0.07191,-0.08273 -0.13949,-0.16832 -0.20331,-0.25639l-0.03211,0.02676l-1.13412,-1.36094c-0.23522,-0.27824 -0.37703,-0.638 -0.37703,-1.03088c0,-0.88238 0.71531,-1.5977 1.5977,-1.5977h2.05349c0.85507,0.00628 2.01351,0.6225 2.5651,-0.0309c0.90006,-1.06619 0.25516,-3.28944 1.50728,-3.90511c0.86162,-0.42365 1.87428,0.4421 2.8295,0.53915c2.35579,0.23935 4.37832,-0.07673 6.54179,0.26311c0.39389,0.40188 0.83915,0.75322 1.32514,1.04341c0.21105,0.21445 0.43676,0.41441 0.67551,0.59828c0.01301,0.4298 0.36552,0.77423 0.79847,0.77423c0.04577,0 0.09064,-0.00385 0.13431,-0.01125c-0.01449,0.04885 -0.03122,0.09876 -0.05035,0.14977c-0.56099,1.49597 -2.05695,0.93498 -2.05695,0.93498c-2.674,-1.05 -5.21005,0.03697 -7.93806,-0.60841c-0.37869,-0.08959 -0.4596,-0.6859 -0.82116,-0.82984c-0.22676,-0.09026 0.40515,0.40467 0.35089,0.64263c-0.22043,0.96673 -0.40401,2.07318 -1.12527,2.75358c-0.50494,0.47634 -1.23012,0.70111 -2.00179,0.80489c0.78833,0.83526 1.29829,1.94761 1.0787,2.81326c-0.0754,0.29725 -1.64693,1.42014 -3.11536,1.98038c0.46091,0.10411 0.91709,0.23117 1.36696,0.37176c1.12964,0.35306 2.20507,0.86057 3.30761,1.29085l0.15501,0.22091l0.0588,-0.07056l1.35962,1.13302c0.35672,0.29302 0.58425,0.73754 0.58425,1.2352c0,0.82932 -0.63186,1.51105 -1.44042,1.59006l-0.7333,0.08148c0.16026,0.4185 0.31556,0.95028 0.46285,1.61535c0.2758,1.24534 -0.59162,2.47162 -1.4171,3.55109c0.85036,-0.03644 1.77327,-0.04304 2.10509,0.62094c0.42606,0.85256 0.03877,1.8346 -0.28575,2.80666c3.03537,-0.06498 5.43166,0.41439 8.25774,1.4721l-0.10466,-0.10173c0,0 1.59769,0 1.59769,1.5977z" fill="url(#color-10)"/><path d="M219.43465,165.74982c0,1.59769 -1.5977,1.5977 -1.5977,1.5977l-1.01732,-0.10173c-1.5909,-0.59784 -3.067,-1.18649 -4.78611,-1.27035c-0.19657,-0.00959 -4.56293,0.04889 -4.77978,-0.09234c-0.15355,-0.10001 -0.29574,-0.21249 -0.42902,-0.33477l-0.0499,0.05989l-1.35962,-1.13302c-0.35672,-0.29302 -0.58425,-0.73754 -0.58425,-1.2352c0,-0.38146 0.13368,-0.73171 0.35676,-1.00643c-1.06268,-0.49955 -2.07282,-1.41834 -2.14746,-1.62889c-0.25838,-0.72884 1.20782,-2.21999 2.37013,-3.0683h-1.49156c-0.88238,0 -1.59769,-0.71532 -1.59769,-1.5977c0,-0.81372 0.60832,-1.48537 1.395,-1.58497l1.16766,-0.1668c0.41171,-0.51108 0.53029,-1.26397 0.8013,-1.87317c-1.47426,-0.33158 -3.00366,-0.52059 -4.26511,-1.31492c-1.13859,-0.71696 -2.87838,-1.62259 -2.74307,-2.96128c0.13834,-1.36863 2.11394,-1.77895 3.2937,-2.48637c0.14421,-0.08648 0.32768,-0.17615 0.52754,-0.25498c-0.35908,-0.15955 -0.68788,-0.36383 -0.9403,-0.65421c-0.07191,-0.08273 -0.13949,-0.16832 -0.20331,-0.25639l-0.03211,0.02676l-1.13412,-1.36094c-0.23522,-0.27824 -0.37703,-0.638 -0.37703,-1.03088c0,-0.88238 0.71531,-1.5977 1.59769,-1.5977h2.05349c0.85507,0.00628 2.01352,0.6225 2.56511,-0.0309c0.90006,-1.06619 0.25516,-3.28944 1.50728,-3.90511c0.86162,-0.42365 1.87428,0.4421 2.8295,0.53915c2.35579,0.23935 4.37832,-0.07673 6.54179,0.26311c0.39389,0.40188 0.83915,0.75322 1.32514,1.04341c0.21105,0.21445 0.43676,0.41441 0.67551,0.59828c0.01301,0.4298 0.36552,0.77423 0.79847,0.77423c0.04577,0 0.09065,-0.00385 0.13432,-0.01125c-0.01449,0.04885 -0.03122,0.09876 -0.05035,0.14977c-0.56099,1.49597 -2.05696,0.93498 -2.05696,0.93498c-2.674,-1.05 -5.21004,0.03697 -7.93806,-0.60841c-0.37869,-0.08959 -0.45961,-0.6859 -0.82116,-0.82984c-0.22676,-0.09026 0.40515,0.40467 0.35089,0.64263c-0.22043,0.96673 -0.40401,2.07318 -1.12527,2.75358c-0.50494,0.47634 -1.23012,0.70111 -2.00179,0.80489c0.78833,0.83526 1.29829,1.94761 1.0787,2.81326c-0.0754,0.29725 -1.64693,1.42014 -3.11536,1.98038c0.46091,0.10411 0.91709,0.23117 1.36695,0.37176c1.12964,0.35306 2.20507,0.86057 3.30761,1.29085l0.15501,0.22091l0.0588,-0.07056l1.35962,1.13302c0.35672,0.29302 0.58425,0.73754 0.58425,1.2352c0,0.82932 -0.63186,1.51105 -1.44042,1.59006l-0.7333,0.08148c0.16026,0.4185 0.31556,0.95028 0.46285,1.61535c0.2758,1.24534 -0.59162,2.47162 -1.4171,3.55109c0.85036,-0.03644 1.77327,-0.04304 2.10508,0.62094c0.42606,0.85256 0.03877,1.8346 -0.28575,2.80666c3.03537,-0.06498 5.43165,0.41439 8.25774,1.4721l-0.10466,-0.10173c0,0 1.5977,0 1.5977,1.5977z" fill="url(#color-11)"/><path d="M221.21976,165.74982c0,1.59769 -1.5977,1.5977 -1.5977,1.5977l-1.01732,-0.10173c-1.5909,-0.59784 -3.067,-1.18649 -4.78611,-1.27035c-0.19657,-0.00959 -4.56293,0.04889 -4.77978,-0.09234c-0.15355,-0.10001 -0.29574,-0.21249 -0.42902,-0.33477l-0.0499,0.05989l-1.35962,-1.13302c-0.35672,-0.29302 -0.58425,-0.73754 -0.58425,-1.2352c0,-0.38146 0.13369,-0.73171 0.35676,-1.00643c-1.06268,-0.49955 -2.07282,-1.41834 -2.14746,-1.62889c-0.25838,-0.72884 1.20782,-2.21999 2.37013,-3.0683h-1.49156c-0.88238,0 -1.5977,-0.71532 -1.5977,-1.5977c0,-0.81372 0.60832,-1.48537 1.395,-1.58497l1.16766,-0.1668c0.41171,-0.51108 0.53029,-1.26397 0.8013,-1.87317c-1.47426,-0.33158 -3.00366,-0.52059 -4.26511,-1.31492c-1.13859,-0.71696 -2.87838,-1.62259 -2.74307,-2.96128c0.13834,-1.36863 2.11394,-1.77895 3.2937,-2.48637c0.14421,-0.08648 0.32769,-0.17615 0.52754,-0.25498c-0.35908,-0.15955 -0.68788,-0.36383 -0.9403,-0.65421c-0.07191,-0.08273 -0.13949,-0.16832 -0.20331,-0.25639l-0.03211,0.02676l-1.13412,-1.36094c-0.23522,-0.27824 -0.37703,-0.638 -0.37703,-1.03088c0,-0.88238 0.71531,-1.5977 1.59769,-1.5977h2.0535c0.85507,0.00628 2.01351,0.6225 2.5651,-0.0309c0.90006,-1.06619 0.25516,-3.28944 1.50728,-3.90511c0.86162,-0.42365 1.87428,0.4421 2.8295,0.53915c2.35579,0.23935 4.37832,-0.07673 6.54179,0.26311c0.39389,0.40188 0.83914,0.75322 1.32514,1.04341c0.21105,0.21445 0.43676,0.41441 0.67551,0.59828c0.01301,0.4298 0.36552,0.77423 0.79847,0.77423c0.04577,0 0.09065,-0.00385 0.13432,-0.01125c-0.01449,0.04885 -0.03122,0.09876 -0.05035,0.14977c-0.56099,1.49597 -2.05695,0.93498 -2.05695,0.93498c-2.674,-1.05 -5.21005,0.03697 -7.93806,-0.60841c-0.37869,-0.08959 -0.4596,-0.6859 -0.82116,-0.82984c-0.22676,-0.09026 0.40515,0.40467 0.35089,0.64263c-0.22043,0.96673 -0.40401,2.07318 -1.12527,2.75358c-0.50494,0.47634 -1.23012,0.70111 -2.00179,0.80489c0.78833,0.83526 1.29829,1.94761 1.0787,2.81326c-0.0754,0.29725 -1.64693,1.42014 -3.11536,1.98038c0.46091,0.10411 0.91709,0.23117 1.36695,0.37176c1.12964,0.35306 2.20507,0.86057 3.30761,1.29085l0.15502,0.22091l0.0588,-0.07056l1.35962,1.13302c0.35672,0.29302 0.58425,0.73754 0.58425,1.2352c0,0.82932 -0.63186,1.51105 -1.44042,1.59006l-0.7333,0.08148c0.16026,0.4185 0.31557,0.95028 0.46286,1.61535c0.2758,1.24534 -0.59162,2.47162 -1.4171,3.55109c0.85036,-0.03644 1.77327,-0.04304 2.10509,0.62094c0.42606,0.85256 0.03877,1.8346 -0.28575,2.80666c3.03537,-0.06498 5.43166,0.41439 8.25774,1.4721l-0.10466,-0.10173c0,0 1.5977,0 1.5977,1.5977z" fill="url(#color-12)"/><path d="M223.00488,165.74982c0,1.59769 -1.59769,1.5977 -1.59769,1.5977l-1.01732,-0.10173c-1.5909,-0.59784 -3.067,-1.18649 -4.78611,-1.27035c-0.19657,-0.00959 -4.56292,0.04889 -4.77977,-0.09234c-0.15355,-0.10001 -0.29574,-0.21249 -0.42902,-0.33477l-0.0499,0.05989l-1.35963,-1.13302c-0.35672,-0.29302 -0.58425,-0.73754 -0.58425,-1.2352c0,-0.38146 0.13369,-0.73171 0.35676,-1.00643c-1.06268,-0.49955 -2.07282,-1.41834 -2.14746,-1.62889c-0.25838,-0.72884 1.20782,-2.21999 2.37013,-3.0683h-1.49156c-0.88238,0 -1.59769,-0.71532 -1.59769,-1.5977c0,-0.81372 0.60832,-1.48537 1.395,-1.58497l1.16766,-0.1668c0.41171,-0.51108 0.53029,-1.26397 0.8013,-1.87317c-1.47426,-0.33158 -3.00366,-0.52059 -4.26511,-1.31492c-1.13859,-0.71696 -2.87837,-1.62259 -2.74306,-2.96128c0.13834,-1.36863 2.11394,-1.77895 3.2937,-2.48637c0.14421,-0.08648 0.32768,-0.17615 0.52754,-0.25498c-0.35908,-0.15955 -0.68788,-0.36383 -0.9403,-0.65421c-0.07191,-0.08273 -0.13949,-0.16832 -0.20331,-0.25639l-0.03211,0.02676l-1.13412,-1.36094c-0.23522,-0.27824 -0.37703,-0.638 -0.37703,-1.03088c0,-0.88238 0.71531,-1.5977 1.5977,-1.5977h2.05349c0.85507,0.00628 2.01351,0.6225 2.5651,-0.0309c0.90006,-1.06619 0.25516,-3.28944 1.50728,-3.90511c0.86162,-0.42365 1.87428,0.4421 2.8295,0.53915c2.35579,0.23935 4.37832,-0.07673 6.54179,0.26311c0.39389,0.40188 0.83915,0.75322 1.32514,1.04341c0.21105,0.21445 0.43676,0.41441 0.67551,0.59828c0.01301,0.4298 0.36552,0.77423 0.79847,0.77423c0.04577,0 0.09064,-0.00385 0.13431,-0.01125c-0.01449,0.04885 -0.03122,0.09876 -0.05035,0.14977c-0.56099,1.49597 -2.05695,0.93498 -2.05695,0.93498c-2.674,-1.05 -5.21005,0.03697 -7.93806,-0.60841c-0.37869,-0.08959 -0.4596,-0.6859 -0.82116,-0.82984c-0.22676,-0.09026 0.40515,0.40467 0.35089,0.64263c-0.22043,0.96673 -0.40401,2.07318 -1.12527,2.75358c-0.50494,0.47634 -1.23012,0.70111 -2.00179,0.80489c0.78833,0.83526 1.29829,1.94761 1.0787,2.81326c-0.0754,0.29725 -1.64693,1.42014 -3.11536,1.98038c0.46091,0.10411 0.91709,0.23117 1.36696,0.37176c1.12964,0.35306 2.20507,0.86057 3.30761,1.29085l0.15501,0.22091l0.0588,-0.07056l1.35962,1.13302c0.35672,0.29302 0.58425,0.73754 0.58425,1.2352c0,0.82932 -0.63186,1.51105 -1.44042,1.59006l-0.7333,0.08148c0.16026,0.4185 0.31556,0.95028 0.46285,1.61535c0.2758,1.24534 -0.59162,2.47162 -1.4171,3.55109c0.85036,-0.03644 1.77327,-0.04304 2.10509,0.62094c0.42606,0.85256 0.03877,1.8346 -0.28575,2.80666c3.03537,-0.06498 5.43166,0.41439 8.25774,1.4721l-0.10466,-0.10173c0,0 1.59769,0 1.59769,1.5977z" fill="url(#color-13)"/><path d="M224.78999,165.74982c0,1.59769 -1.5977,1.5977 -1.5977,1.5977l-1.01732,-0.10173c-1.5909,-0.59784 -3.067,-1.18649 -4.78611,-1.27035c-0.19657,-0.00959 -4.56293,0.04889 -4.77978,-0.09234c-0.15355,-0.10001 -0.29574,-0.21249 -0.42902,-0.33477l-0.0499,0.05989l-1.35962,-1.13302c-0.35672,-0.29302 -0.58425,-0.73754 -0.58425,-1.2352c0,-0.38146 0.13368,-0.73171 0.35676,-1.00643c-1.06268,-0.49955 -2.07282,-1.41834 -2.14746,-1.62889c-0.25838,-0.72884 1.20782,-2.21999 2.37013,-3.0683h-1.49156c-0.88238,0 -1.59769,-0.71532 -1.59769,-1.5977c0,-0.81372 0.60832,-1.48537 1.395,-1.58497l1.16766,-0.1668c0.41171,-0.51108 0.53029,-1.26397 0.8013,-1.87317c-1.47426,-0.33158 -3.00366,-0.52059 -4.26511,-1.31492c-1.13859,-0.71696 -2.87838,-1.62259 -2.74307,-2.96128c0.13834,-1.36863 2.11394,-1.77895 3.2937,-2.48637c0.14421,-0.08648 0.32768,-0.17615 0.52754,-0.25498c-0.35908,-0.15955 -0.68788,-0.36383 -0.9403,-0.65421c-0.07191,-0.08273 -0.13949,-0.16832 -0.20331,-0.25639l-0.03211,0.02676l-1.13412,-1.36094c-0.23522,-0.27824 -0.37703,-0.638 -0.37703,-1.03088c0,-0.88238 0.71531,-1.5977 1.59769,-1.5977h2.05349c0.85507,0.00628 2.01352,0.6225 2.56511,-0.0309c0.90006,-1.06619 0.25516,-3.28944 1.50728,-3.90511c0.86162,-0.42365 1.87428,0.4421 2.8295,0.53915c2.35579,0.23935 4.37832,-0.07673 6.54179,0.26311c0.39389,0.40188 0.83915,0.75322 1.32514,1.04341c0.21105,0.21445 0.43676,0.41441 0.67551,0.59828c0.01301,0.4298 0.36552,0.77423 0.79847,0.77423c0.04577,0 0.09065,-0.00385 0.13432,-0.01125c-0.01449,0.04885 -0.03122,0.09876 -0.05035,0.14977c-0.56099,1.49597 -2.05696,0.93498 -2.05696,0.93498c-2.674,-1.05 -5.21004,0.03697 -7.93806,-0.60841c-0.37869,-0.08959 -0.45961,-0.6859 -0.82116,-0.82984c-0.22676,-0.09026 0.40515,0.40467 0.35089,0.64263c-0.22043,0.96673 -0.40401,2.07318 -1.12527,2.75358c-0.50494,0.47634 -1.23012,0.70111 -2.00179,0.80489c0.78833,0.83526 1.29829,1.94761 1.0787,2.81326c-0.0754,0.29725 -1.64693,1.42014 -3.11536,1.98038c0.46091,0.10411 0.91709,0.23117 1.36695,0.37176c1.12964,0.35306 2.20507,0.86057 3.30761,1.29085l0.15501,0.22091l0.0588,-0.07056l1.35962,1.13302c0.35672,0.29302 0.58425,0.73754 0.58425,1.2352c0,0.82932 -0.63186,1.51105 -1.44042,1.59006l-0.7333,0.08148c0.16026,0.4185 0.31556,0.95028 0.46285,1.61535c0.2758,1.24534 -0.59162,2.47162 -1.4171,3.55109c0.85036,-0.03644 1.77327,-0.04304 2.10508,0.62094c0.42606,0.85256 0.03877,1.8346 -0.28575,2.80666c3.03537,-0.06498 5.43165,0.41439 8.25774,1.4721l-0.10466,-0.10173c0,0 1.5977,0 1.5977,1.5977z" fill="url(#color-14)"/></g><path d="M240.82394,153.73084l-25.9712,21.68692v-43.37384z" fill="#ff7166" stroke="#ffffff" stroke-width="1.5"/><path d="M272.01774,176.14148l-44.17939,44.17939v-87.81096c0.11343,-0.06852 0.22542,-0.13917 0.33592,-0.21191z" fill="url(#color-15)" stroke="#ffffff" stroke-width="1.5"/><path d="M263.49493,168.28697h33.91723v15.70903h-33.91723z" fill="url(#color-16)" stroke="#ffffff" stroke-width="1.5"/><path d="M297.41216,166.14482h3.21321v19.99331h-3.21321z" fill="#740000" stroke="#ffffff" stroke-width="1"/><path d="M201.46436,128.6984c12.1998,0 22.0897,9.88989 22.0897,22.0897c0,12.1998 -9.88989,22.0897 -22.0897,22.0897c-12.1998,0 -22.0897,-9.88989 -22.0897,-22.0897c0,-12.1998 9.88989,-22.0897 22.0897,-22.0897z" fill="url(#color-17)" stroke="none" stroke-width="0"/><path d="M201.46436,175.9578c12.1998,0 22.0897,9.88989 22.0897,22.0897c0,12.19981 -9.88989,22.0897 -22.0897,22.0897c-12.1998,0 -22.0897,-9.88989 -22.0897,-22.0897c0,-12.1998 9.88989,-22.0897 22.0897,-22.0897z" fill="url(#color-18)" stroke="none" stroke-width="0"/><path d="M269.74284,217.02066c3.94357,0 7.14047,3.1969 7.14047,7.14047c0,3.94357 -3.1969,7.14047 -7.14047,7.14047c-3.94357,0 -7.14047,-3.1969 -7.14047,-7.14047c0,-3.94357 3.1969,-7.14047 7.14047,-7.14047z" fill="#ff8383" stroke="#ffffff" stroke-width="1.5"/><path d="M269.74284,219.16279c2.7605,0 4.99833,2.23783 4.99833,4.99833c0,2.7605 -2.23783,4.99833 -4.99833,4.99833c-2.7605,0 -4.99833,-2.23783 -4.99833,-4.99833c0,-2.7605 2.23783,-4.99833 4.99833,-4.99833z" fill="#000000" stroke="#ffffff" stroke-width="0.5"/><path d="M271.82813,226.94732c-1.25484,0 -1.25484,-5.67529 0,-5.67529c1.25484,0 2.27208,1.27045 2.27208,2.83764c0,1.56719 -1.01725,2.83765 -2.27208,2.83765z" fill="#ffffff" stroke="#ffffff" stroke-width="0.5"/><path d="M168.83333,180c0,-39.30426 31.8624,-71.16667 71.16667,-71.16667c39.30426,0 71.16667,31.8624 71.16667,71.16667c0,39.30426 -31.8624,71.16667 -71.16667,71.16667c-39.30426,0 -71.16667,-31.8624 -71.16667,-71.16667z" fill="url(#color-19)" stroke="none" stroke-width="0"/></g></g></svg>