<svg version="1.1" xmlns="http://www.w3.org/2000/svg" xmlns:xlink="http://www.w3.org/1999/xlink" width="364" height="377.02668" viewBox="0,0,364,377.02668"><defs><linearGradient x1="332.20218" y1="219.04295" x2="339.65957" y2="212.41828" gradientUnits="userSpaceOnUse" id="color-1"><stop offset="0" stop-color="#ff0000"/><stop offset="1" stop-color="#ff7100"/></linearGradient><linearGradient x1="331.57334" y1="219.60156" x2="339.03074" y2="212.97689" gradientUnits="userSpaceOnUse" id="color-2"><stop offset="0" stop-color="#ff0000"/><stop offset="1" stop-color="#ff7100"/></linearGradient><linearGradient x1="331.07029" y1="220.04845" x2="338.52767" y2="213.42378" gradientUnits="userSpaceOnUse" id="color-3"><stop offset="0" stop-color="#ff0000"/><stop offset="1" stop-color="#ff7100"/></linearGradient><linearGradient x1="330.44146" y1="220.60706" x2="337.89885" y2="213.98238" gradientUnits="userSpaceOnUse" id="color-4"><stop offset="0" stop-color="#ff0000"/><stop offset="1" stop-color="#ff7100"/></linearGradient><linearGradient x1="329.81264" y1="221.16566" x2="337.27003" y2="214.54099" gradientUnits="userSpaceOnUse" id="color-5"><stop offset="0" stop-color="#ff0000"/><stop offset="1" stop-color="#ff7100"/></linearGradient><linearGradient x1="329.18381" y1="221.72427" x2="336.64121" y2="215.0996" gradientUnits="userSpaceOnUse" id="color-6"><stop offset="0" stop-color="#ff0000"/><stop offset="1" stop-color="#ff7100"/></linearGradient><linearGradient x1="328.55499" y1="222.28288" x2="336.01238" y2="215.65821" gradientUnits="userSpaceOnUse" id="color-7"><stop offset="0" stop-color="#ff0000"/><stop offset="1" stop-color="#ff7100"/></linearGradient><linearGradient x1="307.92606" y1="220.70755" x2="300.46867" y2="214.08288" gradientUnits="userSpaceOnUse" id="color-8"><stop offset="0" stop-color="#ff0000"/><stop offset="1" stop-color="#ff7100"/></linearGradient><linearGradient x1="308.55489" y1="221.26616" x2="301.09749" y2="214.64149" gradientUnits="userSpaceOnUse" id="color-9"><stop offset="0" stop-color="#ff0000"/><stop offset="1" stop-color="#ff7100"/></linearGradient><linearGradient x1="309.05795" y1="221.71304" x2="301.60056" y2="215.08838" gradientUnits="userSpaceOnUse" id="color-10"><stop offset="0" stop-color="#ff0000"/><stop offset="1" stop-color="#ff7100"/></linearGradient><linearGradient x1="309.68677" y1="222.27165" x2="302.22938" y2="215.64698" gradientUnits="userSpaceOnUse" id="color-11"><stop offset="0" stop-color="#ff0000"/><stop offset="1" stop-color="#ff7100"/></linearGradient><linearGradient x1="310.3156" y1="222.83026" x2="302.8582" y2="216.20559" gradientUnits="userSpaceOnUse" id="color-12"><stop offset="0" stop-color="#ff0000"/><stop offset="1" stop-color="#ff7100"/></linearGradient><linearGradient x1="310.94442" y1="223.38887" x2="303.48703" y2="216.7642" gradientUnits="userSpaceOnUse" id="color-13"><stop offset="0" stop-color="#ff0000"/><stop offset="1" stop-color="#ff7100"/></linearGradient><linearGradient x1="311.57325" y1="223.94748" x2="304.11586" y2="217.32281" gradientUnits="userSpaceOnUse" id="color-14"><stop offset="0" stop-color="#ff0000"/><stop offset="1" stop-color="#ff7100"/></linearGradient><linearGradient x1="320.45407" y1="214.1219" x2="320.45407" y2="187.64264" gradientUnits="userSpaceOnUse" id="color-15"><stop offset="0" stop-color="#ff0000"/><stop offset="1" stop-color="#ff7100"/></linearGradient><linearGradient x1="320.45407" y1="216.35471" x2="320.45407" y2="189.87543" gradientUnits="userSpaceOnUse" id="color-16"><stop offset="0" stop-color="#ff0000"/><stop offset="1" stop-color="#ff7100"/></linearGradient><linearGradient x1="320.45407" y1="218.14094" x2="320.45407" y2="191.66168" gradientUnits="userSpaceOnUse" id="color-17"><stop offset="0" stop-color="#ff0000"/><stop offset="1" stop-color="#ff7100"/></linearGradient><linearGradient x1="320.45407" y1="220.37375" x2="320.45407" y2="193.89446" gradientUnits="userSpaceOnUse" id="color-18"><stop offset="0" stop-color="#ff0000"/><stop offset="1" stop-color="#ff7100"/></linearGradient><linearGradient x1="320.45407" y1="222.60653" x2="320.45407" y2="196.12726" gradientUnits="userSpaceOnUse" id="color-19"><stop offset="0" stop-color="#ff0000"/><stop offset="1" stop-color="#ff7100"/></linearGradient><linearGradient x1="320.45407" y1="224.83932" x2="320.45407" y2="198.36005" gradientUnits="userSpaceOnUse" id="color-20"><stop offset="0" stop-color="#ff0000"/><stop offset="1" stop-color="#ff7100"/></linearGradient><linearGradient x1="320.45407" y1="227.07212" x2="320.45407" y2="200.59285" gradientUnits="userSpaceOnUse" id="color-21"><stop offset="0" stop-color="#ff0000"/><stop offset="1" stop-color="#ff7100"/></linearGradient><linearGradient x1="320.08283" y1="204.51954" x2="320.08283" y2="234.21543" gradientUnits="userSpaceOnUse" id="color-22"><stop offset="0" stop-color="#ff5600"/><stop offset="1" stop-color="#373737"/></linearGradient><radialGradient cx="320.00001" cy="214.62242" r="26.83527" gradientUnits="userSpaceOnUse" id="color-23"><stop offset="0" stop-color="#ff5100" stop-opacity="0.71765"/><stop offset="1" stop-color="#ff5100" stop-opacity="0"/></radialGradient><radialGradient cx="321.72545" cy="197.70856" r="17.70856" gradientUnits="userSpaceOnUse" id="color-24"><stop offset="0" stop-color="#ff5100" stop-opacity="0.71765"/><stop offset="1" stop-color="#ff5100" stop-opacity="0"/></radialGradient><radialGradient cx="320" cy="143.26681" r="182" gradientUnits="userSpaceOnUse" id="color-25"><stop offset="0" stop-color="#ff470a" stop-opacity="0.43922"/><stop offset="1" stop-color="#ff470a" stop-opacity="0"/></radialGradient></defs><g transform="translate(-138,51.75987)"><g data-paper-data="{&quot;isPaintingLayer&quot;:true}" fill-rule="nonzero" stroke-linejoin="miter" stroke-miterlimit="10" stroke-dasharray="" stroke-dashoffset="0" style="mix-blend-mode: normal"><text transform="translate(173.1755,167.98837) scale(2.06013,2.06013)" font-size="40" xml:space="preserve" fill="#ff460a" fill-rule="nonzero" stroke="none" stroke-width="1" stroke-linecap="butt" stroke-linejoin="miter" stroke-miterlimit="10" stroke-dasharray="" stroke-dashoffset="0" font-family="&quot;MV Boli&quot;, Pixel" font-weight="normal" text-anchor="start" style="mix-blend-mode: normal"><tspan x="0" dy="0">Wave 5</tspan></text><text transform="translate(180.27076,94.53361) scale(0.5,0.5)" font-size="40" xml:space="preserve" fill="#66eeff" fill-rule="nonzero" stroke="none" stroke-width="1" stroke-linecap="butt" stroke-linejoin="miter" stroke-miterlimit="10" stroke-dasharray="" stroke-dashoffset="0" font-family="Pixel" font-weight="normal" text-anchor="start" style="mix-blend-mode: normal"><tspan x="0" dy="0"> </tspan></text><text transform="translate(139.27076,10.53361) scale(0.5,0.5)" font-size="40" xml:space="preserve" fill="#6668ff" fill-rule="nonzero" stroke="none" stroke-width="1" stroke-linecap="butt" stroke-linejoin="miter" stroke-miterlimit="10" stroke-dasharray="" stroke-dashoffset="0" font-family="Pixel" font-weight="normal" text-anchor="start" style="mix-blend-mode: normal"><tspan x="0" dy="0"> </tspan></text><text transform="translate(197.27076,13.53361) scale(0.5,0.5)" font-size="40" xml:space="preserve" fill="#ddff66" fill-rule="nonzero" stroke="none" stroke-width="1" stroke-linecap="butt" stroke-linejoin="miter" stroke-miterlimit="10" stroke-dasharray="" stroke-dashoffset="0" font-family="Pixel" font-weight="normal" text-anchor="start" style="mix-blend-mode: normal"><tspan x="0" dy="0"> </tspan></text><text transform="translate(180.27074,57.53361) scale(0.5,0.5)" font-size="40" xml:space="preserve" fill="#66eeff" fill-rule="nonzero" stroke="none" stroke-width="1" stroke-linecap="butt" stroke-linejoin="miter" stroke-miterlimit="10" stroke-dasharray="" stroke-dashoffset="0" font-family="Pixel" font-weight="normal" text-anchor="start" style="mix-blend-mode: normal"><tspan x="0" dy="0"> </tspan></text><text transform="translate(139.27074,-26.46639) scale(0.5,0.5)" font-size="40" xml:space="preserve" fill="#6668ff" fill-rule="nonzero" stroke="none" stroke-width="1" stroke-linecap="butt" stroke-linejoin="miter" stroke-miterlimit="10" stroke-dasharray="" stroke-dashoffset="0" font-family="Pixel" font-weight="normal" text-anchor="start" style="mix-blend-mode: normal"><tspan x="0" dy="0"> </tspan></text><text transform="translate(296.6302,266.45769) scale(0.5,0.5)" font-size="40" xml:space="preserve" fill="#f20000" fill-rule="nonzero" stroke="none" stroke-width="1" stroke-linecap="butt" stroke-linejoin="miter" stroke-miterlimit="10" stroke-dasharray="" stroke-dashoffset="0" font-family="&quot;MV Boli&quot;, Pixel" font-weight="normal" text-anchor="start" style="mix-blend-mode: normal"><tspan x="0" dy="0">100%</tspan></text><text transform="translate(180.27075,94.5336) scale(0.5,0.5)" font-size="40" xml:space="preserve" fill="#66eeff" fill-rule="nonzero" stroke="none" stroke-width="1" stroke-linecap="butt" stroke-linejoin="miter" stroke-miterlimit="10" stroke-dasharray="" stroke-dashoffset="0" font-family="Pixel" font-weight="normal" text-anchor="start" style="mix-blend-mode: normal"><tspan x="0" dy="0"> </tspan></text><text transform="translate(197.27075,13.5336) scale(0.5,0.5)" font-size="40" xml:space="preserve" fill="#ddff66" fill-rule="nonzero" stroke="none" stroke-width="1" stroke-linecap="butt" stroke-linejoin="miter" stroke-miterlimit="10" stroke-dasharray="" stroke-dashoffset="0" font-family="Pixel" font-weight="normal" text-anchor="start" style="mix-blend-mode: normal"><tspan x="0" dy="0"> </tspan></text><g><g data-paper-data="{&quot;index&quot;:null}" stroke="none" stroke-width="0.5" stroke-linecap="butt"><path d="M333.36013,216.62404c0.48906,0.64861 0.82273,1.35747 1.29066,2.04423c0.20158,0.29584 0.5862,0.47799 0.63595,0.86277c0.0052,0.04015 0.00948,0.08061 0.01292,0.12134l0.02874,-0.01543l0.3227,1.08415c0.11743,0.35509 -0.05183,0.83937 -0.44798,1.19129c-0.47107,0.41847 -1.09019,0.49628 -1.40878,0.18545l-0.71086,-0.67863l0.00959,-0.00926l-0.02711,-0.00817c-0.61531,-0.69191 -1.31147,-1.35024 -1.8609,-2.09794c-0.14487,-0.19715 -0.84592,-1.45529 -1.00401,-1.61743c-0.60997,-0.62555 -1.91932,-0.60837 -1.10065,-2.32232c0.28194,-0.59025 1.14143,-0.79478 1.71214,-1.19217c0,0 1.01709,-0.52539 1.24659,0.3295c0.17349,0.64625 -0.3654,1.10421 -0.63876,1.28925c0.15583,0.04895 0.32273,0.12562 0.44466,0.23274c0.20732,-0.1696 0.48638,-0.3008 0.84932,-0.2884c0.73997,0.02529 0.70542,0.60907 0.64578,0.88902z" fill="#ff4200"/><path d="M335.4464,222.40766c-0.35674,-0.40158 0.20606,-0.90154 0.20606,-0.90154l-0.01415,0.05832c0.75935,-1.15021 1.49643,-2.02056 2.58017,-2.95407c-0.33136,-0.14278 -0.68706,-0.26842 -0.72734,-0.61604c-0.03137,-0.27073 0.29521,-0.55787 0.60289,-0.81481c-0.53181,-0.01301 -1.11118,-0.0498 -1.29209,-0.44913c-0.09662,-0.21326 -0.16065,-0.39552 -0.19764,-0.55086l-0.27651,0.20899c-0.30246,0.23316 -0.67727,0.25953 -0.86244,0.05108c-0.11112,-0.12509 -0.13022,-0.30802 -0.06999,-0.49329l0.22596,-0.71025l0.03647,-0.00066l0.00528,-0.10403c0.29231,-0.45316 0.55782,-0.91726 0.87691,-1.35949c0.12708,-0.17611 0.2594,-0.3508 0.39852,-0.5212c-0.64236,0.31869 -1.44668,0.52823 -1.53961,0.47711c-0.27064,-0.14886 -0.33937,-0.58804 -0.24817,-1.04467c-0.295,0.21539 -0.60064,0.38582 -0.88487,0.4241c-0.40599,0.05468 -0.71772,-0.16598 -1.01122,-0.33999c-0.07225,-0.04283 0.03984,-0.36497 -0.01989,-0.27133c-0.09523,0.14932 0.00942,0.32452 -0.10397,0.46554c-0.81687,1.01588 -1.95292,1.53626 -2.66041,2.63695c0,0 -0.40171,0.60913 -0.93335,0.40866c-0.01813,-0.00684 -0.03516,-0.01415 -0.05118,-0.02189c0.01703,-0.0118 0.0337,-0.02488 0.04982,-0.0392c0.15251,-0.13548 0.19978,-0.33237 0.1084,-0.44447c0.04305,-0.12092 0.07791,-0.24181 0.10437,-0.36176c0.1064,-0.22502 0.1848,-0.45266 0.23382,-0.67693c0.68623,-0.76243 1.46925,-1.31588 2.24566,-2.11322c0.31482,-0.32331 0.47823,-0.8578 0.87634,-1.02094c0.57854,-0.23707 0.84779,0.52355 1.40291,0.50989c0.3402,-0.00837 0.61068,-0.52576 0.91048,-0.79492l0.72336,-0.64259c0.31083,-0.27612 0.72253,-0.32016 0.91955,-0.09838c0.08773,0.09875 0.1181,0.23355 0.09737,0.37709l-0.09563,0.69697l-0.01729,0.00332c-0.00282,0.04211 -0.00751,0.08477 -0.01437,0.12807c-0.02408,0.15198 -0.09429,0.30621 -0.18516,0.45868c0.08801,-0.04273 0.17266,-0.0776 0.24277,-0.10099c0.57354,-0.19137 1.36108,-0.70645 1.71541,-0.40573c0.34657,0.29414 -0.06407,1.0662 -0.30506,1.6027c-0.267,0.5944 -0.76354,1.12049 -1.20882,1.66516c0.23149,0.06832 0.44137,0.22045 0.70052,0.22008l0.44856,-0.32346c0.29935,-0.22114 0.66361,-0.24268 0.8453,-0.03814c0.19702,0.22179 0.10477,0.62542 -0.20606,0.90154l-0.52542,0.46675c0.59885,-0.15049 1.44828,-0.2345 1.52001,0.02955c0.02072,0.07628 -0.12996,0.62332 -0.39276,1.08142c0.13992,-0.00075 0.26522,0.04545 0.3504,0.14133c0.11112,0.12509 0.13023,0.30802 0.06999,0.49329l-0.22596,0.71025l-0.03095,0.00056c-0.01965,0.07244 -0.04462,0.14521 -0.07638,0.2184c-0.04485,0.10336 -1.596,1.455 -1.66311,1.51892c-0.58685,0.55903 -0.97538,1.1689 -1.40231,1.817l-0.33565,0.34392c0,0 -0.5628,0.49995 -0.91954,0.09837z" fill="url(#color-1)"/><path d="M334.81758,222.96627c-0.35674,-0.40158 0.20606,-0.90155 0.20606,-0.90155l-0.01415,0.05832c0.75935,-1.15021 1.49642,-2.02056 2.58017,-2.95407c-0.33136,-0.14278 -0.68706,-0.26842 -0.72734,-0.61604c-0.03137,-0.27073 0.29521,-0.55787 0.60289,-0.81481c-0.53181,-0.01301 -1.11118,-0.0498 -1.29209,-0.44913c-0.09662,-0.21326 -0.16065,-0.39552 -0.19764,-0.55086l-0.2765,0.20899c-0.30247,0.23316 -0.67727,0.25953 -0.86244,0.05108c-0.11112,-0.12509 -0.13023,-0.30802 -0.07,-0.49329l0.22595,-0.71025l0.03647,-0.00066l0.00528,-0.10403c0.29231,-0.45316 0.55782,-0.91726 0.87691,-1.35949c0.12707,-0.17611 0.2594,-0.3508 0.39851,-0.5212c-0.64236,0.31869 -1.44667,0.52822 -1.5396,0.4771c-0.27064,-0.14887 -0.33937,-0.58804 -0.24817,-1.04467c-0.295,0.21539 -0.60064,0.38582 -0.88487,0.4241c-0.40599,0.05468 -0.71771,-0.16598 -1.01122,-0.33999c-0.07225,-0.04283 0.03984,-0.36498 -0.01989,-0.27133c-0.09522,0.14932 0.00942,0.32452 -0.10397,0.46554c-0.81687,1.01588 -1.95292,1.53627 -2.66041,2.63695c0,0 -0.4017,0.60913 -0.93335,0.40866c-0.01813,-0.00684 -0.03517,-0.01415 -0.05118,-0.02189c0.01703,-0.0118 0.03371,-0.02488 0.04983,-0.0392c0.15251,-0.13548 0.19978,-0.33236 0.1084,-0.44447c0.04305,-0.12092 0.07791,-0.24182 0.10437,-0.36176c0.1064,-0.22502 0.1848,-0.45266 0.23382,-0.67693c0.68622,-0.76243 1.46926,-1.31588 2.24566,-2.11322c0.31482,-0.32331 0.47823,-0.8578 0.87634,-1.02094c0.57854,-0.23707 0.84779,0.52355 1.40291,0.50989c0.3402,-0.00837 0.61068,-0.52577 0.91048,-0.79492l0.72336,-0.64259c0.31083,-0.27612 0.72252,-0.32016 0.91955,-0.09837c0.08772,0.09875 0.1181,0.23355 0.09737,0.3771l-0.09563,0.69697l-0.01729,0.00332c-0.00281,0.04211 -0.00751,0.08477 -0.01437,0.12807c-0.02408,0.15198 -0.09429,0.30621 -0.18516,0.45868c0.088,-0.04273 0.17266,-0.0776 0.24277,-0.10099c0.57354,-0.19137 1.36108,-0.70645 1.71541,-0.40573c0.34657,0.29414 -0.06407,1.06619 -0.30506,1.6027c-0.26699,0.59439 -0.76354,1.12049 -1.20882,1.66517c0.23149,0.06832 0.44137,0.22045 0.70052,0.22008l0.44856,-0.32346c0.29935,-0.22114 0.66361,-0.24268 0.8453,-0.03815c0.19702,0.22179 0.10477,0.62542 -0.20606,0.90154l-0.52542,0.46675c0.59885,-0.15049 1.44828,-0.2345 1.52001,0.02955c0.02072,0.07628 -0.12996,0.62332 -0.39276,1.08142c0.13992,-0.00075 0.26522,0.04545 0.3504,0.14133c0.11112,0.12509 0.13023,0.30802 0.07,0.49329l-0.22595,0.71025l-0.03095,0.00056c-0.01965,0.07244 -0.04462,0.14521 -0.07638,0.2184c-0.04485,0.10336 -1.596,1.455 -1.66311,1.51892c-0.58685,0.55903 -0.97538,1.1689 -1.40231,1.817l-0.33565,0.34392c0,0 -0.56281,0.49996 -0.91955,0.09838z" fill="url(#color-2)"/><path d="M334.31452,223.41316c-0.35674,-0.40158 0.20606,-0.90154 0.20606,-0.90154l-0.01415,0.05832c0.75935,-1.15021 1.49643,-2.02056 2.58017,-2.95407c-0.33136,-0.14278 -0.68706,-0.26842 -0.72734,-0.61604c-0.03137,-0.27073 0.29521,-0.55787 0.60289,-0.81481c-0.53181,-0.01301 -1.11118,-0.0498 -1.29209,-0.44913c-0.09662,-0.21326 -0.16065,-0.39552 -0.19764,-0.55086l-0.2765,0.20899c-0.30247,0.23316 -0.67727,0.25953 -0.86244,0.05108c-0.11112,-0.12509 -0.13023,-0.30802 -0.07,-0.49329l0.22596,-0.71025l0.03647,-0.00066l0.00528,-0.10403c0.29231,-0.45316 0.55782,-0.91726 0.87691,-1.35949c0.12708,-0.17611 0.2594,-0.3508 0.39852,-0.5212c-0.64236,0.31869 -1.44667,0.52822 -1.5396,0.4771c-0.27064,-0.14887 -0.33937,-0.58804 -0.24817,-1.04467c-0.295,0.21539 -0.60064,0.38582 -0.88487,0.4241c-0.40599,0.05468 -0.71772,-0.16598 -1.01122,-0.33999c-0.07225,-0.04283 0.03984,-0.36498 -0.01989,-0.27133c-0.09523,0.14932 0.00942,0.32452 -0.10397,0.46554c-0.81687,1.01588 -1.95292,1.53627 -2.66041,2.63695c0,0 -0.40171,0.60913 -0.93335,0.40866c-0.01813,-0.00684 -0.03516,-0.01415 -0.05118,-0.02189c0.01704,-0.0118 0.0337,-0.02488 0.04982,-0.0392c0.15251,-0.13548 0.19978,-0.33237 0.1084,-0.44447c0.04305,-0.12092 0.07791,-0.24181 0.10437,-0.36176c0.1064,-0.22502 0.1848,-0.45266 0.23381,-0.67693c0.68623,-0.76243 1.46926,-1.31588 2.24567,-2.11323c0.31482,-0.32331 0.47823,-0.8578 0.87634,-1.02094c0.57854,-0.23707 0.84779,0.52355 1.40291,0.50989c0.3402,-0.00837 0.61068,-0.52577 0.91048,-0.79492l0.72336,-0.64259c0.31083,-0.27612 0.72253,-0.32016 0.91955,-0.09838c0.08773,0.09875 0.1181,0.23355 0.09737,0.37709l-0.09563,0.69697l-0.01729,0.00332c-0.00282,0.04211 -0.00751,0.08477 -0.01437,0.12807c-0.02408,0.15198 -0.09429,0.30621 -0.18516,0.45868c0.088,-0.04272 0.17266,-0.0776 0.24277,-0.10099c0.57354,-0.19137 1.36108,-0.70645 1.71541,-0.40573c0.34657,0.29414 -0.06407,1.06619 -0.30506,1.6027c-0.267,0.59439 -0.76354,1.12049 -1.20883,1.66517c0.23149,0.06832 0.44137,0.22045 0.70052,0.22008l0.44856,-0.32347c0.29935,-0.22114 0.66361,-0.24268 0.8453,-0.03815c0.19702,0.22179 0.10477,0.62543 -0.20606,0.90154l-0.52542,0.46675c0.59885,-0.15049 1.44828,-0.2345 1.52001,0.02955c0.02072,0.07628 -0.12996,0.62332 -0.39276,1.08142c0.13992,-0.00075 0.26522,0.04545 0.3504,0.14133c0.11112,0.12509 0.13023,0.30802 0.07,0.49329l-0.22596,0.71025l-0.03095,0.00056c-0.01965,0.07244 -0.04462,0.14521 -0.07638,0.2184c-0.04485,0.10336 -1.596,1.455 -1.6631,1.51892c-0.58685,0.55903 -0.97538,1.1689 -1.40231,1.817l-0.33565,0.34392c0,0 -0.5628,0.49996 -0.91954,0.09837z" fill="url(#color-3)"/><path d="M333.6857,223.97176c-0.35674,-0.40158 0.20606,-0.90155 0.20606,-0.90155l-0.01415,0.05832c0.75935,-1.15021 1.49643,-2.02056 2.58017,-2.95407c-0.33136,-0.14278 -0.68706,-0.26842 -0.72734,-0.61604c-0.03137,-0.27073 0.2952,-0.55787 0.60289,-0.81481c-0.53181,-0.01301 -1.11118,-0.0498 -1.29209,-0.44913c-0.09662,-0.21326 -0.16065,-0.39552 -0.19764,-0.55086l-0.2765,0.20899c-0.30247,0.23316 -0.67727,0.25953 -0.86244,0.05108c-0.11112,-0.12509 -0.13023,-0.30802 -0.07,-0.49329l0.22596,-0.71025l0.03647,-0.00066l0.00528,-0.10403c0.29231,-0.45316 0.55782,-0.91726 0.87691,-1.35949c0.12707,-0.17611 0.2594,-0.3508 0.39851,-0.5212c-0.64236,0.31869 -1.44667,0.52822 -1.5396,0.4771c-0.27064,-0.14887 -0.33937,-0.58804 -0.24817,-1.04467c-0.295,0.21539 -0.60064,0.38582 -0.88487,0.4241c-0.40599,0.05468 -0.71771,-0.16598 -1.01122,-0.33999c-0.07225,-0.04283 0.03984,-0.36498 -0.01989,-0.27133c-0.09522,0.14932 0.00942,0.32452 -0.10397,0.46554c-0.81687,1.01589 -1.95292,1.53627 -2.66041,2.63695c0,0 -0.40171,0.60913 -0.93335,0.40866c-0.01813,-0.00684 -0.03516,-0.01415 -0.05118,-0.02189c0.01703,-0.0118 0.03371,-0.02488 0.04983,-0.0392c0.15251,-0.13548 0.19978,-0.33237 0.1084,-0.44447c0.04305,-0.12092 0.07791,-0.24182 0.10437,-0.36176c0.1064,-0.22502 0.1848,-0.45266 0.23382,-0.67693c0.68623,-0.76243 1.46926,-1.31588 2.24566,-2.11323c0.31482,-0.32331 0.47823,-0.8578 0.87634,-1.02094c0.57854,-0.23707 0.84779,0.52355 1.40291,0.50989c0.3402,-0.00837 0.61068,-0.52577 0.91048,-0.79492l0.72336,-0.64259c0.31083,-0.27612 0.72252,-0.32016 0.91955,-0.09837c0.08772,0.09875 0.1181,0.23355 0.09737,0.37709l-0.09563,0.69697l-0.01729,0.00332c-0.00281,0.04211 -0.00751,0.08477 -0.01437,0.12806c-0.02408,0.15198 -0.09429,0.30621 -0.18516,0.45868c0.08801,-0.04273 0.17266,-0.0776 0.24277,-0.10099c0.57354,-0.19137 1.36108,-0.70645 1.71541,-0.40573c0.34657,0.29414 -0.06407,1.0662 -0.30506,1.6027c-0.267,0.59439 -0.76354,1.12049 -1.20882,1.66517c0.23149,0.06832 0.44137,0.22045 0.70052,0.22008l0.44856,-0.32346c0.29935,-0.22114 0.66361,-0.24268 0.8453,-0.03815c0.19702,0.22179 0.10477,0.62542 -0.20606,0.90154l-0.52542,0.46675c0.59885,-0.15049 1.44828,-0.2345 1.52,0.02955c0.02072,0.07628 -0.12996,0.62332 -0.39276,1.08142c0.13992,-0.00076 0.26522,0.04545 0.3504,0.14133c0.11112,0.12509 0.13022,0.30802 0.06999,0.49329l-0.22595,0.71025l-0.03095,0.00056c-0.01965,0.07244 -0.04462,0.14521 -0.07638,0.2184c-0.04485,0.10336 -1.596,1.455 -1.66311,1.51892c-0.58685,0.55903 -0.97538,1.1689 -1.40231,1.817l-0.33565,0.34392c0,0 -0.56281,0.49996 -0.91955,0.09838z" fill="url(#color-4)"/><path d="M333.05688,224.53037c-0.35674,-0.40158 0.20606,-0.90155 0.20606,-0.90155l-0.01415,0.05832c0.75935,-1.15021 1.49643,-2.02056 2.58017,-2.95407c-0.33136,-0.14278 -0.68706,-0.26842 -0.72734,-0.61604c-0.03137,-0.27073 0.29521,-0.55787 0.60289,-0.81481c-0.53181,-0.01301 -1.11118,-0.0498 -1.29209,-0.44913c-0.09662,-0.21326 -0.16064,-0.39552 -0.19764,-0.55086l-0.27651,0.20899c-0.30246,0.23316 -0.67727,0.25953 -0.86244,0.05108c-0.11112,-0.12509 -0.13022,-0.30802 -0.06999,-0.49329l0.22595,-0.71025l0.03647,-0.00067l0.00528,-0.10404c0.29231,-0.45316 0.55782,-0.91725 0.87691,-1.35949c0.12708,-0.17611 0.2594,-0.3508 0.39851,-0.5212c-0.64236,0.31869 -1.44667,0.52822 -1.5396,0.4771c-0.27064,-0.14887 -0.33937,-0.58804 -0.24817,-1.04467c-0.295,0.21539 -0.60064,0.38582 -0.88487,0.4241c-0.40599,0.05468 -0.71771,-0.16598 -1.01122,-0.33999c-0.07225,-0.04283 0.03984,-0.36498 -0.01989,-0.27133c-0.09523,0.14932 0.00942,0.32452 -0.10397,0.46554c-0.81687,1.01588 -1.95292,1.53627 -2.66041,2.63695c0,0 -0.40171,0.60913 -0.93335,0.40866c-0.01813,-0.00684 -0.03516,-0.01415 -0.05118,-0.02189c0.01704,-0.0118 0.03371,-0.02488 0.04983,-0.0392c0.15251,-0.13548 0.19978,-0.33237 0.1084,-0.44447c0.04305,-0.12092 0.07791,-0.24181 0.10437,-0.36176c0.1064,-0.22502 0.1848,-0.45266 0.23382,-0.67693c0.68623,-0.76243 1.46926,-1.31588 2.24566,-2.11323c0.31482,-0.32331 0.47823,-0.8578 0.87634,-1.02094c0.57854,-0.23707 0.84779,0.52355 1.4029,0.50989c0.3402,-0.00837 0.61068,-0.52577 0.91048,-0.79492l0.72336,-0.64259c0.31083,-0.27612 0.72252,-0.32016 0.91955,-0.09837c0.08773,0.09875 0.1181,0.23355 0.09737,0.37709l-0.09563,0.69697l-0.01729,0.00332c-0.00282,0.04211 -0.00751,0.08477 -0.01437,0.12807c-0.02408,0.15198 -0.09429,0.30621 -0.18516,0.45868c0.088,-0.04272 0.17266,-0.0776 0.24277,-0.10099c0.57354,-0.19137 1.36108,-0.70645 1.71541,-0.40573c0.34657,0.29414 -0.06407,1.0662 -0.30506,1.6027c-0.26699,0.59439 -0.76354,1.12049 -1.20883,1.66517c0.23149,0.06832 0.44137,0.22045 0.70052,0.22008l0.44857,-0.32346c0.29935,-0.22114 0.66361,-0.24268 0.8453,-0.03815c0.19702,0.22179 0.10476,0.62543 -0.20606,0.90155l-0.52542,0.46675c0.59885,-0.15049 1.44828,-0.2345 1.52001,0.02955c0.02072,0.07628 -0.12996,0.62332 -0.39276,1.08142c0.13992,-0.00075 0.26522,0.04545 0.3504,0.14133c0.11112,0.12509 0.13023,0.30802 0.07,0.49329l-0.22595,0.71025l-0.03095,0.00056c-0.01965,0.07244 -0.04462,0.14521 -0.07638,0.2184c-0.04485,0.10336 -1.596,1.455 -1.66311,1.51892c-0.58685,0.55903 -0.97538,1.1689 -1.40231,1.817l-0.33565,0.34392c0,0 -0.56281,0.49996 -0.91955,0.09838z" fill="url(#color-5)"/><path d="M332.42803,225.08898c-0.35674,-0.40158 0.20606,-0.90154 0.20606,-0.90154l-0.01415,0.05832c0.75935,-1.15021 1.49643,-2.02056 2.58017,-2.95407c-0.33136,-0.14278 -0.68706,-0.26842 -0.72734,-0.61604c-0.03137,-0.27073 0.29521,-0.55787 0.60289,-0.81481c-0.53181,-0.01301 -1.11118,-0.0498 -1.29209,-0.44912c-0.09662,-0.21326 -0.16065,-0.39552 -0.19764,-0.55086l-0.27651,0.20899c-0.30246,0.23316 -0.67727,0.25953 -0.86244,0.05108c-0.11112,-0.12509 -0.13022,-0.30802 -0.06999,-0.49329l0.22595,-0.71025l0.03647,-0.00066l0.00528,-0.10403c0.29231,-0.45316 0.55782,-0.91726 0.87691,-1.35949c0.12708,-0.17611 0.2594,-0.3508 0.39852,-0.5212c-0.64236,0.31869 -1.44667,0.52822 -1.5396,0.4771c-0.27064,-0.14887 -0.33937,-0.58804 -0.24817,-1.04467c-0.295,0.21539 -0.60064,0.38582 -0.88487,0.4241c-0.40599,0.05468 -0.71772,-0.16598 -1.01122,-0.33999c-0.07225,-0.04283 0.03984,-0.36498 -0.01988,-0.27133c-0.09523,0.14932 0.00942,0.32452 -0.10397,0.46554c-0.81687,1.01588 -1.95292,1.53627 -2.66041,2.63695c0,0 -0.40171,0.60913 -0.93335,0.40866c-0.01813,-0.00684 -0.03516,-0.01415 -0.05118,-0.02189c0.01704,-0.0118 0.0337,-0.02488 0.04982,-0.0392c0.15251,-0.13548 0.19978,-0.33236 0.1084,-0.44447c0.04305,-0.12092 0.07791,-0.24182 0.10437,-0.36176c0.1064,-0.22502 0.1848,-0.45266 0.23382,-0.67693c0.68622,-0.76243 1.46926,-1.31588 2.24566,-2.11323c0.31482,-0.32331 0.47823,-0.8578 0.87634,-1.02094c0.57854,-0.23707 0.84779,0.52355 1.40291,0.50989c0.3402,-0.00837 0.61068,-0.52577 0.91048,-0.79492l0.72336,-0.64259c0.31083,-0.27612 0.72253,-0.32016 0.91955,-0.09838c0.08773,0.09875 0.1181,0.23355 0.09737,0.37709l-0.09563,0.69697l-0.01729,0.00332c-0.00282,0.04211 -0.00751,0.08477 -0.01437,0.12807c-0.02408,0.15198 -0.09429,0.30621 -0.18516,0.45868c0.088,-0.04273 0.17266,-0.0776 0.24277,-0.10099c0.57354,-0.19137 1.36108,-0.70645 1.71541,-0.40573c0.34657,0.29414 -0.06407,1.06619 -0.30506,1.6027c-0.26699,0.59439 -0.76354,1.12049 -1.20882,1.66517c0.23149,0.06832 0.44137,0.22045 0.70052,0.22008l0.44856,-0.32346c0.29935,-0.22114 0.66361,-0.24268 0.8453,-0.03815c0.19702,0.22179 0.10477,0.62542 -0.20606,0.90154l-0.52542,0.46675c0.59885,-0.15049 1.44828,-0.2345 1.52001,0.02955c0.02072,0.07628 -0.12996,0.62332 -0.39276,1.08142c0.13992,-0.00075 0.26522,0.04545 0.3504,0.14133c0.11112,0.12509 0.13023,0.30802 0.07,0.49329l-0.22596,0.71025l-0.03095,0.00056c-0.01965,0.07244 -0.04462,0.14521 -0.07638,0.2184c-0.04485,0.10336 -1.596,1.455 -1.6631,1.51892c-0.58685,0.55903 -0.97538,1.1689 -1.40231,1.817l-0.33565,0.34392c0,0 -0.5628,0.49995 -0.91955,0.09837z" fill="url(#color-6)"/><path d="M331.79922,225.64759c-0.35674,-0.40158 0.20606,-0.90155 0.20606,-0.90155l-0.01415,0.05832c0.75935,-1.15021 1.49643,-2.02056 2.58017,-2.95407c-0.33136,-0.14278 -0.68706,-0.26842 -0.72734,-0.61604c-0.03137,-0.27073 0.2952,-0.55787 0.60289,-0.81481c-0.53181,-0.01301 -1.11118,-0.0498 -1.29209,-0.44913c-0.09662,-0.21326 -0.16065,-0.39552 -0.19764,-0.55086l-0.2765,0.20899c-0.30247,0.23316 -0.67727,0.25953 -0.86244,0.05108c-0.11112,-0.12509 -0.13023,-0.30802 -0.07,-0.49329l0.22596,-0.71025l0.03647,-0.00066l0.00528,-0.10403c0.29231,-0.45316 0.55782,-0.91726 0.87691,-1.35949c0.12707,-0.17611 0.2594,-0.3508 0.39851,-0.5212c-0.64236,0.31869 -1.44667,0.52822 -1.53961,0.4771c-0.27064,-0.14887 -0.33937,-0.58804 -0.24817,-1.04467c-0.295,0.21539 -0.60064,0.38582 -0.88487,0.4241c-0.40599,0.05468 -0.71772,-0.16598 -1.01122,-0.33999c-0.07225,-0.04283 0.03984,-0.36498 -0.01989,-0.27133c-0.09522,0.14932 0.00942,0.32452 -0.10397,0.46554c-0.81687,1.01589 -1.95292,1.53626 -2.66041,2.63695c0,0 -0.40171,0.60913 -0.93335,0.40867c-0.01813,-0.00684 -0.03516,-0.01415 -0.05118,-0.02189c0.01703,-0.0118 0.0337,-0.02488 0.04983,-0.0392c0.15251,-0.13548 0.19978,-0.33237 0.1084,-0.44447c0.04305,-0.12092 0.07791,-0.24182 0.10437,-0.36176c0.1064,-0.22502 0.1848,-0.45266 0.23381,-0.67693c0.68623,-0.76243 1.46926,-1.31588 2.24567,-2.11323c0.31482,-0.32331 0.47823,-0.8578 0.87634,-1.02094c0.57854,-0.23707 0.84779,0.52355 1.40291,0.50989c0.3402,-0.00837 0.61068,-0.52577 0.91048,-0.79492l0.72336,-0.64259c0.31083,-0.27612 0.72252,-0.32016 0.91955,-0.09837c0.08772,0.09875 0.1181,0.23355 0.09737,0.37709l-0.09563,0.69697l-0.01729,0.00332c-0.00281,0.04211 -0.00751,0.08477 -0.01437,0.12807c-0.02408,0.15198 -0.09429,0.30621 -0.18516,0.45868c0.08801,-0.04273 0.17266,-0.0776 0.24277,-0.10099c0.57354,-0.19137 1.36108,-0.70645 1.71541,-0.40573c0.34657,0.29414 -0.06407,1.0662 -0.30506,1.6027c-0.267,0.59439 -0.76354,1.12049 -1.20882,1.66517c0.23149,0.06832 0.44137,0.22045 0.70052,0.22008l0.44856,-0.32346c0.29935,-0.22114 0.66361,-0.24268 0.8453,-0.03814c0.19702,0.22179 0.10477,0.62542 -0.20606,0.90154l-0.52542,0.46675c0.59885,-0.15049 1.44828,-0.2345 1.52001,0.02955c0.02072,0.07628 -0.12996,0.62332 -0.39276,1.08142c0.13992,-0.00076 0.26522,0.04545 0.3504,0.14133c0.11112,0.12509 0.13023,0.30802 0.07,0.49329l-0.22596,0.71025l-0.03095,0.00056c-0.01965,0.07244 -0.04462,0.14521 -0.07638,0.2184c-0.04485,0.10336 -1.596,1.455 -1.66311,1.51892c-0.58685,0.55903 -0.97538,1.1689 -1.40231,1.817l-0.33565,0.34392c0,0 -0.56281,0.49996 -0.91955,0.09838z" fill="url(#color-7)"/></g><g stroke="none" stroke-width="0.5" stroke-linecap="butt"><path d="M306.7681,218.28864c-0.05964,-0.27995 -0.09419,-0.86374 0.64578,-0.88903c0.36295,-0.0124 0.642,0.1188 0.84932,0.2884c0.12193,-0.10712 0.28883,-0.18379 0.44466,-0.23274c-0.27337,-0.18504 -0.81225,-0.64299 -0.63876,-1.28925c0.22949,-0.85489 1.24659,-0.3295 1.24659,-0.3295c0.57071,0.39739 1.4302,0.60192 1.71214,1.19217c0.81867,1.71395 -0.49069,1.69677 -1.10065,2.32232c-0.15809,0.16213 -0.85914,1.42028 -1.00401,1.61743c-0.54943,0.74769 -1.24558,1.40602 -1.8609,2.09794l-0.02711,0.00817l0.00958,0.00926l-0.71086,0.67863c-0.31859,0.31083 -0.93771,0.23301 -1.40878,-0.18545c-0.39615,-0.35192 -0.5654,-0.8362 -0.44798,-1.19129l0.3227,-1.08415l0.02874,0.01543c0.00345,-0.04073 0.00773,-0.08119 0.01292,-0.12134c0.04975,-0.38477 0.43437,-0.56693 0.63595,-0.86277c0.46794,-0.68676 0.8016,-1.39562 1.29066,-2.04423z" fill="#ff4200"/><path d="M304.68184,224.07226c-0.35674,0.40158 -0.91954,-0.09837 -0.91954,-0.09837l-0.33565,-0.34392c-0.42692,-0.6481 -0.81546,-1.25797 -1.40231,-1.817c-0.0671,-0.06392 -1.61825,-1.41557 -1.66311,-1.51892c-0.03176,-0.07319 -0.05673,-0.14595 -0.07638,-0.2184l-0.03095,-0.00056l-0.22596,-0.71025c-0.06023,-0.18528 -0.04112,-0.36821 0.07,-0.49329c0.08518,-0.09588 0.21047,-0.14208 0.3504,-0.14133c-0.2628,-0.4581 -0.41348,-1.00514 -0.39276,-1.08142c0.07172,-0.26405 0.92116,-0.18004 1.52001,-0.02955l-0.52542,-0.46675c-0.31083,-0.27612 -0.40308,-0.67976 -0.20606,-0.90154c0.18169,-0.20453 0.54595,-0.18299 0.8453,0.03815l0.44856,0.32346c0.25915,0.00037 0.46903,-0.15176 0.70052,-0.22008c-0.44529,-0.54468 -0.94183,-1.07077 -1.20882,-1.66517c-0.24099,-0.5365 -0.65164,-1.30856 -0.30506,-1.6027c0.35433,-0.30072 1.14187,0.21436 1.71541,0.40573c0.07011,0.02339 0.15476,0.05826 0.24277,0.10099c-0.09086,-0.15247 -0.16107,-0.3067 -0.18516,-0.45868c-0.00686,-0.0433 -0.01155,-0.08596 -0.01437,-0.12807l-0.01729,-0.00332l-0.09563,-0.69697c-0.02073,-0.14354 0.00964,-0.27834 0.09737,-0.37709c0.19702,-0.22179 0.60872,-0.17775 0.91955,0.09838l0.72336,0.64259c0.29981,0.26915 0.57028,0.78655 0.91048,0.79492c0.55512,0.01366 0.82437,-0.74696 1.40291,-0.50989c0.39811,0.16314 0.56152,0.69763 0.87634,1.02094c0.77641,0.79735 1.55944,1.3508 2.24566,2.11322c0.04902,0.22427 0.12742,0.45191 0.23382,0.67693c0.02646,0.11995 0.06132,0.24084 0.10437,0.36176c-0.09139,0.1121 -0.04412,0.30898 0.1084,0.44447c0.01612,0.01432 0.03279,0.0274 0.04982,0.0392c-0.01601,0.00774 -0.03305,0.01505 -0.05118,0.02189c-0.53164,0.20047 -0.93335,-0.40866 -0.93335,-0.40866c-0.70749,-1.10068 -1.84355,-1.62106 -2.66041,-2.63695c-0.11339,-0.14102 -0.00875,-0.31622 -0.10397,-0.46554c-0.05973,-0.09365 0.05236,0.22849 -0.01989,0.27133c-0.2935,0.17401 -0.60523,0.39467 -1.01122,0.33999c-0.28423,-0.03828 -0.58987,-0.20871 -0.88487,-0.4241c0.0912,0.45663 0.02247,0.89581 -0.24818,1.04467c-0.09293,0.05112 -0.89725,-0.15842 -1.53961,-0.47711c0.13912,0.1704 0.27144,0.34509 0.39852,0.5212c0.31909,0.44223 0.58461,0.90633 0.87691,1.35949l0.00528,0.10403l0.03647,0.00066l0.22596,0.71025c0.06023,0.18528 0.04112,0.36821 -0.07,0.49329c-0.18517,0.20845 -0.55997,0.18208 -0.86244,-0.05108l-0.2765,-0.20899c-0.03699,0.15534 -0.10102,0.3376 -0.19764,0.55086c-0.18091,0.39932 -0.76028,0.43611 -1.29209,0.44913c0.30768,0.25694 0.63426,0.54408 0.60289,0.81481c-0.04028,0.34762 -0.39598,0.47326 -0.72734,0.61604c1.08375,0.93351 1.82083,1.80386 2.58017,2.95407l-0.01415,-0.05832c0,0 0.5628,0.49996 0.20606,0.90154z" fill="url(#color-8)"/><path d="M305.31067,224.63087c-0.35674,0.40158 -0.91955,-0.09838 -0.91955,-0.09838l-0.33565,-0.34392c-0.42692,-0.6481 -0.81546,-1.25797 -1.40231,-1.817c-0.0671,-0.06392 -1.61825,-1.41557 -1.66311,-1.51892c-0.03176,-0.07319 -0.05673,-0.14595 -0.07638,-0.2184l-0.03095,-0.00056l-0.22596,-0.71025c-0.06023,-0.18528 -0.04112,-0.36821 0.07,-0.49329c0.08518,-0.09588 0.21047,-0.14208 0.3504,-0.14133c-0.2628,-0.4581 -0.41348,-1.00514 -0.39276,-1.08142c0.07172,-0.26405 0.92116,-0.18004 1.52001,-0.02955l-0.52542,-0.46675c-0.31083,-0.27612 -0.40308,-0.67975 -0.20606,-0.90154c0.18169,-0.20453 0.54595,-0.18299 0.8453,0.03815l0.44856,0.32346c0.25915,0.00037 0.46903,-0.15176 0.70052,-0.22008c-0.44529,-0.54468 -0.94183,-1.07077 -1.20882,-1.66517c-0.24099,-0.5365 -0.65164,-1.30856 -0.30506,-1.6027c0.35433,-0.30072 1.14187,0.21436 1.71541,0.40573c0.07011,0.02339 0.15476,0.05826 0.24277,0.10099c-0.09086,-0.15247 -0.16107,-0.3067 -0.18516,-0.45868c-0.00686,-0.0433 -0.01155,-0.08596 -0.01437,-0.12807l-0.01729,-0.00332l-0.09563,-0.69697c-0.02073,-0.14354 0.00964,-0.27834 0.09737,-0.37709c0.19702,-0.22179 0.60872,-0.17774 0.91955,0.09837l0.72336,0.64259c0.29981,0.26915 0.57029,0.78655 0.91049,0.79492c0.55512,0.01366 0.82437,-0.74696 1.40291,-0.50989c0.39811,0.16314 0.56152,0.69763 0.87634,1.02094c0.77641,0.79735 1.55944,1.3508 2.24566,2.11322c0.04902,0.22427 0.12742,0.45191 0.23382,0.67693c0.02646,0.11995 0.06132,0.24084 0.10437,0.36176c-0.09139,0.1121 -0.04412,0.30898 0.1084,0.44447c0.01612,0.01432 0.03279,0.0274 0.04983,0.0392c-0.01601,0.00774 -0.03305,0.01505 -0.05118,0.02189c-0.53164,0.20047 -0.93335,-0.40866 -0.93335,-0.40866c-0.70749,-1.10068 -1.84355,-1.62106 -2.66041,-2.63695c-0.11339,-0.14102 -0.00875,-0.31623 -0.10397,-0.46554c-0.05973,-0.09365 0.05236,0.22849 -0.01989,0.27133c-0.2935,0.17401 -0.60523,0.39467 -1.01122,0.33999c-0.28423,-0.03828 -0.58987,-0.20871 -0.88487,-0.4241c0.0912,0.45663 0.02247,0.89581 -0.24818,1.04467c-0.09293,0.05112 -0.89724,-0.15841 -1.53961,-0.4771c0.13912,0.1704 0.27144,0.34509 0.39851,0.5212c0.31909,0.44223 0.5846,0.90633 0.87691,1.35949l0.00528,0.10403l0.03647,0.00066l0.22596,0.71025c0.06023,0.18528 0.04112,0.36821 -0.07,0.49329c-0.18517,0.20845 -0.55997,0.18208 -0.86244,-0.05108l-0.2765,-0.20899c-0.03699,0.15534 -0.10102,0.3376 -0.19764,0.55086c-0.18091,0.39932 -0.76028,0.43611 -1.29209,0.44913c0.30768,0.25694 0.63426,0.54408 0.60289,0.81481c-0.04028,0.34762 -0.39598,0.47326 -0.72734,0.61604c1.08375,0.93351 1.82083,1.80386 2.58017,2.95407l-0.01415,-0.05832c0,0 0.56281,0.49996 0.20606,0.90155z" fill="url(#color-9)"/><path d="M305.81372,225.07776c-0.35674,0.40158 -0.91954,-0.09837 -0.91954,-0.09837l-0.33565,-0.34392c-0.42692,-0.6481 -0.81546,-1.25797 -1.40231,-1.817c-0.0671,-0.06392 -1.61825,-1.41556 -1.6631,-1.51892c-0.03176,-0.07319 -0.05673,-0.14595 -0.07638,-0.2184l-0.03095,-0.00056l-0.22596,-0.71025c-0.06023,-0.18528 -0.04112,-0.36821 0.07,-0.49329c0.08518,-0.09588 0.21047,-0.14208 0.3504,-0.14133c-0.2628,-0.4581 -0.41348,-1.00514 -0.39276,-1.08142c0.07172,-0.26405 0.92116,-0.18004 1.52001,-0.02955l-0.52542,-0.46675c-0.31083,-0.27612 -0.40308,-0.67975 -0.20606,-0.90154c0.18169,-0.20453 0.54595,-0.18299 0.8453,0.03815l0.44856,0.32346c0.25915,0.00037 0.46903,-0.15176 0.70052,-0.22008c-0.44529,-0.54468 -0.94183,-1.07077 -1.20882,-1.66517c-0.24099,-0.5365 -0.65163,-1.30856 -0.30506,-1.6027c0.35433,-0.30072 1.14187,0.21436 1.71541,0.40573c0.07011,0.02339 0.15476,0.05827 0.24277,0.10099c-0.09086,-0.15247 -0.16107,-0.3067 -0.18516,-0.45868c-0.00686,-0.0433 -0.01155,-0.08596 -0.01437,-0.12807l-0.01729,-0.00332l-0.09563,-0.69697c-0.02073,-0.14354 0.00964,-0.27834 0.09737,-0.37709c0.19702,-0.22179 0.60872,-0.17774 0.91955,0.09838l0.72336,0.64259c0.29981,0.26915 0.57028,0.78655 0.91048,0.79492c0.55512,0.01366 0.82437,-0.74696 1.40291,-0.50989c0.39811,0.16314 0.56152,0.69763 0.87634,1.02094c0.77641,0.79735 1.55944,1.3508 2.24566,2.11322c0.04902,0.22427 0.12742,0.45191 0.23382,0.67693c0.02646,0.11995 0.06132,0.24084 0.10437,0.36176c-0.09139,0.1121 -0.04412,0.30898 0.1084,0.44447c0.01612,0.01432 0.03279,0.0274 0.04982,0.0392c-0.01601,0.00774 -0.03305,0.01505 -0.05118,0.02189c-0.53164,0.20047 -0.93335,-0.40866 -0.93335,-0.40866c-0.70749,-1.10068 -1.84355,-1.62106 -2.66041,-2.63695c-0.11339,-0.14102 -0.00875,-0.31622 -0.10397,-0.46554c-0.05973,-0.09365 0.05236,0.22849 -0.01989,0.27133c-0.2935,0.17401 -0.60523,0.39467 -1.01122,0.33999c-0.28423,-0.03828 -0.58987,-0.20871 -0.88487,-0.4241c0.0912,0.45663 0.02247,0.89581 -0.24818,1.04467c-0.09293,0.05112 -0.89724,-0.15841 -1.5396,-0.4771c0.13912,0.1704 0.27144,0.34509 0.39852,0.5212c0.31909,0.44223 0.5846,0.90633 0.87691,1.35949l0.00528,0.10403l0.03647,0.00066l0.22596,0.71025c0.06023,0.18528 0.04112,0.36821 -0.07,0.49329c-0.18517,0.20845 -0.55997,0.18208 -0.86244,-0.05108l-0.2765,-0.20899c-0.03699,0.15534 -0.10102,0.3376 -0.19764,0.55086c-0.18091,0.39932 -0.76028,0.43611 -1.29209,0.44913c0.30768,0.25694 0.63426,0.54408 0.60289,0.81481c-0.04028,0.34762 -0.39598,0.47326 -0.72734,0.61604c1.08375,0.93351 1.82083,1.80386 2.58017,2.95407l-0.01415,-0.05832c0,0 0.5628,0.49996 0.20606,0.90154z" fill="url(#color-10)"/><path d="M306.44255,225.63637c-0.35674,0.40158 -0.91955,-0.09838 -0.91955,-0.09838l-0.33565,-0.34392c-0.42692,-0.6481 -0.81546,-1.25797 -1.40231,-1.817c-0.0671,-0.06392 -1.61825,-1.41557 -1.66311,-1.51892c-0.03176,-0.07319 -0.05673,-0.14595 -0.07638,-0.2184l-0.03095,-0.00056l-0.22596,-0.71025c-0.06023,-0.18528 -0.04112,-0.36821 0.07,-0.49329c0.08518,-0.09588 0.21047,-0.14209 0.3504,-0.14133c-0.2628,-0.4581 -0.41348,-1.00514 -0.39276,-1.08142c0.07172,-0.26405 0.92116,-0.18004 1.52001,-0.02955l-0.52542,-0.46675c-0.31083,-0.27612 -0.40308,-0.67975 -0.20606,-0.90154c0.18169,-0.20453 0.54595,-0.18299 0.8453,0.03815l0.44856,0.32346c0.25915,0.00037 0.46903,-0.15176 0.70052,-0.22008c-0.44529,-0.54468 -0.94183,-1.07077 -1.20882,-1.66517c-0.24099,-0.5365 -0.65164,-1.30856 -0.30506,-1.6027c0.35433,-0.30072 1.14187,0.21436 1.71541,0.40573c0.07011,0.02339 0.15476,0.05826 0.24277,0.10099c-0.09086,-0.15247 -0.16107,-0.3067 -0.18516,-0.45868c-0.00686,-0.0433 -0.01155,-0.08596 -0.01437,-0.12807l-0.01729,-0.00332l-0.09563,-0.69697c-0.02073,-0.14354 0.00964,-0.27834 0.09737,-0.37709c0.19702,-0.22179 0.60872,-0.17775 0.91954,0.09837l0.72336,0.64259c0.29981,0.26915 0.57029,0.78655 0.91049,0.79492c0.55512,0.01366 0.82437,-0.74696 1.40291,-0.50989c0.39811,0.16314 0.56152,0.69763 0.87634,1.02094c0.77641,0.79735 1.55944,1.3508 2.24566,2.11322c0.04902,0.22427 0.12742,0.45191 0.23382,0.67693c0.02646,0.11995 0.06132,0.24084 0.10437,0.36176c-0.09139,0.1121 -0.04412,0.30898 0.1084,0.44447c0.01612,0.01432 0.03279,0.0274 0.04983,0.0392c-0.01601,0.00774 -0.03305,0.01505 -0.05118,0.02189c-0.53164,0.20047 -0.93335,-0.40866 -0.93335,-0.40866c-0.70749,-1.10068 -1.84355,-1.62106 -2.66041,-2.63695c-0.11339,-0.14102 -0.00875,-0.31623 -0.10397,-0.46554c-0.05973,-0.09365 0.05236,0.22849 -0.01989,0.27133c-0.2935,0.17401 -0.60523,0.39467 -1.01122,0.33999c-0.28423,-0.03828 -0.58987,-0.20871 -0.88487,-0.4241c0.0912,0.45663 0.02247,0.89581 -0.24818,1.04467c-0.09293,0.05112 -0.89724,-0.15841 -1.5396,-0.4771c0.13912,0.1704 0.27144,0.34509 0.39851,0.5212c0.31909,0.44223 0.58461,0.90633 0.87691,1.35949l0.00528,0.10403l0.03647,0.00066l0.22595,0.71025c0.06023,0.18528 0.04112,0.36821 -0.07,0.49329c-0.18517,0.20845 -0.55997,0.18208 -0.86244,-0.05108l-0.2765,-0.20899c-0.03699,0.15534 -0.10102,0.3376 -0.19764,0.55086c-0.18091,0.39932 -0.76028,0.43611 -1.29209,0.44913c0.30768,0.25694 0.63426,0.54408 0.60289,0.81481c-0.04028,0.34762 -0.39598,0.47326 -0.72734,0.61604c1.08375,0.93351 1.82083,1.80386 2.58017,2.95407l-0.01415,-0.05832c0,0 0.56281,0.49996 0.20606,0.90155z" fill="url(#color-11)"/><path d="M307.07138,226.19498c-0.35674,0.40158 -0.91955,-0.09838 -0.91955,-0.09838l-0.33565,-0.34392c-0.42692,-0.6481 -0.81546,-1.25797 -1.40231,-1.817c-0.0671,-0.06392 -1.61825,-1.41557 -1.66311,-1.51892c-0.03176,-0.07319 -0.05673,-0.14595 -0.07638,-0.2184l-0.03095,-0.00056l-0.22595,-0.71025c-0.06023,-0.18528 -0.04112,-0.36821 0.07,-0.49329c0.08518,-0.09588 0.21047,-0.14208 0.3504,-0.14133c-0.2628,-0.4581 -0.41348,-1.00514 -0.39276,-1.08142c0.07172,-0.26405 0.92116,-0.18004 1.52001,-0.02955l-0.52542,-0.46675c-0.31083,-0.27612 -0.40309,-0.67976 -0.20606,-0.90155c0.18169,-0.20453 0.54595,-0.18299 0.8453,0.03815l0.44856,0.32346c0.25915,0.00037 0.46903,-0.15176 0.70052,-0.22008c-0.44529,-0.54468 -0.94183,-1.07077 -1.20882,-1.66517c-0.24099,-0.5365 -0.65164,-1.30856 -0.30506,-1.6027c0.35433,-0.30072 1.14187,0.21436 1.71541,0.40573c0.07011,0.02339 0.15476,0.05827 0.24277,0.10099c-0.09086,-0.15247 -0.16107,-0.3067 -0.18516,-0.45868c-0.00686,-0.0433 -0.01155,-0.08596 -0.01437,-0.12807l-0.01729,-0.00332l-0.09563,-0.69697c-0.02073,-0.14354 0.00964,-0.27834 0.09737,-0.37709c0.19702,-0.22179 0.60872,-0.17775 0.91954,0.09837l0.72336,0.64259c0.29981,0.26915 0.57028,0.78655 0.91048,0.79492c0.55512,0.01366 0.82437,-0.74696 1.40291,-0.50989c0.39811,0.16314 0.56152,0.69763 0.87634,1.02094c0.77641,0.79735 1.55944,1.3508 2.24566,2.11322c0.04902,0.22427 0.12741,0.45191 0.23382,0.67693c0.02646,0.11995 0.06132,0.24084 0.10437,0.36176c-0.09139,0.1121 -0.04412,0.30898 0.1084,0.44447c0.01612,0.01432 0.03279,0.0274 0.04983,0.0392c-0.01601,0.00774 -0.03305,0.01505 -0.05118,0.02189c-0.53164,0.20047 -0.93335,-0.40866 -0.93335,-0.40866c-0.70749,-1.10068 -1.84355,-1.62106 -2.66041,-2.63695c-0.11339,-0.14102 -0.00875,-0.31622 -0.10397,-0.46554c-0.05973,-0.09365 0.05236,0.22849 -0.01989,0.27133c-0.2935,0.17401 -0.60523,0.39467 -1.01122,0.33999c-0.28423,-0.03828 -0.58987,-0.20871 -0.88487,-0.4241c0.0912,0.45663 0.02247,0.89581 -0.24818,1.04467c-0.09293,0.05112 -0.89724,-0.15841 -1.53961,-0.4771c0.13912,0.1704 0.27144,0.34509 0.39851,0.5212c0.31909,0.44223 0.5846,0.90633 0.87691,1.35949l0.00528,0.10403l0.03647,0.00066l0.22595,0.71025c0.06023,0.18528 0.04112,0.36821 -0.07,0.49329c-0.18517,0.20845 -0.55997,0.18208 -0.86244,-0.05108l-0.2765,-0.20899c-0.03699,0.15534 -0.10102,0.3376 -0.19764,0.55086c-0.18091,0.39932 -0.76028,0.43611 -1.29209,0.44913c0.30768,0.25694 0.63426,0.54408 0.60289,0.81481c-0.04028,0.34762 -0.39598,0.47326 -0.72734,0.61604c1.08375,0.93351 1.82083,1.80386 2.58017,2.95407l-0.01415,-0.05832c0,0 0.56281,0.49996 0.20606,0.90155z" fill="url(#color-12)"/><path d="M307.7002,226.75359c-0.35674,0.40158 -0.91954,-0.09837 -0.91954,-0.09837l-0.33565,-0.34392c-0.42692,-0.6481 -0.81546,-1.25797 -1.40231,-1.817c-0.0671,-0.06392 -1.61825,-1.41556 -1.6631,-1.51892c-0.03176,-0.07319 -0.05673,-0.14595 -0.07638,-0.2184l-0.03095,-0.00056l-0.22596,-0.71025c-0.06023,-0.18528 -0.04112,-0.36821 0.07,-0.49329c0.08518,-0.09588 0.21047,-0.14208 0.3504,-0.14133c-0.2628,-0.4581 -0.41348,-1.00514 -0.39276,-1.08142c0.07172,-0.26405 0.92116,-0.18004 1.52001,-0.02955l-0.52542,-0.46675c-0.31083,-0.27612 -0.40308,-0.67975 -0.20606,-0.90154c0.18169,-0.20453 0.54595,-0.18299 0.8453,0.03815l0.44856,0.32346c0.25915,0.00037 0.46903,-0.15176 0.70052,-0.22008c-0.44529,-0.54468 -0.94183,-1.07077 -1.20882,-1.66517c-0.24099,-0.5365 -0.65163,-1.30856 -0.30506,-1.6027c0.35433,-0.30072 1.14187,0.21436 1.71541,0.40573c0.07011,0.02339 0.15476,0.05826 0.24277,0.10099c-0.09086,-0.15247 -0.16107,-0.3067 -0.18516,-0.45868c-0.00686,-0.0433 -0.01155,-0.08596 -0.01437,-0.12807l-0.01729,-0.00332l-0.09563,-0.69697c-0.02073,-0.14354 0.00964,-0.27834 0.09737,-0.37709c0.19702,-0.22179 0.60872,-0.17775 0.91955,0.09838l0.72336,0.64259c0.29981,0.26915 0.57028,0.78655 0.91048,0.79492c0.55512,0.01366 0.82437,-0.74696 1.40291,-0.50989c0.39811,0.16314 0.56152,0.69763 0.87634,1.02094c0.77641,0.79735 1.55944,1.3508 2.24566,2.11322c0.04902,0.22427 0.12742,0.45191 0.23382,0.67693c0.02646,0.11995 0.06132,0.24084 0.10437,0.36176c-0.09139,0.1121 -0.04412,0.30898 0.1084,0.44447c0.01612,0.01432 0.03279,0.0274 0.04982,0.0392c-0.01601,0.00774 -0.03305,0.01505 -0.05118,0.02189c-0.53164,0.20047 -0.93335,-0.40866 -0.93335,-0.40866c-0.70749,-1.10068 -1.84355,-1.62106 -2.66041,-2.63695c-0.11339,-0.14102 -0.00875,-0.31622 -0.10397,-0.46554c-0.05973,-0.09365 0.05236,0.22849 -0.01989,0.27133c-0.2935,0.17401 -0.60523,0.39467 -1.01122,0.33999c-0.28423,-0.03828 -0.58987,-0.20871 -0.88487,-0.4241c0.0912,0.45663 0.02247,0.89581 -0.24818,1.04467c-0.09293,0.05112 -0.89724,-0.15841 -1.5396,-0.4771c0.13912,0.1704 0.27144,0.34509 0.39852,0.5212c0.31909,0.44223 0.58461,0.90633 0.87691,1.35949l0.00528,0.10403l0.03647,0.00066l0.22596,0.71025c0.06023,0.18528 0.04112,0.36821 -0.07,0.49329c-0.18517,0.20845 -0.55997,0.18208 -0.86244,-0.05108l-0.2765,-0.20899c-0.03699,0.15534 -0.10102,0.3376 -0.19764,0.55086c-0.18091,0.39932 -0.76028,0.43611 -1.29209,0.44913c0.30768,0.25694 0.63426,0.54408 0.60289,0.81481c-0.04028,0.34762 -0.39598,0.47326 -0.72734,0.61604c1.08375,0.93351 1.82083,1.80386 2.58017,2.95407l-0.01415,-0.05832c0,0 0.5628,0.49996 0.20606,0.90154z" fill="url(#color-13)"/><path d="M308.32903,227.31219c-0.35674,0.40158 -0.91955,-0.09838 -0.91955,-0.09838l-0.33565,-0.34392c-0.42692,-0.6481 -0.81546,-1.25797 -1.40231,-1.817c-0.0671,-0.06392 -1.61825,-1.41557 -1.66311,-1.51892c-0.03176,-0.07319 -0.05673,-0.14595 -0.07638,-0.2184l-0.03095,-0.00056l-0.22595,-0.71025c-0.06023,-0.18528 -0.04112,-0.36821 0.07,-0.49329c0.08518,-0.09588 0.21047,-0.14209 0.3504,-0.14133c-0.2628,-0.4581 -0.41348,-1.00514 -0.39276,-1.08142c0.07172,-0.26405 0.92116,-0.18004 1.52001,-0.02955l-0.52542,-0.46675c-0.31083,-0.27612 -0.40308,-0.67975 -0.20606,-0.90154c0.18169,-0.20453 0.54595,-0.18299 0.8453,0.03815l0.44856,0.32346c0.25915,0.00037 0.46903,-0.15176 0.70052,-0.22008c-0.44529,-0.54468 -0.94183,-1.07077 -1.20882,-1.66517c-0.24099,-0.5365 -0.65164,-1.30856 -0.30506,-1.6027c0.35433,-0.30072 1.14187,0.21436 1.71541,0.40573c0.07011,0.02339 0.15476,0.05826 0.24277,0.10099c-0.09086,-0.15247 -0.16107,-0.3067 -0.18516,-0.45868c-0.00686,-0.0433 -0.01155,-0.08596 -0.01437,-0.12807l-0.01729,-0.00332l-0.09563,-0.69697c-0.02073,-0.14354 0.00964,-0.27834 0.09737,-0.37709c0.19702,-0.22179 0.60872,-0.17775 0.91954,0.09837l0.72336,0.64259c0.29981,0.26915 0.57029,0.78655 0.91049,0.79492c0.55512,0.01366 0.82437,-0.74696 1.40291,-0.50989c0.39811,0.16314 0.56152,0.69763 0.87634,1.02094c0.77641,0.79735 1.55944,1.3508 2.24566,2.11323c0.04902,0.22427 0.12742,0.45191 0.23382,0.67693c0.02646,0.11995 0.06132,0.24084 0.10437,0.36176c-0.09139,0.1121 -0.04412,0.30898 0.1084,0.44447c0.01612,0.01432 0.03279,0.0274 0.04983,0.0392c-0.01601,0.00774 -0.03305,0.01505 -0.05118,0.02189c-0.53164,0.20047 -0.93335,-0.40866 -0.93335,-0.40866c-0.70749,-1.10068 -1.84355,-1.62106 -2.66041,-2.63695c-0.11339,-0.14102 -0.00875,-0.31623 -0.10397,-0.46554c-0.05973,-0.09365 0.05236,0.22849 -0.01989,0.27133c-0.2935,0.17401 -0.60523,0.39467 -1.01122,0.33999c-0.28423,-0.03828 -0.58987,-0.20871 -0.88487,-0.4241c0.0912,0.45663 0.02247,0.89581 -0.24818,1.04467c-0.09293,0.05112 -0.89724,-0.15841 -1.53961,-0.4771c0.13912,0.1704 0.27144,0.34509 0.39851,0.5212c0.31909,0.44223 0.5846,0.90633 0.87691,1.35949l0.00528,0.10403l0.03647,0.00066l0.22596,0.71025c0.06023,0.18528 0.04112,0.36821 -0.07,0.49329c-0.18517,0.20845 -0.55997,0.18208 -0.86244,-0.05108l-0.2765,-0.20899c-0.03699,0.15534 -0.10102,0.3376 -0.19764,0.55086c-0.18091,0.39932 -0.76028,0.43611 -1.29209,0.44913c0.30768,0.25694 0.63426,0.54408 0.60289,0.81481c-0.04028,0.34762 -0.39598,0.47326 -0.72734,0.61604c1.08375,0.93351 1.82083,1.80386 2.58017,2.95407l-0.01415,-0.05832c0,0 0.56281,0.49996 0.20606,0.90155z" fill="url(#color-14)"/></g><g stroke="none" stroke-width="0.5" stroke-linecap="butt"><path d="M323.21317,207.55927c0.45045,-0.61192 1.54813,-1.7097 2.90288,-0.28573c0.66449,0.69844 0.89608,1.48356 0.925,2.19402c0.42755,0.05313 0.87396,0.24918 1.24584,0.47214c-0.11471,-0.86874 -0.1559,-2.7456 1.43252,-3.54063c2.10122,-1.05171 2.85167,1.89308 2.85167,1.89308c0.21751,1.83324 1.32687,3.89956 0.65251,5.49972c-1.95821,4.64644 -4.2325,2.01759 -6.54935,1.90988c-0.60049,-0.02791 -4.33336,0.79889 -4.98002,0.85895c-2.45251,0.22779 -4.98637,0.00683 -7.44434,0.00552l-0.064,-0.0394l-0.00148,0.03535l-2.60005,-0.21435c-1.17855,-0.08429 -2.11563,-1.45018 -2.11563,-3.12283c0,-1.40664 0.66272,-2.59633 1.57445,-2.9893l2.72053,-1.27091l0.02004,0.08424c0.0869,-0.06496 0.17475,-0.1278 0.2636,-0.18828c0.85134,-0.57961 1.89093,-0.13743 2.83343,-0.25895c2.18792,-0.28209 4.18299,-0.86961 6.33244,-1.04252z" fill="#ff4200"/><path d="M308.05687,213.61539c-1.42591,0 -1.42592,-1.99836 -1.42592,-1.99836l0.09079,-1.27245c0.53356,-1.98988 1.05893,-3.83616 1.13377,-5.9864c0.00856,-0.24587 -0.04363,-5.70724 0.08241,-5.97847c0.08926,-0.19205 0.18965,-0.36991 0.29878,-0.53662l-0.05345,-0.06241l1.0112,-1.70059c0.26152,-0.44618 0.65824,-0.73077 1.1024,-0.73077c0.34045,0 0.65304,0.16722 0.89822,0.44623c0.44584,-1.32919 1.26585,-2.59265 1.45376,-2.68601c0.65048,-0.32318 1.98131,1.51072 2.73841,2.96452v-1.86562c0,-1.10367 0.63841,-1.99836 1.42592,-1.99836c0.72623,0 1.32567,0.76088 1.41456,1.74484l0.14887,1.46049c0.45613,0.51496 1.12807,0.66328 1.67177,1.00225c0.29593,-1.84398 0.46462,-3.75692 1.17355,-5.33472c0.63988,-1.42413 1.44814,-3.60023 2.6429,-3.43099c1.22148,0.17303 1.58769,2.64408 2.21905,4.11971c0.07718,0.18037 0.15721,0.40985 0.22757,0.65984c0.1424,-0.44914 0.32471,-0.86039 0.58387,-1.17612c0.07384,-0.08995 0.15022,-0.17447 0.22882,-0.25429l-0.02388,-0.04016l1.21462,-1.41854c0.24833,-0.29421 0.56941,-0.47158 0.92004,-0.47158c0.78751,0 1.42592,0.8947 1.42592,1.99838v2.56847c-0.0056,1.06951 -0.55557,2.51847 0.02758,3.20838c0.95156,1.12578 2.93578,0.31915 3.48525,1.88529c0.3781,1.0777 -0.39457,2.34432 -0.48118,3.5391c-0.21362,2.94658 0.06848,5.47633 -0.23482,8.18237c-0.35867,0.49267 -0.67224,1.0496 -0.93123,1.65746c-0.19139,0.26398 -0.36986,0.54629 -0.53396,0.84492c-0.38359,0.01627 -0.69099,0.45718 -0.69099,0.99872c0,0.05724 0.00344,0.11337 0.01004,0.16799c-0.0436,-0.01813 -0.08814,-0.03905 -0.13367,-0.06297c-1.33513,-0.70168 -0.83445,-2.57281 -0.83445,-2.57281c0.93711,-3.3446 -0.033,-6.51665 0.543,-9.92881c0.07996,-0.47366 0.61215,-0.57486 0.74062,-1.0271c0.08055,-0.28363 -0.36116,0.50675 -0.57354,0.43889c-0.86279,-0.27571 -1.85028,-0.50533 -2.45753,-1.40747c-0.42513,-0.63157 -0.62573,-1.53862 -0.71835,-2.5038c-0.74546,0.98603 -1.73821,1.62389 -2.51079,1.34922c-0.26529,-0.09431 -1.26745,-2.05997 -1.76746,-3.89666c-0.09292,0.5765 -0.20632,1.14708 -0.33179,1.70977c-0.3151,1.41294 -0.76804,2.75806 -1.15206,4.13711l-0.19716,0.19388l0.06297,0.07355l-1.0112,1.7006c-0.26152,0.44618 -0.65824,0.73077 -1.1024,0.73077c-0.74015,0 -1.34859,-0.79032 -1.4191,-1.80166l-0.07272,-0.9172c-0.37351,0.20045 -0.84811,0.3947 -1.44168,0.57893c-1.11145,0.34496 -2.20588,-0.73999 -3.16929,-1.77248c0.03252,1.06362 0.03841,2.21798 -0.55418,2.63302c-0.7609,0.53291 -1.63735,0.04849 -2.5049,-0.35741c0.05799,3.79659 -0.36984,6.79384 -1.31383,10.32866l0.09079,-0.13091c0,0 0,1.99836 -1.42592,1.99836z" fill="url(#color-15)"/><path d="M308.05687,215.8482c-1.42591,0 -1.42592,-1.99838 -1.42592,-1.99838l0.09079,-1.27245c0.53356,-1.98988 1.05893,-3.83616 1.13377,-5.9864c0.00856,-0.24587 -0.04363,-5.70724 0.08241,-5.97847c0.08926,-0.19205 0.18965,-0.36991 0.29878,-0.53662l-0.05345,-0.06241l1.0112,-1.70059c0.26152,-0.44618 0.65824,-0.73077 1.1024,-0.73077c0.34045,0 0.65304,0.16722 0.89822,0.44623c0.44584,-1.32919 1.26585,-2.59265 1.45376,-2.68601c0.65048,-0.32318 1.98131,1.51072 2.73841,2.96452v-1.86562c0,-1.10367 0.63841,-1.99836 1.42592,-1.99836c0.72623,0 1.32567,0.76088 1.41456,1.74484l0.14887,1.46049c0.45613,0.51496 1.12807,0.66328 1.67177,1.00225c0.29593,-1.84398 0.46462,-3.75693 1.17355,-5.33473c0.63988,-1.42413 1.44814,-3.60023 2.6429,-3.43099c1.22148,0.17303 1.58769,2.64408 2.21905,4.11971c0.07718,0.18037 0.15721,0.40985 0.22757,0.65984c0.1424,-0.44914 0.32471,-0.86039 0.58387,-1.17612c0.07384,-0.08995 0.15022,-0.17447 0.22882,-0.25429l-0.02388,-0.04016l1.21462,-1.41854c0.24833,-0.29421 0.56941,-0.47158 0.92004,-0.47158c0.78751,0 1.42592,0.8947 1.42592,1.99836v2.56847c-0.0056,1.06951 -0.55557,2.51848 0.02758,3.2084c0.95156,1.12578 2.93578,0.31915 3.48525,1.88529c0.3781,1.0777 -0.39457,2.34432 -0.48118,3.5391c-0.21362,2.94658 0.06848,5.47633 -0.23482,8.18237c-0.35867,0.49267 -0.67224,1.0496 -0.93123,1.65746c-0.19139,0.26398 -0.36986,0.54629 -0.53396,0.84492c-0.38359,0.01627 -0.69099,0.45718 -0.69099,0.99872c0,0.05724 0.00344,0.11338 0.01004,0.168c-0.0436,-0.01813 -0.08814,-0.03905 -0.13367,-0.06297c-1.33513,-0.70168 -0.83445,-2.5728 -0.83445,-2.5728c0.93711,-3.3446 -0.033,-6.51665 0.543,-9.92881c0.07996,-0.47366 0.61215,-0.57488 0.74062,-1.0271c0.08055,-0.28363 -0.36116,0.50675 -0.57354,0.43889c-0.86279,-0.27571 -1.85028,-0.50533 -2.45753,-1.40747c-0.42513,-0.63157 -0.62573,-1.53862 -0.71835,-2.5038c-0.74546,0.98603 -1.73821,1.62389 -2.51079,1.34922c-0.26529,-0.09431 -1.26745,-2.05995 -1.76746,-3.89664c-0.09292,0.5765 -0.20632,1.14708 -0.33179,1.70976c-0.3151,1.41294 -0.76804,2.75806 -1.15206,4.13711l-0.19716,0.19388l0.06297,0.07355l-1.0112,1.70059c-0.26152,0.44618 -0.65824,0.73077 -1.1024,0.73077c-0.74015,0 -1.34859,-0.79032 -1.4191,-1.80166l-0.07272,-0.9172c-0.37351,0.20045 -0.84811,0.3947 -1.44168,0.57893c-1.11145,0.34496 -2.20588,-0.73999 -3.16929,-1.77248c0.03252,1.06362 0.03841,2.21798 -0.55418,2.63302c-0.7609,0.53291 -1.63735,0.04849 -2.5049,-0.35741c0.05799,3.79659 -0.36984,6.79383 -1.31383,10.32866l0.09079,-0.13091c0,0 0,1.99838 -1.42592,1.99838z" fill="url(#color-16)"/><path d="M308.05687,217.63443c-1.42591,0 -1.42592,-1.99836 -1.42592,-1.99836l0.09079,-1.27245c0.53356,-1.98988 1.05893,-3.83616 1.13377,-5.9864c0.00856,-0.24587 -0.04363,-5.70723 0.08241,-5.97846c0.08926,-0.19205 0.18965,-0.36991 0.29878,-0.53662l-0.05345,-0.06241l1.0112,-1.7006c0.26152,-0.44618 0.65824,-0.73077 1.1024,-0.73077c0.34045,0 0.65304,0.16722 0.89822,0.44623c0.44584,-1.32919 1.26585,-2.59265 1.45376,-2.68601c0.65048,-0.32318 1.98131,1.51072 2.73841,2.96452v-1.86562c0,-1.10367 0.63841,-1.99836 1.42592,-1.99836c0.72623,0 1.32567,0.76088 1.41456,1.74484l0.14887,1.46049c0.45613,0.51496 1.12807,0.66328 1.67177,1.00225c0.29593,-1.84398 0.46462,-3.75693 1.17355,-5.33473c0.63988,-1.42413 1.44814,-3.60022 2.6429,-3.43098c1.22148,0.17303 1.58769,2.64408 2.21905,4.11971c0.07718,0.18037 0.15721,0.40987 0.22757,0.65984c0.1424,-0.44914 0.32471,-0.86039 0.58387,-1.17612c0.07384,-0.08995 0.15022,-0.17447 0.22882,-0.25429l-0.02388,-0.04016l1.21462,-1.41854c0.24833,-0.29421 0.56941,-0.47158 0.92004,-0.47158c0.78751,0 1.42592,0.8947 1.42592,1.99838v2.56847c-0.0056,1.06951 -0.55557,2.51847 0.02758,3.20838c0.95156,1.12578 2.93578,0.31915 3.48525,1.88529c0.3781,1.0777 -0.39457,2.34432 -0.48118,3.5391c-0.21362,2.94658 0.06848,5.47633 -0.23482,8.18237c-0.35867,0.49267 -0.67224,1.0496 -0.93123,1.65746c-0.19139,0.26398 -0.36986,0.54629 -0.53396,0.84492c-0.38359,0.01627 -0.69099,0.45718 -0.69099,0.99872c0,0.05724 0.00344,0.11337 0.01004,0.16799c-0.0436,-0.01813 -0.08814,-0.03905 -0.13367,-0.06297c-1.33513,-0.70168 -0.83445,-2.5728 -0.83445,-2.5728c0.93711,-3.3446 -0.033,-6.51665 0.543,-9.92881c0.07996,-0.47366 0.61215,-0.57486 0.74062,-1.0271c0.08055,-0.28363 -0.36116,0.50675 -0.57354,0.43889c-0.86279,-0.27571 -1.85028,-0.50533 -2.45753,-1.40747c-0.42513,-0.63157 -0.62573,-1.53862 -0.71835,-2.5038c-0.74546,0.98603 -1.73821,1.62389 -2.51079,1.34922c-0.26529,-0.09431 -1.26745,-2.05995 -1.76746,-3.89664c-0.09292,0.5765 -0.20632,1.14708 -0.33179,1.70977c-0.3151,1.41294 -0.76804,2.75806 -1.15206,4.13711l-0.19716,0.19388l0.06297,0.07355l-1.0112,1.70059c-0.26152,0.44618 -0.65824,0.73077 -1.1024,0.73077c-0.74015,0 -1.34859,-0.79032 -1.4191,-1.80166l-0.07272,-0.9172c-0.37351,0.20045 -0.84811,0.3947 -1.44168,0.57893c-1.11145,0.34496 -2.20588,-0.73999 -3.16929,-1.77248c0.03252,1.06362 0.03841,2.21798 -0.55418,2.63302c-0.7609,0.53291 -1.63735,0.04849 -2.5049,-0.35741c0.05799,3.79659 -0.36984,6.79384 -1.31383,10.32866l0.09079,-0.13091c0,0 0,1.99836 -1.42592,1.99836z" fill="url(#color-17)"/><path d="M308.05687,219.86723c-1.42591,0 -1.42592,-1.99838 -1.42592,-1.99838l0.09079,-1.27245c0.53356,-1.98988 1.05893,-3.83616 1.13377,-5.9864c0.00856,-0.24587 -0.04363,-5.70724 0.08241,-5.97847c0.08926,-0.19205 0.18965,-0.36991 0.29878,-0.53662l-0.05345,-0.06241l1.0112,-1.70059c0.26152,-0.44618 0.65824,-0.73077 1.1024,-0.73077c0.34045,0 0.65304,0.16721 0.89822,0.44623c0.44584,-1.32919 1.26585,-2.59265 1.45376,-2.68601c0.65048,-0.32318 1.98131,1.51072 2.73841,2.96452v-1.86562c0,-1.10367 0.63841,-1.99836 1.42592,-1.99836c0.72623,0 1.32567,0.76088 1.41456,1.74484l0.14887,1.46049c0.45613,0.51496 1.12807,0.66328 1.67177,1.00225c0.29593,-1.84398 0.46462,-3.75693 1.17355,-5.33473c0.63988,-1.42413 1.44814,-3.60023 2.6429,-3.43099c1.22148,0.17303 1.58769,2.64408 2.21905,4.11971c0.07718,0.18037 0.15721,0.40985 0.22757,0.65984c0.1424,-0.44914 0.32471,-0.86039 0.58387,-1.17612c0.07384,-0.08995 0.15022,-0.17447 0.22882,-0.25429l-0.02388,-0.04016l1.21462,-1.41854c0.24833,-0.29421 0.56941,-0.47158 0.92004,-0.47158c0.78751,0 1.42592,0.8947 1.42592,1.99836v2.56847c-0.0056,1.06951 -0.55557,2.51848 0.02758,3.2084c0.95156,1.12578 2.93578,0.31915 3.48525,1.88529c0.3781,1.0777 -0.39457,2.34432 -0.48118,3.5391c-0.21362,2.94658 0.06848,5.47633 -0.23482,8.18237c-0.35867,0.49267 -0.67224,1.0496 -0.93123,1.65746c-0.19139,0.26398 -0.36986,0.54629 -0.53396,0.84492c-0.38359,0.01627 -0.69099,0.45718 -0.69099,0.99872c0,0.05724 0.00344,0.11338 0.01004,0.168c-0.0436,-0.01813 -0.08814,-0.03905 -0.13367,-0.06297c-1.33513,-0.70168 -0.83445,-2.57281 -0.83445,-2.57281c0.93711,-3.3446 -0.033,-6.51664 0.543,-9.92881c0.07996,-0.47366 0.61215,-0.57488 0.74062,-1.0271c0.08055,-0.28363 -0.36116,0.50675 -0.57354,0.43889c-0.86279,-0.27571 -1.85028,-0.50533 -2.45753,-1.40747c-0.42513,-0.63157 -0.62573,-1.53862 -0.71835,-2.5038c-0.74546,0.98603 -1.73821,1.62389 -2.51079,1.34922c-0.26529,-0.09431 -1.26745,-2.05995 -1.76746,-3.89664c-0.09292,0.5765 -0.20632,1.14708 -0.33179,1.70976c-0.3151,1.41294 -0.76804,2.75806 -1.15206,4.13711l-0.19716,0.19388l0.06297,0.07355l-1.0112,1.70059c-0.26152,0.44618 -0.65824,0.73077 -1.1024,0.73077c-0.74015,0 -1.34859,-0.79032 -1.4191,-1.80166l-0.07272,-0.9172c-0.37351,0.20045 -0.84811,0.3947 -1.44168,0.57893c-1.11145,0.34496 -2.20588,-0.73999 -3.16929,-1.77248c0.03252,1.06362 0.03841,2.21798 -0.55418,2.633c-0.7609,0.53291 -1.63735,0.04849 -2.5049,-0.35741c0.05799,3.79659 -0.36984,6.79383 -1.31383,10.32866l0.09079,-0.13091c0,0 0,1.99838 -1.42592,1.99838z" fill="url(#color-18)"/><path d="M308.05687,222.10002c-1.42591,0 -1.42592,-1.99838 -1.42592,-1.99838l0.09079,-1.27245c0.53356,-1.98988 1.05893,-3.83616 1.13377,-5.9864c0.00856,-0.24587 -0.04363,-5.70724 0.08241,-5.97847c0.08926,-0.19205 0.18965,-0.36991 0.29878,-0.53662l-0.05345,-0.06241l1.0112,-1.70059c0.26152,-0.44618 0.65824,-0.73077 1.1024,-0.73077c0.34045,0 0.65304,0.16722 0.89822,0.44623c0.44584,-1.32919 1.26585,-2.59265 1.45376,-2.68601c0.65048,-0.32318 1.98131,1.51072 2.73841,2.96452v-1.86562c0,-1.10367 0.63841,-1.99838 1.42592,-1.99838c0.72623,0 1.32567,0.76088 1.41456,1.74484l0.14887,1.46049c0.45613,0.51496 1.12807,0.66328 1.67177,1.00225c0.29593,-1.84398 0.46462,-3.75693 1.17355,-5.33473c0.63988,-1.42413 1.44814,-3.60023 2.6429,-3.43099c1.22148,0.17303 1.58769,2.64408 2.21905,4.11971c0.07718,0.18037 0.15721,0.40987 0.22757,0.65984c0.1424,-0.44914 0.32471,-0.86039 0.58387,-1.17612c0.07384,-0.08995 0.15022,-0.17447 0.22882,-0.25429l-0.02388,-0.04016l1.21462,-1.41854c0.24833,-0.29421 0.56941,-0.47158 0.92004,-0.47158c0.78751,0 1.42592,0.8947 1.42592,1.99836v2.56848c-0.0056,1.06951 -0.55557,2.51847 0.02758,3.20838c0.95156,1.12578 2.93578,0.31915 3.48525,1.88529c0.3781,1.0777 -0.39457,2.34432 -0.48118,3.5391c-0.21362,2.94658 0.06848,5.47633 -0.23482,8.18237c-0.35867,0.49267 -0.67224,1.04958 -0.93123,1.65746c-0.19139,0.26398 -0.36986,0.54629 -0.53396,0.84492c-0.38359,0.01627 -0.69099,0.45718 -0.69099,0.99872c0,0.05724 0.00344,0.11338 0.01004,0.168c-0.0436,-0.01813 -0.08814,-0.03905 -0.13367,-0.06297c-1.33513,-0.70168 -0.83445,-2.5728 -0.83445,-2.5728c0.93711,-3.3446 -0.033,-6.51665 0.543,-9.92881c0.07996,-0.47366 0.61215,-0.57486 0.74062,-1.0271c0.08055,-0.28363 -0.36116,0.50675 -0.57354,0.43889c-0.86279,-0.27571 -1.85028,-0.50533 -2.45753,-1.40747c-0.42513,-0.63157 -0.62573,-1.53862 -0.71835,-2.5038c-0.74546,0.98603 -1.73821,1.62389 -2.51079,1.34922c-0.26529,-0.09431 -1.26745,-2.05995 -1.76746,-3.89664c-0.09292,0.5765 -0.20632,1.14708 -0.33179,1.70976c-0.3151,1.41294 -0.76804,2.75806 -1.15206,4.13711l-0.19716,0.19389l0.06297,0.07355l-1.0112,1.70059c-0.26152,0.44618 -0.65824,0.73077 -1.1024,0.73077c-0.74015,0 -1.34859,-0.79032 -1.4191,-1.80166l-0.07272,-0.9172c-0.37351,0.20045 -0.84811,0.39471 -1.44168,0.57894c-1.11145,0.34496 -2.20588,-0.73999 -3.16929,-1.77248c0.03252,1.06362 0.03841,2.21798 -0.55418,2.63302c-0.7609,0.53291 -1.63735,0.04849 -2.5049,-0.35741c0.05799,3.79659 -0.36984,6.79384 -1.31383,10.32866l0.09079,-0.13091c0,0 0,1.99838 -1.42592,1.99838z" fill="url(#color-19)"/><path d="M308.05687,224.33282c-1.42591,0 -1.42592,-1.99836 -1.42592,-1.99836l0.09079,-1.27245c0.53356,-1.98988 1.05893,-3.83616 1.13377,-5.9864c0.00856,-0.24587 -0.04363,-5.70723 0.08241,-5.97846c0.08926,-0.19205 0.18965,-0.36991 0.29878,-0.53662l-0.05345,-0.06241l1.0112,-1.7006c0.26152,-0.44618 0.65824,-0.73077 1.1024,-0.73077c0.34045,0 0.65304,0.16722 0.89822,0.44623c0.44584,-1.32919 1.26585,-2.59265 1.45376,-2.68601c0.65048,-0.32318 1.98131,1.51072 2.73841,2.96452v-1.86562c0,-1.10367 0.63841,-1.99836 1.42592,-1.99836c0.72623,0 1.32567,0.76088 1.41456,1.74484l0.14887,1.46049c0.45613,0.51496 1.12807,0.66328 1.67177,1.00225c0.29593,-1.84398 0.46462,-3.75693 1.17355,-5.33473c0.63988,-1.42413 1.44814,-3.60022 2.6429,-3.43098c1.22148,0.17303 1.58769,2.64408 2.21905,4.11971c0.07718,0.18037 0.15721,0.40985 0.22757,0.65984c0.1424,-0.44914 0.32471,-0.86039 0.58387,-1.17612c0.07384,-0.08995 0.15022,-0.17447 0.22882,-0.25429l-0.02388,-0.04016l1.21462,-1.41854c0.24833,-0.29421 0.56941,-0.47158 0.92004,-0.47158c0.78751,0 1.42592,0.8947 1.42592,1.99838v2.56847c-0.0056,1.06951 -0.55557,2.51847 0.02758,3.20838c0.95156,1.12578 2.93578,0.31915 3.48525,1.88529c0.3781,1.0777 -0.39457,2.34432 -0.48118,3.5391c-0.21362,2.94658 0.06848,5.47633 -0.23482,8.18237c-0.35867,0.49267 -0.67224,1.0496 -0.93123,1.65746c-0.19139,0.26398 -0.36986,0.54629 -0.53396,0.84492c-0.38359,0.01627 -0.69099,0.45718 -0.69099,0.99872c0,0.05724 0.00344,0.11337 0.01004,0.16799c-0.0436,-0.01813 -0.08814,-0.03905 -0.13367,-0.06297c-1.33513,-0.70168 -0.83445,-2.5728 -0.83445,-2.5728c0.93711,-3.3446 -0.033,-6.51665 0.543,-9.92881c0.07996,-0.47366 0.61215,-0.57486 0.74062,-1.0271c0.08055,-0.28363 -0.36116,0.50675 -0.57354,0.43889c-0.86279,-0.27571 -1.85028,-0.50533 -2.45753,-1.40747c-0.42513,-0.63157 -0.62573,-1.53862 -0.71835,-2.5038c-0.74546,0.98603 -1.73821,1.62389 -2.51079,1.34922c-0.26529,-0.09431 -1.26745,-2.05995 -1.76746,-3.89664c-0.09292,0.5765 -0.20632,1.14708 -0.33179,1.70977c-0.3151,1.41294 -0.76804,2.75806 -1.15206,4.13711l-0.19716,0.19388l0.06297,0.07355l-1.0112,1.70059c-0.26152,0.44618 -0.65824,0.73077 -1.1024,0.73077c-0.74015,0 -1.34859,-0.79032 -1.4191,-1.80166l-0.07272,-0.9172c-0.37351,0.20045 -0.84811,0.3947 -1.44168,0.57893c-1.11145,0.34496 -2.20588,-0.73999 -3.16929,-1.77248c0.03252,1.06362 0.03841,2.21798 -0.55418,2.63302c-0.7609,0.53291 -1.63735,0.04849 -2.5049,-0.35741c0.05799,3.79659 -0.36984,6.79384 -1.31383,10.32866l0.09079,-0.13091c0,0 0,1.99836 -1.42592,1.99836z" fill="url(#color-20)"/><path d="M308.05687,226.56562c-1.42591,0 -1.42592,-1.99838 -1.42592,-1.99838l0.09079,-1.27245c0.53356,-1.98988 1.05893,-3.83616 1.13377,-5.9864c0.00856,-0.24587 -0.04363,-5.70724 0.08241,-5.97847c0.08926,-0.19205 0.18965,-0.36991 0.29878,-0.53662l-0.05345,-0.06241l1.0112,-1.70059c0.26152,-0.44618 0.65824,-0.73077 1.1024,-0.73077c0.34045,0 0.65304,0.16721 0.89822,0.44623c0.44584,-1.32919 1.26585,-2.59265 1.45376,-2.68601c0.65048,-0.32318 1.98131,1.51072 2.73841,2.96452v-1.86562c0,-1.10367 0.63841,-1.99836 1.42592,-1.99836c0.72623,0 1.32567,0.76088 1.41456,1.74484l0.14887,1.46049c0.45613,0.51496 1.12807,0.66328 1.67177,1.00225c0.29593,-1.84398 0.46462,-3.75693 1.17355,-5.33473c0.63988,-1.42413 1.44814,-3.60023 2.6429,-3.43099c1.22148,0.17303 1.58769,2.64408 2.21905,4.11971c0.07718,0.18037 0.15721,0.40985 0.22757,0.65984c0.1424,-0.44914 0.32471,-0.86039 0.58387,-1.17612c0.07384,-0.08995 0.15022,-0.17447 0.22882,-0.25429l-0.02388,-0.04016l1.21462,-1.41854c0.24833,-0.29421 0.56941,-0.47158 0.92004,-0.47158c0.78751,0 1.42592,0.8947 1.42592,1.99836v2.56847c-0.0056,1.06951 -0.55557,2.51848 0.02758,3.2084c0.95156,1.12578 2.93578,0.31915 3.48525,1.88529c0.3781,1.0777 -0.39457,2.34432 -0.48118,3.5391c-0.21362,2.94658 0.06848,5.47633 -0.23482,8.18237c-0.35867,0.49267 -0.67224,1.0496 -0.93123,1.65746c-0.19139,0.26398 -0.36986,0.54629 -0.53396,0.84492c-0.38359,0.01627 -0.69099,0.45718 -0.69099,0.99872c0,0.05724 0.00344,0.11338 0.01004,0.168c-0.0436,-0.01813 -0.08814,-0.03905 -0.13367,-0.06297c-1.33513,-0.70168 -0.83445,-2.57281 -0.83445,-2.57281c0.93711,-3.3446 -0.033,-6.51664 0.543,-9.92881c0.07996,-0.47366 0.61215,-0.57488 0.74062,-1.0271c0.08055,-0.28363 -0.36116,0.50675 -0.57354,0.43889c-0.86279,-0.27571 -1.85028,-0.50533 -2.45753,-1.40747c-0.42513,-0.63157 -0.62573,-1.53862 -0.71835,-2.5038c-0.74546,0.98603 -1.73821,1.62389 -2.51079,1.34922c-0.26529,-0.09431 -1.26745,-2.05995 -1.76746,-3.89664c-0.09292,0.5765 -0.20632,1.14708 -0.33179,1.70976c-0.3151,1.41294 -0.76804,2.75806 -1.15206,4.13711l-0.19716,0.19388l0.06297,0.07355l-1.0112,1.70059c-0.26152,0.44618 -0.65824,0.73077 -1.1024,0.73077c-0.74015,0 -1.34859,-0.79032 -1.4191,-1.80166l-0.07272,-0.9172c-0.37351,0.20045 -0.84811,0.3947 -1.44168,0.57893c-1.11145,0.34496 -2.20588,-0.73999 -3.16929,-1.77248c0.03252,1.06362 0.03841,2.21798 -0.55418,2.633c-0.7609,0.53291 -1.63735,0.04849 -2.5049,-0.35741c0.05799,3.79659 -0.36984,6.79383 -1.31383,10.32866l0.09079,-0.13091c0,0 0,1.99838 -1.42592,1.99838z" fill="url(#color-21)"/></g><path d="M322.83907,234.21543v-5.81204" fill="none" stroke="#212121" stroke-width="8.5" stroke-linecap="round"/><path d="M330.19492,234.21543v-5.81204" fill="none" stroke="#212121" stroke-width="8.5" stroke-linecap="round"/><path d="M305.23488,219.36749c0,-8.20029 6.64765,-14.84794 14.84794,-14.84794c8.20029,0 14.84794,6.64765 14.84794,14.84794c0,8.20029 -6.64765,14.84794 -14.84794,14.84794c-8.20029,0 -14.84794,-6.64765 -14.84794,-14.84794z" fill="url(#color-22)" stroke="none" stroke-width="0" stroke-linecap="butt"/><path d="M314.93833,228.40339v5.81204" fill="none" stroke="#212121" stroke-width="8.5" stroke-linecap="round"/><path d="M309.08089,217.02214c0,0 1.95882,-4.37514 4.37514,-4.37514c2.41632,0 4.37514,4.37514 4.37514,4.37514z" fill="#ffffff" stroke="#000000" stroke-width="2.5" stroke-linecap="butt"/><path d="M322.02175,217.02214c0,0 1.95882,-4.37514 4.37514,-4.37514c2.41632,0 4.37514,4.37514 4.37514,4.37514z" fill="#ffffff" stroke="#000000" stroke-width="2.5" stroke-linecap="butt"/><path d="M324.48982,231.30941v5.81204" fill="none" stroke="#212121" stroke-width="8.5" stroke-linecap="round"/><path d="M329.80782,220.93393l-0.09081,1.27138" fill="none" stroke="#ff8800" stroke-width="0.5" stroke-linecap="round"/><path d="M326.1753,225.47459v-2.27033" fill="none" stroke="#ff8800" stroke-width="0.5" stroke-linecap="round"/><path d="M321.3622,228.3806l-0.36325,-3.36008" fill="none" stroke="#ff8800" stroke-width="0.5" stroke-linecap="round"/><path d="M320.18163,228.01735l-0.81732,-1.63464" fill="none" stroke="#ff8800" stroke-width="0.5" stroke-linecap="round"/><path d="M314.18797,224.02158l-0.99894,2.17951" fill="none" stroke="#ff8800" stroke-width="0.5" stroke-linecap="round"/><path d="M311.55439,226.9276l-0.90813,-0.72651l-0.09081,-1.81626" fill="none" stroke="#ff8800" stroke-width="0.5" stroke-linecap="round"/><path d="M310.10138,222.84101l0.54488,0.7265" fill="none" stroke="#ff8800" stroke-width="0.5" stroke-linecap="round"/><path d="M314.18797,221.93288l-0.09081,0.72651" fill="none" stroke="#ff8800" stroke-width="0.5" stroke-linecap="round"/><path d="M319.90919,220.29824l0.18162,2.81521" fill="none" stroke="#ff8800" stroke-width="0.5" stroke-linecap="round"/><path d="M322.17952,225.83784l0.45406,-1.45301" fill="none" stroke="#ff8800" stroke-width="0.5" stroke-linecap="round"/><path d="M323.08765,227.56329l0.18163,2.0887" fill="none" stroke="#ff8800" stroke-width="0.5" stroke-linecap="round"/><path d="M324.72228,228.92548v-0.90813" fill="none" stroke="#ff8800" stroke-width="0.5" stroke-linecap="round"/><path d="M327.08343,229.47036l-0.54488,-1.90708" fill="none" stroke="#ff8800" stroke-width="0.5" stroke-linecap="round"/><path d="M330.89758,225.92865l-0.18163,-2.0887" fill="none" stroke="#ff8800" stroke-width="0.5" stroke-linecap="round"/><path d="M329.35375,223.74914v1.72545" fill="none" stroke="#ff8800" stroke-width="0.5" stroke-linecap="round"/><path d="M327.90075,226.65516l0.09081,-2.0887" fill="none" stroke="#ff8800" stroke-width="0.5" stroke-linecap="round"/><path d="M327.17423,221.20637l0.09081,1.72545" fill="none" stroke="#ff8800" stroke-width="0.5" stroke-linecap="round"/><path d="M332.07815,222.65938l0.36325,1.45301" fill="none" stroke="#ff8800" stroke-width="0.5" stroke-linecap="round"/><path d="M332.25978,220.29824l1.27138,2.17951" fill="none" stroke="#ff8800" stroke-width="0.5" stroke-linecap="round"/><path d="M331.62408,216.03002l0.36325,0.99894" fill="none" stroke="#ff8800" stroke-width="0.5" stroke-linecap="round"/><path d="M331.17002,220.84311l0.45406,-2.36114" fill="none" stroke="#ff8800" stroke-width="0.5" stroke-linecap="round"/><path d="M329.17213,218.30035l-0.63569,1.72545" fill="none" stroke="#ff8800" stroke-width="0.5" stroke-linecap="round"/><path d="M325.63042,220.6615l0.90813,-1.99789" fill="none" stroke="#ff8800" stroke-width="0.5" stroke-linecap="round"/><path d="M322.99684,222.02369l-0.54488,-0.81732l0.90813,-2.17951" fill="none" stroke="#ff8800" stroke-width="0.5" stroke-linecap="round"/><path d="M320.72651,220.75231l-0.27244,-1.81626" fill="none" stroke="#ff8800" stroke-width="0.5" stroke-linecap="round"/><path d="M319.36431,222.29613l-0.09081,-1.99789" fill="none" stroke="#ff8800" stroke-width="0.5" stroke-linecap="round"/><path d="M317.1848,219.57173l0.09081,1.99789" fill="none" stroke="#ff8800" stroke-width="0.5" stroke-linecap="round"/><path d="M316.18585,220.84312l0.7265,2.36114" fill="none" stroke="#ff8800" stroke-width="0.5" stroke-linecap="round"/><path d="M318.45618,222.29613l0.27244,1.08976" fill="none" stroke="#ff8800" stroke-width="0.5" stroke-linecap="round"/><path d="M317.9113,226.65516l-0.18162,-2.90602" fill="none" stroke="#ff8800" stroke-width="0.5" stroke-linecap="round"/><path d="M316.27667,225.20215v1.81626" fill="none" stroke="#ff8800" stroke-width="0.5" stroke-linecap="round"/><path d="M317.00317,229.47037l-0.54488,-1.54382" fill="none" stroke="#ff8800" stroke-width="0.5" stroke-linecap="round"/><path d="M320.54488,233.1937l-0.27244,-1.08976" fill="none" stroke="#ff8800" stroke-width="0.5" stroke-linecap="round"/><path d="M317.09399,232.37638l0.63569,-1.54382" fill="none" stroke="#ff8800" stroke-width="0.5" stroke-linecap="round"/><path d="M318.72862,231.74069l-0.09081,0.63569" fill="none" stroke="#ff8800" stroke-width="0.5" stroke-linecap="round"/><path d="M320.81733,230.65093l-0.81732,-0.90813" fill="none" stroke="#ff8800" stroke-width="0.5" stroke-linecap="round"/><path d="M322.54277,230.46931l-0.09081,1.99789" fill="none" stroke="#ff8800" stroke-width="0.5" stroke-linecap="round"/><path d="M324.26822,224.02157l-0.18162,-1.18057" fill="none" stroke="#ff8800" stroke-width="0.5" stroke-linecap="round"/><path d="M310.55544,219.02685l0.18163,2.27033" fill="none" stroke="#ff8800" stroke-width="0.5" stroke-linecap="round"/><path d="M307.28617,220.57068l-0.27244,1.45301" fill="none" stroke="#ff8800" stroke-width="0.5" stroke-linecap="round"/><path d="M308.9208,226.01946l-0.99894,-1.54382" fill="none" stroke="#ff8800" stroke-width="0.5" stroke-linecap="round"/><path d="M312.46252,231.01419l-0.36325,-1.27138" fill="none" stroke="#ff8800" stroke-width="0.5" stroke-linecap="round"/><path d="M311.00951,229.47036l-0.27244,-1.3622" fill="none" stroke="#ff8800" stroke-width="0.5" stroke-linecap="round"/><path d="M312.64414,227.38166v1.81626" fill="none" stroke="#ff8800" stroke-width="0.5" stroke-linecap="round"/><path d="M312.3717,222.20531l-0.18163,-2.90602" fill="none" stroke="#ff8800" stroke-width="0.5" stroke-linecap="round"/><path d="M311.73601,223.29507l0.99894,0.81732" fill="none" stroke="#ff8800" stroke-width="0.5" stroke-linecap="round"/><path d="M319.09188,210.58124l-0.81732,-0.54488" fill="none" stroke="#ff8800" stroke-width="0.5" stroke-linecap="round"/><path d="M320.45407,213.48725l-0.27244,-2.36114" fill="none" stroke="#ff8800" stroke-width="0.5" stroke-linecap="round"/><path d="M319.90919,218.20954l0.18162,-3.90497" fill="none" stroke="#ff8800" stroke-width="0.5" stroke-linecap="round"/><path d="M318.81944,214.03213l0.09081,1.99789" fill="none" stroke="#ff8800" stroke-width="0.5" stroke-linecap="round"/><path d="M316.18586,211.21693l0.18162,-0.54488" fill="none" stroke="#ff8800" stroke-width="0.5" stroke-linecap="round"/><path d="M317.9113,214.21376l-0.27244,-1.90708" fill="none" stroke="#ff8800" stroke-width="0.5" stroke-linecap="round"/><path d="M308.01268,213.21481l-1.3622,3.36009" fill="none" stroke="#ff8800" stroke-width="0.5" stroke-linecap="round"/><path d="M306.37804,219.11767l-0.18163,-1.3622" fill="none" stroke="#ff8800" stroke-width="0.5" stroke-linecap="round"/><path d="M307.92186,217.57384l0.36325,-1.63464" fill="none" stroke="#ff8800" stroke-width="0.5" stroke-linecap="round"/><path d="M308.9208,218.20954l0.18163,0.99894" fill="none" stroke="#ff8800" stroke-width="0.5" stroke-linecap="round"/><path d="M314.73285,219.2993l0.27244,-1.27138" fill="none" stroke="#ff8800" stroke-width="0.5" stroke-linecap="round"/><path d="M323.36009,209.21904v2.90602" fill="none" stroke="#ff8800" stroke-width="0.5" stroke-linecap="round"/><path d="M322.63359,210.39961l-0.99894,1.90708" fill="none" stroke="#ff8800" stroke-width="0.5" stroke-linecap="round"/><path d="M321.63464,209.40066h-0.63569" fill="none" stroke="#ff8800" stroke-width="0.5" stroke-linecap="round"/><path d="M318.63781,207.76603l-0.90813,1.45301" fill="none" stroke="#ff8800" stroke-width="0.5" stroke-linecap="round"/><path d="M315.64098,209.21904v-1.3622" fill="none" stroke="#ff8800" stroke-width="0.5" stroke-linecap="round"/><path d="M314.18797,210.3088l0.54488,-1.08976" fill="none" stroke="#ff8800" stroke-width="0.5" stroke-linecap="round"/><path d="M315.18691,212.3975l-0.36325,-1.3622" fill="none" stroke="#ff8800" stroke-width="0.5" stroke-linecap="round"/><path d="M312.19008,211.67099l-0.09081,-2.17951" fill="none" stroke="#ff8800" stroke-width="0.5" stroke-linecap="round"/><path d="M310.46463,213.75969l0.18162,-1.3622" fill="none" stroke="#ff8800" stroke-width="0.5" stroke-linecap="round"/><path d="M309.01162,214.94027l0.09081,-1.27138" fill="none" stroke="#ff8800" stroke-width="0.5" stroke-linecap="round"/><path d="M309.19324,210.85367l0.18163,0.90813" fill="none" stroke="#ff8800" stroke-width="0.5" stroke-linecap="round"/><path d="M314.46041,205.94977l-1.3622,1.81626" fill="none" stroke="#ff8800" stroke-width="0.5" stroke-linecap="round"/><path d="M310.64626,210.03636l0.81732,-1.99789" fill="none" stroke="#ff8800" stroke-width="0.5" stroke-linecap="round"/><path d="M317.27561,207.03952l-0.27244,-1.08976" fill="none" stroke="#ff8800" stroke-width="0.5" stroke-linecap="round"/><path d="M319.36431,206.94871v-0.81732" fill="none" stroke="#ff8800" stroke-width="0.5" stroke-linecap="round"/><path d="M321.45301,208.22009l0.54488,-1.81626" fill="none" stroke="#ff8800" stroke-width="0.5" stroke-linecap="round"/><path d="M324.17741,207.76603l0.81732,1.72545l-0.45407,1.99789" fill="none" stroke="#ff8800" stroke-width="0.5" stroke-linecap="round"/><path d="M324.67688,208.76498l-0.18163,1.72545" fill="none" stroke="#ff8800" stroke-width="0.5" stroke-linecap="round"/><path d="M328.08237,210.12717l-0.18162,-2.17951" fill="none" stroke="#ff8800" stroke-width="0.5" stroke-linecap="round"/><path d="M328.89969,212.30668l0.72651,-3.08764" fill="none" stroke="#ff8800" stroke-width="0.5" stroke-linecap="round"/><path d="M331.53326,213.39644l-0.09081,-1.27138" fill="none" stroke="#ff8800" stroke-width="0.5" stroke-linecap="round"/><path d="M332.80465,215.21271l-0.18163,-1.72545" fill="none" stroke="#ff8800" stroke-width="0.5" stroke-linecap="round"/><path d="M333.89441,218.20954l-0.27244,2.17951" fill="none" stroke="#ff8800" stroke-width="0.5" stroke-linecap="round"/><path d="M332.98628,217.11978v1.72545" fill="none" stroke="#ff8800" stroke-width="0.5" stroke-linecap="round"/><path d="M326.53855,210.58124l0.36325,0.99894" fill="none" stroke="#ff8800" stroke-width="0.5" stroke-linecap="round"/><path d="M321.27139,214.94026l0.63569,-0.63569" fill="none" stroke="#ff8800" stroke-width="0.5" stroke-linecap="round"/><path d="M329.35375,228.19898l-0.36325,-2.17951" fill="none" stroke="#ff8800" stroke-width="0.5" stroke-linecap="round"/><path d="M327.90075,228.56223l0.36325,1.18057" fill="none" stroke="#ff8800" stroke-width="0.5" stroke-linecap="round"/><path d="M330.80676,228.38061l-0.54488,-2.17951" fill="none" stroke="#ff8800" stroke-width="0.5" stroke-linecap="round"/><g stroke="none" stroke-width="0" stroke-linecap="butt"><path d="M293.16473,214.62242c0,-14.82071 12.01456,-26.83527 26.83527,-26.83527c14.82071,0 26.83527,12.01456 26.83527,26.83527c0,14.82071 -12.01456,26.83527 -26.83527,26.83527c-14.82071,0 -26.83527,-12.01456 -26.83527,-26.83527z" fill="url(#color-23)"/><path d="M304.0169,197.70856c0,-9.78017 7.92839,-17.70856 17.70856,-17.70856c9.78017,0 17.70856,7.92839 17.70856,17.70856c0,9.78017 -7.92839,17.70856 -17.70856,17.70856c-9.78017,0 -17.70856,-7.92839 -17.70856,-17.70856z" fill="url(#color-24)"/></g></g><path d="M138,143.26681c0,-100.51582 81.48418,-182 182,-182c100.51582,0 182,81.48418 182,182c0,100.51582 -81.48418,182 -182,182c-100.51582,0 -182,-81.48418 -182,-182z" fill="url(#color-25)" stroke="none" stroke-width="0" stroke-linecap="butt"/></g></g></svg>