<svg version="1.1" xmlns="http://www.w3.org/2000/svg" xmlns:xlink="http://www.w3.org/1999/xlink" width="364" height="364" viewBox="0,0,364,364"><defs><linearGradient x1="269.00387" y1="220.27646" x2="311.40237" y2="220.27646" gradientUnits="userSpaceOnUse" id="color-1"><stop offset="0" stop-color="#221818"/><stop offset="1" stop-color="#424242"/></linearGradient><radialGradient cx="290.20312" cy="220.27646" r="45.83333" gradientUnits="userSpaceOnUse" id="color-2"><stop offset="0" stop-color="#ff0000" stop-opacity="0.33061"/><stop offset="1" stop-color="#ff0000" stop-opacity="0"/></radialGradient><radialGradient cx="357.11044" cy="213.07425" r="2.92575" gradientUnits="userSpaceOnUse" id="color-3"><stop offset="0" stop-color="#ffffff"/><stop offset="1" stop-color="#ffffff" stop-opacity="0"/></radialGradient><radialGradient cx="373.12505" cy="213.07425" r="2.92575" gradientUnits="userSpaceOnUse" id="color-4"><stop offset="0" stop-color="#ffffff"/><stop offset="1" stop-color="#ffffff" stop-opacity="0"/></radialGradient><radialGradient cx="365.33333" cy="216" r="30.29688" gradientUnits="userSpaceOnUse" id="color-5"><stop offset="0" stop-color="#ffffff" stop-opacity="0.45158"/><stop offset="1" stop-color="#ffffff" stop-opacity="0"/></radialGradient><radialGradient cx="320" cy="151" r="182" gradientUnits="userSpaceOnUse" id="color-6"><stop offset="0" stop-color="#a30b0b" stop-opacity="0.44314"/><stop offset="1" stop-color="#a30b0b" stop-opacity="0"/></radialGradient></defs><g transform="translate(-138,31)"><g data-paper-data="{&quot;isPaintingLayer&quot;:true}" fill-rule="nonzero" stroke-linejoin="miter" stroke-miterlimit="10" stroke-dasharray="" stroke-dashoffset="0" style="mix-blend-mode: normal"><text transform="translate(184.64302,165.72157) scale(2.06013,2.06013)" font-size="40" xml:space="preserve" fill="#a30c0c" fill-rule="nonzero" stroke="none" stroke-width="1" stroke-linecap="butt" stroke-linejoin="miter" stroke-miterlimit="10" stroke-dasharray="" stroke-dashoffset="0" font-family="&quot;MV Boli&quot;, Pixel" font-weight="normal" text-anchor="start" style="mix-blend-mode: normal"><tspan x="0" dy="0">Wave 1</tspan></text><path d="M290.20312,199.07721c11.70803,0 21.19925,9.49123 21.19925,21.19925c0,11.70803 -9.49123,21.19925 -21.19925,21.19925c-11.70803,0 -21.19925,-9.49123 -21.19925,-21.19925c0,-11.70803 9.49123,-21.19925 21.19925,-21.19925z" fill="url(#color-1)" stroke="#d4d4d4" stroke-width="2" stroke-linecap="butt"/><path d="M302.95276,229.04081v-17.30507l8.65253,8.65254z" fill="#221818" stroke="#d4d4d4" stroke-width="2" stroke-linecap="butt"/><path d="M302.95276,211.73573l15.02732,-17.17408" fill="none" stroke="#d4d4d4" stroke-width="2" stroke-linecap="round"/><path d="M303.01825,227.75275l17.17408,15.02732" fill="none" stroke="#d4d4d4" stroke-width="2" stroke-linecap="round"/><path d="M294.72048,213.30397c1.36347,0 2.46877,1.10531 2.46877,2.46878c0,1.36347 -1.10531,2.46878 -2.46877,2.46878c-1.36347,0 -2.46878,-1.10531 -2.46878,-2.46878c0,-1.36347 1.10531,-2.46878 2.46878,-2.46878z" fill="none" stroke="#d4d4d4" stroke-width="2" stroke-linecap="butt"/><path d="M294.72048,223.17906c1.36347,0 2.46877,1.10531 2.46877,2.46878c0,1.36347 -1.10531,2.46878 -2.46877,2.46878c-1.36347,0 -2.46878,-1.10531 -2.46878,-2.46878c0,-1.36347 1.10531,-2.46878 2.46878,-2.46878z" fill="none" stroke="#d4d4d4" stroke-width="2" stroke-linecap="butt"/><path d="M307.27903,218.24151c1.06706,0 1.93208,0.86502 1.93208,1.93208c0,1.06706 -0.86502,1.93208 -1.93208,1.93208c-1.06706,0 -1.93208,-0.86502 -1.93208,-1.93208c0,-1.06706 0.86502,-1.93208 1.93208,-1.93208z" fill="none" stroke="#d4d4d4" stroke-width="2" stroke-linecap="butt"/><path d="M244.36979,220.27646c0,-25.31304 20.52028,-45.83333 45.83333,-45.83333c25.31304,0 45.83333,20.52028 45.83333,45.83333c0,25.31304 -20.52028,45.83333 -45.83333,45.83333c-25.31304,0 -45.83333,-20.52028 -45.83333,-45.83333z" fill="url(#color-2)" stroke="none" stroke-width="0" stroke-linecap="butt"/><path d="M348.3948,216c0,-9.3549 7.58363,-16.93853 16.93853,-16.93853c9.3549,0 16.93853,7.58363 16.93853,16.93853c0,9.3549 -7.58363,16.93853 -16.93853,16.93853c-9.3549,0 -16.93853,-7.58363 -16.93853,-16.93853z" fill="#4d4d4d" stroke="none" stroke-width="0" stroke-linecap="butt"/><path d="M352.70643,230.47474c0,-6.97365 5.65326,-12.6269 12.6269,-12.6269c6.97365,0 12.6269,5.65326 12.6269,12.6269c0,6.97365 -5.65326,12.6269 -12.6269,12.6269c-6.97365,0 -12.6269,-5.65326 -12.6269,-12.6269z" fill="#4d4d4d" stroke="none" stroke-width="0" stroke-linecap="butt"/><path d="M354.1847,213.07425c0,-1.61585 1.3099,-2.92575 2.92575,-2.92575c1.61585,0 2.92575,1.3099 2.92575,2.92575c0,1.61585 -1.3099,2.92575 -2.92575,2.92575c-1.61585,0 -2.92575,-1.3099 -2.92575,-2.92575z" fill="url(#color-3)" stroke="none" stroke-width="0" stroke-linecap="butt"/><path d="M370.19931,213.07425c0,-1.61585 1.3099,-2.92575 2.92575,-2.92575c1.61585,0 2.92575,1.3099 2.92575,2.92575c0,1.61585 -1.3099,2.92575 -2.92575,2.92575c-1.61585,0 -2.92575,-1.3099 -2.92575,-2.92575z" fill="url(#color-4)" stroke="none" stroke-width="0" stroke-linecap="butt"/><path d="M335.03645,216c0,-16.73251 13.56437,-30.29688 30.29688,-30.29688c16.73251,0 30.29688,13.56437 30.29688,30.29688c0,16.73251 -13.56437,30.29688 -30.29688,30.29688c-16.73251,0 -30.29686,-13.56437 -30.29686,-30.29686z" fill="url(#color-5)" stroke="none" stroke-width="NaN" stroke-linecap="butt"/><text transform="translate(264.99752,271.87854) scale(0.5,0.5)" font-size="40" xml:space="preserve" fill="#13f200" fill-rule="nonzero" stroke="none" stroke-width="1" stroke-linecap="butt" stroke-linejoin="miter" stroke-miterlimit="10" stroke-dasharray="" stroke-dashoffset="0" font-family="&quot;MV Boli&quot;, Pixel" font-weight="normal" text-anchor="start" style="mix-blend-mode: normal"><tspan x="0" dy="0">100%</tspan></text><text transform="translate(340.03645,271.87854) scale(0.5,0.5)" font-size="40" xml:space="preserve" fill="#4c4c4c" fill-rule="nonzero" stroke="none" stroke-width="1" stroke-linecap="butt" stroke-linejoin="miter" stroke-miterlimit="10" stroke-dasharray="" stroke-dashoffset="0" font-family="&quot;MV Boli&quot;, Pixel" font-weight="normal" text-anchor="start" style="mix-blend-mode: normal"><tspan x="0" dy="0">100%</tspan></text><path d="M138,151c0,-100.51582 81.48418,-182 182,-182c100.51582,0 182,81.48418 182,182c0,100.51582 -81.48418,182 -182,182c-100.51582,0 -182,-81.48418 -182,-182z" fill="url(#color-6)" stroke="none" stroke-width="0" stroke-linecap="butt"/></g></g></svg>