<svg version="1.1" xmlns="http://www.w3.org/2000/svg" xmlns:xlink="http://www.w3.org/1999/xlink" width="364" height="413.75987" viewBox="0,0,364,413.75987"><defs><radialGradient cx="354.15754" cy="213.04786" r="2.03346" gradientUnits="userSpaceOnUse" id="color-1"><stop offset="0" stop-color="#ffffff"/><stop offset="1" stop-color="#ffffff" stop-opacity="0"/></radialGradient><radialGradient cx="365.28806" cy="213.04786" r="2.03346" gradientUnits="userSpaceOnUse" id="color-2"><stop offset="0" stop-color="#ffffff"/><stop offset="1" stop-color="#ffffff" stop-opacity="0"/></radialGradient><radialGradient cx="359.87258" cy="215.08134" r="25.0487" gradientUnits="userSpaceOnUse" id="color-3"><stop offset="0" stop-color="#81e8fc" stop-opacity="0.48235"/><stop offset="1" stop-color="#81e8fc" stop-opacity="0"/></radialGradient><radialGradient cx="320" cy="180" r="182" gradientUnits="userSpaceOnUse" id="color-4"><stop offset="0" stop-color="#3292d1" stop-opacity="0.43922"/><stop offset="1" stop-color="#3292d1" stop-opacity="0"/></radialGradient><linearGradient x1="280.83305" y1="226.80665" x2="282.34407" y2="233.99921" gradientUnits="userSpaceOnUse" id="color-5"><stop offset="0" stop-color="#000000"/><stop offset="1" stop-color="#82c9ff"/></linearGradient><linearGradient x1="282.23613" y1="233.21002" x2="283.73236" y2="240.33218" gradientUnits="userSpaceOnUse" id="color-6"><stop offset="0" stop-color="#000000"/><stop offset="1" stop-color="#82c9ff"/></linearGradient><linearGradient x1="295.33459" y1="209.68083" x2="296.37517" y2="216.95637" gradientUnits="userSpaceOnUse" id="color-7"><stop offset="0" stop-color="#000000"/><stop offset="1" stop-color="#82c9ff"/></linearGradient><linearGradient x1="296.31872" y1="216.16183" x2="297.34911" y2="223.36614" gradientUnits="userSpaceOnUse" id="color-8"><stop offset="0" stop-color="#000000"/><stop offset="1" stop-color="#82c9ff"/></linearGradient><linearGradient x1="287.00716" y1="194.62184" x2="293.85199" y2="191.94518" gradientUnits="userSpaceOnUse" id="color-9"><stop offset="0" stop-color="#000000"/><stop offset="1" stop-color="#82c9ff"/></linearGradient><linearGradient x1="293.09142" y1="192.18181" x2="299.86924" y2="189.53135" gradientUnits="userSpaceOnUse" id="color-10"><stop offset="0" stop-color="#000000"/><stop offset="1" stop-color="#82c9ff"/></linearGradient><radialGradient cx="284.72684" cy="196.77909" r="13.51028" gradientUnits="userSpaceOnUse" id="color-11"><stop offset="0" stop-color="#81e9ff"/><stop offset="1" stop-color="#82bdff"/></radialGradient><radialGradient cx="284.93499" cy="220.74636" r="13.37802" gradientUnits="userSpaceOnUse" id="color-12"><stop offset="0" stop-color="#81e9ff"/><stop offset="1" stop-color="#82bdff"/></radialGradient><radialGradient cx="279.88565" cy="202.56738" r="3.06809" gradientUnits="userSpaceOnUse" id="color-13"><stop offset="0" stop-color="#000000"/><stop offset="1" stop-color="#82a8ff"/></radialGradient><radialGradient cx="279.88565" cy="202.56738" r="2.13511" gradientUnits="userSpaceOnUse" id="color-14"><stop offset="0" stop-color="#000000"/><stop offset="1" stop-color="#81e3ff"/></radialGradient><linearGradient x1="288.26722" y1="220.43274" x2="289.3078" y2="227.70828" gradientUnits="userSpaceOnUse" id="color-15"><stop offset="0" stop-color="#000000"/><stop offset="1" stop-color="#82c9ff"/></linearGradient><linearGradient x1="289.25135" y1="226.91375" x2="290.28174" y2="234.11806" gradientUnits="userSpaceOnUse" id="color-16"><stop offset="0" stop-color="#000000"/><stop offset="1" stop-color="#82c9ff"/></linearGradient><radialGradient cx="289.21552" cy="202.56738" r="3.06809" gradientUnits="userSpaceOnUse" id="color-17"><stop offset="0" stop-color="#000000"/><stop offset="1" stop-color="#82a8ff"/></radialGradient><radialGradient cx="289.21552" cy="202.56738" r="2.1351" gradientUnits="userSpaceOnUse" id="color-18"><stop offset="0" stop-color="#000000"/><stop offset="1" stop-color="#81e3ff"/></radialGradient><linearGradient x1="276.76731" y1="213.24819" x2="275.29691" y2="220.44917" gradientUnits="userSpaceOnUse" id="color-19"><stop offset="0" stop-color="#000000"/><stop offset="1" stop-color="#82c9ff"/></linearGradient><linearGradient x1="275.51134" y1="219.68204" x2="274.05534" y2="226.81253" gradientUnits="userSpaceOnUse" id="color-20"><stop offset="0" stop-color="#000000"/><stop offset="1" stop-color="#82c9ff"/></linearGradient><radialGradient cx="279.88565" cy="202.56738" r="7.11213" gradientUnits="userSpaceOnUse" id="color-21"><stop offset="0" stop-color="#ffffff" stop-opacity="0.51765"/><stop offset="1" stop-color="#ffffff" stop-opacity="0"/></radialGradient><radialGradient cx="289.21552" cy="202.56738" r="7.11213" gradientUnits="userSpaceOnUse" id="color-22"><stop offset="0" stop-color="#000000" stop-opacity="0.51765"/><stop offset="1" stop-color="#000000" stop-opacity="0"/></radialGradient><radialGradient cx="284.55059" cy="206.37661" r="36.73319" gradientUnits="userSpaceOnUse" id="color-23"><stop offset="0" stop-color="#000000" stop-opacity="0.51765"/><stop offset="1" stop-color="#000000" stop-opacity="0"/></radialGradient></defs><g transform="translate(-138,51.75987)"><g data-paper-data="{&quot;isPaintingLayer&quot;:true}" fill-rule="nonzero" stroke="none" stroke-linecap="butt" stroke-linejoin="miter" stroke-miterlimit="10" stroke-dasharray="" stroke-dashoffset="0" style="mix-blend-mode: normal"><text transform="translate(173.1755,167.98837) scale(2.06013,2.06013)" font-size="40" xml:space="preserve" fill="#3292d1" fill-rule="nonzero" stroke="none" stroke-width="1" stroke-linecap="butt" stroke-linejoin="miter" stroke-miterlimit="10" stroke-dasharray="" stroke-dashoffset="0" font-family="&quot;MV Boli&quot;, Pixel" font-weight="normal" text-anchor="start" style="mix-blend-mode: normal"><tspan x="0" dy="0">Wave 4</tspan></text><text transform="translate(180.27076,94.53361) scale(0.5,0.5)" font-size="40" xml:space="preserve" fill="#66eeff" fill-rule="nonzero" stroke="none" stroke-width="1" stroke-linecap="butt" stroke-linejoin="miter" stroke-miterlimit="10" stroke-dasharray="" stroke-dashoffset="0" font-family="Pixel" font-weight="normal" text-anchor="start" style="mix-blend-mode: normal"><tspan x="0" dy="0"> </tspan></text><text transform="translate(139.27076,10.53361) scale(0.5,0.5)" font-size="40" xml:space="preserve" fill="#6668ff" fill-rule="nonzero" stroke="none" stroke-width="1" stroke-linecap="butt" stroke-linejoin="miter" stroke-miterlimit="10" stroke-dasharray="" stroke-dashoffset="0" font-family="Pixel" font-weight="normal" text-anchor="start" style="mix-blend-mode: normal"><tspan x="0" dy="0"> </tspan></text><text transform="translate(197.27076,13.53361) scale(0.5,0.5)" font-size="40" xml:space="preserve" fill="#ddff66" fill-rule="nonzero" stroke="none" stroke-width="1" stroke-linecap="butt" stroke-linejoin="miter" stroke-miterlimit="10" stroke-dasharray="" stroke-dashoffset="0" font-family="Pixel" font-weight="normal" text-anchor="start" style="mix-blend-mode: normal"><tspan x="0" dy="0"> </tspan></text><text transform="translate(180.27074,57.53361) scale(0.5,0.5)" font-size="40" xml:space="preserve" fill="#66eeff" fill-rule="nonzero" stroke="none" stroke-width="1" stroke-linecap="butt" stroke-linejoin="miter" stroke-miterlimit="10" stroke-dasharray="" stroke-dashoffset="0" font-family="Pixel" font-weight="normal" text-anchor="start" style="mix-blend-mode: normal"><tspan x="0" dy="0"> </tspan></text><text transform="translate(139.27074,-26.46639) scale(0.5,0.5)" font-size="40" xml:space="preserve" fill="#6668ff" fill-rule="nonzero" stroke="none" stroke-width="1" stroke-linecap="butt" stroke-linejoin="miter" stroke-miterlimit="10" stroke-dasharray="" stroke-dashoffset="0" font-family="Pixel" font-weight="normal" text-anchor="start" style="mix-blend-mode: normal"><tspan x="0" dy="0"> </tspan></text><text transform="translate(263.0787,262.1098) scale(0.5,0.5)" font-size="40" xml:space="preserve" fill="#13f200" fill-rule="nonzero" stroke="none" stroke-width="1" stroke-linecap="butt" stroke-linejoin="miter" stroke-miterlimit="10" stroke-dasharray="" stroke-dashoffset="0" font-family="&quot;MV Boli&quot;, Pixel" font-weight="normal" text-anchor="start" style="mix-blend-mode: normal"><tspan x="0" dy="0">100%</tspan></text><text transform="translate(334.7162,261.67375) scale(0.5,0.5)" font-size="40" xml:space="preserve" fill="#4d4d4d" fill-rule="nonzero" stroke="none" stroke-width="1" stroke-linecap="butt" stroke-linejoin="miter" stroke-miterlimit="10" stroke-dasharray="" stroke-dashoffset="0" font-family="&quot;MV Boli&quot;, Pixel" font-weight="normal" text-anchor="start" style="mix-blend-mode: normal"><tspan x="0" dy="0">100%</tspan></text><g stroke-width="0"><path d="M348.64087,213.04786v4.06692l-13.92467,-2.03346z" fill="#80e7fc"/><path d="M370.67631,217.11478v-4.06692l13.92467,2.03346z" fill="#80e7fc"/><path d="M357.83918,226.02988h4.06692l-2.03346,13.92467z" fill="#80e7fc"/><path d="M361.90604,203.56632h-4.06692l2.03346,-13.92467z" fill="#80e7fc"/><path d="M348.09997,215.08132c0,-6.50187 5.27079,-11.77267 11.77266,-11.77267c6.50187,0 11.77266,5.2708 11.77266,11.77267c0,6.50187 -5.2708,11.77266 -11.77266,11.77266c-6.50187,0 -11.77266,-5.27079 -11.77266,-11.77266z" fill="#4d4d4d"/><path d="M352.12408,213.04786c0,-1.12305 0.91041,-2.03346 2.03346,-2.03346c1.12305,0 2.03346,0.91041 2.03346,2.03346c0,1.12305 -0.91041,2.03346 -2.03346,2.03346c-1.12305,0 -2.03346,-0.91041 -2.03346,-2.03346z" fill="url(#color-1)"/><path d="M363.2546,213.04786c0,-1.12305 0.91041,-2.03346 2.03346,-2.03346c1.12305,0 2.03346,0.91041 2.03346,2.03346c0,1.12305 -0.91041,2.03346 -2.03346,2.03346c-1.12305,0 -2.03346,-0.91041 -2.03346,-2.03346z" fill="url(#color-2)"/><path d="M359.87258,190.03263c13.83402,0 25.0487,11.21468 25.0487,25.04871c0,13.83403 -11.21467,25.0487 -25.0487,25.0487c-13.83402,0 -25.04871,-11.21466 -25.04871,-25.0487c0,-13.83401 11.21468,-25.04871 25.04871,-25.04871z" fill="url(#color-3)"/></g><path d="M138,180c0,-100.51582 81.48418,-182 182,-182c100.51582,0 182,81.48418 182,182c0,100.51582 -81.48418,182 -182,182c-100.51582,0 -182,-81.48418 -182,-182z" fill="url(#color-4)" stroke-width="0"/><g stroke-width="0"><g><path d="M285.63787,232.80829c0,0 -0.17832,0.1622 -0.50888,0.23164c-0.83565,0.17555 -4.50428,0.94627 -5.91359,1.24234c-0.34459,0.07239 -0.18015,0.41206 -0.18015,0.41206c0,0 -0.31005,-0.54267 -0.20552,-0.94665c0.41612,-1.60825 1.47591,-5.70421 1.70939,-6.60656c0.08891,-0.34364 0.24925,-0.31394 0.24925,-0.31394c0,0 0.11946,-0.11122 0.32661,0.15169c0.54289,0.68902 3.01122,3.82176 4.12242,5.23206c0.33371,0.42354 0.40046,0.59736 0.40046,0.59736z" fill="url(#color-5)"/><path d="M279.04457,234.44184c0,0 -0.05605,-0.19419 0.38872,-0.31688c1.5366,-0.42386 5.0367,-1.38423 5.7271,-1.52927c0.22132,-0.04649 0.46471,0.15185 0.46471,0.15185c0,0 0.15672,0.26568 0.07681,0.57452c-0.36252,1.40111 -1.39058,5.37441 -1.66139,6.42104c-0.1267,0.4897 -0.35076,0.59802 -0.35076,0.59802c0,0 -0.21517,0.03356 -0.50491,-0.33417c-0.61938,-0.7861 -2.98396,-3.78716 -4.00382,-5.08154c-0.29121,-0.36959 -0.13647,-0.48358 -0.13647,-0.48358z" fill="url(#color-6)"/></g><g><path d="M299.73937,215.98194c0,0 -0.18848,0.15027 -0.52285,0.1981c-0.84528,0.1209 -4.55624,0.65165 -5.9818,0.85554c-0.34856,0.04985 -0.20653,0.39949 -0.20653,0.39949c0,0 -0.27414,-0.56166 -0.14359,-0.958c0.51972,-1.57782 1.84336,-5.59628 2.13496,-6.48156c0.11105,-0.33713 0.26912,-0.29708 0.26912,-0.29708c0,0 0.12643,-0.10323 0.31607,0.17258c0.49698,0.72284 2.75658,4.0093 3.77382,5.48881c0.30549,0.44432 0.36081,0.62211 0.36081,0.62211z" fill="url(#color-7)"/><path d="M293.05389,217.18371c0,0 -0.04332,-0.19742 0.40849,-0.29095c1.56088,-0.32314 5.11599,-1.0541 5.81435,-1.15399c0.22387,-0.03202 0.45386,0.18172 0.45386,0.18172c0,0 0.13913,0.2753 0.03933,0.57829c-0.45278,1.3746 -1.73678,5.27272 -2.07501,6.29955c-0.15825,0.48043 -0.38887,0.57397 -0.38887,0.57397c0,0 -0.2169,0.01951 -0.48213,-0.36626c-0.56701,-0.82467 -2.73163,-3.97301 -3.66525,-5.33091c-0.26658,-0.38773 -0.10476,-0.49143 -0.10476,-0.49143z" fill="url(#color-8)"/></g><g><path d="M292.13411,188.89293c0,0 0.18939,0.14913 0.31241,0.4637c0.31098,0.79524 1.67624,4.28652 2.2007,5.62769c0.12824,0.32793 0.43613,0.10971 0.43613,0.10971c0,0 -0.4841,0.39531 -0.89978,0.35884c-1.65486,-0.14516 -5.86952,-0.51485 -6.79802,-0.5963c-0.3536,-0.03102 -0.35075,-0.19406 -0.35075,-0.19406c0,0 -0.1294,-0.09948 0.09574,-0.34716c0.59004,-0.6491 3.27275,-3.60034 4.48045,-4.92893c0.36269,-0.399 0.52313,-0.4935 0.52313,-0.4935z" fill="url(#color-9)"/><path d="M294.83277,195.12648c0,0 -0.18229,0.08731 -0.37665,-0.33113c-0.6715,-1.44564 -2.19602,-4.73941 -2.45295,-5.39642c-0.08236,-0.21062 0.07312,-0.48339 0.07312,-0.48339c0,0 0.23619,-0.1984 0.55398,-0.17052c1.44171,0.12646 5.53016,0.48509 6.60712,0.57955c0.50389,0.0442 0.64768,0.24732 0.64768,0.24732c0,0 0.06859,0.20669 -0.24631,0.55311c-0.67317,0.74056 -3.24312,3.56774 -4.35155,4.78713c-0.3165,0.34818 -0.45445,0.21436 -0.45445,0.21436z" fill="url(#color-10)"/></g><g><path d="M297.4779,208.49416c0,0 -0.76419,0.4488 -2.00601,0.4488c-3.13929,0 -16.92141,0 -22.2158,0c-1.29453,0 -0.95961,1.34641 -0.95961,1.34641c0,0 -0.70535,-2.18684 -0.02392,-3.56133c2.7128,-5.47188 9.62184,-19.40784 11.14392,-22.47797c0.57964,-1.16918 1.13411,-0.94115 1.13411,-0.94115c0,0 0.51389,-0.30988 1.06048,0.79263c1.43249,2.88942 7.94549,16.02653 10.87752,21.94063c0.88054,1.77611 0.98931,2.45196 0.98931,2.45196z" fill="url(#color-11)"/><path d="M272.52088,209.38796c0,0 -0.05488,-0.74105 1.63811,-0.84628c5.84897,-0.36356 19.16807,-1.17334 21.7617,-1.17334c0.83144,0 1.55721,0.89761 1.55721,0.89761c0,0 0.36307,1.07438 -0.15788,2.12516c-2.36339,4.76709 -9.06553,18.28572 -10.83099,21.84675c-0.82602,1.66613 -1.71405,1.88652 -1.71405,1.88652c0,0 -0.79954,-0.0419 -1.56404,-1.58395c-1.63431,-3.2965 -7.87356,-15.88144 -10.56459,-21.30942c-0.76839,-1.54989 -0.12548,-1.84305 -0.12548,-1.84305z" fill="url(#color-12)"/></g><g><path d="M275.22072,202.49561c0,-0.544 1.71646,-0.98411 1.9587,-1.43097c0.53434,-0.98571 1.578,-1.65507 2.77801,-1.65507c1.09713,0 2.06358,0.55951 2.62958,1.40876c0.33372,0.50072 1.96359,1.10217 1.96359,1.74905c0,0.54293 -1.57238,1.05385 -1.81372,1.50008c-0.5339,0.98716 -1.57836,1.65772 -2.77944,1.65772c-1.27853,0 -2.3796,-0.75983 -2.87627,-1.85255c-0.18082,-0.39783 -1.86043,-0.91154 -1.86043,-1.37702z" fill="#82a8ff"/><path d="M276.81756,202.56738c0,-1.69446 1.37363,-3.06809 3.06809,-3.06809c1.69446,0 3.06809,1.37363 3.06809,3.06809c0,1.69446 -1.37363,3.06809 -3.06809,3.06809c-1.69446,0 -3.06809,-1.37363 -3.06809,-3.06809z" fill="url(#color-13)"/><path d="M277.75055,202.56738c0,-1.17918 0.95592,-2.13511 2.13511,-2.13511c1.17918,0 2.13511,0.95592 2.13511,2.13511c0,1.17918 -0.95592,2.13511 -2.13511,2.13511c-1.17918,0 -2.13511,-0.95592 -2.13511,-2.13511z" fill="url(#color-14)"/></g><g><path d="M292.672,226.73385c0,0 -0.18848,0.15027 -0.52285,0.1981c-0.84528,0.1209 -4.55624,0.65165 -5.98181,0.85554c-0.34856,0.04985 -0.20653,0.39949 -0.20653,0.39949c0,0 -0.27414,-0.56166 -0.14359,-0.958c0.51972,-1.57782 1.84336,-5.59628 2.13496,-6.48156c0.11105,-0.33713 0.26913,-0.29709 0.26913,-0.29709c0,0 0.12643,-0.10323 0.31607,0.17258c0.49698,0.72284 2.75659,4.0093 3.77382,5.48881c0.30549,0.44432 0.36081,0.62211 0.36081,0.62211z" fill="url(#color-15)"/><path d="M285.98652,227.93562c0,0 -0.04331,-0.19742 0.40849,-0.29095c1.56089,-0.32314 5.11599,-1.0541 5.81435,-1.15399c0.22387,-0.03202 0.45386,0.18172 0.45386,0.18172c0,0 0.13913,0.2753 0.03933,0.5783c-0.45278,1.3746 -1.73678,5.27272 -2.07501,6.29954c-0.15825,0.48043 -0.38887,0.57397 -0.38887,0.57397c0,0 -0.2169,0.01951 -0.48213,-0.36626c-0.567,-0.82468 -2.73163,-3.97301 -3.66525,-5.33091c-0.26658,-0.38773 -0.10476,-0.49143 -0.10476,-0.49143z" fill="url(#color-16)"/></g><g><path d="M284.55059,202.49561c0,-0.54401 1.71646,-0.98411 1.9587,-1.43097c0.53434,-0.98571 1.57801,-1.65507 2.77801,-1.65507c1.09713,0 2.06358,0.55951 2.62958,1.40876c0.33372,0.50072 1.96359,1.10217 1.96359,1.74905c0,0.54293 -1.57238,1.05385 -1.81372,1.50008c-0.5339,0.98716 -1.57836,1.65772 -2.77944,1.65772c-1.27853,0 -2.3796,-0.75983 -2.87627,-1.85255c-0.18082,-0.39783 -1.86043,-0.91154 -1.86043,-1.37702z" fill="#82a8ff"/><path d="M286.14743,202.56738c0,-1.69446 1.37363,-3.06809 3.06809,-3.06809c1.69446,0 3.06809,1.37363 3.06809,3.06809c0,1.69446 -1.37363,3.06809 -3.06809,3.06809c-1.69446,0 -3.06809,-1.37363 -3.06809,-3.06809z" fill="url(#color-17)"/><path d="M287.08042,202.56738c0,-1.17919 0.95592,-2.13511 2.13511,-2.13511c1.17919,0 2.1351,0.95592 2.1351,2.13511c0,1.17919 -0.95592,2.1351 -2.1351,2.1351c-1.17919,0 -2.13511,-0.95592 -2.13511,-2.1351z" fill="url(#color-18)"/></g><g><path d="M278.79276,220.66463c0,0 -0.22808,0.07802 -0.55903,0.01044c-0.83662,-0.17083 -4.50956,-0.92082 -5.92051,-1.20893c-0.34499,-0.07044 -0.32901,0.3066 -0.32901,0.3066c0,0 -0.06897,-0.62118 0.18743,-0.9504c1.02073,-1.31063 3.62035,-4.64859 4.19305,-5.38395c0.2181,-0.28004 0.35345,-0.1891 0.35345,-0.1891c0,0 0.15381,-0.05462 0.23948,0.26895c0.22452,0.84798 1.24535,4.70345 1.7049,6.43911c0.13801,0.52125 0.13022,0.70728 0.13022,0.70728z" fill="url(#color-19)"/><path d="M272.09308,219.54473c0,0 0.0257,-0.20048 0.48261,-0.13639c1.57853,0.2214 5.17214,0.73039 5.86334,0.87153c0.22158,0.04525 0.36615,0.32395 0.36615,0.32395c0,0 0.03829,0.30608 -0.15772,0.55776c-0.88926,1.14182 -3.41103,4.37982 -4.07531,5.23276c-0.3108,0.39907 -0.55945,0.40948 -0.55945,0.40948c0,0 -0.2108,-0.05468 -0.33062,-0.50723c-0.25616,-0.96745 -1.23407,-4.66087 -1.65585,-6.25386c-0.12043,-0.45486 0.06686,-0.498 0.06686,-0.498z" fill="url(#color-20)"/></g><path d="M272.77352,202.56738c0,-3.92792 3.18421,-7.11213 7.11213,-7.11213c3.92792,0 7.11213,3.18421 7.11213,7.11213c0,3.92792 -3.18421,7.11213 -7.11213,7.11213c-3.92792,0 -7.11213,-3.18421 -7.11213,-7.11213z" fill="url(#color-21)"/><path d="M282.10339,202.56738c0,-3.92792 3.18421,-7.11213 7.11213,-7.11213c3.92792,0 7.11213,3.18421 7.11213,7.11213c0,3.92792 -3.18421,7.11213 -7.11213,7.11213c-3.92792,0 -7.11213,-3.18421 -7.11213,-7.11213z" fill="url(#color-22)"/><path d="M247.8174,206.37661c0,-20.28718 16.44601,-36.73319 36.73319,-36.73319c20.28718,0 36.73319,16.44601 36.73319,36.73319c0,20.28718 -16.44601,36.73319 -36.73319,36.73319c-20.28718,0 -36.73319,-16.44601 -36.73319,-36.73319z" fill="url(#color-23)"/></g></g></g></svg>