<svg version="1.1" xmlns="http://www.w3.org/2000/svg" xmlns:xlink="http://www.w3.org/1999/xlink" width="364" height="376.75988" viewBox="0,0,364,376.75988"><defs><linearGradient x1="274.73505" y1="223.33955" x2="264.77008" y2="223.33955" gradientUnits="userSpaceOnUse" id="color-1"><stop offset="0" stop-color="#ff0000"/><stop offset="1" stop-color="#ff7100"/></linearGradient><linearGradient x1="275.57532" y1="223.33955" x2="265.61035" y2="223.33955" gradientUnits="userSpaceOnUse" id="color-2"><stop offset="0" stop-color="#ff0000"/><stop offset="1" stop-color="#ff7100"/></linearGradient><linearGradient x1="276.24753" y1="223.33955" x2="266.28257" y2="223.33955" gradientUnits="userSpaceOnUse" id="color-3"><stop offset="0" stop-color="#ff0000"/><stop offset="1" stop-color="#ff7100"/></linearGradient><linearGradient x1="277.0878" y1="223.33955" x2="267.12283" y2="223.33955" gradientUnits="userSpaceOnUse" id="color-4"><stop offset="0" stop-color="#ff0000"/><stop offset="1" stop-color="#ff7100"/></linearGradient><linearGradient x1="277.92806" y1="223.33955" x2="267.9631" y2="223.33955" gradientUnits="userSpaceOnUse" id="color-5"><stop offset="0" stop-color="#ff0000"/><stop offset="1" stop-color="#ff7100"/></linearGradient><linearGradient x1="278.76834" y1="223.33955" x2="268.80337" y2="223.33955" gradientUnits="userSpaceOnUse" id="color-6"><stop offset="0" stop-color="#ff0000"/><stop offset="1" stop-color="#ff7100"/></linearGradient><linearGradient x1="279.60861" y1="223.33955" x2="269.64365" y2="223.33955" gradientUnits="userSpaceOnUse" id="color-7"><stop offset="0" stop-color="#ff0000"/><stop offset="1" stop-color="#ff7100"/></linearGradient><linearGradient x1="274.73505" y1="201.36487" x2="264.77008" y2="201.36487" gradientUnits="userSpaceOnUse" id="color-8"><stop offset="0" stop-color="#ff0000"/><stop offset="1" stop-color="#ff7100"/></linearGradient><linearGradient x1="275.57532" y1="201.36487" x2="265.61035" y2="201.36487" gradientUnits="userSpaceOnUse" id="color-9"><stop offset="0" stop-color="#ff0000"/><stop offset="1" stop-color="#ff7100"/></linearGradient><linearGradient x1="276.24753" y1="201.36487" x2="266.28257" y2="201.36487" gradientUnits="userSpaceOnUse" id="color-10"><stop offset="0" stop-color="#ff0000"/><stop offset="1" stop-color="#ff7100"/></linearGradient><linearGradient x1="277.0878" y1="201.36487" x2="267.12283" y2="201.36487" gradientUnits="userSpaceOnUse" id="color-11"><stop offset="0" stop-color="#ff0000"/><stop offset="1" stop-color="#ff7100"/></linearGradient><linearGradient x1="277.92806" y1="201.36487" x2="267.9631" y2="201.36487" gradientUnits="userSpaceOnUse" id="color-12"><stop offset="0" stop-color="#ff0000"/><stop offset="1" stop-color="#ff7100"/></linearGradient><linearGradient x1="278.76834" y1="201.36487" x2="268.80337" y2="201.36487" gradientUnits="userSpaceOnUse" id="color-13"><stop offset="0" stop-color="#ff0000"/><stop offset="1" stop-color="#ff7100"/></linearGradient><linearGradient x1="279.60861" y1="201.36487" x2="269.64365" y2="201.36487" gradientUnits="userSpaceOnUse" id="color-14"><stop offset="0" stop-color="#ff0000"/><stop offset="1" stop-color="#ff7100"/></linearGradient><linearGradient x1="301.6485" y1="212.79477" x2="280.85288" y2="212.79477" gradientUnits="userSpaceOnUse" id="color-15"><stop offset="0" stop-color="#ff0000"/><stop offset="1" stop-color="#ff7166"/></linearGradient><linearGradient x1="313.60189" y1="212.79477" x2="297.63675" y2="212.79477" gradientUnits="userSpaceOnUse" id="color-16"><stop offset="0" stop-color="#740000"/><stop offset="1" stop-color="#ff0000"/></linearGradient><radialGradient cx="268.43841" cy="200.8607" r="10.39782" gradientUnits="userSpaceOnUse" id="color-17"><stop offset="0" stop-color="#ff6300"/><stop offset="1" stop-color="#ff6300" stop-opacity="0"/></radialGradient><radialGradient cx="268.43841" cy="223.10613" r="10.39782" gradientUnits="userSpaceOnUse" id="color-18"><stop offset="0" stop-color="#ff6300"/><stop offset="1" stop-color="#ff6300" stop-opacity="0"/></radialGradient><radialGradient cx="286.57748" cy="214.61101" r="33.49878" gradientUnits="userSpaceOnUse" id="color-19"><stop offset="0" stop-color="#ff4e00" stop-opacity="0.49799"/><stop offset="1" stop-color="#ff4e00" stop-opacity="0"/></radialGradient><linearGradient x1="360.77844" y1="220.55396" x2="360.77844" y2="198.51009" gradientUnits="userSpaceOnUse" id="color-20"><stop offset="0" stop-color="#ff0000"/><stop offset="1" stop-color="#ff7100"/></linearGradient><linearGradient x1="360.77844" y1="222.41275" x2="360.77844" y2="200.36887" gradientUnits="userSpaceOnUse" id="color-21"><stop offset="0" stop-color="#ff0000"/><stop offset="1" stop-color="#ff7100"/></linearGradient><linearGradient x1="360.77844" y1="223.8998" x2="360.77844" y2="201.85591" gradientUnits="userSpaceOnUse" id="color-22"><stop offset="0" stop-color="#ff0000"/><stop offset="1" stop-color="#ff7100"/></linearGradient><linearGradient x1="360.77844" y1="225.75859" x2="360.77844" y2="203.7147" gradientUnits="userSpaceOnUse" id="color-23"><stop offset="0" stop-color="#ff0000"/><stop offset="1" stop-color="#ff7100"/></linearGradient><linearGradient x1="360.77844" y1="227.61736" x2="360.77844" y2="205.5735" gradientUnits="userSpaceOnUse" id="color-24"><stop offset="0" stop-color="#ff0000"/><stop offset="1" stop-color="#ff7100"/></linearGradient><linearGradient x1="360.77844" y1="229.47616" x2="360.77844" y2="207.43229" gradientUnits="userSpaceOnUse" id="color-25"><stop offset="0" stop-color="#ff0000"/><stop offset="1" stop-color="#ff7100"/></linearGradient><linearGradient x1="360.77844" y1="231.33497" x2="360.77844" y2="209.29108" gradientUnits="userSpaceOnUse" id="color-26"><stop offset="0" stop-color="#ff0000"/><stop offset="1" stop-color="#ff7100"/></linearGradient><radialGradient cx="354.61683" cy="224.68265" r="2.03783" gradientUnits="userSpaceOnUse" id="color-27"><stop offset="0" stop-color="#ffffff"/><stop offset="1" stop-color="#ffffff" stop-opacity="0"/></radialGradient><radialGradient cx="365.77127" cy="224.68265" r="2.03783" gradientUnits="userSpaceOnUse" id="color-28"><stop offset="0" stop-color="#ffffff"/><stop offset="1" stop-color="#ffffff" stop-opacity="0"/></radialGradient><radialGradient cx="360.34421" cy="226.72048" r="21.10227" gradientUnits="userSpaceOnUse" id="color-29"><stop offset="0" stop-color="#ff6200" stop-opacity="0.48627"/><stop offset="1" stop-color="#ff6200" stop-opacity="0"/></radialGradient><radialGradient cx="360.34415" cy="209.73647" r="25.10253" gradientUnits="userSpaceOnUse" id="color-30"><stop offset="0" stop-color="#ff6300"/><stop offset="1" stop-color="#ff6300" stop-opacity="0"/></radialGradient><radialGradient cx="320" cy="143" r="182" gradientUnits="userSpaceOnUse" id="color-31"><stop offset="0" stop-color="#ff470a" stop-opacity="0.43922"/><stop offset="1" stop-color="#ff470a" stop-opacity="0"/></radialGradient></defs><g transform="translate(-138,51.75988)"><g data-paper-data="{&quot;isPaintingLayer&quot;:true}" fill-rule="nonzero" stroke-linecap="butt" stroke-linejoin="miter" stroke-miterlimit="10" stroke-dasharray="" stroke-dashoffset="0" style="mix-blend-mode: normal"><text transform="translate(173.75893,167.72156) scale(2.06013,2.06013)" font-size="40" xml:space="preserve" fill="#ff460a" fill-rule="nonzero" stroke="none" stroke-width="1" stroke-linecap="butt" stroke-linejoin="miter" stroke-miterlimit="10" stroke-dasharray="" stroke-dashoffset="0" font-family="&quot;MV Boli&quot;, Pixel" font-weight="normal" text-anchor="start" style="mix-blend-mode: normal"><tspan x="0" dy="0">Wave 3</tspan></text><text transform="translate(180.27074,57.5336) scale(0.5,0.5)" font-size="40" xml:space="preserve" fill="#66eeff" fill-rule="nonzero" stroke="none" stroke-width="1" stroke-linecap="butt" stroke-linejoin="miter" stroke-miterlimit="10" stroke-dasharray="" stroke-dashoffset="0" font-family="Pixel" font-weight="normal" text-anchor="start" style="mix-blend-mode: normal"><tspan x="0" dy="0"> </tspan></text><text transform="translate(139.27074,-26.4664) scale(0.5,0.5)" font-size="40" xml:space="preserve" fill="#6668ff" fill-rule="nonzero" stroke="none" stroke-width="1" stroke-linecap="butt" stroke-linejoin="miter" stroke-miterlimit="10" stroke-dasharray="" stroke-dashoffset="0" font-family="Pixel" font-weight="normal" text-anchor="start" style="mix-blend-mode: normal"><tspan x="0" dy="0"> </tspan></text><g><text transform="translate(263.0787,262.10979) scale(0.5,0.5)" font-size="40" xml:space="preserve" fill="#13f200" fill-rule="nonzero" stroke="none" stroke-width="1" stroke-linecap="butt" stroke-linejoin="miter" stroke-miterlimit="10" stroke-dasharray="" stroke-dashoffset="0" font-family="&quot;MV Boli&quot;, Pixel" font-weight="normal" text-anchor="start" style="mix-blend-mode: normal"><tspan x="0" dy="0">100%</tspan></text><g><g fill="#ff8383" stroke="#ffffff" stroke-width="1.5"><path d="M285.62089,220.94539h4.20135v16.63735c0,0 -1.40494,0 -2.10606,0c-0.69932,0 -2.09529,-1.23705 -2.09529,-2.35276c0,-2.74913 0,-14.2846 0,-14.2846z"/><path d="M297.84576,233.38139v4.20135c0,0 -8.22456,0 -10.29764,0c-0.89684,0 -1.92723,-1.61573 -1.92723,-2.35276c0,-0.65331 0,-1.8486 0,-1.8486z"/></g><g stroke="none" stroke-width="0.5"><path d="M272.26532,221.88437c-0.23028,-0.23757 -0.64341,-0.81651 -0.10753,-1.53102c0.26284,-0.35046 0.55831,-0.47261 0.82568,-0.48786c0.02,-0.2255 0.09377,-0.46094 0.17768,-0.65707c-0.32694,0.0605 -1.03325,0.08222 -1.33245,-0.75553c-0.39579,-1.10821 0.71242,-1.50401 0.71242,-1.50401c0.6899,-0.11472 1.46752,-0.69981 2.06971,-0.34414c1.7486,1.03279 0.75928,2.23228 0.71875,3.45422c-0.0105,0.31671 0.30065,2.28548 0.32325,2.62653c0.08573,1.29349 0.00257,2.62988 0.00208,3.92625l-0.01483,0.03375l0.0133,0.00078l-0.08067,1.3713c-0.03172,0.62158 -0.54575,1.11581 -1.17522,1.11581c-0.52936,0 -0.97708,-0.34953 -1.12497,-0.83039l-0.47828,-1.43484l0.0317,-0.01057c-0.02445,-0.04583 -0.04809,-0.09216 -0.07086,-0.13902c-0.21813,-0.44901 -0.05172,-0.9973 -0.09745,-1.49439c-0.10616,-1.15394 -0.32726,-2.20617 -0.39233,-3.33982z" fill="#ff4200"/><path d="M274.54443,229.878c0,0.75205 -0.75205,0.75205 -0.75205,0.75205l-0.47886,-0.04788c-0.74885,-0.2814 -1.44366,-0.55849 -2.25286,-0.59796c-0.09253,-0.00451 -2.14781,0.02301 -2.24988,-0.04347c-0.07228,-0.04708 -0.13921,-0.10002 -0.20194,-0.15758l-0.02349,0.02819l-0.63999,-0.53332c-0.16791,-0.13793 -0.27501,-0.34716 -0.27501,-0.58141c0,-0.17956 0.06293,-0.34442 0.16793,-0.47374c-0.50021,-0.23514 -0.97569,-0.66763 -1.01083,-0.76673c-0.12162,-0.34307 0.56853,-1.04497 1.11564,-1.44428h-0.70209c-0.41534,0 -0.75205,-0.33671 -0.75205,-0.75205c0,-0.38303 0.28634,-0.69917 0.65664,-0.74605l0.54963,-0.07852c0.1938,-0.24057 0.24961,-0.59496 0.37718,-0.88172c-0.69395,-0.15608 -1.41384,-0.24505 -2.00762,-0.61894c-0.53594,-0.33747 -1.35488,-0.76377 -1.29119,-1.3939c0.06512,-0.64423 0.99505,-0.83737 1.55037,-1.17036c0.06788,-0.04071 0.15424,-0.08292 0.24832,-0.12002c-0.16902,-0.0751 -0.32379,-0.17126 -0.44261,-0.30794c-0.03385,-0.03894 -0.06566,-0.07923 -0.0957,-0.12069l-0.01511,0.0126l-0.53384,-0.64061c-0.11072,-0.13097 -0.17747,-0.30031 -0.17747,-0.48524c0,-0.41534 0.3367,-0.75205 0.75205,-0.75205h0.9666c0.40249,0.00296 0.94778,0.29302 1.20742,-0.01454c0.42367,-0.50187 0.12011,-1.54837 0.70949,-1.83817c0.40557,-0.19942 0.88224,0.2081 1.33187,0.25378c1.10889,0.11266 2.06091,-0.03612 3.07928,0.12385c0.18541,0.18917 0.395,0.35455 0.62376,0.49114c0.09934,0.10094 0.20559,0.19507 0.31797,0.28162c0.00612,0.20231 0.17205,0.36444 0.37585,0.36444c0.02154,0 0.04267,-0.00181 0.06322,-0.0053c-0.00682,0.02299 -0.0147,0.04649 -0.0237,0.0705c-0.26406,0.70417 -0.96823,0.4401 -0.96823,0.4401c-1.25868,-0.49424 -2.45242,0.01741 -3.73652,-0.28638c-0.17825,-0.04217 -0.21634,-0.32286 -0.38653,-0.39061c-0.10674,-0.04249 0.19071,0.19048 0.16517,0.30249c-0.10376,0.45505 -0.19017,0.97586 -0.52967,1.29613c-0.23768,0.22422 -0.57903,0.33002 -0.94226,0.37887c0.37107,0.39316 0.61112,0.91676 0.50775,1.32422c-0.03549,0.13991 -0.77523,0.66848 -1.46643,0.93218c0.21695,0.04901 0.43168,0.10881 0.64344,0.17499c0.53173,0.16618 1.03795,0.40508 1.55692,0.60762l0.07296,0.10398l0.02768,-0.03321l0.63999,0.53332c0.16791,0.13793 0.27501,0.34717 0.27501,0.58142c0,0.39037 -0.29742,0.71126 -0.67802,0.74846l-0.34517,0.03835c0.07544,0.19699 0.14854,0.44731 0.21787,0.76036c0.12982,0.58619 -0.27848,1.16341 -0.66704,1.67153c0.40027,-0.01715 0.83469,-0.02026 0.99088,0.29228c0.20055,0.40131 0.01825,0.86356 -0.13451,1.32112c1.42878,-0.03059 2.55673,0.19506 3.88699,0.69293l-0.04926,-0.04789c0,0 0.75205,0 0.75205,0.75205z" fill="url(#color-1)"/><path d="M275.3847,229.878c0,0.75205 -0.75205,0.75205 -0.75205,0.75205l-0.47886,-0.04788c-0.74885,-0.2814 -1.44366,-0.55849 -2.25286,-0.59796c-0.09253,-0.00451 -2.14781,0.02301 -2.24988,-0.04347c-0.07228,-0.04708 -0.13921,-0.10002 -0.20194,-0.15758l-0.02349,0.02819l-0.63999,-0.53332c-0.16791,-0.13793 -0.27501,-0.34716 -0.27501,-0.58141c0,-0.17956 0.06293,-0.34442 0.16793,-0.47374c-0.50021,-0.23514 -0.97569,-0.66763 -1.01083,-0.76673c-0.12162,-0.34307 0.56853,-1.04497 1.11564,-1.44428h-0.70209c-0.41534,0 -0.75205,-0.33671 -0.75205,-0.75205c0,-0.38303 0.28634,-0.69917 0.65664,-0.74605l0.54963,-0.07852c0.1938,-0.24057 0.24961,-0.59496 0.37718,-0.88172c-0.69395,-0.15608 -1.41385,-0.24505 -2.00763,-0.61894c-0.53594,-0.33747 -1.35488,-0.76377 -1.29119,-1.3939c0.06512,-0.64423 0.99505,-0.83737 1.55037,-1.17036c0.06788,-0.04071 0.15424,-0.08292 0.24832,-0.12002c-0.16902,-0.0751 -0.32379,-0.17126 -0.44261,-0.30794c-0.03385,-0.03894 -0.06566,-0.07923 -0.0957,-0.12069l-0.01511,0.0126l-0.53384,-0.64061c-0.11072,-0.13097 -0.17747,-0.30031 -0.17747,-0.48524c0,-0.41534 0.3367,-0.75205 0.75205,-0.75205h0.9666c0.40249,0.00296 0.94778,0.29302 1.20742,-0.01454c0.42367,-0.50187 0.12011,-1.54837 0.70949,-1.83817c0.40557,-0.19942 0.88224,0.2081 1.33187,0.25378c1.10889,0.11266 2.06091,-0.03612 3.07928,0.12385c0.18541,0.18917 0.395,0.35455 0.62376,0.49114c0.09934,0.10094 0.20559,0.19507 0.31797,0.28162c0.00612,0.20231 0.17205,0.36444 0.37585,0.36444c0.02154,0 0.04267,-0.00181 0.06323,-0.0053c-0.00682,0.02299 -0.0147,0.04649 -0.0237,0.0705c-0.26406,0.70417 -0.96822,0.4401 -0.96822,0.4401c-1.25868,-0.49424 -2.45242,0.01741 -3.73652,-0.28638c-0.17825,-0.04217 -0.21634,-0.32286 -0.38653,-0.39061c-0.10674,-0.04249 0.19071,0.19048 0.16517,0.30249c-0.10376,0.45505 -0.19017,0.97586 -0.52967,1.29613c-0.23768,0.22422 -0.57903,0.33002 -0.94226,0.37887c0.37107,0.39316 0.61112,0.91676 0.50775,1.32422c-0.03549,0.13991 -0.77522,0.66848 -1.46643,0.93218c0.21695,0.04901 0.43168,0.10881 0.64344,0.17499c0.53173,0.16618 1.03795,0.40508 1.55692,0.60762l0.07296,0.10398l0.02768,-0.03321l0.63999,0.53332c0.16791,0.13793 0.27501,0.34717 0.27501,0.58142c0,0.39037 -0.29742,0.71126 -0.67802,0.74846l-0.34517,0.03835c0.07544,0.19699 0.14854,0.44731 0.21787,0.76036c0.12982,0.58619 -0.27848,1.16341 -0.66704,1.67153c0.40027,-0.01715 0.83469,-0.02026 0.99088,0.29228c0.20055,0.40131 0.01825,0.86356 -0.13451,1.32112c1.42878,-0.03059 2.55673,0.19506 3.88699,0.69293l-0.04926,-0.04789c0,0 0.75205,0 0.75205,0.75205z" fill="url(#color-2)"/><path d="M276.05691,229.878c0,0.75205 -0.75205,0.75205 -0.75205,0.75205l-0.47886,-0.04788c-0.74885,-0.2814 -1.44366,-0.55849 -2.25286,-0.59796c-0.09253,-0.00451 -2.14781,0.02301 -2.24988,-0.04347c-0.07228,-0.04708 -0.13921,-0.10002 -0.20194,-0.15758l-0.02349,0.02819l-0.63999,-0.53332c-0.16791,-0.13793 -0.27501,-0.34716 -0.27501,-0.58141c0,-0.17956 0.06293,-0.34442 0.16793,-0.47374c-0.50021,-0.23514 -0.97569,-0.66763 -1.01083,-0.76673c-0.12162,-0.34307 0.56853,-1.04497 1.11564,-1.44428h-0.70209c-0.41534,0 -0.75205,-0.33671 -0.75205,-0.75205c0,-0.38303 0.28634,-0.69917 0.65664,-0.74605l0.54963,-0.07852c0.1938,-0.24057 0.24961,-0.59496 0.37718,-0.88172c-0.69395,-0.15608 -1.41385,-0.24505 -2.00763,-0.61894c-0.53594,-0.33747 -1.35487,-0.76377 -1.29118,-1.3939c0.06512,-0.64423 0.99505,-0.83737 1.55037,-1.17036c0.06788,-0.04071 0.15425,-0.08292 0.24832,-0.12002c-0.16902,-0.0751 -0.32379,-0.17126 -0.44261,-0.30794c-0.03385,-0.03894 -0.06566,-0.07923 -0.0957,-0.12069l-0.01511,0.0126l-0.53384,-0.64061c-0.11072,-0.13097 -0.17747,-0.30031 -0.17747,-0.48524c0,-0.41534 0.3367,-0.75205 0.75205,-0.75205h0.9666c0.40249,0.00296 0.94778,0.29302 1.20742,-0.01454c0.42367,-0.50187 0.12011,-1.54837 0.70949,-1.83817c0.40557,-0.19942 0.88224,0.2081 1.33187,0.25378c1.10889,0.11266 2.06091,-0.03612 3.07928,0.12385c0.18541,0.18917 0.395,0.35455 0.62376,0.49114c0.09934,0.10094 0.20559,0.19507 0.31797,0.28162c0.00612,0.20231 0.17205,0.36444 0.37585,0.36444c0.02154,0 0.04267,-0.00181 0.06322,-0.0053c-0.00682,0.02299 -0.0147,0.04649 -0.0237,0.0705c-0.26406,0.70417 -0.96822,0.4401 -0.96822,0.4401c-1.25868,-0.49424 -2.45242,0.01741 -3.73652,-0.28638c-0.17825,-0.04217 -0.21634,-0.32286 -0.38653,-0.39061c-0.10674,-0.04249 0.19071,0.19048 0.16517,0.30249c-0.10376,0.45505 -0.19017,0.97586 -0.52967,1.29613c-0.23768,0.22422 -0.57903,0.33002 -0.94226,0.37887c0.37107,0.39316 0.61112,0.91676 0.50775,1.32422c-0.03549,0.13991 -0.77522,0.66848 -1.46643,0.93218c0.21695,0.04901 0.43168,0.10881 0.64344,0.17499c0.53173,0.16618 1.03795,0.40508 1.55692,0.60762l0.07296,0.10398l0.02768,-0.03321l0.63999,0.53332c0.16791,0.13793 0.27501,0.34717 0.27501,0.58142c0,0.39037 -0.29742,0.71126 -0.67802,0.74846l-0.34517,0.03835c0.07544,0.19699 0.14854,0.44731 0.21787,0.76036c0.12982,0.58619 -0.27848,1.16341 -0.66704,1.67153c0.40027,-0.01715 0.83469,-0.02026 0.99088,0.29228c0.20055,0.40131 0.01825,0.86356 -0.13451,1.32112c1.42878,-0.03059 2.55673,0.19506 3.88699,0.69293l-0.04926,-0.04789c0,0 0.75205,0 0.75205,0.75205z" fill="url(#color-3)"/><path d="M276.89719,229.878c0,0.75205 -0.75205,0.75205 -0.75205,0.75205l-0.47886,-0.04788c-0.74885,-0.2814 -1.44366,-0.55849 -2.25286,-0.59796c-0.09253,-0.00451 -2.14781,0.02301 -2.24988,-0.04347c-0.07228,-0.04708 -0.13921,-0.10002 -0.20194,-0.15758l-0.02349,0.02819l-0.63999,-0.53332c-0.16791,-0.13793 -0.27501,-0.34716 -0.27501,-0.58141c0,-0.17956 0.06292,-0.34442 0.16793,-0.47374c-0.50021,-0.23514 -0.97569,-0.66763 -1.01083,-0.76673c-0.12162,-0.34307 0.56853,-1.04497 1.11564,-1.44428h-0.70209c-0.41534,0 -0.75205,-0.33671 -0.75205,-0.75205c0,-0.38303 0.28634,-0.69917 0.65664,-0.74605l0.54963,-0.07852c0.1938,-0.24057 0.24961,-0.59496 0.37718,-0.88172c-0.69395,-0.15608 -1.41385,-0.24505 -2.00763,-0.61894c-0.53594,-0.33747 -1.35488,-0.76377 -1.29119,-1.3939c0.06512,-0.64423 0.99505,-0.83737 1.55037,-1.17036c0.06788,-0.04071 0.15424,-0.08292 0.24832,-0.12002c-0.16902,-0.0751 -0.32379,-0.17126 -0.44261,-0.30794c-0.03385,-0.03894 -0.06566,-0.07923 -0.0957,-0.12069l-0.01511,0.0126l-0.53384,-0.64061c-0.11072,-0.13097 -0.17747,-0.30031 -0.17747,-0.48524c0,-0.41534 0.3367,-0.75205 0.75205,-0.75205h0.9666c0.40249,0.00296 0.94778,0.29302 1.20742,-0.01454c0.42367,-0.50187 0.12011,-1.54837 0.70949,-1.83817c0.40557,-0.19942 0.88224,0.2081 1.33187,0.25378c1.10889,0.11266 2.06091,-0.03612 3.07928,0.12385c0.18541,0.18917 0.395,0.35455 0.62376,0.49114c0.09934,0.10094 0.20559,0.19507 0.31797,0.28162c0.00612,0.20231 0.17205,0.36444 0.37585,0.36444c0.02154,0 0.04267,-0.00181 0.06323,-0.0053c-0.00682,0.02299 -0.0147,0.04649 -0.0237,0.0705c-0.26406,0.70417 -0.96823,0.4401 -0.96823,0.4401c-1.25868,-0.49424 -2.45241,0.01741 -3.73652,-0.28638c-0.17825,-0.04217 -0.21634,-0.32286 -0.38653,-0.39061c-0.10674,-0.04249 0.19071,0.19048 0.16517,0.30249c-0.10376,0.45505 -0.19017,0.97586 -0.52967,1.29613c-0.23768,0.22422 -0.57903,0.33002 -0.94226,0.37887c0.37107,0.39316 0.61112,0.91676 0.50775,1.32422c-0.03549,0.13991 -0.77522,0.66848 -1.46643,0.93218c0.21695,0.04901 0.43168,0.10881 0.64344,0.17499c0.53173,0.16618 1.03795,0.40508 1.55692,0.60762l0.07296,0.10398l0.02768,-0.03321l0.63999,0.53332c0.16791,0.13793 0.27501,0.34717 0.27501,0.58142c0,0.39037 -0.29742,0.71126 -0.67802,0.74846l-0.34517,0.03835c0.07544,0.19699 0.14854,0.44731 0.21787,0.76036c0.12982,0.58619 -0.27848,1.16341 -0.66704,1.67153c0.40027,-0.01715 0.83469,-0.02026 0.99088,0.29228c0.20055,0.40131 0.01825,0.86356 -0.13451,1.32112c1.42878,-0.03059 2.55673,0.19506 3.88699,0.69293l-0.04926,-0.04789c0,0 0.75205,0 0.75205,0.75205z" fill="url(#color-4)"/><path d="M277.73746,229.878c0,0.75205 -0.75205,0.75205 -0.75205,0.75205l-0.47886,-0.04788c-0.74885,-0.2814 -1.44366,-0.55849 -2.25286,-0.59796c-0.09253,-0.00451 -2.14781,0.02301 -2.24988,-0.04347c-0.07228,-0.04708 -0.13921,-0.10002 -0.20194,-0.15758l-0.02349,0.02819l-0.63999,-0.53332c-0.16791,-0.13793 -0.27501,-0.34716 -0.27501,-0.58141c0,-0.17956 0.06293,-0.34442 0.16793,-0.47374c-0.50021,-0.23514 -0.97569,-0.66763 -1.01083,-0.76673c-0.12162,-0.34307 0.56853,-1.04497 1.11564,-1.44428h-0.70209c-0.41534,0 -0.75205,-0.33671 -0.75205,-0.75205c0,-0.38303 0.28634,-0.69917 0.65664,-0.74605l0.54963,-0.07852c0.1938,-0.24057 0.24961,-0.59496 0.37718,-0.88172c-0.69395,-0.15608 -1.41385,-0.24505 -2.00763,-0.61894c-0.53594,-0.33747 -1.35488,-0.76377 -1.29119,-1.3939c0.06512,-0.64423 0.99505,-0.83737 1.55037,-1.17036c0.06788,-0.04071 0.15425,-0.08292 0.24832,-0.12002c-0.16902,-0.0751 -0.32379,-0.17126 -0.44261,-0.30794c-0.03385,-0.03894 -0.06566,-0.07923 -0.0957,-0.12069l-0.01511,0.0126l-0.53384,-0.64061c-0.11072,-0.13097 -0.17747,-0.30031 -0.17747,-0.48524c0,-0.41534 0.3367,-0.75205 0.75205,-0.75205h0.9666c0.40249,0.00296 0.94778,0.29302 1.20742,-0.01454c0.42367,-0.50187 0.12011,-1.54837 0.70949,-1.83817c0.40557,-0.19942 0.88224,0.2081 1.33187,0.25378c1.10889,0.11266 2.06091,-0.03612 3.07928,0.12385c0.18541,0.18917 0.39499,0.35455 0.62376,0.49114c0.09934,0.10094 0.20559,0.19507 0.31797,0.28162c0.00612,0.20231 0.17205,0.36444 0.37585,0.36444c0.02154,0 0.04267,-0.00181 0.06323,-0.0053c-0.00682,0.02299 -0.0147,0.04649 -0.0237,0.0705c-0.26406,0.70417 -0.96822,0.4401 -0.96822,0.4401c-1.25868,-0.49424 -2.45242,0.01741 -3.73652,-0.28638c-0.17825,-0.04217 -0.21634,-0.32286 -0.38653,-0.39061c-0.10674,-0.04249 0.19071,0.19048 0.16517,0.30249c-0.10376,0.45505 -0.19017,0.97586 -0.52967,1.29613c-0.23768,0.22422 -0.57903,0.33002 -0.94226,0.37887c0.37107,0.39316 0.61112,0.91676 0.50775,1.32422c-0.03549,0.13991 -0.77522,0.66848 -1.46643,0.93218c0.21695,0.04901 0.43168,0.10881 0.64344,0.17499c0.53173,0.16618 1.03795,0.40508 1.55692,0.60762l0.07297,0.10398l0.02768,-0.03321l0.63999,0.53332c0.16791,0.13793 0.27501,0.34717 0.27501,0.58142c0,0.39037 -0.29742,0.71126 -0.67802,0.74846l-0.34517,0.03835c0.07544,0.19699 0.14854,0.44731 0.21787,0.76036c0.12982,0.58619 -0.27848,1.16341 -0.66704,1.67153c0.40027,-0.01715 0.83469,-0.02026 0.99088,0.29228c0.20055,0.40131 0.01825,0.86356 -0.13451,1.32112c1.42878,-0.03059 2.55673,0.19506 3.88699,0.69293l-0.04926,-0.04789c0,0 0.75205,0 0.75205,0.75205z" fill="url(#color-5)"/><path d="M278.57773,229.878c0,0.75205 -0.75205,0.75205 -0.75205,0.75205l-0.47886,-0.04788c-0.74885,-0.2814 -1.44366,-0.55849 -2.25286,-0.59796c-0.09253,-0.00451 -2.14781,0.02301 -2.24988,-0.04347c-0.07228,-0.04708 -0.13921,-0.10002 -0.20194,-0.15758l-0.02349,0.02819l-0.63999,-0.53332c-0.16791,-0.13793 -0.27501,-0.34716 -0.27501,-0.58141c0,-0.17956 0.06293,-0.34442 0.16793,-0.47374c-0.50021,-0.23514 -0.97569,-0.66763 -1.01083,-0.76673c-0.12162,-0.34307 0.56853,-1.04497 1.11564,-1.44428h-0.70209c-0.41534,0 -0.75205,-0.33671 -0.75205,-0.75205c0,-0.38303 0.28634,-0.69917 0.65664,-0.74605l0.54963,-0.07852c0.1938,-0.24057 0.24961,-0.59496 0.37718,-0.88172c-0.69395,-0.15608 -1.41385,-0.24505 -2.00763,-0.61894c-0.53594,-0.33747 -1.35487,-0.76377 -1.29118,-1.3939c0.06512,-0.64423 0.99505,-0.83737 1.55037,-1.17036c0.06788,-0.04071 0.15424,-0.08292 0.24832,-0.12002c-0.16902,-0.0751 -0.32379,-0.17126 -0.44261,-0.30794c-0.03385,-0.03894 -0.06566,-0.07923 -0.0957,-0.12069l-0.01511,0.0126l-0.53384,-0.64061c-0.11072,-0.13097 -0.17747,-0.30031 -0.17747,-0.48524c0,-0.41534 0.3367,-0.75205 0.75205,-0.75205h0.9666c0.40249,0.00296 0.94778,0.29302 1.20742,-0.01454c0.42367,-0.50187 0.12011,-1.54837 0.70949,-1.83817c0.40557,-0.19942 0.88224,0.2081 1.33187,0.25378c1.10889,0.11266 2.06091,-0.03612 3.07928,0.12385c0.18541,0.18917 0.395,0.35455 0.62376,0.49114c0.09934,0.10094 0.20559,0.19507 0.31797,0.28162c0.00612,0.20231 0.17205,0.36444 0.37585,0.36444c0.02154,0 0.04267,-0.00181 0.06322,-0.0053c-0.00682,0.02299 -0.0147,0.04649 -0.0237,0.0705c-0.26406,0.70417 -0.96822,0.4401 -0.96822,0.4401c-1.25868,-0.49424 -2.45242,0.01741 -3.73652,-0.28638c-0.17825,-0.04217 -0.21634,-0.32286 -0.38653,-0.39061c-0.10674,-0.04249 0.19071,0.19048 0.16517,0.30249c-0.10376,0.45505 -0.19017,0.97586 -0.52967,1.29613c-0.23768,0.22422 -0.57903,0.33002 -0.94226,0.37887c0.37107,0.39316 0.61112,0.91676 0.50775,1.32422c-0.03549,0.13991 -0.77522,0.66848 -1.46643,0.93218c0.21695,0.04901 0.43168,0.10881 0.64344,0.17499c0.53173,0.16618 1.03795,0.40508 1.55692,0.60762l0.07296,0.10398l0.02768,-0.03321l0.63999,0.53332c0.16791,0.13793 0.27501,0.34717 0.27501,0.58142c0,0.39037 -0.29742,0.71126 -0.67802,0.74846l-0.34517,0.03835c0.07544,0.19699 0.14854,0.44731 0.21787,0.76036c0.12982,0.58619 -0.27848,1.16341 -0.66704,1.67153c0.40027,-0.01715 0.83469,-0.02026 0.99088,0.29228c0.20055,0.40131 0.01825,0.86356 -0.13451,1.32112c1.42878,-0.03059 2.55673,0.19506 3.88699,0.69293l-0.04926,-0.04789c0,0 0.75205,0 0.75205,0.75205z" fill="url(#color-6)"/><path d="M279.41799,229.878c0,0.75205 -0.75205,0.75205 -0.75205,0.75205l-0.47886,-0.04788c-0.74885,-0.2814 -1.44366,-0.55849 -2.25286,-0.59796c-0.09253,-0.00451 -2.14781,0.02301 -2.24988,-0.04347c-0.07228,-0.04708 -0.13921,-0.10002 -0.20194,-0.15758l-0.02349,0.02819l-0.63999,-0.53332c-0.16791,-0.13793 -0.27501,-0.34716 -0.27501,-0.58141c0,-0.17956 0.06292,-0.34442 0.16793,-0.47374c-0.50021,-0.23514 -0.97569,-0.66763 -1.01083,-0.76673c-0.12162,-0.34307 0.56853,-1.04497 1.11564,-1.44428h-0.70209c-0.41534,0 -0.75205,-0.33671 -0.75205,-0.75205c0,-0.38303 0.28634,-0.69917 0.65664,-0.74605l0.54963,-0.07852c0.1938,-0.24057 0.24961,-0.59496 0.37718,-0.88172c-0.69395,-0.15608 -1.41385,-0.24505 -2.00763,-0.61894c-0.53594,-0.33747 -1.35488,-0.76377 -1.29119,-1.3939c0.06512,-0.64423 0.99505,-0.83737 1.55037,-1.17036c0.06788,-0.04071 0.15424,-0.08292 0.24832,-0.12002c-0.16902,-0.0751 -0.32379,-0.17126 -0.44261,-0.30794c-0.03385,-0.03894 -0.06566,-0.07923 -0.0957,-0.12069l-0.01511,0.0126l-0.53384,-0.64061c-0.11072,-0.13097 -0.17747,-0.30031 -0.17747,-0.48524c0,-0.41534 0.3367,-0.75205 0.75205,-0.75205h0.9666c0.40249,0.00296 0.94778,0.29302 1.20742,-0.01454c0.42367,-0.50187 0.12011,-1.54837 0.70949,-1.83817c0.40557,-0.19942 0.88224,0.2081 1.33187,0.25378c1.10889,0.11266 2.06091,-0.03612 3.07928,0.12385c0.18541,0.18917 0.395,0.35455 0.62376,0.49114c0.09934,0.10094 0.20559,0.19507 0.31797,0.28162c0.00612,0.20231 0.17205,0.36444 0.37585,0.36444c0.02154,0 0.04267,-0.00181 0.06323,-0.0053c-0.00682,0.02299 -0.0147,0.04649 -0.0237,0.0705c-0.26406,0.70417 -0.96823,0.4401 -0.96823,0.4401c-1.25868,-0.49424 -2.45241,0.01741 -3.73652,-0.28638c-0.17825,-0.04217 -0.21634,-0.32286 -0.38653,-0.39061c-0.10674,-0.04249 0.19071,0.19048 0.16517,0.30249c-0.10376,0.45505 -0.19017,0.97586 -0.52967,1.29613c-0.23768,0.22422 -0.57903,0.33002 -0.94226,0.37887c0.37107,0.39316 0.61112,0.91676 0.50775,1.32422c-0.03549,0.13991 -0.77522,0.66848 -1.46643,0.93218c0.21695,0.04901 0.43168,0.10881 0.64344,0.17499c0.53173,0.16618 1.03795,0.40508 1.55692,0.60762l0.07296,0.10398l0.02768,-0.03321l0.63999,0.53332c0.16791,0.13793 0.27501,0.34717 0.27501,0.58142c0,0.39037 -0.29742,0.71126 -0.67802,0.74846l-0.34517,0.03835c0.07544,0.19699 0.14854,0.44731 0.21787,0.76036c0.12982,0.58619 -0.27848,1.16341 -0.66704,1.67153c0.40027,-0.01715 0.83469,-0.02026 0.99088,0.29228c0.20055,0.40131 0.01825,0.86356 -0.13451,1.32112c1.42878,-0.03059 2.55673,0.19506 3.88699,0.69293l-0.04926,-0.04789c0,0 0.75205,0 0.75205,0.75205z" fill="url(#color-7)"/></g><path d="M286.96532,223.42069l-12.22487,10.20823v-20.41645z" fill="#ff7166" stroke="#ffffff" stroke-width="1.5"/><g stroke="none" stroke-width="0.5"><path d="M272.26532,199.90969c-0.23028,-0.23757 -0.64341,-0.81651 -0.10753,-1.53102c0.26284,-0.35046 0.55831,-0.47261 0.82568,-0.48786c0.02,-0.2255 0.09377,-0.46094 0.17768,-0.65707c-0.32694,0.0605 -1.03325,0.08222 -1.33245,-0.75553c-0.39579,-1.10821 0.71242,-1.50401 0.71242,-1.50401c0.6899,-0.11472 1.46752,-0.69981 2.06971,-0.34414c1.7486,1.03279 0.75928,2.23228 0.71875,3.45422c-0.0105,0.31671 0.30065,2.28548 0.32325,2.62653c0.08573,1.29349 0.00257,2.62988 0.00208,3.92625l-0.01483,0.03375l0.0133,0.00078l-0.08067,1.3713c-0.03172,0.62158 -0.54575,1.11581 -1.17522,1.11581c-0.52936,0 -0.97708,-0.34953 -1.12497,-0.83039l-0.47828,-1.43484l0.0317,-0.01057c-0.02445,-0.04583 -0.04809,-0.09216 -0.07086,-0.13902c-0.21813,-0.44901 -0.05172,-0.9973 -0.09745,-1.49439c-0.10616,-1.15394 -0.32726,-2.20617 -0.39233,-3.33982z" fill="#ff4200"/><path d="M274.54443,207.90332c0,0.75205 -0.75205,0.75205 -0.75205,0.75205l-0.47886,-0.04789c-0.74885,-0.28141 -1.44366,-0.55849 -2.25286,-0.59796c-0.09253,-0.00451 -2.14781,0.02301 -2.24988,-0.04347c-0.07228,-0.04708 -0.13921,-0.10002 -0.20194,-0.15758l-0.02349,0.02819l-0.63999,-0.53332c-0.16791,-0.13793 -0.27501,-0.34717 -0.27501,-0.58142c0,-0.17956 0.06293,-0.34442 0.16793,-0.47374c-0.50021,-0.23514 -0.97569,-0.66763 -1.01083,-0.76673c-0.12162,-0.34307 0.56853,-1.04497 1.11564,-1.44428h-0.70209c-0.41534,0 -0.75205,-0.33671 -0.75205,-0.75205c0,-0.38303 0.28634,-0.69918 0.65664,-0.74606l0.54963,-0.07851c0.1938,-0.24057 0.24961,-0.59496 0.37718,-0.88172c-0.69395,-0.15608 -1.41384,-0.24505 -2.00762,-0.61894c-0.53594,-0.33748 -1.35488,-0.76377 -1.29119,-1.3939c0.06512,-0.64423 0.99505,-0.83737 1.55037,-1.17036c0.06788,-0.04071 0.15424,-0.08292 0.24832,-0.12002c-0.16902,-0.0751 -0.32379,-0.17126 -0.44261,-0.30794c-0.03385,-0.03894 -0.06566,-0.07923 -0.0957,-0.12069l-0.01511,0.0126l-0.53384,-0.64061c-0.11072,-0.13097 -0.17747,-0.30031 -0.17747,-0.48524c0,-0.41534 0.3367,-0.75205 0.75205,-0.75205h0.9666c0.40249,0.00296 0.94778,0.29302 1.20742,-0.01454c0.42367,-0.50187 0.12011,-1.54837 0.70949,-1.83817c0.40557,-0.19942 0.88224,0.2081 1.33187,0.25378c1.10889,0.11266 2.06091,-0.03612 3.07928,0.12385c0.18541,0.18917 0.395,0.35455 0.62376,0.49114c0.09934,0.10094 0.20559,0.19507 0.31797,0.28162c0.00612,0.20231 0.17205,0.36444 0.37585,0.36444c0.02154,0 0.04267,-0.00181 0.06322,-0.0053c-0.00682,0.02299 -0.0147,0.04649 -0.0237,0.0705c-0.26406,0.70417 -0.96823,0.4401 -0.96823,0.4401c-1.25868,-0.49424 -2.45242,0.0174 -3.73652,-0.28638c-0.17825,-0.04217 -0.21634,-0.32286 -0.38653,-0.39061c-0.10674,-0.04249 0.19071,0.19048 0.16517,0.30249c-0.10376,0.45505 -0.19017,0.97586 -0.52967,1.29613c-0.23768,0.22422 -0.57903,0.33002 -0.94226,0.37887c0.37107,0.39316 0.61112,0.91676 0.50775,1.32423c-0.03549,0.13992 -0.77523,0.66847 -1.46643,0.93218c0.21695,0.04901 0.43168,0.10881 0.64344,0.17499c0.53173,0.16619 1.03795,0.40508 1.55692,0.60761l0.07296,0.10398l0.02768,-0.03321l0.63999,0.53332c0.16791,0.13793 0.27501,0.34717 0.27501,0.58142c0,0.39037 -0.29742,0.71126 -0.67802,0.74846l-0.34517,0.03835c0.07544,0.19699 0.14854,0.44731 0.21787,0.76036c0.12982,0.58619 -0.27848,1.16341 -0.66704,1.67153c0.40027,-0.01715 0.83469,-0.02026 0.99088,0.29228c0.20055,0.40131 0.01825,0.86356 -0.13451,1.32112c1.42878,-0.03059 2.55673,0.19506 3.88699,0.69293l-0.04926,-0.04789c0,0 0.75205,0 0.75205,0.75205z" fill="url(#color-8)"/><path d="M275.3847,207.90332c0,0.75205 -0.75205,0.75205 -0.75205,0.75205l-0.47886,-0.04789c-0.74885,-0.28141 -1.44366,-0.55849 -2.25286,-0.59796c-0.09253,-0.00451 -2.14781,0.02301 -2.24988,-0.04347c-0.07228,-0.04708 -0.13921,-0.10002 -0.20194,-0.15758l-0.02349,0.02819l-0.63999,-0.53332c-0.16791,-0.13793 -0.27501,-0.34717 -0.27501,-0.58142c0,-0.17956 0.06293,-0.34442 0.16793,-0.47374c-0.50021,-0.23514 -0.97569,-0.66763 -1.01083,-0.76673c-0.12162,-0.34307 0.56853,-1.04497 1.11564,-1.44428h-0.70209c-0.41534,0 -0.75205,-0.33671 -0.75205,-0.75205c0,-0.38303 0.28634,-0.69918 0.65664,-0.74606l0.54963,-0.07851c0.1938,-0.24057 0.24961,-0.59496 0.37718,-0.88172c-0.69395,-0.15608 -1.41385,-0.24505 -2.00763,-0.61894c-0.53594,-0.33748 -1.35488,-0.76377 -1.29119,-1.3939c0.06512,-0.64423 0.99505,-0.83737 1.55037,-1.17036c0.06788,-0.04071 0.15424,-0.08292 0.24832,-0.12002c-0.16902,-0.0751 -0.32379,-0.17126 -0.44261,-0.30794c-0.03385,-0.03894 -0.06566,-0.07923 -0.0957,-0.12069l-0.01511,0.0126l-0.53384,-0.64061c-0.11072,-0.13097 -0.17747,-0.30031 -0.17747,-0.48524c0,-0.41534 0.3367,-0.75205 0.75205,-0.75205h0.9666c0.40249,0.00296 0.94778,0.29302 1.20742,-0.01454c0.42367,-0.50187 0.12011,-1.54837 0.70949,-1.83817c0.40557,-0.19942 0.88224,0.2081 1.33187,0.25378c1.10889,0.11266 2.06091,-0.03612 3.07928,0.12385c0.18541,0.18917 0.395,0.35455 0.62376,0.49114c0.09934,0.10094 0.20559,0.19507 0.31797,0.28162c0.00612,0.20231 0.17205,0.36444 0.37585,0.36444c0.02154,0 0.04267,-0.00181 0.06323,-0.0053c-0.00682,0.02299 -0.0147,0.04649 -0.0237,0.0705c-0.26406,0.70417 -0.96822,0.4401 -0.96822,0.4401c-1.25868,-0.49424 -2.45242,0.0174 -3.73652,-0.28638c-0.17825,-0.04217 -0.21634,-0.32286 -0.38653,-0.39061c-0.10674,-0.04249 0.19071,0.19048 0.16517,0.30249c-0.10376,0.45505 -0.19017,0.97586 -0.52967,1.29613c-0.23768,0.22422 -0.57903,0.33002 -0.94226,0.37887c0.37107,0.39316 0.61112,0.91676 0.50775,1.32423c-0.03549,0.13992 -0.77522,0.66847 -1.46643,0.93218c0.21695,0.04901 0.43168,0.10881 0.64344,0.17499c0.53173,0.16619 1.03795,0.40508 1.55692,0.60761l0.07296,0.10398l0.02768,-0.03321l0.63999,0.53332c0.16791,0.13793 0.27501,0.34717 0.27501,0.58142c0,0.39037 -0.29742,0.71126 -0.67802,0.74846l-0.34517,0.03835c0.07544,0.19699 0.14854,0.44731 0.21787,0.76036c0.12982,0.58619 -0.27848,1.16341 -0.66704,1.67153c0.40027,-0.01715 0.83469,-0.02026 0.99088,0.29228c0.20055,0.40131 0.01825,0.86356 -0.13451,1.32112c1.42878,-0.03059 2.55673,0.19506 3.88699,0.69293l-0.04926,-0.04789c0,0 0.75205,0 0.75205,0.75205z" fill="url(#color-9)"/><path d="M276.05691,207.90332c0,0.75205 -0.75205,0.75205 -0.75205,0.75205l-0.47886,-0.04789c-0.74885,-0.28141 -1.44366,-0.55849 -2.25286,-0.59796c-0.09253,-0.00451 -2.14781,0.02301 -2.24988,-0.04347c-0.07228,-0.04708 -0.13921,-0.10002 -0.20194,-0.15758l-0.02349,0.02819l-0.63999,-0.53332c-0.16791,-0.13793 -0.27501,-0.34717 -0.27501,-0.58142c0,-0.17956 0.06293,-0.34442 0.16793,-0.47374c-0.50021,-0.23514 -0.97569,-0.66763 -1.01083,-0.76673c-0.12162,-0.34307 0.56853,-1.04497 1.11564,-1.44428h-0.70209c-0.41534,0 -0.75205,-0.33671 -0.75205,-0.75205c0,-0.38303 0.28634,-0.69918 0.65664,-0.74606l0.54963,-0.07851c0.1938,-0.24057 0.24961,-0.59496 0.37718,-0.88172c-0.69395,-0.15608 -1.41385,-0.24505 -2.00763,-0.61894c-0.53594,-0.33748 -1.35487,-0.76377 -1.29118,-1.3939c0.06512,-0.64423 0.99505,-0.83737 1.55037,-1.17036c0.06788,-0.04071 0.15425,-0.08292 0.24832,-0.12002c-0.16902,-0.0751 -0.32379,-0.17126 -0.44261,-0.30794c-0.03385,-0.03894 -0.06566,-0.07923 -0.0957,-0.12069l-0.01511,0.0126l-0.53384,-0.64061c-0.11072,-0.13097 -0.17747,-0.30031 -0.17747,-0.48524c0,-0.41534 0.3367,-0.75205 0.75205,-0.75205h0.9666c0.40249,0.00296 0.94778,0.29302 1.20742,-0.01454c0.42367,-0.50187 0.12011,-1.54837 0.70949,-1.83817c0.40557,-0.19942 0.88224,0.2081 1.33187,0.25378c1.10889,0.11266 2.06091,-0.03612 3.07928,0.12385c0.18541,0.18917 0.395,0.35455 0.62376,0.49114c0.09934,0.10094 0.20559,0.19507 0.31797,0.28162c0.00612,0.20231 0.17205,0.36444 0.37585,0.36444c0.02154,0 0.04267,-0.00181 0.06322,-0.0053c-0.00682,0.02299 -0.0147,0.04649 -0.0237,0.0705c-0.26406,0.70417 -0.96822,0.4401 -0.96822,0.4401c-1.25868,-0.49424 -2.45242,0.0174 -3.73652,-0.28638c-0.17825,-0.04217 -0.21634,-0.32286 -0.38653,-0.39061c-0.10674,-0.04249 0.19071,0.19048 0.16517,0.30249c-0.10376,0.45505 -0.19017,0.97586 -0.52967,1.29613c-0.23768,0.22422 -0.57903,0.33002 -0.94226,0.37887c0.37107,0.39316 0.61112,0.91676 0.50775,1.32423c-0.03549,0.13992 -0.77522,0.66847 -1.46643,0.93218c0.21695,0.04901 0.43168,0.10881 0.64344,0.17499c0.53173,0.16619 1.03795,0.40508 1.55692,0.60761l0.07296,0.10398l0.02768,-0.03321l0.63999,0.53332c0.16791,0.13793 0.27501,0.34717 0.27501,0.58142c0,0.39037 -0.29742,0.71126 -0.67802,0.74846l-0.34517,0.03835c0.07544,0.19699 0.14854,0.44731 0.21787,0.76036c0.12982,0.58619 -0.27848,1.16341 -0.66704,1.67153c0.40027,-0.01715 0.83469,-0.02026 0.99088,0.29228c0.20055,0.40131 0.01825,0.86356 -0.13451,1.32112c1.42878,-0.03059 2.55673,0.19506 3.88699,0.69293l-0.04926,-0.04789c0,0 0.75205,0 0.75205,0.75205z" fill="url(#color-10)"/><path d="M276.89719,207.90332c0,0.75205 -0.75205,0.75205 -0.75205,0.75205l-0.47886,-0.04789c-0.74885,-0.28141 -1.44366,-0.55849 -2.25286,-0.59796c-0.09253,-0.00451 -2.14781,0.02301 -2.24988,-0.04347c-0.07228,-0.04708 -0.13921,-0.10002 -0.20194,-0.15758l-0.02349,0.02819l-0.63999,-0.53332c-0.16791,-0.13793 -0.27501,-0.34717 -0.27501,-0.58142c0,-0.17956 0.06292,-0.34442 0.16793,-0.47374c-0.50021,-0.23514 -0.97569,-0.66763 -1.01083,-0.76673c-0.12162,-0.34307 0.56853,-1.04497 1.11564,-1.44428h-0.70209c-0.41534,0 -0.75205,-0.33671 -0.75205,-0.75205c0,-0.38303 0.28634,-0.69918 0.65664,-0.74606l0.54963,-0.07851c0.1938,-0.24057 0.24961,-0.59496 0.37718,-0.88172c-0.69395,-0.15608 -1.41385,-0.24505 -2.00763,-0.61894c-0.53594,-0.33748 -1.35488,-0.76377 -1.29119,-1.3939c0.06512,-0.64423 0.99505,-0.83737 1.55037,-1.17036c0.06788,-0.04071 0.15424,-0.08292 0.24832,-0.12002c-0.16902,-0.0751 -0.32379,-0.17126 -0.44261,-0.30794c-0.03385,-0.03894 -0.06566,-0.07923 -0.0957,-0.12069l-0.01511,0.0126l-0.53384,-0.64061c-0.11072,-0.13097 -0.17747,-0.30031 -0.17747,-0.48524c0,-0.41534 0.3367,-0.75205 0.75205,-0.75205h0.9666c0.40249,0.00296 0.94778,0.29302 1.20742,-0.01454c0.42367,-0.50187 0.12011,-1.54837 0.70949,-1.83817c0.40557,-0.19942 0.88224,0.2081 1.33187,0.25378c1.10889,0.11266 2.06091,-0.03612 3.07928,0.12385c0.18541,0.18917 0.395,0.35455 0.62376,0.49114c0.09934,0.10094 0.20559,0.19507 0.31797,0.28162c0.00612,0.20231 0.17205,0.36444 0.37585,0.36444c0.02154,0 0.04267,-0.00181 0.06323,-0.0053c-0.00682,0.02299 -0.0147,0.04649 -0.0237,0.0705c-0.26406,0.70417 -0.96823,0.4401 -0.96823,0.4401c-1.25868,-0.49424 -2.45241,0.0174 -3.73652,-0.28638c-0.17825,-0.04217 -0.21634,-0.32286 -0.38653,-0.39061c-0.10674,-0.04249 0.19071,0.19048 0.16517,0.30249c-0.10376,0.45505 -0.19017,0.97586 -0.52967,1.29613c-0.23768,0.22422 -0.57903,0.33002 -0.94226,0.37887c0.37107,0.39316 0.61112,0.91676 0.50775,1.32423c-0.03549,0.13992 -0.77522,0.66847 -1.46643,0.93218c0.21695,0.04901 0.43168,0.10881 0.64344,0.17499c0.53173,0.16619 1.03795,0.40508 1.55692,0.60761l0.07296,0.10398l0.02768,-0.03321l0.63999,0.53332c0.16791,0.13793 0.27501,0.34717 0.27501,0.58142c0,0.39037 -0.29742,0.71126 -0.67802,0.74846l-0.34517,0.03835c0.07544,0.19699 0.14854,0.44731 0.21787,0.76036c0.12982,0.58619 -0.27848,1.16341 -0.66704,1.67153c0.40027,-0.01715 0.83469,-0.02026 0.99088,0.29228c0.20055,0.40131 0.01825,0.86356 -0.13451,1.32112c1.42878,-0.03059 2.55673,0.19506 3.88699,0.69293l-0.04926,-0.04789c0,0 0.75205,0 0.75205,0.75205z" fill="url(#color-11)"/><path d="M277.73746,207.90332c0,0.75205 -0.75205,0.75205 -0.75205,0.75205l-0.47886,-0.04789c-0.74885,-0.28141 -1.44366,-0.55849 -2.25286,-0.59796c-0.09253,-0.00451 -2.14781,0.02301 -2.24988,-0.04347c-0.07228,-0.04708 -0.13921,-0.10002 -0.20194,-0.15758l-0.02349,0.02819l-0.63999,-0.53332c-0.16791,-0.13793 -0.27501,-0.34717 -0.27501,-0.58142c0,-0.17956 0.06293,-0.34442 0.16793,-0.47374c-0.50021,-0.23514 -0.97569,-0.66763 -1.01083,-0.76673c-0.12162,-0.34307 0.56853,-1.04497 1.11564,-1.44428h-0.70209c-0.41534,0 -0.75205,-0.33671 -0.75205,-0.75205c0,-0.38303 0.28634,-0.69918 0.65664,-0.74606l0.54963,-0.07851c0.1938,-0.24057 0.24961,-0.59496 0.37718,-0.88172c-0.69395,-0.15608 -1.41385,-0.24505 -2.00763,-0.61894c-0.53594,-0.33748 -1.35488,-0.76377 -1.29119,-1.3939c0.06512,-0.64423 0.99505,-0.83737 1.55037,-1.17036c0.06788,-0.04071 0.15425,-0.08292 0.24832,-0.12002c-0.16902,-0.0751 -0.32379,-0.17126 -0.44261,-0.30794c-0.03385,-0.03894 -0.06566,-0.07923 -0.0957,-0.12069l-0.01511,0.0126l-0.53384,-0.64061c-0.11072,-0.13097 -0.17747,-0.30031 -0.17747,-0.48524c0,-0.41534 0.3367,-0.75205 0.75205,-0.75205h0.9666c0.40249,0.00296 0.94778,0.29302 1.20742,-0.01454c0.42367,-0.50187 0.12011,-1.54837 0.70949,-1.83817c0.40557,-0.19942 0.88224,0.2081 1.33187,0.25378c1.10889,0.11266 2.06091,-0.03612 3.07928,0.12385c0.18541,0.18917 0.39499,0.35455 0.62376,0.49114c0.09934,0.10094 0.20559,0.19507 0.31797,0.28162c0.00612,0.20231 0.17205,0.36444 0.37585,0.36444c0.02154,0 0.04267,-0.00181 0.06323,-0.0053c-0.00682,0.02299 -0.0147,0.04649 -0.0237,0.0705c-0.26406,0.70417 -0.96822,0.4401 -0.96822,0.4401c-1.25868,-0.49424 -2.45242,0.0174 -3.73652,-0.28638c-0.17825,-0.04217 -0.21634,-0.32286 -0.38653,-0.39061c-0.10674,-0.04249 0.19071,0.19048 0.16517,0.30249c-0.10376,0.45505 -0.19017,0.97586 -0.52967,1.29613c-0.23768,0.22422 -0.57903,0.33002 -0.94226,0.37887c0.37107,0.39316 0.61112,0.91676 0.50775,1.32423c-0.03549,0.13992 -0.77522,0.66847 -1.46643,0.93218c0.21695,0.04901 0.43168,0.10881 0.64344,0.17499c0.53173,0.16619 1.03795,0.40508 1.55692,0.60761l0.07297,0.10398l0.02768,-0.03321l0.63999,0.53332c0.16791,0.13793 0.27501,0.34717 0.27501,0.58142c0,0.39037 -0.29742,0.71126 -0.67802,0.74846l-0.34517,0.03835c0.07544,0.19699 0.14854,0.44731 0.21787,0.76036c0.12982,0.58619 -0.27848,1.16341 -0.66704,1.67153c0.40027,-0.01715 0.83469,-0.02026 0.99088,0.29228c0.20055,0.40131 0.01825,0.86356 -0.13451,1.32112c1.42878,-0.03059 2.55673,0.19506 3.88699,0.69293l-0.04926,-0.04789c0,0 0.75205,0 0.75205,0.75205z" fill="url(#color-12)"/><path d="M278.57773,207.90332c0,0.75205 -0.75205,0.75205 -0.75205,0.75205l-0.47886,-0.04789c-0.74885,-0.28141 -1.44366,-0.55849 -2.25286,-0.59796c-0.09253,-0.00451 -2.14781,0.02301 -2.24988,-0.04347c-0.07228,-0.04708 -0.13921,-0.10002 -0.20194,-0.15758l-0.02349,0.02819l-0.63999,-0.53332c-0.16791,-0.13793 -0.27501,-0.34717 -0.27501,-0.58142c0,-0.17956 0.06293,-0.34442 0.16793,-0.47374c-0.50021,-0.23514 -0.97569,-0.66763 -1.01083,-0.76673c-0.12162,-0.34307 0.56853,-1.04497 1.11564,-1.44428h-0.70209c-0.41534,0 -0.75205,-0.33671 -0.75205,-0.75205c0,-0.38303 0.28634,-0.69918 0.65664,-0.74606l0.54963,-0.07851c0.1938,-0.24057 0.24961,-0.59496 0.37718,-0.88172c-0.69395,-0.15608 -1.41385,-0.24505 -2.00763,-0.61894c-0.53594,-0.33748 -1.35487,-0.76377 -1.29118,-1.3939c0.06512,-0.64423 0.99505,-0.83737 1.55037,-1.17036c0.06788,-0.04071 0.15424,-0.08292 0.24832,-0.12002c-0.16902,-0.0751 -0.32379,-0.17126 -0.44261,-0.30794c-0.03385,-0.03894 -0.06566,-0.07923 -0.0957,-0.12069l-0.01511,0.0126l-0.53384,-0.64061c-0.11072,-0.13097 -0.17747,-0.30031 -0.17747,-0.48524c0,-0.41534 0.3367,-0.75205 0.75205,-0.75205h0.9666c0.40249,0.00296 0.94778,0.29302 1.20742,-0.01454c0.42367,-0.50187 0.12011,-1.54837 0.70949,-1.83817c0.40557,-0.19942 0.88224,0.2081 1.33187,0.25378c1.10889,0.11266 2.06091,-0.03612 3.07928,0.12385c0.18541,0.18917 0.395,0.35455 0.62376,0.49114c0.09934,0.10094 0.20559,0.19507 0.31797,0.28162c0.00612,0.20231 0.17205,0.36444 0.37585,0.36444c0.02154,0 0.04267,-0.00181 0.06322,-0.0053c-0.00682,0.02299 -0.0147,0.04649 -0.0237,0.0705c-0.26406,0.70417 -0.96822,0.4401 -0.96822,0.4401c-1.25868,-0.49424 -2.45242,0.0174 -3.73652,-0.28638c-0.17825,-0.04217 -0.21634,-0.32286 -0.38653,-0.39061c-0.10674,-0.04249 0.19071,0.19048 0.16517,0.30249c-0.10376,0.45505 -0.19017,0.97586 -0.52967,1.29613c-0.23768,0.22422 -0.57903,0.33002 -0.94226,0.37887c0.37107,0.39316 0.61112,0.91676 0.50775,1.32423c-0.03549,0.13992 -0.77522,0.66847 -1.46643,0.93218c0.21695,0.04901 0.43168,0.10881 0.64344,0.17499c0.53173,0.16619 1.03795,0.40508 1.55692,0.60761l0.07296,0.10398l0.02768,-0.03321l0.63999,0.53332c0.16791,0.13793 0.27501,0.34717 0.27501,0.58142c0,0.39037 -0.29742,0.71126 -0.67802,0.74846l-0.34517,0.03835c0.07544,0.19699 0.14854,0.44731 0.21787,0.76036c0.12982,0.58619 -0.27848,1.16341 -0.66704,1.67153c0.40027,-0.01715 0.83469,-0.02026 0.99088,0.29228c0.20055,0.40131 0.01825,0.86356 -0.13451,1.32112c1.42878,-0.03059 2.55673,0.19506 3.88699,0.69293l-0.04926,-0.04789c0,0 0.75205,0 0.75205,0.75205z" fill="url(#color-13)"/><path d="M279.41799,207.90332c0,0.75205 -0.75205,0.75205 -0.75205,0.75205l-0.47886,-0.04789c-0.74885,-0.28141 -1.44366,-0.55849 -2.25286,-0.59796c-0.09253,-0.00451 -2.14781,0.02301 -2.24988,-0.04347c-0.07228,-0.04708 -0.13921,-0.10002 -0.20194,-0.15758l-0.02349,0.02819l-0.63999,-0.53332c-0.16791,-0.13793 -0.27501,-0.34717 -0.27501,-0.58142c0,-0.17956 0.06292,-0.34442 0.16793,-0.47374c-0.50021,-0.23514 -0.97569,-0.66763 -1.01083,-0.76673c-0.12162,-0.34307 0.56853,-1.04497 1.11564,-1.44428h-0.70209c-0.41534,0 -0.75205,-0.33671 -0.75205,-0.75205c0,-0.38303 0.28634,-0.69918 0.65664,-0.74606l0.54963,-0.07851c0.1938,-0.24057 0.24961,-0.59496 0.37718,-0.88172c-0.69395,-0.15608 -1.41385,-0.24505 -2.00763,-0.61894c-0.53594,-0.33748 -1.35488,-0.76377 -1.29119,-1.3939c0.06512,-0.64423 0.99505,-0.83737 1.55037,-1.17036c0.06788,-0.04071 0.15424,-0.08292 0.24832,-0.12002c-0.16902,-0.0751 -0.32379,-0.17126 -0.44261,-0.30794c-0.03385,-0.03894 -0.06566,-0.07923 -0.0957,-0.12069l-0.01511,0.0126l-0.53384,-0.64061c-0.11072,-0.13097 -0.17747,-0.30031 -0.17747,-0.48524c0,-0.41534 0.3367,-0.75205 0.75205,-0.75205h0.9666c0.40249,0.00296 0.94778,0.29302 1.20742,-0.01454c0.42367,-0.50187 0.12011,-1.54837 0.70949,-1.83817c0.40557,-0.19942 0.88224,0.2081 1.33187,0.25378c1.10889,0.11266 2.06091,-0.03612 3.07928,0.12385c0.18541,0.18917 0.395,0.35455 0.62376,0.49114c0.09934,0.10094 0.20559,0.19507 0.31797,0.28162c0.00612,0.20231 0.17205,0.36444 0.37585,0.36444c0.02154,0 0.04267,-0.00181 0.06323,-0.0053c-0.00682,0.02299 -0.0147,0.04649 -0.0237,0.0705c-0.26406,0.70417 -0.96823,0.4401 -0.96823,0.4401c-1.25868,-0.49424 -2.45241,0.0174 -3.73652,-0.28638c-0.17825,-0.04217 -0.21634,-0.32286 -0.38653,-0.39061c-0.10674,-0.04249 0.19071,0.19048 0.16517,0.30249c-0.10376,0.45505 -0.19017,0.97586 -0.52967,1.29613c-0.23768,0.22422 -0.57903,0.33002 -0.94226,0.37887c0.37107,0.39316 0.61112,0.91676 0.50775,1.32423c-0.03549,0.13992 -0.77522,0.66847 -1.46643,0.93218c0.21695,0.04901 0.43168,0.10881 0.64344,0.17499c0.53173,0.16619 1.03795,0.40508 1.55692,0.60761l0.07296,0.10398l0.02768,-0.03321l0.63999,0.53332c0.16791,0.13793 0.27501,0.34717 0.27501,0.58142c0,0.39037 -0.29742,0.71126 -0.67802,0.74846l-0.34517,0.03835c0.07544,0.19699 0.14854,0.44731 0.21787,0.76036c0.12982,0.58619 -0.27848,1.16341 -0.66704,1.67153c0.40027,-0.01715 0.83469,-0.02026 0.99088,0.29228c0.20055,0.40131 0.01825,0.86356 -0.13451,1.32112c1.42878,-0.03059 2.55673,0.19506 3.88699,0.69293l-0.04926,-0.04789c0,0 0.75205,0 0.75205,0.75205z" fill="url(#color-14)"/></g><path d="M286.96532,202.24588l-12.22487,10.20823v-20.41645z" fill="#ff7166" stroke="#ffffff" stroke-width="1.5"/><path d="M301.6485,212.79477l-20.79563,20.79563v-41.3334c0.05339,-0.03225 0.10611,-0.06551 0.15812,-0.09975z" fill="url(#color-15)" stroke="#ffffff" stroke-width="1.5"/><path d="M297.63675,209.09758h15.96514v7.39438h-15.96514z" fill="url(#color-16)" stroke="#ffffff" stroke-width="1.5"/><path d="M313.60189,208.08925h1.51249v9.41103h-1.51249z" fill="#740000" stroke="#ffffff" stroke-width="1"/><path d="M268.43841,190.46289c5.74255,0 10.39782,4.65526 10.39782,10.39782c0,5.74255 -4.65526,10.39782 -10.39782,10.39782c-5.74255,0 -10.39782,-4.65526 -10.39782,-10.39782c0,-5.74255 4.65526,-10.39782 10.39782,-10.39782z" fill="url(#color-17)" stroke="none" stroke-width="0"/><path d="M268.43841,212.70831c5.74255,0 10.39782,4.65526 10.39782,10.39782c0,5.74256 -4.65526,10.39782 -10.39782,10.39782c-5.74255,0 -10.39782,-4.65526 -10.39782,-10.39782c0,-5.74255 4.65526,-10.39782 10.39782,-10.39782z" fill="url(#color-18)" stroke="none" stroke-width="0"/><path d="M300.57769,232.03696c1.85627,0 3.36108,1.50481 3.36108,3.36108c0,1.85627 -1.50481,3.36108 -3.36108,3.36108c-1.85627,0 -3.36108,-1.50481 -3.36108,-3.36108c0,-1.85627 1.50481,-3.36108 3.36108,-3.36108z" fill="#ff8383" stroke="#ffffff" stroke-width="1.5"/><path d="M300.57769,233.04528c1.29939,0 2.35276,1.05337 2.35276,2.35276c0,1.29939 -1.05337,2.35276 -2.35276,2.35276c-1.29939,0 -2.35276,-1.05337 -2.35276,-2.35276c0,-1.29939 1.05337,-2.35276 2.35276,-2.35276z" fill="#000000" stroke="#ffffff" stroke-width="0.5"/><path d="M301.55926,236.70953c-0.59066,0 -0.59066,-2.67141 0,-2.67141c0.59066,0 1.06949,0.59801 1.06949,1.3357c0,0.73769 -0.47883,1.33571 -1.06949,1.33571z" fill="#ffffff" stroke="#ffffff" stroke-width="0.5"/><path d="M253.0787,214.61101c0,-18.50086 14.99791,-33.49878 33.49878,-33.49878c18.50086,0 33.49878,14.99791 33.49878,33.49878c0,18.50086 -14.99791,33.49878 -33.49878,33.49878c-18.50086,0 -33.49878,-14.99791 -33.49878,-33.49878z" fill="url(#color-19)" stroke="none" stroke-width="0"/></g><text transform="translate(334.7162,261.67374) scale(0.5,0.5)" font-size="40" xml:space="preserve" fill="#4d4d4d" fill-rule="nonzero" stroke="none" stroke-width="1" stroke-linecap="butt" stroke-linejoin="miter" stroke-miterlimit="10" stroke-dasharray="" stroke-dashoffset="0" font-family="&quot;MV Boli&quot;, Pixel" font-weight="normal" text-anchor="start" style="mix-blend-mode: normal"><tspan x="0" dy="0">100%</tspan></text><g stroke="none"><g stroke-width="0.5"><path d="M363.07538,215.09059c0.375,-0.50941 1.28883,-1.42331 2.41664,-0.23786c0.55319,0.58146 0.74598,1.23505 0.77004,1.82651c0.35593,0.04422 0.72756,0.20744 1.03716,0.39305c-0.0955,-0.72322 -0.12979,-2.2857 1.19256,-2.94755c1.74926,-0.87554 2.374,1.57599 2.374,1.57599c0.18108,1.52617 1.10461,3.24637 0.5432,4.57849c-1.6302,3.86814 -3.52353,1.67964 -5.45231,1.58997c-0.49991,-0.02324 -3.60749,0.66508 -4.14584,0.71507c-2.04171,0.18963 -4.15114,0.00568 -6.19738,0.0046l-0.05328,-0.03281l-0.00124,0.02943l-2.16454,-0.17844c-0.98113,-0.07017 -1.76124,-1.20727 -1.76124,-2.59974c0,-1.17101 0.55172,-2.16144 1.31072,-2.48857l2.26483,-1.05802l0.01667,0.07014c0.07235,-0.05407 0.14548,-0.10638 0.21944,-0.15675c0.70874,-0.48252 1.5742,-0.11441 2.35882,-0.21557c1.82143,-0.23484 3.48231,-0.72394 5.27173,-0.8679z" fill="#ff4200"/><path d="M350.45783,220.13229c-1.18707,0 -1.18707,-1.66362 -1.18707,-1.66362l0.07558,-1.05931c0.44419,-1.65657 0.88154,-3.19358 0.94385,-4.98365c0.00712,-0.20469 -0.03633,-4.75126 0.06861,-4.97706c0.07431,-0.15989 0.15788,-0.30795 0.24873,-0.44673l-0.0445,-0.05195l0.84183,-1.41574c0.21772,-0.37144 0.54797,-0.60836 0.91773,-0.60836c0.28343,0 0.54365,0.13921 0.74776,0.37148c0.37117,-1.10654 1.05382,-2.15837 1.21026,-2.23609c0.54152,-0.26905 1.64944,1.25767 2.27972,2.46795v-1.55313c0,-0.9188 0.53148,-1.66362 1.18707,-1.66362c0.60459,0 1.10362,0.63342 1.17762,1.45258l0.12393,1.21585c0.37973,0.42871 0.93913,0.55218 1.39176,0.83437c0.24636,-1.53511 0.3868,-3.12762 0.97697,-4.44113c0.5327,-1.18558 1.20556,-2.99718 2.2002,-2.85629c1.01687,0.14405 1.32174,2.20118 1.84736,3.42965c0.06425,0.15016 0.13088,0.34121 0.18945,0.54931c0.11855,-0.3739 0.27031,-0.71627 0.48607,-0.97912c0.06147,-0.07487 0.12508,-0.14525 0.19051,-0.21171l-0.0199,-0.03343l1.01116,-1.18093c0.20673,-0.24492 0.47403,-0.39258 0.76593,-0.39258c0.65561,0 1.18708,0.74484 1.18708,1.66364v2.13824c-0.00467,0.89036 -0.46252,2.09662 0.02295,2.67097c0.79217,0.93721 2.44403,0.2657 2.90147,1.5695c0.31476,0.89718 -0.32847,1.95163 -0.40058,2.94628c-0.17784,2.45302 0.057,4.55903 -0.1955,6.81179c-0.2986,0.41014 -0.55964,0.87379 -0.77524,1.37984c-0.15934,0.21976 -0.30791,0.45478 -0.44452,0.70338c-0.31934,0.01354 -0.57523,0.38061 -0.57523,0.83143c0,0.04766 0.00286,0.09438 0.00835,0.13984c-0.03629,-0.01508 -0.07338,-0.0325 -0.11127,-0.05243c-1.1115,-0.58415 -0.69468,-2.14186 -0.69468,-2.14186c0.78014,-2.78435 -0.02747,-5.42507 0.45205,-8.26568c0.06657,-0.39432 0.50962,-0.47858 0.61657,-0.85507c0.06706,-0.23613 -0.30066,0.42186 -0.47746,0.36537c-0.71828,-0.22952 -1.54036,-0.42068 -2.04588,-1.17171c-0.35392,-0.52577 -0.5209,-1.28089 -0.59802,-2.0844c-0.62058,0.82086 -1.44706,1.35188 -2.09022,1.12322c-0.22086,-0.07851 -1.05515,-1.71492 -1.47142,-3.24395c-0.07734,0.47993 -0.17175,0.95494 -0.27621,1.42338c-0.26232,1.17626 -0.63939,2.29608 -0.95909,3.44413l-0.16414,0.1614l0.05243,0.06123l-0.84182,1.41574c-0.21772,0.37144 -0.548,0.60836 -0.91774,0.60836c-0.61617,0 -1.12269,-0.65794 -1.18139,-1.49988l-0.06054,-0.76356c-0.31095,0.16687 -0.70604,0.32858 -1.20018,0.48196c-0.92527,0.28718 -1.83639,-0.61603 -2.63841,-1.47558c0.02708,0.88546 0.03197,1.84645 -0.46135,2.19197c-0.63343,0.44365 -1.36309,0.04036 -2.08531,-0.29755c0.04827,3.16065 -0.3079,5.65583 -1.09375,8.59856l0.07558,-0.10899c0,0 -0.00001,1.66362 -1.18708,1.66362z" fill="url(#color-20)"/><path d="M350.45783,221.99108c-1.18707,0 -1.18707,-1.66364 -1.18707,-1.66364l0.07558,-1.05931c0.44419,-1.65657 0.88154,-3.19358 0.94385,-4.98365c0.00712,-0.20469 -0.03633,-4.75126 0.06861,-4.97706c0.07431,-0.15989 0.15788,-0.30795 0.24873,-0.44673l-0.0445,-0.05196l0.84183,-1.41574c0.21772,-0.37144 0.54797,-0.60836 0.91773,-0.60836c0.28343,0 0.54365,0.13921 0.74776,0.37149c0.37117,-1.10654 1.05382,-2.15837 1.21026,-2.23609c0.54152,-0.26905 1.64944,1.25765 2.27972,2.46795v-1.55313c0,-0.9188 0.53148,-1.66362 1.18707,-1.66362c0.60459,0 1.10362,0.63342 1.17762,1.45258l0.12393,1.21585c0.37973,0.42871 0.93913,0.55218 1.39176,0.83437c0.24636,-1.53511 0.3868,-3.12764 0.97697,-4.44113c0.5327,-1.18558 1.20556,-2.99718 2.2002,-2.85629c1.01687,0.14405 1.32174,2.20118 1.84736,3.42965c0.06425,0.15016 0.13088,0.34121 0.18945,0.54931c0.11855,-0.3739 0.27031,-0.71627 0.48607,-0.97912c0.06147,-0.07487 0.12508,-0.14525 0.19051,-0.21171l-0.0199,-0.03343l1.01116,-1.18093c0.20673,-0.24492 0.47403,-0.39258 0.76593,-0.39258c0.65561,0 1.18708,0.74482 1.18708,1.66362v2.13824c-0.00467,0.89036 -0.46252,2.09662 0.02295,2.67097c0.79217,0.93721 2.44403,0.2657 2.90147,1.5695c0.31476,0.89718 -0.32847,1.95163 -0.40058,2.94628c-0.17784,2.45302 0.057,4.55903 -0.1955,6.81179c-0.2986,0.41014 -0.55964,0.87379 -0.77524,1.37982c-0.15934,0.21976 -0.30791,0.45479 -0.44452,0.7034c-0.31934,0.01354 -0.57523,0.38061 -0.57523,0.83142c0,0.04766 0.00286,0.0944 0.00835,0.13986c-0.03629,-0.01508 -0.07338,-0.0325 -0.11127,-0.05243c-1.1115,-0.58415 -0.69468,-2.14184 -0.69468,-2.14184c0.78014,-2.78435 -0.02747,-5.42507 0.45205,-8.26568c0.06657,-0.39432 0.50962,-0.47858 0.61657,-0.85505c0.06706,-0.23613 -0.30066,0.42186 -0.47746,0.36537c-0.71828,-0.22952 -1.54036,-0.42069 -2.04588,-1.17171c-0.35392,-0.52577 -0.5209,-1.28089 -0.59802,-2.0844c-0.62058,0.82086 -1.44706,1.35188 -2.09022,1.12322c-0.22086,-0.07851 -1.05515,-1.7149 -1.47142,-3.24393c-0.07734,0.47993 -0.17175,0.95494 -0.27621,1.42338c-0.26232,1.17626 -0.63939,2.29608 -0.95909,3.44411l-0.16414,0.16141l0.05243,0.06123l-0.84182,1.41574c-0.21772,0.37144 -0.548,0.60836 -0.91774,0.60836c-0.61617,0 -1.12269,-0.65794 -1.18139,-1.49988l-0.06054,-0.76356c-0.31095,0.16687 -0.70604,0.32859 -1.20018,0.48196c-0.92527,0.28718 -1.83639,-0.61603 -2.63841,-1.4756c0.02708,0.88546 0.03197,1.84645 -0.46135,2.19198c-0.63343,0.44365 -1.36309,0.04036 -2.08531,-0.29755c0.04827,3.16065 -0.3079,5.65583 -1.09375,8.59856l0.07558,-0.10899c0,0 -0.00001,1.66364 -1.18708,1.66364z" fill="url(#color-21)"/><path d="M350.45783,223.47812c-1.18707,0 -1.18707,-1.66362 -1.18707,-1.66362l0.07558,-1.05931c0.44419,-1.65657 0.88154,-3.19358 0.94385,-4.98365c0.00712,-0.20469 -0.03633,-4.75124 0.06861,-4.97704c0.07431,-0.15989 0.15788,-0.30795 0.24873,-0.44673l-0.0445,-0.05196l0.84183,-1.41574c0.21772,-0.37144 0.54797,-0.60836 0.91773,-0.60836c0.28343,0 0.54365,0.13921 0.74776,0.37149c0.37117,-1.10654 1.05382,-2.15837 1.21026,-2.23609c0.54152,-0.26905 1.64944,1.25765 2.27972,2.46795v-1.55313c0,-0.9188 0.53148,-1.66362 1.18707,-1.66362c0.60459,0 1.10362,0.63342 1.17762,1.45258l0.12393,1.21585c0.37973,0.42871 0.93913,0.55218 1.39176,0.83437c0.24636,-1.53511 0.3868,-3.12764 0.97697,-4.44113c0.5327,-1.18558 1.20556,-2.99716 2.2002,-2.85627c1.01687,0.14405 1.32174,2.20118 1.84736,3.42965c0.06425,0.15016 0.13088,0.34122 0.18945,0.54931c0.11855,-0.3739 0.27031,-0.71627 0.48607,-0.97912c0.06147,-0.07487 0.12508,-0.14525 0.19051,-0.21169l-0.0199,-0.03343l1.01116,-1.18093c0.20673,-0.24492 0.47403,-0.39258 0.76593,-0.39258c0.65561,0 1.18708,0.74484 1.18708,1.66364v2.13824c-0.00467,0.89036 -0.46252,2.09661 0.02295,2.67096c0.79217,0.93721 2.44403,0.2657 2.90147,1.5695c0.31476,0.89718 -0.32847,1.95165 -0.40058,2.94628c-0.17784,2.45302 0.057,4.55903 -0.1955,6.81179c-0.2986,0.41014 -0.55964,0.87379 -0.77524,1.37984c-0.15934,0.21976 -0.30791,0.45478 -0.44452,0.70338c-0.31934,0.01354 -0.57523,0.38061 -0.57523,0.83143c0,0.04766 0.00286,0.09438 0.00835,0.13984c-0.03629,-0.01508 -0.07338,-0.0325 -0.11127,-0.05243c-1.1115,-0.58415 -0.69468,-2.14184 -0.69468,-2.14184c0.78014,-2.78435 -0.02747,-5.42507 0.45205,-8.26568c0.06657,-0.39432 0.50962,-0.47856 0.61657,-0.85505c0.06706,-0.23613 -0.30066,0.42186 -0.47746,0.36537c-0.71828,-0.22952 -1.54036,-0.42069 -2.04588,-1.17171c-0.35392,-0.52577 -0.5209,-1.28089 -0.59802,-2.0844c-0.62058,0.82086 -1.44706,1.35188 -2.09022,1.12322c-0.22086,-0.07851 -1.05515,-1.7149 -1.47142,-3.24393c-0.07734,0.47993 -0.17175,0.95494 -0.27621,1.42338c-0.26232,1.17626 -0.63939,2.29608 -0.95909,3.44413l-0.16414,0.1614l0.05243,0.06123l-0.84182,1.41574c-0.21772,0.37144 -0.548,0.60836 -0.91774,0.60836c-0.61617,0 -1.12269,-0.65794 -1.18139,-1.49988l-0.06054,-0.76356c-0.31095,0.16687 -0.70604,0.32859 -1.20018,0.48196c-0.92527,0.28718 -1.83639,-0.61603 -2.63841,-1.4756c0.02708,0.88546 0.03197,1.84645 -0.46135,2.19198c-0.63343,0.44365 -1.36309,0.04036 -2.08531,-0.29755c0.04827,3.16065 -0.3079,5.65583 -1.09375,8.59856l0.07558,-0.10899c0,0 -0.00001,1.66362 -1.18708,1.66362z" fill="url(#color-22)"/><path d="M350.45783,225.33692c-1.18707,0 -1.18707,-1.66364 -1.18707,-1.66364l0.07558,-1.05931c0.44419,-1.65657 0.88154,-3.19358 0.94385,-4.98365c0.00712,-0.20469 -0.03633,-4.75126 0.06861,-4.97706c0.07431,-0.15989 0.15788,-0.30795 0.24873,-0.44673l-0.0445,-0.05196l0.84183,-1.41574c0.21772,-0.37144 0.54797,-0.60836 0.91773,-0.60836c0.28343,0 0.54365,0.13921 0.74776,0.37148c0.37117,-1.10654 1.05382,-2.15837 1.21026,-2.23609c0.54152,-0.26905 1.64944,1.25767 2.27972,2.46795v-1.55313c0,-0.9188 0.53148,-1.66362 1.18707,-1.66362c0.60459,0 1.10362,0.63342 1.17762,1.45258l0.12393,1.21585c0.37973,0.42871 0.93913,0.55218 1.39176,0.83437c0.24636,-1.53511 0.3868,-3.12764 0.97697,-4.44113c0.5327,-1.18558 1.20556,-2.99718 2.2002,-2.85627c1.01687,0.14405 1.32174,2.20118 1.84736,3.42965c0.06425,0.15016 0.13088,0.34121 0.18945,0.54931c0.11855,-0.3739 0.27031,-0.71627 0.48607,-0.97912c0.06147,-0.07487 0.12508,-0.14525 0.19051,-0.21169l-0.0199,-0.03343l1.01116,-1.18093c0.20673,-0.24492 0.47403,-0.39258 0.76593,-0.39258c0.65561,0 1.18708,0.74482 1.18708,1.66362v2.13824c-0.00467,0.89036 -0.46252,2.09662 0.02295,2.67097c0.79217,0.93721 2.44403,0.2657 2.90147,1.5695c0.31476,0.89718 -0.32847,1.95165 -0.40058,2.94628c-0.17784,2.45302 0.057,4.55903 -0.1955,6.81179c-0.2986,0.41014 -0.55964,0.87379 -0.77524,1.37984c-0.15934,0.21976 -0.30791,0.45478 -0.44452,0.70338c-0.31934,0.01354 -0.57523,0.38061 -0.57523,0.83143c0,0.04766 0.00286,0.09438 0.00835,0.13986c-0.03629,-0.01508 -0.07338,-0.0325 -0.11127,-0.05243c-1.1115,-0.58415 -0.69468,-2.14186 -0.69468,-2.14186c0.78014,-2.78435 -0.02747,-5.42507 0.45205,-8.26568c0.06657,-0.39432 0.50962,-0.47858 0.61657,-0.85505c0.06706,-0.23613 -0.30066,0.42186 -0.47746,0.36537c-0.71828,-0.22952 -1.54036,-0.42069 -2.04588,-1.17171c-0.35392,-0.52577 -0.5209,-1.28089 -0.59802,-2.0844c-0.62058,0.82086 -1.44706,1.35188 -2.09022,1.12322c-0.22086,-0.07851 -1.05515,-1.7149 -1.47142,-3.24393c-0.07734,0.47993 -0.17175,0.95494 -0.27621,1.42338c-0.26232,1.17626 -0.63939,2.29608 -0.95909,3.44411l-0.16414,0.16141l0.05243,0.06123l-0.84182,1.41574c-0.21772,0.37144 -0.548,0.60836 -0.91774,0.60836c-0.61617,0 -1.12269,-0.65794 -1.18139,-1.49988l-0.06054,-0.76356c-0.31095,0.16687 -0.70604,0.32859 -1.20018,0.48196c-0.92527,0.28718 -1.83639,-0.61603 -2.63841,-1.4756c0.02708,0.88546 0.03197,1.84645 -0.46135,2.19197c-0.63343,0.44365 -1.36309,0.04036 -2.08531,-0.29755c0.04827,3.16065 -0.3079,5.65583 -1.09375,8.59856l0.07558,-0.10899c0,0 -0.00001,1.66364 -1.18708,1.66364z" fill="url(#color-23)"/><path d="M350.45783,227.19571c-1.18707,0 -1.18707,-1.66364 -1.18707,-1.66364l0.07558,-1.05931c0.44419,-1.65657 0.88154,-3.19358 0.94385,-4.98365c0.00712,-0.20469 -0.03633,-4.75126 0.06861,-4.97706c0.07431,-0.15989 0.15788,-0.30795 0.24873,-0.44673l-0.0445,-0.05196l0.84183,-1.41574c0.21772,-0.37144 0.54797,-0.60836 0.91773,-0.60836c0.28343,0 0.54365,0.13921 0.74776,0.37149c0.37117,-1.10654 1.05382,-2.15837 1.21026,-2.23609c0.54152,-0.26905 1.64944,1.25765 2.27972,2.46795v-1.55313c0,-0.9188 0.53148,-1.66364 1.18707,-1.66364c0.60459,0 1.10362,0.63342 1.17762,1.45258l0.12393,1.21585c0.37973,0.42871 0.93913,0.55218 1.39176,0.83437c0.24636,-1.53511 0.3868,-3.12764 0.97697,-4.44113c0.5327,-1.18558 1.20556,-2.99718 2.2002,-2.85627c1.01687,0.14405 1.32174,2.20118 1.84736,3.42965c0.06425,0.15016 0.13088,0.34122 0.18945,0.54931c0.11855,-0.3739 0.27031,-0.71627 0.48607,-0.97912c0.06147,-0.07487 0.12508,-0.14525 0.19051,-0.21169l-0.0199,-0.03343l1.01116,-1.18093c0.20673,-0.24492 0.47403,-0.39258 0.76593,-0.39258c0.65561,0 1.18708,0.74482 1.18708,1.66362v2.13825c-0.00467,0.89036 -0.46252,2.09662 0.02295,2.67097c0.79217,0.93721 2.44403,0.2657 2.90147,1.5695c0.31476,0.89718 -0.32847,1.95163 -0.40058,2.94628c-0.17784,2.45302 0.057,4.55903 -0.1955,6.81179c-0.2986,0.41014 -0.55964,0.87377 -0.77524,1.37982c-0.15934,0.21976 -0.30791,0.45479 -0.44452,0.7034c-0.31934,0.01354 -0.57523,0.38061 -0.57523,0.83142c0,0.04766 0.00286,0.0944 0.00835,0.13986c-0.03629,-0.01508 -0.07338,-0.0325 -0.11127,-0.05243c-1.1115,-0.58415 -0.69468,-2.14184 -0.69468,-2.14184c0.78014,-2.78435 -0.02747,-5.42507 0.45205,-8.26568c0.06657,-0.39432 0.50962,-0.47856 0.61657,-0.85505c0.06706,-0.23613 -0.30066,0.42186 -0.47746,0.36537c-0.71828,-0.22952 -1.54036,-0.42069 -2.04588,-1.17171c-0.35392,-0.52577 -0.5209,-1.28089 -0.59802,-2.0844c-0.62058,0.82086 -1.44706,1.35188 -2.09022,1.12322c-0.22086,-0.07851 -1.05515,-1.7149 -1.47142,-3.24393c-0.07734,0.47993 -0.17175,0.95494 -0.27621,1.42338c-0.26232,1.17626 -0.63939,2.29608 -0.95909,3.44411l-0.16414,0.16141l0.05243,0.06123l-0.84182,1.41574c-0.21772,0.37144 -0.548,0.60836 -0.91774,0.60836c-0.61617,0 -1.12269,-0.65794 -1.18139,-1.49988l-0.06054,-0.76356c-0.31095,0.16687 -0.70604,0.32859 -1.20018,0.48196c-0.92527,0.28718 -1.83639,-0.61603 -2.63841,-1.47558c0.02708,0.88546 0.03197,1.84645 -0.46135,2.19197c-0.63343,0.44365 -1.36309,0.04036 -2.08531,-0.29755c0.04827,3.16065 -0.3079,5.65583 -1.09375,8.59856l0.07558,-0.10899c0,0 -0.00001,1.66364 -1.18708,1.66364z" fill="url(#color-24)"/><path d="M350.45783,229.0545c-1.18707,0 -1.18707,-1.66362 -1.18707,-1.66362l0.07558,-1.05931c0.44419,-1.65657 0.88154,-3.19358 0.94385,-4.98365c0.00712,-0.20469 -0.03633,-4.75124 0.06861,-4.97704c0.07431,-0.15989 0.15788,-0.30795 0.24873,-0.44673l-0.0445,-0.05196l0.84183,-1.41574c0.21772,-0.37144 0.54797,-0.60836 0.91773,-0.60836c0.28343,0 0.54365,0.13921 0.74776,0.37148c0.37117,-1.10654 1.05382,-2.15837 1.21026,-2.23609c0.54152,-0.26905 1.64944,1.25767 2.27972,2.46795v-1.55313c0,-0.9188 0.53148,-1.66362 1.18707,-1.66362c0.60459,0 1.10362,0.63342 1.17762,1.45258l0.12393,1.21585c0.37973,0.42871 0.93913,0.55218 1.39176,0.83437c0.24636,-1.53511 0.3868,-3.12764 0.97697,-4.44115c0.5327,-1.18558 1.20556,-2.99716 2.2002,-2.85627c1.01687,0.14405 1.32174,2.20118 1.84736,3.42965c0.06425,0.15016 0.13088,0.34121 0.18945,0.54931c0.11855,-0.3739 0.27031,-0.71627 0.48607,-0.97912c0.06147,-0.07487 0.12508,-0.14525 0.19051,-0.21171l-0.0199,-0.03343l1.01116,-1.18093c0.20673,-0.24492 0.47403,-0.39258 0.76593,-0.39258c0.65561,0 1.18708,0.74484 1.18708,1.66364v2.13824c-0.00467,0.89036 -0.46252,2.09662 0.02295,2.67097c0.79217,0.93721 2.44403,0.2657 2.90147,1.5695c0.31476,0.89718 -0.32847,1.95163 -0.40058,2.94628c-0.17784,2.45302 0.057,4.55903 -0.1955,6.81179c-0.2986,0.41014 -0.55964,0.87379 -0.77524,1.37982c-0.15934,0.21976 -0.30791,0.45479 -0.44452,0.7034c-0.31934,0.01354 -0.57523,0.38061 -0.57523,0.83142c0,0.04766 0.00286,0.09438 0.00835,0.13986c-0.03629,-0.01508 -0.07338,-0.0325 -0.11127,-0.05243c-1.1115,-0.58415 -0.69468,-2.14184 -0.69468,-2.14184c0.78014,-2.78435 -0.02747,-5.42507 0.45205,-8.26568c0.06657,-0.39432 0.50962,-0.47858 0.61657,-0.85507c0.06706,-0.23613 -0.30066,0.42188 -0.47746,0.36537c-0.71828,-0.22952 -1.54036,-0.42069 -2.04588,-1.17171c-0.35392,-0.52577 -0.5209,-1.28089 -0.59802,-2.0844c-0.62058,0.82086 -1.44706,1.35188 -2.09022,1.12322c-0.22086,-0.07851 -1.05515,-1.7149 -1.47142,-3.24393c-0.07734,0.47993 -0.17175,0.95494 -0.27621,1.42338c-0.26232,1.17626 -0.63939,2.29608 -0.95909,3.44411l-0.16414,0.16141l0.05243,0.06123l-0.84182,1.41574c-0.21772,0.37144 -0.548,0.60836 -0.91774,0.60836c-0.61617,0 -1.12269,-0.65794 -1.18139,-1.49988l-0.06054,-0.76356c-0.31095,0.16687 -0.70604,0.32859 -1.20018,0.48196c-0.92527,0.28718 -1.83639,-0.61603 -2.63841,-1.4756c0.02708,0.88546 0.03197,1.84645 -0.46135,2.19198c-0.63343,0.44365 -1.36309,0.04036 -2.08531,-0.29755c0.04827,3.16065 -0.3079,5.65583 -1.09375,8.59856l0.07558,-0.10899c0,0 -0.00001,1.66362 -1.18708,1.66362z" fill="url(#color-25)"/><path d="M350.45783,230.9133c-1.18707,0 -1.18707,-1.66364 -1.18707,-1.66364l0.07558,-1.05931c0.44419,-1.65657 0.88154,-3.19358 0.94385,-4.98365c0.00712,-0.20469 -0.03633,-4.75126 0.06861,-4.97706c0.07431,-0.15989 0.15788,-0.30795 0.24873,-0.44673l-0.0445,-0.05196l0.84183,-1.41574c0.21772,-0.37144 0.54797,-0.60836 0.91773,-0.60836c0.28343,0 0.54365,0.13921 0.74776,0.37149c0.37117,-1.10654 1.05382,-2.15837 1.21026,-2.23609c0.54152,-0.26905 1.64944,1.25765 2.27972,2.46795v-1.55313c0,-0.9188 0.53148,-1.66362 1.18707,-1.66362c0.60459,0 1.10362,0.63342 1.17762,1.45258l0.12393,1.21585c0.37973,0.42871 0.93913,0.55218 1.39176,0.83437c0.24636,-1.53511 0.3868,-3.12764 0.97697,-4.44113c0.5327,-1.18558 1.20556,-2.99718 2.2002,-2.85629c1.01687,0.14405 1.32174,2.20118 1.84736,3.42965c0.06425,0.15016 0.13088,0.34121 0.18945,0.54931c0.11855,-0.3739 0.27031,-0.71627 0.48607,-0.97912c0.06147,-0.07487 0.12508,-0.14525 0.19051,-0.21171l-0.0199,-0.03343l1.01116,-1.18093c0.20673,-0.24492 0.47403,-0.39258 0.76593,-0.39258c0.65561,0 1.18708,0.74482 1.18708,1.66362v2.13824c-0.00467,0.89036 -0.46252,2.09662 0.02295,2.67097c0.79217,0.93721 2.44403,0.2657 2.90147,1.5695c0.31476,0.89718 -0.32847,1.95163 -0.40058,2.94628c-0.17784,2.45302 0.057,4.55903 -0.1955,6.81179c-0.2986,0.41014 -0.55964,0.87379 -0.77524,1.37982c-0.15934,0.21976 -0.30791,0.45479 -0.44452,0.7034c-0.31934,0.01354 -0.57523,0.38061 -0.57523,0.83142c0,0.04766 0.00286,0.0944 0.00835,0.13986c-0.03629,-0.01508 -0.07338,-0.0325 -0.11127,-0.05243c-1.1115,-0.58415 -0.69468,-2.14186 -0.69468,-2.14186c0.78014,-2.78435 -0.02747,-5.42507 0.45205,-8.26568c0.06657,-0.39432 0.50962,-0.47858 0.61657,-0.85507c0.06706,-0.23613 -0.30066,0.42188 -0.47746,0.36537c-0.71828,-0.22952 -1.54036,-0.42069 -2.04588,-1.17171c-0.35392,-0.52577 -0.5209,-1.28089 -0.59802,-2.0844c-0.62058,0.82086 -1.44706,1.35188 -2.09022,1.12322c-0.22086,-0.07851 -1.05515,-1.7149 -1.47142,-3.24393c-0.07734,0.47993 -0.17175,0.95494 -0.27621,1.42338c-0.26232,1.17626 -0.63939,2.29608 -0.95909,3.44411l-0.16414,0.16141l0.05243,0.06123l-0.84182,1.41574c-0.21772,0.37144 -0.548,0.60836 -0.91774,0.60836c-0.61617,0 -1.12269,-0.65794 -1.18139,-1.49988l-0.06054,-0.76356c-0.31095,0.16687 -0.70604,0.32858 -1.20018,0.48196c-0.92527,0.28718 -1.83639,-0.61603 -2.63841,-1.47558c0.02708,0.88546 0.03197,1.84645 -0.46135,2.19197c-0.63343,0.44365 -1.36309,0.04036 -2.08531,-0.29755c0.04827,3.16065 -0.3079,5.65583 -1.09375,8.59856l0.07558,-0.10899c0,0 -0.00001,1.66364 -1.18708,1.66364z" fill="url(#color-26)"/></g><path d="M348.54625,226.72048c0,-6.51584 5.28212,-11.79797 11.79797,-11.79797c6.51584,0 11.79797,5.28212 11.79797,11.79797c0,6.51584 -5.28212,11.79797 -11.79797,11.79797c-6.51584,0 -11.79797,-5.28212 -11.79797,-11.79797z" fill="#4d4d4d" stroke-width="0"/><path d="M352.579,224.68265c0,-1.12547 0.91236,-2.03783 2.03783,-2.03783c1.12547,0 2.03783,0.91236 2.03783,2.03783c0,1.12547 -0.91236,2.03783 -2.03783,2.03783c-1.12547,0 -2.03783,-0.91236 -2.03783,-2.03783z" fill="url(#color-27)" stroke-width="0"/><path d="M363.73344,224.68265c0,-1.12547 0.91236,-2.03783 2.03783,-2.03783c1.12547,0 2.03783,0.91236 2.03783,2.03783c0,1.12547 -0.91236,2.03783 -2.03783,2.03783c-1.12547,0 -2.03783,-0.91236 -2.03783,-2.03783z" fill="url(#color-28)" stroke-width="0"/><path d="M339.24191,226.72048c0,-11.65447 9.44781,-21.10228 21.10228,-21.10228c11.65447,0 21.10228,9.44781 21.10228,21.10228c0,11.65447 -9.44781,21.10228 -21.10228,21.10228c-11.65447,0 -21.10226,-9.44781 -21.10226,-21.10226z" fill="url(#color-29)" stroke-width="NaN"/><path d="M360.34415,184.63392c13.86375,0 25.10253,11.23878 25.10253,25.10255c0,13.86377 -11.23877,25.10253 -25.10253,25.10253c-13.86375,0 -25.10254,-11.23877 -25.10254,-25.10253c0,-13.86375 11.23878,-25.10255 25.10254,-25.10255z" fill="url(#color-30)" stroke-width="0"/></g></g><path d="M138,143c0,-100.51582 81.48418,-182 182,-182c100.51582,0 182,81.48418 182,182c0,100.51582 -81.48418,182 -182,182c-100.51582,0 -182,-81.48418 -182,-182z" fill="url(#color-31)" stroke="none" stroke-width="0"/></g></g></svg>