<svg version="1.1" xmlns="http://www.w3.org/2000/svg" xmlns:xlink="http://www.w3.org/1999/xlink" width="186.01437" height="219.66861" viewBox="0,0,186.01437,219.66861"><defs><radialGradient cx="320" cy="180" r="51.6" gradientUnits="userSpaceOnUse" id="color-1"><stop offset="0" stop-color="#ffffff"/><stop offset="1" stop-color="#ffffff" stop-opacity="0"/></radialGradient><radialGradient cx="320" cy="180" r="42.85" gradientUnits="userSpaceOnUse" id="color-2"><stop offset="0" stop-color="#ffffff"/><stop offset="1" stop-color="#ffffff" stop-opacity="0"/></radialGradient><radialGradient cx="320" cy="180" r="35.725" gradientUnits="userSpaceOnUse" id="color-3"><stop offset="0" stop-color="#ffffff"/><stop offset="1" stop-color="#ffffff" stop-opacity="0"/></radialGradient><radialGradient cx="320" cy="180" r="31.225" gradientUnits="userSpaceOnUse" id="color-4"><stop offset="0" stop-color="#ffffff"/><stop offset="1" stop-color="#ffffff" stop-opacity="0"/></radialGradient><radialGradient cx="320" cy="180" r="26.975" gradientUnits="userSpaceOnUse" id="color-5"><stop offset="0" stop-color="#ffffff"/><stop offset="1" stop-color="#ffffff" stop-opacity="0"/></radialGradient><radialGradient cx="320" cy="180" r="34.35" gradientUnits="userSpaceOnUse" id="color-6"><stop offset="0" stop-color="#ffa0a0"/><stop offset="1" stop-color="#ffa0a0" stop-opacity="0"/></radialGradient><radialGradient cx="280" cy="147.10249" r="46.25" gradientUnits="userSpaceOnUse" id="color-7"><stop offset="0" stop-color="#ffffff" stop-opacity="0.50196"/><stop offset="1" stop-color="#ffffff" stop-opacity="0"/></radialGradient><radialGradient cx="373.50205" cy="168.08768" r="46.25" gradientUnits="userSpaceOnUse" id="color-8"><stop offset="0" stop-color="#ffffff" stop-opacity="0.50196"/><stop offset="1" stop-color="#ffffff" stop-opacity="0"/></radialGradient><radialGradient cx="308.09961" cy="183.90039" r="46.25" gradientUnits="userSpaceOnUse" id="color-9"><stop offset="0" stop-color="#ffffff" stop-opacity="0.50196"/><stop offset="1" stop-color="#ffffff" stop-opacity="0"/></radialGradient><radialGradient cx="351.63949" cy="222.4903" r="46.25" gradientUnits="userSpaceOnUse" id="color-10"><stop offset="0" stop-color="#ffffff" stop-opacity="0.50196"/><stop offset="1" stop-color="#ffffff" stop-opacity="0"/></radialGradient><radialGradient cx="356.2182" cy="134.12561" r="46.25" gradientUnits="userSpaceOnUse" id="color-11"><stop offset="0" stop-color="#ffffff" stop-opacity="0.50196"/><stop offset="1" stop-color="#ffffff" stop-opacity="0"/></radialGradient><radialGradient cx="314.65532" cy="95.32778" r="46.25" gradientUnits="userSpaceOnUse" id="color-12"><stop offset="0" stop-color="#ffffff" stop-opacity="0.50196"/><stop offset="1" stop-color="#ffffff" stop-opacity="0"/></radialGradient></defs><g transform="translate(-233.75,-49.07246)"><g data-paper-data="{&quot;isPaintingLayer&quot;:true}" fill-rule="nonzero" stroke-linecap="butt" stroke-linejoin="miter" stroke-miterlimit="10" stroke-dasharray="" stroke-dashoffset="0" style="mix-blend-mode: normal"><path d="M296.4,180c0,-13.03392 10.56608,-23.6 23.6,-23.6c13.03392,0 23.6,10.56608 23.6,23.6c0,13.03392 -10.56608,23.6 -23.6,23.6c-13.03392,0 -23.6,-10.56608 -23.6,-23.6z" fill="#ffffff" stroke="#000000" stroke-width="0"/><g stroke="#000000" stroke-width="0"><path d="M268.4,180c0,-28.49789 23.10211,-51.6 51.6,-51.6c28.49789,0 51.6,23.10211 51.6,51.6c0,28.49789 -23.10211,51.6 -51.6,51.6c-28.49789,0 -51.6,-23.10211 -51.6,-51.6z" fill="url(#color-1)"/><path d="M277.15,180c0,-23.6654 19.1846,-42.85 42.85,-42.85c23.6654,0 42.85,19.1846 42.85,42.85c0,23.6654 -19.1846,42.85 -42.85,42.85c-23.6654,0 -42.85,-19.1846 -42.85,-42.85z" fill="url(#color-2)"/><path d="M284.275,180c0,-19.73037 15.99463,-35.725 35.725,-35.725c19.73037,0 35.725,15.99463 35.725,35.725c0,19.73037 -15.99463,35.725 -35.725,35.725c-19.73037,0 -35.725,-15.99463 -35.725,-35.725z" fill="url(#color-3)"/><path d="M288.775,180c0,-17.24509 13.97991,-31.225 31.225,-31.225c17.24509,0 31.225,13.97991 31.225,31.225c0,17.24509 -13.97991,31.225 -31.225,31.225c-17.24509,0 -31.225,-13.97991 -31.225,-31.225z" fill="url(#color-4)"/><path d="M293.025,180c0,-14.89788 12.07712,-26.975 26.975,-26.975c14.89788,0 26.975,12.07712 26.975,26.975c0,14.89788 -12.07712,26.975 -26.975,26.975c-14.89788,0 -26.975,-12.07712 -26.975,-26.975z" fill="url(#color-5)"/></g><path d="M285.65,180c0,-18.97098 15.37902,-34.35 34.35,-34.35c18.97098,0 34.35,15.37902 34.35,34.35c0,18.97098 -15.37902,34.35 -34.35,34.35c-18.97098,0 -34.35,-15.37902 -34.35,-34.35z" fill="url(#color-6)" stroke="#000000" stroke-width="0"/><g stroke="none"><path d="M233.75,147.10249c0,-25.54317 20.70683,-46.25 46.25,-46.25c25.54317,0 46.25,20.70683 46.25,46.25c0,25.54317 -20.70683,46.25 -46.25,46.25c-25.54317,0 -46.25,-20.70683 -46.25,-46.25z" fill="url(#color-7)" stroke-width="NaN"/><g><path d="M332.08739,181.61264l5.11367,10.96462l-13.28397,-7.20623c0,0 4.56803,8.64629 3.73486,7.94048c-1.43491,-1.21558 -4.0121,0.67886 -5.13835,-2.88967c-0.56414,-1.78747 -4.44557,-3.68958 -4.44557,-3.68958l-6.56426,6.35068l-4.5029,-25.12736l-15.20863,-7.87486l-10.00568,-10.72637l-26.18762,-12.43353l21.39232,4.88693l5.44451,-9.36024l6.33315,21.11809l9.33741,-5.49485c0,0 9.77179,13.51656 15.51116,16.4834c2.81625,1.4558 7.82445,15.8777 7.82445,15.8777l7.96576,-12.56765z" fill="#ffa4a4" stroke-width="NaN"/><path d="M322.98729,176.76498l3.80313,8.15458l-9.87953,-5.35939c0,0 3.39732,6.43039 2.77768,5.90547c-1.06717,-0.90404 -2.98387,0.50488 -3.82148,-2.1491c-0.41956,-1.32937 -3.30625,-2.74401 -3.30625,-2.74401l-4.88196,4.72312l-3.34888,-18.68766l-11.31093,-5.85667l-7.4414,-7.9774l-19.4762,-9.24703l15.90985,3.6345l4.04918,-6.96138l4.71008,15.7059l6.9444,-4.08662c0,0 7.26745,10.05251 11.53592,12.259c2.09449,1.0827 5.81918,11.80854 5.81918,11.80854l5.92428,-9.34678z" fill="#ffcaca" stroke-width="NaN"/><path d="M313.60024,171.76448l2.45127,5.25594l-6.36773,-3.45434c0,0 2.1897,4.14464 1.79031,3.80631c-0.68783,-0.58269 -1.92322,0.32541 -2.46309,-1.38518c-0.27042,-0.85683 -2.131,-1.76862 -2.131,-1.76862l-3.14661,3.04423l-2.15848,-12.04492l-7.29032,-3.77485l-4.79627,-5.14174l-12.55316,-5.96006l10.25451,2.34258l2.60984,-4.48688l3.03583,10.12306l4.47593,-2.63399c0,0 4.68416,6.47923 7.43535,7.90139c1.34998,0.69785 3.75068,7.61106 3.75068,7.61106l3.81843,-6.02436z" fill="#ffe4e4" stroke-width="NaN"/><path d="M305.97327,167.70153l1.35288,2.90079l-3.51441,-1.90648c0,0 1.20852,2.28746 0.98809,2.10073c-0.37962,-0.32159 -1.06144,0.1796 -1.3594,-0.76449c-0.14924,-0.47289 -1.17612,-0.97611 -1.17612,-0.97611l-1.73664,1.68013l-1.19128,-6.64768l-4.02359,-2.08337l-2.6471,-2.83777l-6.92819,-3.28942l5.65955,1.29289l1.4404,-2.47634l1.6755,5.587l2.47031,-1.45372c0,0 2.58522,3.57594 4.10362,4.36084c0.74506,0.38514 2.07003,4.2006 2.07003,4.2006l2.10742,-3.32489z" fill="#fff1f1" stroke-width="NaN"/><path d="M300.69308,164.88876l0.59245,1.27031l-1.53902,-0.83488c0,0 0.52923,1.00172 0.4327,0.91995c-0.16624,-0.14083 -0.46482,0.07865 -0.59531,-0.33478c-0.06536,-0.20709 -0.51505,-0.42746 -0.51505,-0.42746l-0.76051,0.73575l-0.52168,-2.91114l-1.76201,-0.91235l-1.15921,-1.24271l-3.03398,-1.44049l2.47841,0.56618l0.63078,-1.08443l0.73373,2.44665l1.08179,-0.63661c0,0 1.13211,1.56597 1.79706,1.90969c0.32627,0.16866 0.9065,1.83952 0.9065,1.83952l0.92287,-1.45603z" fill="#ffffff" stroke-width="NaN"/></g></g><g stroke="none"><path d="M390.61939,125.12189c23.72935,9.45365 35.3021,36.35378 25.84845,60.08313c-9.45365,23.72935 -36.35378,35.3021 -60.08313,25.84845c-23.72935,-9.45365 -35.3021,-36.35378 -25.84845,-60.08313c9.45365,-23.72935 36.35378,-35.3021 60.08313,-25.84845z" fill="url(#color-8)" stroke-width="NaN"/><g><path d="M322.16468,203.70398l-12.07862,0.69249l11.61098,-9.67362c0,0 -9.72297,1.04362 -8.75892,0.53084c1.66033,-0.88313 0.85424,-3.97845 4.5862,-3.704c1.86933,0.13747 5.07291,-2.76436 5.07291,-2.76436l-3.47026,-8.44855l25.00961,5.1166l12.94445,-11.21414l13.66784,-5.3253l21.24279,-19.72633l-12.45731,18.06458l6.68053,8.52216l-21.96242,-1.93247l1.64884,10.70803c0,0 -16.17333,4.07535 -21.05367,8.30913c-2.39473,2.07747 -17.64609,1.39243 -17.64609,1.39243l8.72706,12.05146z" fill="#ffa4a4" stroke-width="NaN"/><path d="M330.03609,197.04422l-8.98308,0.51502l8.63528,-7.19445c0,0 -7.23113,0.77616 -6.51416,0.3948c1.23481,-0.6568 0.63532,-2.95884 3.41084,-2.75473c1.39025,0.10224 3.77282,-2.0559 3.77282,-2.0559l-2.5809,-6.28334l18.60009,3.80531l9.62702,-8.34016l10.16502,-3.96051l15.79863,-14.67083l-9.26472,13.43495l4.96843,6.33809l-16.33385,-1.43721l1.22627,7.96376c0,0 -12.0284,3.03091 -15.65799,6.17964c-1.781,1.54505 -13.12372,1.03556 -13.12372,1.03556l6.49046,8.96288z" fill="#ffcaca" stroke-width="NaN"/><path d="M338.1557,190.17445l-5.78994,0.33196l5.56577,-4.63709c0,0 -4.66075,0.50026 -4.19863,0.25445c0.79588,-0.42333 0.40949,-1.90709 2.19842,-1.77552c0.89607,0.0659 2.43172,-1.3251 2.43172,-1.3251l-1.66348,-4.04985l11.98847,2.45267l6.20498,-5.37555l6.55175,-2.55271l10.18282,-9.45591l-5.97148,8.65934l3.20235,4.08513l-10.5278,-0.92634l0.79039,5.13295c0,0 -7.75277,1.95354 -10.09217,3.98302c-1.14793,0.99584 -8.45874,0.66746 -8.45874,0.66746l4.18335,5.77693z" fill="#ffe4e4" stroke-width="NaN"/><path d="M344.75292,184.59279l-3.19551,0.18322l3.0718,-2.55925c0,0 -2.57231,0.2761 -2.31725,0.14044c0.43925,-0.23364 0.226,-1.05254 1.21332,-0.97993c0.49454,0.03638 1.34208,-0.73134 1.34208,-0.73134l-0.91809,-2.23515l6.61653,1.35365l3.42458,-2.96681l3.61596,-1.40886l5.61999,-5.21879l-3.29571,4.77916l1.7674,2.25462l-5.81038,-0.51125l0.43622,2.83292c0,0 -4.27881,1.07817 -5.56995,2.19825c-0.63354,0.54961 -4.66844,0.36838 -4.66844,0.36838l2.30882,3.18833z" fill="#fff1f1" stroke-width="NaN"/><path d="M349.32018,180.72856l-1.39937,0.08023l1.34519,-1.12074c0,0 -1.12646,0.12091 -1.01477,0.0615c0.19236,-0.10231 0.09897,-0.46092 0.53133,-0.42913c0.21657,0.01593 0.58773,-0.32027 0.58773,-0.32027l-0.40204,-0.97881l2.8975,0.59279l1.49969,-1.29922l1.58349,-0.61696l2.46109,-2.28541l-1.44325,2.09287l0.77397,0.98734l-2.54447,-0.22389l0.19103,1.24058c0,0 -1.87377,0.47215 -2.43918,0.96267c-0.27744,0.24068 -2.0444,0.16131 -2.0444,0.16131l1.01108,1.39622z" fill="#ffffff" stroke-width="NaN"/></g></g><g stroke="none"><path d="M342.45998,152.94191c17.0979,18.97671 15.57482,48.22096 -3.40189,65.31885c-18.97671,17.0979 -48.22095,15.57482 -65.31885,-3.40188c-17.0979,-18.97671 -15.57482,-48.22096 3.40189,-65.31885c18.97671,-17.0979 48.22095,-15.57482 65.31885,3.40188z" fill="url(#color-9)" stroke-width="NaN"/><g><path d="M246.30234,193.12775l-11.1385,-4.72296l14.69267,-3.53822c0,0 -9.1813,-3.36585 -8.08986,-3.39919c1.87971,-0.0574 2.52628,-3.18993 5.75168,-1.29266c1.6156,0.95034 5.77244,-0.23465 5.77244,-0.23465l0.62579,-9.11202l20.1649,15.65367l16.57011,-4.32979l14.61343,1.27138l27.77815,-8.29207l-19.1641,10.6888l2.22061,10.59838l-18.84094,-11.44996l-3.25891,10.33248c0,0 -16.30735,-3.50085 -22.5572,-1.86322c-3.06674,0.80357 -16.44109,-6.5585 -16.44109,-6.5585l2.49446,14.66891z" fill="#ffa4a4" stroke-width="NaN"/><path d="M256.30794,190.63784l-8.2839,-3.51254l10.9272,-2.63145c0,0 -6.82829,-2.50323 -6.01657,-2.52803c1.39797,-0.0427 1.87884,-2.37241 4.27763,-0.96137c1.20155,0.70678 4.29307,-0.17452 4.29307,-0.17452l0.46541,-6.77678l14.99698,11.64192l12.32349,-3.22015l10.86827,0.94555l20.6591,-6.16697l-14.25269,7.94945l1.65151,7.8822l-14.01234,-8.51553l-2.42371,7.68445c0,0 -12.12805,-2.60365 -16.77618,-1.38571c-2.28079,0.59763 -12.22754,-4.87768 -12.22754,-4.87768l1.85517,10.90952z" fill="#ffcaca" stroke-width="NaN"/><path d="M266.62903,188.06942l-5.3393,-2.26397l7.043,-1.69606c0,0 -4.40109,-1.61344 -3.87791,-1.62942c0.90104,-0.02752 1.21099,-1.52911 2.7571,-0.61964c0.77444,0.45555 2.76705,-0.11248 2.76705,-0.11248l0.29998,-4.3679l9.66613,7.50367l7.94296,-2.0755l7.00502,0.60944l13.31558,-3.97485l-9.18641,5.12372l1.06447,5.08038l-9.0315,-5.48859l-1.56217,4.95293c0,0 -7.81701,-1.67815 -10.81289,-0.89314c-1.47006,0.38519 -7.88112,-3.14386 -7.88112,-3.14386l1.19572,7.03161z" fill="#ffe4e4" stroke-width="NaN"/><path d="M275.01494,185.9826l-2.9468,-1.24949l3.88709,-0.93607c0,0 -2.429,-0.89046 -2.14025,-0.89929c0.49729,-0.01519 0.66836,-0.84393 1.52167,-0.34199c0.42742,0.25142 1.52715,-0.06208 1.52715,-0.06208l0.16556,-2.41067l5.33481,4.14133l4.38378,-1.14549l3.86613,0.33636l7.34899,-2.19374l-5.07006,2.82783l0.58748,2.8039l-4.98456,-3.0292l-0.86218,2.73356c0,0 -4.31427,-0.92619 -5.96772,-0.49293c-0.81133,0.21259 -4.34964,-1.73512 -4.34964,-1.73512l0.65993,3.8808z" fill="#fff1f1" stroke-width="NaN"/><path d="M280.82052,184.53787l-1.29046,-0.54718l1.70223,-0.40992c0,0 -1.0637,-0.38996 -0.93725,-0.39382c0.21777,-0.00665 0.29269,-0.36957 0.66637,-0.14977c0.18718,0.1101 0.66878,-0.02719 0.66878,-0.02719l0.07251,-1.05567l2.33621,1.81356l1.91974,-0.50163l1.69304,0.1473l3.21825,-0.96068l-2.22026,1.23835l0.25726,1.22788l-2.18283,-1.32654l-0.37756,1.19708c0,0 -1.88929,-0.40559 -2.61338,-0.21585c-0.35529,0.09309 -1.90478,-0.75985 -1.90478,-0.75985l0.289,1.69947z" fill="#ffffff" stroke-width="NaN"/></g></g><g stroke="none"><path d="M397.84863,224.43393c-1.07344,25.52061 -22.63217,45.33896 -48.15277,44.26551c-25.52061,-1.07344 -45.33895,-22.63216 -44.26552,-48.15276c1.07344,-25.52061 22.63217,-45.33896 48.15277,-44.26551c25.52061,1.07344 45.33895,22.63216 44.26552,48.15276z" fill="url(#color-10)" stroke-width="NaN"/><g><path d="M301.04837,185.82171l-4.64837,-11.16983l12.96939,7.75812c0,0 -4.20064,-8.83062 -3.39786,-8.09042c1.38256,1.27481 4.03708,-0.50966 5.01237,3.10305c0.48853,1.8096 4.28659,3.87315 4.28659,3.87315l6.82534,-6.06921l3.44297,25.2944l14.86425,8.50704l9.54607,11.13738l25.64197,13.52306l-21.16805,-5.78161l-5.83306,9.12317l-5.44008,-21.36558l-9.56008,5.0976c0,0 -9.19514,-13.91528 -14.80475,-17.12069c-2.75258,-1.57286 -7.15029,-16.19249 -7.15029,-16.19249l-8.48688,12.22179z" fill="#ffa4a4" stroke-width="NaN"/><path d="M309.93672,191.0475l-3.45708,-8.3072l9.64558,5.76984c0,0 -3.12409,-6.56748 -2.52705,-6.01698c1.02824,0.94809 3.00245,-0.37904 3.72779,2.3078c0.36333,1.34583 3.18802,2.88053 3.18802,2.88053l5.07613,-4.51379l2.56058,18.81189l11.05482,6.32683l7.09959,8.28307l19.0704,10.05733l-15.74306,-4.29989l-4.33815,6.78506l-4.04589,-15.88996l-7.11,3.79118c0,0 -6.83857,-10.34903 -11.01055,-12.73296c-2.04715,-1.16977 -5.3178,-12.04266 -5.3178,-12.04266l-6.31184,9.08955z" fill="#ffcaca" stroke-width="NaN"/><path d="M319.10533,196.43808l-2.22823,-5.35432l6.21694,3.71889c0,0 -2.01359,-4.233 -1.62878,-3.87818c0.66273,0.61108 1.9352,-0.2443 2.40271,1.48747c0.23417,0.86744 2.0548,1.85661 2.0548,1.85661l3.27177,-2.90931l1.65039,12.12499l7.12525,4.07789l4.57596,5.33876l12.2916,6.48233l-10.147,-2.77145l-2.7961,4.37324l-2.60774,-10.2417l-4.58267,2.44357c0,0 -4.40774,-6.67036 -7.09672,-8.20688c-1.31946,-0.75397 -3.42752,-7.76196 -3.42752,-7.76196l-4.06823,5.85856z" fill="#ffe4e4" stroke-width="NaN"/><path d="M326.55483,200.81795l-1.22978,-2.95508l3.43118,2.05249c0,0 -1.11132,-2.33622 -0.89893,-2.1404c0.36577,0.33726 1.06806,-0.13483 1.32608,0.82094c0.12924,0.47874 1.13406,1.02467 1.13406,1.02467l1.80571,-1.60566l0.91086,6.69187l3.93248,2.25062l2.52551,2.94651l6.78384,3.57767l-5.60022,-1.52959l-1.54319,2.41362l-1.43923,-5.65248l-2.52922,1.34862c0,0 -2.43266,-3.68143 -3.91674,-4.52944c-0.72822,-0.41611 -1.89167,-4.28388 -1.89167,-4.28388l-2.24529,3.23339z" fill="#fff1f1" stroke-width="NaN"/><path d="M331.71214,203.85013l-0.53854,-1.29409l1.50258,0.89882c0,0 -0.48666,-1.02308 -0.39365,-0.93732c0.16017,0.14769 0.46772,-0.05904 0.58072,0.3595c0.0566,0.20965 0.49664,0.44873 0.49664,0.44873l0.79075,-0.70314l0.39889,2.93049l1.72211,0.98559l1.10596,1.29032l2.97076,1.56672l-2.45243,-0.66983l-0.6758,1.05696l-0.63027,-2.47532l-1.10759,0.59059c0,0 -1.0653,-1.61216 -1.71523,-1.98352c-0.31889,-0.18222 -0.82838,-1.87599 -0.82838,-1.87599l-0.98325,1.41596z" fill="#ffffff" stroke-width="NaN"/></g></g><g stroke="none"><path d="M359.99061,88.02971c25.45806,2.08345 44.40693,24.41026 42.32348,49.86831c-2.08345,25.45806 -24.41025,44.40693 -49.8683,42.32349c-25.45806,-2.08345 -44.40693,-24.41026 -42.32348,-49.86831c2.08345,-25.45806 24.41025,-44.40693 49.8683,-42.32349z" fill="url(#color-11)" stroke-width="NaN"/><g><path d="M317.5745,183.22461l-11.34518,4.20229l8.26574,-12.65192c0,0 -8.99007,3.84756 -8.21866,3.07473c1.32857,-1.33098 -0.34935,-4.05409 3.29915,-4.88553c1.82753,-0.41646 4.03989,-4.12981 4.03989,-4.12981l-5.7941,-7.06038l25.41092,-2.43838l9.08912,-14.51563l11.50675,-9.09744l14.52811,-25.08621l-6.61552,20.92243l8.88496,6.18985l-21.56429,4.58954l4.71493,9.75449c0,0 -14.26858,8.63675 -17.69367,14.115c-1.68066,2.68812 -16.463,6.5033 -16.463,6.5033l11.87604,8.96431z" fill="#ffa4a4" stroke-width="NaN"/><path d="M323.14826,174.55022l-8.43761,3.12533l6.14737,-9.40947c0,0 -6.68607,2.86151 -6.11236,2.28674c0.98807,-0.98987 -0.25982,-3.01511 2.45364,-3.63345c1.35917,-0.30974 3.00454,-3.07142 3.00454,-3.07142l-4.30918,-5.25093l18.89855,-1.81345l6.75974,-10.79554l8.55778,-6.76593l10.8048,-18.65707l-4.92009,15.56039l6.6079,4.60349l-16.03774,3.41333l3.50658,7.25459c0,0 -10.61178,6.42329 -13.15908,10.49757c-1.24993,1.9992 -12.24384,4.83662 -12.24384,4.83662l8.83241,6.66691z" fill="#ffcaca" stroke-width="NaN"/><path d="M328.89776,165.60232l-5.43837,2.0144l3.96222,-6.06475c0,0 -4.30943,1.84434 -3.93965,1.47388c0.63685,-0.63801 -0.16746,-1.94335 1.58147,-2.3419c0.87603,-0.19963 1.93655,-1.97965 1.93655,-1.97965l-2.77743,-3.38444l12.18085,-1.16883l4.35692,-6.95813l5.51582,-4.3609l6.96411,-12.02519l-3.17119,10.02927l4.25905,2.96712l-10.33695,2.20002l2.26013,4.67587c0,0 -6.83971,4.14006 -8.48153,6.76608c-0.80564,1.28857 -7.89163,3.11738 -7.89163,3.11738l5.69283,4.29709z" fill="#ffe4e4" stroke-width="NaN"/><path d="M333.56926,158.33216l-3.00147,1.11177l2.18678,-3.34719c0,0 -2.37841,1.01792 -2.17433,0.81345c0.35148,-0.35212 -0.09242,-1.07256 0.87283,-1.29252c0.48349,-0.11018 1.06879,-1.09258 1.06879,-1.09258l-1.53288,-1.86789l6.7227,-0.64509l2.40461,-3.84025l3.04423,-2.40681l3.84357,-6.6368l-1.75021,5.53524l2.3506,1.63759l-5.70505,1.21421l1.24738,2.58065c0,0 -3.7749,2.28493 -4.68102,3.73426c-0.44463,0.71116 -4.35544,1.7205 -4.35544,1.7205l3.14191,2.3716z" fill="#fff1f1" stroke-width="NaN"/><path d="M336.80334,153.29899l-1.31441,0.48686l0.95764,-1.46579c0,0 -1.04155,0.44575 -0.95218,0.35621c0.15392,-0.1542 -0.04047,-0.46969 0.38222,-0.56602c0.21173,-0.04826 0.46805,-0.47847 0.46805,-0.47847l-0.67127,-0.81799l2.94399,-0.2825l1.05302,-1.68172l1.33312,-1.05398l1.68317,-2.90637l-0.76644,2.42397l1.02936,0.71714l-2.49835,0.53172l0.54626,1.13011c0,0 -1.65309,1.00061 -2.0499,1.63531c-0.19471,0.31142 -1.90733,0.75343 -1.90733,0.75343l1.3759,1.03856z" fill="#ffffff" stroke-width="NaN"/></g></g><g stroke="none"><path d="M275.93085,70.03988c13.96612,-21.38694 42.62544,-27.40269 64.01237,-13.43657c21.38694,13.96612 27.40269,42.62544 13.43658,64.01237c-13.96612,21.38694 -42.62544,27.40269 -64.01237,13.43657c-21.38694,-13.96612 -27.40269,-42.62544 -13.43658,-64.01237z" fill="url(#color-12)" stroke-width="NaN"/><g><path d="M339.39841,152.70223l-1.71347,11.97649l-7.18236,-13.29689c0,0 -0.90275,9.73706 -1.21444,8.69054c-0.53679,-1.80235 -3.73045,-1.62527 -2.7223,-5.22895c0.50498,-1.80508 -1.70487,-5.51992 -1.70487,-5.51992l-8.96848,1.72823l9.96855,-23.50083l-8.42827,-14.90906l-2.51281,-14.4518l-15.1283,-24.7289l15.23948,15.78833l9.67647,-4.86032l-6.24398,21.14462l10.82248,0.50461c0,0 0.79139,16.66012 3.97472,22.28229c1.56203,2.75875 -2.13008,17.57231 -2.13008,17.57231l13.54118,-6.16731z" fill="#ffa4a4" stroke-width="NaN"/><path d="M334.42954,143.66773l-1.27433,8.90713l-5.34166,-9.88913c0,0 -0.67138,7.24161 -0.9032,6.46331c-0.39923,-1.34043 -2.7744,-1.20875 -2.02462,-3.88887c0.37556,-1.34247 -1.26796,-4.10526 -1.26796,-4.10526l-6.67003,1.28532l7.4138,-17.47797l-6.26826,-11.08814l-1.86882,-10.74806l-11.25119,-18.39132l11.33388,11.74207l7.19656,-3.61471l-4.64375,15.72563l8.04887,0.37529c0,0 0.58856,12.39041 2.95606,16.57172c1.16171,2.05173 -1.58418,13.06885 -1.58418,13.06885l10.07081,-4.58673z" fill="#ffcaca" stroke-width="NaN"/><path d="M329.30401,134.34836l-0.82136,5.741l-3.44289,-6.37392c0,0 -0.43274,4.6675 -0.58215,4.16585c-0.25732,-0.86395 -1.78821,-0.77908 -1.30494,-2.50652c0.24206,-0.86527 -0.81724,-2.64601 -0.81724,-2.64601l-4.2991,0.82843l4.77848,-11.26522l-4.04012,-7.14673l-1.20453,-6.92754l-7.25183,-11.85391l7.30511,7.56822l4.63845,-2.32982l-2.99308,10.13578l5.18782,0.24189c0,0 0.37935,7.9861 1.9053,10.68111c0.74876,1.32242 -1.02107,8.42338 -1.02107,8.42338l6.49103,-2.95632z" fill="#ffe4e4" stroke-width="NaN"/><path d="M325.13953,126.77636l-0.4533,3.16849l-1.90016,-3.51782c0,0 -0.23882,2.57603 -0.32129,2.29917c-0.14202,-0.47682 -0.98693,-0.42999 -0.72021,-1.38337c0.1336,-0.47755 -0.45104,-1.46034 -0.45104,-1.46034l-2.3727,0.45722l2.63728,-6.21736l-2.22978,-3.94433l-0.66479,-3.82337l-4.00233,-6.54229l4.03176,4.17696l2.56,-1.28584l-1.65191,5.59402l2.8632,0.1335c0,0 0.20937,4.40759 1.05156,5.89499c0.41324,0.72985 -0.56354,4.64892 -0.56354,4.64892l3.58245,-1.63161z" fill="#fff1f1" stroke-width="NaN"/><path d="M322.25643,121.53424l-0.19852,1.38755l-0.83211,-1.54053c0,0 -0.1046,1.12809 -0.14071,1.00684c-0.06219,-0.20881 -0.43219,-0.18831 -0.3154,-0.60581c0.0585,-0.20914 -0.19753,-0.63952 -0.19753,-0.63952l-1.03904,0.20021l1.15491,-2.72269l-0.97646,-1.72729l-0.29112,-1.67432l-1.75269,-2.86498l1.76557,1.82916l1.12108,-0.56309l-0.7234,2.44973l1.25385,0.05845c0,0 0.09169,1.93016 0.46051,2.58153c0.18096,0.31961 -0.24679,2.03584 -0.24679,2.03584l1.56881,-0.71452z" fill="#ffffff" stroke-width="NaN"/></g></g></g></g></svg>