<svg version="1.1" xmlns="http://www.w3.org/2000/svg" xmlns:xlink="http://www.w3.org/1999/xlink" width="69.28799" height="34.39347" viewBox="0,0,69.28799,34.39347"><g transform="translate(-99.85601,-85.62447)"><g data-paper-data="{&quot;isPaintingLayer&quot;:true}" fill-rule="nonzero" stroke-linecap="butt" stroke-linejoin="miter" stroke-miterlimit="10" stroke-dasharray="" stroke-dashoffset="0" style="mix-blend-mode: normal"><path d="M101.35602,114.20133c0,-6.77818 0,-19.52048 0,-23.15267c0,-1.89854 4.31548,-3.92419 8.35064,-3.92419c7.87334,0 35.87413,0 49.86265,0c4.89539,0 8.07469,2.26001 8.07469,4.3166c0,3.49807 0,14.73313 0,21.58301c0,3.23639 -5.20886,5.49386 -9.83456,5.49386c-8.20871,0 -35.22807,0 -48.6894,0c-4.71297,0 -7.76403,-1.72102 -7.76403,-4.3166z" fill-opacity="0.57255" fill="#636363" stroke="#000000" stroke-width="3"/><text transform="translate(107.1468,106.71003) scale(0.33706,0.33706)" font-size="40" xml:space="preserve" fill="#00ff2d" fill-rule="nonzero" stroke="none" stroke-width="1" stroke-linecap="butt" stroke-linejoin="miter" stroke-miterlimit="10" stroke-dasharray="" stroke-dashoffset="0" font-family="&quot;MV Boli&quot;, Sans Serif" font-weight="normal" text-anchor="start" style="mix-blend-mode: normal"><tspan x="0" dy="0">Continue</tspan></text><text transform="translate(110.47699,114.29367) scale(0.15889,0.15889)" font-size="40" xml:space="preserve" fill="#00ff2d" fill-rule="nonzero" stroke="none" stroke-width="1" stroke-linecap="butt" stroke-linejoin="miter" stroke-miterlimit="10" stroke-dasharray="" stroke-dashoffset="0" font-family="&quot;MV Boli&quot;, Sans Serif" font-weight="normal" text-anchor="start" style="mix-blend-mode: normal"><tspan x="0" dy="0">(Recommended)</tspan></text></g></g></svg>