<svg version="1.1" xmlns="http://www.w3.org/2000/svg" xmlns:xlink="http://www.w3.org/1999/xlink" width="73.473" height="40.98507" viewBox="0,0,73.473,40.98507"><defs><radialGradient cx="278.97033" cy="185.0248" r="19.25" gradientUnits="userSpaceOnUse" id="color-1"><stop offset="0" stop-color="#205069"/><stop offset="1" stop-color="#205069" stop-opacity="0"/></radialGradient><radialGradient cx="278.97034" cy="180.18766" r="5.58052" gradientUnits="userSpaceOnUse" id="color-2"><stop offset="0" stop-color="#2c7da8"/><stop offset="1" stop-color="#49a2d1"/></radialGradient><radialGradient cx="278.97031" cy="189.86194" r="5.58052" gradientUnits="userSpaceOnUse" id="color-3"><stop offset="0" stop-color="#2c7da8"/><stop offset="1" stop-color="#49a2d1"/></radialGradient><radialGradient cx="274.13318" cy="185.09569" r="5.58052" gradientUnits="userSpaceOnUse" id="color-4"><stop offset="0" stop-color="#2c7da8"/><stop offset="1" stop-color="#49a2d1"/></radialGradient><radialGradient cx="283.80747" cy="185.09571" r="5.58052" gradientUnits="userSpaceOnUse" id="color-5"><stop offset="0" stop-color="#2c7da8"/><stop offset="1" stop-color="#49a2d1"/></radialGradient><radialGradient cx="278.95783" cy="185.0957" r="5.58051" gradientUnits="userSpaceOnUse" id="color-6"><stop offset="0" stop-color="#a1deff"/><stop offset="1" stop-color="#00a5ff"/></radialGradient><radialGradient cx="283.99734" cy="187.50987" r="19.25" gradientUnits="userSpaceOnUse" id="color-7"><stop offset="0" stop-color="#205069"/><stop offset="1" stop-color="#205069" stop-opacity="0"/></radialGradient><radialGradient cx="283.99735" cy="182.67273" r="5.58052" gradientUnits="userSpaceOnUse" id="color-8"><stop offset="0" stop-color="#2c7da8"/><stop offset="1" stop-color="#49a2d1"/></radialGradient><radialGradient cx="283.99732" cy="192.34701" r="5.58052" gradientUnits="userSpaceOnUse" id="color-9"><stop offset="0" stop-color="#2c7da8"/><stop offset="1" stop-color="#49a2d1"/></radialGradient><radialGradient cx="279.16019" cy="187.58076" r="5.58052" gradientUnits="userSpaceOnUse" id="color-10"><stop offset="0" stop-color="#2c7da8"/><stop offset="1" stop-color="#49a2d1"/></radialGradient><radialGradient cx="288.83448" cy="187.58078" r="5.58052" gradientUnits="userSpaceOnUse" id="color-11"><stop offset="0" stop-color="#2c7da8"/><stop offset="1" stop-color="#49a2d1"/></radialGradient><radialGradient cx="283.98483" cy="187.58077" r="5.58051" gradientUnits="userSpaceOnUse" id="color-12"><stop offset="0" stop-color="#a1deff"/><stop offset="1" stop-color="#00a5ff"/></radialGradient></defs><g transform="translate(-229.77434,-165.7748)"><g data-paper-data="{&quot;isPaintingLayer&quot;:true}" fill-rule="nonzero" stroke-linecap="butt" stroke-linejoin="miter" stroke-miterlimit="10" stroke-dasharray="" stroke-dashoffset="0" style="mix-blend-mode: normal"><path d="M241.62929,204.2748c-5.71888,0 -10.35495,-4.13788 -10.35495,-9.24221v-15.04545c0,-5.10433 4.63607,-9.2422 10.35495,-9.2422h46.23609c5.71889,0 10.35495,4.13788 10.35495,9.2422v15.04545c0,5.10433 -4.63606,9.24221 -10.35495,9.24221z" fill-opacity="0.70196" fill="#000000" stroke="#ffffff" stroke-width="3"/><text transform="translate(249.616,180.8697) scale(0.19791,0.19791)" font-size="40" xml:space="preserve" fill-opacity="0.9098" fill="#00631b" fill-rule="nonzero" stroke-opacity="0.9098" stroke="#00631b" stroke-width="1" stroke-linecap="butt" stroke-linejoin="miter" stroke-miterlimit="10" stroke-dasharray="" stroke-dashoffset="0" font-family="&quot;MV Boli&quot;, Technological" font-weight="normal" text-anchor="middle" style="mix-blend-mode: normal"><tspan x="0" dy="0">Defense</tspan><tspan x="0" dy="48px">Shield</tspan></text><g><path d="M259.72033,185.0248c0,-10.63148 8.61852,-19.25 19.25,-19.25c10.63148,0 19.25,8.61852 19.25,19.25c0,10.63148 -8.61852,19.25 -19.25,19.25c-10.63148,0 -19.25,-8.61852 -19.25,-19.25z" fill="url(#color-1)" stroke="#6e6e6e" stroke-width="0"/><path d="M273.54882,183.85302c1.24437,-2.15531 3.83883,-6.64906 4.60198,-7.97086c0.41248,-0.71442 1.33146,-0.70718 1.74666,0.01196c0.73393,1.27121 3.14935,5.45484 4.44044,7.69107c0.49984,0.86574 0.09975,1.43961 -0.99025,1.43961c-2.732,0 -7.71674,0 -9.08436,0c-0.6833,0 -1.12688,-0.45746 -0.71447,-1.17178z" fill="url(#color-2)" stroke="#6fc5f2" stroke-width="0.5"/><path d="M284.39184,186.19658c-1.24437,2.15531 -3.83883,6.64906 -4.60198,7.97086c-0.41248,0.71442 -1.33146,0.70718 -1.74666,-0.01196c-0.73393,-1.27121 -3.14935,-5.45484 -4.44044,-7.69107c-0.49984,-0.86574 -0.09975,-1.43961 0.99025,-1.43961c2.732,0 7.71674,0 9.08436,0c0.6833,0 1.12688,0.45746 0.71447,1.17178z" fill="url(#color-3)" stroke="#6fc5f2" stroke-width="0.5"/><path d="M277.79855,190.51721c-2.15531,-1.24437 -6.64906,-3.83883 -7.97086,-4.60198c-0.71442,-0.41248 -0.70718,-1.33146 0.01196,-1.74666c1.27121,-0.73393 5.45484,-3.14935 7.69107,-4.44044c0.86574,-0.49984 1.43961,-0.09975 1.43961,0.99025c0,2.732 0,7.71674 0,9.08436c0,0.6833 -0.45746,1.12688 -1.17178,0.71447z" fill="url(#color-4)" stroke="#6fc5f2" stroke-width="0.5"/><path d="M280.14211,179.6742c2.15531,1.24437 6.64906,3.83883 7.97086,4.60198c0.71442,0.41248 0.70718,1.33146 -0.01196,1.74666c-1.27121,0.73393 -5.45484,3.14935 -7.69107,4.44044c-0.86574,0.49984 -1.43961,0.09975 -1.43961,-0.99025c0,-2.732 0,-7.71674 0,-9.08436c0,-0.6833 0.45746,-1.12688 1.17178,-0.71447z" fill="url(#color-5)" stroke="#6fc5f2" stroke-width="0.5"/><path d="M273.37731,185.0957c0,-3.08203 2.49849,-5.58052 5.58052,-5.58052c3.08203,0 5.58051,2.49849 5.58051,5.58052c0,3.08203 -2.49849,5.58051 -5.58051,5.58051c-3.08203,0 -5.58052,-2.49848 -5.58052,-5.58051z" fill="url(#color-6)" stroke="#72a2bb" stroke-width="0.5"/></g><g><path d="M264.74734,187.50987c0,-10.63148 8.61852,-19.25 19.25,-19.25c10.63148,0 19.25,8.61852 19.25,19.25c0,10.63148 -8.61852,19.25 -19.25,19.25c-10.63148,0 -19.25,-8.61852 -19.25,-19.25z" fill="url(#color-7)" stroke="#6e6e6e" stroke-width="0"/><path d="M278.57583,186.33809c1.24437,-2.15531 3.83883,-6.64906 4.60198,-7.97086c0.41248,-0.71442 1.33146,-0.70718 1.74666,0.01196c0.73393,1.27121 3.14935,5.45484 4.44044,7.69107c0.49984,0.86574 0.09975,1.43961 -0.99025,1.43961c-2.732,0 -7.71674,0 -9.08436,0c-0.6833,0 -1.12688,-0.45746 -0.71447,-1.17178z" fill="url(#color-8)" stroke="#6fc5f2" stroke-width="0.5"/><path d="M289.41884,188.68165c-1.24437,2.15531 -3.83883,6.64906 -4.60198,7.97086c-0.41248,0.71442 -1.33146,0.70718 -1.74666,-0.01196c-0.73393,-1.27121 -3.14935,-5.45484 -4.44044,-7.69107c-0.49984,-0.86574 -0.09975,-1.43961 0.99025,-1.43961c2.732,0 7.71674,0 9.08436,0c0.6833,0 1.12688,0.45746 0.71447,1.17178z" fill="url(#color-9)" stroke="#6fc5f2" stroke-width="0.5"/><path d="M282.82556,193.00228c-2.15531,-1.24437 -6.64906,-3.83883 -7.97086,-4.60198c-0.71442,-0.41248 -0.70718,-1.33146 0.01196,-1.74666c1.27121,-0.73393 5.45484,-3.14935 7.69107,-4.44044c0.86574,-0.49984 1.43961,-0.09975 1.43961,0.99025c0,2.732 0,7.71674 0,9.08436c0,0.6833 -0.45746,1.12688 -1.17178,0.71447z" fill="url(#color-10)" stroke="#6fc5f2" stroke-width="0.5"/><path d="M285.16911,182.15927c2.15531,1.24437 6.64906,3.83883 7.97086,4.60198c0.71442,0.41248 0.70718,1.33146 -0.01196,1.74666c-1.27121,0.73393 -5.45484,3.14935 -7.69107,4.44044c-0.86574,0.49984 -1.43961,0.09975 -1.43961,-0.99025c0,-2.732 0,-7.71674 0,-9.08436c0,-0.6833 0.45746,-1.12688 1.17178,-0.71447z" fill="url(#color-11)" stroke="#6fc5f2" stroke-width="0.5"/><path d="M278.40432,187.58077c0,-3.08203 2.49849,-5.58052 5.58052,-5.58052c3.08203,0 5.58051,2.49849 5.58051,5.58052c0,3.08203 -2.49849,5.58051 -5.58051,5.58051c-3.08203,0 -5.58052,-2.49848 -5.58052,-5.58051z" fill="url(#color-12)" stroke="#72a2bb" stroke-width="0.5"/></g><g fill="#ffffff" stroke="#ffffff" stroke-width="0" font-weight="normal" font-size="40" text-anchor="start"><text transform="translate(235.60768,199.08029) scale(0.22486,0.21833)" font-size="40" xml:space="preserve" fill="#ffffff" fill-rule="nonzero" stroke="#ffffff" stroke-width="0" stroke-linecap="butt" stroke-linejoin="miter" stroke-miterlimit="10" stroke-dasharray="" stroke-dashoffset="0" font-family="&quot;MV Boli&quot;, Technological" font-weight="normal" text-anchor="start" style="mix-blend-mode: normal"><tspan x="0" dy="0">Lv</tspan></text><text transform="translate(246.41375,199.10124) scale(0.34533,0.3353)" font-size="40" xml:space="preserve" fill="#ffffff" fill-rule="nonzero" stroke="#ffffff" stroke-width="0" stroke-linecap="butt" stroke-linejoin="miter" stroke-miterlimit="10" stroke-dasharray="" stroke-dashoffset="0" font-family="Handwriting" font-weight="normal" text-anchor="start" style="mix-blend-mode: normal"><tspan x="0" dy="0">.</tspan></text></g></g></g></svg>