<svg version="1.1" xmlns="http://www.w3.org/2000/svg" xmlns:xlink="http://www.w3.org/1999/xlink" width="434.19937" height="325.69509" viewBox="0,0,434.19937,325.69509"><defs><linearGradient x1="298.15725" y1="194.30891" x2="298.15725" y2="37.83921" gradientUnits="userSpaceOnUse" id="color-1"><stop offset="0" stop-color="#140f1e"/><stop offset="1" stop-color="#000000"/></linearGradient><linearGradient x1="354.17325" y1="179.99999" x2="354.17325" y2="23.53029" gradientUnits="userSpaceOnUse" id="color-2"><stop offset="0" stop-color="#140f1e"/><stop offset="1" stop-color="#000000"/></linearGradient><linearGradient x1="280.65487" y1="168.57028" x2="124.18517" y2="168.57028" gradientUnits="userSpaceOnUse" id="color-3"><stop offset="0" stop-color="#140f1e"/><stop offset="1" stop-color="#000000"/></linearGradient><linearGradient x1="362.79742" y1="173.76865" x2="519.26712" y2="173.76865" gradientUnits="userSpaceOnUse" id="color-4"><stop offset="0" stop-color="#140f1e"/><stop offset="1" stop-color="#000000"/></linearGradient><linearGradient x1="317.44887" y1="92.33145" x2="317.44887" y2="274.17654" gradientUnits="userSpaceOnUse" id="color-5"><stop offset="0" stop-color="#261c37"/><stop offset="1" stop-color="#000000"/></linearGradient><radialGradient cx="303.36115" cy="141.09107" r="22.70629" gradientUnits="userSpaceOnUse" id="color-6"><stop offset="0" stop-color="#000000" stop-opacity="0.54118"/><stop offset="1" stop-color="#000000" stop-opacity="0"/></radialGradient><radialGradient cx="348.77372" cy="141.09107" r="22.70628" gradientUnits="userSpaceOnUse" id="color-7"><stop offset="0" stop-color="#000000" stop-opacity="0.54118"/><stop offset="1" stop-color="#000000" stop-opacity="0"/></radialGradient><radialGradient cx="317.44887" cy="188.35627" r="23.81061" gradientUnits="userSpaceOnUse" id="color-8"><stop offset="0" stop-color="#000000"/><stop offset="1" stop-color="#000000" stop-opacity="0"/></radialGradient><radialGradient cx="293.63826" cy="211.27573" r="23.81061" gradientUnits="userSpaceOnUse" id="color-9"><stop offset="0" stop-color="#000000"/><stop offset="1" stop-color="#000000" stop-opacity="0"/></radialGradient><radialGradient cx="356.1411" cy="223.99063" r="23.81061" gradientUnits="userSpaceOnUse" id="color-10"><stop offset="0" stop-color="#000000"/><stop offset="1" stop-color="#000000" stop-opacity="0"/></radialGradient><radialGradient cx="317.44887" cy="234.19518" r="23.81061" gradientUnits="userSpaceOnUse" id="color-11"><stop offset="0" stop-color="#000000"/><stop offset="1" stop-color="#000000" stop-opacity="0"/></radialGradient><radialGradient cx="269.82766" cy="234.19518" r="23.81061" gradientUnits="userSpaceOnUse" id="color-12"><stop offset="0" stop-color="#000000"/><stop offset="1" stop-color="#000000" stop-opacity="0"/></radialGradient><radialGradient cx="269.82766" cy="257.11463" r="23.81061" gradientUnits="userSpaceOnUse" id="color-13"><stop offset="0" stop-color="#000000"/><stop offset="1" stop-color="#000000" stop-opacity="0"/></radialGradient><radialGradient cx="308.51989" cy="257.11463" r="23.81061" gradientUnits="userSpaceOnUse" id="color-14"><stop offset="0" stop-color="#000000"/><stop offset="1" stop-color="#000000" stop-opacity="0"/></radialGradient><radialGradient cx="341.25947" cy="257.11463" r="23.81061" gradientUnits="userSpaceOnUse" id="color-15"><stop offset="0" stop-color="#000000"/><stop offset="1" stop-color="#000000" stop-opacity="0"/></radialGradient><radialGradient cx="379.95171" cy="251.25711" r="23.81061" gradientUnits="userSpaceOnUse" id="color-16"><stop offset="0" stop-color="#000000"/><stop offset="1" stop-color="#000000" stop-opacity="0"/></radialGradient><radialGradient cx="379.95171" cy="223.99063" r="23.81061" gradientUnits="userSpaceOnUse" id="color-17"><stop offset="0" stop-color="#000000"/><stop offset="1" stop-color="#000000" stop-opacity="0"/></radialGradient><radialGradient cx="341.25947" cy="206.17346" r="23.81061" gradientUnits="userSpaceOnUse" id="color-18"><stop offset="0" stop-color="#000000"/><stop offset="1" stop-color="#000000" stop-opacity="0"/></radialGradient><radialGradient cx="365.07008" cy="188.35627" r="23.81061" gradientUnits="userSpaceOnUse" id="color-19"><stop offset="0" stop-color="#000000"/><stop offset="1" stop-color="#000000" stop-opacity="0"/></radialGradient><radialGradient cx="343.81061" cy="202.91946" r="23.81061" gradientUnits="userSpaceOnUse" id="color-20"><stop offset="0" stop-color="#000000"/><stop offset="1" stop-color="#000000" stop-opacity="0"/></radialGradient><radialGradient cx="308.51989" cy="223.99063" r="23.81061" gradientUnits="userSpaceOnUse" id="color-21"><stop offset="0" stop-color="#000000"/><stop offset="1" stop-color="#000000" stop-opacity="0"/></radialGradient><radialGradient cx="280.65487" cy="186.71682" r="23.81061" gradientUnits="userSpaceOnUse" id="color-22"><stop offset="0" stop-color="#000000"/><stop offset="1" stop-color="#000000" stop-opacity="0"/></radialGradient><radialGradient cx="284.70929" cy="223.99063" r="23.81061" gradientUnits="userSpaceOnUse" id="color-23"><stop offset="0" stop-color="#000000"/><stop offset="1" stop-color="#000000" stop-opacity="0"/></radialGradient><radialGradient cx="256.84428" cy="178.04178" r="23.81061" gradientUnits="userSpaceOnUse" id="color-24"><stop offset="0" stop-color="#000000"/><stop offset="1" stop-color="#000000" stop-opacity="0"/></radialGradient><radialGradient cx="260.89868" cy="201.07118" r="23.81061" gradientUnits="userSpaceOnUse" id="color-25"><stop offset="0" stop-color="#000000"/><stop offset="1" stop-color="#000000" stop-opacity="0"/></radialGradient><radialGradient cx="233.03366" cy="163.79737" r="23.81061" gradientUnits="userSpaceOnUse" id="color-26"><stop offset="0" stop-color="#000000"/><stop offset="1" stop-color="#000000" stop-opacity="0"/></radialGradient><radialGradient cx="213.27747" cy="178.15173" r="23.81061" gradientUnits="userSpaceOnUse" id="color-27"><stop offset="0" stop-color="#000000"/><stop offset="1" stop-color="#000000" stop-opacity="0"/></radialGradient><radialGradient cx="403.76231" cy="178.15173" r="23.81061" gradientUnits="userSpaceOnUse" id="color-28"><stop offset="0" stop-color="#000000"/><stop offset="1" stop-color="#000000" stop-opacity="0"/></radialGradient><radialGradient cx="450.81162" cy="171.75221" r="23.81061" gradientUnits="userSpaceOnUse" id="color-29"><stop offset="0" stop-color="#000000"/><stop offset="1" stop-color="#000000" stop-opacity="0"/></radialGradient><radialGradient cx="371.48" cy="95.46534" r="23.81061" gradientUnits="userSpaceOnUse" id="color-30"><stop offset="0" stop-color="#000000"/><stop offset="1" stop-color="#000000" stop-opacity="0"/></radialGradient><radialGradient cx="371.48" cy="72.54589" r="23.81061" gradientUnits="userSpaceOnUse" id="color-31"><stop offset="0" stop-color="#000000"/><stop offset="1" stop-color="#000000" stop-opacity="0"/></radialGradient><radialGradient cx="352.15681" cy="91.9858" r="23.81061" gradientUnits="userSpaceOnUse" id="color-32"><stop offset="0" stop-color="#000000"/><stop offset="1" stop-color="#000000" stop-opacity="0"/></radialGradient><radialGradient cx="347.6694" cy="49.62644" r="23.81061" gradientUnits="userSpaceOnUse" id="color-33"><stop offset="0" stop-color="#000000"/><stop offset="1" stop-color="#000000" stop-opacity="0"/></radialGradient><radialGradient cx="371.48" cy="49.62644" r="23.81061" gradientUnits="userSpaceOnUse" id="color-34"><stop offset="0" stop-color="#000000"/><stop offset="1" stop-color="#000000" stop-opacity="0"/></radialGradient><radialGradient cx="323.85879" cy="95.46534" r="23.81061" gradientUnits="userSpaceOnUse" id="color-35"><stop offset="0" stop-color="#000000"/><stop offset="1" stop-color="#000000" stop-opacity="0"/></radialGradient><radialGradient cx="280.65488" cy="155.12233" r="23.81061" gradientUnits="userSpaceOnUse" id="color-36"><stop offset="0" stop-color="#000000"/><stop offset="1" stop-color="#000000" stop-opacity="0"/></radialGradient><radialGradient cx="260.89869" cy="132.31283" r="23.81061" gradientUnits="userSpaceOnUse" id="color-37"><stop offset="0" stop-color="#000000"/><stop offset="1" stop-color="#000000" stop-opacity="0"/></radialGradient><radialGradient cx="320" cy="180" r="149.66667" gradientUnits="userSpaceOnUse" id="color-38"><stop offset="0" stop-color="#171122"/><stop offset="1" stop-color="#171122" stop-opacity="0"/></radialGradient></defs><g transform="translate(-104.62646,-3.97158)"><g data-paper-data="{&quot;isPaintingLayer&quot;:true}" fill-rule="nonzero" stroke="none" stroke-width="0" stroke-linecap="butt" stroke-linejoin="miter" stroke-miterlimit="10" stroke-dasharray="" stroke-dashoffset="0" style="mix-blend-mode: normal"><path d="M284.70928,194.30892c0,0 0,-69.96031 0,-85.88826c0,-6.13825 2.30453,-28.91288 2.30453,-28.91288c0,0 6.27498,-61.22728 8.50379,-61.22728c0.56684,0 3.35047,37.62764 5.71033,45.1017c5.38772,17.06378 11.00866,37.38504 11.00866,37.38504c0,0 3.40151,3.06136 3.40151,10.20454c0,16.66743 0,83.33713 0,83.33713h-30.92882z" data-paper-data="{&quot;index&quot;:null}" fill="url(#color-1)"/><path d="M367.62121,179.99999h-30.92882c0,0 0,-66.6697 0,-83.33713c0,-7.14318 3.40151,-10.20454 3.40151,-10.20454c0,0 5.62094,-20.32126 11.00866,-37.38504c2.35986,-7.47406 5.14349,-45.1017 5.71033,-45.1017c2.22881,0 8.50379,61.22728 8.50379,61.22728c0,0 2.30453,22.77463 2.30453,28.91288c0,15.92795 0,85.88826 0,85.88826z" fill="url(#color-2)"/><path d="M280.65487,155.12232v30.92882c0,0 -66.6697,0 -83.33712,0c-7.14318,0 -10.20454,-3.40152 -10.20454,-3.40152c0,0 -20.32126,-5.62095 -37.38504,-11.00866c-7.47406,-2.35986 -45.10171,-5.1435 -45.10171,-5.71033c0,-2.22881 61.22728,-8.50378 61.22728,-8.50378c0,0 22.77463,-2.30453 28.91288,-2.30453c15.92795,0 85.88826,0 85.88826,0z" fill="url(#color-3)"/><path d="M362.79742,187.21661v-30.92882c0,0 66.6697,0 83.33713,0c7.14318,0 10.20454,3.40151 10.20454,3.40151c0,0 20.32126,5.62094 37.38504,11.00866c7.47406,2.35986 45.1017,5.14349 45.1017,5.71033c0,2.22881 -61.22728,8.50379 -61.22728,8.50379c0,0 -22.77463,2.30453 -28.91288,2.30453c-15.92795,0 -85.88826,0 -85.88826,0z" fill="url(#color-4)"/><path d="M268.55208,270.56534c0,0 -13.60606,-23.6538 -13.60606,-38.88242c0,-25.16429 17.87124,-85.94725 21.42819,-115.91686c0.93877,-7.90971 20.24036,-9.32382 20.24036,-9.32382c0,0 44.21601,-10.24236 57.69394,-13.30552c7.10933,-1.61576 12.03713,-0.30054 12.03713,-0.30054c0,0 5.5657,2.87541 6.27618,12.89706c2.33299,32.90804 7.32989,106.19418 7.32989,130.20158c0,14.29476 -8.50379,34.63053 -8.50379,34.63053c0,0 -6.33414,-21.98161 -14.50261,-24.81661c-2.28661,-0.79361 -5.50071,19.50669 -7.80552,18.35145c-2.93147,-1.46934 -2.62933,-10.31707 -5.76319,-10.96964c-2.43831,-0.50773 -3.24551,17.48441 -5.77678,16.5037c-2.6713,-1.03495 -4.53804,-23.95798 -7.25262,-24.45742c-2.84719,-0.52384 -2.35581,18.47805 -5.29137,17.88923c-2.50056,-0.50158 -7.54311,-18.69127 -9.99646,-18.81241c-2.87344,-0.14189 -4.01459,30.24622 -6.78302,29.92029c-3.17989,-0.37437 -4.58425,-17.66725 -7.55611,-17.8383c-3.95977,-0.22792 -6.0139,12.26508 -9.43422,11.96241c-2.08733,-0.18471 -3.20425,-18.99218 -5.02269,-18.99218c-1.87369,0 -4.43554,21.25947 -5.95265,21.25947c-2.61785,0 -2.95629,-20.40909 -4.25189,-20.40909c-3.11009,0 -7.5067,20.40909 -7.5067,20.40909z" fill="url(#color-5)"/><path d="M280.65487,141.09107c0,-12.54033 10.16595,-22.70629 22.70628,-22.70629c12.54033,0 22.70629,10.16595 22.70629,22.70629c0,12.54033 -10.16595,22.70629 -22.70629,22.70629c-12.54033,0 -22.70628,-10.16595 -22.70628,-22.70629z" fill="url(#color-6)"/><path d="M326.06744,141.09107c0,-12.54033 10.16595,-22.70629 22.70628,-22.70629c12.54034,0 22.70628,10.16595 22.70628,22.70629c0,12.54034 -10.16595,22.70629 -22.70628,22.70629c-12.54034,0 -22.70628,-10.16595 -22.70628,-22.70629z" fill="url(#color-7)"/><path d="M293.63826,179.04288c0,-2.18008 5.84259,2.28848 9.24353,1.70062c2.95839,-0.51137 3.4485,-6.09032 4.47816,-7.51998c1.76415,-2.44948 5.80687,-0.20315 8.52704,-1.56516c2.51718,-1.26037 3.65745,-6.22155 6.66415,-6.22155c2.27735,0 4.09144,7.096 5.65332,8.75439c2.54926,2.70678 4.42662,0.83298 6.54971,3.55198c2.47775,3.17319 6.5053,2.06402 6.5053,6.40197c0,2.18651 -0.65165,9.90153 -2.63848,11.51314c-3.06114,2.48303 -8.12348,-1.34449 -9.76584,1.42255c-2.3289,3.92373 2.72491,10.02454 -2.05212,10.02454c-1.52762,0 -8.42738,-3.19598 -12.15703,-2.12094c-5.00977,1.44404 -7.03554,7.1745 -8.66527,6.17495c-1.55773,-0.95539 -5.17838,-4.59437 -4.54575,-8.94763c0.52312,-3.59968 5.29908,-7.95668 4.58728,-9.29522c-0.77511,-1.45759 -5.38118,-0.36185 -8.55553,-3.41957c-2.52305,-2.43035 -3.82847,-9.05042 -3.82847,-10.45409z" fill="url(#color-8)"/><path d="M269.82765,201.96234c0,-2.18008 5.84259,2.28848 9.24353,1.70062c2.95839,-0.51137 3.4485,-6.09032 4.47816,-7.51998c1.76415,-2.44948 5.80687,-0.20315 8.52704,-1.56516c2.51718,-1.26037 3.65745,-6.22155 6.66415,-6.22155c2.27735,0 4.09144,7.096 5.65332,8.75439c2.54926,2.70678 4.42662,0.83298 6.54971,3.55198c2.47775,3.17319 6.5053,2.06402 6.5053,6.40197c0,2.18651 -0.65165,9.90153 -2.63848,11.51314c-3.06114,2.48303 -8.12348,-1.34449 -9.76584,1.42255c-2.3289,3.92373 2.72491,10.02454 -2.05212,10.02454c-1.52762,0 -8.42738,-3.19598 -12.15703,-2.12094c-5.00977,1.44404 -7.03554,7.1745 -8.66527,6.17495c-1.55773,-0.95539 -5.17838,-4.59437 -4.54575,-8.94763c0.52312,-3.59968 5.29908,-7.95668 4.58728,-9.29522c-0.77511,-1.45759 -5.38118,-0.36185 -8.55553,-3.41957c-2.52305,-2.43035 -3.82847,-9.05042 -3.82847,-10.45409z" fill="url(#color-9)"/><path d="M332.33049,214.67724c0,-2.18008 5.84259,2.28848 9.24353,1.70062c2.95839,-0.51137 3.4485,-6.09032 4.47816,-7.51998c1.76415,-2.44948 5.80687,-0.20315 8.52704,-1.56516c2.51718,-1.26037 3.65745,-6.22155 6.66415,-6.22155c2.27735,0 4.09144,7.096 5.65332,8.75439c2.54926,2.70678 4.42662,0.83298 6.54971,3.55198c2.47775,3.17319 6.5053,2.06402 6.5053,6.40197c0,2.18651 -0.65165,9.90153 -2.63848,11.51314c-3.06114,2.48303 -8.12348,-1.34449 -9.76584,1.42255c-2.3289,3.92373 2.72491,10.02454 -2.05212,10.02454c-1.52762,0 -8.42738,-3.19598 -12.15703,-2.12094c-5.00977,1.44404 -7.03554,7.1745 -8.66527,6.17495c-1.55773,-0.95539 -5.17838,-4.59437 -4.54575,-8.94763c0.52312,-3.59968 5.29908,-7.95668 4.58728,-9.29522c-0.77511,-1.45759 -5.38118,-0.36185 -8.55553,-3.41957c-2.52305,-2.43035 -3.82847,-9.05042 -3.82847,-10.45409z" fill="url(#color-10)"/><path d="M293.63826,224.88179c0,-2.18008 5.84259,2.28848 9.24353,1.70062c2.95839,-0.51137 3.4485,-6.09032 4.47816,-7.51998c1.76415,-2.44948 5.80687,-0.20315 8.52704,-1.56516c2.51718,-1.26037 3.65745,-6.22155 6.66415,-6.22155c2.27735,0 4.09144,7.096 5.65332,8.75439c2.54926,2.70678 4.42662,0.83298 6.54971,3.55198c2.47775,3.17319 6.5053,2.06402 6.5053,6.40197c0,2.18651 -0.65165,9.90153 -2.63848,11.51314c-3.06114,2.48303 -8.12348,-1.34449 -9.76584,1.42255c-2.3289,3.92373 2.72491,10.02454 -2.05212,10.02454c-1.52762,0 -8.42738,-3.19598 -12.15703,-2.12094c-5.00977,1.44404 -7.03554,7.1745 -8.66527,6.17495c-1.55773,-0.95539 -5.17838,-4.59437 -4.54575,-8.94763c0.52312,-3.59968 5.29908,-7.95668 4.58728,-9.29522c-0.77511,-1.45759 -5.38118,-0.36185 -8.55553,-3.41957c-2.52305,-2.43035 -3.82847,-9.05042 -3.82847,-10.45409z" fill="url(#color-11)"/><path d="M246.01705,224.88179c0,-2.18008 5.84259,2.28848 9.24353,1.70062c2.95839,-0.51137 3.4485,-6.09032 4.47816,-7.51998c1.76415,-2.44948 5.80687,-0.20315 8.52704,-1.56516c2.51718,-1.26037 3.65745,-6.22155 6.66415,-6.22155c2.27735,0 4.09144,7.096 5.65332,8.75439c2.54926,2.70678 4.42662,0.83298 6.54971,3.55198c2.47775,3.17319 6.5053,2.06402 6.5053,6.40197c0,2.18651 -0.65165,9.90153 -2.63848,11.51314c-3.06114,2.48303 -8.12348,-1.34449 -9.76584,1.42255c-2.3289,3.92373 2.72491,10.02454 -2.05212,10.02454c-1.52762,0 -8.42738,-3.19598 -12.15703,-2.12094c-5.00977,1.44404 -7.03554,7.1745 -8.66527,6.17495c-1.55773,-0.95539 -5.17838,-4.59437 -4.54575,-8.94763c0.52312,-3.59968 5.29908,-7.95668 4.58728,-9.29522c-0.77511,-1.45759 -5.38118,-0.36185 -8.55553,-3.41957c-2.52305,-2.43035 -3.82847,-9.05042 -3.82847,-10.45409z" fill="url(#color-12)"/><path d="M246.01705,247.80124c0,-2.18008 5.84259,2.28848 9.24353,1.70062c2.95839,-0.51137 3.4485,-6.09032 4.47816,-7.51998c1.76415,-2.44948 5.80687,-0.20315 8.52704,-1.56516c2.51718,-1.26037 3.65745,-6.22155 6.66415,-6.22155c2.27735,0 4.09144,7.096 5.65332,8.75439c2.54926,2.70678 4.42662,0.83298 6.54971,3.55198c2.47775,3.17319 6.5053,2.06402 6.5053,6.40197c0,2.18651 -0.65165,9.90153 -2.63848,11.51314c-3.06114,2.48303 -8.12348,-1.34449 -9.76584,1.42255c-2.3289,3.92373 2.72491,10.02454 -2.05212,10.02454c-1.52762,0 -8.42738,-3.19598 -12.15703,-2.12094c-5.00977,1.44404 -7.03554,7.1745 -8.66527,6.17495c-1.55773,-0.95539 -5.17838,-4.59437 -4.54575,-8.94763c0.52312,-3.59968 5.29908,-7.95668 4.58728,-9.29522c-0.77511,-1.45759 -5.38118,-0.36185 -8.55553,-3.41957c-2.52305,-2.43035 -3.82847,-9.05042 -3.82847,-10.45409z" fill="url(#color-13)"/><path d="M284.70928,247.80124c0,-2.18008 5.84259,2.28848 9.24353,1.70062c2.95839,-0.51137 3.4485,-6.09032 4.47816,-7.51998c1.76415,-2.44948 5.80687,-0.20315 8.52704,-1.56516c2.51718,-1.26037 3.65745,-6.22155 6.66415,-6.22155c2.27735,0 4.09144,7.096 5.65332,8.75439c2.54926,2.70678 4.42662,0.83298 6.54971,3.55198c2.47775,3.17319 6.5053,2.06402 6.5053,6.40197c0,2.18651 -0.65165,9.90153 -2.63848,11.51314c-3.06114,2.48303 -8.12348,-1.34449 -9.76584,1.42255c-2.3289,3.92373 2.72491,10.02454 -2.05212,10.02454c-1.52762,0 -8.42738,-3.19598 -12.15703,-2.12094c-5.00977,1.44404 -7.03554,7.1745 -8.66527,6.17495c-1.55773,-0.95539 -5.17838,-4.59437 -4.54575,-8.94763c0.52312,-3.59968 5.29908,-7.95668 4.58728,-9.29522c-0.77511,-1.45759 -5.38118,-0.36185 -8.55553,-3.41957c-2.52305,-2.43035 -3.82847,-9.05042 -3.82847,-10.45409z" fill="url(#color-14)"/><path d="M317.44886,247.80124c0,-2.18008 5.84259,2.28848 9.24353,1.70062c2.95839,-0.51137 3.4485,-6.09032 4.47816,-7.51998c1.76415,-2.44948 5.80687,-0.20315 8.52704,-1.56516c2.51718,-1.26037 3.65745,-6.22155 6.66415,-6.22155c2.27735,0 4.09144,7.096 5.65332,8.75439c2.54926,2.70678 4.42662,0.83298 6.54971,3.55198c2.47775,3.17319 6.5053,2.06402 6.5053,6.40197c0,2.18651 -0.65165,9.90153 -2.63848,11.51314c-3.06114,2.48303 -8.12348,-1.34449 -9.76584,1.42255c-2.3289,3.92373 2.72491,10.02454 -2.05212,10.02454c-1.52762,0 -8.42738,-3.19598 -12.15703,-2.12094c-5.00977,1.44404 -7.03554,7.1745 -8.66527,6.17495c-1.55773,-0.95539 -5.17838,-4.59437 -4.54575,-8.94763c0.52312,-3.59968 5.29908,-7.95668 4.58728,-9.29522c-0.77511,-1.45759 -5.38118,-0.36185 -8.55553,-3.41957c-2.52305,-2.43035 -3.82847,-9.05042 -3.82847,-10.45409z" fill="url(#color-15)"/><path d="M356.1411,241.94372c0,-2.18008 5.84259,2.28848 9.24353,1.70062c2.95839,-0.51137 3.4485,-6.09032 4.47816,-7.51998c1.76415,-2.44948 5.80687,-0.20315 8.52704,-1.56516c2.51718,-1.26037 3.65745,-6.22155 6.66415,-6.22155c2.27735,0 4.09144,7.096 5.65332,8.75439c2.54926,2.70678 4.42662,0.83298 6.54971,3.55198c2.47775,3.17319 6.5053,2.06402 6.5053,6.40197c0,2.18651 -0.65165,9.90153 -2.63848,11.51314c-3.06114,2.48303 -8.12348,-1.34449 -9.76584,1.42255c-2.3289,3.92373 2.72491,10.02454 -2.05212,10.02454c-1.52762,0 -8.42738,-3.19598 -12.15703,-2.12094c-5.00977,1.44404 -7.03554,7.1745 -8.66527,6.17495c-1.55773,-0.95539 -5.17838,-4.59437 -4.54575,-8.94763c0.52312,-3.59968 5.29908,-7.95668 4.58728,-9.29522c-0.77511,-1.45759 -5.38118,-0.36185 -8.55553,-3.41957c-2.52305,-2.43035 -3.82847,-9.05042 -3.82847,-10.45409z" fill="url(#color-16)"/><path d="M356.1411,214.67724c0,-2.18008 5.84259,2.28848 9.24353,1.70062c2.95839,-0.51137 3.4485,-6.09032 4.47816,-7.51998c1.76415,-2.44948 5.80687,-0.20315 8.52704,-1.56516c2.51718,-1.26037 3.65745,-6.22155 6.66415,-6.22155c2.27735,0 4.09144,7.096 5.65332,8.75439c2.54926,2.70678 4.42662,0.83298 6.54971,3.55198c2.47775,3.17319 6.5053,2.06402 6.5053,6.40197c0,2.18651 -0.65165,9.90153 -2.63848,11.51314c-3.06114,2.48303 -8.12348,-1.34449 -9.76584,1.42255c-2.3289,3.92373 2.72491,10.02454 -2.05212,10.02454c-1.52762,0 -8.42738,-3.19598 -12.15703,-2.12094c-5.00977,1.44404 -7.03554,7.1745 -8.66527,6.17495c-1.55773,-0.95539 -5.17838,-4.59437 -4.54575,-8.94763c0.52312,-3.59968 5.29908,-7.95668 4.58728,-9.29522c-0.77511,-1.45759 -5.38118,-0.36185 -8.55553,-3.41957c-2.52305,-2.43035 -3.82847,-9.05042 -3.82847,-10.45409z" fill="url(#color-17)"/><path d="M317.44886,196.86007c0,-2.18008 5.84259,2.28848 9.24353,1.70062c2.95839,-0.51137 3.4485,-6.09032 4.47816,-7.51998c1.76415,-2.44948 5.80687,-0.20315 8.52704,-1.56516c2.51718,-1.26037 3.65745,-6.22155 6.66415,-6.22155c2.27735,0 4.09144,7.096 5.65332,8.75439c2.54926,2.70678 4.42662,0.83298 6.54971,3.55198c2.47775,3.17319 6.5053,2.06402 6.5053,6.40197c0,2.18651 -0.65165,9.90153 -2.63848,11.51314c-3.06114,2.48303 -8.12348,-1.34449 -9.76584,1.42255c-2.3289,3.92373 2.72491,10.02454 -2.05212,10.02454c-1.52762,0 -8.42738,-3.19598 -12.15703,-2.12094c-5.00977,1.44404 -7.03554,7.1745 -8.66527,6.17495c-1.55773,-0.95539 -5.17838,-4.59437 -4.54575,-8.94763c0.52312,-3.59968 5.29908,-7.95668 4.58728,-9.29522c-0.77511,-1.45759 -5.38118,-0.36185 -8.55553,-3.41957c-2.52305,-2.43035 -3.82847,-9.05042 -3.82847,-10.45409z" fill="url(#color-18)"/><path d="M341.25947,179.04288c0,-2.18008 5.84259,2.28848 9.24353,1.70062c2.95839,-0.51137 3.4485,-6.09032 4.47816,-7.51998c1.76415,-2.44948 5.80687,-0.20315 8.52704,-1.56516c2.51718,-1.26037 3.65745,-6.22155 6.66415,-6.22155c2.27735,0 4.09144,7.096 5.65332,8.75439c2.54926,2.70678 4.42662,0.83298 6.54971,3.55198c2.47775,3.17319 6.5053,2.06402 6.5053,6.40197c0,2.18651 -0.65165,9.90153 -2.63848,11.51314c-3.06114,2.48303 -8.12348,-1.34449 -9.76584,1.42255c-2.3289,3.92373 2.72491,10.02454 -2.05212,10.02454c-1.52762,0 -8.42738,-3.19598 -12.15703,-2.12094c-5.00977,1.44404 -7.03554,7.1745 -8.66527,6.17495c-1.55773,-0.95539 -5.17838,-4.59437 -4.54575,-8.94763c0.52312,-3.59968 5.29908,-7.95668 4.58728,-9.29522c-0.77511,-1.45759 -5.38118,-0.36185 -8.55553,-3.41957c-2.52305,-2.43035 -3.82847,-9.05042 -3.82847,-10.45409z" fill="url(#color-19)"/><path d="M320,193.60607c0,-2.18008 5.84259,2.28848 9.24353,1.70062c2.95839,-0.51137 3.4485,-6.09032 4.47816,-7.51998c1.76415,-2.44948 5.80687,-0.20315 8.52704,-1.56516c2.51718,-1.26037 3.65745,-6.22155 6.66415,-6.22155c2.27735,0 4.09144,7.096 5.65332,8.75439c2.54926,2.70678 4.42662,0.83298 6.54971,3.55198c2.47775,3.17319 6.5053,2.06402 6.5053,6.40197c0,2.18651 -0.65165,9.90153 -2.63848,11.51314c-3.06114,2.48303 -8.12348,-1.34449 -9.76584,1.42255c-2.3289,3.92373 2.72491,10.02454 -2.05212,10.02454c-1.52762,0 -8.42738,-3.19598 -12.15703,-2.12094c-5.00977,1.44404 -7.03554,7.1745 -8.66527,6.17495c-1.55773,-0.95539 -5.17838,-4.59437 -4.54575,-8.94763c0.52312,-3.59968 5.29908,-7.95668 4.58728,-9.29522c-0.77511,-1.45759 -5.38118,-0.36185 -8.55553,-3.41957c-2.52305,-2.43035 -3.82847,-9.05042 -3.82847,-10.45409z" fill="url(#color-20)"/><path d="M284.70928,214.67724c0,-2.18008 5.84259,2.28848 9.24353,1.70062c2.95839,-0.51137 3.4485,-6.09032 4.47816,-7.51998c1.76415,-2.44948 5.80687,-0.20315 8.52704,-1.56516c2.51718,-1.26037 3.65745,-6.22155 6.66415,-6.22155c2.27735,0 4.09144,7.096 5.65332,8.75439c2.54926,2.70678 4.42662,0.83298 6.54971,3.55198c2.47775,3.17319 6.5053,2.06402 6.5053,6.40197c0,2.18651 -0.65165,9.90153 -2.63848,11.51314c-3.06114,2.48303 -8.12348,-1.34449 -9.76584,1.42255c-2.3289,3.92373 2.72491,10.02454 -2.05212,10.02454c-1.52762,0 -8.42738,-3.19598 -12.15703,-2.12094c-5.00977,1.44404 -7.03554,7.1745 -8.66527,6.17495c-1.55773,-0.95539 -5.17838,-4.59437 -4.54575,-8.94763c0.52312,-3.59968 5.29908,-7.95668 4.58728,-9.29522c-0.77511,-1.45759 -5.38118,-0.36185 -8.55553,-3.41957c-2.52305,-2.43035 -3.82847,-9.05042 -3.82847,-10.45409z" fill="url(#color-21)"/><path d="M256.84426,177.40343c0,-2.18008 5.84259,2.28848 9.24353,1.70062c2.95839,-0.51137 3.4485,-6.09032 4.47816,-7.51998c1.76415,-2.44948 5.80687,-0.20315 8.52704,-1.56516c2.51718,-1.26037 3.65745,-6.22155 6.66415,-6.22155c2.27735,0 4.09144,7.096 5.65332,8.75439c2.54926,2.70678 4.42662,0.83298 6.54971,3.55198c2.47775,3.17319 6.5053,2.06402 6.5053,6.40197c0,2.18651 -0.65165,9.90153 -2.63848,11.51314c-3.06114,2.48303 -8.12348,-1.34449 -9.76584,1.42255c-2.3289,3.92373 2.72491,10.02454 -2.05212,10.02454c-1.52762,0 -8.42738,-3.19598 -12.15703,-2.12094c-5.00977,1.44404 -7.03554,7.1745 -8.66527,6.17495c-1.55773,-0.95539 -5.17838,-4.59437 -4.54575,-8.94763c0.52312,-3.59968 5.29908,-7.95668 4.58728,-9.29522c-0.77511,-1.45759 -5.38118,-0.36185 -8.55553,-3.41957c-2.52305,-2.43035 -3.82847,-9.05042 -3.82847,-10.45409z" fill="url(#color-22)"/><path d="M260.89868,214.67724c0,-2.18008 5.84259,2.28848 9.24353,1.70062c2.95839,-0.51137 3.4485,-6.09032 4.47816,-7.51998c1.76415,-2.44948 5.80687,-0.20315 8.52704,-1.56516c2.51718,-1.26037 3.65745,-6.22155 6.66415,-6.22155c2.27735,0 4.09144,7.096 5.65332,8.75439c2.54926,2.70678 4.42662,0.83298 6.54971,3.55198c2.47775,3.17319 6.5053,2.06402 6.5053,6.40197c0,2.18651 -0.65165,9.90153 -2.63848,11.51314c-3.06114,2.48303 -8.12348,-1.34449 -9.76584,1.42255c-2.3289,3.92373 2.72491,10.02454 -2.05212,10.02454c-1.52762,0 -8.42738,-3.19598 -12.15703,-2.12094c-5.00977,1.44404 -7.03554,7.1745 -8.66527,6.17495c-1.55773,-0.95539 -5.17838,-4.59437 -4.54575,-8.94763c0.52312,-3.59968 5.29908,-7.95668 4.58728,-9.29522c-0.77511,-1.45759 -5.38118,-0.36185 -8.55553,-3.41957c-2.52305,-2.43035 -3.82847,-9.05042 -3.82847,-10.45409z" fill="url(#color-23)"/><path d="M233.03367,168.72839c0,-2.18008 5.84259,2.28848 9.24353,1.70062c2.95839,-0.51137 3.4485,-6.09032 4.47816,-7.51998c1.76415,-2.44948 5.80687,-0.20315 8.52704,-1.56516c2.51718,-1.26037 3.65745,-6.22155 6.66415,-6.22155c2.27735,0 4.09144,7.096 5.65332,8.75439c2.54926,2.70678 4.42662,0.83298 6.54971,3.55198c2.47775,3.17319 6.5053,2.06402 6.5053,6.40197c0,2.18651 -0.65165,9.90153 -2.63848,11.51314c-3.06114,2.48303 -8.12348,-1.34449 -9.76584,1.42255c-2.3289,3.92373 2.72491,10.02454 -2.05212,10.02454c-1.52762,0 -8.42738,-3.19598 -12.15703,-2.12094c-5.00977,1.44404 -7.03554,7.1745 -8.66527,6.17495c-1.55773,-0.95539 -5.17838,-4.59437 -4.54575,-8.94763c0.52312,-3.59968 5.29908,-7.95668 4.58728,-9.29522c-0.77511,-1.45759 -5.38118,-0.36185 -8.55553,-3.41957c-2.52305,-2.43035 -3.82847,-9.05042 -3.82847,-10.45409z" fill="url(#color-24)"/><path d="M237.08807,191.75779c0,-2.18008 5.84259,2.28848 9.24353,1.70062c2.95839,-0.51137 3.4485,-6.09032 4.47816,-7.51998c1.76415,-2.44948 5.80687,-0.20315 8.52704,-1.56516c2.51718,-1.26037 3.65745,-6.22155 6.66415,-6.22155c2.27735,0 4.09144,7.096 5.65332,8.75439c2.54926,2.70678 4.42662,0.83298 6.54971,3.55198c2.47775,3.17319 6.5053,2.06402 6.5053,6.40197c0,2.18651 -0.65165,9.90153 -2.63848,11.51314c-3.06114,2.48303 -8.12348,-1.34449 -9.76584,1.42255c-2.3289,3.92373 2.72491,10.02454 -2.05212,10.02454c-1.52762,0 -8.42738,-3.19598 -12.15703,-2.12094c-5.00977,1.44404 -7.03554,7.1745 -8.66527,6.17495c-1.55773,-0.95539 -5.17838,-4.59437 -4.54575,-8.94763c0.52312,-3.59968 5.29908,-7.95668 4.58728,-9.29522c-0.77511,-1.45759 -5.38118,-0.36185 -8.55553,-3.41957c-2.52305,-2.43035 -3.82847,-9.05042 -3.82847,-10.45409z" fill="url(#color-25)"/><path d="M209.22305,154.48398c0,-2.18008 5.84259,2.28848 9.24353,1.70062c2.95839,-0.51137 3.4485,-6.09032 4.47816,-7.51998c1.76415,-2.44948 5.80687,-0.20315 8.52704,-1.56516c2.51718,-1.26037 3.65745,-6.22155 6.66415,-6.22155c2.27735,0 4.09144,7.096 5.65332,8.75439c2.54926,2.70678 4.42662,0.83298 6.54971,3.55198c2.47775,3.17319 6.5053,2.06402 6.5053,6.40197c0,2.18651 -0.65165,9.90153 -2.63848,11.51314c-3.06114,2.48303 -8.12348,-1.34449 -9.76584,1.42255c-2.3289,3.92373 2.72491,10.02454 -2.05212,10.02454c-1.52762,0 -8.42738,-3.19598 -12.15703,-2.12094c-5.00977,1.44404 -7.03554,7.1745 -8.66527,6.17495c-1.55773,-0.95539 -5.17838,-4.59437 -4.54575,-8.94763c0.52312,-3.59968 5.29908,-7.95668 4.58728,-9.29522c-0.77511,-1.45759 -5.38118,-0.36185 -8.55553,-3.41957c-2.52305,-2.43035 -3.82847,-9.05042 -3.82847,-10.45409z" fill="url(#color-26)"/><path d="M189.46687,168.83834c0,-2.18008 5.84259,2.28848 9.24353,1.70062c2.95839,-0.51137 3.4485,-6.09032 4.47816,-7.51998c1.76415,-2.44948 5.80687,-0.20315 8.52704,-1.56516c2.51718,-1.26037 3.65745,-6.22155 6.66415,-6.22155c2.27735,0 4.09144,7.096 5.65332,8.75439c2.54926,2.70678 4.42662,0.83298 6.54971,3.55198c2.47775,3.17319 6.5053,2.06402 6.5053,6.40197c0,2.18651 -0.65165,9.90153 -2.63848,11.51314c-3.06114,2.48303 -8.12348,-1.34449 -9.76584,1.42255c-2.3289,3.92373 2.72491,10.02454 -2.05212,10.02454c-1.52762,0 -8.42738,-3.19598 -12.15703,-2.12094c-5.00977,1.44404 -7.03554,7.1745 -8.66527,6.17495c-1.55773,-0.95539 -5.17838,-4.59437 -4.54575,-8.94763c0.52312,-3.59968 5.29908,-7.95668 4.58728,-9.29522c-0.77511,-1.45759 -5.38118,-0.36185 -8.55553,-3.41957c-2.52305,-2.43035 -3.82847,-9.05042 -3.82847,-10.45409z" fill="url(#color-27)"/><path d="M379.9517,168.83834c0,-2.18008 5.84259,2.28848 9.24353,1.70062c2.95839,-0.51137 3.4485,-6.09032 4.47816,-7.51998c1.76415,-2.44948 5.80687,-0.20315 8.52704,-1.56516c2.51718,-1.26037 3.65745,-6.22155 6.66415,-6.22155c2.27735,0 4.09144,7.096 5.65332,8.75439c2.54926,2.70678 4.42662,0.83298 6.54971,3.55198c2.47775,3.17319 6.5053,2.06402 6.5053,6.40197c0,2.18651 -0.65165,9.90153 -2.63848,11.51314c-3.06114,2.48303 -8.12348,-1.34449 -9.76584,1.42255c-2.3289,3.92373 2.72491,10.02454 -2.05212,10.02454c-1.52762,0 -8.42738,-3.19598 -12.15703,-2.12094c-5.00977,1.44404 -7.03554,7.1745 -8.66527,6.17495c-1.55773,-0.95539 -5.17838,-4.59437 -4.54575,-8.94763c0.52312,-3.59968 5.29908,-7.95668 4.58728,-9.29522c-0.77511,-1.45759 -5.38118,-0.36185 -8.55553,-3.41957c-2.52305,-2.43035 -3.82847,-9.05042 -3.82847,-10.45409z" fill="url(#color-28)"/><path d="M427.00101,162.43882c0,-2.18008 5.84259,2.28848 9.24353,1.70062c2.95839,-0.51137 3.4485,-6.09032 4.47816,-7.51998c1.76415,-2.44948 5.80687,-0.20315 8.52704,-1.56516c2.51718,-1.26037 3.65745,-6.22155 6.66415,-6.22155c2.27735,0 4.09144,7.096 5.65332,8.75439c2.54926,2.70678 4.42662,0.83298 6.54971,3.55198c2.47775,3.17319 6.5053,2.06402 6.5053,6.40197c0,2.18651 -0.65165,9.90153 -2.63848,11.51314c-3.06114,2.48303 -8.12348,-1.34449 -9.76584,1.42255c-2.3289,3.92373 2.72491,10.02454 -2.05212,10.02454c-1.52762,0 -8.42738,-3.19598 -12.15703,-2.12094c-5.00977,1.44404 -7.03554,7.1745 -8.66527,6.17495c-1.55773,-0.95539 -5.17838,-4.59437 -4.54575,-8.94763c0.52312,-3.59968 5.29908,-7.95668 4.58728,-9.29522c-0.77511,-1.45759 -5.38118,-0.36185 -8.55553,-3.41957c-2.52305,-2.43035 -3.82847,-9.05042 -3.82847,-10.45409z" fill="url(#color-29)"/><path d="M347.66939,86.15195c0,-2.18008 5.84259,2.28848 9.24353,1.70062c2.95839,-0.51137 3.4485,-6.09032 4.47816,-7.51998c1.76415,-2.44948 5.80687,-0.20315 8.52704,-1.56516c2.51718,-1.26037 3.65745,-6.22155 6.66415,-6.22155c2.27735,0 4.09144,7.096 5.65332,8.75439c2.54926,2.70678 4.42662,0.83298 6.54971,3.55198c2.47775,3.17319 6.5053,2.06402 6.5053,6.40197c0,2.18651 -0.65165,9.90153 -2.63848,11.51314c-3.06114,2.48303 -8.12348,-1.34449 -9.76584,1.42255c-2.3289,3.92373 2.72491,10.02454 -2.05212,10.02454c-1.52762,0 -8.42738,-3.19598 -12.15703,-2.12094c-5.00977,1.44404 -7.03554,7.1745 -8.66527,6.17495c-1.55773,-0.95539 -5.17838,-4.59437 -4.54575,-8.94763c0.52312,-3.59968 5.29908,-7.95668 4.58728,-9.29522c-0.77511,-1.45759 -5.38118,-0.36185 -8.55553,-3.41957c-2.52305,-2.43035 -3.82847,-9.05042 -3.82847,-10.45409z" fill="url(#color-30)"/><path d="M347.66939,63.2325c0,-2.18008 5.84259,2.28848 9.24353,1.70062c2.95839,-0.51137 3.4485,-6.09032 4.47816,-7.51998c1.76415,-2.44948 5.80687,-0.20315 8.52704,-1.56516c2.51718,-1.26037 3.65745,-6.22155 6.66415,-6.22155c2.27735,0 4.09144,7.096 5.65332,8.75439c2.54926,2.70678 4.42662,0.83298 6.54971,3.55198c2.47775,3.17319 6.5053,2.06402 6.5053,6.40197c0,2.18651 -0.65165,9.90153 -2.63848,11.51314c-3.06114,2.48303 -8.12348,-1.34449 -9.76584,1.42255c-2.3289,3.92373 2.72491,10.02454 -2.05212,10.02454c-1.52762,0 -8.42738,-3.19598 -12.15703,-2.12094c-5.00977,1.44404 -7.03554,7.1745 -8.66527,6.17495c-1.55773,-0.95539 -5.17838,-4.59437 -4.54575,-8.94763c0.52312,-3.59968 5.29908,-7.95668 4.58728,-9.29522c-0.77511,-1.45759 -5.38118,-0.36185 -8.55553,-3.41957c-2.52305,-2.43035 -3.82847,-9.05042 -3.82847,-10.45409z" fill="url(#color-31)"/><path d="M328.3462,82.67241c0,-2.18008 5.84259,2.28848 9.24353,1.70062c2.95839,-0.51137 3.4485,-6.09032 4.47816,-7.51998c1.76415,-2.44948 5.80687,-0.20315 8.52704,-1.56516c2.51718,-1.26037 3.65745,-6.22155 6.66415,-6.22155c2.27735,0 4.09144,7.096 5.65332,8.75439c2.54926,2.70678 4.42662,0.83298 6.54971,3.55198c2.47775,3.17319 6.5053,2.06402 6.5053,6.40197c0,2.18651 -0.65165,9.90153 -2.63848,11.51314c-3.06114,2.48303 -8.12348,-1.34449 -9.76584,1.42255c-2.3289,3.92373 2.72491,10.02454 -2.05212,10.02454c-1.52762,0 -8.42738,-3.19598 -12.15703,-2.12094c-5.00977,1.44404 -7.03554,7.1745 -8.66527,6.17495c-1.55773,-0.95539 -5.17838,-4.59437 -4.54575,-8.94763c0.52312,-3.59968 5.29908,-7.95668 4.58728,-9.29522c-0.77511,-1.45759 -5.38118,-0.36185 -8.55553,-3.41957c-2.52305,-2.43035 -3.82847,-9.05042 -3.82847,-10.45409z" fill="url(#color-32)"/><path d="M323.85879,40.31305c0,-2.18008 5.84259,2.28848 9.24353,1.70062c2.95839,-0.51137 3.4485,-6.09032 4.47816,-7.51998c1.76415,-2.44948 5.80687,-0.20315 8.52704,-1.56516c2.51718,-1.26037 3.65745,-6.22155 6.66415,-6.22155c2.27735,0 4.09144,7.096 5.65332,8.75439c2.54926,2.70678 4.42662,0.83298 6.54971,3.55198c2.47775,3.17319 6.5053,2.06402 6.5053,6.40197c0,2.18651 -0.65165,9.90153 -2.63848,11.51314c-3.06114,2.48303 -8.12348,-1.34449 -9.76584,1.42255c-2.3289,3.92373 2.72491,10.02454 -2.05212,10.02454c-1.52762,0 -8.42738,-3.19598 -12.15703,-2.12094c-5.00977,1.44404 -7.03554,7.1745 -8.66527,6.17495c-1.55773,-0.95539 -5.17838,-4.59437 -4.54575,-8.94763c0.52312,-3.59968 5.29908,-7.95668 4.58728,-9.29522c-0.77511,-1.45759 -5.38118,-0.36185 -8.55553,-3.41957c-2.52305,-2.43035 -3.82847,-9.05042 -3.82847,-10.45409z" fill="url(#color-33)"/><path d="M347.66939,40.31305c0,-2.18008 5.84259,2.28848 9.24353,1.70062c2.95839,-0.51137 3.4485,-6.09032 4.47816,-7.51998c1.76415,-2.44948 5.80687,-0.20315 8.52704,-1.56516c2.51718,-1.26037 3.65745,-6.22155 6.66415,-6.22155c2.27735,0 4.09144,7.096 5.65332,8.75439c2.54926,2.70678 4.42662,0.83298 6.54971,3.55198c2.47775,3.17319 6.5053,2.06402 6.5053,6.40197c0,2.18651 -0.65165,9.90153 -2.63848,11.51314c-3.06114,2.48303 -8.12348,-1.34449 -9.76584,1.42255c-2.3289,3.92373 2.72491,10.02454 -2.05212,10.02454c-1.52762,0 -8.42738,-3.19598 -12.15703,-2.12094c-5.00977,1.44404 -7.03554,7.1745 -8.66527,6.17495c-1.55773,-0.95539 -5.17838,-4.59437 -4.54575,-8.94763c0.52312,-3.59968 5.29908,-7.95668 4.58728,-9.29522c-0.77511,-1.45759 -5.38118,-0.36185 -8.55553,-3.41957c-2.52305,-2.43035 -3.82847,-9.05042 -3.82847,-10.45409z" fill="url(#color-34)"/><path d="M300.04818,86.15195c0,-2.18008 5.84259,2.28848 9.24353,1.70062c2.95839,-0.51137 3.4485,-6.09032 4.47816,-7.51998c1.76415,-2.44948 5.80687,-0.20315 8.52704,-1.56516c2.51718,-1.26037 3.65745,-6.22155 6.66415,-6.22155c2.27735,0 4.09144,7.096 5.65332,8.75439c2.54926,2.70678 4.42662,0.83298 6.54971,3.55198c2.47775,3.17319 6.5053,2.06402 6.5053,6.40197c0,2.18651 -0.65165,9.90153 -2.63848,11.51314c-3.06114,2.48303 -8.12348,-1.34449 -9.76584,1.42255c-2.3289,3.92373 2.72491,10.02454 -2.05212,10.02454c-1.52762,0 -8.42738,-3.19598 -12.15703,-2.12094c-5.00977,1.44404 -7.03554,7.1745 -8.66527,6.17495c-1.55773,-0.95539 -5.17838,-4.59437 -4.54575,-8.94763c0.52312,-3.59968 5.29908,-7.95668 4.58728,-9.29522c-0.77511,-1.45759 -5.38118,-0.36185 -8.55553,-3.41957c-2.52305,-2.43035 -3.82847,-9.05042 -3.82847,-10.45409z" fill="url(#color-35)"/><path d="M256.84427,145.80894c0,-2.18008 5.84259,2.28848 9.24353,1.70062c2.95839,-0.51137 3.4485,-6.09032 4.47816,-7.51998c1.76415,-2.44948 5.80687,-0.20315 8.52704,-1.56516c2.51718,-1.26037 3.65745,-6.22155 6.66415,-6.22155c2.27735,0 4.09144,7.096 5.65332,8.75439c2.54926,2.70678 4.42662,0.83298 6.54971,3.55198c2.47775,3.17319 6.5053,2.06402 6.5053,6.40197c0,2.18651 -0.65165,9.90153 -2.63848,11.51314c-3.06114,2.48303 -8.12348,-1.34449 -9.76584,1.42255c-2.3289,3.92373 2.72491,10.02454 -2.05212,10.02454c-1.52762,0 -8.42738,-3.19598 -12.15703,-2.12094c-5.00977,1.44404 -7.03554,7.1745 -8.66527,6.17495c-1.55773,-0.95539 -5.17838,-4.59437 -4.54575,-8.94763c0.52312,-3.59968 5.29908,-7.95668 4.58728,-9.29522c-0.77511,-1.45759 -5.38118,-0.36185 -8.55553,-3.41957c-2.52305,-2.43035 -3.82847,-9.05042 -3.82847,-10.45409z" fill="url(#color-36)"/><path d="M237.08808,122.99944c0,-2.18008 5.84259,2.28848 9.24353,1.70062c2.95839,-0.51137 3.4485,-6.09032 4.47816,-7.51998c1.76415,-2.44948 5.80687,-0.20315 8.52704,-1.56516c2.51718,-1.26037 3.65745,-6.22155 6.66415,-6.22155c2.27735,0 4.09144,7.096 5.65332,8.75439c2.54926,2.70678 4.42662,0.83298 6.54971,3.55198c2.47775,3.17319 6.5053,2.06402 6.5053,6.40197c0,2.18651 -0.65165,9.90153 -2.63848,11.51314c-3.06114,2.48303 -8.12348,-1.34449 -9.76584,1.42255c-2.3289,3.92373 2.72491,10.02454 -2.05212,10.02454c-1.52762,0 -8.42738,-3.19598 -12.15703,-2.12094c-5.00977,1.44404 -7.03554,7.1745 -8.66527,6.17495c-1.55773,-0.95539 -5.17838,-4.59437 -4.54575,-8.94763c0.52312,-3.59968 5.29908,-7.95668 4.58728,-9.29522c-0.77511,-1.45759 -5.38118,-0.36185 -8.55553,-3.41957c-2.52305,-2.43035 -3.82847,-9.05042 -3.82847,-10.45409z" fill="url(#color-37)"/><path d="M170.33333,180c0,-82.6586 67.00805,-149.66667 149.66667,-149.66667c82.6586,0 149.66667,67.00805 149.66667,149.66667c0,82.6586 -67.00804,149.66667 -149.66667,149.66667c-82.6586,0 -149.66667,-67.00804 -149.66667,-149.66667z" fill="url(#color-38)"/></g></g></svg>