<svg version="1.1" xmlns="http://www.w3.org/2000/svg" xmlns:xlink="http://www.w3.org/1999/xlink" width="197" height="225.58304" viewBox="0,0,197,225.58304"><defs><linearGradient x1="284.48459" y1="185.72553" x2="311.85725" y2="166.84788" gradientUnits="userSpaceOnUse" id="color-1"><stop offset="0" stop-color="#ff0000"/><stop offset="1" stop-color="#ff7100"/></linearGradient><linearGradient x1="282.17645" y1="187.31735" x2="309.54913" y2="168.43968" gradientUnits="userSpaceOnUse" id="color-2"><stop offset="0" stop-color="#ff0000"/><stop offset="1" stop-color="#ff7100"/></linearGradient><linearGradient x1="280.32995" y1="188.59079" x2="307.70261" y2="169.71314" gradientUnits="userSpaceOnUse" id="color-3"><stop offset="0" stop-color="#ff0000"/><stop offset="1" stop-color="#ff7100"/></linearGradient><linearGradient x1="278.02182" y1="190.1826" x2="305.3945" y2="171.30494" gradientUnits="userSpaceOnUse" id="color-4"><stop offset="0" stop-color="#ff0000"/><stop offset="1" stop-color="#ff7100"/></linearGradient><linearGradient x1="275.7137" y1="191.7744" x2="303.08636" y2="172.89675" gradientUnits="userSpaceOnUse" id="color-5"><stop offset="0" stop-color="#ff0000"/><stop offset="1" stop-color="#ff7100"/></linearGradient><linearGradient x1="273.40558" y1="193.36621" x2="300.77824" y2="174.48856" gradientUnits="userSpaceOnUse" id="color-6"><stop offset="0" stop-color="#ff0000"/><stop offset="1" stop-color="#ff7100"/></linearGradient><linearGradient x1="271.09744" y1="194.95802" x2="298.4701" y2="176.08037" gradientUnits="userSpaceOnUse" id="color-7"><stop offset="0" stop-color="#ff0000"/><stop offset="1" stop-color="#ff7100"/></linearGradient><linearGradient x1="195.37809" y1="190.46897" x2="168.00543" y2="171.59131" gradientUnits="userSpaceOnUse" id="color-8"><stop offset="0" stop-color="#ff0000"/><stop offset="1" stop-color="#ff7100"/></linearGradient><linearGradient x1="197.68622" y1="192.06078" x2="170.31355" y2="173.18312" gradientUnits="userSpaceOnUse" id="color-9"><stop offset="0" stop-color="#ff0000"/><stop offset="1" stop-color="#ff7100"/></linearGradient><linearGradient x1="199.53273" y1="193.33422" x2="172.16007" y2="174.45657" gradientUnits="userSpaceOnUse" id="color-10"><stop offset="0" stop-color="#ff0000"/><stop offset="1" stop-color="#ff7100"/></linearGradient><linearGradient x1="201.84086" y1="194.92603" x2="174.46818" y2="176.04837" gradientUnits="userSpaceOnUse" id="color-11"><stop offset="0" stop-color="#ff0000"/><stop offset="1" stop-color="#ff7100"/></linearGradient><linearGradient x1="204.14898" y1="196.51784" x2="176.77631" y2="177.64019" gradientUnits="userSpaceOnUse" id="color-12"><stop offset="0" stop-color="#ff0000"/><stop offset="1" stop-color="#ff7100"/></linearGradient><linearGradient x1="206.4571" y1="198.10965" x2="179.08444" y2="179.23199" gradientUnits="userSpaceOnUse" id="color-13"><stop offset="0" stop-color="#ff0000"/><stop offset="1" stop-color="#ff7100"/></linearGradient><linearGradient x1="208.76524" y1="199.70146" x2="181.39257" y2="180.82381" gradientUnits="userSpaceOnUse" id="color-14"><stop offset="0" stop-color="#ff0000"/><stop offset="1" stop-color="#ff7100"/></linearGradient><linearGradient x1="241.36266" y1="167.88203" x2="241.36266" y2="85.28006" gradientUnits="userSpaceOnUse" id="color-15"><stop offset="0" stop-color="#ff0000"/><stop offset="1" stop-color="#ff7100"/></linearGradient><linearGradient x1="241.36266" y1="174.84725" x2="241.36266" y2="92.24525" gradientUnits="userSpaceOnUse" id="color-16"><stop offset="0" stop-color="#ff0000"/><stop offset="1" stop-color="#ff7100"/></linearGradient><linearGradient x1="241.36266" y1="180.4194" x2="241.36266" y2="97.81743" gradientUnits="userSpaceOnUse" id="color-17"><stop offset="0" stop-color="#ff0000"/><stop offset="1" stop-color="#ff7100"/></linearGradient><linearGradient x1="241.36266" y1="187.38462" x2="241.36266" y2="104.78258" gradientUnits="userSpaceOnUse" id="color-18"><stop offset="0" stop-color="#ff0000"/><stop offset="1" stop-color="#ff7100"/></linearGradient><linearGradient x1="241.36266" y1="194.34978" x2="241.36266" y2="111.7478" gradientUnits="userSpaceOnUse" id="color-19"><stop offset="0" stop-color="#ff0000"/><stop offset="1" stop-color="#ff7100"/></linearGradient><linearGradient x1="241.36266" y1="201.31495" x2="241.36266" y2="118.713" gradientUnits="userSpaceOnUse" id="color-20"><stop offset="0" stop-color="#ff0000"/><stop offset="1" stop-color="#ff7100"/></linearGradient><linearGradient x1="241.36266" y1="208.28017" x2="241.36266" y2="125.6782" gradientUnits="userSpaceOnUse" id="color-21"><stop offset="0" stop-color="#ff0000"/><stop offset="1" stop-color="#ff7100"/></linearGradient><linearGradient x1="240.00001" y1="125.50001" x2="240.00001" y2="234.50001" gradientUnits="userSpaceOnUse" id="color-22"><stop offset="0" stop-color="#ff5600"/><stop offset="1" stop-color="#373737"/></linearGradient><radialGradient cx="239.69603" cy="162.58305" r="98.5" gradientUnits="userSpaceOnUse" id="color-23"><stop offset="0" stop-color="#ff5100" stop-opacity="0.71765"/><stop offset="1" stop-color="#ff5100" stop-opacity="0"/></radialGradient><radialGradient cx="246.02936" cy="100.5" r="65" gradientUnits="userSpaceOnUse" id="color-24"><stop offset="0" stop-color="#ff5100" stop-opacity="0.71765"/><stop offset="1" stop-color="#ff5100" stop-opacity="0"/></radialGradient></defs><g transform="translate(-141.19601,-35.5)"><g data-paper-data="{&quot;isPaintingLayer&quot;:true}" fill-rule="nonzero" stroke-linejoin="miter" stroke-miterlimit="10" stroke-dasharray="" stroke-dashoffset="0" style="mix-blend-mode: normal"><g stroke="none" stroke-width="0.5" stroke-linecap="butt"><g data-paper-data="{&quot;index&quot;:null}"><path d="M288.73492,178.8326c1.79512,1.84829 3.01986,3.86825 4.73744,5.82524c0.73989,0.84302 2.15166,1.36209 2.33427,2.45854c0.01907,0.11443 0.03478,0.22972 0.04743,0.34577l0.10548,-0.04398l1.1845,3.08938c0.43102,1.01185 -0.19023,2.39187 -1.64432,3.39469c-1.72908,1.19247 -4.0016,1.4142 -5.17099,0.52847l-2.60923,-1.93382l0.03519,-0.02639l-0.09951,-0.02327c-2.25853,-1.97168 -4.81381,-3.84766 -6.8305,-5.97828c-0.53174,-0.56179 -3.10497,-4.147 -3.68526,-4.60902c-2.23891,-1.78257 -7.04496,-1.7336 -4.04,-6.61769c1.03487,-1.68199 4.18965,-2.26481 6.28447,-3.39721c0,0 3.73328,-1.49715 4.57565,0.93895c0.6368,1.84156 -1.3412,3.14656 -2.34459,3.67384c0.57198,0.13949 1.18458,0.35798 1.63213,0.66323c0.76099,-0.4833 1.78527,-0.85717 3.11748,-0.82182c2.71609,0.07206 2.58929,1.73562 2.37037,2.53336z" fill="#ff4200"/><path d="M296.39266,195.31361c-1.30944,-1.14435 0.75635,-2.56904 0.75635,-2.56904l-0.05195,0.16619c2.78721,-3.27763 5.4927,-5.75779 9.47064,-8.41792c-1.21627,-0.40687 -2.5219,-0.76489 -2.66975,-1.75547c-0.11514,-0.77147 1.08357,-1.58971 2.21294,-2.32188c-1.95204,-0.03708 -4.07862,-0.14192 -4.74268,-1.27983c-0.35463,-0.6077 -0.58966,-1.12706 -0.72544,-1.56973l-1.01493,0.59552c-1.11021,0.66442 -2.48593,0.73956 -3.16562,0.14556c-0.40787,-0.35645 -0.47799,-0.87773 -0.25691,-1.40569l0.82938,-2.02393l0.13386,-0.00189l0.01937,-0.29645c1.07292,-1.29134 2.04749,-2.61381 3.21874,-3.87401c0.46645,-0.50184 0.95215,-0.99964 1.46277,-1.48521c-2.35782,0.90814 -5.31009,1.50524 -5.65121,1.35957c-0.9934,-0.4242 -1.24568,-1.67567 -0.91093,-2.97689c-1.08281,0.61377 -2.20468,1.09943 -3.24795,1.20851c-1.49021,0.15581 -2.63441,-0.47297 -3.71172,-0.96884c-0.26518,-0.12206 0.14624,-1.04003 -0.07299,-0.77318c-0.34953,0.42551 0.03458,0.92476 -0.38163,1.32661c-2.99834,2.89486 -7.16828,4.37774 -9.76516,7.51424c0,0 -1.47449,1.73578 -3.4259,1.16453c-0.06654,-0.01948 -0.12907,-0.04031 -0.18785,-0.06237c0.06252,-0.03364 0.12371,-0.0709 0.18288,-0.11171c0.5598,-0.38608 0.7333,-0.94711 0.39787,-1.26656c0.15801,-0.34459 0.28596,-0.68907 0.38308,-1.03087c0.39054,-0.6412 0.67831,-1.28991 0.85823,-1.92899c2.51882,-2.17261 5.39296,-3.74972 8.2428,-6.02184c1.15555,-0.92129 1.75536,-2.44439 3.21663,-2.90927c2.12357,-0.67556 3.11185,1.49191 5.14943,1.45297c1.24871,-0.02386 2.24152,-1.49822 3.34196,-2.2652l2.65514,-1.83112c1.14092,-0.78684 2.65206,-0.91233 3.37524,-0.28034c0.322,0.2814 0.43349,0.66554 0.35739,1.07457l-0.35101,1.98609l-0.06345,0.00946c-0.01034,0.11998 -0.02757,0.24155 -0.05275,0.36494c-0.08839,0.43308 -0.34609,0.87258 -0.67962,1.30706c0.32303,-0.12176 0.63375,-0.22113 0.89108,-0.28778c2.10519,-0.54532 4.9959,-2.01309 6.29647,-1.15617c1.27211,0.83819 -0.23518,3.03823 -1.11975,4.56705c-0.98003,1.69379 -2.80259,3.19294 -4.43704,4.74505c0.8497,0.19468 1.62007,0.6282 2.57128,0.62714l1.64647,-0.92174c1.09879,-0.63015 2.43581,-0.69153 3.10271,-0.1087c0.72318,0.63201 0.38455,1.7822 -0.75635,2.56904l-1.92857,1.33005c2.19811,-0.42884 5.31599,-0.66823 5.57925,0.0842c0.07605,0.21737 -0.47703,1.7762 -1.44164,3.08162c0.51359,-0.00215 0.9735,0.1295 1.28614,0.40272c0.40787,0.35645 0.478,0.87773 0.25691,1.40569l-0.82938,2.02393l-0.1136,0.00159c-0.07211,0.20644 -0.16379,0.4138 -0.28035,0.62235c-0.16463,0.29452 -5.85819,4.14616 -6.1045,4.32832c-2.15406,1.59302 -3.58019,3.3309 -5.14722,5.17773l-1.23201,0.98002c0,0 -2.06579,1.42467 -3.37522,0.28032z" fill="url(#color-1)"/><path d="M294.08453,196.90542c-1.30944,-1.14435 0.75637,-2.56905 0.75637,-2.56905l-0.05195,0.16619c2.78722,-3.27764 5.49269,-5.75779 9.47064,-8.41792c-1.21627,-0.40687 -2.5219,-0.76489 -2.66974,-1.75547c-0.11514,-0.77147 1.08357,-1.58971 2.21294,-2.32189c-1.95204,-0.03708 -4.07862,-0.14192 -4.74267,-1.27983c-0.35464,-0.6077 -0.58967,-1.12706 -0.72544,-1.56973l-1.01492,0.59553c-1.11022,0.66442 -2.48594,0.73956 -3.16563,0.14556c-0.40787,-0.35645 -0.478,-0.87773 -0.25692,-1.40569l0.82937,-2.02392l0.13387,-0.00189l0.01937,-0.29645c1.07292,-1.29134 2.04749,-2.61381 3.21874,-3.87401c0.46643,-0.50184 0.95213,-0.99963 1.46276,-1.4852c-2.35782,0.90814 -5.31008,1.50522 -5.65118,1.35955c-0.99339,-0.42421 -1.24568,-1.67567 -0.91093,-2.97689c-1.08281,0.61377 -2.20468,1.09943 -3.24795,1.20851c-1.49021,0.15581 -2.6344,-0.47297 -3.71172,-0.96884c-0.26518,-0.12206 0.14623,-1.04004 -0.07299,-0.77318c-0.34951,0.4255 0.03458,0.92476 -0.38164,1.32661c-2.99834,2.89486 -7.16827,4.37774 -9.76516,7.51424c0,0 -1.47447,1.73578 -3.42589,1.16453c-0.06654,-0.01948 -0.12908,-0.04031 -0.18785,-0.06238c0.06252,-0.03364 0.12372,-0.07091 0.18289,-0.11172c0.5598,-0.38608 0.73331,-0.9471 0.39787,-1.26655c0.15801,-0.34459 0.28596,-0.68908 0.38308,-1.03088c0.39054,-0.6412 0.67831,-1.2899 0.85823,-1.92899c2.51881,-2.17261 5.39297,-3.74973 8.2428,-6.02184c1.15555,-0.92129 1.75535,-2.44439 3.21663,-2.90927c2.12356,-0.67555 3.11184,1.49191 5.14943,1.45298c1.24871,-0.02386 2.24153,-1.49823 3.34197,-2.26521l2.65514,-1.83112c1.1409,-0.78683 2.65205,-0.91233 3.37523,-0.28032c0.32199,0.2814 0.43349,0.66554 0.35739,1.07457l-0.351,1.98609l-0.06345,0.00946c-0.01033,0.11998 -0.02757,0.24155 -0.05274,0.36494c-0.08839,0.43308 -0.3461,0.87258 -0.67962,1.30706c0.32302,-0.12176 0.63374,-0.22113 0.89108,-0.28778c2.10519,-0.54532 4.9959,-2.01309 6.29647,-1.15617c1.27211,0.83819 -0.23517,3.03823 -1.11975,4.56705c-0.98001,1.69379 -2.8026,3.19295 -4.43704,4.74506c0.84969,0.19468 1.62007,0.6282 2.57127,0.62714l1.64647,-0.92174c1.09879,-0.63015 2.43581,-0.69153 3.10272,-0.1087c0.72317,0.63201 0.38455,1.7822 -0.75635,2.56904l-1.92857,1.33005c2.19811,-0.42884 5.31599,-0.66823 5.57925,0.0842c0.07605,0.21737 -0.47703,1.7762 -1.44164,3.08162c0.51359,-0.00215 0.9735,0.1295 1.28614,0.40273c0.40787,0.35645 0.478,0.87773 0.25692,1.40569l-0.82937,2.02392l-0.1136,0.0016c-0.07211,0.20644 -0.16378,0.41379 -0.28035,0.62235c-0.16463,0.29452 -5.8582,4.14616 -6.10451,4.32832c-2.15406,1.59302 -3.58018,3.33089 -5.14722,5.17773l-1.23201,0.98002c0,0 -2.06581,1.42469 -3.37524,0.28034z" fill="url(#color-2)"/><path d="M292.23803,198.17886c-1.30944,-1.14435 0.75635,-2.56904 0.75635,-2.56904l-0.05195,0.16619c2.78721,-3.27763 5.4927,-5.75779 9.47064,-8.41792c-1.21627,-0.40687 -2.5219,-0.76489 -2.66974,-1.75547c-0.11514,-0.77147 1.08358,-1.58971 2.21295,-2.32189c-1.95204,-0.03708 -4.07863,-0.14192 -4.74268,-1.27983c-0.35464,-0.6077 -0.58967,-1.12706 -0.72544,-1.56973l-1.01492,0.59553c-1.11022,0.66442 -2.48593,0.73956 -3.16562,0.14556c-0.40787,-0.35645 -0.478,-0.87773 -0.25692,-1.40569l0.82938,-2.02392l0.13386,-0.00189l0.01937,-0.29645c1.07292,-1.29134 2.04749,-2.61381 3.21874,-3.87401c0.46644,-0.50184 0.95214,-0.99964 1.46277,-1.48521c-2.35781,0.90814 -5.31007,1.50522 -5.65118,1.35955c-0.9934,-0.42421 -1.24568,-1.67567 -0.91093,-2.97689c-1.08281,0.61377 -2.20468,1.09943 -3.24795,1.20852c-1.49021,0.15581 -2.63441,-0.47298 -3.71172,-0.96884c-0.26518,-0.12206 0.14623,-1.04004 -0.07299,-0.77318c-0.34953,0.42551 0.03458,0.92476 -0.38163,1.32661c-2.99834,2.89486 -7.16827,4.37774 -9.76515,7.51424c0,0 -1.47448,1.73577 -3.4259,1.16452c-0.06654,-0.01948 -0.12907,-0.04031 -0.18785,-0.06237c0.06253,-0.03364 0.12371,-0.0709 0.18288,-0.11171c0.5598,-0.38608 0.7333,-0.94711 0.39787,-1.26656c0.15801,-0.34459 0.28597,-0.68907 0.38309,-1.03087c0.39054,-0.6412 0.6783,-1.28991 0.85822,-1.92899c2.51882,-2.17261 5.39297,-3.74973 8.24281,-6.02185c1.15555,-0.92129 1.75535,-2.44439 3.21663,-2.90926c2.12356,-0.67555 3.11184,1.49191 5.14943,1.45298c1.24871,-0.02386 2.24151,-1.49823 3.34196,-2.2652l2.65513,-1.83112c1.14092,-0.78684 2.65207,-0.91233 3.37524,-0.28033c0.322,0.2814 0.43349,0.66553 0.35739,1.07457l-0.35101,1.98609l-0.06345,0.00946c-0.01034,0.11998 -0.02757,0.24155 -0.05274,0.36494c-0.08839,0.43308 -0.3461,0.87258 -0.67963,1.30706c0.32301,-0.12175 0.63375,-0.22113 0.89108,-0.28778c2.1052,-0.54532 4.9959,-2.01309 6.29647,-1.15617c1.27211,0.83819 -0.23517,3.03823 -1.11974,4.56705c-0.98002,1.69379 -2.80261,3.19295 -4.43705,4.74506c0.84969,0.19468 1.62007,0.6282 2.57128,0.62714l1.64647,-0.92175c1.09879,-0.63015 2.43581,-0.69153 3.10271,-0.1087c0.72318,0.63201 0.38455,1.78221 -0.75635,2.56904l-1.92856,1.33004c2.19811,-0.42884 5.31599,-0.66823 5.57925,0.0842c0.07605,0.21737 -0.47703,1.7762 -1.44164,3.08161c0.51359,-0.00215 0.9735,0.12951 1.28614,0.40273c0.40787,0.35645 0.478,0.87773 0.25692,1.40569l-0.82939,2.02393l-0.11361,0.0016c-0.07211,0.20644 -0.16378,0.41379 -0.28035,0.62235c-0.16464,0.29453 -5.85818,4.14616 -6.10449,4.32831c-2.15405,1.59302 -3.58019,3.33089 -5.14722,5.17773l-1.23201,0.98002c0,0 -2.06579,1.42467 -3.37522,0.28032z" fill="url(#color-3)"/><path d="M289.92993,199.77066c-1.30944,-1.14435 0.75637,-2.56905 0.75637,-2.56905l-0.05195,0.16619c2.78722,-3.27764 5.4927,-5.75779 9.47064,-8.41792c-1.21627,-0.40687 -2.5219,-0.76489 -2.66974,-1.75547c-0.11516,-0.77146 1.08355,-1.58969 2.21292,-2.32187c-1.95204,-0.03708 -4.07862,-0.14192 -4.74267,-1.27983c-0.35464,-0.6077 -0.58967,-1.12706 -0.72544,-1.56973l-1.01492,0.59553c-1.11022,0.66442 -2.48594,0.73956 -3.16562,0.14556c-0.40787,-0.35645 -0.478,-0.87773 -0.25692,-1.40569l0.82938,-2.02392l0.13386,-0.00189l0.01937,-0.29645c1.07292,-1.29134 2.04749,-2.61381 3.21874,-3.87401c0.46643,-0.50184 0.95213,-0.99963 1.46276,-1.4852c-2.35782,0.90814 -5.31008,1.50522 -5.65118,1.35955c-0.99339,-0.42421 -1.24568,-1.67567 -0.91093,-2.97689c-1.08281,0.61377 -2.20468,1.09943 -3.24795,1.20851c-1.49021,0.15581 -2.6344,-0.47297 -3.71172,-0.96884c-0.26518,-0.12206 0.14623,-1.04004 -0.07299,-0.77318c-0.34951,0.4255 0.03458,0.92476 -0.38164,1.32661c-2.99835,2.89487 -7.16827,4.37774 -9.76516,7.51424c0,0 -1.47449,1.73578 -3.4259,1.16453c-0.06654,-0.01948 -0.12907,-0.04031 -0.18785,-0.06238c0.06252,-0.03364 0.12372,-0.0709 0.18289,-0.11172c0.55981,-0.38608 0.73331,-0.94711 0.39787,-1.26656c0.15801,-0.34459 0.28596,-0.68908 0.38309,-1.03087c0.39054,-0.6412 0.67831,-1.2899 0.85823,-1.92899c2.51882,-2.17261 5.39297,-3.74973 8.2428,-6.02185c1.15555,-0.92129 1.75536,-2.44439 3.21663,-2.90926c2.12356,-0.67555 3.11184,1.49191 5.14943,1.45298c1.24871,-0.02386 2.24153,-1.49823 3.34197,-2.26521l2.65513,-1.83112c1.1409,-0.78683 2.65205,-0.91233 3.37523,-0.28032c0.32199,0.2814 0.43349,0.66554 0.35739,1.07457l-0.35101,1.98609l-0.06345,0.00946c-0.01033,0.11998 -0.02757,0.24155 -0.05274,0.36493c-0.08839,0.43308 -0.34609,0.87259 -0.67962,1.30706c0.32303,-0.12176 0.63374,-0.22113 0.89108,-0.28778c2.10519,-0.54532 4.99591,-2.01309 6.29648,-1.15617c1.27211,0.83819 -0.23518,3.03823 -1.11975,4.56705c-0.98002,1.69379 -2.8026,3.19295 -4.43704,4.74506c0.84969,0.19468 1.62007,0.6282 2.57127,0.62714l1.64647,-0.92174c1.09879,-0.63015 2.43581,-0.69153 3.10271,-0.1087c0.72317,0.63201 0.38455,1.7822 -0.75635,2.56904l-1.92856,1.33005c2.19811,-0.42884 5.31599,-0.66824 5.57924,0.08419c0.07605,0.21737 -0.47702,1.7762 -1.44163,3.08161c0.5136,-0.00216 0.9735,0.12951 1.28614,0.40273c0.40787,0.35645 0.47799,0.87773 0.25691,1.40569l-0.82937,2.02392l-0.1136,0.0016c-0.07211,0.20644 -0.16378,0.4138 -0.28035,0.62235c-0.16463,0.29452 -5.85819,4.14616 -6.1045,4.32832c-2.15406,1.59302 -3.58019,3.33089 -5.14723,5.17773l-1.23201,0.98002c0,0 -2.06581,1.42468 -3.37524,0.28034z" fill="url(#color-4)"/><path d="M287.62179,201.36248c-1.30944,-1.14435 0.75637,-2.56905 0.75637,-2.56905l-0.05195,0.16619c2.78721,-3.27763 5.4927,-5.75779 9.47064,-8.41792c-1.21627,-0.40687 -2.5219,-0.76489 -2.66975,-1.75547c-0.11514,-0.77147 1.08357,-1.58971 2.21294,-2.32189c-1.95204,-0.03708 -4.07862,-0.14192 -4.74267,-1.27983c-0.35464,-0.6077 -0.58965,-1.12707 -0.72543,-1.56973l-1.01493,0.59553c-1.11021,0.66442 -2.48593,0.73956 -3.16562,0.14556c-0.40787,-0.35645 -0.47799,-0.87773 -0.25691,-1.40569l0.82937,-2.02392l0.13387,-0.0019l0.01938,-0.29646c1.07292,-1.29134 2.04749,-2.61381 3.21874,-3.87401c0.46644,-0.50184 0.95213,-0.99963 1.46276,-1.4852c-2.35781,0.90814 -5.31007,1.50522 -5.65118,1.35955c-0.9934,-0.42421 -1.24568,-1.67567 -0.91093,-2.97689c-1.08281,0.61377 -2.20468,1.09943 -3.24795,1.20851c-1.49021,0.15581 -2.6344,-0.47297 -3.71172,-0.96884c-0.26518,-0.12206 0.14623,-1.04004 -0.07299,-0.77318c-0.34953,0.42551 0.03458,0.92476 -0.38164,1.32661c-2.99834,2.89486 -7.16828,4.37774 -9.76516,7.51424c0,0 -1.47448,1.73577 -3.42589,1.16452c-0.06654,-0.01948 -0.12907,-0.04031 -0.18785,-0.06238c0.06253,-0.03364 0.12372,-0.0709 0.18289,-0.11172c0.5598,-0.38608 0.73331,-0.94711 0.39787,-1.26656c0.15801,-0.34459 0.28596,-0.68907 0.38308,-1.03087c0.39056,-0.64122 0.67831,-1.2899 0.85823,-1.92898c2.51882,-2.17261 5.39297,-3.74973 8.2428,-6.02185c1.15555,-0.92129 1.75536,-2.44439 3.21663,-2.90927c2.12356,-0.67555 3.11184,1.49191 5.14942,1.45298c1.24871,-0.02386 2.24151,-1.49823 3.34196,-2.2652l2.65514,-1.83112c1.1409,-0.78683 2.65205,-0.91233 3.37523,-0.28032c0.322,0.2814 0.43349,0.66554 0.35739,1.07457l-0.351,1.98609l-0.06345,0.00946c-0.01034,0.11998 -0.02757,0.24155 -0.05275,0.36494c-0.08839,0.43308 -0.3461,0.87259 -0.67962,1.30706c0.32301,-0.12175 0.63374,-0.22113 0.89108,-0.28778c2.1052,-0.54532 4.9959,-2.01309 6.29647,-1.15617c1.27211,0.83819 -0.23517,3.03823 -1.11975,4.56705c-0.98001,1.69379 -2.8026,3.19295 -4.43705,4.74506c0.84969,0.19468 1.62007,0.6282 2.57127,0.62714l1.64648,-0.92174c1.09879,-0.63015 2.43581,-0.69153 3.10271,-0.1087c0.72317,0.63201 0.38453,1.78221 -0.75637,2.56904l-1.92856,1.33005c2.19811,-0.42884 5.31599,-0.66824 5.57925,0.08419c0.07605,0.21737 -0.47703,1.7762 -1.44164,3.08162c0.51358,-0.00215 0.9735,0.12951 1.28614,0.40273c0.40787,0.35645 0.478,0.87773 0.25692,1.40569l-0.82937,2.02392l-0.11361,0.0016c-0.07211,0.20644 -0.16378,0.4138 -0.28035,0.62235c-0.16463,0.29452 -5.85819,4.14617 -6.1045,4.32832c-2.15406,1.59302 -3.58019,3.33089 -5.14723,5.17772l-1.23201,0.98002c0,0 -2.06581,1.42468 -3.37524,0.28034z" fill="url(#color-5)"/><path d="M285.31363,202.9543c-1.30944,-1.14435 0.75635,-2.56904 0.75635,-2.56904l-0.05195,0.16619c2.78721,-3.27763 5.4927,-5.75779 9.47064,-8.41792c-1.21627,-0.40687 -2.5219,-0.76489 -2.66974,-1.75547c-0.11514,-0.77147 1.08357,-1.58971 2.21294,-2.32189c-1.95204,-0.03708 -4.07862,-0.14192 -4.74268,-1.27982c-0.35463,-0.6077 -0.58966,-1.12706 -0.72544,-1.56973l-1.01493,0.59552c-1.11021,0.66442 -2.48593,0.73956 -3.16562,0.14556c-0.40787,-0.35645 -0.47799,-0.87773 -0.25691,-1.40569l0.82937,-2.02392l0.13386,-0.00189l0.01937,-0.29645c1.07292,-1.29134 2.04749,-2.61381 3.21874,-3.87401c0.46645,-0.50184 0.95214,-0.99964 1.46277,-1.48521c-2.35781,0.90814 -5.31007,1.50522 -5.65118,1.35955c-0.9934,-0.42421 -1.24568,-1.67567 -0.91093,-2.97689c-1.08281,0.61377 -2.20468,1.09943 -3.24795,1.20851c-1.49021,0.15581 -2.63441,-0.47297 -3.71173,-0.96884c-0.26518,-0.12206 0.14624,-1.04004 -0.07298,-0.77318c-0.34953,0.42551 0.03458,0.92476 -0.38164,1.32661c-2.99834,2.89486 -7.16827,4.37774 -9.76516,7.51424c0,0 -1.47448,1.73577 -3.42589,1.16452c-0.06654,-0.01948 -0.12907,-0.04032 -0.18785,-0.06238c0.06253,-0.03364 0.12371,-0.0709 0.18288,-0.11171c0.5598,-0.38608 0.73331,-0.9471 0.39787,-1.26655c0.15801,-0.34459 0.28596,-0.68908 0.38308,-1.03088c0.39054,-0.6412 0.67831,-1.2899 0.85823,-1.92898c2.51881,-2.17261 5.39297,-3.74973 8.2428,-6.02185c1.15555,-0.92129 1.75535,-2.44439 3.21663,-2.90927c2.12356,-0.67555 3.11184,1.49191 5.14943,1.45298c1.24871,-0.02386 2.24152,-1.49823 3.34196,-2.2652l2.65513,-1.83112c1.14092,-0.78684 2.65207,-0.91233 3.37524,-0.28034c0.322,0.2814 0.43349,0.66554 0.35739,1.07457l-0.351,1.98609l-0.06345,0.00946c-0.01034,0.11998 -0.02757,0.24155 -0.05275,0.36494c-0.08839,0.43308 -0.34609,0.87258 -0.67962,1.30706c0.32302,-0.12176 0.63374,-0.22113 0.89108,-0.28778c2.1052,-0.54532 4.9959,-2.01309 6.29647,-1.15617c1.27211,0.83819 -0.23517,3.03823 -1.11975,4.56705c-0.98001,1.69379 -2.8026,3.19295 -4.43704,4.74506c0.84969,0.19468 1.62007,0.6282 2.57127,0.62714l1.64647,-0.92174c1.09879,-0.63015 2.43581,-0.69153 3.10272,-0.1087c0.72318,0.63201 0.38455,1.7822 -0.75635,2.56904l-1.92857,1.33005c2.19811,-0.42884 5.31599,-0.66823 5.57925,0.0842c0.07605,0.21737 -0.47703,1.7762 -1.44164,3.08162c0.51358,-0.00215 0.9735,0.1295 1.28614,0.40273c0.40787,0.35645 0.478,0.87773 0.25692,1.40569l-0.82939,2.02392l-0.1136,0.0016c-0.07211,0.20644 -0.16379,0.41379 -0.28035,0.62235c-0.16464,0.29453 -5.85819,4.14616 -6.10449,4.32832c-2.15405,1.59302 -3.58019,3.33089 -5.14722,5.17773l-1.23201,0.98002c0,0 -2.06579,1.42467 -3.37523,0.28032z" fill="url(#color-6)"/><path d="M283.00554,204.54609c-1.30944,-1.14435 0.75636,-2.56905 0.75636,-2.56905l-0.05195,0.1662c2.78722,-3.27764 5.4927,-5.75779 9.47064,-8.41792c-1.21627,-0.40687 -2.5219,-0.76489 -2.66974,-1.75547c-0.11516,-0.77146 1.08356,-1.58969 2.21293,-2.32187c-1.95204,-0.03708 -4.07862,-0.14192 -4.74267,-1.27983c-0.35464,-0.6077 -0.58967,-1.12706 -0.72545,-1.56973l-1.01492,0.59552c-1.11022,0.66442 -2.48593,0.73956 -3.16562,0.14556c-0.40787,-0.35645 -0.478,-0.87773 -0.25692,-1.40569l0.82938,-2.02392l0.13386,-0.00189l0.01937,-0.29645c1.07292,-1.29134 2.04749,-2.61381 3.21874,-3.87401c0.46643,-0.50184 0.95214,-0.99963 1.46276,-1.4852c-2.35782,0.90814 -5.31008,1.50522 -5.65119,1.35955c-0.99339,-0.42421 -1.24568,-1.67567 -0.91093,-2.97689c-1.08281,0.61377 -2.20468,1.09943 -3.24795,1.20852c-1.49021,0.15581 -2.63441,-0.47297 -3.71172,-0.96884c-0.26518,-0.12206 0.14624,-1.04004 -0.07299,-0.77318c-0.34951,0.4255 0.03458,0.92476 -0.38163,1.32661c-2.99835,2.89487 -7.16828,4.37774 -9.76516,7.51424c0,0 -1.47449,1.73579 -3.42591,1.16454c-0.06654,-0.01948 -0.12907,-0.04032 -0.18784,-0.06238c0.06252,-0.03364 0.12371,-0.0709 0.18289,-0.11171c0.55981,-0.38608 0.73331,-0.94711 0.39787,-1.26656c0.15801,-0.34459 0.28597,-0.68908 0.38309,-1.03088c0.39054,-0.6412 0.6783,-1.2899 0.85822,-1.92898c2.51882,-2.17261 5.39297,-3.74973 8.24281,-6.02185c1.15555,-0.92129 1.75535,-2.44439 3.21663,-2.90927c2.12356,-0.67555 3.11185,1.49191 5.14943,1.45298c1.24872,-0.02386 2.24153,-1.49823 3.34197,-2.26521l2.65514,-1.83112c1.1409,-0.78683 2.65205,-0.91232 3.37523,-0.28031c0.32199,0.2814 0.43348,0.66554 0.35739,1.07457l-0.35101,1.98609l-0.06345,0.00946c-0.01033,0.11998 -0.02757,0.24155 -0.05275,0.36494c-0.08839,0.43308 -0.3461,0.87258 -0.67962,1.30706c0.32303,-0.12176 0.63374,-0.22113 0.89108,-0.28778c2.10519,-0.54532 4.9959,-2.01309 6.29647,-1.15617c1.27211,0.83819 -0.23518,3.03823 -1.11975,4.56705c-0.98002,1.69379 -2.8026,3.19295 -4.43704,4.74506c0.84969,0.19468 1.62006,0.6282 2.57127,0.62714l1.64647,-0.92174c1.09879,-0.63015 2.43581,-0.69153 3.10272,-0.1087c0.72317,0.63201 0.38455,1.7822 -0.75635,2.56904l-1.92857,1.33004c2.19811,-0.42884 5.31599,-0.66823 5.57925,0.0842c0.07605,0.21737 -0.47703,1.7762 -1.44164,3.08161c0.5136,-0.00216 0.9735,0.1295 1.28614,0.40273c0.40787,0.35645 0.478,0.87773 0.25692,1.40569l-0.82938,2.02392l-0.1136,0.0016c-0.07211,0.20644 -0.16379,0.41379 -0.28035,0.62235c-0.16463,0.29452 -5.85819,4.14616 -6.1045,4.32832c-2.15406,1.59302 -3.58019,3.3309 -5.14723,5.17773l-1.232,0.98002c0,0 -2.06581,1.42468 -3.37524,0.28033z" fill="url(#color-7)"/></g><g><path d="M191.12774,183.57604c-0.21892,-0.79775 -0.34572,-2.46131 2.37037,-2.53337c1.33221,-0.03535 2.35649,0.33852 3.11748,0.82182c0.44755,-0.30525 1.06015,-0.52374 1.63214,-0.66323c-1.0034,-0.52728 -2.98139,-1.83228 -2.3446,-3.67384c0.84237,-2.43609 4.57566,-0.93895 4.57566,-0.93895c2.09483,1.1324 5.2496,1.71522 6.28447,3.39721c3.00496,4.88408 -1.80108,4.83512 -4.04,6.61769c-0.58029,0.46202 -3.15352,4.04722 -3.68526,4.60902c-2.01669,2.13063 -4.57196,4.0066 -6.8305,5.97828l-0.0995,0.02327l0.03518,0.02639l-2.60923,1.93382c-1.1694,0.88574 -3.44191,0.664 -5.17099,-0.52846c-1.4541,-1.00283 -2.07534,-2.38284 -1.64432,-3.39469l1.18449,-3.08938l0.10548,0.04398c0.01265,-0.11606 0.02837,-0.23135 0.04743,-0.34578c0.18262,-1.09645 1.59438,-1.61552 2.33428,-2.45854c1.71758,-1.95699 2.94232,-3.97696 4.73744,-5.82525z" fill="#ff4200"/><path d="M183.47004,200.05706c-1.30943,1.14434 -3.37522,-0.28032 -3.37522,-0.28032l-1.23201,-0.98002c-1.56704,-1.84683 -2.99317,-3.58471 -5.14722,-5.17773c-0.24631,-0.18215 -5.93987,-4.0338 -6.1045,-4.32832c-0.11657,-0.20855 -0.20824,-0.41591 -0.28035,-0.62235l-0.1136,-0.0016l-0.82938,-2.02392c-0.22108,-0.52797 -0.15095,-1.04924 0.25692,-1.40569c0.31264,-0.27322 0.77255,-0.40488 1.28614,-0.40273c-0.96461,-1.30541 -1.51769,-2.86425 -1.44164,-3.08162c0.26326,-0.75243 3.38114,-0.51305 5.57925,-0.0842l-1.92857,-1.33005c-1.1409,-0.78682 -1.47953,-1.93703 -0.75635,-2.56904c0.66691,-0.58283 2.00393,-0.52145 3.10272,0.1087l1.64647,0.92174c0.95121,0.00106 1.72158,-0.43245 2.57127,-0.62713c-1.63444,-1.55211 -3.45701,-3.05126 -4.43703,-4.74505c-0.88458,-1.52881 -2.39186,-3.72887 -1.11975,-4.56705c1.30057,-0.85692 4.19128,0.61085 6.29647,1.15617c0.25733,0.06665 0.56805,0.16603 0.89108,0.28778c-0.33352,-0.43447 -0.59123,-0.87398 -0.67962,-1.30706c-0.02518,-0.12338 -0.04241,-0.24494 -0.05274,-0.36494l-0.06345,-0.00946l-0.35101,-1.98609c-0.0761,-0.40904 0.0354,-0.79317 0.35739,-1.07457c0.72318,-0.63201 2.23432,-0.50651 3.37524,0.28034l2.65513,1.83112c1.10045,0.76697 2.09325,2.24134 3.34196,2.2652c2.03759,0.03893 3.02587,-2.12854 5.14944,-1.45297c1.46128,0.46487 2.06108,1.98797 3.21663,2.90927c2.84983,2.27212 5.72398,3.84924 8.2428,6.02184c0.17992,0.63909 0.46769,1.28777 0.85823,1.92899c0.09713,0.3418 0.22508,0.68629 0.38309,1.03087c-0.33544,0.31944 -0.16193,0.88048 0.39787,1.26655c0.05917,0.04081 0.12035,0.07807 0.18288,0.11171c-0.05878,0.02206 -0.12131,0.0429 -0.18785,0.06238c-1.95142,0.57125 -3.4259,-1.16453 -3.4259,-1.16453c-2.59688,-3.1365 -6.76682,-4.61938 -9.76516,-7.51424c-0.41621,-0.40185 -0.03211,-0.90111 -0.38163,-1.32661c-0.21923,-0.26685 0.19219,0.65112 -0.07299,0.77318c-1.07732,0.49587 -2.22151,1.12466 -3.71172,0.96884c-1.04327,-0.10908 -2.16514,-0.59474 -3.24795,-1.20851c0.33474,1.30122 0.08247,2.55269 -0.91094,2.97689c-0.34111,0.14567 -3.29339,-0.45142 -5.6512,-1.35956c0.51063,0.48557 0.99632,0.98335 1.46277,1.48521c1.17125,1.26019 2.14582,2.58267 3.21874,3.87401l0.01937,0.29645l0.13386,0.00189l0.82938,2.02393c0.22108,0.52797 0.15095,1.04924 -0.25692,1.40569c-0.67969,0.594 -2.05541,0.51885 -3.16562,-0.14556l-1.01492,-0.59553c-0.13578,0.44266 -0.37081,0.96203 -0.72544,1.56973c-0.66405,1.13791 -2.79063,1.24275 -4.74267,1.27983c1.12937,0.73218 2.32808,1.55042 2.21295,2.32189c-0.14785,0.99057 -1.45347,1.3486 -2.66974,1.75547c3.97795,2.66013 6.68343,5.14028 9.47064,8.41792l-0.05195,-0.16619c0,0 2.06578,1.42467 0.75635,2.56904z" fill="url(#color-8)"/><path d="M185.77818,201.64887c-1.30943,1.14434 -3.37524,-0.28034 -3.37524,-0.28034l-1.23201,-0.98002c-1.56704,-1.84683 -2.99317,-3.58471 -5.14722,-5.17773c-0.24631,-0.18215 -5.93987,-4.0338 -6.1045,-4.32832c-0.11657,-0.20855 -0.20824,-0.41591 -0.28035,-0.62235l-0.1136,-0.0016l-0.82938,-2.02392c-0.22108,-0.52797 -0.15095,-1.04924 0.25692,-1.40569c0.31264,-0.27322 0.77255,-0.40488 1.28614,-0.40273c-0.96461,-1.30541 -1.51769,-2.86425 -1.44164,-3.08162c0.26326,-0.75243 3.38114,-0.51305 5.57925,-0.0842l-1.92857,-1.33005c-1.1409,-0.78682 -1.47953,-1.93702 -0.75635,-2.56904c0.66691,-0.58283 2.00393,-0.52145 3.10272,0.1087l1.64647,0.92174c0.95121,0.00106 1.72158,-0.43245 2.57127,-0.62713c-1.63444,-1.55211 -3.45703,-3.05128 -4.43704,-4.74506c-0.88458,-1.52881 -2.39186,-3.72887 -1.11975,-4.56705c1.30057,-0.85692 4.19128,0.61085 6.29647,1.15617c0.25733,0.06665 0.56805,0.16603 0.89108,0.28778c-0.33352,-0.43447 -0.59123,-0.87398 -0.67962,-1.30706c-0.02518,-0.12338 -0.04241,-0.24494 -0.05274,-0.36494l-0.06345,-0.00946l-0.35101,-1.98609c-0.0761,-0.40904 0.0354,-0.79317 0.35739,-1.07457c0.72318,-0.63201 2.23432,-0.5065 3.37523,0.28032l2.65513,1.83112c1.10045,0.76697 2.09326,2.24134 3.34198,2.26521c2.03759,0.03893 3.02587,-2.12853 5.14943,-1.45298c1.46128,0.46487 2.06108,1.98797 3.21663,2.90927c2.84983,2.27212 5.72398,3.84924 8.2428,6.02184c0.17992,0.63909 0.46769,1.28777 0.85823,1.92899c0.09713,0.3418 0.22508,0.68629 0.38309,1.03087c-0.33544,0.31944 -0.16193,0.88048 0.39787,1.26655c0.05917,0.04081 0.12036,0.07808 0.18289,0.11172c-0.05878,0.02206 -0.12131,0.0429 -0.18785,0.06238c-1.95142,0.57125 -3.42589,-1.16453 -3.42589,-1.16453c-2.59688,-3.1365 -6.76682,-4.61938 -9.76516,-7.51424c-0.41621,-0.40185 -0.03212,-0.90112 -0.38163,-1.32661c-0.21923,-0.26685 0.19219,0.65112 -0.07299,0.77318c-1.07732,0.49587 -2.22151,1.12466 -3.71172,0.96884c-1.04327,-0.10908 -2.16514,-0.59474 -3.24795,-1.20851c0.33474,1.30122 0.08246,2.55269 -0.91094,2.97689c-0.34111,0.14567 -3.29337,-0.45141 -5.65119,-1.35955c0.51063,0.48557 0.99633,0.98335 1.46276,1.4852c1.17125,1.26019 2.14581,2.58267 3.21874,3.87401l0.01937,0.29645l0.13386,0.00189l0.82938,2.02392c0.22108,0.52797 0.15095,1.04924 -0.25692,1.40569c-0.67969,0.594 -2.05541,0.51885 -3.16562,-0.14556l-1.01492,-0.59553c-0.13578,0.44266 -0.37081,0.96203 -0.72544,1.56973c-0.66405,1.13791 -2.79064,1.24275 -4.74268,1.27983c1.12937,0.73218 2.32809,1.55042 2.21295,2.32189c-0.14785,0.99057 -1.45347,1.3486 -2.66974,1.75547c3.97795,2.66013 6.68342,5.14027 9.47064,8.41792l-0.05195,-0.16619c0,0 2.0658,1.42469 0.75637,2.56904z" fill="url(#color-9)"/><path d="M187.62467,202.92231c-1.30943,1.14434 -3.37522,-0.28032 -3.37522,-0.28032l-1.23201,-0.98002c-1.56704,-1.84683 -2.99317,-3.58471 -5.14722,-5.17773c-0.24631,-0.18215 -5.93985,-4.03379 -6.10449,-4.32831c-0.11657,-0.20855 -0.20824,-0.41591 -0.28035,-0.62235l-0.1136,-0.0016l-0.82939,-2.02393c-0.22108,-0.52797 -0.15095,-1.04924 0.25692,-1.40569c0.31264,-0.27322 0.77255,-0.40488 1.28614,-0.40273c-0.96461,-1.30541 -1.51769,-2.86425 -1.44164,-3.08162c0.26326,-0.75243 3.38114,-0.51305 5.57925,-0.0842l-1.92857,-1.33005c-1.1409,-0.78682 -1.47953,-1.93702 -0.75635,-2.56904c0.66691,-0.58283 2.00392,-0.52145 3.10272,0.1087l1.64647,0.92174c0.95121,0.00106 1.72158,-0.43245 2.57127,-0.62714c-1.63444,-1.55211 -3.45703,-3.05128 -4.43704,-4.74506c-0.88458,-1.52881 -2.39185,-3.72886 -1.11974,-4.56704c1.30057,-0.85692 4.19128,0.61085 6.29647,1.15617c0.25733,0.06665 0.56807,0.16604 0.89108,0.28778c-0.33352,-0.43447 -0.59123,-0.87398 -0.67962,-1.30706c-0.02518,-0.12338 -0.04241,-0.24494 -0.05274,-0.36494l-0.06345,-0.00946l-0.35101,-1.98609c-0.0761,-0.40904 0.0354,-0.79317 0.35739,-1.07457c0.72318,-0.63201 2.23432,-0.5065 3.37524,0.28034l2.65513,1.83112c1.10045,0.76697 2.09325,2.24134 3.34196,2.2652c2.03759,0.03893 3.02587,-2.12853 5.14943,-1.45298c1.46128,0.46487 2.06108,1.98797 3.21663,2.90927c2.84983,2.27212 5.72398,3.84924 8.2428,6.02184c0.17992,0.63909 0.46769,1.28777 0.85823,1.92899c0.09713,0.3418 0.22508,0.68629 0.38309,1.03087c-0.33544,0.31944 -0.16193,0.88048 0.39787,1.26655c0.05917,0.04081 0.12035,0.07807 0.18288,0.11171c-0.05878,0.02206 -0.12131,0.0429 -0.18785,0.06238c-1.95142,0.57125 -3.42589,-1.16453 -3.42589,-1.16453c-2.59688,-3.1365 -6.76682,-4.61938 -9.76516,-7.51424c-0.41621,-0.40185 -0.03211,-0.90111 -0.38164,-1.32661c-0.21923,-0.26685 0.19219,0.65112 -0.07299,0.77318c-1.07732,0.49587 -2.22151,1.12466 -3.71172,0.96884c-1.04327,-0.10908 -2.16514,-0.59474 -3.24795,-1.20851c0.33474,1.30122 0.08246,2.55269 -0.91094,2.97689c-0.34111,0.14567 -3.29337,-0.4514 -5.65118,-1.35955c0.51063,0.48557 0.99632,0.98335 1.46277,1.48521c1.17125,1.26019 2.14581,2.58267 3.21874,3.87401l0.01937,0.29645l0.13386,0.00189l0.82938,2.02392c0.22108,0.52797 0.15095,1.04924 -0.25692,1.40569c-0.67969,0.594 -2.05541,0.51885 -3.16562,-0.14556l-1.01492,-0.59553c-0.13578,0.44266 -0.37081,0.96203 -0.72544,1.56973c-0.66405,1.13791 -2.79064,1.24275 -4.74268,1.27983c1.12937,0.73218 2.32809,1.55042 2.21295,2.32189c-0.14785,0.99057 -1.45347,1.3486 -2.66974,1.75547c3.97795,2.66013 6.68343,5.14028 9.47064,8.41792l-0.05195,-0.16619c0,0 2.06578,1.42467 0.75635,2.56904z" fill="url(#color-10)"/><path d="M189.9328,204.51413c-1.30943,1.14434 -3.37524,-0.28034 -3.37524,-0.28034l-1.23201,-0.98002c-1.56704,-1.84683 -2.99317,-3.58471 -5.14722,-5.17773c-0.24631,-0.18215 -5.93987,-4.0338 -6.1045,-4.32832c-0.11657,-0.20855 -0.20824,-0.41591 -0.28035,-0.62235l-0.1136,-0.0016l-0.82938,-2.02392c-0.22108,-0.52797 -0.15095,-1.04924 0.25692,-1.40569c0.31264,-0.27322 0.77254,-0.40489 1.28614,-0.40273c-0.96461,-1.30541 -1.51769,-2.86425 -1.44164,-3.08162c0.26326,-0.75243 3.38114,-0.51305 5.57925,-0.0842l-1.92857,-1.33005c-1.1409,-0.78682 -1.47953,-1.93702 -0.75635,-2.56904c0.66691,-0.58283 2.00392,-0.52145 3.10272,0.1087l1.64647,0.92174c0.95121,0.00106 1.72158,-0.43245 2.57127,-0.62713c-1.63444,-1.55211 -3.45703,-3.05128 -4.43704,-4.74506c-0.88458,-1.52881 -2.39186,-3.72887 -1.11975,-4.56705c1.30057,-0.85692 4.19128,0.61085 6.29648,1.15617c0.25733,0.06665 0.56805,0.16603 0.89108,0.28778c-0.33352,-0.43447 -0.59123,-0.87398 -0.67962,-1.30706c-0.02518,-0.12338 -0.04241,-0.24494 -0.05274,-0.36494l-0.06345,-0.00946l-0.35101,-1.98609c-0.0761,-0.40904 0.0354,-0.79317 0.35739,-1.07457c0.72318,-0.63201 2.23432,-0.50651 3.37522,0.28032l2.65513,1.83112c1.10045,0.76697 2.09326,2.24134 3.34198,2.26521c2.03759,0.03893 3.02587,-2.12853 5.14943,-1.45298c1.46128,0.46487 2.06108,1.98797 3.21663,2.90927c2.84983,2.27212 5.72398,3.84924 8.2428,6.02184c0.17992,0.63909 0.46769,1.28777 0.85823,1.92899c0.09713,0.3418 0.22508,0.68629 0.38309,1.03087c-0.33544,0.31944 -0.16193,0.88048 0.39787,1.26655c0.05917,0.04081 0.12036,0.07808 0.18289,0.11172c-0.05878,0.02206 -0.12131,0.0429 -0.18785,0.06238c-1.95142,0.57125 -3.4259,-1.16453 -3.4259,-1.16453c-2.59688,-3.1365 -6.76681,-4.61937 -9.76516,-7.51424c-0.41621,-0.40185 -0.03213,-0.90112 -0.38164,-1.32661c-0.21923,-0.26685 0.19219,0.65112 -0.07299,0.77318c-1.07732,0.49587 -2.22151,1.12466 -3.71172,0.96884c-1.04327,-0.10908 -2.16514,-0.59474 -3.24795,-1.20851c0.33474,1.30122 0.08246,2.55269 -0.91094,2.97689c-0.34111,0.14567 -3.29337,-0.4514 -5.65118,-1.35955c0.51063,0.48557 0.99632,0.98335 1.46276,1.4852c1.17125,1.26019 2.14582,2.58267 3.21874,3.87401l0.01937,0.29645l0.13386,0.00189l0.82937,2.02392c0.22108,0.52797 0.15095,1.04924 -0.25692,1.40569c-0.67969,0.594 -2.05541,0.51885 -3.16562,-0.14556l-1.01492,-0.59553c-0.13578,0.44266 -0.37081,0.96203 -0.72544,1.56973c-0.66405,1.13791 -2.79064,1.24275 -4.74268,1.27983c1.12937,0.73218 2.32809,1.55042 2.21293,2.32187c-0.14785,0.99057 -1.45347,1.3486 -2.66974,1.75547c3.97795,2.66013 6.68342,5.14027 9.47064,8.41792l-0.05195,-0.16619c0,0 2.0658,1.42469 0.75637,2.56904z" fill="url(#color-11)"/><path d="M192.24093,206.10593c-1.30943,1.14434 -3.37524,-0.28034 -3.37524,-0.28034l-1.23201,-0.98002c-1.56704,-1.84683 -2.99317,-3.58471 -5.14722,-5.17773c-0.24631,-0.18215 -5.93987,-4.0338 -6.1045,-4.32832c-0.11657,-0.20855 -0.20824,-0.41591 -0.28035,-0.62235l-0.1136,-0.0016l-0.82937,-2.02392c-0.22108,-0.52797 -0.15095,-1.04924 0.25692,-1.40569c0.31264,-0.27322 0.77255,-0.40488 1.28614,-0.40273c-0.96461,-1.30541 -1.51769,-2.86425 -1.44164,-3.08162c0.26326,-0.75243 3.38114,-0.51305 5.57925,-0.0842l-1.92857,-1.33005c-1.1409,-0.78682 -1.47955,-1.93704 -0.75637,-2.56904c0.66691,-0.58283 2.00392,-0.52145 3.10272,0.1087l1.64647,0.92174c0.95121,0.00106 1.72158,-0.43245 2.57127,-0.62714c-1.63444,-1.55211 -3.45703,-3.05128 -4.43704,-4.74506c-0.88458,-1.52881 -2.39186,-3.72887 -1.11975,-4.56705c1.30057,-0.85692 4.19128,0.61085 6.29647,1.15617c0.25733,0.06665 0.56807,0.16604 0.89108,0.28778c-0.33352,-0.43447 -0.59123,-0.87398 -0.67962,-1.30706c-0.02518,-0.12338 -0.04241,-0.24494 -0.05274,-0.36494l-0.06345,-0.00946l-0.35101,-1.98609c-0.0761,-0.40904 0.0354,-0.79317 0.35739,-1.07457c0.72318,-0.63201 2.23432,-0.50651 3.37522,0.28032l2.65514,1.83113c1.10045,0.76697 2.09325,2.24134 3.34196,2.2652c2.03759,0.03893 3.02587,-2.12853 5.14943,-1.45298c1.46128,0.46487 2.06108,1.98797 3.21663,2.90927c2.84983,2.27212 5.72398,3.84924 8.2428,6.02184c0.17992,0.63909 0.46767,1.28777 0.85823,1.92899c0.09713,0.3418 0.22508,0.68629 0.38309,1.03087c-0.33544,0.31944 -0.16193,0.88048 0.39787,1.26655c0.05917,0.04081 0.12036,0.07808 0.18289,0.11172c-0.05878,0.02206 -0.12131,0.0429 -0.18785,0.06238c-1.95142,0.57125 -3.42589,-1.16453 -3.42589,-1.16453c-2.59688,-3.1365 -6.76682,-4.61938 -9.76516,-7.51424c-0.41621,-0.40185 -0.03211,-0.90111 -0.38163,-1.32661c-0.21923,-0.26685 0.19219,0.65112 -0.07299,0.77318c-1.07732,0.49587 -2.22151,1.12466 -3.71172,0.96884c-1.04327,-0.10908 -2.16514,-0.59474 -3.24795,-1.20851c0.33474,1.30122 0.08246,2.55269 -0.91094,2.97689c-0.34111,0.14567 -3.29337,-0.45141 -5.65119,-1.35955c0.51063,0.48557 0.99633,0.98335 1.46276,1.4852c1.17125,1.26019 2.14581,2.58267 3.21874,3.87401l0.01938,0.29645l0.13386,0.00189l0.82937,2.02392c0.22108,0.52797 0.15095,1.04924 -0.25692,1.40569c-0.67969,0.594 -2.05541,0.51885 -3.16562,-0.14556l-1.01492,-0.59553c-0.13578,0.44266 -0.3708,0.96204 -0.72543,1.56973c-0.66405,1.13791 -2.79063,1.24275 -4.74267,1.27983c1.12937,0.73218 2.32808,1.55042 2.21295,2.32189c-0.14785,0.99057 -1.45347,1.3486 -2.66974,1.75547c3.97795,2.66013 6.68343,5.14028 9.47064,8.41792l-0.05195,-0.16619c0,0 2.0658,1.42469 0.75637,2.56904z" fill="url(#color-12)"/><path d="M194.54906,207.69774c-1.30943,1.14434 -3.37522,-0.28032 -3.37522,-0.28032l-1.23201,-0.98002c-1.56704,-1.84683 -2.99317,-3.58471 -5.14722,-5.17773c-0.24631,-0.18215 -5.93985,-4.03379 -6.10449,-4.32831c-0.11657,-0.20855 -0.20824,-0.41591 -0.28035,-0.62235l-0.1136,-0.0016l-0.82938,-2.02393c-0.22108,-0.52797 -0.15095,-1.04924 0.25692,-1.40569c0.31264,-0.27322 0.77255,-0.40488 1.28614,-0.40273c-0.96461,-1.30541 -1.51769,-2.86425 -1.44164,-3.08162c0.26326,-0.75243 3.38114,-0.51305 5.57925,-0.0842l-1.92857,-1.33005c-1.1409,-0.78682 -1.47953,-1.93702 -0.75635,-2.56904c0.66691,-0.58283 2.00393,-0.52145 3.10272,0.1087l1.64647,0.92174c0.95121,0.00106 1.72158,-0.43245 2.57127,-0.62714c-1.63444,-1.55211 -3.45703,-3.05128 -4.43704,-4.74506c-0.88458,-1.52881 -2.39185,-3.72886 -1.11974,-4.56704c1.30057,-0.85692 4.19128,0.61085 6.29647,1.15617c0.25733,0.06665 0.56805,0.16603 0.89108,0.28778c-0.33352,-0.43447 -0.59123,-0.87398 -0.67962,-1.30706c-0.02518,-0.12338 -0.04241,-0.24494 -0.05274,-0.36494l-0.06345,-0.00946l-0.35101,-1.98609c-0.0761,-0.40904 0.0354,-0.79317 0.35739,-1.07457c0.72318,-0.63201 2.23432,-0.50651 3.37524,0.28034l2.65513,1.83112c1.10045,0.76697 2.09325,2.24134 3.34196,2.2652c2.03759,0.03893 3.02587,-2.12854 5.14943,-1.45298c1.46128,0.46487 2.06108,1.98797 3.21663,2.90927c2.84983,2.27212 5.72398,3.84924 8.2428,6.02184c0.17992,0.63909 0.46769,1.28777 0.85823,1.92899c0.09713,0.3418 0.22508,0.68629 0.38309,1.03087c-0.33544,0.31944 -0.16193,0.88048 0.39787,1.26655c0.05917,0.04081 0.12035,0.07807 0.18288,0.11171c-0.05878,0.02206 -0.12131,0.0429 -0.18785,0.06238c-1.95142,0.57125 -3.42589,-1.16453 -3.42589,-1.16453c-2.59688,-3.1365 -6.76682,-4.61938 -9.76516,-7.51424c-0.41621,-0.40185 -0.03211,-0.90111 -0.38164,-1.32661c-0.21923,-0.26685 0.19219,0.65112 -0.07299,0.77318c-1.07732,0.49587 -2.22151,1.12466 -3.71172,0.96884c-1.04327,-0.10908 -2.16514,-0.59474 -3.24795,-1.20851c0.33474,1.30122 0.08246,2.55269 -0.91094,2.97689c-0.34111,0.14567 -3.29337,-0.4514 -5.65118,-1.35955c0.51063,0.48557 0.99632,0.98335 1.46277,1.48521c1.17125,1.26019 2.14582,2.58267 3.21874,3.87401l0.01937,0.29645l0.13386,0.00189l0.82938,2.02392c0.22108,0.52797 0.15095,1.04924 -0.25692,1.40569c-0.67969,0.594 -2.05541,0.51885 -3.16562,-0.14556l-1.01492,-0.59553c-0.13578,0.44266 -0.37081,0.96203 -0.72544,1.56973c-0.66405,1.13791 -2.79063,1.24275 -4.74267,1.27983c1.12937,0.73218 2.32808,1.55042 2.21295,2.32189c-0.14785,0.99057 -1.45347,1.3486 -2.66974,1.75547c3.97795,2.66013 6.68343,5.14028 9.47064,8.41792l-0.05195,-0.16619c0,0 2.06578,1.42467 0.75635,2.56904z" fill="url(#color-13)"/><path d="M196.8572,209.28956c-1.30943,1.14434 -3.37524,-0.28034 -3.37524,-0.28034l-1.23201,-0.98002c-1.56704,-1.84683 -2.99317,-3.58471 -5.14722,-5.17773c-0.24631,-0.18215 -5.93987,-4.0338 -6.1045,-4.32832c-0.11657,-0.20855 -0.20824,-0.41591 -0.28035,-0.62235l-0.1136,-0.0016l-0.82937,-2.02392c-0.22108,-0.52797 -0.15095,-1.04924 0.25692,-1.40569c0.31264,-0.27322 0.77254,-0.40489 1.28614,-0.40273c-0.96461,-1.30541 -1.51769,-2.86425 -1.44164,-3.08162c0.26326,-0.75243 3.38114,-0.51305 5.57925,-0.0842l-1.92857,-1.33005c-1.1409,-0.78682 -1.47953,-1.93702 -0.75635,-2.56904c0.66691,-0.58283 2.00392,-0.52145 3.10272,0.1087l1.64647,0.92174c0.95121,0.00106 1.72158,-0.43245 2.57127,-0.62714c-1.63444,-1.55211 -3.45703,-3.05128 -4.43704,-4.74506c-0.88458,-1.52881 -2.39186,-3.72887 -1.11975,-4.56705c1.30057,-0.85692 4.19128,0.61085 6.29647,1.15617c0.25733,0.06665 0.56805,0.16603 0.89108,0.28778c-0.33352,-0.43447 -0.59123,-0.87398 -0.67962,-1.30706c-0.02518,-0.12338 -0.04241,-0.24494 -0.05274,-0.36494l-0.06345,-0.00946l-0.35101,-1.98609c-0.0761,-0.40904 0.0354,-0.79317 0.35739,-1.07457c0.72318,-0.63201 2.23432,-0.50651 3.37522,0.28032l2.65513,1.83112c1.10045,0.76697 2.09326,2.24134 3.34198,2.26521c2.03759,0.03893 3.02587,-2.12853 5.14943,-1.45298c1.46128,0.46487 2.06108,1.98797 3.21663,2.90927c2.84983,2.27212 5.72399,3.84924 8.2428,6.02185c0.17992,0.63909 0.46769,1.28777 0.85823,1.92898c0.09713,0.3418 0.22508,0.68629 0.38309,1.03087c-0.33544,0.31944 -0.16193,0.88048 0.39787,1.26655c0.05917,0.04081 0.12036,0.07808 0.18289,0.11172c-0.05878,0.02206 -0.12131,0.0429 -0.18785,0.06238c-1.95142,0.57125 -3.4259,-1.16453 -3.4259,-1.16453c-2.59688,-3.1365 -6.76681,-4.61937 -9.76516,-7.51424c-0.41621,-0.40185 -0.03212,-0.90112 -0.38163,-1.32661c-0.21923,-0.26685 0.19219,0.65112 -0.07299,0.77318c-1.07732,0.49587 -2.22151,1.12466 -3.71172,0.96884c-1.04327,-0.10908 -2.16514,-0.59474 -3.24795,-1.20851c0.33474,1.30122 0.08246,2.55269 -0.91094,2.97689c-0.34111,0.14567 -3.29337,-0.45141 -5.65119,-1.35955c0.51063,0.48557 0.99633,0.98335 1.46276,1.4852c1.17125,1.26019 2.14581,2.58267 3.21874,3.87401l0.01937,0.29645l0.13386,0.00189l0.82938,2.02392c0.22108,0.52797 0.15095,1.04924 -0.25692,1.40569c-0.67969,0.594 -2.05541,0.51885 -3.16562,-0.14556l-1.01492,-0.59553c-0.13578,0.44266 -0.37081,0.96203 -0.72544,1.56973c-0.66405,1.13791 -2.79063,1.24275 -4.74267,1.27983c1.12937,0.73218 2.32808,1.55042 2.21293,2.32187c-0.14785,0.99057 -1.45347,1.3486 -2.66974,1.75547c3.97795,2.66013 6.68342,5.14027 9.47064,8.41792l-0.05195,-0.16619c0,0 2.0658,1.42469 0.75637,2.56904z" fill="url(#color-14)"/></g></g><g stroke="none" stroke-width="0.5" stroke-linecap="butt"><path d="M251.49005,147.40991c1.65338,-1.90889 5.68248,-5.33339 10.65514,-0.89133c2.43904,2.17878 3.28911,4.62795 3.39524,6.84425c1.56935,0.16573 3.2079,0.77731 4.5729,1.47285c-0.42105,-2.71004 -0.57223,-8.56487 5.25812,-11.04498c7.71262,-3.28082 10.46717,5.90544 10.46717,5.90544c0.79837,5.71878 4.87032,12.16465 2.39505,17.15634c-7.18769,14.49455 -15.53558,6.29385 -24.03966,5.95787c-2.20413,-0.08706 -15.90579,2.49214 -18.27938,2.6795c-9.00205,0.71059 -18.30267,0.02129 -27.32477,0.01721l-0.23492,-0.12292l-0.00544,0.11028l-9.54359,-0.66866c-4.3259,-0.26293 -7.7655,-4.52384 -7.7655,-9.74167c0,-4.388 2.43255,-8.09923 5.77909,-9.32509l9.98581,-3.96459l0.07354,0.26279c0.31897,-0.20265 0.64142,-0.39866 0.96754,-0.58733c3.12488,-1.80811 6.94072,-0.42873 10.40021,-0.80778c8.03084,-0.87997 15.35383,-2.71274 23.24349,-3.25214z" fill="#ff4200"/><path d="M195.85823,166.30198c-5.23388,0 -5.23391,-6.23389 -5.23391,-6.23389l0.33326,-3.96941c1.95847,-6.2074 3.88683,-11.96688 4.16154,-18.67454c0.03142,-0.76699 -0.16016,-17.80372 0.3025,-18.64981c0.32762,-0.5991 0.6961,-1.15392 1.09667,-1.67397l-0.19619,-0.19469l3.71166,-5.30499c0.95991,-1.39185 2.41611,-2.27962 4.0464,-2.27962c1.24963,0 2.39701,0.52162 3.29697,1.39202c1.63648,-4.1464 4.64635,-8.08777 5.33609,-8.37901c2.38761,-1.00816 7.27247,4.71267 10.05145,9.24782v-5.81981c0,-3.44287 2.34332,-6.23389 5.23391,-6.23389c2.66567,0 4.86593,2.37356 5.19221,5.44303l0.54642,4.55599c1.67425,1.60644 4.14064,2.06909 6.13632,3.12652c1.08622,-5.75229 1.7054,-11.71968 4.30755,-16.64164c2.34869,-4.44257 5.31545,-11.2309 9.70087,-10.70295c4.4835,0.53978 5.82767,8.2482 8.14511,12.85142c0.2833,0.56266 0.57705,1.27853 0.83529,2.05837c0.52267,-1.40107 1.19187,-2.68398 2.14313,-3.6689c0.27102,-0.28059 0.5514,-0.54427 0.83991,-0.79328l-0.08766,-0.12528l4.45831,-4.42513c0.91149,-0.91777 2.09003,-1.47109 3.37706,-1.47109c2.89059,0 5.23391,2.79101 5.23391,6.23394v8.01234c-0.02057,3.33632 -2.03925,7.85635 0.10123,10.00854c3.49274,3.51186 10.77589,0.9956 12.79276,5.88117c1.38784,3.36189 -1.44828,7.31308 -1.7662,11.0402c-0.78409,9.19186 0.25136,17.0834 -0.86192,25.52489c-1.31652,1.53688 -2.46748,3.2742 -3.41811,5.17045c-0.70252,0.82348 -1.35757,1.70415 -1.95991,2.63571c-1.40798,0.05076 -2.5363,1.42618 -2.5363,3.1155c0,0.17858 0.01261,0.35368 0.03685,0.52405c-0.16003,-0.05653 -0.32353,-0.1218 -0.49063,-0.19645c-4.90065,-2.18889 -3.0629,-8.02587 -3.0629,-8.02587c3.4397,-10.43345 -0.12111,-20.32865 1.99309,-30.97287c0.29349,-1.47758 2.24694,-1.79326 2.71848,-3.20404c0.29568,-0.88479 -1.32566,1.58081 -2.10519,1.36911c-3.16691,-0.86006 -6.79154,-1.57639 -9.02046,-4.39058c-1.56044,-1.97017 -2.29677,-4.79971 -2.63674,-7.8106c-2.73623,3.07593 -6.38018,5.06573 -9.21597,4.20889c-0.97376,-0.2942 -4.65224,-6.42607 -6.48753,-12.15562c-0.34105,1.7984 -0.75729,3.57832 -1.21785,5.33362c-1.15659,4.40765 -2.81914,8.60378 -4.2287,12.90569l-0.72368,0.60482l0.23115,0.22945l-3.71166,5.30503c-0.95991,1.39185 -2.41611,2.27962 -4.0464,2.27962c-2.71677,0 -4.95005,-2.46541 -5.20888,-5.62028l-0.26692,-2.86119c-1.37097,0.62531 -3.11303,1.23128 -5.29173,1.80596c-4.07961,1.07611 -8.09679,-2.30838 -11.63303,-5.52926c0.11937,3.31796 0.14099,6.91898 -2.03414,8.21369c-2.7929,1.66241 -6.00997,0.15126 -9.19435,-1.11494c0.21287,11.84346 -1.3575,21.19334 -4.82246,32.2202l0.33326,-0.40837c0,0 0,6.23389 -5.23391,6.23389z" fill="url(#color-15)"/><path d="M195.85823,173.26718c-5.23388,0 -5.23391,-6.23394 -5.23391,-6.23394l0.33326,-3.96941c1.95847,-6.2074 3.88683,-11.96688 4.16154,-18.67454c0.03142,-0.76699 -0.16016,-17.80372 0.3025,-18.64981c0.32762,-0.5991 0.6961,-1.15392 1.09667,-1.67397l-0.19619,-0.19469l3.71166,-5.30499c0.95991,-1.39185 2.41611,-2.27962 4.0464,-2.27962c1.24963,0 2.39701,0.52162 3.29697,1.39202c1.63648,-4.1464 4.64635,-8.08777 5.33609,-8.37901c2.38761,-1.00816 7.27247,4.71267 10.05145,9.24782v-5.81981c0,-3.44287 2.34332,-6.23389 5.23391,-6.23389c2.66567,0 4.86593,2.37356 5.19221,5.44303l0.54642,4.55599c1.67425,1.60644 4.14064,2.06909 6.13632,3.12652c1.08622,-5.75229 1.7054,-11.71974 4.30755,-16.64167c2.34869,-4.44257 5.31545,-11.2309 9.70087,-10.70295c4.4835,0.53978 5.82767,8.2482 8.14511,12.85142c0.2833,0.56266 0.57705,1.27853 0.83529,2.05837c0.52267,-1.40107 1.19187,-2.68398 2.14313,-3.6689c0.27102,-0.28059 0.5514,-0.54427 0.83991,-0.79328l-0.08766,-0.12528l4.45831,-4.42513c0.91149,-0.91777 2.09003,-1.47109 3.37706,-1.47109c2.89059,0 5.23391,2.79101 5.23391,6.23389v8.01234c-0.02057,3.33632 -2.03925,7.85638 0.10123,10.0086c3.49274,3.51186 10.77589,0.9956 12.79276,5.88115c1.38784,3.36189 -1.44828,7.31308 -1.7662,11.0402c-0.78409,9.19186 0.25136,17.0834 -0.86192,25.52489c-1.31652,1.53688 -2.46748,3.2742 -3.41811,5.17045c-0.70252,0.82348 -1.35757,1.70415 -1.95991,2.63571c-1.40798,0.05076 -2.5363,1.42618 -2.5363,3.1155c0,0.17858 0.01261,0.35369 0.03685,0.52408c-0.16003,-0.05653 -0.32353,-0.1218 -0.49063,-0.19645c-4.90065,-2.18889 -3.0629,-8.02584 -3.0629,-8.02584c3.4397,-10.43345 -0.12111,-20.32865 1.99309,-30.97287c0.29349,-1.47758 2.24694,-1.79333 2.71848,-3.20404c0.29568,-0.88479 -1.32566,1.58081 -2.10519,1.36911c-3.16691,-0.86006 -6.79154,-1.57639 -9.02046,-4.39058c-1.56044,-1.97017 -2.29677,-4.79971 -2.63674,-7.8106c-2.73623,3.07593 -6.38018,5.06569 -9.21597,4.20889c-0.97376,-0.2942 -4.65224,-6.42603 -6.48753,-12.15555c-0.34105,1.7984 -0.75729,3.57832 -1.21785,5.33358c-1.15659,4.40765 -2.81914,8.60378 -4.2287,12.90569l-0.72368,0.60482l0.23115,0.22945l-3.71166,5.30499c-0.95991,1.39185 -2.41611,2.27962 -4.0464,2.27962c-2.71677,0 -4.95005,-2.46541 -5.20888,-5.62028l-0.26692,-2.86119c-1.37097,0.62531 -3.11303,1.23128 -5.29173,1.80596c-4.07961,1.07611 -8.09679,-2.30838 -11.63303,-5.52926c0.11937,3.31796 0.14099,6.91898 -2.03414,8.21369c-2.7929,1.66241 -6.00997,0.15126 -9.19435,-1.11494c0.21287,11.84346 -1.3575,21.19332 -4.82246,32.2202l0.33326,-0.40837c0,0 0,6.23394 -5.23391,6.23394z" fill="url(#color-16)"/><path d="M195.85823,178.83932c-5.23388,0 -5.23391,-6.23389 -5.23391,-6.23389l0.33326,-3.96941c1.95847,-6.2074 3.88683,-11.96688 4.16154,-18.67454c0.03142,-0.76699 -0.16016,-17.80367 0.3025,-18.6498c0.32762,-0.5991 0.6961,-1.15392 1.09667,-1.67397l-0.19619,-0.19469l3.71166,-5.30503c0.95991,-1.39185 2.41611,-2.27962 4.0464,-2.27962c1.24963,0 2.39701,0.52162 3.29697,1.39202c1.63648,-4.1464 4.64635,-8.08777 5.33609,-8.37901c2.38761,-1.00816 7.27247,4.71267 10.05145,9.24782v-5.81981c0,-3.44287 2.34332,-6.23389 5.23391,-6.23389c2.66567,0 4.86593,2.37356 5.19221,5.44303l0.54642,4.55599c1.67425,1.60644 4.14064,2.06909 6.13632,3.12652c1.08622,-5.75229 1.7054,-11.71974 4.30755,-16.64167c2.34869,-4.44257 5.31545,-11.23088 9.70087,-10.70293c4.4835,0.53978 5.82767,8.2482 8.14511,12.85142c0.2833,0.56266 0.57705,1.2786 0.83529,2.05837c0.52267,-1.40107 1.19187,-2.68398 2.14313,-3.6689c0.27102,-0.28059 0.5514,-0.54427 0.83991,-0.79328l-0.08766,-0.12528l4.45831,-4.42513c0.91149,-0.91777 2.09003,-1.47109 3.37706,-1.47109c2.89059,0 5.23391,2.79101 5.23391,6.23394v8.01234c-0.02057,3.33632 -2.03925,7.85635 0.10123,10.00854c3.49274,3.51186 10.77589,0.9956 12.79276,5.88115c1.38784,3.36189 -1.44828,7.31308 -1.7662,11.0402c-0.78409,9.19186 0.25136,17.0834 -0.86192,25.52489c-1.31652,1.53688 -2.46748,3.2742 -3.41811,5.17045c-0.70252,0.82348 -1.35757,1.70415 -1.95991,2.63571c-1.40798,0.05076 -2.5363,1.42618 -2.5363,3.1155c0,0.17858 0.01261,0.35368 0.03685,0.52405c-0.16003,-0.05653 -0.32353,-0.1218 -0.49063,-0.19645c-4.90065,-2.18889 -3.0629,-8.02584 -3.0629,-8.02584c3.4397,-10.43345 -0.12111,-20.32865 1.99309,-30.97287c0.29349,-1.47758 2.24694,-1.79326 2.71848,-3.20404c0.29568,-0.88479 -1.32566,1.58081 -2.10519,1.36911c-3.16691,-0.86006 -6.79154,-1.57639 -9.02046,-4.39058c-1.56044,-1.97017 -2.29677,-4.79971 -2.63674,-7.8106c-2.73623,3.07593 -6.38018,5.06569 -9.21597,4.20889c-0.97376,-0.2942 -4.65224,-6.42603 -6.48753,-12.15555c-0.34105,1.7984 -0.75729,3.57832 -1.21785,5.33362c-1.15659,4.40765 -2.81914,8.60378 -4.2287,12.90569l-0.72368,0.60482l0.23115,0.22945l-3.71166,5.30499c-0.95991,1.39185 -2.41611,2.27962 -4.0464,2.27962c-2.71677,0 -4.95005,-2.46541 -5.20888,-5.62028l-0.26692,-2.86119c-1.37097,0.62531 -3.11303,1.23128 -5.29173,1.80596c-4.07961,1.07611 -8.09679,-2.30838 -11.63303,-5.52926c0.11937,3.31796 0.14099,6.91898 -2.03414,8.21369c-2.7929,1.66241 -6.00997,0.15126 -9.19435,-1.11494c0.21287,11.84346 -1.3575,21.19334 -4.82246,32.2202l0.33326,-0.40837c0,0 0,6.23389 -5.23391,6.23389z" fill="url(#color-17)"/><path d="M195.85823,185.80453c-5.23388,0 -5.23391,-6.23394 -5.23391,-6.23394l0.33326,-3.96941c1.95847,-6.2074 3.88683,-11.96688 4.16154,-18.67454c0.03142,-0.76699 -0.16016,-17.80372 0.3025,-18.64981c0.32762,-0.5991 0.6961,-1.15392 1.09667,-1.67397l-0.19619,-0.19469l3.71166,-5.30499c0.95991,-1.39185 2.41611,-2.27962 4.0464,-2.27962c1.24963,0 2.39701,0.5216 3.29697,1.39202c1.63648,-4.1464 4.64635,-8.08777 5.33609,-8.37901c2.38761,-1.00816 7.27247,4.71267 10.05145,9.24782v-5.81981c0,-3.44287 2.34332,-6.23389 5.23391,-6.23389c2.66567,0 4.86593,2.37356 5.19221,5.44303l0.54642,4.55599c1.67425,1.60644 4.14064,2.06909 6.13632,3.12652c1.08622,-5.75229 1.7054,-11.71974 4.30755,-16.64167c2.34869,-4.44257 5.31545,-11.2309 9.70087,-10.70295c4.4835,0.53978 5.82767,8.2482 8.14511,12.85142c0.2833,0.56266 0.57705,1.27853 0.83529,2.05837c0.52267,-1.40107 1.19187,-2.68398 2.14313,-3.6689c0.27102,-0.28059 0.5514,-0.54427 0.83991,-0.79328l-0.08766,-0.12528l4.45831,-4.42513c0.91149,-0.91777 2.09003,-1.47109 3.37706,-1.47109c2.89059,0 5.23391,2.79101 5.23391,6.23389v8.01234c-0.02057,3.33632 -2.03925,7.85638 0.10123,10.0086c3.49274,3.51186 10.77589,0.9956 12.79276,5.88115c1.38784,3.36189 -1.44828,7.31308 -1.7662,11.0402c-0.78409,9.19186 0.25136,17.0834 -0.86192,25.52489c-1.31652,1.53688 -2.46748,3.2742 -3.41811,5.17045c-0.70252,0.82348 -1.35757,1.70415 -1.95991,2.63571c-1.40798,0.05076 -2.5363,1.42618 -2.5363,3.1155c0,0.17858 0.01261,0.35369 0.03685,0.52408c-0.16003,-0.05653 -0.32353,-0.1218 -0.49063,-0.19645c-4.90065,-2.18889 -3.0629,-8.02587 -3.0629,-8.02587c3.4397,-10.43345 -0.12111,-20.32863 1.99309,-30.97287c0.29349,-1.47758 2.24694,-1.79333 2.71848,-3.20404c0.29568,-0.88479 -1.32566,1.58081 -2.10519,1.36911c-3.16691,-0.86006 -6.79154,-1.57639 -9.02046,-4.39058c-1.56044,-1.97017 -2.29677,-4.79971 -2.63674,-7.8106c-2.73623,3.07593 -6.38018,5.06569 -9.21597,4.20889c-0.97376,-0.2942 -4.65224,-6.42603 -6.48753,-12.15555c-0.34105,1.7984 -0.75729,3.57832 -1.21785,5.33358c-1.15659,4.40765 -2.81914,8.60378 -4.2287,12.90569l-0.72368,0.60482l0.23115,0.22945l-3.71166,5.30499c-0.95991,1.39185 -2.41611,2.27962 -4.0464,2.27962c-2.71677,0 -4.95005,-2.46541 -5.20888,-5.62028l-0.26692,-2.86119c-1.37097,0.62531 -3.11303,1.23128 -5.29173,1.80596c-4.07961,1.07611 -8.09679,-2.30838 -11.63303,-5.52926c0.11937,3.31796 0.14099,6.91898 -2.03414,8.21364c-2.7929,1.66241 -6.00997,0.15126 -9.19435,-1.11494c0.21287,11.84346 -1.3575,21.19332 -4.82246,32.2202l0.33326,-0.40837c0,0 0,6.23394 -5.23391,6.23394z" fill="url(#color-18)"/><path d="M195.85823,192.76971c-5.23388,0 -5.23391,-6.23394 -5.23391,-6.23394l0.33326,-3.96941c1.95847,-6.2074 3.88683,-11.96688 4.16154,-18.67454c0.03142,-0.76699 -0.16016,-17.80372 0.3025,-18.64981c0.32762,-0.5991 0.6961,-1.15392 1.09667,-1.67397l-0.19619,-0.19469l3.71166,-5.30499c0.95991,-1.39185 2.41611,-2.27962 4.0464,-2.27962c1.24963,0 2.39701,0.52162 3.29697,1.39202c1.63648,-4.1464 4.64635,-8.08777 5.33609,-8.37901c2.38761,-1.00816 7.27247,4.71267 10.05145,9.24782v-5.81981c0,-3.44287 2.34332,-6.23394 5.23391,-6.23394c2.66567,0 4.86593,2.37356 5.19221,5.44303l0.54642,4.55599c1.67425,1.60644 4.14064,2.06909 6.13632,3.12652c1.08622,-5.75229 1.7054,-11.71974 4.30755,-16.64167c2.34869,-4.44257 5.31545,-11.2309 9.70087,-10.70295c4.4835,0.53978 5.82767,8.2482 8.14511,12.85142c0.2833,0.56266 0.57705,1.2786 0.83529,2.05837c0.52267,-1.40107 1.19187,-2.68398 2.14313,-3.6689c0.27102,-0.28059 0.5514,-0.54427 0.83991,-0.79328l-0.08766,-0.12528l4.45831,-4.42513c0.91149,-0.91777 2.09003,-1.47109 3.37706,-1.47109c2.89059,0 5.23391,2.79101 5.23391,6.23389v8.01237c-0.02057,3.33632 -2.03925,7.85635 0.10123,10.00854c3.49274,3.51186 10.77589,0.9956 12.79276,5.88115c1.38784,3.36189 -1.44828,7.31308 -1.7662,11.0402c-0.78409,9.19186 0.25136,17.0834 -0.86192,25.52489c-1.31652,1.53688 -2.46748,3.27417 -3.41811,5.17045c-0.70252,0.82348 -1.35757,1.70415 -1.95991,2.63571c-1.40798,0.05076 -2.5363,1.42618 -2.5363,3.1155c0,0.17858 0.01261,0.35369 0.03685,0.52408c-0.16003,-0.05653 -0.32353,-0.1218 -0.49063,-0.19645c-4.90065,-2.18889 -3.0629,-8.02584 -3.0629,-8.02584c3.4397,-10.43345 -0.12111,-20.32865 1.99309,-30.97287c0.29349,-1.47758 2.24694,-1.79326 2.71848,-3.20404c0.29568,-0.88479 -1.32566,1.58081 -2.10519,1.36911c-3.16691,-0.86006 -6.79154,-1.57639 -9.02046,-4.39058c-1.56044,-1.97017 -2.29677,-4.79971 -2.63674,-7.8106c-2.73623,3.07593 -6.38018,5.06569 -9.21597,4.20889c-0.97376,-0.2942 -4.65224,-6.42603 -6.48753,-12.15555c-0.34105,1.7984 -0.75729,3.57832 -1.21785,5.33358c-1.15659,4.40765 -2.81914,8.60378 -4.2287,12.90569l-0.72368,0.60486l0.23115,0.22945l-3.71166,5.30499c-0.95991,1.39185 -2.41611,2.27962 -4.0464,2.27962c-2.71677,0 -4.95005,-2.46541 -5.20888,-5.62028l-0.26692,-2.86119c-1.37097,0.62531 -3.11303,1.2313 -5.29173,1.80599c-4.07961,1.07611 -8.09679,-2.30838 -11.63303,-5.52926c0.11937,3.31796 0.14099,6.91898 -2.03414,8.21369c-2.7929,1.66241 -6.00997,0.15126 -9.19435,-1.11494c0.21287,11.84346 -1.3575,21.19334 -4.82246,32.2202l0.33326,-0.40837c0,0 0,6.23394 -5.23391,6.23394z" fill="url(#color-19)"/><path d="M195.85823,199.73492c-5.23388,0 -5.23391,-6.23389 -5.23391,-6.23389l0.33326,-3.96941c1.95847,-6.2074 3.88683,-11.96688 4.16154,-18.67454c0.03142,-0.76699 -0.16016,-17.80367 0.3025,-18.6498c0.32762,-0.5991 0.6961,-1.15392 1.09667,-1.67397l-0.19619,-0.19469l3.71166,-5.30503c0.95991,-1.39185 2.41611,-2.27962 4.0464,-2.27962c1.24963,0 2.39701,0.52162 3.29697,1.39202c1.63648,-4.1464 4.64635,-8.08777 5.33609,-8.37901c2.38761,-1.00816 7.27247,4.71267 10.05145,9.24782v-5.81981c0,-3.44287 2.34332,-6.23389 5.23391,-6.23389c2.66567,0 4.86593,2.37356 5.19221,5.44303l0.54642,4.55599c1.67425,1.60644 4.14064,2.06909 6.13632,3.12652c1.08622,-5.75229 1.7054,-11.71974 4.30755,-16.64167c2.34869,-4.44257 5.31545,-11.23088 9.70087,-10.70293c4.4835,0.53978 5.82767,8.2482 8.14511,12.85142c0.2833,0.56266 0.57705,1.27853 0.83529,2.05837c0.52267,-1.40107 1.19187,-2.68398 2.14313,-3.6689c0.27102,-0.28059 0.5514,-0.54427 0.83991,-0.79328l-0.08766,-0.12528l4.45831,-4.42513c0.91149,-0.91777 2.09003,-1.47109 3.37706,-1.47109c2.89059,0 5.23391,2.79101 5.23391,6.23394v8.01234c-0.02057,3.33632 -2.03925,7.85635 0.10123,10.00854c3.49274,3.51186 10.77589,0.9956 12.79276,5.88115c1.38784,3.36189 -1.44828,7.31308 -1.7662,11.0402c-0.78409,9.19186 0.25136,17.0834 -0.86192,25.52489c-1.31652,1.53688 -2.46748,3.2742 -3.41811,5.17045c-0.70252,0.82348 -1.35757,1.70415 -1.95991,2.63571c-1.40798,0.05076 -2.5363,1.42618 -2.5363,3.1155c0,0.17858 0.01261,0.35368 0.03685,0.52405c-0.16003,-0.05653 -0.32353,-0.1218 -0.49063,-0.19645c-4.90065,-2.18889 -3.0629,-8.02584 -3.0629,-8.02584c3.4397,-10.43345 -0.12111,-20.32865 1.99309,-30.97287c0.29349,-1.47758 2.24694,-1.79326 2.71848,-3.20404c0.29568,-0.88479 -1.32566,1.58081 -2.10519,1.36911c-3.16691,-0.86006 -6.79154,-1.57639 -9.02046,-4.39058c-1.56044,-1.97017 -2.29677,-4.79971 -2.63674,-7.8106c-2.73623,3.07593 -6.38018,5.06569 -9.21597,4.20889c-0.97376,-0.2942 -4.65224,-6.42603 -6.48753,-12.15555c-0.34105,1.7984 -0.75729,3.57832 -1.21785,5.33362c-1.15659,4.40765 -2.81914,8.60378 -4.2287,12.90569l-0.72368,0.60482l0.23115,0.22945l-3.71166,5.30499c-0.95991,1.39185 -2.41611,2.27962 -4.0464,2.27962c-2.71677,0 -4.95005,-2.46541 -5.20888,-5.62028l-0.26692,-2.86119c-1.37097,0.62531 -3.11303,1.23128 -5.29173,1.80596c-4.07961,1.07611 -8.09679,-2.30838 -11.63303,-5.52926c0.11937,3.31796 0.14099,6.91898 -2.03414,8.21369c-2.7929,1.66241 -6.00997,0.15126 -9.19435,-1.11494c0.21287,11.84346 -1.3575,21.19334 -4.82246,32.2202l0.33326,-0.40837c0,0 0,6.23389 -5.23391,6.23389z" fill="url(#color-20)"/><path d="M195.85823,206.70014c-5.23388,0 -5.23391,-6.23394 -5.23391,-6.23394l0.33326,-3.96941c1.95847,-6.2074 3.88683,-11.96688 4.16154,-18.67454c0.03142,-0.76699 -0.16016,-17.80372 0.3025,-18.64981c0.32762,-0.5991 0.6961,-1.15392 1.09667,-1.67397l-0.19619,-0.19469l3.71166,-5.30499c0.95991,-1.39185 2.41611,-2.27962 4.0464,-2.27962c1.24963,0 2.39701,0.5216 3.29697,1.39202c1.63648,-4.1464 4.64635,-8.08777 5.33609,-8.37901c2.38761,-1.00816 7.27247,4.71267 10.05145,9.24782v-5.81981c0,-3.44287 2.34332,-6.23389 5.23391,-6.23389c2.66567,0 4.86593,2.37356 5.19221,5.44303l0.54642,4.55599c1.67425,1.60644 4.14064,2.06909 6.13632,3.12652c1.08622,-5.75229 1.7054,-11.71974 4.30755,-16.64167c2.34869,-4.44257 5.31545,-11.2309 9.70087,-10.70295c4.4835,0.53978 5.82767,8.2482 8.14511,12.85142c0.2833,0.56266 0.57705,1.27853 0.83529,2.05837c0.52267,-1.40107 1.19187,-2.68398 2.14313,-3.6689c0.27102,-0.28059 0.5514,-0.54427 0.83991,-0.79328l-0.08766,-0.12528l4.45831,-4.42513c0.91149,-0.91777 2.09003,-1.47109 3.37706,-1.47109c2.89059,0 5.23391,2.79101 5.23391,6.23389v8.01234c-0.02057,3.33632 -2.03925,7.85638 0.10123,10.0086c3.49274,3.51186 10.77589,0.9956 12.79276,5.88115c1.38784,3.36189 -1.44828,7.31308 -1.7662,11.0402c-0.78409,9.19186 0.25136,17.0834 -0.86192,25.52489c-1.31652,1.53688 -2.46748,3.2742 -3.41811,5.17045c-0.70252,0.82348 -1.35757,1.70415 -1.95991,2.63571c-1.40798,0.05076 -2.5363,1.42618 -2.5363,3.1155c0,0.17858 0.01261,0.35369 0.03685,0.52408c-0.16003,-0.05653 -0.32353,-0.1218 -0.49063,-0.19645c-4.90065,-2.18889 -3.0629,-8.02587 -3.0629,-8.02587c3.4397,-10.43345 -0.12111,-20.32863 1.99309,-30.97287c0.29349,-1.47758 2.24694,-1.79333 2.71848,-3.20404c0.29568,-0.88479 -1.32566,1.58081 -2.10519,1.36911c-3.16691,-0.86006 -6.79154,-1.57639 -9.02046,-4.39058c-1.56044,-1.97017 -2.29677,-4.79971 -2.63674,-7.8106c-2.73623,3.07593 -6.38018,5.06569 -9.21597,4.20889c-0.97376,-0.2942 -4.65224,-6.42603 -6.48753,-12.15555c-0.34105,1.7984 -0.75729,3.57832 -1.21785,5.33358c-1.15659,4.40765 -2.81914,8.60378 -4.2287,12.90569l-0.72368,0.60482l0.23115,0.22945l-3.71166,5.30499c-0.95991,1.39185 -2.41611,2.27962 -4.0464,2.27962c-2.71677,0 -4.95005,-2.46541 -5.20888,-5.62028l-0.26692,-2.86119c-1.37097,0.62531 -3.11303,1.23128 -5.29173,1.80596c-4.07961,1.07611 -8.09679,-2.30838 -11.63303,-5.52926c0.11937,3.31796 0.14099,6.91898 -2.03414,8.21364c-2.7929,1.66241 -6.00997,0.15126 -9.19435,-1.11494c0.21287,11.84346 -1.3575,21.19332 -4.82246,32.2202l0.33326,-0.40837c0,0 0,6.23394 -5.23391,6.23394z" fill="url(#color-21)"/></g><path d="M250.11691,234.50001v-21.33333" fill="none" stroke="#212121" stroke-width="8.5" stroke-linecap="round"/><path d="M277.1169,234.50001v-21.33333" fill="none" stroke="#212121" stroke-width="8.5" stroke-linecap="round"/><path d="M185.50001,180.00001c0,-30.09952 24.40048,-54.5 54.5,-54.5c30.09952,0 54.5,24.40048 54.5,54.5c0,30.09952 -24.40048,54.5 -54.5,54.5c-30.09952,0 -54.5,-24.40048 -54.5,-54.5z" fill="url(#color-22)" stroke="none" stroke-width="0" stroke-linecap="butt"/><path d="M221.11692,213.16668v21.33333" fill="none" stroke="#212121" stroke-width="8.5" stroke-linecap="round"/><path d="M199.61692,171.39132c0,0 7.18992,-16.05914 16.05915,-16.05914c8.86922,0 16.05915,16.05915 16.05915,16.05915z" fill="#ffffff" stroke="#000000" stroke-width="2.5" stroke-linecap="butt"/><path d="M247.11692,171.39132c0,0 7.18992,-16.05914 16.05914,-16.05914c8.86922,0 16.05915,16.05915 16.05915,16.05915z" fill="#ffffff" stroke="#000000" stroke-width="2.5" stroke-linecap="butt"/><path d="M256.17606,245.16667v-21.33333" fill="none" stroke="#212121" stroke-width="8.5" stroke-linecap="round"/><path d="M275.69601,185.74972l-0.33334,4.66666" fill="none" stroke="#ff8800" stroke-width="0.5" stroke-linecap="round"/><path d="M262.36267,202.41638v-8.33333" fill="none" stroke="#ff8800" stroke-width="0.5" stroke-linecap="round"/><path d="M244.69602,213.08304l-1.33334,-12.33333" fill="none" stroke="#ff8800" stroke-width="0.5" stroke-linecap="round"/><path d="M240.36268,211.74971l-3,-6" fill="none" stroke="#ff8800" stroke-width="0.5" stroke-linecap="round"/><path d="M214.69602,205.08305l3.66666,-8" fill="none" stroke="#ff8800" stroke-width="0.5" stroke-linecap="round"/><path d="M208.69602,207.74973l-3.33334,-2.66667l-0.33334,-6.66667" fill="none" stroke="#ff8800" stroke-width="0.5" stroke-linecap="round"/><path d="M205.36268,195.41637l-2,-2.66666" fill="none" stroke="#ff8800" stroke-width="0.5" stroke-linecap="round"/><path d="M218.36268,189.41639l-0.33334,2.66667" fill="none" stroke="#ff8800" stroke-width="0.5" stroke-linecap="round"/><path d="M240.02934,193.74973l-0.66666,-10.33334" fill="none" stroke="#ff8800" stroke-width="0.5" stroke-linecap="round"/><path d="M249.36268,198.41639l-1.66666,5.33334" fill="none" stroke="#ff8800" stroke-width="0.5" stroke-linecap="round"/><path d="M251.02934,210.08305l0.66667,7.66667" fill="none" stroke="#ff8800" stroke-width="0.5" stroke-linecap="round"/><path d="M257.02934,215.08304v-3.33333" fill="none" stroke="#ff8800" stroke-width="0.5" stroke-linecap="round"/><path d="M265.69601,217.08305l-2,-7" fill="none" stroke="#ff8800" stroke-width="0.5" stroke-linecap="round"/><path d="M279.69601,204.08306l-0.66667,-7.66667" fill="none" stroke="#ff8800" stroke-width="0.5" stroke-linecap="round"/><path d="M274.02934,202.41638v-6.33333" fill="none" stroke="#ff8800" stroke-width="0.5" stroke-linecap="round"/><path d="M269.02934,199.08305l-0.33333,7.66667" fill="none" stroke="#ff8800" stroke-width="0.5" stroke-linecap="round"/><path d="M266.02934,186.74971l0.33333,6.33333" fill="none" stroke="#ff8800" stroke-width="0.5" stroke-linecap="round"/><path d="M285.36267,197.41638l-1.33333,-5.33333" fill="none" stroke="#ff8800" stroke-width="0.5" stroke-linecap="round"/><path d="M289.36267,191.41639l-4.66666,-8" fill="none" stroke="#ff8800" stroke-width="0.5" stroke-linecap="round"/><path d="M283.69602,171.41638l-1.33334,-3.66666" fill="none" stroke="#ff8800" stroke-width="0.5" stroke-linecap="round"/><path d="M280.69601,185.41637l1.66666,-8.66666" fill="none" stroke="#ff8800" stroke-width="0.5" stroke-linecap="round"/><path d="M273.36267,176.08305l-2.33333,6.33333" fill="none" stroke="#ff8800" stroke-width="0.5" stroke-linecap="round"/><path d="M260.36267,184.74973l3.33334,-7.33334" fill="none" stroke="#ff8800" stroke-width="0.5" stroke-linecap="round"/><path d="M250.69601,189.74971l-2,-3l3.33333,-8" fill="none" stroke="#ff8800" stroke-width="0.5" stroke-linecap="round"/><path d="M242.36268,185.08306l-1,-6.66667" fill="none" stroke="#ff8800" stroke-width="0.5" stroke-linecap="round"/><path d="M237.02934,183.41639l0.33334,7.33334" fill="none" stroke="#ff8800" stroke-width="0.5" stroke-linecap="round"/><path d="M229.69602,188.08304l-0.33334,-7.33333" fill="none" stroke="#ff8800" stroke-width="0.5" stroke-linecap="round"/><path d="M225.69601,185.41639l2.66666,8.66667" fill="none" stroke="#ff8800" stroke-width="0.5" stroke-linecap="round"/><path d="M234.02934,190.74971l1,4" fill="none" stroke="#ff8800" stroke-width="0.5" stroke-linecap="round"/><path d="M231.36268,196.08305l0.66666,10.66667" fill="none" stroke="#ff8800" stroke-width="0.5" stroke-linecap="round"/><path d="M226.02934,208.08306v-6.66667" fill="none" stroke="#ff8800" stroke-width="0.5" stroke-linecap="round"/><path d="M228.69601,217.08306l-2,-5.66667" fill="none" stroke="#ff8800" stroke-width="0.5" stroke-linecap="round"/><path d="M241.69601,230.74971l-1,-4" fill="none" stroke="#ff8800" stroke-width="0.5" stroke-linecap="round"/><path d="M231.36268,222.08305l-2.33334,5.66667" fill="none" stroke="#ff8800" stroke-width="0.5" stroke-linecap="round"/><path d="M235.02934,225.41639l-0.33333,2.33334" fill="none" stroke="#ff8800" stroke-width="0.5" stroke-linecap="round"/><path d="M239.69601,218.08305l3,3.33333" fill="none" stroke="#ff8800" stroke-width="0.5" stroke-linecap="round"/><path d="M248.69601,228.08304l0.33333,-7.33333" fill="none" stroke="#ff8800" stroke-width="0.5" stroke-linecap="round"/><path d="M254.69601,192.74971l0.66666,4.33333" fill="none" stroke="#ff8800" stroke-width="0.5" stroke-linecap="round"/><path d="M205.02934,178.74971l0.66667,8.33333" fill="none" stroke="#ff8800" stroke-width="0.5" stroke-linecap="round"/><path d="M193.02934,184.41639l-1,5.33334" fill="none" stroke="#ff8800" stroke-width="0.5" stroke-linecap="round"/><path d="M199.02934,204.41637l-3.66666,-5.66666" fill="none" stroke="#ff8800" stroke-width="0.5" stroke-linecap="round"/><path d="M212.02934,222.74972l-1.33333,-4.66667" fill="none" stroke="#ff8800" stroke-width="0.5" stroke-linecap="round"/><path d="M206.69601,217.08305l-1,-5" fill="none" stroke="#ff8800" stroke-width="0.5" stroke-linecap="round"/><path d="M212.69601,209.41639v6.66667" fill="none" stroke="#ff8800" stroke-width="0.5" stroke-linecap="round"/><path d="M211.02934,179.74972l0.66667,10.66666" fill="none" stroke="#ff8800" stroke-width="0.5" stroke-linecap="round"/><path d="M209.36268,194.41639l3.66666,3" fill="none" stroke="#ff8800" stroke-width="0.5" stroke-linecap="round"/><path d="M233.36268,145.74971l3,2" fill="none" stroke="#ff8800" stroke-width="0.5" stroke-linecap="round"/><path d="M241.36268,158.41637l-1,-8.66666" fill="none" stroke="#ff8800" stroke-width="0.5" stroke-linecap="round"/><path d="M240.02934,161.41638l-0.66666,14.33334" fill="none" stroke="#ff8800" stroke-width="0.5" stroke-linecap="round"/><path d="M235.69602,167.74972l-0.33334,-7.33334" fill="none" stroke="#ff8800" stroke-width="0.5" stroke-linecap="round"/><path d="M226.36268,148.08305l-0.66666,2" fill="none" stroke="#ff8800" stroke-width="0.5" stroke-linecap="round"/><path d="M231.02934,154.08305l1,7" fill="none" stroke="#ff8800" stroke-width="0.5" stroke-linecap="round"/><path d="M190.69601,169.74972l5,-12.33334" fill="none" stroke="#ff8800" stroke-width="0.5" stroke-linecap="round"/><path d="M189.02934,174.08305l0.66667,5" fill="none" stroke="#ff8800" stroke-width="0.5" stroke-linecap="round"/><path d="M196.69601,167.41638l-1.33334,6" fill="none" stroke="#ff8800" stroke-width="0.5" stroke-linecap="round"/><path d="M199.69601,179.41637l-0.66667,-3.66666" fill="none" stroke="#ff8800" stroke-width="0.5" stroke-linecap="round"/><path d="M221.36268,175.08305l-1,4.66667" fill="none" stroke="#ff8800" stroke-width="0.5" stroke-linecap="round"/><path d="M252.02934,142.74971v10.66666" fill="none" stroke="#ff8800" stroke-width="0.5" stroke-linecap="round"/><path d="M249.36268,147.08305l-3.66666,7" fill="none" stroke="#ff8800" stroke-width="0.5" stroke-linecap="round"/><path d="M243.36267,143.41638h2.33334" fill="none" stroke="#ff8800" stroke-width="0.5" stroke-linecap="round"/><path d="M234.69601,137.41637l-3.33334,5.33334" fill="none" stroke="#ff8800" stroke-width="0.5" stroke-linecap="round"/><path d="M223.69601,137.74971v5" fill="none" stroke="#ff8800" stroke-width="0.5" stroke-linecap="round"/><path d="M220.36268,142.74971l-2,4" fill="none" stroke="#ff8800" stroke-width="0.5" stroke-linecap="round"/><path d="M222.02934,154.41638l-1.33333,-5" fill="none" stroke="#ff8800" stroke-width="0.5" stroke-linecap="round"/><path d="M211.02934,151.74971l-0.33333,-8" fill="none" stroke="#ff8800" stroke-width="0.5" stroke-linecap="round"/><path d="M205.36268,154.41638l-0.66666,5" fill="none" stroke="#ff8800" stroke-width="0.5" stroke-linecap="round"/><path d="M199.36267,163.74972l0.33334,-4.66667" fill="none" stroke="#ff8800" stroke-width="0.5" stroke-linecap="round"/><path d="M200.02934,148.74971l0.66667,3.33333" fill="none" stroke="#ff8800" stroke-width="0.5" stroke-linecap="round"/><path d="M219.36268,130.74971l-5,6.66666" fill="none" stroke="#ff8800" stroke-width="0.5" stroke-linecap="round"/><path d="M205.36268,145.74972l3,-7.33334" fill="none" stroke="#ff8800" stroke-width="0.5" stroke-linecap="round"/><path d="M229.69601,134.74971l-1,-4" fill="none" stroke="#ff8800" stroke-width="0.5" stroke-linecap="round"/><path d="M237.36268,134.41638v-3" fill="none" stroke="#ff8800" stroke-width="0.5" stroke-linecap="round"/><path d="M245.02934,139.08305l2,-6.66667" fill="none" stroke="#ff8800" stroke-width="0.5" stroke-linecap="round"/><path d="M255.02934,137.41638l3,6.33334l-1.66667,7.33333" fill="none" stroke="#ff8800" stroke-width="0.5" stroke-linecap="round"/><path d="M256.196,147.41638l0.66667,-6.33333" fill="none" stroke="#ff8800" stroke-width="0.5" stroke-linecap="round"/><path d="M268.69601,138.08305l0.66666,8" fill="none" stroke="#ff8800" stroke-width="0.5" stroke-linecap="round"/><path d="M272.36267,154.08304l2.66667,-11.33333" fill="none" stroke="#ff8800" stroke-width="0.5" stroke-linecap="round"/><path d="M282.02934,158.08305l-0.33333,-4.66667" fill="none" stroke="#ff8800" stroke-width="0.5" stroke-linecap="round"/><path d="M286.69601,164.74972l-0.66667,-6.33334" fill="none" stroke="#ff8800" stroke-width="0.5" stroke-linecap="round"/><path d="M290.69601,175.74971l-1,8" fill="none" stroke="#ff8800" stroke-width="0.5" stroke-linecap="round"/><path d="M287.36267,171.74971v6.33333" fill="none" stroke="#ff8800" stroke-width="0.5" stroke-linecap="round"/><path d="M265.02934,151.41637l-1.33333,-3.66666" fill="none" stroke="#ff8800" stroke-width="0.5" stroke-linecap="round"/><path d="M244.36267,163.74971l2.33334,-2.33334" fill="none" stroke="#ff8800" stroke-width="0.5" stroke-linecap="round"/><path d="M274.02934,212.41639l-1.33333,-8" fill="none" stroke="#ff8800" stroke-width="0.5" stroke-linecap="round"/><path d="M268.69601,213.74971l1.33333,4.33333" fill="none" stroke="#ff8800" stroke-width="0.5" stroke-linecap="round"/><path d="M277.36267,205.08305l2,8" fill="none" stroke="#ff8800" stroke-width="0.5" stroke-linecap="round"/><g stroke="none" stroke-width="0" stroke-linecap="butt"><path d="M141.19601,162.58304c0,-54.40005 44.09995,-98.5 98.5,-98.5c54.40005,0 98.5,44.09995 98.5,98.5c0,54.40005 -44.09995,98.5 -98.5,98.5c-54.40005,0 -98.5,-44.09995 -98.5,-98.5z" fill="url(#color-23)"/><path d="M181.02936,100.5c0,-35.89851 29.10149,-65 65,-65c35.89851,0 65,29.10149 65,65c0,35.89851 -29.10149,65 -65,65c-35.89851,0 -65,-29.10149 -65,-65z" fill="url(#color-24)"/></g></g></g></svg>