<svg version="1.1" xmlns="http://www.w3.org/2000/svg" xmlns:xlink="http://www.w3.org/1999/xlink" width="461.16964" height="343.00885" viewBox="0,0,461.16964,343.00885"><g transform="translate(-89.41517,-8.49556)"><g data-paper-data="{&quot;isPaintingLayer&quot;:true}" fill-rule="nonzero" stroke="none" stroke-linecap="butt" stroke-linejoin="miter" stroke-miterlimit="10" stroke-dasharray="" stroke-dashoffset="0" style="mix-blend-mode: normal"><g><path d="M89.41518,304.34071c0,-74.05917 0,-213.28329 0,-252.96903c0,-20.74372 30.02309,-42.87611 58.09594,-42.87611c54.77536,0 249.57857,0 346.89752,0c34.05758,0 56.17617,24.69316 56.17617,47.16372c0,38.22032 0,160.97611 0,235.81858c0,35.36117 -36.23839,60.02655 -68.41961,60.02655c-57.10852,0 -245.08387,0 -338.73523,0c-32.78843,0 -54.0148,-18.80405 -54.0148,-47.16372z" fill-opacity="0.70196" fill="#000000" stroke-width="0"/><text transform="translate(137.36404,59.65543) scale(1.08505,1.08505)" font-size="40" xml:space="preserve" fill-opacity="0.70196" fill="#7600ad" fill-rule="nonzero" stroke="none" stroke-width="1" stroke-linecap="butt" stroke-linejoin="miter" stroke-miterlimit="10" stroke-dasharray="" stroke-dashoffset="0" font-family="&quot;MV Boli&quot;, Sans Serif" font-weight="normal" text-anchor="start" style="mix-blend-mode: normal"><tspan x="0" dy="0">Please select your</tspan><tspan x="0" dy="48px">    difficulty:</tspan></text></g></g></g></svg>