<svg version="1.1" xmlns="http://www.w3.org/2000/svg" xmlns:xlink="http://www.w3.org/1999/xlink" width="57.65667" height="40.86" viewBox="0,0,57.65667,40.86"><defs><linearGradient x1="340.70419" y1="180.42879" x2="342.68038" y2="180.42879" gradientUnits="userSpaceOnUse" id="color-1"><stop offset="0" stop-color="#434343"/><stop offset="1" stop-color="#5e5e5e"/></linearGradient><linearGradient x1="326.56759" y1="182.02025" x2="335.40295" y2="182.02025" gradientUnits="userSpaceOnUse" id="color-2"><stop offset="0" stop-color="#1b1b1b"/><stop offset="1" stop-color="#2f2f2f"/></linearGradient><linearGradient x1="335.34807" y1="181.1422" x2="349.72612" y2="181.1422" gradientUnits="userSpaceOnUse" id="color-3"><stop offset="0" stop-color="#2f2f2f"/><stop offset="1" stop-color="#444444"/></linearGradient><radialGradient cx="347.20394" cy="181.1422" r="10.02273" gradientUnits="userSpaceOnUse" id="color-4"><stop offset="0" stop-color="#959595" stop-opacity="0.5098"/><stop offset="1" stop-color="#959595" stop-opacity="0"/></radialGradient><radialGradient cx="315.33565" cy="173.69956" r="4.86449" gradientUnits="userSpaceOnUse" id="color-5"><stop offset="0" stop-color="#030303"/><stop offset="1" stop-color="#000000" stop-opacity="0.16078"/></radialGradient><radialGradient cx="315.33565" cy="173.69956" r="3.93045" gradientUnits="userSpaceOnUse" id="color-6"><stop offset="0" stop-color="#252525"/><stop offset="1" stop-color="#000000"/></radialGradient><radialGradient cx="315.33565" cy="173.69956" r="2.05793" gradientUnits="userSpaceOnUse" id="color-7"><stop offset="0" stop-color="#630000"/><stop offset="1" stop-color="#630000" stop-opacity="0"/></radialGradient><radialGradient cx="315.33565" cy="184.89468" r="3.05351" gradientUnits="userSpaceOnUse" id="color-8"><stop offset="0" stop-color="#030303"/><stop offset="1" stop-color="#000000" stop-opacity="0.16078"/></radialGradient><radialGradient cx="315.33565" cy="184.89468" r="2.4672" gradientUnits="userSpaceOnUse" id="color-9"><stop offset="0" stop-color="#252525"/><stop offset="1" stop-color="#000000"/></radialGradient><radialGradient cx="315.33565" cy="184.89468" r="1.2918" gradientUnits="userSpaceOnUse" id="color-10"><stop offset="0" stop-color="#630000"/><stop offset="1" stop-color="#630000" stop-opacity="0"/></radialGradient><radialGradient cx="324.42546" cy="174.52273" r="2.08508" gradientUnits="userSpaceOnUse" id="color-11"><stop offset="0" stop-color="#030303"/><stop offset="1" stop-color="#000000" stop-opacity="0.16078"/></radialGradient><radialGradient cx="324.42546" cy="174.52273" r="1.68472" gradientUnits="userSpaceOnUse" id="color-12"><stop offset="0" stop-color="#252525"/><stop offset="1" stop-color="#000000"/></radialGradient><radialGradient cx="324.42546" cy="174.52273" r="0.8821" gradientUnits="userSpaceOnUse" id="color-13"><stop offset="0" stop-color="#630000"/><stop offset="1" stop-color="#630000" stop-opacity="0"/></radialGradient><radialGradient cx="320.20014" cy="180.64912" r="2.52411" gradientUnits="userSpaceOnUse" id="color-14"><stop offset="0" stop-color="#030303"/><stop offset="1" stop-color="#000000" stop-opacity="0.16078"/></radialGradient><radialGradient cx="320.20014" cy="180.64912" r="2.03945" gradientUnits="userSpaceOnUse" id="color-15"><stop offset="0" stop-color="#252525"/><stop offset="1" stop-color="#000000"/></radialGradient><radialGradient cx="320.20014" cy="180.64912" r="1.06783" gradientUnits="userSpaceOnUse" id="color-16"><stop offset="0" stop-color="#630000"/><stop offset="1" stop-color="#630000" stop-opacity="0"/></radialGradient><radialGradient cx="320" cy="180" r="20.43" gradientUnits="userSpaceOnUse" id="color-17"><stop offset="0" stop-color="#8f0000" stop-opacity="0.5098"/><stop offset="1" stop-color="#8f0000" stop-opacity="0"/></radialGradient></defs><g transform="translate(-299.57,-159.57)"><g data-paper-data="{&quot;isPaintingLayer&quot;:true}" fill-rule="nonzero" stroke-width="0" stroke-linecap="butt" stroke-linejoin="miter" stroke-miterlimit="10" stroke-dasharray="" stroke-dashoffset="0" style="mix-blend-mode: normal"><g><path d="M348.09777,183.51644c-0.59204,1.02545 -1.91693,3.32023 -2.26569,3.9243c-0.16431,0.2846 -0.4973,0.30203 -0.65437,0.02997c-0.33832,-0.58597 -1.64141,-2.843 -2.2523,-3.9011c-0.19504,-0.33783 -0.05533,-0.55343 0.35544,-0.55343c1.24553,0 3.83865,0 4.5,0c0.30089,0 0.49419,0.19324 0.31692,0.50027z" fill="#421f1f" stroke="none"/><path d="M345.35851,183.64238c-0.26558,0.46001 -0.85992,1.48944 -1.01637,1.76041c-0.07371,0.12767 -0.22308,0.13549 -0.29354,0.01344c-0.15177,-0.26287 -0.73633,-1.27535 -1.01037,-1.75001c-0.08749,-0.15154 -0.02481,-0.24827 0.15945,-0.24827c0.55874,0 1.722,0 2.01867,0c0.13497,0 0.22169,0.08669 0.14217,0.22442z" fill="#630000" stroke="none"/><path d="M341.05807,178.72708c0.59204,-1.02545 1.91694,-3.32023 2.26569,-3.9243c0.16431,-0.2846 0.4973,-0.30203 0.65437,-0.02997c0.33832,0.58597 1.64141,2.84299 2.2523,3.9011c0.19504,0.33783 0.05533,0.55344 -0.35544,0.55344c-1.24553,0 -3.83865,0 -4.5,0c-0.30089,0 -0.49419,-0.19324 -0.31693,-0.50027z" fill="#421f1f" stroke="none"/><path d="M341.13384,178.76396c0.26558,-0.46001 0.85993,-1.48944 1.01638,-1.76041c0.07371,-0.12767 0.22308,-0.13549 0.29354,-0.01344c0.15177,0.26287 0.73632,1.27534 1.01037,1.75c0.08749,0.15154 0.02481,0.24827 -0.15945,0.24827c-0.55874,0 -1.72199,0 -2.01867,0c-0.13497,0 -0.22169,-0.08669 -0.14217,-0.22442z" fill="#630000" stroke="none"/><path d="M340.70419,181.47147v-2.08536h1.97619v2.08536z" fill="url(#color-1)" stroke="#000000"/><path d="M326.56759,184.81903v-5.59756h8.83536v5.59756z" fill="url(#color-2)" stroke="#000000"/><path d="M335.34807,183.94098v-5.59756h14.37805v5.59756z" fill="url(#color-3)" stroke="#000000"/><path d="M337.18121,181.1422c0,-5.5354 4.48733,-10.02273 10.02273,-10.02273c5.5354,0 10.02273,4.48733 10.02273,10.02273c0,5.5354 -4.48733,10.02273 -10.02273,10.02273c-5.5354,0 -10.02273,-4.48733 -10.02273,-10.02273z" fill="url(#color-4)" stroke="#000000"/></g><g stroke="#000000"><path d="M309.97727,181.1422c0,-5.5354 4.48733,-10.02273 10.02273,-10.02273c5.5354,0 10.02273,4.48733 10.02273,10.02273c0,5.5354 -4.48733,10.02273 -10.02273,10.02273c-5.5354,0 -10.02273,-4.48733 -10.02273,-10.02273z" fill="#630000"/><g><path d="M310.47117,173.69956c0,-2.68659 2.1779,-4.86449 4.86449,-4.86449c2.68658,0 4.86449,2.1779 4.86449,4.86449c0,2.68659 -2.1779,4.86449 -4.86449,4.86449c-2.68658,0 -4.86449,-2.1779 -4.86449,-4.86449z" fill="url(#color-5)"/><path d="M311.40521,173.69956c0,-2.17073 1.75972,-3.93045 3.93045,-3.93045c2.17073,0 3.93045,1.75972 3.93045,3.93045c0,2.17073 -1.75972,3.93045 -3.93045,3.93045c-2.17073,0 -3.93045,-1.75972 -3.93045,-3.93045z" fill="url(#color-6)"/><path d="M314.77853,173.69956c0,-0.55593 0.24944,-1.0066 0.55714,-1.0066c0.3077,0 0.55713,0.45067 0.55713,1.0066c0,0.55593 -0.24944,1.0066 -0.55713,1.0066c-0.3077,0 -0.55714,-0.45067 -0.55714,-1.0066z" fill="#630000"/><path d="M314.9622,173.69956c0,-0.20626 0.16721,-0.37347 0.37347,-0.37347c0.20626,0 0.37346,0.16721 0.37346,0.37347c0,0.20626 -0.1672,0.37347 -0.37346,0.37347c-0.20626,0 -0.37347,-0.16721 -0.37347,-0.37347z" fill="#000000"/><path d="M313.27773,173.69956c0,-1.13656 0.92136,-2.05793 2.05792,-2.05793c1.13656,0 2.05793,0.92137 2.05793,2.05793c0,1.13656 -0.92137,2.05793 -2.05793,2.05793c-1.13656,0 -2.05792,-0.92137 -2.05792,-2.05793z" fill="url(#color-7)"/></g><g><path d="M312.28215,184.89468c0,-1.68641 1.3671,-3.05351 3.05351,-3.05351c1.68641,0 3.05351,1.3671 3.05351,3.05351c0,1.68641 -1.3671,3.05351 -3.05351,3.05351c-1.68641,0 -3.05351,-1.3671 -3.05351,-3.05351z" fill="url(#color-8)"/><path d="M312.86846,184.89468c0,-1.3626 1.1046,-2.4672 2.4672,-2.4672c1.3626,0 2.4672,1.1046 2.4672,2.4672c0,1.3626 -1.1046,2.46721 -2.4672,2.46721c-1.3626,0 -2.4672,-1.10461 -2.4672,-2.46721z" fill="url(#color-9)"/><path d="M314.98594,184.89468c0,-0.34896 0.15658,-0.63186 0.34973,-0.63186c0.19315,0 0.34972,0.28289 0.34972,0.63186c0,0.34896 -0.15657,0.63186 -0.34972,0.63186c-0.19315,0 -0.34973,-0.28289 -0.34973,-0.63186z" fill="#630000"/><path d="M315.10123,184.89468c0,-0.12947 0.10496,-0.23443 0.23443,-0.23443c0.12947,0 0.23443,0.10496 0.23443,0.23443c0,0.12947 -0.10496,0.23443 -0.23443,0.23443c-0.12947,0 -0.23443,-0.10496 -0.23443,-0.23443z" fill="#000000"/><path d="M314.04387,184.89468c0,-0.71344 0.57835,-1.29179 1.29179,-1.29179c0.71344,0 1.2918,0.57835 1.2918,1.29179c0,0.71344 -0.57836,1.29179 -1.2918,1.29179c-0.71344,0 -1.29179,-0.57835 -1.29179,-1.29179z" fill="url(#color-10)"/></g><g><path d="M322.34039,174.52273c0,-1.15156 0.93351,-2.08508 2.08507,-2.08508c1.15156,0 2.08508,0.93352 2.08508,2.08508c0,1.15156 -0.93352,2.08508 -2.08508,2.08508c-1.15156,0 -2.08507,-0.93352 -2.08507,-2.08508z" fill="url(#color-11)"/><path d="M322.74075,174.52273c0,-0.93044 0.75427,-1.68472 1.68471,-1.68472c0.93045,0 1.68472,0.75428 1.68472,1.68472c0,0.93044 -0.75428,1.68472 -1.68472,1.68472c-0.93045,0 -1.68471,-0.75428 -1.68471,-1.68472z" fill="url(#color-12)"/><path d="M324.18665,174.52273c0,-0.23829 0.10692,-0.43146 0.23881,-0.43146c0.13189,0 0.23881,0.19317 0.23881,0.43146c0,0.23829 -0.10692,0.43146 -0.23881,0.43146c-0.13189,0 -0.23881,-0.19317 -0.23881,-0.43146z" fill="#630000"/><path d="M324.26538,174.52273c0,-0.08841 0.07167,-0.16008 0.16008,-0.16008c0.08841,0 0.16008,0.07167 0.16008,0.16008c0,0.08841 -0.07167,0.16008 -0.16008,0.16008c-0.08841,0 -0.16008,-0.07167 -0.16008,-0.16008z" fill="#000000"/><path d="M323.54337,174.52273c0,-0.48717 0.39493,-0.88209 0.88209,-0.88209c0.48717,0 0.8821,0.39493 0.8821,0.88209c0,0.48717 -0.39494,0.88209 -0.8821,0.88209c-0.48717,0 -0.88209,-0.39493 -0.88209,-0.88209z" fill="url(#color-13)"/></g><g><path d="M317.67604,180.64912c0,-1.39402 1.13007,-2.52411 2.5241,-2.52411c1.39402,0 2.52411,1.13008 2.52411,2.52411c0,1.39402 -1.13008,2.5241 -2.52411,2.5241c-1.39402,0 -2.5241,-1.13008 -2.5241,-2.5241z" fill="url(#color-14)"/><path d="M318.16069,180.64912c0,-1.12635 0.91309,-2.03945 2.03944,-2.03945c1.12635,0 2.03945,0.9131 2.03945,2.03945c0,1.12635 -0.91309,2.03945 -2.03945,2.03945c-1.12635,0 -2.03944,-0.91309 -2.03944,-2.03945z" fill="url(#color-15)"/><path d="M319.91105,180.64912c0,-0.28847 0.12943,-0.52231 0.28909,-0.52231c0.15966,0 0.28909,0.23385 0.28909,0.52231c0,0.28847 -0.12943,0.5223 -0.28909,0.5223c-0.15966,0 -0.28909,-0.23384 -0.28909,-0.5223z" fill="#630000"/><path d="M320.00636,180.64912c0,-0.10702 0.08676,-0.19379 0.19378,-0.19379c0.10703,0 0.19379,0.08677 0.19379,0.19379c0,0.10702 -0.08676,0.19378 -0.19379,0.19378c-0.10703,0 -0.19378,-0.08676 -0.19378,-0.19378z" fill="#000000"/><path d="M319.13232,180.64912c0,-0.58974 0.47808,-1.06782 1.06782,-1.06782c0.58974,0 1.06783,0.47808 1.06783,1.06782c0,0.58974 -0.47809,1.06782 -1.06783,1.06782c-0.58974,0 -1.06782,-0.47808 -1.06782,-1.06782z" fill="url(#color-16)"/></g></g><path d="M299.57,180c0,-11.28317 9.14682,-20.43 20.43,-20.43c11.28318,0 20.43,9.14683 20.43,20.43c0,11.28318 -9.14682,20.43 -20.43,20.43c-11.28318,0 -20.43,-9.14683 -20.43,-20.43z" fill="url(#color-17)" stroke="#000000"/></g></g></svg>