<svg version="1.1" xmlns="http://www.w3.org/2000/svg" xmlns:xlink="http://www.w3.org/1999/xlink" width="42.66514" height="40.86" viewBox="0,0,42.66514,40.86"><defs><radialGradient cx="315.33565" cy="173.69956" r="5.35839" gradientUnits="userSpaceOnUse" id="color-1"><stop offset="0" stop-color="#030303"/><stop offset="1" stop-color="#000000" stop-opacity="0.16078"/></radialGradient><radialGradient cx="315.33565" cy="173.69956" r="4.32952" gradientUnits="userSpaceOnUse" id="color-2"><stop offset="0" stop-color="#252525"/><stop offset="1" stop-color="#000000"/></radialGradient><radialGradient cx="315.33565" cy="173.69956" r="2.26688" gradientUnits="userSpaceOnUse" id="color-3"><stop offset="0" stop-color="#630000"/><stop offset="1" stop-color="#630000" stop-opacity="0"/></radialGradient><radialGradient cx="315.33565" cy="184.89468" r="1.92851" gradientUnits="userSpaceOnUse" id="color-4"><stop offset="0" stop-color="#030303"/><stop offset="1" stop-color="#000000" stop-opacity="0.16078"/></radialGradient><radialGradient cx="315.33565" cy="184.89468" r="1.55821" gradientUnits="userSpaceOnUse" id="color-5"><stop offset="0" stop-color="#252525"/><stop offset="1" stop-color="#000000"/></radialGradient><radialGradient cx="315.33565" cy="184.89468" r="0.81586" gradientUnits="userSpaceOnUse" id="color-6"><stop offset="0" stop-color="#630000"/><stop offset="1" stop-color="#630000" stop-opacity="0"/></radialGradient><radialGradient cx="324.42546" cy="174.52273" r="2.52411" gradientUnits="userSpaceOnUse" id="color-7"><stop offset="0" stop-color="#030303"/><stop offset="1" stop-color="#000000" stop-opacity="0.16078"/></radialGradient><radialGradient cx="324.42546" cy="174.52273" r="2.03945" gradientUnits="userSpaceOnUse" id="color-8"><stop offset="0" stop-color="#252525"/><stop offset="1" stop-color="#000000"/></radialGradient><radialGradient cx="324.42546" cy="174.52273" r="1.06783" gradientUnits="userSpaceOnUse" id="color-9"><stop offset="0" stop-color="#630000"/><stop offset="1" stop-color="#630000" stop-opacity="0"/></radialGradient><radialGradient cx="320.20014" cy="180.64912" r="3.05352" gradientUnits="userSpaceOnUse" id="color-10"><stop offset="0" stop-color="#030303"/><stop offset="1" stop-color="#000000" stop-opacity="0.16078"/></radialGradient><radialGradient cx="320.20014" cy="180.64912" r="2.4672" gradientUnits="userSpaceOnUse" id="color-11"><stop offset="0" stop-color="#252525"/><stop offset="1" stop-color="#000000"/></radialGradient><radialGradient cx="320.20014" cy="180.64912" r="1.2918" gradientUnits="userSpaceOnUse" id="color-12"><stop offset="0" stop-color="#630000"/><stop offset="1" stop-color="#630000" stop-opacity="0"/></radialGradient><radialGradient cx="320" cy="180" r="20.43" gradientUnits="userSpaceOnUse" id="color-13"><stop offset="0" stop-color="#8f0000" stop-opacity="0.5098"/><stop offset="1" stop-color="#8f0000" stop-opacity="0"/></radialGradient></defs><g transform="translate(-299.57,-159.57)"><g stroke-width="0" stroke-miterlimit="10"><path d="M309.97727,181.1422c0,-5.5354 4.48733,-10.02273 10.02273,-10.02273c5.5354,0 10.02273,4.48733 10.02273,10.02273c0,5.5354 -4.48733,10.02273 -10.02273,10.02273c-5.5354,0 -10.02273,-4.48733 -10.02273,-10.02273z" fill="#630000" stroke="#000000"/><g stroke="#000000"><path d="M309.97727,173.69956c0,-2.95936 2.39903,-5.35839 5.35839,-5.35839c2.95935,0 5.35839,2.39903 5.35839,5.35839c0,2.95936 -2.39903,5.35839 -5.35839,5.35839c-2.95935,0 -5.35839,-2.39903 -5.35839,-5.35839z" fill="url(#color-1)"/><path d="M311.00614,173.69956c0,-2.39113 1.93839,-4.32952 4.32952,-4.32952c2.39113,0 4.32952,1.93839 4.32952,4.32952c0,2.39113 -1.93839,4.32952 -4.32952,4.32952c-2.39113,0 -4.32952,-1.93839 -4.32952,-4.32952z" fill="url(#color-2)"/><path d="M314.72196,173.69956c0,-0.61237 0.27477,-1.1088 0.61371,-1.1088c0.33894,0 0.6137,0.49643 0.6137,1.1088c0,0.61237 -0.27477,1.1088 -0.6137,1.1088c-0.33894,0 -0.61371,-0.49643 -0.61371,-1.1088z" fill="#630000"/><path d="M314.92428,173.69956c0,-0.2272 0.18419,-0.41139 0.41139,-0.41139c0.2272,0 0.41138,0.18419 0.41138,0.41139c0,0.2272 -0.18418,0.41139 -0.41138,0.41139c-0.2272,0 -0.41139,-0.18419 -0.41139,-0.41139z" fill="#000000"/><path d="M313.06878,173.69956c0,-1.25196 1.01491,-2.26688 2.26686,-2.26688c1.25196,0 2.26688,1.01492 2.26688,2.26688c0,1.25196 -1.01492,2.26688 -2.26688,2.26688c-1.25196,0 -2.26686,-1.01492 -2.26686,-2.26688z" fill="url(#color-3)"/></g><g stroke="#000000"><path d="M313.40715,184.89468c0,-1.06509 0.86342,-1.92851 1.92851,-1.92851c1.06509,0 1.92851,0.86342 1.92851,1.92851c0,1.06509 -0.86342,1.92851 -1.92851,1.92851c-1.06509,0 -1.92851,-0.86342 -1.92851,-1.92851z" fill="url(#color-4)"/><path d="M313.77745,184.89468c0,-0.86058 0.69763,-1.55821 1.55821,-1.55821c0.86058,0 1.55821,0.69763 1.55821,1.55821c0,0.86058 -0.69763,1.55822 -1.55821,1.55822c-0.86058,0 -1.55821,-0.69764 -1.55821,-1.55822z" fill="url(#color-5)"/><path d="M315.11479,184.89468c0,-0.22039 0.09889,-0.39906 0.22088,-0.39906c0.12199,0 0.22087,0.17867 0.22087,0.39906c0,0.22039 -0.09889,0.39906 -0.22087,0.39906c-0.12199,0 -0.22088,-0.17867 -0.22088,-0.39906z" fill="#630000"/><path d="M315.1876,184.89468c0,-0.08177 0.06629,-0.14806 0.14806,-0.14806c0.08177,0 0.14806,0.06629 0.14806,0.14806c0,0.08177 -0.06629,0.14806 -0.14806,0.14806c-0.08177,0 -0.14806,-0.06629 -0.14806,-0.14806z" fill="#000000"/><path d="M314.5198,184.89468c0,-0.45059 0.36527,-0.81586 0.81586,-0.81586c0.45059,0 0.81586,0.36527 0.81586,0.81586c0,0.45059 -0.36528,0.81586 -0.81586,0.81586c-0.45059,0 -0.81586,-0.36527 -0.81586,-0.81586z" fill="url(#color-6)"/></g><g stroke="#000000"><path d="M321.90136,174.52273c0,-1.39403 1.13007,-2.52411 2.5241,-2.52411c1.39403,0 2.52411,1.13008 2.52411,2.52411c0,1.39403 -1.13008,2.52411 -2.52411,2.52411c-1.39403,0 -2.5241,-1.13008 -2.5241,-2.52411z" fill="url(#color-7)"/><path d="M322.38602,174.52273c0,-1.12635 0.91309,-2.03945 2.03944,-2.03945c1.12636,0 2.03945,0.9131 2.03945,2.03945c0,1.12635 -0.9131,2.03945 -2.03945,2.03945c-1.12636,0 -2.03944,-0.9131 -2.03944,-2.03945z" fill="url(#color-8)"/><path d="M324.13637,174.52273c0,-0.28846 0.12943,-0.52231 0.28909,-0.52231c0.15966,0 0.28909,0.23384 0.28909,0.52231c0,0.28846 -0.12943,0.52231 -0.28909,0.52231c-0.15966,0 -0.28909,-0.23384 -0.28909,-0.52231z" fill="#630000"/><path d="M324.23167,174.52273c0,-0.10703 0.08676,-0.19379 0.19379,-0.19379c0.10703,0 0.19379,0.08676 0.19379,0.19379c0,0.10703 -0.08676,0.19379 -0.19379,0.19379c-0.10703,0 -0.19379,-0.08676 -0.19379,-0.19379z" fill="#000000"/><path d="M323.35764,174.52273c0,-0.58975 0.47809,-1.06782 1.06782,-1.06782c0.58975,0 1.06783,0.47809 1.06783,1.06782c0,0.58975 -0.4781,1.06782 -1.06783,1.06782c-0.58975,0 -1.06782,-0.47809 -1.06782,-1.06782z" fill="url(#color-9)"/></g><g stroke="#000000"><path d="M317.14664,180.64912c0,-1.6864 1.36709,-3.05352 3.0535,-3.05352c1.6864,0 3.05352,1.3671 3.05352,3.05352c0,1.6864 -1.3671,3.0535 -3.05352,3.0535c-1.6864,0 -3.0535,-1.3671 -3.0535,-3.0535z" fill="url(#color-10)"/><path d="M317.73294,180.64912c0,-1.36259 1.1046,-2.4672 2.46719,-2.4672c1.36259,0 2.4672,1.10461 2.4672,2.4672c0,1.36259 -1.1046,2.4672 -2.4672,2.4672c-1.36259,0 -2.46719,-1.1046 -2.46719,-2.4672z" fill="url(#color-11)"/><path d="M319.85042,180.64912c0,-0.34897 0.15658,-0.63186 0.34972,-0.63186c0.19315,0 0.34972,0.2829 0.34972,0.63186c0,0.34897 -0.15658,0.63185 -0.34972,0.63185c-0.19315,0 -0.34972,-0.28289 -0.34972,-0.63185z" fill="#630000"/><path d="M319.96572,180.64912c0,-0.12947 0.10496,-0.23444 0.23442,-0.23444c0.12948,0 0.23444,0.10497 0.23444,0.23444c0,0.12947 -0.10496,0.23442 -0.23444,0.23442c-0.12948,0 -0.23442,-0.10496 -0.23442,-0.23442z" fill="#000000"/><path d="M318.90835,180.64912c0,-0.71343 0.57835,-1.29178 1.29178,-1.29178c0.71343,0 1.2918,0.57835 1.2918,1.29178c0,0.71343 -0.57836,1.29178 -1.2918,1.29178c-0.71343,0 -1.29178,-0.57835 -1.29178,-1.29178z" fill="url(#color-12)"/></g><g fill="#730000"><path d="M325.36014,180.64453c0,-1.10457 0.78496,-2 1.75325,-2h12.3823c0.96829,0 1.75325,0.89543 1.75325,2v2.625c0,1.10457 -0.78496,2 -1.75325,2h-12.3823c-0.96829,0 -1.75325,-0.89543 -1.75325,-2z" stroke="none"/><path d="M340.48189,183.89453v-3.875h1.75325v3.875z" stroke="#000000"/></g><path d="M299.57,180c0,-11.28317 9.14682,-20.43 20.43,-20.43c11.28318,0 20.43,9.14683 20.43,20.43c0,11.28318 -9.14682,20.43 -20.43,20.43c-11.28318,0 -20.43,-9.14683 -20.43,-20.43z" fill="url(#color-13)" stroke="#000000"/></g></g></svg>