<svg version="1.1" xmlns="http://www.w3.org/2000/svg" xmlns:xlink="http://www.w3.org/1999/xlink" width="29.25589" height="29.25589" viewBox="0,0,29.25589,29.25589"><defs><linearGradient x1="320.00001" y1="186.57962" x2="320.00001" y2="172.82962" gradientUnits="userSpaceOnUse" id="color-1"><stop offset="0" stop-color="#265c1f"/><stop offset="1" stop-color="#0c500f"/></linearGradient><linearGradient x1="320.00001" y1="173.12502" x2="320.00001" y2="186.87502" gradientUnits="userSpaceOnUse" id="color-2"><stop offset="0" stop-color="#265c1f"/><stop offset="1" stop-color="#0c500f"/></linearGradient><radialGradient cx="316.66256" cy="178.81253" r="1.1875" gradientUnits="userSpaceOnUse" id="color-3"><stop offset="0" stop-color="#ffffff"/><stop offset="1" stop-color="#ffffff" stop-opacity="0"/></radialGradient><radialGradient cx="323.16256" cy="178.81253" r="1.1875" gradientUnits="userSpaceOnUse" id="color-4"><stop offset="0" stop-color="#ffffff"/><stop offset="1" stop-color="#ffffff" stop-opacity="0"/></radialGradient><radialGradient cx="320.00001" cy="180.00004" r="14.62794" gradientUnits="userSpaceOnUse" id="color-5"><stop offset="0" stop-color="#185717" stop-opacity="0.52549"/><stop offset="1" stop-color="#185717" stop-opacity="0"/></radialGradient></defs><g transform="translate(-305.37206,-165.37205)"><g data-paper-data="{&quot;isPaintingLayer&quot;:true}" fill-rule="nonzero" stroke="none" stroke-width="0" stroke-linecap="butt" stroke-linejoin="miter" stroke-miterlimit="10" stroke-dasharray="" stroke-dashoffset="0" style="mix-blend-mode: normal"><path d="M311.33173,182.79275v-5.23077h2.375v5.23077z" fill="#4d4d4d"/><path d="M326.06251,182.94659v-5.23077h2.375v5.23077z" fill="#4d4d4d"/><path d="M317.11123,173.53875c0.14155,-0.04641 0.8023,-0.7793 0.9343,-1.32962c0.33384,-1.39181 0.60228,-3.74802 0.62896,-3.79519c0.07518,-0.13287 0.91463,3.87301 1.0222,3.79736c0.30685,-0.21579 0.46364,-4.00569 0.57491,-3.69489c0.31783,0.88782 0.5938,2.52903 0.84727,3.55375c0.12858,0.51985 0.80693,1.36252 0.92644,1.38619c3.28944,0.65148 5.20472,2.93549 5.20472,6.24823c0,3.79696 -3.24593,6.875 -7.25,6.875c-4.00407,0 -7.25,-3.07804 -7.25,-6.875c0,-3.00984 1.52112,-5.23458 4.3612,-6.16584z" data-paper-data="{&quot;index&quot;:null}" fill="url(#color-1)"/><path d="M312.75001,180.00002c0,-3.79696 3.24593,-6.875 7.25,-6.875c4.00407,0 7.25,3.07804 7.25,6.875c0,3.31275 -1.91528,5.59676 -5.20472,6.24824c-0.11951,0.02367 -0.79786,0.86634 -0.92644,1.38619c-0.25346,1.02472 -0.52945,2.66593 -0.84727,3.55375c-0.11126,0.3108 -0.26806,-3.4791 -0.57491,-3.69489c-0.10757,-0.07565 -0.94702,3.93023 -1.0222,3.79736c-0.02669,-0.04716 -0.29513,-2.40337 -0.62897,-3.79519c-0.132,-0.55032 -0.79274,-1.2832 -0.93429,-1.32962c-2.84009,-0.93126 -4.36121,-3.15601 -4.36121,-6.16585z" fill="url(#color-2)"/><path d="M315.47506,178.81253c0,-0.65584 0.53166,-1.1875 1.1875,-1.1875c0.65584,0 1.1875,0.53166 1.1875,1.1875c0,0.65584 -0.53166,1.1875 -1.1875,1.1875c-0.65584,0 -1.1875,-0.53166 -1.1875,-1.1875z" fill="url(#color-3)"/><path d="M321.97506,178.81253c0,-0.65584 0.53166,-1.1875 1.1875,-1.1875c0.65584,0 1.1875,0.53166 1.1875,1.1875c0,0.65584 -0.53166,1.1875 -1.1875,1.1875c-0.65584,0 -1.1875,-0.53166 -1.1875,-1.1875z" fill="url(#color-4)"/><path d="M320.00001,165.37205c8.07879,0 14.62794,6.54915 14.62794,14.62795c0,8.0788 -6.54914,14.62794 -14.62794,14.62794c-8.07879,0 -14.62795,-6.54914 -14.62795,-14.62794c0,-8.07879 6.54915,-14.62795 14.62795,-14.62795z" fill="url(#color-5)"/></g></g></svg>