<svg version="1.1" xmlns="http://www.w3.org/2000/svg" xmlns:xlink="http://www.w3.org/1999/xlink" width="3.4054" height="2.89171" viewBox="0,0,3.4054,2.89171"><g transform="translate(-318.2973,-178.55415)"><g data-paper-data="{&quot;isPaintingLayer&quot;:true}" fill="#ff0000" fill-rule="nonzero" stroke="#000000" stroke-width="0" stroke-linecap="butt" stroke-linejoin="miter" stroke-miterlimit="10" stroke-dasharray="" stroke-dashoffset="0" style="mix-blend-mode: normal"><g><path d="M318.94595,180.65342c0,-0.23783 0,-0.94407 0,-1.3907c0,-0.2251 -0.64865,-0.38425 -0.64865,-0.38425c0,0 0.27959,0.32703 0.3577,0.63597c0.0789,0.31208 -0.04367,0.60706 -0.04367,0.80252c0,0.26536 -0.31403,0.66962 -0.31403,0.66962c0,0 0.64865,-0.17819 0.64865,-0.33316z"/><path d="M319.27911,179.20279c0.23783,0 0.94407,0 1.3907,0c0.2251,0 0.38424,-0.64865 0.38424,-0.64865c0,0 -0.32703,0.27959 -0.63597,0.3577c-0.31208,0.0789 -0.60707,-0.04367 -0.80252,-0.04367c-0.26537,0 -0.66962,-0.31403 -0.66962,-0.31403c0,0 0.17819,0.64864 0.33316,0.64864z"/><path d="M319.27911,179.20279c0.23783,0 0.94408,0 1.3907,0c0.2251,0 0.38424,-0.64864 0.38424,-0.64864c0,0 -0.32703,0.27958 -0.63597,0.35769c-0.31207,0.0789 -0.60707,-0.04367 -0.80252,-0.04367c-0.26536,0 -0.66962,-0.31402 -0.66962,-0.31402c0,0 0.17819,0.64864 0.33316,0.64864z"/><path d="M321.05405,179.31165c0,0.23783 0,0.94408 0,1.3907c0,0.2251 0.64864,0.38424 0.64864,0.38424c0,0 -0.27958,-0.32703 -0.35769,-0.63597c-0.0789,-0.31207 0.04367,-0.60706 0.04367,-0.80251c0,-0.26537 0.31402,-0.66962 0.31402,-0.66962c0,0 -0.64864,0.17819 -0.64864,0.33316z"/><path d="M319.27911,180.79721c0.23783,0 0.94408,0 1.3907,0c0.2251,0 0.38424,0.64864 0.38424,0.64864c0,0 -0.32703,-0.27958 -0.63597,-0.35769c-0.31207,-0.0789 -0.60707,0.04367 -0.80252,0.04367c-0.26536,0 -0.66962,0.31402 -0.66962,0.31402c0,0 0.17819,-0.64864 0.33316,-0.64864z" data-paper-data="{&quot;index&quot;:null}"/></g></g></g></svg>