<svg version="1.1" xmlns="http://www.w3.org/2000/svg" xmlns:xlink="http://www.w3.org/1999/xlink" width="174.81564" height="174.81564" viewBox="0,0,174.81564,174.81564"><defs><radialGradient cx="320" cy="180" r="0" gradientUnits="userSpaceOnUse" id="color-1"><stop offset="0" stop-color="#373737"/><stop offset="1" stop-color="#5f0c0c"/></radialGradient><radialGradient cx="320" cy="180" r="0" gradientUnits="userSpaceOnUse" id="color-2"><stop offset="0" stop-color="#da0000"/><stop offset="1" stop-color="#da0000" stop-opacity="0"/></radialGradient><linearGradient x1="320" y1="180" x2="320" y2="180" gradientUnits="userSpaceOnUse" id="color-3"><stop offset="0" stop-color="#8a0000"/><stop offset="1" stop-color="#d19045"/></linearGradient><radialGradient cx="320" cy="180" r="0" gradientUnits="userSpaceOnUse" id="color-4"><stop offset="0" stop-color="#ff6e6e"/><stop offset="1" stop-color="#ffffff"/></radialGradient><radialGradient cx="320" cy="180" r="0" gradientUnits="userSpaceOnUse" id="color-5"><stop offset="0" stop-color="#ff6e6e"/><stop offset="1" stop-color="#ffffff"/></radialGradient><radialGradient cx="320" cy="180" r="0" gradientUnits="userSpaceOnUse" id="color-6"><stop offset="0" stop-color="#ff6e6e"/><stop offset="1" stop-color="#ffffff"/></radialGradient><radialGradient cx="320" cy="180" r="0" gradientUnits="userSpaceOnUse" id="color-7"><stop offset="0" stop-color="#ff6e6e"/><stop offset="1" stop-color="#ffffff"/></radialGradient><radialGradient cx="320" cy="180" r="0" gradientUnits="userSpaceOnUse" id="color-8"><stop offset="0" stop-color="#ff6e6e"/><stop offset="1" stop-color="#ffffff"/></radialGradient><radialGradient cx="320" cy="180" r="0" gradientUnits="userSpaceOnUse" id="color-9"><stop offset="0" stop-color="#ff6e6e"/><stop offset="1" stop-color="#ffffff"/></radialGradient><radialGradient cx="320" cy="180" r="0" gradientUnits="userSpaceOnUse" id="color-10"><stop offset="0" stop-color="#ff6e6e"/><stop offset="1" stop-color="#ffffff"/></radialGradient><radialGradient cx="320" cy="180" r="0" gradientUnits="userSpaceOnUse" id="color-11"><stop offset="0" stop-color="#d10000" stop-opacity="0.67059"/><stop offset="1" stop-color="#d10000" stop-opacity="0"/></radialGradient><radialGradient cx="271.93567" cy="200.2418" r="11.81482" gradientUnits="userSpaceOnUse" id="color-12"><stop offset="0" stop-color="#ff6e6e"/><stop offset="1" stop-color="#ffffff"/></radialGradient><radialGradient cx="323.29176" cy="187.73312" r="14.53331" gradientUnits="userSpaceOnUse" id="color-13"><stop offset="0" stop-color="#ff6e6e"/><stop offset="1" stop-color="#ffffff"/></radialGradient><radialGradient cx="286.41942" cy="167.98254" r="11.81483" gradientUnits="userSpaceOnUse" id="color-14"><stop offset="0" stop-color="#ff6e6e"/><stop offset="1" stop-color="#ffffff"/></radialGradient><radialGradient cx="323.95012" cy="233.2168" r="11.81483" gradientUnits="userSpaceOnUse" id="color-15"><stop offset="0" stop-color="#ff6e6e"/><stop offset="1" stop-color="#ffffff"/></radialGradient><radialGradient cx="353.92242" cy="215.44166" r="9.09455" gradientUnits="userSpaceOnUse" id="color-16"><stop offset="0" stop-color="#ff6e6e"/><stop offset="1" stop-color="#ffffff"/></radialGradient><radialGradient cx="363.45125" cy="160.08232" r="14.53331" gradientUnits="userSpaceOnUse" id="color-17"><stop offset="0" stop-color="#ff6e6e"/><stop offset="1" stop-color="#ffffff"/></radialGradient><radialGradient cx="323.29176" cy="149.87786" r="9.09588" gradientUnits="userSpaceOnUse" id="color-18"><stop offset="0" stop-color="#ff6e6e"/><stop offset="1" stop-color="#ffffff"/></radialGradient><radialGradient cx="320.00001" cy="180" r="87.40782" gradientUnits="userSpaceOnUse" id="color-19"><stop offset="0" stop-color="#d10000" stop-opacity="0.67059"/><stop offset="1" stop-color="#d10000" stop-opacity="0"/></radialGradient></defs><g transform="translate(-232.59218,-92.59218)"><g data-paper-data="{&quot;isPaintingLayer&quot;:true}" fill-rule="nonzero" stroke-linejoin="miter" stroke-miterlimit="10" stroke-dasharray="" stroke-dashoffset="0" style="mix-blend-mode: normal"><path d="" fill="none" stroke="#200303" stroke-width="8.5" stroke-linecap="round"/><path d="" fill="none" stroke="#200303" stroke-width="8.5" stroke-linecap="round"/><path d="" fill="url(#color-1)" stroke="none" stroke-width="0" stroke-linecap="butt"/><path d="" fill="none" stroke="#200303" stroke-width="8.5" stroke-linecap="round"/><path d="" fill="url(#color-2)" stroke="none" stroke-width="0" stroke-linecap="butt"/><path d="" fill="#1d0034" stroke="#1d0034" stroke-width="8.5" stroke-linecap="round"/><path d="" fill="none" stroke="#1d0034" stroke-width="8.5" stroke-linecap="round"/><path d="" fill="url(#color-3)" stroke="none" stroke-width="0" stroke-linecap="butt"/><path d="" fill="#a100d9" stroke="#000000" stroke-width="3.5" stroke-linecap="butt"/><path d="" fill="url(#color-4)" stroke="#000000" stroke-width="3.5" stroke-linecap="butt"/><path d="" fill="none" stroke="#1d0034" stroke-width="8.5" stroke-linecap="round"/><path d="" fill="#a100d9" stroke="#000000" stroke-width="3.5" stroke-linecap="butt"/><path d="" fill="url(#color-5)" stroke="#000000" stroke-width="3.5" stroke-linecap="butt"/><path d="" fill="#a100d9" stroke="#000000" stroke-width="3.5" stroke-linecap="butt"/><path d="" fill="url(#color-6)" stroke="#000000" stroke-width="3.5" stroke-linecap="butt"/><path d="" fill="#a100d9" stroke="#000000" stroke-width="3.5" stroke-linecap="butt"/><path d="" fill="url(#color-7)" stroke="#000000" stroke-width="3.5" stroke-linecap="butt"/><path d="" fill="#a100d9" stroke="#000000" stroke-width="3.5" stroke-linecap="butt"/><path d="" fill="url(#color-8)" stroke="#000000" stroke-width="3.5" stroke-linecap="butt"/><path d="" fill="#a100d9" stroke="#000000" stroke-width="3.5" stroke-linecap="butt"/><path d="" fill="url(#color-9)" stroke="#000000" stroke-width="3.5" stroke-linecap="butt"/><path d="" fill="#a100d9" stroke="#000000" stroke-width="3.5" stroke-linecap="butt"/><path d="" fill="url(#color-10)" stroke="#000000" stroke-width="3.5" stroke-linecap="butt"/><path d="" fill="url(#color-11)" stroke="none" stroke-width="0" stroke-linecap="butt"/><path d="M329.8787,233.2168v-20.83103" fill="#1d0034" stroke="#1d0034" stroke-width="8.5" stroke-linecap="round"/><path d="M356.24298,233.2168v-20.83103" fill="none" stroke="#330000" stroke-width="8.5" stroke-linecap="round"/><path d="M266.78321,180c0,-29.39083 23.82597,-53.2168 53.21679,-53.2168c29.39083,0 53.21679,23.82598 53.21679,53.2168c0,29.39083 -23.82597,53.21679 -53.21679,53.21679c-29.39083,0 -53.21679,-23.82597 -53.21679,-53.21679z" fill="#8a0000" stroke="none" stroke-width="0" stroke-linecap="butt"/><path d="M258.98105,206.30311c-3.34756,-7.15464 -0.26132,-15.66834 6.89331,-19.01592c7.15463,-3.34756 15.66834,-0.26132 19.01592,6.89331c3.34756,7.15464 0.26131,15.66834 -6.89332,19.01592c-7.15463,3.34756 -15.66834,0.26132 -19.01592,-6.89331z" fill="#860000" stroke="#000000" stroke-width="2.1" stroke-linecap="butt"/><path d="M282.63705,195.23476c1.86951,3.99563 -1.40612,9.47646 -7.31635,12.24178c-5.91021,2.76531 -12.21691,1.76794 -14.08643,-2.2277c-1.86951,-3.99563 1.40612,-9.47646 7.31634,-12.24178c5.91021,-2.76531 12.21692,-1.76794 14.08643,2.2277z" fill="url(#color-12)" stroke="#000000" stroke-width="2.1" stroke-linecap="butt"/><path d="M301.56151,233.21679v-20.83103" fill="none" stroke="#330000" stroke-width="8.5" stroke-linecap="round"/><path d="M306.59324,182.19363c3.05937,-9.22233 13.01567,-14.2184 22.238,-11.15903c9.22233,3.05937 14.2184,13.01566 11.15904,22.238c-3.05937,9.22233 -13.01567,14.2184 -22.238,11.15904c-9.22233,-3.05937 -14.2184,-13.01567 -11.15904,-22.23801z" fill="#8a0000" stroke="#000000" stroke-width="2.1" stroke-linecap="butt"/><path d="M337.08588,192.3091c-1.70856,5.15038 -9.26945,7.27685 -16.88773,4.7496c-7.61828,-2.52725 -12.40905,-8.7512 -10.70048,-13.90158c1.70856,-5.15038 9.26945,-7.27686 16.88774,-4.74961c7.61828,2.52725 12.40904,8.75119 10.70048,13.90158z" fill="url(#color-13)" stroke="#000000" stroke-width="2.1" stroke-linecap="butt"/><path d="M272.21942,169.69168c-0.94393,-7.84244 4.64842,-14.9652 12.49086,-15.90913c7.84244,-0.94393 14.96521,4.64842 15.90914,12.49087c0.94393,7.84244 -4.64842,14.96521 -12.49087,15.90914c-7.84244,0.94393 -14.9652,-4.64843 -15.90913,-12.49087z" fill="#860000" stroke="#000000" stroke-width="2.1" stroke-linecap="butt"/><path d="M298.14958,166.57069c0.52715,4.37975 -4.29728,8.56236 -10.77567,9.34211c-6.47839,0.77975 -12.1575,-2.13864 -12.68465,-6.51839c-0.52715,-4.37975 4.29728,-8.56235 10.77567,-9.34211c6.47839,-0.77975 12.15751,2.13864 12.68466,6.51839z" fill="url(#color-14)" stroke="#000000" stroke-width="2.1" stroke-linecap="butt"/><path d="M310.12195,229.56394c2.01742,-7.63708 9.84394,-12.19271 17.48101,-10.17529c7.63707,2.01742 12.19272,9.84394 10.1753,17.48101c-2.01742,7.63708 -9.84394,12.19271 -17.48102,10.1753c-7.63707,-2.01742 -12.19271,-9.84394 -10.17529,-17.48102z" fill="#8a0000" stroke="#000000" stroke-width="2.1" stroke-linecap="butt"/><path d="M335.37312,236.23431c-1.12666,4.26506 -7.15426,6.3716 -13.46301,4.70508c-6.30874,-1.66652 -10.50964,-6.47502 -9.38298,-10.7401c1.12666,-4.26506 7.15425,-6.37159 13.46299,-4.70507c6.30874,1.66652 10.50966,6.47503 9.38299,10.7401z" fill="url(#color-15)" stroke="#000000" stroke-width="2.1" stroke-linecap="butt"/><path d="M343.27809,212.62984c1.55293,-5.87869 7.57745,-9.38543 13.45614,-7.8325c5.87869,1.55292 9.38543,7.57745 7.8325,13.45614c-1.55293,5.87869 -7.57745,9.38543 -13.45614,7.8325c-5.87869,-1.55292 -9.38543,-7.57745 -7.8325,-13.45614z" fill="#8a0000" stroke="#000000" stroke-width="2.1" stroke-linecap="butt"/><path d="M362.71536,217.7644c-0.86726,3.28307 -5.50704,4.90458 -10.36324,3.62177c-4.8562,-1.28282 -8.08987,-4.98419 -7.22262,-8.26726c0.86726,-3.28307 5.50705,-4.90459 10.36325,-3.62176c4.8562,1.28282 8.08988,4.9842 7.22262,8.26727z" fill="url(#color-16)" stroke="#000000" stroke-width="2.1" stroke-linecap="butt"/><path d="M346.75273,154.54284c3.05937,-9.22233 13.01567,-14.2184 22.238,-11.15904c9.22233,3.05937 14.21842,13.01567 11.15904,22.23801c-3.05937,9.22233 -13.01567,14.2184 -22.238,11.15903c-9.22233,-3.05937 -14.21842,-13.01566 -11.15904,-22.23799z" fill="#8a0000" stroke="#000000" stroke-width="2.1" stroke-linecap="butt"/><path d="M377.24535,164.6583c-1.70856,5.15038 -9.26945,7.27686 -16.88774,4.74962c-7.61828,-2.52725 -12.40904,-8.75119 -10.70047,-13.90158c1.70856,-5.15038 9.26945,-7.27686 16.88773,-4.74962c7.61828,2.52725 12.40904,8.75119 10.70047,13.90158z" fill="url(#color-17)" stroke="#000000" stroke-width="2.1" stroke-linecap="butt"/><path d="M312.3596,151.19367c-0.7267,-6.03767 3.57869,-11.52127 9.61634,-12.24797c6.03767,-0.7267 11.52128,3.57869 12.24797,9.61634c0.7267,6.03767 -3.57869,11.52127 -9.61634,12.24797c-6.03767,0.7267 -11.52127,-3.57869 -12.24797,-9.61634z" fill="#8a0000" stroke="#000000" stroke-width="2.1" stroke-linecap="butt"/><path d="M332.32247,148.79091c0.40584,3.37185 -3.30835,6.59191 -8.29587,7.19222c-4.98752,0.6003 -9.35971,-1.64648 -9.76553,-5.01832c-0.40584,-3.37185 3.30835,-6.5919 8.29587,-7.1922c4.98752,-0.6003 9.3597,1.64647 9.76555,5.01832z" fill="url(#color-18)" stroke="#000000" stroke-width="2.1" stroke-linecap="butt"/><path d="M232.59218,180c0,-48.274 39.13382,-87.40782 87.40782,-87.40782c48.274,0 87.40782,39.13382 87.40782,87.40782c0,48.274 -39.13382,87.40782 -87.40782,87.40782c-48.274,0 -87.40782,-39.13382 -87.40782,-87.40782z" fill="url(#color-19)" stroke="none" stroke-width="0" stroke-linecap="butt"/></g></g></svg>