<svg version="1.1" xmlns="http://www.w3.org/2000/svg" xmlns:xlink="http://www.w3.org/1999/xlink" width="46.85716" height="49.01335" viewBox="0,0,46.85716,49.01335"><defs><radialGradient cx="320.10465" cy="180.04264" r="17.39535" gradientUnits="userSpaceOnUse" id="color-1"><stop offset="0" stop-color="#4200ff"/><stop offset="1" stop-color="#4200ff" stop-opacity="0"/></radialGradient><radialGradient cx="320.10465" cy="180.04264" r="17.39535" gradientUnits="userSpaceOnUse" id="color-2"><stop offset="0" stop-color="#ff0000"/><stop offset="1" stop-color="#ff0000" stop-opacity="0"/></radialGradient><radialGradient cx="320.10465" cy="180.04264" r="12.12403" gradientUnits="userSpaceOnUse" id="color-3"><stop offset="0" stop-color="#ff0000"/><stop offset="1" stop-color="#ff0000" stop-opacity="0"/></radialGradient><radialGradient cx="316.0382" cy="178.38594" r="17.39535" gradientUnits="userSpaceOnUse" id="color-4"><stop offset="0" stop-color="#4200ff"/><stop offset="1" stop-color="#4200ff" stop-opacity="0"/></radialGradient><radialGradient cx="316.0382" cy="178.38594" r="17.39535" gradientUnits="userSpaceOnUse" id="color-5"><stop offset="0" stop-color="#ff0000"/><stop offset="1" stop-color="#ff0000" stop-opacity="0"/></radialGradient><radialGradient cx="316.0382" cy="178.38594" r="12.12403" gradientUnits="userSpaceOnUse" id="color-6"><stop offset="0" stop-color="#ff0000"/><stop offset="1" stop-color="#ff0000" stop-opacity="0"/></radialGradient></defs><g transform="translate(-294.64285,-152.42464)"><g data-paper-data="{&quot;isPaintingLayer&quot;:true}" fill-rule="nonzero" stroke-linecap="butt" stroke-linejoin="miter" stroke-miterlimit="10" stroke-dasharray="" stroke-dashoffset="0" style="mix-blend-mode: normal"><g stroke-width="8"><path d="M302.70931,180.04264c0,-9.60719 7.78816,-17.39535 17.39535,-17.39535c9.60719,0 17.39535,7.78816 17.39535,17.39535c0,9.60719 -7.78816,17.39535 -17.39535,17.39535c-9.60719,0 -17.39535,-7.78816 -17.39535,-17.39535z" fill="url(#color-1)" stroke="url(#color-2)"/><path d="M307.98062,180.04264c0,-6.69592 5.42811,-12.12403 12.12403,-12.12403c6.69592,0 12.12403,5.42811 12.12403,12.12403c0,6.69592 -5.42811,12.12403 -12.12403,12.12403c-6.69592,0 -12.12403,-5.42811 -12.12403,-12.12403z" fill="none" stroke="url(#color-3)"/></g><g stroke-width="8"><path d="M298.64285,178.38594c0,-9.60719 7.78816,-17.39535 17.39535,-17.39535c9.60719,0 17.39535,7.78816 17.39535,17.39535c0,9.60719 -7.78816,17.39535 -17.39535,17.39535c-9.60719,0 -17.39535,-7.78816 -17.39535,-17.39535z" fill="url(#color-4)" stroke="url(#color-5)"/><path d="M303.91417,178.38594c0,-6.69591 5.42812,-12.12403 12.12403,-12.12403c6.69591,0 12.12403,5.42812 12.12403,12.12403c0,6.69591 -5.42812,12.12403 -12.12403,12.12403c-6.69591,0 -12.12403,-5.42812 -12.12403,-12.12403z" fill="none" stroke="url(#color-6)"/></g><text transform="translate(298.14101,162.11643) scale(0.20828,0.20828)" font-size="40" xml:space="preserve" fill="#00ff08" fill-rule="nonzero" stroke="#00ff09" stroke-width="2" stroke-linecap="butt" stroke-linejoin="miter" stroke-miterlimit="10" stroke-dasharray="" stroke-dashoffset="0" font-family="&quot;MV Boli&quot;, Technological" font-weight="normal" text-anchor="start" style="mix-blend-mode: normal"><tspan x="0" dy="0">Warp Gate</tspan></text></g></g></svg>