<svg version="1.1" xmlns="http://www.w3.org/2000/svg" xmlns:xlink="http://www.w3.org/1999/xlink" width="246.21879" height="82.50903" viewBox="0,0,246.21879,82.50903"><g transform="translate(-16.88365,0)"><g data-paper-data="{&quot;isPaintingLayer&quot;:true}" fill-rule="nonzero" stroke-linecap="butt" stroke-linejoin="miter" stroke-miterlimit="10" stroke-dasharray="" stroke-dashoffset="0" style="mix-blend-mode: normal"><path d="M81.27379,82.50903c-1.23529,0 -2.23667,-2.69724 -2.23667,-6.02445v-37.53701c0,-3.32721 1.00141,-6.02445 2.23667,-6.02445h111.1767c1.23529,0 2.23667,2.69724 2.23667,6.02445v37.53701c0,3.32721 -1.00141,6.02445 -2.23667,6.02445z" fill-opacity="0.90196" fill="#616161" stroke="none" stroke-width="0"/><path d="M21.64553,32.92312c-2.62992,0 -4.76188,-1.79086 -4.76188,-4v-24.92312c0,-2.20914 2.13197,-4 4.76188,-4h236.69503c2.62991,0 4.76188,1.79086 4.76188,4v24.92312c0,2.20914 -2.13197,4 -4.76188,4z" fill-opacity="0.50196" fill="#606060" stroke="none" stroke-width="0"/><path d="M18.0857,82.50903c-0.66387,0 -1.20205,-2.69724 -1.20205,-6.02445v-37.53701c0,-3.32721 0.53818,-6.02445 1.20205,-6.02445h59.74937c0.66387,0 1.20205,2.69724 1.20205,6.02445v37.53701c0,3.32721 -0.53818,6.02445 -1.20205,6.02445z" fill-opacity="0.50196" fill="#606060" stroke="none" stroke-width="0"/><text transform="translate(21.23065,40.50689) scale(0.1561,0.1561)" font-size="40" xml:space="preserve" fill="#77bde6" fill-rule="nonzero" stroke="none" stroke-width="1" stroke-linecap="butt" stroke-linejoin="miter" stroke-miterlimit="10" stroke-dasharray="" stroke-dashoffset="0" font-family="&quot;MV Boli&quot;, Technological" font-weight="normal" text-anchor="start" style="mix-blend-mode: normal"><tspan x="0" dy="0">Skill Rating is a</tspan><tspan x="0" dy="46.150000000000006px">way to see how</tspan><tspan x="0" dy="46.150000000000006px">"skilled" you are</tspan><tspan x="0" dy="46.150000000000006px">at the game, and</tspan><tspan x="0" dy="46.150000000000006px">it ignores what</tspan><tspan x="0" dy="46.150000000000006px">upgrades you have</tspan></text><text transform="translate(75.92131,76.82938) rotate(-180) scale(0.10592,-0.10592)" font-size="40" xml:space="preserve" fill="#77bde6" fill-rule="nonzero" stroke="none" stroke-width="1" stroke-linecap="butt" stroke-linejoin="miter" stroke-miterlimit="10" stroke-dasharray="" stroke-dashoffset="0" font-family="Sans Serif" font-weight="normal" text-anchor="start" style="mix-blend-mode: normal"><tspan x="0" dy="0">.</tspan></text><text transform="translate(25.56622,20.46524) scale(0.40796,0.40796)" font-size="40" xml:space="preserve" fill="#77bde6" fill-rule="nonzero" stroke="none" stroke-width="1" stroke-linecap="butt" stroke-linejoin="miter" stroke-miterlimit="10" stroke-dasharray="" stroke-dashoffset="0" font-family="&quot;MV Boli&quot;, Technological" font-weight="normal" text-anchor="start" style="mix-blend-mode: normal"><tspan x="0" dy="0">Overall Skill Rating: </tspan></text><text transform="translate(91.4442,46.59854) scale(0.23533,0.23533)" font-size="40" xml:space="preserve" fill-opacity="0.50196" fill="#ff9900" fill-rule="nonzero" stroke="#000000" stroke-width="0" stroke-linecap="butt" stroke-linejoin="miter" stroke-miterlimit="10" stroke-dasharray="" stroke-dashoffset="0" font-family="&quot;MV Boli&quot;, Technological" font-weight="normal" text-anchor="start" style="mix-blend-mode: normal"><tspan x="0" dy="0">BELOW AVERAGE</tspan></text><text transform="translate(131.42961,55.38346) scale(0.17222,0.17222)" font-size="40" xml:space="preserve" fill="#77bde6" fill-rule="nonzero" stroke="none" stroke-width="1" stroke-linecap="butt" stroke-linejoin="miter" stroke-miterlimit="10" stroke-dasharray="" stroke-dashoffset="0" font-family="&quot;MV Boli&quot;, Technological" font-weight="normal" text-anchor="middle" style="mix-blend-mode: normal"><tspan x="0" dy="0">Compared to others</tspan><tspan x="0" dy="46.150000000000006px">who have played</tspan></text><text transform="translate(117.0741,75.09533) scale(0.23533,0.23533)" font-size="40" xml:space="preserve" fill-opacity="0.98431" fill="#76e389" fill-rule="nonzero" stroke="none" stroke-width="1" stroke-linecap="butt" stroke-linejoin="miter" stroke-miterlimit="10" stroke-dasharray="" stroke-dashoffset="0" font-family="&quot;MV Boli&quot;, Technological" font-weight="normal" text-anchor="middle" style="mix-blend-mode: normal"><tspan x="0" dy="0">Global average:</tspan></text><text transform="translate(194.53061,70.96882) scale(0.5,0.5)" font-size="40" xml:space="preserve" fill-opacity="0.50196" fill="#ff9900" fill-rule="nonzero" stroke="none" stroke-width="1" stroke-linecap="butt" stroke-linejoin="miter" stroke-miterlimit="10" stroke-dasharray="" stroke-dashoffset="0" font-family="&quot;MV Boli&quot;, Technological" font-weight="normal" text-anchor="start" style="mix-blend-mode: normal"><tspan x="0" dy="0"> </tspan></text></g></g></svg>