<svg version="1.1" xmlns="http://www.w3.org/2000/svg" xmlns:xlink="http://www.w3.org/1999/xlink" width="299.33334" height="299.33334" viewBox="0,0,299.33334,299.33334"><defs><linearGradient x1="312.23249" y1="264.31158" x2="310.54876" y2="292.46779" gradientUnits="userSpaceOnUse" id="color-1"><stop offset="0" stop-color="#000000"/><stop offset="1" stop-color="#82c9ff"/></linearGradient><linearGradient x1="310.94767" y1="289.43696" x2="309.28042" y2="317.31753" gradientUnits="userSpaceOnUse" id="color-2"><stop offset="0" stop-color="#000000"/><stop offset="1" stop-color="#82c9ff"/></linearGradient><linearGradient x1="363.51291" y1="183.91371" x2="368.18089" y2="223.70692" gradientUnits="userSpaceOnUse" id="color-3"><stop offset="0" stop-color="#000000"/><stop offset="1" stop-color="#82c9ff"/></linearGradient><linearGradient x1="367.9828" y1="219.36916" x2="372.60507" y2="258.77281" gradientUnits="userSpaceOnUse" id="color-4"><stop offset="0" stop-color="#000000"/><stop offset="1" stop-color="#82c9ff"/></linearGradient><linearGradient x1="325.94325" y1="128.76286" x2="358.15117" y2="121.41404" gradientUnits="userSpaceOnUse" id="color-5"><stop offset="0" stop-color="#000000"/><stop offset="1" stop-color="#82c9ff"/></linearGradient><linearGradient x1="354.61275" y1="121.96038" x2="386.50537" y2="114.6835" gradientUnits="userSpaceOnUse" id="color-6"><stop offset="0" stop-color="#000000"/><stop offset="1" stop-color="#82c9ff"/></linearGradient><radialGradient cx="320.71814" cy="143.03822" r="55.04665" gradientUnits="userSpaceOnUse" id="color-7"><stop offset="0" stop-color="#81e9ff"/><stop offset="1" stop-color="#82bdff"/></radialGradient><radialGradient cx="321.56622" cy="236.38213" r="54.50775" gradientUnits="userSpaceOnUse" id="color-8"><stop offset="0" stop-color="#81e9ff"/><stop offset="1" stop-color="#82bdff"/></radialGradient><radialGradient cx="300.99307" cy="164.47958" r="12.50072" gradientUnits="userSpaceOnUse" id="color-9"><stop offset="0" stop-color="#000000"/><stop offset="1" stop-color="#82a8ff"/></radialGradient><radialGradient cx="300.99307" cy="164.47958" r="8.69932" gradientUnits="userSpaceOnUse" id="color-10"><stop offset="0" stop-color="#000000"/><stop offset="1" stop-color="#81e3ff"/></radialGradient><linearGradient x1="334.28833" y1="237.2447" x2="338.14442" y2="264.3385" gradientUnits="userSpaceOnUse" id="color-11"><stop offset="0" stop-color="#000000"/><stop offset="1" stop-color="#82c9ff"/></linearGradient><linearGradient x1="337.93627" y1="261.37984" x2="341.7546" y2="288.20841" gradientUnits="userSpaceOnUse" id="color-12"><stop offset="0" stop-color="#000000"/><stop offset="1" stop-color="#82c9ff"/></linearGradient><radialGradient cx="339.00693" cy="164.47958" r="12.50072" gradientUnits="userSpaceOnUse" id="color-13"><stop offset="0" stop-color="#000000"/><stop offset="1" stop-color="#82a8ff"/></radialGradient><radialGradient cx="339.00693" cy="164.47958" r="8.69932" gradientUnits="userSpaceOnUse" id="color-14"><stop offset="0" stop-color="#000000"/><stop offset="1" stop-color="#81e3ff"/></radialGradient><linearGradient x1="284.90161" y1="206.65733" x2="282.51409" y2="237.42038" gradientUnits="userSpaceOnUse" id="color-15"><stop offset="0" stop-color="#000000"/><stop offset="1" stop-color="#82c9ff"/></linearGradient><linearGradient x1="283.00916" y1="234.11317" x2="280.64501" y2="264.57506" gradientUnits="userSpaceOnUse" id="color-16"><stop offset="0" stop-color="#000000"/><stop offset="1" stop-color="#82c9ff"/></linearGradient><radialGradient cx="300.99307" cy="164.47958" r="28.97784" gradientUnits="userSpaceOnUse" id="color-17"><stop offset="0" stop-color="#ffffff" stop-opacity="0.51765"/><stop offset="1" stop-color="#ffffff" stop-opacity="0"/></radialGradient><radialGradient cx="339.00693" cy="164.47958" r="28.97784" gradientUnits="userSpaceOnUse" id="color-18"><stop offset="0" stop-color="#000000" stop-opacity="0.51765"/><stop offset="1" stop-color="#000000" stop-opacity="0"/></radialGradient><radialGradient cx="320" cy="180" r="149.66667" gradientUnits="userSpaceOnUse" id="color-19"><stop offset="0" stop-color="#000000" stop-opacity="0.51765"/><stop offset="1" stop-color="#000000" stop-opacity="0"/></radialGradient></defs><g transform="translate(-170.33333,-30.33333)"><g data-paper-data="{&quot;isPaintingLayer&quot;:true}" fill-rule="nonzero" stroke="none" stroke-width="0" stroke-linecap="butt" stroke-linejoin="miter" stroke-miterlimit="10" stroke-dasharray="" stroke-dashoffset="0" style="mix-blend-mode: normal"><g><path d="M323.94759,291.39167c0,0 -0.82427,0.42005 -2.11829,0.34267c-3.27124,-0.19562 -17.63259,-1.05442 -23.1495,-1.38432c-1.34894,-0.08067 -1.08384,1.3432 -1.08384,1.3432c0,0 -0.59873,-2.3227 0.197,-3.7125c3.16778,-5.53281 11.23559,-19.62396 13.01295,-22.72828c0.67686,-1.1822 1.24042,-0.91002 1.24042,-0.91002c0,0 0.5548,-0.29088 1.05566,0.89202c1.31264,3.10012 7.28077,17.19521 9.96751,23.54057c0.80688,1.90562 0.8781,2.61666 0.8781,2.61666z" fill="url(#color-1)"/><path d="M297.88597,290.7679c0,0 -0.01101,-0.77563 1.7597,-0.77978c6.11744,-0.01437 20.04679,-0.02823 22.74943,0.13339c0.86638,0.05181 1.56672,1.03237 1.56672,1.03237c0,0 0.31137,1.14215 -0.29694,2.20463c-2.75977,4.82018 -10.58598,18.48935 -12.64753,22.09004c-0.96456,1.68469 -1.90363,1.85901 -1.90363,1.85901c0,0 -0.83053,-0.09349 -1.53107,-1.74799c-1.49758,-3.53689 -7.21486,-17.03954 -9.68076,-22.86333c-0.70411,-1.6629 -0.01591,-1.92833 -0.01591,-1.92833z" fill="url(#color-2)"/></g><g><path d="M386.64925,218.86028c0,0 -1.04788,0.79297 -2.87672,1.00751c-4.62325,0.54234 -24.92018,2.92329 -32.71723,3.83792c-1.90646,0.22364 -1.18062,2.14864 -1.18062,2.14864c0,0 -1.41656,-3.09871 -0.65047,-5.24064c3.04984,-8.52709 10.81726,-30.24418 12.52845,-35.02851c0.65166,-1.82199 1.50761,-1.58195 1.50761,-1.58195c0,0 0.70327,-0.54514 1.6987,0.9841c2.60879,4.00778 14.47002,22.22966 19.80973,30.43283c1.60361,2.46355 1.88055,3.4401 1.88055,3.4401z" fill="url(#color-3)"/><path d="M350.04942,224.48807c0,0 -0.20885,-1.08187 2.26626,-1.52932c8.55097,-1.54585 28.02614,-5.03938 31.84578,-5.48745c1.22446,-0.14363 2.44837,1.0529 2.44837,1.0529c0,0 0.72029,1.51951 0.13462,3.15699c-2.65701,7.42879 -10.19183,28.49553 -12.17663,34.04487c-0.92864,2.59643 -2.19836,3.07439 -2.19836,3.07439c0,0 -1.18472,0.07641 -2.577,-2.06249c-2.97635,-4.57242 -14.33903,-22.02841 -19.23983,-29.5573c-1.39936,-2.14977 -0.50319,-2.69259 -0.50319,-2.69259z" fill="url(#color-4)"/></g><g><path d="M352.54338,106.70332c0,0 0.7428,0.78883 1.08055,2.26906c0.8538,3.74197 4.60214,20.16994 6.04206,26.48074c0.35208,1.54305 1.86588,0.77765 1.86588,0.77765c0,0 -2.41483,1.43552 -4.23852,0.99709c-7.26016,-1.7454 -25.75058,-6.19064 -29.82407,-7.16994c-1.55129,-0.37294 -1.43026,-1.09586 -1.43026,-1.09586c0,0 -0.50913,-0.52826 0.65638,-1.47964c3.05453,-2.49333 16.94232,-13.82961 23.19437,-18.93299c1.8776,-1.53264 2.65362,-1.8461 2.65362,-1.8461z" fill="url(#color-5)"/><path d="M360.39638,136.20845c0,0 -0.8684,0.26696 -1.45428,-1.72244c-2.0241,-6.87296 -6.61175,-22.5288 -7.31715,-25.62035c-0.22613,-0.99105 0.64641,-2.10028 0.64641,-2.10028c0,0 1.18189,-0.72496 2.57607,-0.38978c6.32504,1.52059 24.26175,5.83272 28.98657,6.9686c2.21065,0.53146 2.71486,1.53002 2.71486,1.53002c0,0 0.1675,0.96443 -1.46266,2.29509c-3.48487,2.84462 -16.78894,13.70441 -22.52708,18.38831c-1.63845,1.33743 -2.16275,0.65083 -2.16275,0.65083z" fill="url(#color-6)"/></g><g><path d="M372.67138,188.6642c0,0 -3.11362,1.74793 -8.17334,1.74793c-12.79082,0 -68.94502,0 -90.51662,0c-5.27447,0 -3.90987,5.24379 -3.90987,5.24379c0,0 -2.8739,-8.51696 -0.09746,-13.87009c11.05309,-21.31098 39.20348,-75.58654 45.40508,-87.54359c2.36172,-4.55353 4.62083,-3.66544 4.62083,-3.66544c0,0 2.09379,-1.20685 4.32083,3.08702c5.83657,11.25324 32.3733,62.41758 44.31967,85.45086c3.58771,6.9173 4.03088,9.54952 4.03088,9.54952z" fill="url(#color-7)"/><path d="M270.98586,192.14524c0,0 -0.22362,-2.88613 6.67436,-3.29597c23.83118,-1.41592 78.09888,-4.56972 88.66644,-4.56972c3.38763,0 6.34472,3.49587 6.34472,3.49587c0,0 1.47929,4.18431 -0.64327,8.27671c-9.62944,18.56611 -36.93682,71.2163 -44.13005,85.08525c-3.36557,6.489 -6.98375,7.34733 -6.98375,7.34733c0,0 -3.25765,-0.16319 -6.37257,-6.16893c-6.65888,-12.83869 -32.08023,-61.85252 -43.04464,-82.99252c-3.13074,-6.03626 -0.51125,-7.17802 -0.51125,-7.17802z" fill="url(#color-8)"/></g><g><path d="M281.98614,164.18716c0,-2.21651 6.9936,-4.00968 7.98056,-5.83038c2.17712,-4.01621 6.42946,-6.74344 11.31878,-6.74344c4.47017,0 8.40789,2.27968 10.71402,5.73987c1.35971,2.04016 8.0005,4.49071 8.0005,7.12636c0,2.21211 -6.40655,4.29383 -7.38988,6.11197c-2.17534,4.02213 -6.43093,6.75426 -11.32464,6.75426c-5.20929,0 -9.6955,-3.09586 -11.71914,-7.54809c-0.73674,-1.62091 -7.5802,-3.71402 -7.5802,-5.61056z" fill="#82a8ff"/><path d="M288.49235,164.47958c0,-6.90395 5.59676,-12.50071 12.50072,-12.50071c6.90395,0 12.50071,5.59676 12.50071,12.50071c0,6.90395 -5.59676,12.50071 -12.50071,12.50071c-6.90395,0 -12.50072,-5.59676 -12.50072,-12.50071z" fill="url(#color-9)"/><path d="M292.29375,164.47958c0,-4.80451 3.89482,-8.69933 8.69932,-8.69933c4.80451,0 8.69932,3.89482 8.69932,8.69933c0,4.80451 -3.89482,8.69932 -8.69932,8.69932c-4.80451,0 -8.69932,-3.89482 -8.69932,-8.69932z" fill="url(#color-10)"/></g><g><path d="M350.67384,260.71873c0,0 -0.70221,0.55908 -1.9474,0.7363c-3.14781,0.44801 -16.96727,2.41484 -22.27601,3.1704c-1.29804,0.18474 -0.77007,1.487 -0.77007,1.487c0,0 -1.01935,-2.09211 -0.53222,-3.56757c1.93926,-5.87385 6.87825,-20.83357 7.96632,-24.12923c0.41436,-1.25507 1.00287,-1.10554 1.00287,-1.10554c0,0 0.47106,-0.38406 1.17647,0.64344c1.84871,2.69282 10.25415,14.93607 14.03813,20.44777c1.1364,1.65526 1.34191,2.31743 1.34191,2.31743z" fill="url(#color-11)"/><path d="M325.77673,265.17655c0,0 -0.16079,-0.73523 1.52178,-1.08236c5.81294,-1.19924 19.05257,-3.91197 21.65324,-4.28211c0.83369,-0.11865 1.68953,0.67782 1.68953,0.67782c0,0 0.51737,1.02547 0.14497,2.15344c-1.68948,5.11729 -6.48056,19.62902 -7.74261,23.45165c-0.59048,1.78854 -1.44946,2.13624 -1.44946,2.13624c0,0 -0.80768,0.07209 -1.79432,-1.36504c-2.10918,-3.0722 -10.16133,-14.80086 -13.63428,-19.85951c-0.99165,-1.44443 -0.38884,-1.83014 -0.38884,-1.83014z" fill="url(#color-12)"/></g><g><path d="M320,164.18716c0,-2.21651 6.9936,-4.00968 7.98056,-5.83038c2.17712,-4.01621 6.42946,-6.74344 11.31878,-6.74344c4.47017,0 8.40789,2.27968 10.71402,5.73987c1.35971,2.04016 8.0005,4.49071 8.0005,7.12636c0,2.21211 -6.40655,4.29383 -7.38988,6.11197c-2.17534,4.02213 -6.43093,6.75426 -11.32464,6.75426c-5.20929,0 -9.6955,-3.09586 -11.71915,-7.54809c-0.73674,-1.62091 -7.5802,-3.71402 -7.5802,-5.61056z" fill="#82a8ff"/><path d="M326.50622,164.47958c0,-6.90395 5.59676,-12.50071 12.50072,-12.50071c6.90395,0 12.50071,5.59676 12.50071,12.50071c0,6.90395 -5.59675,12.50071 -12.50071,12.50071c-6.90395,0 -12.50072,-5.59676 -12.50072,-12.50071z" fill="url(#color-13)"/><path d="M330.3076,164.47958c0,-4.80451 3.89483,-8.69933 8.69933,-8.69933c4.80451,0 8.69932,3.89482 8.69932,8.69933c0,4.80451 -3.89482,8.69932 -8.69932,8.69932c-4.80451,0 -8.69933,-3.89482 -8.69933,-8.69932z" fill="url(#color-14)"/></g><g><path d="M297.18985,236.5032c0,0 -0.90969,0.44344 -2.32351,0.33371c-3.57411,-0.27739 -19.26511,-1.49516 -25.2928,-1.96297c-1.47383,-0.11438 -1.21149,1.4481 -1.21149,1.4481c0,0 -0.60982,-2.55205 0.28745,-4.0567c3.57203,-5.99006 12.66938,-21.24574 14.67356,-24.60661c0.76324,-1.2799 1.37435,-0.97129 1.37435,-0.97129c0,0 0.61244,-0.30739 1.13732,0.99612c1.37559,3.41619 7.62987,18.94835 10.44545,25.94065c0.84557,2.09991 0.90969,2.87899 0.90969,2.87899z" fill="url(#color-15)"/><path d="M268.69718,235.3156c0,0 0.00299,-0.84854 1.93977,-0.81875c6.6912,0.1029 21.92662,0.35783 24.87948,0.58701c0.94659,0.07346 1.69358,1.15953 1.69358,1.15953c0,0 0.31842,1.25527 -0.36753,2.40555c-3.11194,5.21853 -11.93687,20.01736 -14.2615,23.91562c-1.08765,1.82391 -2.11814,1.99637 -2.11814,1.99637c0,0 -0.90657,-0.11836 -1.64071,-1.94154c-1.56939,-3.89749 -7.56081,-18.77681 -10.14495,-25.19437c-0.73787,-1.83245 0.02,-2.10941 0.02,-2.10941z" fill="url(#color-16)"/></g><path d="M272.01523,164.47958c0,-16.00402 12.97382,-28.97784 28.97784,-28.97784c16.00401,0 28.97784,12.97382 28.97784,28.97784c0,16.00402 -12.97382,28.97784 -28.97784,28.97784c-16.00401,0 -28.97784,-12.97382 -28.97784,-28.97784z" fill="url(#color-17)"/><path d="M310.02909,164.47958c0,-16.00402 12.97382,-28.97784 28.97784,-28.97784c16.00401,0 28.97784,12.97382 28.97784,28.97784c0,16.00402 -12.97382,28.97784 -28.97784,28.97784c-16.00401,0 -28.97784,-12.97382 -28.97784,-28.97784z" fill="url(#color-18)"/><path d="M170.33333,180c0,-82.6586 67.00805,-149.66667 149.66667,-149.66667c82.6586,0 149.66667,67.00805 149.66667,149.66667c0,82.6586 -67.00804,149.66667 -149.66667,149.66667c-82.6586,0 -149.66667,-67.00804 -149.66667,-149.66667z" fill="url(#color-19)"/></g></g></svg>