<svg version="1.1" xmlns="http://www.w3.org/2000/svg" xmlns:xlink="http://www.w3.org/1999/xlink" width="223.03092" height="223.03092" viewBox="0,0,223.03092,223.03092"><defs><linearGradient x1="320" y1="95.62412" x2="320" y2="264.37588" gradientUnits="userSpaceOnUse" id="color-1"><stop offset="0" stop-color="#450089"/><stop offset="1" stop-color="#5a008a"/></linearGradient><radialGradient cx="258.67922" cy="205.8246" r="16.01536" gradientUnits="userSpaceOnUse" id="color-2"><stop offset="0" stop-color="#ff6e6e"/><stop offset="1" stop-color="#ffffff"/></radialGradient><radialGradient cx="324.19964" cy="189.86595" r="23.11539" gradientUnits="userSpaceOnUse" id="color-3"><stop offset="0" stop-color="#ff6e6e"/><stop offset="1" stop-color="#ffffff"/></radialGradient><radialGradient cx="276.75213" cy="165.12378" r="18.54489" gradientUnits="userSpaceOnUse" id="color-4"><stop offset="0" stop-color="#ff6e6e"/><stop offset="1" stop-color="#ffffff"/></radialGradient><radialGradient cx="325.03958" cy="247.89433" r="16.01524" gradientUnits="userSpaceOnUse" id="color-5"><stop offset="0" stop-color="#ff6e6e"/><stop offset="1" stop-color="#ffffff"/></radialGradient><radialGradient cx="366.23903" cy="225.62223" r="18.54216" gradientUnits="userSpaceOnUse" id="color-6"><stop offset="0" stop-color="#ff6e6e"/><stop offset="1" stop-color="#ffffff"/></radialGradient><radialGradient cx="375.43539" cy="154.58889" r="11.60258" gradientUnits="userSpaceOnUse" id="color-7"><stop offset="0" stop-color="#ff6e6e"/><stop offset="1" stop-color="#ffffff"/></radialGradient><radialGradient cx="324.19964" cy="141.56997" r="11.60459" gradientUnits="userSpaceOnUse" id="color-8"><stop offset="0" stop-color="#ff6e6e"/><stop offset="1" stop-color="#ffffff"/></radialGradient><radialGradient cx="320.00001" cy="180" r="111.51546" gradientUnits="userSpaceOnUse" id="color-9"><stop offset="0" stop-color="#7a00d1" stop-opacity="0.67059"/><stop offset="1" stop-color="#7a00d1" stop-opacity="0"/></radialGradient></defs><g transform="translate(-208.48453,-68.48453)"><g data-paper-data="{&quot;isPaintingLayer&quot;:true}" fill-rule="nonzero" stroke-linejoin="miter" stroke-miterlimit="10" stroke-dasharray="" stroke-dashoffset="0" style="mix-blend-mode: normal"><path d="M332.6033,221.31796v26.57637" fill="#1d0034" stroke="#1d0034" stroke-width="8.5" stroke-linecap="round"/><path d="M366.23903,247.89433v-26.57637" fill="none" stroke="#1d0034" stroke-width="8.5" stroke-linecap="round"/><path d="M235.62412,180c0,-46.59952 37.77637,-84.37588 84.37588,-84.37588c46.59952,0 84.37588,37.77637 84.37588,84.37588c0,46.59952 -37.77637,84.37588 -84.37588,84.37588c-46.59952,0 -84.37588,-37.77637 -84.37588,-84.37588z" fill="url(#color-1)" stroke="none" stroke-width="0" stroke-linecap="butt"/><g stroke="#000000" stroke-width="3.5" stroke-linecap="butt"><path d="M241.11883,214.0409c-4.53772,-9.69833 -0.35422,-21.23891 9.34409,-25.77665c9.69833,-4.53772 21.23891,-0.35422 25.77665,9.34409c4.53772,9.69833 0.35422,21.23891 -9.34409,25.77665c-9.69833,4.53772 -21.23891,0.35422 -25.77665,-9.34409z" fill="#a100d9"/><path d="M273.18526,199.03741c2.53417,5.4162 -1.90604,12.84565 -9.91753,16.59411c-8.01147,3.74847 -16.5604,2.39649 -19.09459,-3.01971c-2.53417,-5.4162 1.90604,-12.84565 9.91753,-16.59411c8.01147,-3.74847 16.5604,-2.39649 19.09459,3.01971z" fill="url(#color-2)"/></g><path d="M296.47605,221.31796v26.57637" fill="none" stroke="#1d0034" stroke-width="8.5" stroke-linecap="round"/><g stroke="#000000" stroke-width="3.5" stroke-linecap="butt"><path d="M297.64047,181.05533c4.86595,-14.66821 20.70156,-22.61451 35.36978,-17.74857c14.66821,4.86595 22.61451,20.70156 17.74857,35.36978c-4.86595,14.66821 -20.70156,22.61451 -35.36978,17.74857c-14.66821,-4.86595 -22.61451,-20.70156 -17.74857,-35.36978z" fill="#a100d9"/><path d="M346.13934,197.1441c-2.71748,8.19175 -14.74316,11.57391 -26.86011,7.5543c-12.11695,-4.01961 -19.73671,-13.91889 -17.01922,-22.11062c2.71748,-8.19175 14.74316,-11.57391 26.86011,-7.5543c12.11695,4.01961 19.73671,13.91886 17.01922,22.11061z" fill="url(#color-3)"/></g><g stroke="#000000" stroke-width="3.5" stroke-linecap="butt"><path d="M254.46342,167.80649c-1.48162,-12.30972 7.2963,-23.4898 19.606,-24.97143c12.30972,-1.48162 23.4898,7.2963 24.97143,19.606c1.48162,12.30972 -7.2963,23.4898 -19.606,24.97143c-12.30972,1.48162 -23.4898,-7.2963 -24.97143,-19.606z" fill="#a100d9"/><path d="M295.16412,162.9077c0.82743,6.87459 -6.74513,13.43973 -16.91379,14.66364c-10.16866,1.2239 -19.08277,-3.35687 -19.9102,-10.23145c-0.82743,-6.87459 6.74513,-13.43971 16.91379,-14.66362c10.16866,-1.2239 19.08277,3.35687 19.9102,10.23145z" fill="url(#color-4)"/></g><g stroke="#000000" stroke-width="3.5" stroke-linecap="butt"><path d="M306.29524,242.9428c2.73466,-10.35221 13.34365,-16.52747 23.69586,-13.79282c10.35221,2.73466 16.52747,13.34365 13.79282,23.69586c-2.73466,10.35221 -13.34365,16.52747 -23.69586,13.79282c-10.35221,-2.73466 -16.52747,-13.34365 -13.79282,-23.69586z" fill="#a100d9"/><path d="M340.52368,251.98462c-1.52721,5.78139 -9.69774,8.63683 -18.24938,6.37783c-8.55163,-2.25901 -14.24603,-8.77702 -12.71882,-14.55842c1.52721,-5.78139 9.69772,-8.63682 18.24936,-6.37782c8.55163,2.25901 14.24604,8.77702 12.71882,14.55842z" fill="url(#color-5)"/></g><g stroke="#000000" stroke-width="3.5" stroke-linecap="butt"><path d="M344.53716,219.88944c3.16613,-11.9856 15.44907,-19.13521 27.43467,-15.96908c11.9856,3.16613 19.13521,15.44907 15.96908,27.43467c-3.16613,11.9856 -15.44907,19.13521 -27.43467,15.96908c-11.9856,-3.16613 -19.13521,-15.44907 -15.96908,-27.43467z" fill="#a100d9"/><path d="M384.16628,230.35787c-1.76818,6.69357 -11.22786,9.99959 -21.1288,7.38415c-9.90092,-2.61546 -16.4938,-10.1619 -14.72562,-16.85548c1.76818,-6.69357 11.22786,-9.99959 21.1288,-7.3841c9.90092,2.61546 16.49382,10.1619 14.72564,16.85548z" fill="url(#color-6)"/></g><g stroke="#000000" stroke-width="3.5" stroke-linecap="butt"><path d="M362.10421,150.16647c2.44243,-7.3626 10.39098,-11.35119 17.75359,-8.90876c7.3626,2.44243 11.3512,10.39098 8.90876,17.75359c-2.44243,7.3626 -10.39098,11.35119 -17.75359,8.90876c-7.3626,-2.44243 -11.3512,-10.39098 -8.90876,-17.75358z" fill="#a100d9"/><path d="M386.44783,158.2421c-1.36402,4.11178 -7.40022,5.80944 -13.48224,3.79183c-6.08201,-2.01761 -9.90669,-6.98647 -8.54266,-11.09825c1.36402,-4.11178 7.40021,-5.80944 13.48223,-3.79183c6.08201,2.01761 9.90669,6.98647 8.54267,11.09825z" fill="url(#color-7)"/></g><g stroke="#000000" stroke-width="3.5" stroke-linecap="butt"><path d="M310.25233,143.24869c-0.92713,-7.70289 4.56571,-14.69891 12.26859,-15.62604c7.70289,-0.92713 14.69891,4.56571 15.62604,12.26859c0.92713,7.70289 -4.56571,14.69891 -12.26859,15.62604c-7.70289,0.92713 -14.69891,-4.56571 -15.62604,-12.26859z" fill="#a100d9"/><path d="M335.72108,140.18323c0.51778,4.30182 -4.22081,8.41 -10.58392,9.17588c-6.36311,0.76587 -11.94117,-2.10059 -12.45893,-6.4024c-0.51778,-4.30182 4.22081,-8.40999 10.58392,-9.17586c6.36311,-0.76587 11.94117,2.10058 12.45895,6.4024z" fill="url(#color-8)"/></g><path d="M208.48454,180c0,-61.58828 49.92718,-111.51546 111.51546,-111.51546c61.58828,0 111.51546,49.92718 111.51546,111.51546c0,61.58828 -49.92718,111.51546 -111.51546,111.51546c-61.58828,0 -111.51546,-49.92718 -111.51546,-111.51546z" fill="url(#color-9)" stroke="none" stroke-width="0" stroke-linecap="butt"/></g></g></svg>