<svg version="1.1" xmlns="http://www.w3.org/2000/svg" xmlns:xlink="http://www.w3.org/1999/xlink" width="69.94599" height="36.52986" viewBox="0,0,69.94599,36.52986"><g transform="translate(-229.77434,-87.49507)"><g data-paper-data="{&quot;isPaintingLayer&quot;:true}" fill-rule="nonzero" stroke-linecap="butt" stroke-linejoin="miter" stroke-miterlimit="10" stroke-dasharray="" stroke-dashoffset="0" style="mix-blend-mode: normal"><path d="M241.62929,122.52493c-5.71888,0 -10.35495,-4.13788 -10.35495,-9.24221v-15.04545c0,-5.10433 4.63607,-9.2422 10.35495,-9.2422h46.23609c5.71889,0 10.35495,4.13788 10.35495,9.2422v15.04545c0,5.10433 -4.63606,9.24221 -10.35495,9.24221z" fill-opacity="0.70196" fill="#000000" stroke="#000000" stroke-width="3"/><text transform="translate(251.74733,99.38508) scale(0.19791,0.19791)" font-size="40" xml:space="preserve" fill-opacity="0.9098" fill="#00631b" fill-rule="nonzero" stroke-opacity="0.9098" stroke="#00631b" stroke-width="1" stroke-linecap="butt" stroke-linejoin="miter" stroke-miterlimit="10" stroke-dasharray="" stroke-dashoffset="0" font-family="&quot;MV Boli&quot;, Technological" font-weight="normal" text-anchor="middle" style="mix-blend-mode: normal"><tspan x="0" dy="0">Auto-aim</tspan></text><g fill="none" stroke="#ff0000" stroke-width="3.5"><path d="M274.39152,108.16c0,-4.60789 3.73544,-8.34335 8.34335,-8.34335c4.60789,0 8.34335,3.73544 8.34335,8.34335c0,4.60789 -3.73544,8.34335 -8.34335,8.34335c-4.60789,0 -8.34335,-3.73544 -8.34335,-8.34335z"/><path d="M279.48773,108.16c0,-1.79334 1.4538,-3.24714 3.24714,-3.24714c1.79334,0 3.24714,1.4538 3.24714,3.24714c0,1.79334 -1.4538,3.24714 -3.24714,3.24714c-1.79334,0 -3.24714,-1.4538 -3.24714,-3.24714z"/></g><g fill="#ffffff" stroke="#ffffff" stroke-width="0" font-weight="normal" font-size="40" text-anchor="start"><text transform="translate(234.49592,113.80985) scale(0.22486,0.21833)" font-size="40" xml:space="preserve" fill="#ffffff" fill-rule="nonzero" stroke="#ffffff" stroke-width="0" stroke-linecap="butt" stroke-linejoin="miter" stroke-miterlimit="10" stroke-dasharray="" stroke-dashoffset="0" font-family="&quot;MV Boli&quot;, Technological" font-weight="normal" text-anchor="start" style="mix-blend-mode: normal"><tspan x="0" dy="0">Lv</tspan></text><text transform="translate(245.30199,113.8308) scale(0.34533,0.3353)" font-size="40" xml:space="preserve" fill="#ffffff" fill-rule="nonzero" stroke="#ffffff" stroke-width="0" stroke-linecap="butt" stroke-linejoin="miter" stroke-miterlimit="10" stroke-dasharray="" stroke-dashoffset="0" font-family="Handwriting" font-weight="normal" text-anchor="start" style="mix-blend-mode: normal"><tspan x="0" dy="0">.</tspan></text></g></g></g></svg>