<svg version="1.1" xmlns="http://www.w3.org/2000/svg" xmlns:xlink="http://www.w3.org/1999/xlink" width="488.38003" height="349.18454" viewBox="0,0,488.38003,349.18454"><g transform="translate(-155.25001,1.78273)"><g data-paper-data="{&quot;isPaintingLayer&quot;:true}" fill-rule="nonzero" stroke-linecap="butt" stroke-linejoin="miter" stroke-miterlimit="10" stroke-dasharray="" stroke-dashoffset="0" style="mix-blend-mode: normal"><path d="M172.23633,343.65181c-7.31022,0 -13.23632,-9.68839 -13.23632,-21.63963v-221.58982c0,-11.95124 5.9261,-21.63963 13.23633,-21.63963h292.78745c7.31022,0 13.23632,9.68839 13.23632,21.63963v221.58982c0,11.95124 -5.9261,21.63963 -13.23632,21.63963z" fill-opacity="0.70196" fill="#000000" stroke="#000000" stroke-width="7.5"/><path d="M486.53297,343.65181c-3.60806,0 -6.53297,-9.68839 -6.53297,-21.63963v-221.58982c0,-11.95124 2.92491,-21.63963 6.53297,-21.63963h144.50921c3.60806,0 6.53297,9.68839 6.53297,21.63963v221.58982c0,11.95124 -2.92491,21.63963 -6.53297,21.63963z" fill-opacity="0.45098" fill="#000000" stroke="#000000" stroke-width="7.5"/><text transform="translate(278.38453,116.00916) scale(0.57646,0.57646)" font-size="40" xml:space="preserve" fill-opacity="0.9098" fill="#00631b" fill-rule="nonzero" stroke-opacity="0.9098" stroke="#00631b" stroke-width="1" stroke-linecap="butt" stroke-linejoin="miter" stroke-miterlimit="10" stroke-dasharray="" stroke-dashoffset="0" font-family="&quot;MV Boli&quot;, Technological" font-weight="normal" text-anchor="start" style="mix-blend-mode: normal"><tspan x="0" dy="0">Name</tspan></text><g fill="#ffffff" stroke="#ffffff" stroke-width="0" font-weight="normal" font-size="40" text-anchor="start"><text transform="translate(290.61355,144.99726) scale(0.47389,0.47389)" font-size="40" xml:space="preserve" fill="#ffffff" fill-rule="nonzero" stroke="#ffffff" stroke-width="0" stroke-linecap="butt" stroke-linejoin="miter" stroke-miterlimit="10" stroke-dasharray="" stroke-dashoffset="0" font-family="&quot;MV Boli&quot;, Technological" font-weight="normal" text-anchor="start" style="mix-blend-mode: normal"><tspan x="0" dy="0">Lv</tspan></text><text transform="translate(313.3873,145.04271) scale(0.72777,0.72777)" font-size="40" xml:space="preserve" fill="#ffffff" fill-rule="nonzero" stroke="#ffffff" stroke-width="0" stroke-linecap="butt" stroke-linejoin="miter" stroke-miterlimit="10" stroke-dasharray="" stroke-dashoffset="0" font-family="Handwriting" font-weight="normal" text-anchor="start" style="mix-blend-mode: normal"><tspan x="0" dy="0">.</tspan></text></g><text transform="translate(404.25136,211.2137) scale(0.24931,0.24931)" font-size="40" xml:space="preserve" fill="#70ffff" fill-rule="nonzero" stroke="#70ffff" stroke-width="2" stroke-linecap="butt" stroke-linejoin="miter" stroke-miterlimit="10" stroke-dasharray="" stroke-dashoffset="0" font-family="&quot;MV Boli&quot;, Technological" font-weight="normal" text-anchor="middle" style="mix-blend-mode: normal"><tspan x="0" dy="0">Click on the orb and</tspan><tspan x="0" dy="48px">hold to level up!</tspan></text><text transform="translate(356.50146,296.08405) scale(0.24259,0.24259)" font-size="40" xml:space="preserve" fill="#ffffff" fill-rule="nonzero" stroke="#ffffff" stroke-width="0" stroke-linecap="butt" stroke-linejoin="miter" stroke-miterlimit="10" stroke-dasharray="" stroke-dashoffset="0" font-family="&quot;MV Boli&quot;, Technological" font-weight="normal" text-anchor="start" style="mix-blend-mode: normal"><tspan x="0" dy="0">You can increase this</tspan><tspan x="0" dy="48px">stat by up to   Levels!</tspan></text><text transform="translate(187.45945,25.64161) scale(0.23931,0.23931)" font-size="40" xml:space="preserve" fill-opacity="0.70196" fill="#006080" fill-rule="nonzero" stroke="none" stroke-width="1" stroke-linecap="butt" stroke-linejoin="miter" stroke-miterlimit="10" stroke-dasharray="" stroke-dashoffset="0" font-family="&quot;MV Boli&quot;, Pixel" font-weight="normal" text-anchor="middle" style="mix-blend-mode: normal"><tspan x="0" dy="0">Reforge:</tspan></text><path d="M511.08112,68.11749c0,6.41302 -5.38893,10.66524 -13.71321,10.66524c-23.77607,0 -71.49899,0 -85.99762,0c-8.17014,0 -17.37028,-5.57764 -17.37028,-13.57396c0,-16.92432 0,-44.6834 0,-53.32626c0,-5.08132 5.61543,-10.66524 14.26193,-10.66524c24.70721,0 74.16356,0 88.06985,0c7.12709,0 14.74932,5.00485 14.74932,9.69568c0,8.97425 0,40.45735 0,57.20454z" data-paper-data="{&quot;index&quot;:null}" fill-opacity="0.70196" fill="#000000" stroke="#000000" stroke-width="6"/><path d="M511.08113,68.11749c0,-16.7472 0,-48.2303 0,-57.20454c0,-4.69082 8.4339,-9.69568 16.31995,-9.69568c15.38716,0 70.11005,0 97.4483,0c9.56725,0 15.78066,5.58392 15.78066,10.66524c0,8.64286 0,36.40195 0,53.32626c0,7.99632 -10.17986,13.57396 -19.22002,13.57396c-16.04257,0 -68.84744,0 -95.1554,0c-9.21073,0 -15.17351,-4.25222 -15.17351,-10.66524z" fill-opacity="0.70196" fill="#000000" stroke="#000000" stroke-width="6"/><path d="M246.00002,68.11749c0,-16.7472 0,-48.2303 0,-57.20454c0,-4.69082 9.63511,-9.69568 18.64433,-9.69568c17.57868,0 80.09551,0 111.32742,0c10.92987,0 18.02823,5.58392 18.02823,10.66524c0,8.64286 0,36.40195 0,53.32627c0,7.99631 -11.62973,13.57395 -21.95744,13.57395c-18.32745,0 -78.65307,0 -108.70795,0c-10.52257,0 -17.33461,-4.25222 -17.33461,-10.66524z" fill-opacity="0.70196" fill="#000000" stroke="#000000" stroke-width="6"/><text transform="translate(298.3548,63.18976) scale(0.64416,0.64416)" font-size="40" xml:space="preserve" fill-opacity="0.70196" fill="#807600" fill-rule="nonzero" stroke="none" stroke-width="1" stroke-linecap="butt" stroke-linejoin="miter" stroke-miterlimit="10" stroke-dasharray="" stroke-dashoffset="0" font-family="&quot;MV Boli&quot;, Pixel" font-weight="normal" text-anchor="start" style="mix-blend-mode: normal"><tspan x="0" dy="0">XP</tspan></text><path d="M165.50532,330.46615c0,-16.7472 0,-48.2303 0,-57.20454c0,-4.69082 11.4879,-9.69568 22.22955,-9.69568c20.95898,0 95.49751,0 132.73517,0c13.03163,0 21.49498,5.58392 21.49498,10.66524c0,8.64286 0,36.40195 0,53.32627c0,7.99631 -13.86607,13.57395 -26.17975,13.57395c-21.85173,0 -93.77769,0 -129.61199,0c-12.54601,0 -20.66798,-4.25222 -20.66798,-10.66524z" fill-opacity="0.70196" fill="#000000" stroke="#000000" stroke-width="6"/><g fill-opacity="0.99216" fill="#005b19" stroke="#ff7171" stroke-width="0" font-family="&quot;MV Boli&quot;, Technological" font-weight="normal" font-size="40" text-anchor="middle"><text transform="translate(253.73516,290.16479) scale(0.47389,0.47389)" font-size="40" xml:space="preserve" fill-opacity="0.99216" fill="#005b19" fill-rule="nonzero" stroke="#ff7171" stroke-width="0" stroke-linecap="butt" stroke-linejoin="miter" stroke-miterlimit="10" stroke-dasharray="" stroke-dashoffset="0" font-family="&quot;MV Boli&quot;, Technological" font-weight="normal" text-anchor="middle" style="mix-blend-mode: normal"><tspan x="0" dy="0">Next Level costs</tspan></text><text transform="translate(250.31591,325.90587) scale(0.47389,0.47389)" font-size="40" xml:space="preserve" fill-opacity="0.99216" fill="#005b19" fill-rule="nonzero" stroke="#ff7171" stroke-width="0" stroke-linecap="butt" stroke-linejoin="miter" stroke-miterlimit="10" stroke-dasharray="" stroke-dashoffset="0" font-family="&quot;MV Boli&quot;, Technological" font-weight="normal" text-anchor="middle" style="mix-blend-mode: normal"><tspan x="0" dy="0">XP!</tspan></text></g><path d="M165.50532,250.57978c0,-20.39165 0,-58.72595 0,-69.65312c0,-5.71162 11.4879,-11.80561 22.22955,-11.80561c20.95898,0 95.49751,0 132.73517,0c13.03163,0 21.49498,6.79906 21.49498,12.98615c0,10.52368 0,44.32358 0,64.93089c0,9.73643 -13.86607,16.52785 -26.17975,16.52785c-21.85173,0 -93.77769,0 -129.61199,0c-12.54601,0 -20.66798,-5.17757 -20.66798,-12.98615z" fill-opacity="0.70196" fill="#000000" stroke="#000000" stroke-width="6"/></g></g></svg>