<svg version="1.1" xmlns="http://www.w3.org/2000/svg" xmlns:xlink="http://www.w3.org/1999/xlink" width="32.90642" height="32.90642" viewBox="0,0,32.90642,32.90642"><defs><radialGradient cx="320" cy="180" r="16.45321" gradientUnits="userSpaceOnUse" id="color-1"><stop offset="0" stop-color="#62094a" stop-opacity="0.90588"/><stop offset="1" stop-color="#62094a" stop-opacity="0"/></radialGradient><radialGradient cx="320" cy="180" r="8.77359" gradientUnits="userSpaceOnUse" id="color-2"><stop offset="0" stop-color="#420054" stop-opacity="0.70196"/><stop offset="1" stop-color="#6e0037" stop-opacity="0.85484"/></radialGradient><radialGradient cx="315.87324" cy="182.77778" r="2.6627" gradientUnits="userSpaceOnUse" id="color-3"><stop offset="0" stop-color="#ff9797" stop-opacity="0.46667"/><stop offset="1" stop-color="#ff9797" stop-opacity="0"/></radialGradient><radialGradient cx="315.87324" cy="182.77778" r="1.20167" gradientUnits="userSpaceOnUse" id="color-4"><stop offset="0" stop-color="#ffffff"/><stop offset="1" stop-color="#626262"/></radialGradient><radialGradient cx="322.98633" cy="182.6627" r="2.6627" gradientUnits="userSpaceOnUse" id="color-5"><stop offset="0" stop-color="#ff9797" stop-opacity="0.46667"/><stop offset="1" stop-color="#ff9797" stop-opacity="0"/></radialGradient><radialGradient cx="322.98633" cy="182.6627" r="1.20167" gradientUnits="userSpaceOnUse" id="color-6"><stop offset="0" stop-color="#ffffff"/><stop offset="1" stop-color="#626262"/></radialGradient><radialGradient cx="317.3373" cy="176.85516" r="2.6627" gradientUnits="userSpaceOnUse" id="color-7"><stop offset="0" stop-color="#ff9797" stop-opacity="0.46667"/><stop offset="1" stop-color="#ff9797" stop-opacity="0"/></radialGradient><radialGradient cx="317.3373" cy="176.85516" r="1.20167" gradientUnits="userSpaceOnUse" id="color-8"><stop offset="0" stop-color="#ffffff"/><stop offset="1" stop-color="#626262"/></radialGradient><radialGradient cx="323.96847" cy="176.85516" r="2.6627" gradientUnits="userSpaceOnUse" id="color-9"><stop offset="0" stop-color="#ff9797" stop-opacity="0.46667"/><stop offset="1" stop-color="#ff9797" stop-opacity="0"/></radialGradient><radialGradient cx="323.96847" cy="176.85516" r="1.20167" gradientUnits="userSpaceOnUse" id="color-10"><stop offset="0" stop-color="#ffffff"/><stop offset="1" stop-color="#626262"/></radialGradient></defs><g transform="translate(-303.54679,-163.54679)"><g data-paper-data="{&quot;isPaintingLayer&quot;:true}" fill-rule="nonzero" stroke-linecap="butt" stroke-linejoin="miter" stroke-miterlimit="10" stroke-dasharray="" stroke-dashoffset="0" style="mix-blend-mode: normal"><path d="M303.54679,180c0,-9.08686 7.36636,-16.45321 16.45321,-16.45321c9.08686,0 16.45321,7.36636 16.45321,16.45321c0,9.08686 -7.36636,16.45321 -16.45321,16.45321c-9.08686,0 -16.45321,-7.36636 -16.45321,-16.45321z" fill="url(#color-1)" stroke="#6e6e6e" stroke-width="0"/><path d="M311.22641,180c0,-4.84552 3.92807,-8.77359 8.77359,-8.77359c4.84552,0 8.77359,3.92807 8.77359,8.77359c0,4.84552 -3.92807,8.77359 -8.77359,8.77359c-4.84552,0 -8.77359,-3.92807 -8.77359,-8.77359z" fill="url(#color-2)" stroke="#3f0072" stroke-width="2.5"/><text transform="translate(313.86965,186.61308) scale(0.49048,0.49048)" font-size="40" xml:space="preserve" fill="#3f0072" fill-rule="nonzero" stroke="#000000" stroke-width="1" stroke-linecap="butt" stroke-linejoin="miter" stroke-miterlimit="10" stroke-dasharray="" stroke-dashoffset="0" font-family="&quot;MV Boli&quot;, Technological" font-weight="normal" text-anchor="start" style="mix-blend-mode: normal"><tspan x="0" dy="0">+</tspan></text><g><path d="M313.21054,182.77778c0,-1.47057 1.19213,-2.6627 2.6627,-2.6627c1.47057,0 2.6627,1.19213 2.6627,2.6627c0,1.47057 -1.19213,2.6627 -2.6627,2.6627c-1.47057,0 -2.6627,-1.19213 -2.6627,-2.6627z" fill="url(#color-3)" stroke="#6e6e6e" stroke-width="0"/><path d="M314.67156,182.77778c0,-0.66366 0.53801,-1.20167 1.20167,-1.20167c0.66366,0 1.20167,0.53801 1.20167,1.20167c0,0.66366 -0.53801,1.20167 -1.20167,1.20167c-0.66366,0 -1.20167,-0.53801 -1.20167,-1.20167z" fill="url(#color-4)" stroke="#6e6e6e" stroke-width="0.15"/><text transform="translate(314.67156,184.09141) scale(0.09438,0.09438)" font-size="40" xml:space="preserve" fill="#ff0000" fill-rule="nonzero" stroke="none" stroke-width="1" stroke-linecap="butt" stroke-linejoin="miter" stroke-miterlimit="10" stroke-dasharray="" stroke-dashoffset="0" font-family="&quot;MV Boli&quot;, Technological" font-weight="normal" text-anchor="start" style="mix-blend-mode: normal"><tspan x="0" dy="0">+</tspan></text></g><g><path d="M320.32364,182.6627c0,-1.47057 1.19213,-2.6627 2.6627,-2.6627c1.47057,0 2.6627,1.19213 2.6627,2.6627c0,1.47057 -1.19213,2.66269 -2.6627,2.66269c-1.47057,0 -2.6627,-1.19212 -2.6627,-2.66269z" fill="url(#color-5)" stroke="#6e6e6e" stroke-width="0"/><path d="M321.78466,182.6627c0,-0.66367 0.53801,-1.20167 1.20167,-1.20167c0.66366,0 1.20167,0.53801 1.20167,1.20167c0,0.66367 -0.53801,1.20167 -1.20167,1.20167c-0.66366,0 -1.20167,-0.538 -1.20167,-1.20167z" fill="url(#color-6)" stroke="#6e6e6e" stroke-width="0.15"/><text transform="translate(321.78466,183.97634) scale(0.09438,0.09438)" font-size="40" xml:space="preserve" fill="#ff0000" fill-rule="nonzero" stroke="none" stroke-width="1" stroke-linecap="butt" stroke-linejoin="miter" stroke-miterlimit="10" stroke-dasharray="" stroke-dashoffset="0" font-family="&quot;MV Boli&quot;, Technological" font-weight="normal" text-anchor="start" style="mix-blend-mode: normal"><tspan x="0" dy="0">+</tspan></text></g><g><path d="M314.67461,176.85516c0,-1.47057 1.19213,-2.6627 2.6627,-2.6627c1.47057,0 2.6627,1.19213 2.6627,2.6627c0,1.47057 -1.19213,2.66269 -2.6627,2.66269c-1.47057,0 -2.6627,-1.19212 -2.6627,-2.66269z" fill="url(#color-7)" stroke="#6e6e6e" stroke-width="0"/><path d="M316.13563,176.85516c0,-0.66367 0.53801,-1.20167 1.20167,-1.20167c0.66366,0 1.20167,0.53801 1.20167,1.20167c0,0.66367 -0.53801,1.20167 -1.20167,1.20167c-0.66366,0 -1.20167,-0.538 -1.20167,-1.20167z" fill="url(#color-8)" stroke="#6e6e6e" stroke-width="0.15"/><text transform="translate(316.13563,178.1688) scale(0.09438,0.09438)" font-size="40" xml:space="preserve" fill="#ff0000" fill-rule="nonzero" stroke="none" stroke-width="1" stroke-linecap="butt" stroke-linejoin="miter" stroke-miterlimit="10" stroke-dasharray="" stroke-dashoffset="0" font-family="&quot;MV Boli&quot;, Technological" font-weight="normal" text-anchor="start" style="mix-blend-mode: normal"><tspan x="0" dy="0">+</tspan></text></g><g><path d="M321.30578,176.85516c0,-1.47057 1.19213,-2.6627 2.6627,-2.6627c1.47057,0 2.6627,1.19213 2.6627,2.6627c0,1.47057 -1.19213,2.66269 -2.6627,2.66269c-1.47057,0 -2.6627,-1.19212 -2.6627,-2.66269z" fill="url(#color-9)" stroke="#6e6e6e" stroke-width="0"/><path d="M322.7668,176.85516c0,-0.66367 0.53801,-1.20167 1.20167,-1.20167c0.66366,0 1.20167,0.53801 1.20167,1.20167c0,0.66367 -0.53801,1.20167 -1.20167,1.20167c-0.66366,0 -1.20167,-0.538 -1.20167,-1.20167z" fill="url(#color-10)" stroke="#6e6e6e" stroke-width="0.15"/><text transform="translate(322.7668,178.1688) scale(0.09438,0.09438)" font-size="40" xml:space="preserve" fill="#ff0000" fill-rule="nonzero" stroke="none" stroke-width="1" stroke-linecap="butt" stroke-linejoin="miter" stroke-miterlimit="10" stroke-dasharray="" stroke-dashoffset="0" font-family="&quot;MV Boli&quot;, Technological" font-weight="normal" text-anchor="start" style="mix-blend-mode: normal"><tspan x="0" dy="0">+</tspan></text></g></g></g></svg>