<svg version="1.1" xmlns="http://www.w3.org/2000/svg" xmlns:xlink="http://www.w3.org/1999/xlink" width="45.28522" height="48.88624" viewBox="0,0,45.28522,48.88624"><defs><radialGradient cx="320.04627" cy="180" r="17.16802" gradientUnits="userSpaceOnUse" id="color-1"><stop offset="0" stop-color="#4200ff"/><stop offset="1" stop-color="#4200ff" stop-opacity="0"/></radialGradient><radialGradient cx="320.04627" cy="180" r="17.16802" gradientUnits="userSpaceOnUse" id="color-2"><stop offset="0" stop-color="#ff0000"/><stop offset="1" stop-color="#ff0000" stop-opacity="0"/></radialGradient><radialGradient cx="320.04627" cy="180" r="11.96559" gradientUnits="userSpaceOnUse" id="color-3"><stop offset="0" stop-color="#ff0000"/><stop offset="1" stop-color="#ff0000" stop-opacity="0"/></radialGradient><radialGradient cx="317.66801" cy="180" r="17.16802" gradientUnits="userSpaceOnUse" id="color-4"><stop offset="0" stop-color="#4200ff"/><stop offset="1" stop-color="#4200ff" stop-opacity="0"/></radialGradient><radialGradient cx="317.66801" cy="180" r="17.16802" gradientUnits="userSpaceOnUse" id="color-5"><stop offset="0" stop-color="#ff0000"/><stop offset="1" stop-color="#ff0000" stop-opacity="0"/></radialGradient><radialGradient cx="317.66801" cy="180" r="11.96559" gradientUnits="userSpaceOnUse" id="color-6"><stop offset="0" stop-color="#ff0000"/><stop offset="1" stop-color="#ff0000" stop-opacity="0"/></radialGradient></defs><g transform="translate(-296.5,-152.28178)"><g data-paper-data="{&quot;isPaintingLayer&quot;:true}" fill-rule="nonzero" stroke-linecap="butt" stroke-linejoin="miter" stroke-miterlimit="10" stroke-dasharray="" stroke-dashoffset="0" style="mix-blend-mode: normal"><g stroke-width="8"><path d="M302.87825,180c0,-9.48164 7.68638,-17.16802 17.16802,-17.16802c9.48164,0 17.16802,7.68638 17.16802,17.16802c0,9.48164 -7.68638,17.16802 -17.16802,17.16802c-9.48164,0 -17.16802,-7.68638 -17.16802,-17.16802z" fill="url(#color-1)" stroke="url(#color-2)"/><path d="M308.08068,180c0,-6.60842 5.35717,-11.96559 11.96559,-11.96559c6.60842,0 11.96559,5.35717 11.96559,11.96559c0,6.60842 -5.35717,11.96559 -11.96559,11.96559c-6.60842,0 -11.96559,-5.35717 -11.96559,-11.96559z" fill="none" stroke="url(#color-3)"/></g><g stroke-width="8"><path d="M300.5,180c0,-9.48164 7.68638,-17.16802 17.16802,-17.16802c9.48164,0 17.16802,7.68638 17.16802,17.16802c0,9.48164 -7.68638,17.16802 -17.16802,17.16802c-9.48164,0 -17.16802,-7.68638 -17.16802,-17.16802z" fill="url(#color-4)" stroke="url(#color-5)"/><path d="M305.70242,180c0,-6.60841 5.35718,-11.96559 11.96559,-11.96559c6.60841,0 11.96559,5.35718 11.96559,11.96559c0,6.60841 -5.35718,11.96559 -11.96559,11.96559c-6.60841,0 -11.96559,-5.35718 -11.96559,-11.96559z" fill="none" stroke="url(#color-6)"/></g><text transform="translate(298.85521,161.97357) scale(0.20828,0.20828)" font-size="40" xml:space="preserve" fill="#00ff08" fill-rule="nonzero" stroke="#00ff09" stroke-width="2" stroke-linecap="butt" stroke-linejoin="miter" stroke-miterlimit="10" stroke-dasharray="" stroke-dashoffset="0" font-family="&quot;MV Boli&quot;, Technological" font-weight="normal" text-anchor="start" style="mix-blend-mode: normal"><tspan x="0" dy="0">Warp Gate</tspan></text></g></g></svg>