<svg version="1.1" xmlns="http://www.w3.org/2000/svg" xmlns:xlink="http://www.w3.org/1999/xlink" width="80.26482" height="50.79445" viewBox="0,0,80.26482,50.79445"><defs><radialGradient cx="189.63434" cy="214.03734" r="10.81884" gradientUnits="userSpaceOnUse" id="color-1"><stop offset="0" stop-color="#ba0000" stop-opacity="0.3451"/><stop offset="1" stop-color="#ba0000" stop-opacity="0"/></radialGradient></defs><g transform="translate(-121.18836,-199.10594)"><g data-paper-data="{&quot;isPaintingLayer&quot;:true}" fill-rule="nonzero" stroke-linecap="butt" stroke-linejoin="miter" stroke-miterlimit="10" stroke-dasharray="" stroke-dashoffset="0" style="mix-blend-mode: normal"><path d="M133.04331,248.40039c-5.71888,0 -10.35495,-4.13788 -10.35495,-9.24221v-15.04545c0,-5.10433 4.63607,-9.24221 10.35495,-9.24221h46.23608c5.71889,0 10.35495,4.13788 10.35495,9.24221v15.04545c0,5.10433 -4.63607,9.24221 -10.35495,9.24221z" fill-opacity="0.70196" fill="#000000" stroke="#000000" stroke-width="3"/><text transform="translate(126.30359,226.66846) scale(0.21833,0.21833)" font-size="40" xml:space="preserve" fill-opacity="0.9098" fill="#00631b" fill-rule="nonzero" stroke-opacity="0.9098" stroke="#00631b" stroke-width="1" stroke-linecap="butt" stroke-linejoin="miter" stroke-miterlimit="10" stroke-dasharray="" stroke-dashoffset="0" font-family="&quot;MV Boli&quot;, Technological" font-weight="normal" text-anchor="start" style="mix-blend-mode: normal"><tspan x="0" dy="0">Dash</tspan></text><g fill-opacity="0.70196" fill="#00ceff" stroke="#ffffff" stroke-width="1"><path d="M159.08997,225.89585c-2.20914,0 -4,-1.23121 -4,-2.75v0c0,-1.51879 1.79086,-2.75 4,-2.75h11c2.20914,0 4,1.23121 4,2.75v0c0,1.51879 -1.79086,2.75 -4,2.75z"/><path d="M159.05011,234.54256c-2.20914,0 -4,-1.23121 -4,-2.75v0c0,-1.51879 1.79086,-2.75 4,-2.75h11c2.20914,0 4,1.23121 4,2.75v0c0,1.51879 -1.79086,2.75 -4,2.75z"/><path d="M159.05011,243.58502c-2.20914,0 -4,-1.23121 -4,-2.75v0c0,-1.51879 1.79086,-2.75 4,-2.75h11c2.20914,0 4,1.23121 4,2.75v0c0,1.51879 -1.79086,2.75 -4,2.75z"/></g><g><path d="M178.81549,214.03734c0,-5.97508 4.84377,-10.81885 10.81885,-10.81885c5.97508,0 10.81884,4.84377 10.81884,10.81885c0,5.97508 -4.84377,10.81885 -10.81884,10.81885c-5.97508,0 -10.81885,-4.84376 -10.81885,-10.81885z" fill="#000000" stroke="#000000" stroke-width="2"/><text transform="translate(185.39372,220.89863) scale(0.46866,0.46866)" font-size="40" xml:space="preserve" fill-opacity="0.70196" fill="#ff0000" fill-rule="nonzero" stroke="none" stroke-width="1" stroke-linecap="butt" stroke-linejoin="miter" stroke-miterlimit="10" stroke-dasharray="" stroke-dashoffset="0" font-family="&quot;MV Boli&quot;, Pixel" font-weight="normal" text-anchor="start" style="mix-blend-mode: normal"><tspan x="0" dy="0">!</tspan></text><path d="M178.81549,214.03734c0,-5.97508 4.84377,-10.81885 10.81885,-10.81885c5.97508,0 10.81884,4.84377 10.81884,10.81885c0,5.97508 -4.84377,10.81885 -10.81884,10.81885c-5.97508,0 -10.81885,-4.84376 -10.81885,-10.81885z" fill="url(#color-1)" stroke="#000000" stroke-width="0"/></g><g fill="#ffffff" stroke="#ffffff" stroke-width="0" font-weight="normal" font-size="40" text-anchor="start"><text transform="translate(126.30359,241.33827) scale(0.22486,0.21833)" font-size="40" xml:space="preserve" fill="#ffffff" fill-rule="nonzero" stroke="#ffffff" stroke-width="0" stroke-linecap="butt" stroke-linejoin="miter" stroke-miterlimit="10" stroke-dasharray="" stroke-dashoffset="0" font-family="&quot;MV Boli&quot;, Technological" font-weight="normal" text-anchor="start" style="mix-blend-mode: normal"><tspan x="0" dy="0">Lv</tspan></text><text transform="translate(137.10966,241.35922) scale(0.34533,0.3353)" font-size="40" xml:space="preserve" fill="#ffffff" fill-rule="nonzero" stroke="#ffffff" stroke-width="0" stroke-linecap="butt" stroke-linejoin="miter" stroke-miterlimit="10" stroke-dasharray="" stroke-dashoffset="0" font-family="Handwriting" font-weight="normal" text-anchor="start" style="mix-blend-mode: normal"><tspan x="0" dy="0">.</tspan></text></g></g></g></svg>