<svg version="1.1" xmlns="http://www.w3.org/2000/svg" xmlns:xlink="http://www.w3.org/1999/xlink" width="130.10296" height="130.10296" viewBox="0,0,130.10296,130.10296"><defs><radialGradient cx="319.09349" cy="173.75622" r="20.06353" gradientUnits="userSpaceOnUse" id="color-1"><stop offset="0" stop-color="#005907" stop-opacity="0"/><stop offset="1" stop-color="#005907" stop-opacity="0.4"/></radialGradient><radialGradient cx="319.09356" cy="173.75622" r="42.55148" gradientUnits="userSpaceOnUse" id="color-2"><stop offset="0" stop-color="#005907" stop-opacity="0.70196"/><stop offset="1" stop-color="#005907" stop-opacity="0"/></radialGradient><radialGradient cx="317.77778" cy="192.6667" r="5" gradientUnits="userSpaceOnUse" id="color-3"><stop offset="0" stop-color="#005907" stop-opacity="0.70196"/><stop offset="1" stop-color="#005907" stop-opacity="0"/></radialGradient><radialGradient cx="318.88889" cy="191.22222" r="5" gradientUnits="userSpaceOnUse" id="color-4"><stop offset="0" stop-color="#005907" stop-opacity="0.70196"/><stop offset="1" stop-color="#005907" stop-opacity="0"/></radialGradient><radialGradient cx="318.88889" cy="185.61115" r="5" gradientUnits="userSpaceOnUse" id="color-5"><stop offset="0" stop-color="#005907" stop-opacity="0.70196"/><stop offset="1" stop-color="#005907" stop-opacity="0"/></radialGradient><radialGradient cx="317.77778" cy="185.61115" r="5" gradientUnits="userSpaceOnUse" id="color-6"><stop offset="0" stop-color="#005907" stop-opacity="0.70196"/><stop offset="1" stop-color="#005907" stop-opacity="0"/></radialGradient><radialGradient cx="340.08334" cy="174.31174" r="5" gradientUnits="userSpaceOnUse" id="color-7"><stop offset="0" stop-color="#005907" stop-opacity="0.70196"/><stop offset="1" stop-color="#005907" stop-opacity="0"/></radialGradient><radialGradient cx="338.63889" cy="173.20063" r="5" gradientUnits="userSpaceOnUse" id="color-8"><stop offset="0" stop-color="#005907" stop-opacity="0.70196"/><stop offset="1" stop-color="#005907" stop-opacity="0"/></radialGradient><radialGradient cx="333.02778" cy="173.20063" r="5" gradientUnits="userSpaceOnUse" id="color-9"><stop offset="0" stop-color="#005907" stop-opacity="0.70196"/><stop offset="1" stop-color="#005907" stop-opacity="0"/></radialGradient><radialGradient cx="333.02778" cy="174.31174" r="5" gradientUnits="userSpaceOnUse" id="color-10"><stop offset="0" stop-color="#005907" stop-opacity="0.70196"/><stop offset="1" stop-color="#005907" stop-opacity="0"/></radialGradient><radialGradient cx="317.77778" cy="154.84569" r="5" gradientUnits="userSpaceOnUse" id="color-11"><stop offset="0" stop-color="#005907" stop-opacity="0.70196"/><stop offset="1" stop-color="#005907" stop-opacity="0"/></radialGradient><radialGradient cx="318.88889" cy="156.29017" r="5" gradientUnits="userSpaceOnUse" id="color-12"><stop offset="0" stop-color="#005907" stop-opacity="0.70196"/><stop offset="1" stop-color="#005907" stop-opacity="0"/></radialGradient><radialGradient cx="318.88889" cy="161.90125" r="5" gradientUnits="userSpaceOnUse" id="color-13"><stop offset="0" stop-color="#005907" stop-opacity="0.70196"/><stop offset="1" stop-color="#005907" stop-opacity="0"/></radialGradient><radialGradient cx="317.77778" cy="161.90125" r="5" gradientUnits="userSpaceOnUse" id="color-14"><stop offset="0" stop-color="#005907" stop-opacity="0.70196"/><stop offset="1" stop-color="#005907" stop-opacity="0"/></radialGradient><radialGradient cx="298.10376" cy="174.31174" r="5" gradientUnits="userSpaceOnUse" id="color-15"><stop offset="0" stop-color="#005907" stop-opacity="0.70196"/><stop offset="1" stop-color="#005907" stop-opacity="0"/></radialGradient><radialGradient cx="299.54821" cy="173.20063" r="5" gradientUnits="userSpaceOnUse" id="color-16"><stop offset="0" stop-color="#005907" stop-opacity="0.70196"/><stop offset="1" stop-color="#005907" stop-opacity="0"/></radialGradient><radialGradient cx="305.15932" cy="173.20063" r="5" gradientUnits="userSpaceOnUse" id="color-17"><stop offset="0" stop-color="#005907" stop-opacity="0.70196"/><stop offset="1" stop-color="#005907" stop-opacity="0"/></radialGradient><radialGradient cx="305.15932" cy="174.31174" r="5" gradientUnits="userSpaceOnUse" id="color-18"><stop offset="0" stop-color="#005907" stop-opacity="0.70196"/><stop offset="1" stop-color="#005907" stop-opacity="0"/></radialGradient></defs><g transform="translate(-254.04207,-108.70474)"><g data-paper-data="{&quot;isPaintingLayer&quot;:true}" fill-rule="nonzero" stroke-linecap="butt" stroke-linejoin="miter" stroke-miterlimit="10" stroke-dasharray="" stroke-dashoffset="0" style="mix-blend-mode: normal"><path d="M299.03002,173.75622c0,-11.08079 8.98273,-20.06352 20.06353,-20.06352c11.0808,0 20.06353,8.98273 20.06353,20.06352c0,11.08079 -8.98273,20.06352 -20.06353,20.06352c-11.0808,0 -20.06353,-8.98273 -20.06353,-20.06352z" fill="url(#color-1)" stroke="none" stroke-width="0"/><path d="M276.54207,173.75622c0,-23.50056 19.05092,-42.55148 42.55148,-42.55148c23.50056,0 42.55148,19.05092 42.55148,42.55148c0,23.50056 -19.05092,42.55148 -42.55148,42.55148c-23.50056,0 -42.55148,-19.05092 -42.55148,-42.55148z" fill="none" stroke="url(#color-2)" stroke-width="45"/><g fill-opacity="0.50196" fill="#5900ff" stroke-width="0"><path d="M316.66667,198.27781v-11.22222h2.22222v11.22222z" stroke="url(#color-3)"/><path d="M317.77778,196.83333v-11.22222h2.22222v11.22222z" stroke="url(#color-4)"/><path d="M317.77778,191.22222v-11.22222h2.22222v11.22222z" stroke="url(#color-5)"/><path d="M316.66667,191.22222v-11.22222h2.22222v11.22222z" stroke="url(#color-6)"/></g><g fill-opacity="0.50196" fill="#5900ff" stroke-width="0"><path d="M345.69445,175.42287h-11.22222v-2.22222h11.22222z" stroke="url(#color-7)"/><path d="M344.25,174.31174h-11.22222v-2.22222h11.22222z" stroke="url(#color-8)"/><path d="M338.63889,174.31174h-11.22222v-2.22222h11.22222z" stroke="url(#color-9)"/><path d="M338.63889,175.42287h-11.22222v-2.22222h11.22222z" stroke="url(#color-10)"/></g><g data-paper-data="{&quot;index&quot;:null}" fill-opacity="0.50196" fill="#5900ff" stroke-width="0"><path d="M318.88889,149.23458v11.22222h-2.22222v-11.22222z" stroke="url(#color-11)"/><path d="M320,150.67904v11.22222h-2.22222v-11.22222z" stroke="url(#color-12)"/><path d="M320,156.29017v11.22222h-2.22222v-11.22222z" stroke="url(#color-13)"/><path d="M318.88889,156.29017v11.22222h-2.22222v-11.22222z" stroke="url(#color-14)"/></g><g data-paper-data="{&quot;index&quot;:null}" fill-opacity="0.05098" fill="#5900ff" stroke-width="0"><path d="M292.49265,173.20065h11.22222v2.22222h-11.22222z" stroke="url(#color-15)"/><path d="M293.9371,172.08952h11.22222v2.22222h-11.22222z" stroke="url(#color-16)"/><path d="M299.54821,172.08952h11.22222v2.22222h-11.22222z" stroke="url(#color-17)"/><path d="M299.54821,173.20065h11.22222v2.22222h-11.22222z" stroke="url(#color-18)"/></g></g></g></svg>