<svg version="1.1" xmlns="http://www.w3.org/2000/svg" xmlns:xlink="http://www.w3.org/1999/xlink" width="299.33334" height="299.33334" viewBox="0,0,299.33334,299.33334"><defs><linearGradient x1="326.02033" y1="255.73725" x2="309.65389" y2="292.99541" gradientUnits="userSpaceOnUse" id="color-1"><stop offset="0" stop-color="#000000"/><stop offset="1" stop-color="#82c9ff"/></linearGradient><linearGradient x1="311.71018" y1="289.09372" x2="295.50396" y2="325.98715" gradientUnits="userSpaceOnUse" id="color-2"><stop offset="0" stop-color="#000000"/><stop offset="1" stop-color="#82c9ff"/></linearGradient><linearGradient x1="370.39168" y1="192.26075" x2="367.77658" y2="223.15567" gradientUnits="userSpaceOnUse" id="color-3"><stop offset="0" stop-color="#000000"/><stop offset="1" stop-color="#82c9ff"/></linearGradient><linearGradient x1="368.29727" y1="219.83596" x2="365.70776" y2="250.42843" gradientUnits="userSpaceOnUse" id="color-4"><stop offset="0" stop-color="#000000"/><stop offset="1" stop-color="#82c9ff"/></linearGradient><linearGradient x1="293.53722" y1="126.19617" x2="349.00991" y2="115.89174" gradientUnits="userSpaceOnUse" id="color-5"><stop offset="0" stop-color="#000000"/><stop offset="1" stop-color="#82c9ff"/></linearGradient><linearGradient x1="342.93371" y1="116.57838" x2="397.86336" y2="106.37482" gradientUnits="userSpaceOnUse" id="color-6"><stop offset="0" stop-color="#000000"/><stop offset="1" stop-color="#82c9ff"/></linearGradient><radialGradient cx="320.71814" cy="129.75414" r="55.04665" gradientUnits="userSpaceOnUse" id="color-7"><stop offset="0" stop-color="#81e9ff"/><stop offset="1" stop-color="#82bdff"/></radialGradient><radialGradient cx="321.56622" cy="249.81363" r="54.50775" gradientUnits="userSpaceOnUse" id="color-8"><stop offset="0" stop-color="#81e9ff"/><stop offset="1" stop-color="#82bdff"/></radialGradient><radialGradient cx="300.99307" cy="164.47958" r="12.50072" gradientUnits="userSpaceOnUse" id="color-9"><stop offset="0" stop-color="#000000"/><stop offset="1" stop-color="#82a8ff"/></radialGradient><radialGradient cx="300.99307" cy="164.47958" r="8.69932" gradientUnits="userSpaceOnUse" id="color-10"><stop offset="0" stop-color="#000000"/><stop offset="1" stop-color="#81e3ff"/></radialGradient><linearGradient x1="333.98371" y1="233.73902" x2="338.15583" y2="264.56208" gradientUnits="userSpaceOnUse" id="color-11"><stop offset="0" stop-color="#000000"/><stop offset="1" stop-color="#82c9ff"/></linearGradient><linearGradient x1="337.94225" y1="261.19784" x2="342.07353" y2="291.71916" gradientUnits="userSpaceOnUse" id="color-12"><stop offset="0" stop-color="#000000"/><stop offset="1" stop-color="#82c9ff"/></linearGradient><radialGradient cx="339.00693" cy="164.47958" r="12.50072" gradientUnits="userSpaceOnUse" id="color-13"><stop offset="0" stop-color="#000000"/><stop offset="1" stop-color="#82a8ff"/></radialGradient><radialGradient cx="339.00693" cy="164.47958" r="8.69932" gradientUnits="userSpaceOnUse" id="color-14"><stop offset="0" stop-color="#000000"/><stop offset="1" stop-color="#81e3ff"/></radialGradient><linearGradient x1="272.01537" y1="217.33012" x2="283.34605" y2="236.77537" gradientUnits="userSpaceOnUse" id="color-15"><stop offset="0" stop-color="#000000"/><stop offset="1" stop-color="#82c9ff"/></linearGradient><linearGradient x1="282.27095" y1="234.58598" x2="293.4907" y2="253.84089" gradientUnits="userSpaceOnUse" id="color-16"><stop offset="0" stop-color="#000000"/><stop offset="1" stop-color="#82c9ff"/></linearGradient><radialGradient cx="300.99307" cy="164.47958" r="28.97784" gradientUnits="userSpaceOnUse" id="color-17"><stop offset="0" stop-color="#ffffff" stop-opacity="0.51765"/><stop offset="1" stop-color="#ffffff" stop-opacity="0"/></radialGradient><radialGradient cx="339.00693" cy="164.47958" r="28.97784" gradientUnits="userSpaceOnUse" id="color-18"><stop offset="0" stop-color="#000000" stop-opacity="0.51765"/><stop offset="1" stop-color="#000000" stop-opacity="0"/></radialGradient><radialGradient cx="320" cy="180" r="149.66667" gradientUnits="userSpaceOnUse" id="color-19"><stop offset="0" stop-color="#000000" stop-opacity="0.51765"/><stop offset="1" stop-color="#000000" stop-opacity="0"/></radialGradient></defs><g transform="translate(-170.33333,-30.33333)"><g data-paper-data="{&quot;isPaintingLayer&quot;:true}" fill-rule="nonzero" stroke="none" stroke-width="0" stroke-linecap="butt" stroke-linejoin="miter" stroke-miterlimit="10" stroke-dasharray="" stroke-dashoffset="0" style="mix-blend-mode: normal"><g><path d="M328.32345,298.24337c0,0 -1.32557,0.15598 -3.03789,-0.59619c-4.32872,-1.90148 -23.33263,-10.24934 -30.63297,-13.45617c-1.78501,-0.78411 -2.1387,1.2753 -2.1387,1.2753c0,0 0.35198,-3.44263 2.12413,-4.92514c7.05496,-5.90192 25.02276,-20.93314 28.98111,-24.24455c1.50744,-1.26107 2.13385,-0.61079 2.13385,-0.61079c0,0 0.89629,-0.11602 0.98217,1.73528c0.22509,4.85184 1.24857,26.91129 1.70932,36.84207c0.13837,2.98239 -0.12103,3.9802 -0.12103,3.9802z" fill="url(#color-1)"/><path d="M293.36929,284.35928c0,0 0.37319,-1.05507 2.77137,-0.17471c8.28522,3.04143 27.14119,9.99227 30.7175,11.56324c1.14645,0.5036 1.60351,2.1809 1.60351,2.1809c0,0 -0.15012,1.70135 -1.50491,2.8347c-6.14628,5.14175 -23.576,19.72282 -28.16728,23.56373c-2.14817,1.7971 -3.50614,1.5631 -3.50614,1.5631c0,0 -1.0771,-0.54206 -1.19723,-3.13142c-0.25681,-5.5354 -1.23726,-26.66767 -1.66013,-35.78217c-0.12075,-2.60252 0.94331,-2.61735 0.94331,-2.61735z" fill="url(#color-2)"/></g><g><path d="M382.52969,222.33713c0,0 -0.9172,0.43919 -2.33708,0.31902c-3.58943,-0.30382 -19.3477,-1.63768 -25.40122,-2.15009c-1.48015,-0.12528 -1.22752,1.44659 -1.22752,1.44659c0,0 -0.59484,-2.56866 0.31733,-4.07428c3.63136,-5.99391 12.8798,-21.25943 14.91726,-24.62246c0.77591,-1.28073 1.38781,-0.96632 1.38781,-0.96632c0,0 0.61757,-0.30457 1.13583,1.00891c1.35823,3.44236 7.53368,19.09349 10.31375,26.13935c0.83491,2.116 0.89386,2.89929 0.89386,2.89929z" fill="url(#color-3)"/><path d="M353.90768,220.9437c0,0 0.00897,-0.85262 1.9549,-0.80909c6.72281,0.15039 22.03006,0.51354 24.99558,0.76456c0.95066,0.08047 1.69362,1.17703 1.69362,1.17703c0,0 0.31114,1.26356 -0.3862,2.41458c-3.16363,5.2219 -12.13512,20.03026 -14.49836,23.93103c-1.10571,1.8251 -2.14239,1.99114 -2.14239,1.99114c0,0 -0.91012,-0.1253 -1.635,-1.96244c-1.54961,-3.92734 -7.46549,-18.92063 -10.01705,-25.38734c-0.72856,-1.84648 0.0349,-2.11947 0.0349,-2.11947z" fill="url(#color-4)"/></g><g><path d="M340.46169,90.39869c0,0 1.21281,1.39769 1.68639,3.94714c1.19719,6.44492 6.45307,34.73933 8.47211,45.60862c0.49368,2.65765 3.1301,1.4566 3.1301,1.4566c0,0 -4.22055,2.28202 -7.30222,1.40722c-12.2682,-3.48259 -43.51326,-12.35217 -50.39662,-14.30616c-2.62136,-0.74412 -2.36465,-1.96938 -2.36465,-1.96938c0,0 -0.83214,-0.93682 1.22284,-2.47941c5.38564,-4.04276 29.8721,-22.42374 40.89548,-30.69852c3.31052,-2.48506 4.65655,-2.9661 4.65655,-2.9661z" fill="url(#color-5)"/><path d="M351.81414,141.29411c0,0 -1.50045,0.39527 -2.36211,-3.04029c-2.9769,-11.86917 -9.71867,-38.90423 -10.70777,-44.2289c-0.31708,-1.70692 1.24893,-3.53923 1.24893,-3.53923c0,0 2.06722,-1.15508 4.4231,-0.48629c10.68805,3.03403 40.99744,11.63801 48.98144,13.90443c3.73556,1.06041 4.52665,2.79945 4.52665,2.79945c0,0 0.21889,1.65742 -2.65537,3.815c-6.14441,4.61235 -29.60168,22.22073 -39.71897,29.81535c-2.88885,2.16854 -3.7359,0.96047 -3.7359,0.96047z" fill="url(#color-6)"/></g><g><path d="M372.67138,188.43854c0,0 -3.11362,2.2482 -8.17334,2.2482c-12.79082,0 -68.94502,0 -90.51662,0c-5.27447,0 -3.90987,6.74459 -3.90987,6.74459c0,0 -2.8739,-10.95456 -0.09746,-17.83979c11.05309,-27.41031 39.20348,-97.21988 45.40508,-112.59911c2.36172,-5.85677 4.62083,-4.7145 4.62083,-4.7145c0,0 2.09379,-1.55225 4.32083,3.97055c5.83657,14.47399 32.3733,80.28187 44.31967,109.90742c3.58771,8.89708 4.03088,12.28264 4.03088,12.28264z" fill="url(#color-7)"/><path d="M270.98586,192.91588c0,0 -0.22362,-3.71214 6.67436,-4.23928c23.83118,-1.82116 78.09888,-5.8776 88.66644,-5.8776c3.38763,0 6.34472,4.4964 6.34472,4.4964c0,0 1.47929,5.38189 -0.64327,10.64557c-9.62944,23.87985 -36.93682,91.59884 -44.13005,109.43717c-3.36557,8.34619 -6.98375,9.45017 -6.98375,9.45017c0,0 -3.25765,-0.20989 -6.37257,-7.93451c-6.65888,-16.5132 -32.08023,-79.55509 -43.04464,-106.74549c-3.13074,-7.76386 -0.51125,-9.23242 -0.51125,-9.23242z" fill="url(#color-8)"/></g><g><path d="M281.98614,164.18716c0,-2.21651 6.9936,-4.00968 7.98056,-5.83038c2.17712,-4.01621 6.42946,-6.74344 11.31878,-6.74344c4.47017,0 8.40789,2.27968 10.71402,5.73987c1.35971,2.04016 8.0005,4.49071 8.0005,7.12636c0,2.21211 -6.40655,4.29383 -7.38988,6.11197c-2.17534,4.02213 -6.43093,6.75426 -11.32464,6.75426c-5.20929,0 -9.6955,-3.09586 -11.71914,-7.54809c-0.73674,-1.62091 -7.5802,-3.71402 -7.5802,-5.61056z" fill="#82a8ff"/><path d="M288.49235,164.47958c0,-6.90395 5.59676,-12.50071 12.50072,-12.50071c6.90395,0 12.50071,5.59676 12.50071,12.50071c0,6.90395 -5.59676,12.50071 -12.50071,12.50071c-6.90395,0 -12.50072,-5.59676 -12.50072,-12.50071z" fill="url(#color-9)"/><path d="M292.29375,164.47958c0,-4.80451 3.89482,-8.69933 8.69932,-8.69933c4.80451,0 8.69932,3.89482 8.69932,8.69933c0,4.80451 -3.89482,8.69932 -8.69932,8.69932c-4.80451,0 -8.69932,-3.89482 -8.69932,-8.69932z" fill="url(#color-10)"/></g><g><path d="M352.4241,260.54539c0,0 -0.80243,0.62997 -2.21901,0.82171c-3.58108,0.48473 -19.30269,2.61277 -25.34214,3.43025c-1.4767,0.19989 -0.88676,1.68405 -0.88676,1.68405c0,0 -1.14227,-2.38568 -0.57717,-4.05881c2.24967,-6.66078 7.97921,-23.62469 9.24144,-27.36188c0.48068,-1.42321 1.14838,-1.2487 1.14838,-1.2487c0,0 0.53835,-0.43283 1.3321,0.74043c2.08021,3.07485 11.53821,17.05505 15.79603,23.34869c1.2787,1.89009 1.50713,2.64426 1.50713,2.64426z" fill="url(#color-11)"/><path d="M324.09299,265.41849c0,0 -0.17703,-0.83687 1.73797,-1.21831c6.61593,-1.31783 21.68434,-4.29812 24.64297,-4.69859c0.94844,-0.12838 1.91494,0.78349 1.91494,0.78349c0,0 0.58004,1.1695 0.14804,2.44859c-1.95991,5.80286 -7.51786,22.25877 -8.98192,26.59353c-0.685,2.02815 -1.66396,2.41666 -1.66396,2.41666c0,0 -0.91852,0.07566 -2.02871,-1.56535c-2.37331,-3.50805 -11.43377,-16.90065 -15.34161,-22.67697c-1.11583,-1.64935 -0.42771,-2.08304 -0.42771,-2.08304z" fill="url(#color-12)"/></g><g><path d="M320,164.18716c0,-2.21651 6.9936,-4.00968 7.98056,-5.83038c2.17712,-4.01621 6.42946,-6.74344 11.31878,-6.74344c4.47017,0 8.40789,2.27968 10.71402,5.73987c1.35971,2.04016 8.0005,4.49071 8.0005,7.12636c0,2.21211 -6.40655,4.29383 -7.38988,6.11197c-2.17534,4.02213 -6.43093,6.75426 -11.32464,6.75426c-5.20929,0 -9.6955,-3.09586 -11.71915,-7.54809c-0.73674,-1.62091 -7.5802,-3.71402 -7.5802,-5.61056z" fill="#82a8ff"/><path d="M326.50622,164.47958c0,-6.90395 5.59676,-12.50071 12.50072,-12.50071c6.90395,0 12.50071,5.59676 12.50071,12.50071c0,6.90395 -5.59675,12.50071 -12.50071,12.50071c-6.90395,0 -12.50072,-5.59676 -12.50072,-12.50071z" fill="url(#color-13)"/><path d="M330.3076,164.47958c0,-4.80451 3.89483,-8.69933 8.69933,-8.69933c4.80451,0 8.69932,3.89482 8.69932,8.69933c0,4.80451 -3.89482,8.69932 -8.69932,8.69932c-4.80451,0 -8.69933,-3.89482 -8.69933,-8.69932z" fill="url(#color-14)"/></g><g><path d="M291.76951,230.13648c0,0 -0.36174,0.64343 -1.25542,1.16417c-2.25918,1.31642 -12.17745,7.09575 -15.98753,9.31587c-0.93161,0.54284 -0.12598,1.37134 -0.12598,1.37134c0,0 -1.42461,-1.27797 -1.5106,-2.55286c-0.34229,-5.07539 -1.21406,-18.00156 -1.40611,-20.84923c-0.07313,-1.08446 0.4215,-1.15287 0.4215,-1.15287c0,0 0.23988,-0.43849 1.09555,0.12572c2.24252,1.47866 12.43842,8.20162 17.02844,11.22817c1.37847,0.90893 1.74016,1.34969 1.74016,1.34969z" fill="url(#color-15)"/><path d="M274.18407,241.24506c0,0 -0.35025,-0.51028 0.82399,-1.29594c4.05673,-2.71431 13.30222,-8.88223 15.16872,-9.96983c0.59834,-0.34865 1.49704,-0.00703 1.49704,-0.00703c0,0 0.7118,0.62093 0.77753,1.59557c0.2982,4.42167 1.14387,16.96076 1.36663,20.26376c0.10422,1.54541 -0.44242,2.07639 -0.44242,2.07639c0,0 -0.59296,0.30512 -1.78977,-0.48403c-2.55846,-1.687 -12.32583,-8.12737 -16.53856,-10.90515c-1.20289,-0.79316 -0.86315,-1.27373 -0.86315,-1.27373z" fill="url(#color-16)"/></g><path d="M272.01523,164.47958c0,-16.00402 12.97382,-28.97784 28.97784,-28.97784c16.00401,0 28.97784,12.97382 28.97784,28.97784c0,16.00402 -12.97382,28.97784 -28.97784,28.97784c-16.00401,0 -28.97784,-12.97382 -28.97784,-28.97784z" fill="url(#color-17)"/><path d="M310.02909,164.47958c0,-16.00402 12.97382,-28.97784 28.97784,-28.97784c16.00401,0 28.97784,12.97382 28.97784,28.97784c0,16.00402 -12.97382,28.97784 -28.97784,28.97784c-16.00401,0 -28.97784,-12.97382 -28.97784,-28.97784z" fill="url(#color-18)"/><path d="M170.33333,180c0,-82.6586 67.00805,-149.66667 149.66667,-149.66667c82.6586,0 149.66667,67.00805 149.66667,149.66667c0,82.6586 -67.00804,149.66667 -149.66667,149.66667c-82.6586,0 -149.66667,-67.00804 -149.66667,-149.66667z" fill="url(#color-19)"/></g></g></svg>