<svg version="1.1" xmlns="http://www.w3.org/2000/svg" xmlns:xlink="http://www.w3.org/1999/xlink" width="46.18742" height="46.18742" viewBox="0,0,46.18742,46.18742"><defs><radialGradient cx="320.00001" cy="183.625" r="23.09371" gradientUnits="userSpaceOnUse" id="color-1"><stop offset="0" stop-color="#4b06e8"/><stop offset="1" stop-color="#4b06e8" stop-opacity="0"/></radialGradient><radialGradient cx="320.00001" cy="187.75" r="10.23032" gradientUnits="userSpaceOnUse" id="color-2"><stop offset="0" stop-color="#9200ff"/><stop offset="1" stop-color="#3000ff"/></radialGradient><radialGradient cx="320.00001" cy="186.375" r="10.23032" gradientUnits="userSpaceOnUse" id="color-3"><stop offset="0" stop-color="#9200ff"/><stop offset="1" stop-color="#3000ff"/></radialGradient><radialGradient cx="320.00001" cy="185" r="10.23032" gradientUnits="userSpaceOnUse" id="color-4"><stop offset="0" stop-color="#9200ff"/><stop offset="1" stop-color="#3000ff"/></radialGradient><radialGradient cx="320.00001" cy="183.625" r="10.23032" gradientUnits="userSpaceOnUse" id="color-5"><stop offset="0" stop-color="#9200ff"/><stop offset="1" stop-color="#3000ff"/></radialGradient><radialGradient cx="320.00001" cy="182.25" r="10.23032" gradientUnits="userSpaceOnUse" id="color-6"><stop offset="0" stop-color="#9200ff"/><stop offset="1" stop-color="#3000ff"/></radialGradient><radialGradient cx="320.00001" cy="180.875" r="10.23032" gradientUnits="userSpaceOnUse" id="color-7"><stop offset="0" stop-color="#9200ff"/><stop offset="1" stop-color="#3000ff"/></radialGradient><radialGradient cx="320.00001" cy="175.75001" r="8.29522" gradientUnits="userSpaceOnUse" id="color-8"><stop offset="0" stop-color="#8f00ff"/><stop offset="1" stop-color="#3000ff"/></radialGradient><radialGradient cx="320.00001" cy="187.75001" r="7.38295" gradientUnits="userSpaceOnUse" id="color-9"><stop offset="0" stop-color="#704002" stop-opacity="0.24314"/><stop offset="1" stop-color="#704002" stop-opacity="0"/></radialGradient><radialGradient cx="318.48985" cy="187.3473" r="3.45656" gradientUnits="userSpaceOnUse" id="color-10"><stop offset="0" stop-color="#704002" stop-opacity="0.24314"/><stop offset="1" stop-color="#704002" stop-opacity="0"/></radialGradient><radialGradient cx="320.13424" cy="187.3473" r="3.45656" gradientUnits="userSpaceOnUse" id="color-11"><stop offset="0" stop-color="#704002" stop-opacity="0.24314"/><stop offset="1" stop-color="#704002" stop-opacity="0"/></radialGradient><radialGradient cx="321.04033" cy="188.15271" r="3.45656" gradientUnits="userSpaceOnUse" id="color-12"><stop offset="0" stop-color="#704002" stop-opacity="0.24314"/><stop offset="1" stop-color="#704002" stop-opacity="0"/></radialGradient><radialGradient cx="318.48985" cy="188.15271" r="3.45656" gradientUnits="userSpaceOnUse" id="color-13"><stop offset="0" stop-color="#704002" stop-opacity="0.24314"/><stop offset="1" stop-color="#704002" stop-opacity="0"/></radialGradient><radialGradient cx="320.00001" cy="178.99206" r="7.38295" gradientUnits="userSpaceOnUse" id="color-14"><stop offset="0" stop-color="#704002" stop-opacity="0.24314"/><stop offset="1" stop-color="#704002" stop-opacity="0"/></radialGradient><radialGradient cx="318.48985" cy="178.58935" r="3.45656" gradientUnits="userSpaceOnUse" id="color-15"><stop offset="0" stop-color="#704002" stop-opacity="0.24314"/><stop offset="1" stop-color="#704002" stop-opacity="0"/></radialGradient><radialGradient cx="320.13424" cy="178.58935" r="3.45656" gradientUnits="userSpaceOnUse" id="color-16"><stop offset="0" stop-color="#704002" stop-opacity="0.24314"/><stop offset="1" stop-color="#704002" stop-opacity="0"/></radialGradient><radialGradient cx="321.04033" cy="179.39476" r="3.45656" gradientUnits="userSpaceOnUse" id="color-17"><stop offset="0" stop-color="#704002" stop-opacity="0.24314"/><stop offset="1" stop-color="#704002" stop-opacity="0"/></radialGradient><radialGradient cx="318.48985" cy="179.39476" r="3.45656" gradientUnits="userSpaceOnUse" id="color-18"><stop offset="0" stop-color="#704002" stop-opacity="0.24314"/><stop offset="1" stop-color="#704002" stop-opacity="0"/></radialGradient></defs><g transform="translate(-296.9063,-160.5313)"><g data-paper-data="{&quot;isPaintingLayer&quot;:true}" fill-rule="nonzero" stroke-linecap="butt" stroke-linejoin="miter" stroke-miterlimit="10" stroke-dasharray="" stroke-dashoffset="0" style="mix-blend-mode: normal"><path d="M296.9063,183.625c0,-12.75429 10.3394,-23.0937 23.09371,-23.0937c12.75429,0 23.09371,10.3394 23.09371,23.09371c0,12.75429 -10.3394,23.09371 -23.0937,23.09371c-12.75429,0 -23.0937,-10.3394 -23.0937,-23.0937z" fill="url(#color-1)" stroke="#6e6e6e" stroke-width="0"/><path d="M313.79085,197.98032c-1.0451,0 -1.89231,-0.84722 -1.89231,-1.89231v-16.67601c0,-1.0451 0.84722,-1.89231 1.89231,-1.89231h12.41831c1.0451,0 1.89231,0.84722 1.89231,1.89231v16.67601c0,1.0451 -0.84722,1.89231 -1.89231,1.89231z" fill="url(#color-2)" stroke="#000000" stroke-width="1"/><path d="M313.79085,196.60532c-1.0451,0 -1.89231,-0.84722 -1.89231,-1.89231v-16.67601c0,-1.0451 0.84722,-1.89231 1.89231,-1.89231h12.41831c1.0451,0 1.89231,0.84722 1.89231,1.89231v16.67601c0,1.0451 -0.84722,1.89231 -1.89231,1.89231z" fill="url(#color-3)" stroke="#000000" stroke-width="1"/><path d="M313.79085,195.23032c-1.0451,0 -1.89231,-0.84722 -1.89231,-1.89231v-16.67601c0,-1.0451 0.84722,-1.89231 1.89231,-1.89231h12.41831c1.0451,0 1.89231,0.84722 1.89231,1.89231v16.67601c0,1.0451 -0.84722,1.89231 -1.89231,1.89231z" fill="url(#color-4)" stroke="#000000" stroke-width="1"/><path d="M313.79085,193.85532c-1.0451,0 -1.89231,-0.84722 -1.89231,-1.89231v-16.67601c0,-1.0451 0.84722,-1.89231 1.89231,-1.89231h12.41831c1.0451,0 1.89231,0.84722 1.89231,1.89231v16.67601c0,1.0451 -0.84722,1.89231 -1.89231,1.89231z" fill="url(#color-5)" stroke="#000000" stroke-width="1"/><path d="M313.79085,192.48032c-1.0451,0 -1.89231,-0.84722 -1.89231,-1.89231v-16.67601c0,-1.0451 0.84722,-1.89231 1.89231,-1.89231h12.41831c1.0451,0 1.89231,0.84722 1.89231,1.89231v16.67601c0,1.0451 -0.84722,1.89231 -1.89231,1.89231z" fill="url(#color-6)" stroke="#000000" stroke-width="1"/><path d="M313.79085,191.10532c-1.0451,0 -1.89231,-0.84722 -1.89231,-1.89231v-16.67601c0,-1.0451 0.84722,-1.89231 1.89231,-1.89231h12.41831c1.0451,0 1.89231,0.84722 1.89231,1.89231v16.67601c0,1.0451 -0.84722,1.89231 -1.89231,1.89231z" fill="url(#color-7)" stroke="#000000" stroke-width="1"/><path d="M312.1851,181.22921c1.12675,-2.17017 4.64849,-8.95317 6.56165,-12.63799c0.76101,-1.46574 1.74616,-1.51933 2.46869,-0.1277c1.84878,3.56082 5.29422,10.19689 6.40301,12.33247c0.99273,1.91203 0.42243,3.24923 -1.40903,3.24923c-4.01908,0 -10.76812,0 -12.87428,0c-1.23994,0 -1.83063,-1.50515 -1.15003,-2.81601z" fill="url(#color-8)" stroke="#000000" stroke-width="1.5"/><g stroke="none"><path d="M312.61706,187.75001c0,-4.07749 3.30546,-7.38295 7.38295,-7.38295c4.07749,0 7.38295,3.30546 7.38295,7.38295c0,4.07749 -3.30546,7.38295 -7.38295,7.38295c-4.07749,0 -7.38295,-3.30546 -7.38295,-7.38295z" fill="url(#color-9)" stroke-width="0"/><path d="M318.65765,188.90779c-0.59309,0 -1.07388,-0.48079 -1.07388,-1.07388v-0.16779c0,-0.59309 0.48079,-1.07388 1.07388,-1.07388h2.68471c0.59309,0 1.07388,0.48079 1.07388,1.07388v0.16779c0,0.59309 -0.48079,1.07388 -1.07388,1.07388z" fill="#f5d09f" stroke-width="NaN"/><path d="M315.03328,187.3473c0,-1.90901 1.54756,-3.45656 3.45656,-3.45656c1.909,0 3.45656,1.54755 3.45656,3.45656c0,1.90901 -1.54756,3.45656 -3.45656,3.45656c-1.909,0 -3.45656,-1.54755 -3.45656,-3.45656z" fill="url(#color-10)" stroke-width="0"/><path d="M316.67767,187.3473c0,-1.90901 1.54756,-3.45656 3.45656,-3.45656c1.909,0 3.45656,1.54755 3.45656,3.45656c0,1.90901 -1.54756,3.45656 -3.45656,3.45656c-1.909,0 -3.45656,-1.54755 -3.45656,-3.45656z" fill="url(#color-11)" stroke-width="0"/><path d="M317.58376,188.15271c0,-1.90901 1.54756,-3.45656 3.45656,-3.45656c1.909,0 3.45656,1.54755 3.45656,3.45656c0,1.90901 -1.54756,3.45656 -3.45656,3.45656c-1.909,0 -3.45656,-1.54755 -3.45656,-3.45656z" fill="url(#color-12)" stroke-width="0"/><path d="M315.03328,188.15271c0,-1.90901 1.54756,-3.45656 3.45656,-3.45656c1.909,0 3.45656,1.54755 3.45656,3.45656c0,1.90901 -1.54756,3.45656 -3.45656,3.45656c-1.909,0 -3.45656,-1.54755 -3.45656,-3.45656z" fill="url(#color-13)" stroke-width="0"/></g><g fill="#ff0000" stroke="#000000" stroke-width="0"><path d="M315.86706,181.51022c0,0 0.76224,-0.98126 0.76224,-1.62537c0,-0.47444 0.29751,-1.19044 0.106,-1.94796c-0.1896,-0.74989 -0.86824,-1.54369 -0.86824,-1.54369c0,0 1.57447,0.3863 1.57447,0.93269c0,1.0841 0,2.79836 0,3.37564c0,0.37616 -1.57447,0.80868 -1.57447,0.80868z"/><path d="M318.25018,177.18041c-0.37616,0 -0.80868,-1.57444 -0.80868,-1.57444c0,0 0.98124,0.76224 1.62537,0.76224c0.47442,0 1.19044,0.29751 1.94796,0.106c0.74989,-0.1896 1.54369,-0.86824 1.54369,-0.86824c0,0 -0.38628,1.57447 -0.93267,1.57447c-1.0841,0 -2.79836,0 -3.37564,0z"/><path d="M318.25018,177.18043c-0.37616,0 -0.80868,-1.57444 -0.80868,-1.57444c0,0 0.98126,0.76222 1.62537,0.76222c0.47442,0 1.19047,0.29751 1.94796,0.106c0.74989,-0.1896 1.54369,-0.86822 1.54369,-0.86822c0,0 -0.38628,1.57444 -0.93267,1.57444c-1.08408,0 -2.79836,0 -3.37564,0z"/><path d="M324.13295,176.63599c0,0 -0.76222,0.98124 -0.76222,1.62537c0,0.47442 -0.29751,1.19044 -0.106,1.94793c0.1896,0.74989 0.86822,1.54369 0.86822,1.54369c0,0 -1.57444,-0.38628 -1.57444,-0.93267c0,-1.08408 0,-2.79836 0,-3.37564c0,-0.37616 1.57444,-0.80868 1.57444,-0.80868z"/><path d="M318.25021,181.05056c0.57728,0 2.29156,0 3.37564,0c0.54639,0 0.93267,1.57444 0.93267,1.57444c0,0 -0.7938,-0.67862 -1.54369,-0.86822c-0.75749,-0.19151 -1.47354,0.106 -1.94796,0.106c-0.64411,0 -1.62537,0.76222 -1.62537,0.76222c0,0 0.43252,-1.57444 0.80868,-1.57444z" data-paper-data="{&quot;index&quot;:null}"/></g><g stroke="none"><path d="M312.61706,178.99206c0,-4.07749 3.30546,-7.38295 7.38295,-7.38295c4.07749,0 7.38295,3.30546 7.38295,7.38295c0,4.07749 -3.30546,7.38295 -7.38295,7.38295c-4.07749,0 -7.38295,-3.30546 -7.38295,-7.38295z" fill="url(#color-14)" stroke-width="0"/><path d="M318.65765,180.14984c-0.59309,0 -1.07388,-0.48079 -1.07388,-1.07388v-0.16779c0,-0.59309 0.48079,-1.07388 1.07388,-1.07388h2.68471c0.59309,0 1.07388,0.48079 1.07388,1.07388v0.16779c0,0.59309 -0.48079,1.07388 -1.07388,1.07388z" fill="#f5d09f" stroke-width="NaN"/><path d="M315.0333,178.58935c0,-1.90901 1.54756,-3.45656 3.45656,-3.45656c1.909,0 3.45656,1.54755 3.45656,3.45656c0,1.90901 -1.54756,3.45656 -3.45656,3.45656c-1.909,0 -3.45656,-1.54755 -3.45656,-3.45656z" fill="url(#color-15)" stroke-width="0"/><path d="M316.67767,178.58935c0,-1.90901 1.54756,-3.45656 3.45656,-3.45656c1.909,0 3.45656,1.54755 3.45656,3.45656c0,1.90901 -1.54756,3.45656 -3.45656,3.45656c-1.909,0 -3.45656,-1.54755 -3.45656,-3.45656z" fill="url(#color-16)" stroke-width="0"/><path d="M317.58376,179.39476c0,-1.90901 1.54756,-3.45656 3.45656,-3.45656c1.909,0 3.45656,1.54755 3.45656,3.45656c0,1.90901 -1.54756,3.45656 -3.45656,3.45656c-1.909,0 -3.45656,-1.54755 -3.45656,-3.45656z" fill="url(#color-17)" stroke-width="0"/><path d="M315.0333,179.39476c0,-1.90901 1.54756,-3.45656 3.45656,-3.45656c1.909,0 3.45656,1.54755 3.45656,3.45656c0,1.90901 -1.54756,3.45656 -3.45656,3.45656c-1.909,0 -3.45656,-1.54755 -3.45656,-3.45656z" fill="url(#color-18)" stroke-width="0"/></g></g></g></svg>