<svg version="1.1" xmlns="http://www.w3.org/2000/svg" xmlns:xlink="http://www.w3.org/1999/xlink" width="81.33334" height="81.33334" viewBox="0,0,81.33334,81.33334"><defs><linearGradient x1="293.85584" y1="180.02094" x2="341.77663" y2="180.02094" gradientUnits="userSpaceOnUse" id="color-1"><stop offset="0" stop-color="#13aaca"/><stop offset="1" stop-color="#00707f"/></linearGradient><radialGradient cx="320" cy="180" r="40.66667" gradientUnits="userSpaceOnUse" id="color-2"><stop offset="0" stop-color="#047f91" stop-opacity="0.49804"/><stop offset="1" stop-color="#047f91" stop-opacity="0"/></radialGradient></defs><g transform="translate(-279.33333,-139.33333)"><g data-paper-data="{&quot;isPaintingLayer&quot;:true}" fill-rule="nonzero" stroke-linecap="butt" stroke-linejoin="miter" stroke-miterlimit="10" stroke-dasharray="" stroke-dashoffset="0" style="mix-blend-mode: normal"><path d="M293.85584,191.75935c0,-7.38201 0,-20.14119 0,-24.09054c0,-2.29708 2.81124,-3.91813 5.57259,-3.01124c4.10214,1.34723 26.45869,8.6896 38.69694,12.7089c4.78173,1.57042 4.88285,3.65976 0.20874,5.18954c-11.86442,3.8831 -33.63945,11.01073 -39.19408,12.83499c-2.52193,0.82826 -5.28419,-0.41431 -5.28419,-3.63166z" fill="url(#color-1)" stroke="#ffffff" stroke-width="3.5"/><path d="M279.33333,180c0,-22.45958 18.20709,-40.66667 40.66667,-40.66667c22.45958,0 40.66667,18.20709 40.66667,40.66667c0,22.45958 -18.20709,40.66667 -40.66667,40.66667c-22.45958,0 -40.66667,-18.20709 -40.66667,-40.66667z" fill="url(#color-2)" stroke="none" stroke-width="0"/></g></g></svg>