<svg version="1.1" xmlns="http://www.w3.org/2000/svg" xmlns:xlink="http://www.w3.org/1999/xlink" width="223.03092" height="223.03092" viewBox="0,0,223.03092,223.03092"><defs><linearGradient x1="320" y1="108.05024" x2="320" y2="251.94976" gradientUnits="userSpaceOnUse" id="color-1"><stop offset="0" stop-color="#450089"/><stop offset="1" stop-color="#5a008a"/></linearGradient><radialGradient cx="258.67922" cy="205.8246" r="18.54231" gradientUnits="userSpaceOnUse" id="color-2"><stop offset="0" stop-color="#ff6e6e"/><stop offset="1" stop-color="#ffffff"/></radialGradient><radialGradient cx="324.19964" cy="189.86595" r="15.07085" gradientUnits="userSpaceOnUse" id="color-3"><stop offset="0" stop-color="#ff6e6e"/><stop offset="1" stop-color="#ffffff"/></radialGradient><radialGradient cx="277.15767" cy="164.66805" r="11.60459" gradientUnits="userSpaceOnUse" id="color-4"><stop offset="0" stop-color="#ff6e6e"/><stop offset="1" stop-color="#ffffff"/></radialGradient><radialGradient cx="325.03958" cy="247.89433" r="18.54217" gradientUnits="userSpaceOnUse" id="color-5"><stop offset="0" stop-color="#ff6e6e"/><stop offset="1" stop-color="#ffffff"/></radialGradient><radialGradient cx="366.23902" cy="225.21669" r="7.91872" gradientUnits="userSpaceOnUse" id="color-6"><stop offset="0" stop-color="#ff6e6e"/><stop offset="1" stop-color="#ffffff"/></radialGradient><radialGradient cx="375.43538" cy="154.58889" r="18.54168" gradientUnits="userSpaceOnUse" id="color-7"><stop offset="0" stop-color="#ff6e6e"/><stop offset="1" stop-color="#ffffff"/></radialGradient><radialGradient cx="324.19963" cy="141.56998" r="15.76943" gradientUnits="userSpaceOnUse" id="color-8"><stop offset="0" stop-color="#ff6e6e"/><stop offset="1" stop-color="#ffffff"/></radialGradient><radialGradient cx="320.00001" cy="180" r="111.51546" gradientUnits="userSpaceOnUse" id="color-9"><stop offset="0" stop-color="#7a00d1" stop-opacity="0.67059"/><stop offset="1" stop-color="#7a00d1" stop-opacity="0"/></radialGradient></defs><g transform="translate(-208.48453,-68.48453)"><g data-paper-data="{&quot;isPaintingLayer&quot;:true}" fill-rule="nonzero" stroke-linejoin="miter" stroke-miterlimit="10" stroke-dasharray="" stroke-dashoffset="0" style="mix-blend-mode: normal"><path d="M332.6033,221.31796v26.57637" fill="#1d0034" stroke="#1d0034" stroke-width="8.5" stroke-linecap="round"/><path d="M366.23903,221.31796v26.57637" fill="none" stroke="#1d0034" stroke-width="8.5" stroke-linecap="round"/><path d="M248.05024,180c0,-39.73676 32.21301,-71.94976 71.94976,-71.94976c39.73676,0 71.94976,32.21301 71.94976,71.94976c0,39.73676 -32.21301,71.94976 -71.94976,71.94976c-39.73676,0 -71.94976,-32.21301 -71.94976,-71.94976z" fill="url(#color-1)" stroke="none" stroke-width="0" stroke-linecap="butt"/><g stroke="#000000" stroke-width="3.5" stroke-linecap="butt"><path d="M238.3481,215.33729c-5.2537,-11.22856 -0.41011,-24.59005 10.81843,-29.84377c11.22856,-5.2537 24.59005,-0.41011 29.84377,10.81843c5.2537,11.22856 0.41011,24.59005 -10.81843,29.84377c-11.22856,5.2537 -24.59005,0.41011 -29.84377,-10.81843z" fill="#a100d9"/><path d="M275.47407,197.96651c2.93402,6.27079 -2.20678,14.87247 -11.48235,19.21238c-9.27554,4.33991 -19.17335,2.77462 -22.10739,-3.49617c-2.93402,-6.27079 2.20678,-14.87247 11.48235,-19.21238c9.27554,-4.33991 19.17335,-2.77462 22.10739,3.49617z" fill="url(#color-2)"/></g><path d="M296.47605,221.31796v26.57637" fill="none" stroke="#1d0034" stroke-width="8.5" stroke-linecap="round"/><g stroke="#000000" stroke-width="3.5" stroke-linecap="butt"><path d="M306.8835,184.12157c3.17252,-9.56343 13.49707,-14.74429 23.06051,-11.57177c9.56343,3.17252 14.74429,13.49707 11.57177,23.06051c-3.17252,9.56343 -13.49707,14.74429 -23.06051,11.57177c-9.56343,-3.17252 -14.74429,-13.49707 -11.57177,-23.06051z" fill="#a100d9"/><path d="M338.50396,194.61118c-1.77175,5.34088 -9.6123,7.546 -17.51235,4.92528c-7.90005,-2.62072 -12.86801,-9.07488 -11.09625,-14.41576c1.77175,-5.34088 9.6123,-7.546 17.51235,-4.92528c7.90005,2.62072 12.86801,9.07487 11.09625,14.41575z" fill="url(#color-3)"/></g><g stroke="#000000" stroke-width="3.5" stroke-linecap="butt"><path d="M263.21036,166.34677c-0.92713,-7.70289 4.56571,-14.6989 12.26859,-15.62604c7.70289,-0.92713 14.6989,4.56571 15.62604,12.26859c0.92713,7.70289 -4.56571,14.6989 -12.26859,15.62604c-7.70289,0.92713 -14.6989,-4.56571 -15.62604,-12.26859z" fill="#a100d9"/><path d="M288.6791,163.28132c0.51777,4.30182 -4.22081,8.41 -10.58392,9.17587c-6.36311,0.76587 -11.94117,-2.10058 -12.45894,-6.4024c-0.51777,-4.30182 4.22081,-8.40999 10.58392,-9.17586c6.36311,-0.76587 11.94117,2.10058 12.45894,6.4024z" fill="url(#color-4)"/></g><g stroke="#000000" stroke-width="3.5" stroke-linecap="butt"><path d="M303.3377,242.16154c3.16614,-11.98561 15.44905,-19.13522 27.43466,-15.96909c11.98561,3.16614 19.13522,15.44905 15.96909,27.43466c-3.16614,11.98561 -15.44905,19.13522 -27.43466,15.96909c-11.98561,-3.16614 -19.13522,-15.44905 -15.96909,-27.43466z" fill="#a100d9"/><path d="M342.96681,252.63c-1.76818,6.69359 -11.22788,9.99958 -21.12882,7.38414c-9.90093,-2.61544 -16.49381,-10.16189 -14.72563,-16.85549c1.76818,-6.69359 11.22786,-9.99956 21.1288,-7.38413c9.90093,2.61544 16.49382,10.16189 14.72564,16.85549z" fill="url(#color-5)"/></g><g stroke="#000000" stroke-width="3.5" stroke-linecap="butt"><path d="M356.97089,222.76841c1.35215,-5.11864 6.59777,-8.172 11.71641,-6.81985c5.11864,1.35215 8.172,6.59777 6.81985,11.71641c-1.35215,5.11864 -6.59777,8.172 -11.71641,6.81985c-5.11864,-1.35215 -8.172,-6.59777 -6.81985,-11.71641z" fill="#a100d9"/><path d="M373.89514,227.23912c-0.75513,2.8586 -4.79504,4.27048 -9.02339,3.15352c-4.22835,-1.11697 -7.04394,-4.3398 -6.28881,-7.1984c0.75513,-2.8586 4.79504,-4.27048 9.02339,-3.1535c4.22835,1.11697 7.04395,4.3398 6.28882,7.1984z" fill="url(#color-6)"/></g><g stroke="#000000" stroke-width="3.5" stroke-linecap="butt"><path d="M354.1313,147.52158c3.90316,-11.76591 16.60547,-18.13993 28.37139,-14.23677c11.76591,3.90316 18.13995,16.60547 14.23677,28.37139c-3.90316,11.76591 -16.60547,18.13993 -28.37139,14.23677c-11.76591,-3.90316 -18.13995,-16.60546 -14.23677,-28.37137z" fill="#a100d9"/><path d="M393.03399,160.42696c-2.17979,6.57089 -11.82603,9.28386 -21.54549,6.05959c-9.71945,-3.22428 -15.83153,-11.16483 -13.65173,-17.73572c2.17979,-6.57089 11.82602,-9.28386 21.54548,-6.05959c9.71945,3.22428 15.83154,11.16483 13.65174,17.73572z" fill="url(#color-7)"/></g><g stroke="#000000" stroke-width="3.5" stroke-linecap="butt"><path d="M305.2467,143.85118c-1.25987,-10.46742 6.20432,-19.97428 16.67173,-21.23416c10.46742,-1.25987 19.97428,6.20432 21.23416,16.67173c1.25987,10.46742 -6.20432,19.97428 -16.67173,21.23416c-10.46742,1.25987 -19.97428,-6.20432 -21.23416,-16.67173z" fill="#a100d9"/><path d="M339.85607,139.68554c0.70361,5.84572 -5.73564,11.42831 -14.38244,12.46906c-8.6468,1.04074 -16.2268,-2.85448 -16.93038,-8.70019c-0.70361,-5.84572 5.73564,-11.4283 14.38244,-12.46903c8.6468,-1.04074 16.2268,2.85447 16.93041,8.70019z" fill="url(#color-8)"/></g><path d="M208.48454,180c0,-61.58828 49.92718,-111.51546 111.51546,-111.51546c61.58828,0 111.51546,49.92718 111.51546,111.51546c0,61.58828 -49.92718,111.51546 -111.51546,111.51546c-61.58828,0 -111.51546,-49.92718 -111.51546,-111.51546z" fill="url(#color-9)" stroke="none" stroke-width="0" stroke-linecap="butt"/></g></g></svg>