<svg version="1.1" xmlns="http://www.w3.org/2000/svg" xmlns:xlink="http://www.w3.org/1999/xlink" width="43.22496" height="43.41981" viewBox="0,0,43.22496,43.41981"><defs><radialGradient cx="320.00001" cy="180" r="17.61248" gradientUnits="userSpaceOnUse" id="color-1"><stop offset="0" stop-color="#4200ff"/><stop offset="1" stop-color="#4200ff" stop-opacity="0"/></radialGradient><radialGradient cx="320.00001" cy="180" r="17.61248" gradientUnits="userSpaceOnUse" id="color-2"><stop offset="0" stop-color="#ff0000"/><stop offset="1" stop-color="#ff0000" stop-opacity="0"/></radialGradient><radialGradient cx="320" cy="180" r="14.99285" gradientUnits="userSpaceOnUse" id="color-3"><stop offset="0" stop-color="#ff0000"/><stop offset="1" stop-color="#ff0000" stop-opacity="0"/></radialGradient></defs><g transform="translate(-298.38753,-158.19266)"><g data-paper-data="{&quot;isPaintingLayer&quot;:true}" fill-rule="nonzero" stroke-linecap="butt" stroke-linejoin="miter" stroke-miterlimit="10" stroke-dasharray="" stroke-dashoffset="0" style="mix-blend-mode: normal"><path d="M302.38753,180c0,-9.72711 7.88537,-17.61248 17.61248,-17.61248c9.72711,0 17.61248,7.88537 17.61248,17.61248c0,9.72711 -7.88537,17.61248 -17.61248,17.61248c-9.72711,0 -17.61248,-7.88537 -17.61248,-17.61248z" fill="url(#color-1)" stroke="url(#color-2)" stroke-width="8"/><path d="M305.00716,180c0,-8.28033 6.71252,-14.99285 14.99285,-14.99285c8.28033,0 14.99285,6.71252 14.99285,14.99285c0,8.28033 -6.71252,14.99285 -14.99285,14.99285c-8.28033,0 -14.99285,-6.71252 -14.99285,-14.99285z" fill="none" stroke="url(#color-3)" stroke-width="8"/><text transform="translate(304.01814,162.63859) scale(0.09658,0.09658)" font-size="40" xml:space="preserve" fill="#ffffff" fill-rule="nonzero" stroke="none" stroke-width="1" stroke-linecap="butt" stroke-linejoin="miter" stroke-miterlimit="10" stroke-dasharray="" stroke-dashoffset="0" font-family="&quot;MV Boli&quot;, Technological" font-weight="normal" text-anchor="start" style="mix-blend-mode: normal"><tspan x="0" dy="0">Warp Gate Guard</tspan></text></g></g></svg>