<svg version="1.1" xmlns="http://www.w3.org/2000/svg" xmlns:xlink="http://www.w3.org/1999/xlink" width="59.43742" height="59.43742" viewBox="0,0,59.43742,59.43742"><defs><radialGradient cx="320.00001" cy="180" r="29.71871" gradientUnits="userSpaceOnUse" id="color-1"><stop offset="0" stop-color="#ffce00"/><stop offset="1" stop-color="#ffce00" stop-opacity="0"/></radialGradient><radialGradient cx="320" cy="180" r="15.34129" gradientUnits="userSpaceOnUse" id="color-2"><stop offset="0" stop-color="#271500"/><stop offset="1" stop-color="#592b00"/></radialGradient><radialGradient cx="320" cy="184.15924" r="6.97332" gradientUnits="userSpaceOnUse" id="color-3"><stop offset="0" stop-color="#271500"/><stop offset="1" stop-color="#592b00"/></radialGradient><radialGradient cx="319.66414" cy="170.92909" r="6.70766" gradientUnits="userSpaceOnUse" id="color-4"><stop offset="0" stop-color="#ffce00"/><stop offset="1" stop-color="#ffce00" stop-opacity="0"/></radialGradient><radialGradient cx="330.42296" cy="170.81033" r="6.70767" gradientUnits="userSpaceOnUse" id="color-5"><stop offset="0" stop-color="#ffce00"/><stop offset="1" stop-color="#ffce00" stop-opacity="0"/></radialGradient><radialGradient cx="309.17097" cy="171.07597" r="6.70766" gradientUnits="userSpaceOnUse" id="color-6"><stop offset="0" stop-color="#ffce00"/><stop offset="1" stop-color="#ffce00" stop-opacity="0"/></radialGradient><radialGradient cx="330.42296" cy="179.7096" r="6.70767" gradientUnits="userSpaceOnUse" id="color-7"><stop offset="0" stop-color="#ffce00"/><stop offset="1" stop-color="#ffce00" stop-opacity="0"/></radialGradient><radialGradient cx="330.42296" cy="188.7417" r="6.70767" gradientUnits="userSpaceOnUse" id="color-8"><stop offset="0" stop-color="#ffce00"/><stop offset="1" stop-color="#ffce00" stop-opacity="0"/></radialGradient><radialGradient cx="309.17096" cy="188.87453" r="6.70767" gradientUnits="userSpaceOnUse" id="color-9"><stop offset="0" stop-color="#ffce00"/><stop offset="1" stop-color="#ffce00" stop-opacity="0"/></radialGradient><radialGradient cx="309.17096" cy="179.84243" r="6.70766" gradientUnits="userSpaceOnUse" id="color-10"><stop offset="0" stop-color="#ffce00"/><stop offset="1" stop-color="#ffce00" stop-opacity="0"/></radialGradient><radialGradient cx="319.93359" cy="184.42489" r="6.70766" gradientUnits="userSpaceOnUse" id="color-11"><stop offset="0" stop-color="#ffce00"/><stop offset="1" stop-color="#ffce00" stop-opacity="0"/></radialGradient></defs><g transform="translate(-290.2813,-150.28131)"><g data-paper-data="{&quot;isPaintingLayer&quot;:true}" fill-rule="nonzero" stroke-linecap="butt" stroke-linejoin="miter" stroke-miterlimit="10" stroke-dasharray="" stroke-dashoffset="0" style="mix-blend-mode: normal"><path d="M290.2813,180c0,-16.41318 13.30552,-29.71869 29.71871,-29.71869c16.41318,0 29.71871,13.30552 29.71871,29.71871c0,16.41318 -13.30552,29.71871 -29.71869,29.71871c-16.41318,0 -29.71869,-13.30552 -29.71869,-29.71869z" fill="url(#color-1)" stroke="#6e6e6e" stroke-width="0"/><path d="M308.65871,195.34129c-2.20914,0 -4,-1.79086 -4,-4v-22.68258c0,-2.20914 1.79086,-4 4,-4h22.68258c2.20914,0 4,1.79086 4,4v22.68258c0,2.20914 -1.79086,4 -4,4z" fill="url(#color-2)" stroke="#000000" stroke-width="2"/><path d="M317.22593,191.13255c-2.20914,0 -4,-1.79086 -4,-4v-5.94663c0,-2.20914 1.79086,-4 4,-4h5.54815c2.20914,0 4,1.79086 4,4v5.94663c0,2.20914 -1.79086,4 -4,4z" fill="url(#color-3)" stroke="#000000" stroke-width="2"/><path d="M313.70765,183.76076c-1.22861,0 -1.30532,-5.99361 0.51332,-8.59876c1.45141,-2.07911 4.49581,-0.89084 6.30562,-0.88186c1.02432,0.00508 4.26443,-1.32697 5.51917,0.67848c1.75054,2.79787 1.27091,9.20062 -0.01588,9.20062c0,0 -1.03924,-3.18484 -2.69133,-4.82747c-0.94639,-0.94096 -2.62931,-0.75118 -3.0751,-0.75118c-0.48649,0 -2.25772,-0.16654 -3.77477,1.12825c-1.00569,0.85834 -2.78103,4.05193 -2.78103,4.05193z" fill="#ffce00" stroke="#000000" stroke-width="1"/><path d="M307.28012,191.79667c-0.27614,0 -0.5,-0.22386 -0.5,-0.5v-4.8443c0,-0.27614 0.22386,-0.5 0.5,-0.5h3.7817c0.27614,0 0.5,0.22386 0.5,0.5v4.8443c0,0.27614 -0.22386,0.5 -0.5,0.5z" fill="#ffce00" stroke="#000000" stroke-width="1"/><path d="M307.28012,182.76457c-0.27614,0 -0.5,-0.22386 -0.5,-0.5v-4.8443c0,-0.27614 0.22386,-0.5 0.5,-0.5h3.7817c0.27614,0 0.5,0.22386 0.5,0.5v4.8443c0,0.27614 -0.22386,0.5 -0.5,0.5z" fill="#ffce00" stroke="#000000" stroke-width="1"/><path d="M307.28012,173.99812c-0.27614,0 -0.5,-0.22386 -0.5,-0.5v-4.8443c0,-0.27614 0.22386,-0.5 0.5,-0.5h3.7817c0.27614,0 0.5,0.22386 0.5,0.5v4.8443c0,0.27614 -0.22386,0.5 -0.5,0.5z" fill="#ffce00" stroke="#000000" stroke-width="1"/><path d="M328.53212,173.73247c-0.27614,0 -0.5,-0.22386 -0.5,-0.5v-4.8443c0,-0.27614 0.22386,-0.5 0.5,-0.5h3.7817c0.27614,0 0.5,0.22386 0.5,0.5v4.8443c0,0.27614 -0.22386,0.5 -0.5,0.5z" fill="#ffce00" stroke="#000000" stroke-width="1"/><path d="M328.53212,182.63175c-0.27614,0 -0.5,-0.22386 -0.5,-0.5v-4.8443c0,-0.27614 0.22386,-0.5 0.5,-0.5h3.7817c0.27614,0 0.5,0.22386 0.5,0.5v4.8443c0,0.27614 -0.22386,0.5 -0.5,0.5z" fill="#ffce00" stroke="#000000" stroke-width="1"/><path d="M328.53212,191.66385c-0.27614,0 -0.5,-0.22386 -0.5,-0.5v-4.8443c0,-0.27614 0.22386,-0.5 0.5,-0.5h3.7817c0.27614,0 0.5,0.22386 0.5,0.5v4.8443c0,0.27614 -0.22386,0.5 -0.5,0.5z" fill="#ffce00" stroke="#000000" stroke-width="1"/><path d="M317.77329,173.85124c-0.27614,0 -0.5,-0.22386 -0.5,-0.5v-4.8443c0,-0.27614 0.22386,-0.5 0.5,-0.5h3.7817c0.27614,0 0.5,0.22386 0.5,0.5v4.8443c0,0.27614 -0.22386,0.5 -0.5,0.5z" fill="#ffce00" stroke="#000000" stroke-width="1"/><path d="M312.95648,170.92909c0,-3.70454 3.00312,-6.70767 6.70766,-6.70767c3.70454,0 6.70766,3.00313 6.70766,6.70767c0,3.70454 -3.00312,6.70766 -6.70766,6.70766c-3.70454,0 -6.70766,-3.00312 -6.70766,-6.70766z" fill="url(#color-4)" stroke="#000000" stroke-width="0"/><path d="M323.7153,170.81033c0,-3.70454 3.00312,-6.70766 6.70766,-6.70766c3.70454,0 6.70767,3.00312 6.70767,6.70766c0,3.70454 -3.00313,6.70766 -6.70767,6.70766c-3.70454,0 -6.70766,-3.00312 -6.70766,-6.70766z" fill="url(#color-5)" stroke="#000000" stroke-width="0"/><path d="M302.4633,171.07597c0,-3.70454 3.00312,-6.70766 6.70766,-6.70766c3.70454,0 6.70766,3.00312 6.70766,6.70766c0,3.70454 -3.00312,6.70766 -6.70766,6.70766c-3.70454,0 -6.70766,-3.00312 -6.70766,-6.70766z" fill="url(#color-6)" stroke="#000000" stroke-width="0"/><path d="M323.7153,179.7096c0,-3.70454 3.00312,-6.70767 6.70766,-6.70767c3.70454,0 6.70767,3.00313 6.70767,6.70767c0,3.70454 -3.00313,6.70766 -6.70767,6.70766c-3.70454,0 -6.70766,-3.00312 -6.70766,-6.70766z" fill="url(#color-7)" stroke="#000000" stroke-width="0"/><path d="M323.7153,188.7417c0,-3.70454 3.00312,-6.70767 6.70766,-6.70767c3.70454,0 6.70767,3.00313 6.70767,6.70767c0,3.70454 -3.00313,6.70766 -6.70767,6.70766c-3.70454,0 -6.70766,-3.00312 -6.70766,-6.70766z" fill="url(#color-8)" stroke="#000000" stroke-width="0"/><path d="M302.4633,188.87453c0,-3.70454 3.00312,-6.70766 6.70766,-6.70766c3.70454,0 6.70767,3.00312 6.70767,6.70766c0,3.70454 -3.00313,6.70766 -6.70767,6.70766c-3.70454,0 -6.70766,-3.00312 -6.70766,-6.70766z" fill="url(#color-9)" stroke="#000000" stroke-width="0"/><path d="M302.4633,179.84243c0,-3.70454 3.00312,-6.70766 6.70766,-6.70766c3.70454,0 6.70766,3.00312 6.70766,6.70766c0,3.70454 -3.00312,6.70766 -6.70766,6.70766c-3.70454,0 -6.70766,-3.00312 -6.70766,-6.70766z" fill="url(#color-10)" stroke="#000000" stroke-width="0"/><path d="M313.22592,184.42489c0,-3.70454 3.00312,-6.70766 6.70766,-6.70766c3.70454,0 6.70766,3.00312 6.70766,6.70766c0,3.70454 -3.00312,6.70766 -6.70766,6.70766c-3.70454,0 -6.70766,-3.00312 -6.70766,-6.70766z" fill="url(#color-11)" stroke="#000000" stroke-width="0"/></g></g></svg>