<svg version="1.1" xmlns="http://www.w3.org/2000/svg" xmlns:xlink="http://www.w3.org/1999/xlink" width="18" height="18" viewBox="0,0,18,18"><defs><radialGradient cx="320" cy="180" r="9" gradientUnits="userSpaceOnUse" id="color-1"><stop offset="0" stop-color="#2c7002" stop-opacity="0.24314"/><stop offset="1" stop-color="#2c7002" stop-opacity="0"/></radialGradient><radialGradient cx="318.73182" cy="180.28637" r="4.21363" gradientUnits="userSpaceOnUse" id="color-2"><stop offset="0" stop-color="#2c7002" stop-opacity="0.24314"/><stop offset="1" stop-color="#2c7002" stop-opacity="0"/></radialGradient><radialGradient cx="321.26818" cy="179.59091" r="4.21364" gradientUnits="userSpaceOnUse" id="color-3"><stop offset="0" stop-color="#2c7002" stop-opacity="0.24314"/><stop offset="1" stop-color="#2c7002" stop-opacity="0"/></radialGradient><radialGradient cx="320.16364" cy="180.28637" r="4.21364" gradientUnits="userSpaceOnUse" id="color-4"><stop offset="0" stop-color="#2c7002" stop-opacity="0.24314"/><stop offset="1" stop-color="#2c7002" stop-opacity="0"/></radialGradient><radialGradient cx="317.95455" cy="179.59091" r="4.21364" gradientUnits="userSpaceOnUse" id="color-5"><stop offset="0" stop-color="#2c7002" stop-opacity="0.24314"/><stop offset="1" stop-color="#2c7002" stop-opacity="0"/></radialGradient></defs><g transform="translate(-311,-171)"><g data-paper-data="{&quot;isPaintingLayer&quot;:true}" fill-rule="nonzero" stroke="none" stroke-linecap="butt" stroke-linejoin="miter" stroke-miterlimit="10" stroke-dasharray="" stroke-dashoffset="0" style="mix-blend-mode: normal"><path d="M311,180c0,-4.97056 4.02943,-9 9,-9c4.97057,0 9,4.02944 9,9c0,4.97056 -4.02943,9 -9,9c-4.97057,0 -9,-4.02944 -9,-9z" fill="url(#color-1)" stroke-width="0"/><path d="M318.36364,181.41137c-0.72299,0 -1.30909,-0.5861 -1.30909,-1.30909v-0.20455c0,-0.72299 0.5861,-1.30909 1.30909,-1.30909h3.27273c0.72299,0 1.30909,0.5861 1.30909,1.30909v0.20455c0,0.72299 -0.5861,1.30909 -1.30909,1.30909z" fill="#9ff4a8" stroke-width="NaN"/><g stroke-width="0"><path d="M314.51818,180.28637c0,-2.32713 1.88651,-4.21364 4.21364,-4.21364c2.32713,0 4.21363,1.88651 4.21363,4.21364c0,2.32713 -1.8865,4.21364 -4.21363,4.21364c-2.32713,0 -4.21364,-1.8865 -4.21364,-4.21364z" fill="url(#color-2)"/><path d="M317.05455,179.59091c0,-2.32713 1.88651,-4.21364 4.21363,-4.21364c2.32713,0 4.21364,1.8865 4.21364,4.21364c0,2.32713 -1.88652,4.21363 -4.21364,4.21363c-2.32713,0 -4.21363,-1.8865 -4.21363,-4.21363z" fill="url(#color-3)"/><path d="M315.95,180.28637c0,-2.32713 1.88651,-4.21364 4.21364,-4.21364c2.32713,0 4.21364,1.88651 4.21364,4.21364c0,2.32713 -1.88651,4.21364 -4.21364,4.21364c-2.32713,0 -4.21364,-1.8865 -4.21364,-4.21364z" fill="url(#color-4)"/><path d="M313.74091,179.59091c0,-2.32713 1.88651,-4.21364 4.21364,-4.21364c2.32713,0 4.21364,1.8865 4.21364,4.21364c0,2.32713 -1.88651,4.21363 -4.21364,4.21363c-2.32713,0 -4.21364,-1.8865 -4.21364,-4.21363z" fill="url(#color-5)"/></g></g></g></svg>