<svg version="1.1" xmlns="http://www.w3.org/2000/svg" xmlns:xlink="http://www.w3.org/1999/xlink" width="24.59375" height="24.59375" viewBox="0,0,24.59375,24.59375"><defs><radialGradient cx="236.6625" cy="178.8125" r="1.1875" gradientUnits="userSpaceOnUse" id="color-1"><stop offset="0" stop-color="#ffffff"/><stop offset="1" stop-color="#ffffff" stop-opacity="0"/></radialGradient><radialGradient cx="243.1625" cy="178.8125" r="1.1875" gradientUnits="userSpaceOnUse" id="color-2"><stop offset="0" stop-color="#ffffff"/><stop offset="1" stop-color="#ffffff" stop-opacity="0"/></radialGradient><radialGradient cx="240" cy="180" r="12.29688" gradientUnits="userSpaceOnUse" id="color-3"><stop offset="0" stop-color="#ffffff" stop-opacity="0.45158"/><stop offset="1" stop-color="#ffffff" stop-opacity="0"/></radialGradient></defs><g transform="translate(-227.70312,-167.70313)"><g data-paper-data="{&quot;isPaintingLayer&quot;:true}" fill-rule="nonzero" stroke="none" stroke-linecap="butt" stroke-linejoin="miter" stroke-miterlimit="10" stroke-dasharray="" stroke-dashoffset="0" style="mix-blend-mode: normal"><path d="M233.125,180c0,-3.79696 3.07804,-6.875 6.875,-6.875c3.79696,0 6.875,3.07804 6.875,6.875c0,3.79696 -3.07804,6.875 -6.875,6.875c-3.79696,0 -6.875,-3.07804 -6.875,-6.875z" fill="#4d4d4d" stroke-width="0"/><path d="M234.875,185.875c0,-2.83046 2.29454,-5.125 5.125,-5.125c2.83046,0 5.125,2.29454 5.125,5.125c0,2.83046 -2.29454,5.125 -5.125,5.125c-2.83046,0 -5.125,-2.29454 -5.125,-5.125z" fill="#4d4d4d" stroke-width="0"/><path d="M235.475,178.8125c0,-0.65584 0.53166,-1.1875 1.1875,-1.1875c0.65584,0 1.1875,0.53166 1.1875,1.1875c0,0.65584 -0.53166,1.1875 -1.1875,1.1875c-0.65584,0 -1.1875,-0.53166 -1.1875,-1.1875z" fill="url(#color-1)" stroke-width="0"/><path d="M241.975,178.8125c0,-0.65584 0.53166,-1.1875 1.1875,-1.1875c0.65584,0 1.1875,0.53166 1.1875,1.1875c0,0.65584 -0.53166,1.1875 -1.1875,1.1875c-0.65584,0 -1.1875,-0.53166 -1.1875,-1.1875z" fill="url(#color-2)" stroke-width="0"/><path d="M227.70312,180c0,-6.79138 5.5055,-12.29688 12.29688,-12.29688c6.79138,0 12.29688,5.5055 12.29688,12.29688c0,6.79138 -5.5055,12.29688 -12.29688,12.29688c-6.79138,0 -12.29687,-5.5055 -12.29687,-12.29687z" fill="url(#color-3)" stroke-width="NaN"/></g></g></svg>