<svg version="1.1" xmlns="http://www.w3.org/2000/svg" xmlns:xlink="http://www.w3.org/1999/xlink" width="17.37214" height="16.75" viewBox="0,0,17.37214,16.75"><defs><radialGradient cx="240.00001" cy="180.00002" r="3.78571" gradientUnits="userSpaceOnUse" id="color-1"><stop offset="0" stop-color="#2d7002" stop-opacity="0.46175"/><stop offset="1" stop-color="#2d7002" stop-opacity="0"/></radialGradient><radialGradient cx="235.20001" cy="181.00001" r="3.78571" gradientUnits="userSpaceOnUse" id="color-2"><stop offset="0" stop-color="#2d7002" stop-opacity="0.46175"/><stop offset="1" stop-color="#2d7002" stop-opacity="0"/></radialGradient><radialGradient cx="245" cy="181.00002" r="3.78571" gradientUnits="userSpaceOnUse" id="color-3"><stop offset="0" stop-color="#2d7002" stop-opacity="0.46175"/><stop offset="1" stop-color="#2d7002" stop-opacity="0"/></radialGradient></defs><g transform="translate(-231.41393,-171.62501)"><g data-paper-data="{&quot;isPaintingLayer&quot;:true}" fill-rule="nonzero" stroke-linejoin="miter" stroke-miterlimit="10" stroke-dasharray="" stroke-dashoffset="0" style="mix-blend-mode: normal"><path d="M232.125,184.34162c0,-3.27844 0,-7.89601 0,-9.57143c0,-1.21678 1.38078,-2.64518 2.48003,-2.64518c1.66091,0 6.50556,0 9.85714,0c1.96233,0 3.41283,0.89084 3.41283,2.21661c0,3.15745 0,8.78179 0,10.71429c0,1.28119 -1.456,2.8191 -3.41283,2.8191c-3.19217,0 -7.71715,0 -9.42857,0c-1.3138,0 -2.9086,-2.49755 -2.9086,-3.53339z" fill="#494949" stroke="#6e6e6e" stroke-width="1" stroke-linecap="butt"/><g><path d="M240,178.63542v2.7292" fill="none" stroke="#ffffff" stroke-width="2.5" stroke-linecap="round"/><path d="M236.21429,180.00002c0,-2.09079 1.69492,-3.78572 3.78572,-3.78572c2.09079,0 3.78571,1.69492 3.78571,3.78572c0,2.09079 -1.69492,3.78571 -3.78571,3.78571c-2.09079,0 -3.78572,-1.69492 -3.78572,-3.78571z" fill="url(#color-1)" stroke="none" stroke-width="0" stroke-linecap="butt"/></g><g><path d="M234.42795,179.87482l1.54409,2.2504" fill="none" stroke="#ffffff" stroke-width="2.5" stroke-linecap="round"/><path d="M232.07843,183.14185c-1.1829,-1.72399 -0.74426,-4.0805 0.97974,-5.26341c1.72399,-1.1829 4.08049,-0.74426 5.2634,0.97974c1.1829,1.72399 0.74426,4.08049 -0.97973,5.26339c-1.72399,1.1829 -4.0805,0.74426 -5.2634,-0.97973z" fill="url(#color-2)" stroke="none" stroke-width="0" stroke-linecap="butt"/></g><g data-paper-data="{&quot;index&quot;:null}"><path d="M245.77205,179.87482l-1.54409,2.25041" fill="none" stroke="#ffffff" stroke-width="2.5" stroke-linecap="round"/><path d="M242.85816,184.12158c-1.72399,-1.1829 -2.16263,-3.53941 -0.97973,-5.2634c1.18291,-1.724 3.53941,-2.16264 5.2634,-0.97974c1.724,1.18291 2.16263,3.53942 0.97973,5.26341c-1.1829,1.72399 -3.53941,2.16262 -5.2634,0.97973z" fill="url(#color-3)" stroke="none" stroke-width="0" stroke-linecap="butt"/></g></g></g></svg>