<svg version="1.1" xmlns="http://www.w3.org/2000/svg" xmlns:xlink="http://www.w3.org/1999/xlink" width="991.93056" height="849.03355" viewBox="0,0,991.93056,849.03355"><defs><linearGradient x1="319.91562" y1="363.77078" x2="319.91562" y2="287.19417" gradientUnits="userSpaceOnUse" id="color-1"><stop offset="0" stop-color="#f25100" stop-opacity="0.34902"/><stop offset="1" stop-color="#f25100" stop-opacity="0"/></linearGradient><linearGradient x1="319.91562" y1="-4.09713" x2="319.91562" y2="72.47945" gradientUnits="userSpaceOnUse" id="color-2"><stop offset="0" stop-color="#f55200" stop-opacity="0.34902"/><stop offset="1" stop-color="#f55200" stop-opacity="0"/></linearGradient><linearGradient x1="67.92492" y1="180.00001" x2="127.28533" y2="180.00001" gradientUnits="userSpaceOnUse" id="color-3"><stop offset="0" stop-color="#ff5500" stop-opacity="0.34902"/><stop offset="1" stop-color="#ff5500" stop-opacity="0"/></linearGradient><linearGradient x1="572.21967" y1="180.00004" x2="512.8593" y2="180.00004" gradientUnits="userSpaceOnUse" id="color-4"><stop offset="0" stop-color="#f05000" stop-opacity="0.34902"/><stop offset="1" stop-color="#f05000" stop-opacity="0"/></linearGradient></defs><g transform="translate(175.96528,244.51677)"><g data-paper-data="{&quot;isPaintingLayer&quot;:true}" fill-rule="nonzero" stroke="none" stroke-width="0" stroke-linecap="butt" stroke-linejoin="miter" stroke-miterlimit="10" stroke-dasharray="" stroke-dashoffset="0" style="mix-blend-mode: normal"><path d="M571.32436,287.19417v76.57657h-502.81744v-76.57657z" fill="url(#color-1)"/><path d="M68.50689,72.47945v-76.57657h502.81744v76.57657z" fill="url(#color-2)"/><path d="M127.28533,364.09715h-59.36039v-368.19425h59.36039z" fill="url(#color-3)"/><path d="M512.8593,-4.09712h59.36039v368.19425h-59.36039z" fill="url(#color-4)"/><g fill="#521c00"><path d="M-175.96528,448.4985v-540h244.51677v540z"/><path d="M571.4485,433.48349v-540h244.51678v540z"/><path d="M49.92685,-244.51677h540v244.51677h-540z"/><path d="M49.92685,360h540v244.51678h-540z"/></g></g></g></svg>