<svg version="1.1" xmlns="http://www.w3.org/2000/svg" xmlns:xlink="http://www.w3.org/1999/xlink" width="316.15708" height="302.63157" viewBox="0,0,316.15708,302.63157"><defs><radialGradient cx="283.09567" cy="119.927" r="151.31579" gradientUnits="userSpaceOnUse" id="color-1"><stop offset="0" stop-color="#621dab" stop-opacity="0.63137"/><stop offset="1" stop-color="#621dab" stop-opacity="0"/></radialGradient><radialGradient cx="347.21643" cy="109.92839" r="100.72053" gradientUnits="userSpaceOnUse" id="color-2"><stop offset="0" stop-color="#ffffec"/><stop offset="1" stop-color="#ffffec" stop-opacity="0"/></radialGradient><linearGradient x1="268.55867" y1="116.54558" x2="268.55867" y2="126.28278" gradientUnits="userSpaceOnUse" id="color-3"><stop offset="0" stop-color="#281f30"/><stop offset="1" stop-color="#3e0d73"/></linearGradient><linearGradient x1="259.18807" y1="126.4086" x2="259.18807" y2="133.17141" gradientUnits="userSpaceOnUse" id="color-4"><stop offset="0" stop-color="#3e0d73"/><stop offset="1" stop-color="#7223c4"/></linearGradient><linearGradient x1="237.48756" y1="133.79641" x2="256.00003" y2="133.79641" gradientUnits="userSpaceOnUse" id="color-5"><stop offset="0" stop-color="#370a66"/><stop offset="1" stop-color="#7223c4"/></linearGradient><linearGradient x1="237.48756" y1="151.7427" x2="256.00003" y2="151.7427" gradientUnits="userSpaceOnUse" id="color-6"><stop offset="0" stop-color="#370a66"/><stop offset="1" stop-color="#7223c4"/></linearGradient><linearGradient x1="246.74379" y1="117.10549" x2="246.74379" y2="122.06949" gradientUnits="userSpaceOnUse" id="color-7"><stop offset="0" stop-color="#281f30"/><stop offset="1" stop-color="#7223c4"/></linearGradient></defs><g transform="translate(-131.77988,31.38879)"><g data-paper-data="{&quot;isPaintingLayer&quot;:true}" fill-rule="nonzero" stroke-linecap="butt" stroke-linejoin="miter" stroke-miterlimit="10" stroke-dasharray="" stroke-dashoffset="0" style="mix-blend-mode: normal"><path d="M131.77988,119.927c0,-83.5694 67.74639,-151.31578 151.31579,-151.31578c83.5694,0 151.31579,67.74639 151.31579,151.31579c0,83.5694 -67.74638,151.31579 -151.31578,151.31579c-83.5694,0 -151.31578,-67.74639 -151.31578,-151.31578z" fill="url(#color-1)" stroke="none" stroke-width="0"/><path d="M246.4959,109.92839c0,-55.62641 45.09412,-100.72053 100.72053,-100.72053c55.62641,0 100.72053,45.09412 100.72053,100.72053c0,55.62641 -45.09412,100.72053 -100.72053,100.72053c-55.62641,0 -100.72053,-45.09412 -100.72053,-100.72053z" fill="url(#color-2)" stroke="none" stroke-width="0"/><path d="M246.74379,106.92008v-17.67382h47.75692v17.67382z" fill="#341654" stroke="#000000" stroke-width="1"/><path d="M255.39936,116.54558h26.31862c0,0 0,4.60573 0,6.39458c0,1.29333 -0.49084,2.30955 -0.49084,2.30955c0,0 -0.31806,1.03307 -1.2212,1.03307c-3.42391,0 -24.60658,0 -24.60658,0z" fill="url(#color-3)" stroke="#000000" stroke-width="1"/><path d="M255.50003,133.17141v-6.76281h7.37608c0,0 0,1.66934 0,2.64915c0,1.22097 -0.82645,3.08059 -0.82645,3.08059c0,0 -2.01913,1.03307 -3.31435,1.03307c-1.14488,0 -3.23528,0 -3.23528,0z" fill="url(#color-4)" stroke="#000000" stroke-width="1"/><path d="M237.48755,117.2964c0,0 0,-9.67445 0,-13.34671c0,-2.58067 1.95946,-4.81377 1.95946,-4.81377c0,0 2.28572,-6.51775 6.40491,-6.51775c5.6367,0 1.52752,-0.09315 21.1215,-0.17498c15.34945,-0.06411 23.18486,5.01988 30.2361,5.80395c3.03163,0.33711 12.7207,0.99095 20.01712,1.55432c4.90053,0.37839 6.54458,2.19726 6.54458,2.37068c0,0.40315 2.17718,1.79838 2.17718,4.74018c0,2.33569 0,4.71251 0,5.92524c0,2.55181 -1.0886,3.27382 -1.0886,3.27382c0,0 -0.55967,1.18504 -2.58859,1.18504c-9.74234,0 -84.78367,0 -84.78367,0z" fill="#281f30" stroke="#000000" stroke-width="1"/><path d="M237.48756,150.29641v-33h18.51246c0,0 0,8.76992 0,16.5186c0,0.84273 -2.73207,4.77257 -2.73207,5.57854c0,3.19992 2.73207,2.9117 2.73207,4.54548c0,0.73729 -2.45888,2.13886 -2.45888,2.89258c0,2.15705 2.45888,3.4648 2.45888,3.4648z" fill="url(#color-5)" stroke="#000000" stroke-width="1"/><path d="M238.60322,152.62219c0,0 -1.11567,-1.37983 -1.11567,-1.95329c0,-0.26428 0,-0.57911 0,-0.57911h18.51246c0,0 0,0.70922 0,1.15309c0,0.60648 -0.54092,1.82545 -0.54092,1.82545c0,0 -1.25541,0.32726 -2.75476,0.32726c-1.83133,0 -6.49738,0 -10.18377,0c-2.79886,0 -3.91733,-0.77341 -3.91733,-0.77341z" fill="url(#color-6)" stroke="#000000" stroke-width="1"/><path d="M237.48755,122.06949v-4.964h18.51248v4.964z" fill="url(#color-7)" stroke="none" stroke-width="0"/></g></g></svg>