<svg version="1.1" xmlns="http://www.w3.org/2000/svg" xmlns:xlink="http://www.w3.org/1999/xlink" width="97.09711" height="99.43045" viewBox="0,0,97.09711,99.43045"><defs><radialGradient cx="320" cy="180" r="21.41348" gradientUnits="userSpaceOnUse" id="color-1"><stop offset="0" stop-color="#673389"/><stop offset="1" stop-color="#543163"/></radialGradient><radialGradient cx="320" cy="180" r="46.33333" gradientUnits="userSpaceOnUse" id="color-2"><stop offset="0" stop-color="#7159a6" stop-opacity="0.60392"/><stop offset="1" stop-color="#7159a6" stop-opacity="0"/></radialGradient></defs><g transform="translate(-271.52997,-130.51919)"><g data-paper-data="{&quot;isPaintingLayer&quot;:true}" fill-rule="nonzero" stroke-linecap="butt" stroke-linejoin="miter" stroke-miterlimit="10" stroke-dasharray="" stroke-dashoffset="0" style="mix-blend-mode: normal"><path d="M307.14006,174.91781l-0.3427,9.46277c0,0 -6.88301,-1.2611 -11.19931,-2.05192c-2.76898,-0.50733 -8.0289,-3.36867 -12.84057,-6.26879c-5.46612,-3.29454 -10.22751,-10.12532 -10.22751,-10.12532c0,0 4.13895,5.22469 9.20763,6.93234c5.33765,1.79825 11.56636,3.56232 14.64351,3.22619c4.21344,-0.46029 10.75893,-1.17529 10.75893,-1.17529z" data-paper-data="{&quot;index&quot;:null}" fill="#413658" stroke="#ffffff" stroke-width="2"/><path d="M333.19662,182.39731l0.3427,-9.46277c0,0 6.88301,1.2611 11.19931,2.05193c2.76898,0.50733 8.0289,3.36868 12.84057,6.26879c5.46612,3.29454 10.22751,10.12533 10.22751,10.12533c0,0 -4.13895,-5.22469 -9.20764,-6.93234c-5.33765,-1.79824 -11.56635,-3.56232 -14.6435,-3.22619c-4.21344,0.46029 -10.75893,1.17529 -10.75893,1.17529z" data-paper-data="{&quot;index&quot;:null}" fill="#413658" stroke="#ffffff" stroke-width="2"/><path d="M315.59526,194.51918l9.46277,0.3427c0,0 -1.2611,6.88301 -2.05192,11.19931c-0.50733,2.76898 -3.36867,8.0289 -6.26879,12.84057c-3.29454,5.46612 -10.12533,10.22751 -10.12533,10.22751c0,0 5.22469,-4.13895 6.93234,-9.20763c1.79825,-5.33765 3.56232,-11.56635 3.22619,-14.64351c-0.46029,-4.21344 -1.17529,-10.75892 -1.17529,-10.75892z" data-paper-data="{&quot;index&quot;:null}" fill="#413658" stroke="#ffffff" stroke-width="2"/><path d="M324.74142,166.12928l-9.46277,-0.3427c0,0 1.2611,-6.88301 2.05192,-11.19931c0.50733,-2.76898 3.36868,-8.0289 6.26879,-12.84057c3.29454,-5.46612 10.12533,-10.22751 10.12533,-10.22751c0,0 -5.22469,4.13895 -6.93234,9.20763c-1.79825,5.33765 -3.56232,11.56635 -3.2262,14.64351c0.46029,4.21344 1.17529,10.75892 1.17529,10.75892z" data-paper-data="{&quot;index&quot;:null}" fill="#413658" stroke="#ffffff" stroke-width="2"/><path d="M298.58652,180c0,-11.82634 9.58714,-21.41348 21.41348,-21.41348c11.82634,0 21.41348,9.58714 21.41348,21.41348c0,11.82634 -9.58714,21.41348 -21.41348,21.41348c-11.82634,0 -21.41348,-9.58714 -21.41348,-21.41348z" fill="url(#color-1)" stroke="#ffffff" stroke-width="2"/><path d="M273.66667,180c0,-25.58919 20.74413,-46.33333 46.33333,-46.33333c25.5892,0 46.33333,20.74414 46.33333,46.33333c0,25.58919 -20.74413,46.33333 -46.33333,46.33333c-25.5892,0 -46.33333,-20.74414 -46.33333,-46.33333z" fill="url(#color-2)" stroke="none" stroke-width="0"/></g></g></svg>