<svg version="1.1" xmlns="http://www.w3.org/2000/svg" xmlns:xlink="http://www.w3.org/1999/xlink" width="22.94075" height="28" viewBox="0,0,22.94075,28"><g transform="translate(-309.3592,-165.03679)"><g data-paper-data="{&quot;isPaintingLayer&quot;:true}" fill-rule="nonzero" stroke-width="1" stroke-linecap="butt" stroke-linejoin="miter" stroke-miterlimit="10" stroke-dasharray="" stroke-dashoffset="0" style="mix-blend-mode: normal"><path d="M309.8592,185.99905c0,-4.56708 0,-10.99964 0,-13.33361c0,-1.69505 1.92351,-3.6849 3.45484,-3.6849c2.31375,0 9.06266,0 13.73162,0c2.73365,0 4.75429,1.241 4.75429,3.08788c0,4.39853 0,12.23359 0,14.92569c0,1.78478 -2.0283,3.92719 -4.75429,3.92719c-4.4469,0 -10.75048,0 -13.1346,0c-1.83021,0 -4.05186,-3.47925 -4.05186,-4.92224z" fill="#25394f" stroke="#6e6e6e"/><path d="M312.4592,179.95092c0,-4.62283 3.74755,-8.37038 8.37038,-8.37038c4.62283,0 8.37038,3.74755 8.37038,8.37038c0,4.62283 -3.74755,8.37038 -8.37038,8.37038c-4.62283,0 -8.37038,-3.74755 -8.37038,-8.37038z" fill-opacity="0.38039" fill="#e990da" stroke="#000000"/><text transform="translate(315.125,186.78679) scale(0.5,0.5)" font-size="40" xml:space="preserve" fill="#90dce8" fill-rule="nonzero" stroke="none" stroke-width="1" stroke-linecap="butt" stroke-linejoin="miter" stroke-miterlimit="10" stroke-dasharray="" stroke-dashoffset="0" font-family="Sans Serif" font-weight="normal" text-anchor="start" style="mix-blend-mode: normal"><tspan x="0" dy="0">+</tspan></text></g></g></svg>