<svg version="1.1" xmlns="http://www.w3.org/2000/svg" xmlns:xlink="http://www.w3.org/1999/xlink" width="16.75" height="16.75" viewBox="0,0,16.75,16.75"><defs><radialGradient cx="240" cy="176.25001" r="3.78571" gradientUnits="userSpaceOnUse" id="color-1"><stop offset="0" stop-color="#2d7002" stop-opacity="0.46175"/><stop offset="1" stop-color="#2d7002" stop-opacity="0"/></radialGradient><radialGradient cx="240" cy="183.85001" r="3.78571" gradientUnits="userSpaceOnUse" id="color-2"><stop offset="0" stop-color="#2d7002" stop-opacity="0.46175"/><stop offset="1" stop-color="#2d7002" stop-opacity="0"/></radialGradient><radialGradient cx="243.78572" cy="179.95" r="3.78571" gradientUnits="userSpaceOnUse" id="color-3"><stop offset="0" stop-color="#2d7002" stop-opacity="0.46175"/><stop offset="1" stop-color="#2d7002" stop-opacity="0"/></radialGradient><radialGradient cx="236.29999" cy="179.96428" r="3.78571" gradientUnits="userSpaceOnUse" id="color-4"><stop offset="0" stop-color="#2d7002" stop-opacity="0.46175"/><stop offset="1" stop-color="#2d7002" stop-opacity="0"/></radialGradient><radialGradient cx="243.78572" cy="183.65" r="3.78571" gradientUnits="userSpaceOnUse" id="color-5"><stop offset="0" stop-color="#2d7002" stop-opacity="0.46175"/><stop offset="1" stop-color="#2d7002" stop-opacity="0"/></radialGradient><radialGradient cx="236.21429" cy="176.25" r="3.78571" gradientUnits="userSpaceOnUse" id="color-6"><stop offset="0" stop-color="#2d7002" stop-opacity="0.46175"/><stop offset="1" stop-color="#2d7002" stop-opacity="0"/></radialGradient><radialGradient cx="236.21428" cy="183.65001" r="3.78571" gradientUnits="userSpaceOnUse" id="color-7"><stop offset="0" stop-color="#2d7002" stop-opacity="0.46175"/><stop offset="1" stop-color="#2d7002" stop-opacity="0"/></radialGradient><radialGradient cx="243.78571" cy="176.15001" r="3.78571" gradientUnits="userSpaceOnUse" id="color-8"><stop offset="0" stop-color="#2d7002" stop-opacity="0.46175"/><stop offset="1" stop-color="#2d7002" stop-opacity="0"/></radialGradient></defs><g transform="translate(-231.625,-171.625)"><g data-paper-data="{&quot;isPaintingLayer&quot;:true}" fill-rule="nonzero" stroke-linejoin="miter" stroke-miterlimit="10" stroke-dasharray="" stroke-dashoffset="0" style="mix-blend-mode: normal"><path d="M232.125,184.34161c0,-3.27844 0,-7.89601 0,-9.57143c0,-1.21678 1.38078,-2.64518 2.48003,-2.64518c1.66091,0 6.50556,0 9.85714,0c1.96233,0 3.41283,0.89084 3.41283,2.21661c0,3.15745 0,8.78179 0,10.71429c0,1.28119 -1.456,2.8191 -3.41283,2.8191c-3.19217,0 -7.71715,0 -9.42857,0c-1.3138,0 -2.9086,-2.49755 -2.9086,-3.53339z" fill="#494949" stroke="#6e6e6e" stroke-width="1" stroke-linecap="butt"/><g><g><path d="M239.99999,174.88541v2.7292" fill="none" stroke="#ffffff" stroke-width="2.5" stroke-linecap="round"/><path d="M236.21428,176.25001c0,-2.09079 1.69492,-3.78572 3.78572,-3.78572c2.09079,0 3.78571,1.69492 3.78571,3.78572c0,2.09079 -1.69492,3.78571 -3.78571,3.78571c-2.09079,0 -3.78572,-1.69492 -3.78572,-3.78571z" fill="url(#color-1)" stroke="none" stroke-width="0" stroke-linecap="butt"/></g><g><path d="M239.99999,182.48541v2.7292" fill="none" stroke="#ffffff" stroke-width="2.5" stroke-linecap="round"/><path d="M236.21428,183.85001c0,-2.09079 1.69492,-3.78572 3.78572,-3.78572c2.09079,0 3.78571,1.69492 3.78571,3.78572c0,2.09079 -1.69492,3.78571 -3.78571,3.78571c-2.09079,0 -3.78572,-1.69492 -3.78572,-3.78571z" fill="url(#color-2)" stroke="none" stroke-width="0" stroke-linecap="butt"/></g><g data-paper-data="{&quot;index&quot;:null}"><path d="M242.42112,179.95001h2.7292" fill="none" stroke="#ffffff" stroke-width="2.5" stroke-linecap="round"/><path d="M243.78572,183.73572c-2.09079,0 -3.78572,-1.69492 -3.78572,-3.78572c0,-2.09079 1.69492,-3.78571 3.78572,-3.78571c2.09079,0 3.78571,1.69492 3.78571,3.78571c0,2.09079 -1.69492,3.78572 -3.78571,3.78572z" fill="url(#color-3)" stroke="none" stroke-width="0" stroke-linecap="butt"/></g><g data-paper-data="{&quot;index&quot;:null}"><path d="M237.66459,179.96429h-2.7292" fill="none" stroke="#ffffff" stroke-width="2.5" stroke-linecap="round"/><path d="M232.51428,179.96428c0,-2.09079 1.69492,-3.78571 3.78571,-3.78571c2.0908,0 3.78572,1.69492 3.78572,3.78571c0,2.0908 -1.69493,3.78572 -3.78572,3.78572c-2.09079,0 -3.78571,-1.69493 -3.78571,-3.78572z" fill="url(#color-4)" stroke="none" stroke-width="0" stroke-linecap="butt"/></g><g data-paper-data="{&quot;index&quot;:null}"><path d="M242.82079,182.68509l1.92984,1.92984" fill="none" stroke="#ffffff" stroke-width="2.5" stroke-linecap="round"/><path d="M241.10881,186.32691c-1.47841,-1.47841 -1.47842,-3.8754 0,-5.35382c1.47841,-1.47841 3.87539,-1.47841 5.35381,0.00001c1.47841,1.47841 1.47841,3.87539 0,5.3538c-1.47841,1.47841 -3.8754,1.47842 -5.35381,0.00001z" fill="url(#color-5)" stroke="none" stroke-width="0" stroke-linecap="butt"/></g><g data-paper-data="{&quot;index&quot;:null}"><path d="M235.24937,175.28509l1.92983,1.92983" fill="none" stroke="#ffffff" stroke-width="2.5" stroke-linecap="round"/><path d="M233.53738,178.92691c-1.47841,-1.47841 -1.47842,-3.8754 0,-5.35382c1.47841,-1.47841 3.87539,-1.47841 5.35381,0.00001c1.47841,1.47841 1.47841,3.87539 0,5.3538c-1.47841,1.47841 -3.8754,1.47842 -5.35381,0.00001z" fill="url(#color-6)" stroke="none" stroke-width="0" stroke-linecap="butt"/></g><g data-paper-data="{&quot;index&quot;:null}"><path d="M237.17919,182.68508l-1.92983,1.92983" fill="none" stroke="#ffffff" stroke-width="2.5" stroke-linecap="round"/><path d="M233.53737,180.9731c1.47841,-1.47841 3.8754,-1.47842 5.35382,0c1.47841,1.47841 1.47841,3.87539 -0.00001,5.35381c-1.47841,1.47841 -3.87539,1.47841 -5.3538,0c-1.47841,-1.47841 -1.47842,-3.8754 -0.00001,-5.35381z" fill="url(#color-7)" stroke="none" stroke-width="0" stroke-linecap="butt"/></g><g data-paper-data="{&quot;index&quot;:null}"><path d="M244.75062,175.18508l-1.92983,1.92983" fill="none" stroke="#ffffff" stroke-width="2.5" stroke-linecap="round"/><path d="M241.1088,173.4731c1.47841,-1.47841 3.8754,-1.47842 5.35382,0c1.47841,1.47841 1.47841,3.87539 -0.00001,5.35381c-1.47841,1.47841 -3.87539,1.47841 -5.3538,0c-1.47841,-1.47841 -1.47842,-3.8754 -0.00001,-5.35381z" fill="url(#color-8)" stroke="none" stroke-width="0" stroke-linecap="butt"/></g></g></g></g></svg>