<svg version="1.1" xmlns="http://www.w3.org/2000/svg" xmlns:xlink="http://www.w3.org/1999/xlink" width="787.61656" height="787.61656" viewBox="0,0,787.61656,787.61656"><defs><radialGradient cx="379.78508" cy="44.40447" r="393.80828" gradientUnits="userSpaceOnUse" id="color-1"><stop offset="0" stop-color="#416c7d" stop-opacity="0.54118"/><stop offset="1" stop-color="#416c7d" stop-opacity="0"/></radialGradient><radialGradient cx="379.78508" cy="44.40446" r="128.04251" gradientUnits="userSpaceOnUse" id="color-2"><stop offset="0" stop-color="#ffffff" stop-opacity="0.38039"/><stop offset="1" stop-color="#ffffff" stop-opacity="0"/></radialGradient></defs><g transform="translate(14.0232,349.40381)"><g data-paper-data="{&quot;isPaintingLayer&quot;:true}" fill-rule="nonzero" stroke-linecap="butt" stroke-linejoin="miter" stroke-miterlimit="10" stroke-dasharray="" stroke-dashoffset="0" style="mix-blend-mode: normal"><path d="M354.61354,82.64637v-25.48758h11.03481v25.48758z" fill="#3998be" stroke="none" stroke-width="0"/><path d="M374.26768,82.64637v-25.48758h11.03481v25.48758z" fill="#3998be" stroke="none" stroke-width="0"/><path d="M394.55583,82.64637v-25.48758h11.03481v25.48758z" fill="#3998be" stroke="none" stroke-width="0"/><path d="M354.61353,31.23244v-25.48758h11.03481v25.48758z" fill="#3998be" stroke="none" stroke-width="0"/><path d="M374.26768,31.23244v-25.48758h11.03481v25.48758z" fill="#3998be" stroke="none" stroke-width="0"/><path d="M393.92183,31.23243v-25.48758h11.03481v25.48758z" fill="#3998be" stroke="none" stroke-width="0"/><path d="M205.97639,92.16058v-73.67194h114.02361v73.67194z" fill="#416b7c" stroke="none" stroke-width="0"/><path d="M205.97639,18.48864c0,0 0,-12.46735 0,-17.19976c0,-3.32567 4.56253,-11.7033 4.56253,-11.7033c0,0 5.32219,-2.89952 14.91359,-2.89952c13.12483,0 3.55676,-0.12005 49.18058,-0.22551c35.74059,-0.08262 53.98504,6.46907 70.40356,7.47948c7.05901,0.43444 29.61963,1.27704 46.60908,2.00302c11.41069,0.48763 15.23879,2.83158 15.23879,3.05508c0,0.51954 5.06948,2.31753 5.06948,6.10863c0,3.00998 0,6.07296 0,7.6358c0,3.28849 -2.53475,4.21894 -2.53475,4.21894c0,0 -1.30316,1.52715 -6.02742,1.52715c-22.68466,0 -197.41538,0 -197.41538,0z" fill="#686464" stroke="#000000" stroke-width="1"/><path d="M205.97645,69.90259c0,0 174.73072,0 197.41538,0c4.72426,0 6.02742,1.52715 6.02742,1.52715c0,0 2.53475,0.93045 2.53475,4.21894c0,1.56284 0,4.62582 0,7.6358c0,3.7911 -5.06948,5.58909 -5.06948,6.10863c0,0.2235 -3.8281,2.56745 -15.23879,3.05508c-16.98945,0.72598 -39.55007,1.56858 -46.60908,2.00302c-16.41852,1.01041 -34.66297,7.5621 -70.40356,7.47948c-45.62382,-0.10546 -36.05575,-0.22551 -49.18058,-0.22551c-9.5914,0 -14.91359,-2.89952 -14.91359,-2.89952c0,0 -4.56253,-8.37763 -4.56253,-11.7033c0,-4.73241 0,-17.19976 0,-17.19976z" data-paper-data="{&quot;index&quot;:null}" fill="#686464" stroke="#000000" stroke-width="1"/><g fill="#4c8ca7" stroke="#000000" stroke-width="1"><path d="M211.04843,61.9296v-32.02887h20.19091v32.02888z"/><path d="M231.23934,61.9296v-32.02887h20.19091v32.02888z"/><path d="M262.98819,61.12891v-32.02887h20.19091v32.02888z"/><path d="M251.43025,82.12051h-32.02887v-20.19091h32.02888z"/><path d="M251.43025,29.90073h-32.02887v-20.19091h32.02888z"/></g><g stroke="none" stroke-width="0"><path d="M-14.0232,44.40447c0,-217.4943 176.31398,-393.80828 393.80828,-393.80828c217.4943,0 393.80828,176.31398 393.80828,393.80828c0,217.4943 -176.31398,393.80828 -393.80828,393.80828c-217.4943,0 -393.80828,-176.31398 -393.80828,-393.80828z" fill="url(#color-1)"/><path d="M251.74256,44.40446c0,-70.71593 57.32659,-128.04251 128.04251,-128.04251c70.71593,0 128.04251,57.32659 128.04251,128.04251c0,70.71593 -57.32659,128.04251 -128.04251,128.04251c-70.71593,0 -128.04251,-57.32659 -128.04251,-128.04251z" fill="url(#color-2)"/></g></g></g></svg>