<svg version="1.1" xmlns="http://www.w3.org/2000/svg" xmlns:xlink="http://www.w3.org/1999/xlink" width="207.94106" height="201.44106" viewBox="0,0,207.94106,201.44106"><defs><radialGradient cx="348.72054" cy="110.5336" r="100.72053" gradientUnits="userSpaceOnUse" id="color-1"><stop offset="0" stop-color="#ffffec"/><stop offset="1" stop-color="#ffffec" stop-opacity="0"/></radialGradient><linearGradient x1="283.09563" y1="116.54558" x2="283.09563" y2="126.28278" gradientUnits="userSpaceOnUse" id="color-2"><stop offset="0" stop-color="#203123"/><stop offset="1" stop-color="#0d741e"/></linearGradient><linearGradient x1="259.18805" y1="126.4086" x2="259.18805" y2="133.17141" gradientUnits="userSpaceOnUse" id="color-3"><stop offset="0" stop-color="#0d741e"/><stop offset="1" stop-color="#24c539"/></linearGradient><linearGradient x1="242.00001" y1="133.79641" x2="256.00001" y2="133.79641" gradientUnits="userSpaceOnUse" id="color-4"><stop offset="0" stop-color="#0a6519"/><stop offset="1" stop-color="#24c539"/></linearGradient><linearGradient x1="242.00001" y1="151.7427" x2="256.00001" y2="151.7427" gradientUnits="userSpaceOnUse" id="color-5"><stop offset="0" stop-color="#0a6519"/><stop offset="1" stop-color="#23c439"/></linearGradient><linearGradient x1="249.00001" y1="117.1055" x2="249.00001" y2="122.06949" gradientUnits="userSpaceOnUse" id="color-6"><stop offset="0" stop-color="#203123"/><stop offset="1" stop-color="#23c439"/></linearGradient></defs><g transform="translate(-241.5,-9.81307)"><g data-paper-data="{&quot;isPaintingLayer&quot;:true}" fill-rule="nonzero" stroke-linecap="butt" stroke-linejoin="miter" stroke-miterlimit="10" stroke-dasharray="" stroke-dashoffset="0" style="mix-blend-mode: normal"><path d="M248.00001,110.5336c0,-55.62641 45.09412,-100.72053 100.72053,-100.72053c55.62641,0 100.72053,45.09412 100.72053,100.72053c0,55.62641 -45.09412,100.72053 -100.72053,100.72053c-55.62641,0 -100.72053,-45.09412 -100.72053,-100.72053z" fill="url(#color-1)" stroke="none" stroke-width="0"/><path d="M255.39934,116.54558h55.39258c0,0 0,4.60573 0,6.39458c0,1.29333 -1.03307,2.30955 -1.03307,2.30955c0,0 -0.66942,1.03307 -2.57025,1.03307c-7.20627,0 -51.78926,0 -51.78926,0z" fill="url(#color-2)" stroke="#000000" stroke-width="1"/><path d="M255.50001,133.17141v-6.76281h7.37608c0,0 0,1.66934 0,2.64915c0,1.22097 -0.82645,3.08059 -0.82645,3.08059c0,0 -2.01913,1.03307 -3.31435,1.03307c-1.14488,0 -3.23528,0 -3.23528,0z" fill="url(#color-3)" stroke="#000000" stroke-width="1"/><path d="M242.00001,117.29641c0,0 0,-6.74696 0,-9.30799c0,-1.79976 1.85951,-3.35712 1.85951,-3.35712c0,0 2.16912,-4.54548 6.07819,-4.54548c5.34917,0 1.4496,-0.06496 20.04407,-0.12203c14.56646,-0.04471 22.00218,3.50086 28.69373,4.04767c2.87698,0.2351 12.0718,0.69109 18.99603,1.08398c4.65055,0.26389 6.21073,1.53237 6.21073,1.65331c0,0.28116 2.06612,1.25419 2.06612,3.3058c0,1.62891 0,3.2865 0,4.13226c0,1.77963 -1.03307,2.28316 -1.03307,2.28316c0,0 -0.53112,0.82645 -2.45654,0.82645c-9.24537,0 -80.45877,0 -80.45877,0z" fill="#203123" stroke="#000000" stroke-width="1"/><g stroke="#000000" stroke-width="1"><path d="M242.00001,150.29641v-33h14c0,0 0,8.76992 0,16.5186c0,0.84273 -2.06612,4.77257 -2.06612,5.57854c0,3.19992 2.06612,2.9117 2.06612,4.54548c0,0.73729 -1.85952,2.13886 -1.85952,2.89258c0,2.15705 1.85952,3.4648 1.85952,3.4648z" fill="url(#color-4)"/><path d="M242.84373,152.62219c0,0 -0.84372,-1.37983 -0.84372,-1.95329c0,-0.26428 0,-0.5791 0,-0.5791h14c0,0 0,0.70922 0,1.15309c0,0.60648 -0.40908,1.82546 -0.40908,1.82546c0,0 -0.9494,0.32725 -2.08328,0.32725c-1.38494,0 -4.91363,0 -7.70146,0c-2.11663,0 -2.96247,-0.7734 -2.96247,-0.7734z" fill="url(#color-5)"/></g><path d="M242.00001,122.06949v-4.96399h14v4.96399z" fill="url(#color-6)" stroke="none" stroke-width="0"/></g></g></svg>