<svg version="1.1" xmlns="http://www.w3.org/2000/svg" xmlns:xlink="http://www.w3.org/1999/xlink" width="23.50083" height="23.50166" viewBox="0,0,23.50083,23.50166"><defs><radialGradient cx="321.18989" cy="180.31205" r="11.67013" gradientUnits="userSpaceOnUse" id="color-1"><stop offset="0" stop-color="#595903" stop-opacity="0.9098"/><stop offset="1" stop-color="#595903" stop-opacity="0"/></radialGradient></defs><g transform="translate(-309.35919,-168.48052)"><g data-paper-data="{&quot;isPaintingLayer&quot;:true}" fill-rule="nonzero" stroke-linecap="butt" stroke-linejoin="miter" stroke-miterlimit="10" stroke-dasharray="" stroke-dashoffset="0" style="mix-blend-mode: normal"><path d="M309.85919,185.99903c0,-4.56708 0,-10.99964 0,-13.33361c0,-1.69505 1.92351,-3.6849 3.45484,-3.6849c2.31375,0 9.06266,0 13.73162,0c2.73365,0 4.75429,1.241 4.75429,3.08788c0,4.39853 0,12.23359 0,14.92569c0,1.78478 -2.0283,3.92719 -4.75429,3.92719c-4.4469,0 -10.75048,0 -13.1346,0c-1.83021,0 -4.05186,-3.47925 -4.05186,-4.92224z" fill="#25394f" stroke="#6e6e6e" stroke-width="1"/><path d="M314.06954,181.06205c0,-1.32235 1.07198,-2.39433 2.39433,-2.39433c1.32235,0 2.39433,1.07198 2.39433,2.39433c0,1.32235 -1.07198,2.39433 -2.39433,2.39433c-1.32235,0 -2.39433,-1.07198 -2.39433,-2.39433z" fill="#d0d16b" stroke="none" stroke-width="0"/><path d="M315.66131,180.22121c0,-1.32235 1.07198,-2.39433 2.39433,-2.39433c1.32235,0 2.39433,1.07198 2.39433,2.39433c0,1.32235 -1.07198,2.39433 -2.39433,2.39433c-1.32235,0 -2.39433,-1.07198 -2.39433,-2.39433z" fill="#898a46" stroke="none" stroke-width="0"/><path d="M315.66131,177.82688c0,-1.32235 1.07198,-2.39433 2.39433,-2.39433c1.32235,0 2.39433,1.07198 2.39433,2.39433c0,1.32235 -1.07198,2.39433 -2.39433,2.39433c-1.32235,0 -2.39433,-1.07198 -2.39433,-2.39433z" fill="#747502" stroke="none" stroke-width="0"/><path d="M318.8582,178.66772c0,-1.32235 1.07198,-2.39433 2.39433,-2.39433c1.32235,0 2.39433,1.07198 2.39433,2.39433c0,1.32235 -1.07198,2.39433 -2.39433,2.39433c-1.32235,0 -2.39433,-1.07198 -2.39433,-2.39433z" fill="#747502" stroke="none" stroke-width="0"/><path d="M319.29556,181.06205c0,-1.32235 1.07198,-2.39433 2.39433,-2.39433c1.32235,0 2.39433,1.07198 2.39433,2.39433c0,1.32235 -1.07198,2.39433 -2.39433,2.39433c-1.32235,0 -2.39433,-1.07198 -2.39433,-2.39433z" fill="#747502" stroke="none" stroke-width="0"/><path d="M318.31217,183.45638c0,-1.32235 1.07198,-2.39433 2.39433,-2.39433c1.32235,0 2.39433,1.07198 2.39433,2.39433c0,1.32235 -1.07198,2.39433 -2.39433,2.39433c-1.32235,0 -2.39433,-1.07198 -2.39433,-2.39433z" fill="#898a24" stroke="none" stroke-width="0"/><path d="M322.54501,179.77937c0,-1.32235 1.07198,-2.39433 2.39433,-2.39433c1.32235,0 2.39433,1.07198 2.39433,2.39433c0,1.32235 -1.07198,2.39433 -2.39433,2.39433c-1.32235,0 -2.39433,-1.07198 -2.39433,-2.39433z" fill="#747502" stroke="none" stroke-width="0"/><path d="M321.25253,176.27339c0,-1.32235 1.07198,-2.39433 2.39433,-2.39433c1.32235,0 2.39433,1.07198 2.39433,2.39433c0,1.32235 -1.07198,2.39433 -2.39433,2.39433c-1.32235,0 -2.39433,-1.07198 -2.39433,-2.39433z" fill="#565704" stroke="none" stroke-width="0"/><path d="M318.05564,176.57268c0,-1.32235 1.07198,-2.39433 2.39433,-2.39433c1.32235,0 2.39433,1.07198 2.39433,2.39433c0,1.32235 -1.07198,2.39433 -2.39433,2.39433c-1.32235,0 -2.39433,-1.07198 -2.39433,-2.39433z" fill="#757502" stroke="none" stroke-width="0"/><path d="M322.20296,183.49913c0,-1.32235 1.07198,-2.39433 2.39433,-2.39433c1.32235,0 2.39433,1.07198 2.39433,2.39433c0,1.32235 -1.07198,2.39433 -2.39433,2.39433c-1.32235,0 -2.39433,-1.07198 -2.39433,-2.39433z" fill="#d0d16b" stroke="none" stroke-width="0"/><path d="M309.51976,180.31205c0,-6.44523 5.22489,-11.67013 11.67013,-11.67013c6.44523,0 11.67013,5.22489 11.67013,11.67013c0,6.44523 -5.22489,11.67013 -11.67013,11.67013c-6.44523,0 -11.67013,-5.22489 -11.67013,-11.67013z" fill="url(#color-1)" stroke="none" stroke-width="0"/></g></g></svg>