<svg version="1.1" xmlns="http://www.w3.org/2000/svg" xmlns:xlink="http://www.w3.org/1999/xlink" width="350.478" height="321.8369" viewBox="0,0,350.478,321.8369"><defs><linearGradient x1="363.74772" y1="91.90154" x2="363.74772" y2="313.41686" gradientUnits="userSpaceOnUse" id="color-1"><stop offset="0" stop-color="#534278"/><stop offset="1" stop-color="#342448"/></linearGradient><linearGradient x1="309.67886" y1="103.11976" x2="309.67886" y2="114.4263" gradientUnits="userSpaceOnUse" id="color-2"><stop offset="0" stop-color="#493561"/><stop offset="1" stop-color="#0d021a"/></linearGradient><radialGradient cx="320" cy="180" r="154.76054" gradientUnits="userSpaceOnUse" id="color-3"><stop offset="0" stop-color="#483766" stop-opacity="0.2902"/><stop offset="1" stop-color="#483766" stop-opacity="0"/></radialGradient></defs><g transform="translate(-165.23946,-25.23946)"><g data-paper-data="{&quot;isPaintingLayer&quot;:true}" fill-rule="nonzero" stroke-linecap="butt" stroke-linejoin="miter" stroke-miterlimit="10" stroke-dasharray="" stroke-dashoffset="0" style="mix-blend-mode: normal"><path d="M206.00002,194.27314l2,-54.15622c0,0 11.85218,10.83125 20.2352,10.83125c12.1714,0 44.7648,0 44.7648,0v34.65998c0,0 -36.64363,0 -48.7648,0c-7.20609,0 -18.2352,8.665 -18.2352,8.665z" fill="#2e1267" stroke="none" stroke-width="0"/><path d="M418.47093,254.12848c0,0 2.27265,0.31735 4.59386,5.63458c1.69525,3.88325 7.79587,9.96927 13.33662,14.97665c5.26158,4.75504 39.06811,12.21992 39.06811,12.21992c0,0 -35.97735,-7.03515 -43.23803,-11.10831c-6.39135,-3.58546 -13.04089,-7.72922 -15.45058,-10.63576c-3.75624,-4.53074 -9.74617,-11.75569 -9.74617,-11.75569l5.10285,1.02965z" data-paper-data="{&quot;index&quot;:null}" fill="#2e1267" stroke="none" stroke-width="0"/><path d="M370.85916,250.65101c0,0 3.60598,8.26026 5.92719,13.57749c1.69525,3.88325 7.79587,9.96927 13.33662,14.97665c5.26158,4.75504 39.06811,12.21992 39.06811,12.21992c0,0 -35.97735,-7.03515 -43.23803,-11.10831c-6.39135,-3.58546 -13.04089,-7.72922 -15.45058,-10.63576c-3.75624,-4.53074 -9.74617,-11.75569 -9.74617,-11.75569l10.10285,-7.2743z" data-paper-data="{&quot;index&quot;:null}" fill="#2e1267" stroke="none" stroke-width="0"/><path d="M343.70586,254.80651c0,0 2.28898,8.79432 3.76242,14.45531c1.07612,4.13434 6.15854,11.23347 10.85431,17.16823c4.45918,5.63569 36.65107,19.07966 36.65107,19.07966c0,0 -34.39846,-13.41081 -40.93354,-18.73379c-5.75264,-4.68563 -11.67424,-9.96829 -13.60467,-13.26801c-3.00916,-5.14365 -7.80775,-13.34598 -7.80775,-13.34598l11.07816,-5.35543z" data-paper-data="{&quot;index&quot;:null}" fill="#2e1267" stroke="none" stroke-width="0"/><path d="M376.35155,258.58677l-8.7367,-9.11648c0,0 7.08773,-5.94621 11.5324,-9.67504c2.85133,-2.39211 10.07853,-5.179 16.95941,-7.46667c7.81678,-2.59886 44.37571,-2.54131 44.37571,-2.54131c0,0 -34.49425,0.78633 -40.45701,4.44384c-6.27914,3.85161 -13.28744,8.65581 -15.59739,12.14745c-3.16289,4.78097 -8.07641,12.20819 -8.07641,12.20819z" fill="#2e1267" stroke="none" stroke-width="0"/><path d="M396.45273,258.23825l-5.17958,-10.61484c0,0 7.71947,-2.96885 12.56031,-4.8306c3.10548,-1.19435 10.11308,-1.37792 16.68847,-1.23531c7.46976,0.16196 39.186,11.51929 39.186,11.51929c0,0 -30.14668,-9.98629 -36.28634,-8.65598c-6.46544,1.40094 -13.81489,3.40314 -16.74035,5.71928c-4.00569,3.17141 -10.22851,8.09818 -10.22851,8.09818z" fill="#2e1267" stroke="none" stroke-width="0"/><path d="M353.69221,254.25426l-8.73671,-9.11648c0,0 7.08773,-5.94621 11.5324,-9.67504c2.85133,-2.39211 10.07853,-5.179 16.95941,-7.46667c7.81678,-2.59886 44.37571,-2.54131 44.37571,-2.54131c0,0 -34.49426,0.78633 -40.45702,4.44384c-6.27914,3.85161 -13.28744,8.65581 -15.59739,12.14745c-3.16289,4.78097 -8.0764,12.20819 -8.0764,12.20819z" fill="#2e1267" stroke="none" stroke-width="0"/><path d="M320.3327,301.3376l0.92216,8.75035c0,0 -6.00606,-0.20404 -9.77242,-0.33199c-2.41618,-0.08208 -7.24926,-1.98325 -11.70664,-3.98227c-5.06366,-2.2709 -23.93351,-19.2029 -23.93351,-19.2029c0,0 18.13546,15.54133 22.65821,16.40802c4.76274,0.91263 10.27772,1.67011 12.84744,0.93368c3.51861,-1.00837 8.98475,-2.57487 8.98475,-2.57487z" fill="#2e1267" stroke="none" stroke-width="0"/><path d="M319.8327,289.57901l0.92216,8.75034c0,0 -6.00606,-0.20404 -9.77242,-0.33199c-2.41618,-0.08208 -7.24926,-1.98325 -11.70664,-3.98227c-5.06366,-2.2709 -23.93351,-19.2029 -23.93351,-19.2029c0,0 18.13546,15.54133 22.65821,16.40802c4.76274,0.91263 10.27772,1.67011 12.84744,0.93368c3.51861,-1.00837 8.98475,-2.57487 8.98475,-2.57487z" fill="#2e1267" stroke="none" stroke-width="0"/><path d="M319.8327,289.57901l0.92216,8.75034c0,0 -6.00606,-0.20404 -9.77242,-0.33199c-2.41618,-0.08208 -7.24926,-1.98325 -11.70664,-3.98227c-5.06366,-2.2709 -23.93351,-19.2029 -23.93351,-19.2029c0,0 18.13546,15.54133 22.65821,16.40802c4.76274,0.91263 10.27772,1.67011 12.84744,0.93368c3.51861,-1.00837 8.98475,-2.57487 8.98475,-2.57487z" fill="#2e1267" stroke="none" stroke-width="0"/><path d="M458.71885,176.14353c0,0 2.27265,0.31735 4.59386,5.63458c1.69525,3.88325 7.79588,9.96928 13.33663,14.97666c5.26158,4.75504 39.06811,12.21992 39.06811,12.21992c0,0 -35.97735,-7.03514 -43.23803,-11.1083c-6.39135,-3.58546 -13.04089,-7.72922 -15.45058,-10.63576c-3.75624,-4.53074 -9.74617,-11.7557 -9.74617,-11.7557l5.10286,1.02965z" data-paper-data="{&quot;index&quot;:null}" fill="#2e1267" stroke="none" stroke-width="0"/><path d="M411.10706,172.66604c0,0 3.60598,8.26027 5.92719,13.57749c1.69525,3.88325 7.79587,9.96927 13.33662,14.97665c5.26158,4.75504 39.06811,12.21992 39.06811,12.21992c0,0 -35.97735,-7.03515 -43.23803,-11.10831c-6.39135,-3.58546 -13.04089,-7.72922 -15.45058,-10.63576c-3.75624,-4.53074 -9.74617,-11.7557 -9.74617,-11.7557l10.10285,-7.2743z" data-paper-data="{&quot;index&quot;:null}" fill="#2e1267" stroke="none" stroke-width="0"/><path d="M383.95381,176.82156c0,0 2.28898,8.79432 3.76243,14.45531c1.07612,4.13434 6.15854,11.23347 10.85431,17.16823c4.45918,5.63569 36.65107,19.07966 36.65107,19.07966c0,0 -34.39846,-13.4108 -40.93355,-18.73379c-5.75264,-4.68563 -11.67424,-9.96829 -13.60467,-13.26801c-3.00916,-5.14365 -7.80775,-13.34597 -7.80775,-13.34597z" data-paper-data="{&quot;index&quot;:null}" fill="#2e1267" stroke="none" stroke-width="0"/><path d="M450.88548,176.57032l-5.10286,1.02965c0,0 5.98993,-7.22496 9.74617,-11.75569c2.40969,-2.90653 9.05923,-7.05031 15.45058,-10.63576c7.26068,-4.07316 43.23803,-11.10831 43.23803,-11.10831c0,0 -33.80653,7.46487 -39.06811,12.21992c-5.54075,5.00738 -11.64137,11.09339 -13.33663,14.97666c-2.32121,5.31721 -4.59386,5.63458 -4.59386,5.63458z" fill="#2e1267" stroke="none" stroke-width="0"/><path d="M409.60705,180.40884l-10.10285,-7.2743c0,0 5.98993,-7.22496 9.74617,-11.7557c2.40969,-2.90653 9.05923,-7.05031 15.45058,-10.63576c7.26068,-4.07316 43.23803,-11.1083 43.23803,-11.1083c0,0 -33.80653,7.46487 -39.06811,12.21992c-5.54075,5.00738 -11.64137,11.09339 -13.33662,14.97666c-2.32121,5.31721 -5.92719,13.57749 -5.92719,13.57749z" fill="#2e1267" stroke="none" stroke-width="0"/><path d="M382.45378,176.25333l-11.07816,-5.35543c0,0 4.79859,-8.20233 7.80775,-13.34598c1.93043,-3.29972 7.85203,-8.58237 13.60467,-13.26801c6.53508,-5.32298 40.93355,-18.73379 40.93355,-18.73379c0,0 -32.19189,13.44396 -36.65107,19.07966c-4.69577,5.93476 -9.77819,13.03388 -10.85431,17.16823c-1.47345,5.661 -3.76243,14.45531 -3.76243,14.45531z" fill="#2e1267" stroke="none" stroke-width="0"/><path d="M313.6645,96.85284l-12.11589,0.66602c0,0 0.84417,-9.66726 1.37354,-15.72955c0.33961,-3.88906 3.40677,-11.50528 6.57321,-18.50643c3.59711,-7.95341 11.78603,-15.35848 11.78603,-15.35848c0,0 -6.20824,6.35117 -7.82413,13.56403c-1.7016,7.59559 -3.26051,16.4189 -2.4893,20.63239c1.05601,5.76937 2.69653,14.73203 2.69653,14.73203z" fill="#413658" stroke="none" stroke-width="0"/><path d="M303.7981,96.31127l-12.11589,0.66602c0,0 0.84417,-9.66726 1.37354,-15.72955c0.3396,-3.88906 3.40677,-11.50529 6.57321,-18.50643c3.59711,-7.95341 11.78604,-15.35848 11.78604,-15.35848c0,0 -6.20824,6.35117 -7.82413,13.56403c-1.7016,7.59559 -3.2605,16.41889 -2.4893,20.63238c1.05601,5.76937 2.69653,14.73203 2.69653,14.73203z" fill="#413658" stroke="none" stroke-width="0"/><path d="M330.51223,127.07607c0,-4.81816 9.75542,-8.32986 17.06984,-9.76088c2.37212,-0.46409 11.15418,3.62318 12.59683,3.62318c5.89103,0 -16.66666,1.5622 -16.66666,7.9429c0,6.38072 -1.33334,11.91437 -1.33334,11.91437c0,0 -11.66666,-7.33886 -11.66666,-13.71958z" fill="#16032e" stroke="none" stroke-width="0"/><path d="M367.24772,127.18468c0,0.58434 -14.66099,3.4344 -18.44995,5.16253c-2.02932,0.92557 -4.45393,1.60699 -7.11509,1.60699c-2.63787,0 -5.85306,-1.17008 -7.94967,-1.32093c-3.96767,-0.28549 -6.36536,-4.59076 -6.36536,-5.17782c0,-0.58862 2.16174,2.68679 6.14693,2.40178c0.95731,-0.06846 2.41069,0.21732 3.95706,0.54715c1.8293,0.39017 3.78874,0.84202 5.21105,0.84202c7.62984,0 24.56504,-4.95901 24.56504,-4.06172z" fill="#000000" stroke="none" stroke-width="0"/><g stroke-width="0"><path d="M224.50003,171.52754c0.53405,-23.11249 45.05292,-19.77544 51.61252,-25.7662c6.15598,-5.62214 6.01963,-48.57017 15.31297,-52.08344c11.93558,-4.51215 36.57552,-0.09777 51.33903,9.50267c9.4082,6.11797 13.05438,18.52325 19.23547,18.52325c2.67388,0 -20.67053,-4.76982 -23.93745,-1.32153c-2.37788,2.50989 -3.24382,6.01266 -4.5665,8.48122c-1.55731,2.90646 9.13846,11.62874 9.13846,11.62874c0,0 -23.9589,6.9375 -11.54573,10.89794c6.79469,2.16785 16.72755,11.50724 29.87561,13.79875c52.71409,9.18728 142.03562,11.21268 142.03562,11.21268c0,0 -86.33199,-1.84355 -134.17518,16.08868c-20.60745,7.72394 -23.48602,32.34943 -26.73874,40.51377c-1.90176,4.77342 110.28137,24.05424 110.28137,24.05424c0,0 -119.18082,1.90598 -120.69079,7.46642c-7.36502,27.12141 -9.67665,48.89214 -9.67665,48.89214c0,0 -7.57038,-39.47 -24.4189,-78.818c-6.49077,-15.15853 -15.66861,-29.79771 -22.54597,-42.21072c-5.50439,-9.9349 -51.06918,2.25192 -50.53513,-20.86056z" fill="url(#color-1)" stroke="none"/><path d="M270.80683,344.11996c-1.58306,-0.32581 45.414,7.28379 46.99345,-16.85138c0.51599,-7.88464 1.13702,-15.25341 1.79459,-21.59049c1.35528,-13.06097 0.53242,-22.1006 1.59832,-21.88122c1.58306,0.32581 1.586,20.15536 0.00655,44.29054c-1.57945,24.13518 -48.80984,16.35838 -50.39291,16.03257z" fill="#342448" stroke="#000000"/><path d="M322.84936,328.08736c-1.57945,-24.13518 -1.57651,-43.96472 0.00655,-44.29054c1.05433,-0.21699 0.21031,8.99397 1.55414,21.81857c0.67392,6.4314 2.31124,13.23109 2.83877,21.2921c1.57945,24.13518 35.90985,19.05286 34.32679,19.37868c-1.58306,0.32581 -37.14679,5.93637 -38.72625,-18.19881z" data-paper-data="{&quot;index&quot;:null}" fill="#342448" stroke="#000000"/></g><path d="M325.17886,108.77304c0,0 -6.93959,6.31822 -15.5,6.31822c-8.56041,0 -15.5,-6.31822 -15.5,-6.31822c0,0 6.93959,-6.31823 15.5,-6.31823c8.56041,0 15.5,6.31823 15.5,6.31823z" fill="#000000" stroke="none" stroke-width="0"/><path d="M318.75613,108.77304c0,3.12222 -4.06402,5.65326 -9.07723,5.65326c-5.01322,0 -9.07723,-2.53105 -9.07723,-5.65326c0,-3.12222 4.06402,-5.65326 9.07723,-5.65326c5.01322,0 9.07723,2.53105 9.07723,5.65326z" fill="url(#color-2)" stroke="none" stroke-width="0"/><path d="M311.01223,109.13407c0,0.69789 -0.44772,1.26365 -1,1.26365c-0.55228,0 -1,-0.56575 -1,-1.26365c0,-0.69789 0.44772,-1.26365 1,-1.26365c0.55228,0 1,0.56575 1,1.26365z" fill="#780cff" stroke="none" stroke-width="0"/><path d="M165.23946,180c0,-85.47188 69.28866,-154.76054 154.76054,-154.76054c85.47188,0 154.76054,69.28866 154.76054,154.76054c0,85.47188 -69.28866,154.76054 -154.76054,154.76054c-85.47188,0 -154.76054,-69.28866 -154.76054,-154.76054z" fill="url(#color-3)" stroke="none" stroke-width="none"/></g></g></svg>