<svg version="1.1" xmlns="http://www.w3.org/2000/svg" xmlns:xlink="http://www.w3.org/1999/xlink" width="45.09404" height="49.92231" viewBox="0,0,45.09404,49.92231"><defs><radialGradient cx="236.6625" cy="178.8125" r="1.1875" gradientUnits="userSpaceOnUse" id="color-1"><stop offset="0" stop-color="#ffffff"/><stop offset="1" stop-color="#ffffff" stop-opacity="0"/></radialGradient><radialGradient cx="243.1625" cy="178.8125" r="1.1875" gradientUnits="userSpaceOnUse" id="color-2"><stop offset="0" stop-color="#ffffff"/><stop offset="1" stop-color="#ffffff" stop-opacity="0"/></radialGradient><radialGradient cx="240" cy="180" r="17.71875" gradientUnits="userSpaceOnUse" id="color-3"><stop offset="0" stop-color="#ffffff" stop-opacity="0.45158"/><stop offset="1" stop-color="#ffffff" stop-opacity="0"/></radialGradient></defs><g transform="translate(-217.45298,-157.14048)"><g data-paper-data="{&quot;isPaintingLayer&quot;:true}" fill-rule="nonzero" stroke-linejoin="miter" stroke-miterlimit="10" stroke-dasharray="" stroke-dashoffset="0" style="mix-blend-mode: normal"><path d="M233.125,180c0,-3.79696 3.07804,-6.875 6.875,-6.875c3.79696,0 6.875,3.07804 6.875,6.875c0,3.79696 -3.07804,6.875 -6.875,6.875c-3.79696,0 -6.875,-3.07804 -6.875,-6.875z" fill="#4d4d4d" stroke="none" stroke-width="0" stroke-linecap="butt"/><path d="M234.875,185.875c0,-2.83046 2.29454,-5.125 5.125,-5.125c2.83046,0 5.125,2.29454 5.125,5.125c0,2.83046 -2.29454,5.125 -5.125,5.125c-2.83046,0 -5.125,-2.29454 -5.125,-5.125z" fill="#4d4d4d" stroke="none" stroke-width="0" stroke-linecap="butt"/><path d="M235.475,178.8125c0,-0.65584 0.53166,-1.1875 1.1875,-1.1875c0.65584,0 1.1875,0.53166 1.1875,1.1875c0,0.65584 -0.53166,1.1875 -1.1875,1.1875c-0.65584,0 -1.1875,-0.53166 -1.1875,-1.1875z" fill="url(#color-1)" stroke="none" stroke-width="0" stroke-linecap="butt"/><path d="M241.975,178.8125c0,-0.65584 0.53166,-1.1875 1.1875,-1.1875c0.65584,0 1.1875,0.53166 1.1875,1.1875c0,0.65584 -0.53166,1.1875 -1.1875,1.1875c-0.65584,0 -1.1875,-0.53166 -1.1875,-1.1875z" fill="url(#color-2)" stroke="none" stroke-width="0" stroke-linecap="butt"/><path d="M224.75,164.75l8.375,8.375" fill="none" stroke="#d4d4d4" stroke-width="2" stroke-linecap="round"/><path d="M246.875,173.125l8.375,-8.375" data-paper-data="{&quot;index&quot;:null}" fill="none" stroke="#d4d4d4" stroke-width="2" stroke-linecap="round"/><path d="M240,158.14048v11.84404" fill="none" stroke="#d4d4d4" stroke-width="2" stroke-linecap="round"/><path d="M249.70298,178.8125h11.84404" data-paper-data="{&quot;index&quot;:null}" fill="none" stroke="#d4d4d4" stroke-width="2" stroke-linecap="round"/><path d="M218.45298,180h11.84404" data-paper-data="{&quot;index&quot;:null}" fill="none" stroke="#d4d4d4" stroke-width="2" stroke-linecap="round"/><path d="M249.0625,184.25l8.375,8.375" data-paper-data="{&quot;index&quot;:null}" fill="none" stroke="#d4d4d4" stroke-width="2" stroke-linecap="round"/><path d="M222.9375,193.5l8.375,-8.375" data-paper-data="{&quot;index&quot;:null}" fill="none" stroke="#d4d4d4" stroke-width="2" stroke-linecap="round"/><path d="M222.28125,180c0,-9.7858 7.93295,-17.71875 17.71875,-17.71875c9.7858,0 17.71875,7.93295 17.71875,17.71875c0,9.7858 -7.93295,17.71875 -17.71875,17.71875c-9.7858,0 -17.71875,-7.93295 -17.71875,-17.71875z" fill="url(#color-3)" stroke="none" stroke-width="NaN" stroke-linecap="butt"/><path d="M240.5625,194.21875v11.84404" data-paper-data="{&quot;index&quot;:null}" fill="none" stroke="#d4d4d4" stroke-width="2" stroke-linecap="round"/><path d="M228.33214,202.8049l5.96072,-10.2348" data-paper-data="{&quot;index&quot;:null}" fill="none" stroke="#d4d4d4" stroke-width="2" stroke-linecap="round"/><path d="M246.08214,192.625l5.96072,10.2348" data-paper-data="{&quot;index&quot;:null}" fill="none" stroke="#d4d4d4" stroke-width="2" stroke-linecap="round"/></g></g></svg>