<svg version="1.1" xmlns="http://www.w3.org/2000/svg" xmlns:xlink="http://www.w3.org/1999/xlink" width="347.809" height="346.88566" viewBox="0,0,347.809,346.88566"><g transform="translate(-188.8926,-13.09784)"><g data-paper-data="{&quot;isPaintingLayer&quot;:true}" fill-rule="nonzero" stroke-linecap="butt" stroke-linejoin="miter" stroke-miterlimit="10" stroke-dasharray="" stroke-dashoffset="0" style="mix-blend-mode: normal"><path d="M279,180c0,-22.64367 18.35633,-41 41,-41c22.64367,0 41,18.35633 41,41c0,22.64367 -18.35633,41 -41,41c-22.64367,0 -41,-18.35633 -41,-41z" fill-opacity="0.70196" fill="#000000" stroke="none" stroke-width="0"/><text transform="translate(285.0686,187.13355) scale(0.35827,0.35827)" font-size="40" xml:space="preserve" fill-opacity="0.25098" fill="#ffffff" fill-rule="nonzero" stroke="none" stroke-width="1" stroke-linecap="butt" stroke-linejoin="miter" stroke-miterlimit="10" stroke-dasharray="" stroke-dashoffset="0" font-family="Pixel" font-weight="normal" text-anchor="start" style="mix-blend-mode: normal"><tspan x="0" dy="0">Skill tree</tspan></text><path d="M270.92841,155.16537l-59.38449,-56.54629l19.99808,-21.00183l59.38449,56.54629z" fill-opacity="0.25098" fill="#000000" stroke="#000000" stroke-width="0"/><path d="M346.54392,134.16354l59.38448,-56.54629l19.99808,21.00183l-59.38449,56.54629z" data-paper-data="{&quot;index&quot;:null}" fill-opacity="0.25098" fill="#000000" stroke="#000000" stroke-width="0"/><path d="M366.54199,200.61725l59.38449,56.54629l-19.99808,21.00183l-59.38448,-56.54629z" data-paper-data="{&quot;index&quot;:null}" fill-opacity="0.25098" fill="#000000" stroke="#000000" stroke-width="0"/><path d="M290.92648,224.61908l-59.38449,56.54629l-19.99808,-21.00183l59.38449,-56.54629z" data-paper-data="{&quot;index&quot;:null}" fill-opacity="0.25098" fill="#000000" stroke="#000000" stroke-width="0"/><path d="M270.86804,195.49911l-81.97544,-2.00691l0.70976,-28.99131l81.97544,2.00691z" data-paper-data="{&quot;index&quot;:null}" fill-opacity="0.25098" fill="#000000" stroke="#000000" stroke-width="0"/><path d="M450.86804,195.49911l-81.97544,-2.00691l0.70976,-28.99131l81.97544,2.00691z" data-paper-data="{&quot;index&quot;:null}" fill-opacity="0.25098" fill="#000000" stroke="#000000" stroke-width="0"/><path d="M263.5,82.39132c0,-17.27283 0,-49.74409 0,-59c0,-4.83806 7.35653,-10 14.2352,-10c13.42156,0 61.15402,0 85,0c8.3451,0 13.7648,5.75919 13.7648,11c0,8.91413 0,37.54448 0,55c0,8.24729 -8.87946,14 -16.7648,14c-13.99325,0 -60.05269,0 -83,0c-8.03412,0 -13.2352,-4.38567 -13.2352,-11z" fill-opacity="0.70196" fill="#000000" stroke="none" stroke-width="0"/><text transform="translate(271.25,38.39132) scale(0.5,0.5)" font-size="40" xml:space="preserve" fill-opacity="0.70196" fill="#464646" fill-rule="nonzero" stroke="none" stroke-width="1" stroke-linecap="butt" stroke-linejoin="miter" stroke-miterlimit="10" stroke-dasharray="" stroke-dashoffset="0" font-family="Pixel" font-weight="normal" text-anchor="start" style="mix-blend-mode: normal"><tspan x="0" dy="0">You have</tspan></text><text transform="translate(305,88.39132) scale(0.5,0.5)" font-size="40" xml:space="preserve" fill-opacity="0.70196" fill="#464646" fill-rule="nonzero" stroke="none" stroke-width="1" stroke-linecap="butt" stroke-linejoin="miter" stroke-miterlimit="10" stroke-dasharray="" stroke-dashoffset="0" font-family="Pixel" font-weight="normal" text-anchor="start" style="mix-blend-mode: normal"><tspan x="0" dy="0">XP</tspan></text><path d="M263.49993,333.39132c0,-17.27283 0,-49.74409 0,-59c0,-4.83806 7.35653,-10 14.2352,-10c13.42156,0 61.15402,0 85,0c8.3451,0 13.7648,5.75919 13.7648,11c0,8.91413 0,37.54448 0,55c0,8.24729 -8.87946,14 -16.7648,14c-13.99325,0 -60.05269,0 -83,0c-8.03412,0 -13.2352,-4.38567 -13.2352,-11z" fill-opacity="0.70196" fill="#000000" stroke="none" stroke-width="0"/><text transform="translate(296.84813,286.3602) scale(0.33074,0.33074)" font-size="40" xml:space="preserve" fill="#d677e6" fill-rule="nonzero" stroke="none" stroke-width="1" stroke-linecap="butt" stroke-linejoin="miter" stroke-miterlimit="10" stroke-dasharray="" stroke-dashoffset="0" font-family="Pixel" font-weight="normal" text-anchor="start" style="mix-blend-mode: normal"><tspan x="0" dy="0">Pirate</tspan></text><text transform="translate(268.88703,304.10101) scale(0.21243,0.21243)" font-size="40" xml:space="preserve" fill="#d677e6" fill-rule="nonzero" stroke="none" stroke-width="1" stroke-linecap="butt" stroke-linejoin="miter" stroke-miterlimit="10" stroke-dasharray="" stroke-dashoffset="0" font-family="Pixel" font-weight="normal" text-anchor="start" style="mix-blend-mode: normal"><tspan x="0" dy="0">Cost:</tspan></text><text transform="translate(296.22036,304.10102) scale(0.21243,0.21243)" font-size="40" xml:space="preserve" fill="#e6e177" fill-rule="nonzero" stroke="none" stroke-width="1" stroke-linecap="butt" stroke-linejoin="miter" stroke-miterlimit="10" stroke-dasharray="" stroke-dashoffset="0" font-family="Pixel" font-weight="normal" text-anchor="start" style="mix-blend-mode: normal"><tspan x="0" dy="0">80 XP</tspan></text><text transform="translate(269.01672,317.43434) scale(0.21243,0.21243)" font-size="40" xml:space="preserve" fill="#d677e6" fill-rule="nonzero" stroke="none" stroke-width="1" stroke-linecap="butt" stroke-linejoin="miter" stroke-miterlimit="10" stroke-dasharray="" stroke-dashoffset="0" font-family="Pixel" font-weight="normal" text-anchor="start" style="mix-blend-mode: normal"><tspan x="0" dy="0">Increase gun critical hit</tspan><tspan x="0" dy="48px">chance by</tspan></text><text transform="translate(313.5537,328.10102) scale(0.21243,0.21243)" font-size="40" xml:space="preserve" fill="#e6e177" fill-rule="nonzero" stroke="none" stroke-width="1" stroke-linecap="butt" stroke-linejoin="miter" stroke-miterlimit="10" stroke-dasharray="" stroke-dashoffset="0" font-family="Pixel" font-weight="normal" text-anchor="start" style="mix-blend-mode: normal"><tspan x="0" dy="0">+15%</tspan></text><path d="M382.7352,355.18219c0,-3.53098 0,-8.07039 0,-10.19664c0,-2.24836 8.39363,-5.39533 16.60969,-5.39533c16.95805,0 80.33278,0 114.75787,0c13.538,0 22.59884,2.07093 22.59884,4.667c0,3.01077 0,6.72784 0,8.73998c0,2.70493 -6.43872,6.9863 -16.55895,6.9863c-32.0165,0 -100.87922,0 -119.28778,0c-8.84825,0 -18.11967,-2.1071 -18.11967,-4.80131z" fill-opacity="0.70196" fill="#000000" stroke="none" stroke-width="0"/><text transform="translate(386.2184,353.53803) scale(0.22157,0.24565)" font-size="40" xml:space="preserve" fill="#e6e177" fill-rule="nonzero" stroke="none" stroke-width="1" stroke-linecap="butt" stroke-linejoin="miter" stroke-miterlimit="10" stroke-dasharray="" stroke-dashoffset="0" font-family="Pixel" font-weight="normal" text-anchor="start" style="mix-blend-mode: normal"><tspan x="0" dy="0">Your current gun crit: 20%</tspan></text></g></g></svg>