<svg version="1.1" xmlns="http://www.w3.org/2000/svg" xmlns:xlink="http://www.w3.org/1999/xlink" width="64.25533" height="81.96964" viewBox="0,0,64.25533,81.96964"><defs><radialGradient cx="231.38264" cy="208.46691" r="31.33333" gradientUnits="userSpaceOnUse" id="color-1"><stop offset="0" stop-color="#8266ff" stop-opacity="0.29804"/><stop offset="1" stop-color="#8266ff" stop-opacity="0"/></radialGradient><radialGradient cx="231.43467" cy="186.68969" r="31.28132" gradientUnits="userSpaceOnUse" id="color-2"><stop offset="0" stop-color="#7a66ff" stop-opacity="0.29804"/><stop offset="1" stop-color="#7a66ff" stop-opacity="0"/></radialGradient></defs><g transform="translate(-200.04937,-138.37606)"><g data-paper-data="{&quot;isPaintingLayer&quot;:true}" fill-rule="nonzero" stroke="none" stroke-linecap="butt" stroke-linejoin="miter" stroke-miterlimit="10" stroke-dasharray="" stroke-dashoffset="0" style="mix-blend-mode: normal"><path d="M201.74206,185.49613c0,-11.47564 0,-33.04873 0,-39.19813c0,-3.21429 4.07296,-6.64375 7.88134,-6.64375c7.43087,0 33.85802,0 47.06039,0c4.62028,0 7.62091,3.82626 7.62091,7.30813c0,5.92232 0,24.94361 0,36.54062c0,5.47929 -4.91613,9.30125 -9.28186,9.30125c-7.74739,0 -33.24827,0 -45.95309,0c-4.44811,0 -7.32769,-2.91373 -7.32769,-7.30812z" fill-opacity="0.2" fill="#0000c7" stroke-width="0"/><path d="M251.30969,186.68969c0,1.79493 -8.89834,3.25 -19.875,3.25c-10.97666,0 -19.875,-1.45507 -19.875,-3.25c0,-1.79493 8.89834,-3.25 19.875,-3.25c10.97666,0 19.875,1.45507 19.875,3.25z" fill="#8266ff" stroke-width="0"/><path d="M200.04937,220.34571v-23.75758h62.66667v23.75758z" fill="url(#color-1)" stroke-width="0"/><text transform="translate(206.60596,216.33858) scale(0.16964,0.16964)" font-size="40" xml:space="preserve" fill-opacity="0.29804" fill="#bf66ff" fill-rule="nonzero" stroke="none" stroke-width="1" stroke-linecap="butt" stroke-linejoin="miter" stroke-miterlimit="10" stroke-dasharray="" stroke-dashoffset="0" font-family="&quot;MV Boli&quot;, Sans Serif" font-weight="normal" text-anchor="start" style="mix-blend-mode: normal"><tspan x="0" dy="0">Ancient matter</tspan></text><text transform="translate(223.62034,209.14999) scale(0.29052,0.29052)" font-size="40" xml:space="preserve" fill-opacity="0.68627" fill="#9dc0eb" fill-rule="nonzero" stroke="none" stroke-width="1" stroke-linecap="butt" stroke-linejoin="miter" stroke-miterlimit="10" stroke-dasharray="" stroke-dashoffset="0" font-family="&quot;MV Boli&quot;, Sans Serif" font-weight="normal" text-anchor="start" style="mix-blend-mode: normal"><tspan x="0" dy="0">25</tspan></text><g fill="#7300c7" stroke-width="1" font-family="&quot;MV Boli&quot;, Sans Serif" font-weight="normal" font-size="40" text-anchor="start"><text transform="translate(205.88209,156.24953) scale(0.38827,0.38827)" font-size="40" xml:space="preserve" fill="#7300c7" fill-rule="nonzero" stroke="none" stroke-width="1" stroke-linecap="butt" stroke-linejoin="miter" stroke-miterlimit="10" stroke-dasharray="" stroke-dashoffset="0" font-family="&quot;MV Boli&quot;, Sans Serif" font-weight="normal" text-anchor="start" style="mix-blend-mode: normal"><tspan x="0" dy="0">Ancient</tspan></text><text transform="translate(205.88209,170.15466) scale(0.27231,0.27231)" font-size="40" xml:space="preserve" fill="#7300c7" fill-rule="nonzero" stroke="none" stroke-width="1" stroke-linecap="butt" stroke-linejoin="miter" stroke-miterlimit="10" stroke-dasharray="" stroke-dashoffset="0" font-family="&quot;MV Boli&quot;, Sans Serif" font-weight="normal" text-anchor="start" style="mix-blend-mode: normal"><tspan x="0" dy="0">Magnetism</tspan></text></g><path d="M200.1534,186.68969c0,-17.2762 14.00512,-31.28132 31.28132,-31.28132c17.2762,0 31.28132,14.00512 31.28132,31.28132c0,17.2762 -14.00512,31.28132 -31.28132,31.28132c-17.2762,0 -31.28132,-14.00512 -31.28132,-31.28132z" fill="url(#color-2)" stroke-width="0"/></g></g></svg>