<svg version="1.1" xmlns="http://www.w3.org/2000/svg" xmlns:xlink="http://www.w3.org/1999/xlink" width="30.125" height="30.125" viewBox="0,0,30.125,30.125"><defs><linearGradient x1="320.35348" y1="176.32628" x2="320.35348" y2="182.98333" gradientUnits="userSpaceOnUse" id="color-1"><stop offset="0" stop-color="#fffe66"/><stop offset="1" stop-color="#aaa40b"/></linearGradient><linearGradient x1="315.42549" y1="177.26705" x2="315.42549" y2="183.92409" gradientUnits="userSpaceOnUse" id="color-2"><stop offset="0" stop-color="#fffe66"/><stop offset="1" stop-color="#aaa40b"/></linearGradient><linearGradient x1="319.91677" y1="171.41835" x2="319.91677" y2="177.24623" gradientUnits="userSpaceOnUse" id="color-3"><stop offset="0" stop-color="#fffe66"/><stop offset="1" stop-color="#aaa40b"/></linearGradient><linearGradient x1="315.86049" y1="183.00377" x2="315.86049" y2="188.83165" gradientUnits="userSpaceOnUse" id="color-4"><stop offset="0" stop-color="#fffe66"/><stop offset="1" stop-color="#aaa40b"/></linearGradient><radialGradient cx="317.88949" cy="180.125" r="15.0625" gradientUnits="userSpaceOnUse" id="color-5"><stop offset="0" stop-color="#ffff66" stop-opacity="0.4902"/><stop offset="1" stop-color="#ffff66" stop-opacity="0"/></radialGradient></defs><g transform="translate(-302.82699,-165.0625)"><g data-paper-data="{&quot;isPaintingLayer&quot;:true}" fill-rule="nonzero" stroke-linecap="butt" stroke-linejoin="miter" stroke-miterlimit="10" stroke-dasharray="" stroke-dashoffset="0" style="mix-blend-mode: normal"><path d="M309.85919,185.99903c0,-4.56708 0,-10.99964 0,-13.33361c0,-1.69505 1.92351,-3.6849 3.45484,-3.6849c2.31375,0 9.06266,0 13.73162,0c2.73365,0 4.75429,1.241 4.75429,3.08788c0,4.39853 0,12.23359 0,14.92569c0,1.78478 -2.0283,3.92719 -4.75429,3.92719c-4.4469,0 -10.75048,0 -13.1346,0c-1.83021,0 -4.05186,-3.47925 -4.05186,-4.92224z" fill="#25394f" stroke="#6e6e6e" stroke-width="1"/><g stroke="none"><path d="M317.43953,177.15543l5.8279,-0.82915l-4.99873,6.65705z" fill="url(#color-1)" stroke-width="NaN"/><path d="M318.33943,183.09494l-5.82788,0.82915l4.99873,-6.65705z" fill="url(#color-2)" stroke-width="NaN"/><path d="M317.41741,177.24623l-0.82915,-5.82788l6.65705,4.99873z" fill="url(#color-3)" stroke-width="NaN"/><path d="M318.35987,183.00377l0.82915,5.82788l-6.65705,-4.99873z" fill="url(#color-4)" stroke-width="NaN"/></g><text transform="translate(321.17783,187.76073) scale(0.33431,0.33431)" font-size="40" xml:space="preserve" fill="#fffe66" fill-rule="nonzero" stroke="none" stroke-width="1" stroke-linecap="butt" stroke-linejoin="miter" stroke-miterlimit="10" stroke-dasharray="" stroke-dashoffset="0" font-family="Sans Serif" font-weight="normal" text-anchor="start" style="mix-blend-mode: normal"><tspan x="0" dy="0">+</tspan></text><path d="M302.82699,180.125c0,-8.31879 6.74371,-15.0625 15.0625,-15.0625c8.31879,0 15.0625,6.74371 15.0625,15.0625c0,8.31879 -6.74371,15.0625 -15.0625,15.0625c-8.31879,0 -15.0625,-6.74371 -15.0625,-15.0625z" fill="url(#color-5)" stroke="none" stroke-width="0"/></g></g></svg>