<svg version="1.1" xmlns="http://www.w3.org/2000/svg" xmlns:xlink="http://www.w3.org/1999/xlink" width="26.8804" height="26.8804" viewBox="0,0,26.8804,26.8804"><defs><radialGradient cx="320" cy="180" r="13.4402" gradientUnits="userSpaceOnUse" id="color-1"><stop offset="0" stop-color="#ffcf00" stop-opacity="0.97647"/><stop offset="1" stop-color="#ffcf00" stop-opacity="0"/></radialGradient></defs><g transform="translate(-306.5598,-166.5598)"><g data-paper-data="{&quot;isPaintingLayer&quot;:true}" fill-rule="nonzero" stroke="none" stroke-linecap="butt" stroke-linejoin="miter" stroke-miterlimit="10" stroke-dasharray="" stroke-dashoffset="0" style="mix-blend-mode: normal"><path d="M320.00001,173.68389c5.262,0 9.52769,2.82782 9.52769,6.31611c0,3.48829 -4.26569,6.31611 -9.52769,6.31611c-5.262,0 -9.52769,-2.82782 -9.52769,-6.31611c0,-3.48829 4.26569,-6.31611 9.52769,-6.31611z" fill="#ffffff" stroke-width="NaN"/><path d="M320,175.43211c3.80555,0 6.89056,2.04511 6.89056,4.56789c0,2.52278 -3.08501,4.5679 -6.89056,4.5679c-3.80555,0 -6.89056,-2.04512 -6.89056,-4.5679c0,-2.52278 3.085,-4.56789 6.89056,-4.56789z" fill="#ffffff" stroke-width="NaN"/><path d="M320.00001,176.93057c2.55716,0 4.63016,1.37423 4.63016,3.06943c0,1.6952 -2.07299,3.06943 -4.63016,3.06943c-2.55716,0 -4.63016,-1.37423 -4.63016,-3.06943c0,-1.6952 2.07299,-3.06943 4.63016,-3.06943z" fill="#ffffff" stroke-width="NaN"/><path d="M325.69158,176.93057c0.58621,0 1.06142,0.47521 1.06142,1.06141c0,0.58621 -0.47521,1.06142 -1.06142,1.06142c-0.58621,0 -1.06142,-0.47521 -1.06142,-1.06142c0,-0.58621 0.47521,-1.06141 1.06142,-1.06141z" fill="#000000" stroke-width="0"/><path d="M325.69158,180.9466c0.58621,0 1.06141,0.47521 1.06141,1.06142c0,0.58621 -0.47521,1.06142 -1.06141,1.06142c-0.58621,0 -1.06142,-0.47521 -1.06142,-1.06142c0,-0.58621 0.47521,-1.06142 1.06142,-1.06142z" fill="#000000" stroke-width="0"/><path d="M306.5598,180c0,-7.42282 6.01738,-13.4402 13.4402,-13.4402c7.42282,0 13.4402,6.01738 13.4402,13.4402c0,7.42282 -6.01738,13.4402 -13.4402,13.4402c-7.42282,0 -13.4402,-6.01738 -13.4402,-13.4402z" fill="url(#color-1)" stroke-width="0"/></g></g></svg>