<svg version="1.1" xmlns="http://www.w3.org/2000/svg" xmlns:xlink="http://www.w3.org/1999/xlink" width="991.93056" height="849.03355" viewBox="0,0,991.93056,849.03355"><defs><linearGradient x1="319.91792" y1="363.77078" x2="319.91792" y2="287.19417" gradientUnits="userSpaceOnUse" id="color-1"><stop offset="0" stop-color="#f25100"/><stop offset="1" stop-color="#f25100" stop-opacity="0"/></linearGradient><linearGradient x1="319.91792" y1="-4.09714" x2="319.91792" y2="72.47944" gradientUnits="userSpaceOnUse" id="color-2"><stop offset="0" stop-color="#f55200"/><stop offset="1" stop-color="#f55200" stop-opacity="0"/></linearGradient><linearGradient x1="65.92494" y1="180.00001" x2="125.75701" y2="180.00001" gradientUnits="userSpaceOnUse" id="color-3"><stop offset="0" stop-color="#ff5500"/><stop offset="1" stop-color="#ff5500" stop-opacity="0"/></linearGradient><linearGradient x1="574.21489" y1="180.00003" x2="514.3828" y2="180.00003" gradientUnits="userSpaceOnUse" id="color-4"><stop offset="0" stop-color="#f05000"/><stop offset="1" stop-color="#f05000" stop-opacity="0"/></linearGradient></defs><g transform="translate(175.96528,244.51677)"><g data-paper-data="{&quot;isPaintingLayer&quot;:true}" fill-rule="nonzero" stroke="none" stroke-width="0" stroke-linecap="butt" stroke-linejoin="miter" stroke-miterlimit="10" stroke-dasharray="" stroke-dashoffset="0" style="mix-blend-mode: normal"><path d="M573.32436,287.19417v76.57657h-506.81281v-76.57657z" fill="url(#color-1)"/><path d="M66.51151,72.47944v-76.57657h506.81281v76.57657z" fill="url(#color-2)"/><path d="M125.75701,364.09715h-59.83206v-368.19425h59.83206z" fill="url(#color-3)"/><path d="M514.3828,-4.09713h59.83206v368.19425h-59.83206z" fill="url(#color-4)"/><g fill="#f25100"><path d="M-175.96528,448.49851v-540h244.51677v540z"/><path d="M571.4485,433.4835v-540h244.51678v540z"/><path d="M49.92685,-244.51676h540v244.51677h-540z"/><path d="M49.92685,360.00001h540v244.51678h-540z"/></g></g></g></svg>