<svg version="1.1" xmlns="http://www.w3.org/2000/svg" xmlns:xlink="http://www.w3.org/1999/xlink" width="335.95899" height="302.63157" viewBox="0,0,335.95899,302.63157"><defs><radialGradient cx="283.09567" cy="119.927" r="151.31579" gradientUnits="userSpaceOnUse" id="color-1"><stop offset="0" stop-color="#ada11d" stop-opacity="0.63137"/><stop offset="1" stop-color="#ada11d" stop-opacity="0"/></radialGradient><radialGradient cx="367.01834" cy="113.14237" r="100.72053" gradientUnits="userSpaceOnUse" id="color-2"><stop offset="0" stop-color="#ffffec"/><stop offset="1" stop-color="#ffffec" stop-opacity="0"/></radialGradient><linearGradient x1="283.09565" y1="116.54559" x2="283.09565" y2="126.28279" gradientUnits="userSpaceOnUse" id="color-3"><stop offset="0" stop-color="#302f1f"/><stop offset="1" stop-color="#736b0d"/></linearGradient><linearGradient x1="259.18807" y1="126.40861" x2="259.18807" y2="133.17142" gradientUnits="userSpaceOnUse" id="color-4"><stop offset="0" stop-color="#736b0d"/><stop offset="1" stop-color="#c4b823"/></linearGradient><linearGradient x1="242.00004" y1="133.79642" x2="256.00003" y2="133.79642" gradientUnits="userSpaceOnUse" id="color-5"><stop offset="0" stop-color="#665f0a"/><stop offset="1" stop-color="#c4b823"/></linearGradient><linearGradient x1="242.00004" y1="151.74271" x2="256.00003" y2="151.74271" gradientUnits="userSpaceOnUse" id="color-6"><stop offset="0" stop-color="#665f0a"/><stop offset="1" stop-color="#c4b823"/></linearGradient><linearGradient x1="249.00004" y1="117.1055" x2="249.00004" y2="122.0695" gradientUnits="userSpaceOnUse" id="color-7"><stop offset="0" stop-color="#302f1f"/><stop offset="1" stop-color="#c4b823"/></linearGradient></defs><g transform="translate(-131.77988,31.38879)"><g data-paper-data="{&quot;isPaintingLayer&quot;:true}" fill-rule="nonzero" stroke-linecap="butt" stroke-linejoin="miter" stroke-miterlimit="10" stroke-dasharray="" stroke-dashoffset="0" style="mix-blend-mode: normal"><path d="M131.77988,119.927c0,-83.5694 67.74639,-151.31578 151.31579,-151.31578c83.5694,0 151.31579,67.74639 151.31579,151.31579c0,83.5694 -67.74638,151.31579 -151.31578,151.31579c-83.5694,0 -151.31578,-67.74639 -151.31578,-151.31578z" fill="url(#color-1)" stroke="none" stroke-width="0"/><path d="M266.29781,113.14237c0,-55.62641 45.09412,-100.72053 100.72053,-100.72053c55.62641,0 100.72053,45.09412 100.72053,100.72053c0,55.62641 -45.09412,100.72053 -100.72053,100.72053c-55.62641,0 -100.72053,-45.09412 -100.72053,-100.72053z" fill="url(#color-2)" stroke="none" stroke-width="0"/><path d="M255.39937,116.54559h55.39258c0,0 0,4.60573 0,6.39458c0,1.29333 -1.03307,2.30955 -1.03307,2.30955c0,0 -0.66942,1.03307 -2.57025,1.03307c-7.20627,0 -51.78926,0 -51.78926,0z" fill="url(#color-3)" stroke="#000000" stroke-width="1"/><path d="M255.50004,133.17142v-6.76281h7.37608c0,0 0,1.66934 0,2.64915c0,1.22097 -0.82645,3.08059 -0.82645,3.08059c0,0 -2.01913,1.03307 -3.31435,1.03307c-1.14488,0 -3.23528,0 -3.23528,0z" fill="url(#color-4)" stroke="#000000" stroke-width="1"/><path d="M242.00004,117.29642c0,0 0,-6.74696 0,-9.30799c0,-1.79976 1.85951,-3.35712 1.85951,-3.35712c0,0 2.16912,-4.54548 6.07819,-4.54548c5.34917,0 1.4496,-0.06496 20.04407,-0.12203c14.56646,-0.04471 22.00218,3.50086 28.69373,4.04767c2.87698,0.2351 12.0718,0.69109 18.99603,1.08398c4.65055,0.26389 6.21073,1.53237 6.21073,1.65331c0,0.28116 2.06612,1.25419 2.06612,3.3058c0,1.62891 0,3.2865 0,4.13226c0,1.77963 -1.03307,2.28316 -1.03307,2.28316c0,0 -0.53112,0.82645 -2.45654,0.82645c-9.24537,0 -80.45877,0 -80.45877,0z" fill="#302f1f" stroke="#000000" stroke-width="1"/><path d="M242.00004,150.29642v-33h14c0,0 0,8.76992 0,16.5186c0,0.84273 -2.06612,4.77257 -2.06612,5.57854c0,3.19992 2.06612,2.9117 2.06612,4.54548c0,0.73729 -1.85952,2.13886 -1.85952,2.89258c0,2.15705 1.85952,3.4648 1.85952,3.4648z" fill="url(#color-5)" stroke="#000000" stroke-width="1"/><path d="M242.84375,152.6222c0,0 -0.84372,-1.37983 -0.84372,-1.95329c0,-0.26428 0,-0.57911 0,-0.57911h14c0,0 0,0.70922 0,1.15309c0,0.60648 -0.40907,1.82545 -0.40907,1.82545c0,0 -0.9494,0.32726 -2.08328,0.32726c-1.38494,0 -4.91363,0 -7.70145,0c-2.11663,0 -2.96247,-0.77341 -2.96247,-0.77341z" fill="url(#color-6)" stroke="#000000" stroke-width="1"/><path d="M242.00004,122.0695v-4.964h14v4.964z" fill="url(#color-7)" stroke="none" stroke-width="0"/></g></g></svg>