<svg version="1.1" xmlns="http://www.w3.org/2000/svg" xmlns:xlink="http://www.w3.org/1999/xlink" width="350.47799" height="321.8369" viewBox="0,0,350.47799,321.8369"><defs><linearGradient x1="363.74772" y1="100.41606" x2="363.74772" y2="314.53999" gradientUnits="userSpaceOnUse" id="color-1"><stop offset="0" stop-color="#534278"/><stop offset="1" stop-color="#342448"/></linearGradient><linearGradient x1="309.67886" y1="111.25996" x2="309.67886" y2="122.18923" gradientUnits="userSpaceOnUse" id="color-2"><stop offset="0" stop-color="#493561"/><stop offset="1" stop-color="#0d021a"/></linearGradient><radialGradient cx="320" cy="180" r="154.76054" gradientUnits="userSpaceOnUse" id="color-3"><stop offset="0" stop-color="#483766" stop-opacity="0.2902"/><stop offset="1" stop-color="#483766" stop-opacity="0"/></radialGradient></defs><g transform="translate(-165.23946,-25.23946)"><g data-paper-data="{&quot;isPaintingLayer&quot;:true}" fill-rule="nonzero" stroke-linecap="butt" stroke-linejoin="miter" stroke-miterlimit="10" stroke-dasharray="" stroke-dashoffset="0" style="mix-blend-mode: normal"><path d="M206.00002,199.37178l2,-52.34917c0,0 11.85218,10.46984 20.2352,10.46984c12.1714,0 44.7648,0 44.7648,0v33.50347c0,0 -36.64363,0 -48.7648,0c-7.20609,0 -18.2352,8.37587 -18.2352,8.37587z" fill="#2e1267" stroke="none" stroke-width="0"/><path d="M418.47093,257.22991c0,0 2.27265,0.30676 4.59386,5.44657c1.69525,3.75368 7.79587,9.63662 13.33662,14.47692c5.26158,4.59638 39.06811,11.81217 39.06811,11.81217c0,0 -35.97735,-6.80041 -43.23803,-10.73765c-6.39135,-3.46582 -13.04089,-7.47132 -15.45058,-10.28087c-3.75624,-4.37956 -9.74617,-11.36343 -9.74617,-11.36343l5.10285,0.99529z" data-paper-data="{&quot;index&quot;:null}" fill="#2e1267" stroke="none" stroke-width="0"/><path d="M370.85916,253.86847c0,0 3.60598,7.98464 5.92719,13.12444c1.69525,3.75368 7.79587,9.63662 13.33662,14.47692c5.26158,4.59638 39.06811,11.81217 39.06811,11.81217c0,0 -35.97735,-6.80041 -43.23803,-10.73765c-6.39135,-3.46582 -13.04089,-7.47132 -15.45058,-10.28087c-3.75624,-4.37956 -9.74617,-11.36343 -9.74617,-11.36343l10.10285,-7.03158z" data-paper-data="{&quot;index&quot;:null}" fill="#2e1267" stroke="none" stroke-width="0"/><path d="M343.70586,257.88531c0,0 2.28898,8.50088 3.76242,13.97297c1.07612,3.99639 6.15854,10.85864 10.85431,16.59537c4.45918,5.44764 36.65107,18.44302 36.65107,18.44302c0,0 -34.39846,-12.96333 -40.93354,-18.10869c-5.75264,-4.52928 -11.67424,-9.63567 -13.60467,-12.82529c-3.00916,-4.97202 -7.80775,-12.90066 -7.80775,-12.90066l11.07816,-5.17673z" data-paper-data="{&quot;index&quot;:null}" fill="#2e1267" stroke="none" stroke-width="0"/><path d="M376.35155,261.53943l-8.7367,-8.81229c0,0 7.08773,-5.7478 11.5324,-9.35221c2.85133,-2.31229 10.07853,-5.00619 16.95941,-7.21753c7.81678,-2.51214 44.37571,-2.45651 44.37571,-2.45651c0,0 -34.49425,0.76009 -40.45701,4.29556c-6.27914,3.72309 -13.28744,8.36699 -15.59739,11.74212c-3.16289,4.62144 -8.07641,11.80083 -8.07641,11.80083z" fill="#2e1267" stroke="none" stroke-width="0"/><path d="M396.45272,261.20254l-5.17958,-10.26065c0,0 7.71947,-2.86979 12.56031,-4.66942c3.10548,-1.1545 10.11308,-1.33194 16.68847,-1.19409c7.46976,0.15656 39.186,11.13492 39.186,11.13492c0,0 -30.14668,-9.65307 -36.28634,-8.36715c-6.46544,1.35419 -13.81489,3.28959 -16.74035,5.52844c-4.00569,3.06559 -10.22851,7.82796 -10.22851,7.82796z" fill="#2e1267" stroke="none" stroke-width="0"/><path d="M353.69221,257.35149l-8.73671,-8.81229c0,0 7.08773,-5.7478 11.5324,-9.35221c2.85133,-2.31229 10.07853,-5.00619 16.95941,-7.21753c7.81678,-2.51214 44.37571,-2.45651 44.37571,-2.45651c0,0 -34.49426,0.76009 -40.45702,4.29556c-6.27914,3.72309 -13.28744,8.36699 -15.59739,11.74212c-3.16289,4.62144 -8.0764,11.80083 -8.0764,11.80083z" fill="#2e1267" stroke="none" stroke-width="0"/><path d="M320.3327,302.86378l0.92216,8.45837c0,0 -6.00606,-0.19723 -9.77242,-0.32091c-2.41618,-0.07934 -7.24926,-1.91707 -11.70664,-3.84939c-5.06366,-2.19513 -23.93351,-18.56215 -23.93351,-18.56215c0,0 18.13546,15.02276 22.65821,15.86053c4.76274,0.88218 10.27772,1.61438 12.84744,0.90253c3.51861,-0.97472 8.98475,-2.48895 8.98475,-2.48895z" fill="#2e1267" stroke="none" stroke-width="0"/><path d="M319.8327,291.49754l0.92216,8.45836c0,0 -6.00606,-0.19723 -9.77242,-0.32091c-2.41618,-0.07934 -7.24926,-1.91707 -11.70664,-3.84939c-5.06366,-2.19513 -23.93351,-18.56215 -23.93351,-18.56215c0,0 18.13546,15.02276 22.65821,15.86053c4.76274,0.88218 10.27772,1.61438 12.84744,0.90253c3.51861,-0.97472 8.98475,-2.48895 8.98475,-2.48895z" fill="#2e1267" stroke="none" stroke-width="0"/><path d="M319.8327,291.49754l0.92216,8.45836c0,0 -6.00606,-0.19723 -9.77242,-0.32091c-2.41618,-0.07934 -7.24926,-1.91707 -11.70664,-3.84939c-5.06366,-2.19513 -23.93351,-18.56215 -23.93351,-18.56215c0,0 18.13546,15.02276 22.65821,15.86053c4.76274,0.88218 10.27772,1.61438 12.84744,0.90253c3.51861,-0.97472 8.98475,-2.48895 8.98475,-2.48895z" fill="#2e1267" stroke="none" stroke-width="0"/><path d="M458.71885,181.84711c0,0 2.27265,0.30676 4.59386,5.44657c1.69525,3.75368 7.79588,9.63663 13.33663,14.47693c5.26158,4.59638 39.06811,11.81217 39.06811,11.81217c0,0 -35.97735,-6.8004 -43.23803,-10.73764c-6.39135,-3.46582 -13.04089,-7.47132 -15.45058,-10.28087c-3.75624,-4.37956 -9.74617,-11.36344 -9.74617,-11.36344l5.10286,0.99529z" data-paper-data="{&quot;index&quot;:null}" fill="#2e1267" stroke="none" stroke-width="0"/><path d="M411.10706,178.48566c0,0 3.60598,7.98465 5.92719,13.12444c1.69525,3.75368 7.79587,9.63662 13.33662,14.47692c5.26158,4.59638 39.06811,11.81217 39.06811,11.81217c0,0 -35.97735,-6.80041 -43.23803,-10.73765c-6.39135,-3.46582 -13.04089,-7.47132 -15.45058,-10.28087c-3.75624,-4.37956 -9.74617,-11.36344 -9.74617,-11.36344l10.10285,-7.03158z" data-paper-data="{&quot;index&quot;:null}" fill="#2e1267" stroke="none" stroke-width="0"/><path d="M383.9538,182.50252c0,0 2.28898,8.50088 3.76243,13.97297c1.07612,3.99639 6.15854,10.85864 10.85431,16.59537c4.45918,5.44764 36.65107,18.44302 36.65107,18.44302c0,0 -34.39846,-12.96332 -40.93355,-18.10869c-5.75264,-4.52928 -11.67424,-9.63567 -13.60467,-12.82529c-3.00916,-4.97202 -7.80775,-12.90065 -7.80775,-12.90065z" data-paper-data="{&quot;index&quot;:null}" fill="#2e1267" stroke="none" stroke-width="0"/><path d="M450.88548,182.25966l-5.10286,0.99529c0,0 5.98993,-6.98388 9.74617,-11.36343c2.40969,-2.80955 9.05923,-6.81506 15.45058,-10.28087c7.26068,-3.93725 43.23803,-10.73765 43.23803,-10.73765c0,0 -33.80653,7.21579 -39.06811,11.81217c-5.54075,4.8403 -11.64137,10.72323 -13.33663,14.47693c-2.32121,5.13979 -4.59386,5.44657 -4.59386,5.44657z" fill="#2e1267" stroke="none" stroke-width="0"/><path d="M409.60705,185.9701l-10.10285,-7.03158c0,0 5.98993,-6.98388 9.74617,-11.36344c2.40969,-2.80955 9.05923,-6.81506 15.45058,-10.28087c7.26068,-3.93725 43.23803,-10.73764 43.23803,-10.73764c0,0 -33.80653,7.21579 -39.06811,11.81217c-5.54075,4.8403 -11.64137,10.72323 -13.33662,14.47693c-2.32121,5.13979 -5.92719,13.12444 -5.92719,13.12444z" fill="#2e1267" stroke="none" stroke-width="0"/><path d="M382.45378,181.95325l-11.07816,-5.17673c0,0 4.79859,-7.92864 7.80775,-12.90066c1.93043,-3.18962 7.85203,-8.296 13.60467,-12.82529c6.53508,-5.14537 40.93355,-18.10869 40.93355,-18.10869c0,0 -32.19189,12.99537 -36.65107,18.44302c-4.69577,5.73673 -9.77819,12.59897 -10.85431,16.59537c-1.47345,5.47211 -3.76243,13.97297 -3.76243,13.97297z" fill="#2e1267" stroke="none" stroke-width="0"/><path d="M313.6645,105.20215l-12.11589,0.6438c0,0 0.84417,-9.34469 1.37354,-15.2047c0.33961,-3.75929 3.40677,-11.12138 6.57321,-17.88892c3.59711,-7.68803 11.78603,-14.84601 11.78603,-14.84601c0,0 -6.20824,6.13925 -7.82413,13.11143c-1.7016,7.34214 -3.26051,15.87104 -2.4893,19.94394c1.05601,5.57686 2.69653,14.24046 2.69653,14.24046z" fill="#413658" stroke="none" stroke-width="0"/><path d="M303.7981,104.67865l-12.11589,0.6438c0,0 0.84417,-9.34469 1.37354,-15.2047c0.3396,-3.75929 3.40677,-11.12139 6.57321,-17.88892c3.59711,-7.68803 11.78604,-14.84601 11.78604,-14.84601c0,0 -6.20824,6.13925 -7.82413,13.11143c-1.7016,7.34214 -3.2605,15.87103 -2.4893,19.94393c1.05601,5.57686 2.69653,14.24046 2.69653,14.24046z" fill="#413658" stroke="none" stroke-width="0"/><path d="M330.51223,134.41691c0,-4.65739 9.75542,-8.05191 17.06984,-9.43518c2.37212,-0.4486 11.15418,3.50228 12.59683,3.50228c5.89103,0 -16.66666,1.51007 -16.66666,7.67787c0,6.16781 -1.33334,11.51682 -1.33334,11.51682c0,0 -11.66666,-7.09398 -11.66666,-13.26179z" fill="#16032e" stroke="none" stroke-width="0"/><path d="M367.24771,134.52189c0,0.56484 -14.66099,3.3198 -18.44995,4.99027c-2.02932,0.89469 -4.45393,1.55337 -7.11509,1.55337c-2.63787,0 -5.85306,-1.13104 -7.94967,-1.27685c-3.96767,-0.27596 -6.36536,-4.43758 -6.36536,-5.00505c0,-0.56898 2.16174,2.59714 6.14693,2.32164c0.95731,-0.06618 2.41069,0.21007 3.95706,0.52889c1.8293,0.37715 3.78874,0.81392 5.21105,0.81392c7.62984,0 24.56504,-4.79354 24.56504,-3.92619z" fill="#000000" stroke="none" stroke-width="0"/><g stroke-width="0"><path d="M224.50003,177.38515c0.53405,-22.34129 45.05292,-19.11558 51.61252,-24.90645c6.15598,-5.43454 6.01963,-46.94951 15.31297,-50.34555c11.93558,-4.36159 36.57552,-0.09451 51.33903,9.18559c9.4082,5.91383 13.05438,17.90518 19.23547,17.90518c2.67388,0 -20.67053,-4.61066 -23.93745,-1.27743c-2.37788,2.42614 -3.24382,5.81203 -4.5665,8.19822c-1.55731,2.80948 9.13846,11.24072 9.13846,11.24072c0,0 -23.9589,6.70601 -11.54573,10.5343c6.79469,2.09551 16.72755,11.12327 29.87561,13.33832c52.71409,8.88072 142.03562,10.83854 142.03562,10.83854c0,0 -86.33199,-1.78204 -134.17518,15.55184c-20.60745,7.46621 -23.48602,31.27001 -26.73874,39.16193c-1.90176,4.61414 110.28137,23.25161 110.28137,23.25161c0,0 -119.18082,1.84238 -120.69079,7.21728c-7.36502,26.21644 -9.67665,47.26074 -9.67665,47.26074c0,0 -7.57038,-38.15299 -24.4189,-76.18805c-6.49077,-14.65273 -15.66861,-28.80344 -22.54597,-40.80226c-5.50439,-9.6034 -51.06918,2.17678 -50.53513,-20.1645z" fill="url(#color-1)" stroke="none"/><path d="M270.80683,344.2186c-1.58306,-0.31494 45.414,7.04075 46.99345,-16.28909c0.51599,-7.62155 1.13702,-14.74444 1.79459,-20.87007c1.35528,-12.62516 0.53242,-21.36316 1.59832,-21.1511c1.58306,0.31494 1.586,19.48283 0.00655,42.81268c-1.57945,23.32985 -48.80984,15.81254 -50.39291,15.4976z" fill="#342448" stroke="#000000"/><path d="M322.84936,328.72097c-1.57945,-23.32985 -1.57651,-42.49773 0.00655,-42.81268c1.05433,-0.20975 0.21031,8.69386 1.55414,21.09054c0.67392,6.2168 2.31124,12.7896 2.83877,20.58164c1.57945,23.32985 35.90985,18.41712 34.32679,18.73206c-1.58306,0.31494 -37.14679,5.73829 -38.72625,-17.59156z" data-paper-data="{&quot;index&quot;:null}" fill="#342448" stroke="#000000"/></g><path d="M325.17886,116.7246c0,0 -6.93959,6.1074 -15.5,6.1074c-8.56041,0 -15.5,-6.1074 -15.5,-6.1074c0,0 6.93959,-6.10741 15.5,-6.10741c8.56041,0 15.5,6.10741 15.5,6.10741z" fill="#000000" stroke="none" stroke-width="0"/><path d="M318.75613,116.7246c0,3.01804 -4.06402,5.46463 -9.07723,5.46463c-5.01322,0 -9.07723,-2.4466 -9.07723,-5.46463c0,-3.01804 4.06402,-5.46463 9.07723,-5.46463c5.01322,0 9.07723,2.4466 9.07723,5.46463z" fill="url(#color-2)" stroke="none" stroke-width="0"/><path d="M311.01223,117.07359c0,0.6746 -0.44772,1.22149 -1,1.22149c-0.55228,0 -1,-0.54687 -1,-1.22149c0,-0.6746 0.44772,-1.22149 1,-1.22149c0.55228,0 1,0.54687 1,1.22149z" fill="#780cff" stroke="none" stroke-width="0"/><path d="M165.23946,180c0,-85.47188 69.28866,-154.76054 154.76054,-154.76054c85.47188,0 154.76054,69.28866 154.76054,154.76054c0,85.47188 -69.28866,154.76054 -154.76054,154.76054c-85.47188,0 -154.76054,-69.28866 -154.76054,-154.76054z" fill="url(#color-3)" stroke="none" stroke-width="none"/></g></g></svg>