<svg version="1.1" xmlns="http://www.w3.org/2000/svg" xmlns:xlink="http://www.w3.org/1999/xlink" width="991.93056" height="849.03355" viewBox="0,0,991.93056,849.03355"><defs><linearGradient x1="319.91481" y1="363.77077" x2="319.91481" y2="287.19417" gradientUnits="userSpaceOnUse" id="color-1"><stop offset="0" stop-color="#ff0000" stop-opacity="0.28235"/><stop offset="1" stop-color="#ff0000" stop-opacity="0"/></linearGradient><linearGradient x1="319.91481" y1="-4.09714" x2="319.91481" y2="72.47947" gradientUnits="userSpaceOnUse" id="color-2"><stop offset="0" stop-color="#ff0000" stop-opacity="0.28235"/><stop offset="1" stop-color="#ff0000" stop-opacity="0"/></linearGradient><linearGradient x1="68.62464" y1="180" x2="127.82002" y2="180" gradientUnits="userSpaceOnUse" id="color-3"><stop offset="0" stop-color="#ff0000" stop-opacity="0.28235"/><stop offset="1" stop-color="#ff0000" stop-opacity="0"/></linearGradient><linearGradient x1="571.52167" y1="180.00004" x2="512.32629" y2="180.00004" gradientUnits="userSpaceOnUse" id="color-4"><stop offset="0" stop-color="#ff0000" stop-opacity="0.28235"/><stop offset="1" stop-color="#ff0000" stop-opacity="0"/></linearGradient></defs><g transform="translate(175.89213,244.51677)"><g data-paper-data="{&quot;isPaintingLayer&quot;:true}" fill-rule="nonzero" stroke="none" stroke-width="0" stroke-linecap="butt" stroke-linejoin="miter" stroke-miterlimit="10" stroke-dasharray="" stroke-dashoffset="0" style="mix-blend-mode: normal"><path d="M570.62465,287.19417v76.57657h-501.41966v-76.57657z" fill="url(#color-1)"/><path d="M69.20498,72.47947v-76.57657h501.41966v76.57657z" fill="url(#color-2)"/><path d="M127.82002,364.09713h-59.19537v-368.19425h59.19537z" fill="url(#color-3)"/><path d="M512.32629,-4.09713h59.19537v368.19425h-59.19537z" fill="url(#color-4)"/><g fill="#430000"><path d="M-175.89213,448.4985v-540h244.51677v540z"/><path d="M571.52165,433.48349v-540h244.51678v540z"/><path d="M50,-244.51677h540v244.51677h-540z"/><path d="M50,360h540v244.51678h-540z"/></g></g></g></svg>