<svg version="1.1" xmlns="http://www.w3.org/2000/svg" xmlns:xlink="http://www.w3.org/1999/xlink" width="16.75" height="16.75" viewBox="0,0,16.75,16.75"><defs><linearGradient x1="315.34659" y1="177.8672" x2="315.34659" y2="182.13282" gradientUnits="userSpaceOnUse" id="color-1"><stop offset="0" stop-color="#0d741e"/><stop offset="1" stop-color="#21cc3d"/></linearGradient><linearGradient x1="315.34659" y1="177.8672" x2="324.65341" y2="177.8672" gradientUnits="userSpaceOnUse" id="color-2"><stop offset="0" stop-color="#001303"/><stop offset="1" stop-color="#324134"/></linearGradient><linearGradient x1="322.77912" y1="179.22444" x2="315.9929" y2="179.22444" gradientUnits="userSpaceOnUse" id="color-3"><stop offset="0" stop-color="#0d741e"/><stop offset="1" stop-color="#21cc3d"/></linearGradient></defs><g transform="translate(-311.625,-171.62501)"><g data-paper-data="{&quot;isPaintingLayer&quot;:true}" fill-rule="nonzero" stroke-linejoin="miter" stroke-miterlimit="10" stroke-dasharray="" stroke-dashoffset="0" style="mix-blend-mode: normal"><path d="M312.125,184.34162c0,-3.27844 0,-7.89601 0,-9.57143c0,-1.21678 1.38078,-2.64518 2.48003,-2.64518c1.66091,0 6.50556,0 9.85714,0c1.96233,0 3.41283,0.89084 3.41283,2.21661c0,3.15745 0,8.78179 0,10.71429c0,1.28119 -1.456,2.8191 -3.41283,2.8191c-3.19217,0 -7.71715,0 -9.42857,0c-1.3138,0 -2.9086,-2.49755 -2.9086,-3.53339z" fill="#494949" stroke="#6e6e6e" stroke-width="1" stroke-linecap="butt"/><g><path d="M315.47585,180.35548c0,-0.49972 0.40511,-0.90483 0.90483,-0.90483c0.49972,0 0.90483,0.40511 0.90483,0.90483c0,0.49972 -0.40511,0.90483 -0.90483,0.90483c-0.49972,0 -0.90483,-0.40511 -0.90483,-0.90483z" fill="#033f0d" stroke="none" stroke-width="0" stroke-linecap="butt"/><path d="M315.34659,182.13282v-4.26563" fill="none" stroke="url(#color-1)" stroke-width="1.5" stroke-linecap="round"/><path d="M324.65341,177.8672h-9.30682" fill="none" stroke="url(#color-2)" stroke-width="1.5" stroke-linecap="round"/><path d="M322.77912,179.22444h-6.78622" fill="none" stroke="url(#color-3)" stroke-width="1.5" stroke-linecap="round"/></g></g></g></svg>