<svg version="1.1" xmlns="http://www.w3.org/2000/svg" xmlns:xlink="http://www.w3.org/1999/xlink" width="27.35" height="26.79688" viewBox="0,0,27.35,26.79688"><defs><linearGradient x1="239.85001" y1="179.675" x2="253.60001" y2="179.675" gradientUnits="userSpaceOnUse" id="color-1"><stop offset="0" stop-color="#585858"/><stop offset="1" stop-color="#820000"/></linearGradient><linearGradient x1="240.00001" y1="181.55" x2="240.00001" y2="167.8" gradientUnits="userSpaceOnUse" id="color-2"><stop offset="0" stop-color="#585858"/><stop offset="1" stop-color="#820000"/></linearGradient><linearGradient x1="240.00001" y1="179.8" x2="226.25002" y2="179.8" gradientUnits="userSpaceOnUse" id="color-3"><stop offset="0" stop-color="#585858"/><stop offset="1" stop-color="#820000"/></linearGradient><linearGradient x1="240.00002" y1="180.75" x2="240.00002" y2="194.5" gradientUnits="userSpaceOnUse" id="color-4"><stop offset="0" stop-color="#585858"/><stop offset="1" stop-color="#820000"/></linearGradient><radialGradient cx="236.66252" cy="178.8125" r="1.1875" gradientUnits="userSpaceOnUse" id="color-5"><stop offset="0" stop-color="#ffffff"/><stop offset="1" stop-color="#ffffff" stop-opacity="0"/></radialGradient><radialGradient cx="243.16252" cy="178.8125" r="1.1875" gradientUnits="userSpaceOnUse" id="color-6"><stop offset="0" stop-color="#ffffff"/><stop offset="1" stop-color="#ffffff" stop-opacity="0"/></radialGradient><radialGradient cx="240.00001" cy="180" r="12.29688" gradientUnits="userSpaceOnUse" id="color-7"><stop offset="0" stop-color="#ff4b4b" stop-opacity="0.45098"/><stop offset="1" stop-color="#ff4b4b" stop-opacity="0"/></radialGradient></defs><g transform="translate(-226.25001,-167.70312)"><g data-paper-data="{&quot;isPaintingLayer&quot;:true}" fill-rule="nonzero" stroke="none" stroke-linecap="butt" stroke-linejoin="miter" stroke-miterlimit="10" stroke-dasharray="" stroke-dashoffset="0" style="mix-blend-mode: normal"><path d="M246.72502,184.8c-3.79696,0 -6.875,-2.29454 -6.875,-5.125c0,-2.83046 3.07804,-5.125 6.875,-5.125c3.79696,0 6.875,2.29454 6.875,5.125c0,2.83046 -3.07804,5.125 -6.875,5.125z" fill="url(#color-1)" stroke-width="0"/><path d="M245.12502,174.675c0,3.79696 -2.29454,6.875 -5.125,6.875c-2.83046,0 -5.125,-3.07804 -5.125,-6.875c0,-3.79696 2.29454,-6.875 5.125,-6.875c2.83046,0 5.125,3.07804 5.125,6.875z" fill="url(#color-2)" stroke-width="0"/><path d="M233.12502,174.675c3.79696,0 6.875,2.29454 6.875,5.125c0,2.83046 -3.07804,5.125 -6.875,5.125c-3.79696,0 -6.875,-2.29454 -6.875,-5.125c0,-2.83046 3.07804,-5.125 6.875,-5.125z" fill="url(#color-3)" stroke-width="0"/><path d="M234.87502,187.625c0,-3.79696 2.29454,-6.875 5.125,-6.875c2.83046,0 5.125,3.07804 5.125,6.875c0,3.79696 -2.29454,6.875 -5.125,6.875c-2.83046,0 -5.125,-3.07804 -5.125,-6.875z" fill="url(#color-4)" stroke-width="0"/><path d="M233.12502,180c0,-3.79696 3.07804,-6.875 6.875,-6.875c3.79696,0 6.875,3.07804 6.875,6.875c0,3.79696 -3.07804,6.875 -6.875,6.875c-3.79696,0 -6.875,-3.07804 -6.875,-6.875z" fill="#4d4d4d" stroke-width="0"/><path d="M235.47502,178.8125c0,-0.65584 0.53166,-1.1875 1.1875,-1.1875c0.65584,0 1.1875,0.53166 1.1875,1.1875c0,0.65584 -0.53166,1.1875 -1.1875,1.1875c-0.65584,0 -1.1875,-0.53166 -1.1875,-1.1875z" fill="url(#color-5)" stroke-width="0"/><path d="M241.97502,178.8125c0,-0.65584 0.53166,-1.1875 1.1875,-1.1875c0.65584,0 1.1875,0.53166 1.1875,1.1875c0,0.65584 -0.53166,1.1875 -1.1875,1.1875c-0.65584,0 -1.1875,-0.53166 -1.1875,-1.1875z" fill="url(#color-6)" stroke-width="0"/><path d="M227.70313,180c0,-6.79138 5.5055,-12.29688 12.29688,-12.29688c6.79138,0 12.29688,5.5055 12.29688,12.29688c0,6.79138 -5.5055,12.29688 -12.29688,12.29688c-6.79138,0 -12.29687,-5.5055 -12.29687,-12.29687z" fill="url(#color-7)" stroke-width="NaN"/></g></g></svg>