<svg version="1.1" xmlns="http://www.w3.org/2000/svg" xmlns:xlink="http://www.w3.org/1999/xlink" width="302.63157" height="302.63157" viewBox="0,0,302.63157,302.63157"><defs><radialGradient cx="283.09566" cy="119.927" r="151.31579" gradientUnits="userSpaceOnUse" id="color-1"><stop offset="0" stop-color="#1aa383" stop-opacity="0.63137"/><stop offset="1" stop-color="#1aa383" stop-opacity="0"/></radialGradient><linearGradient x1="259.18807" y1="121.89614" x2="259.18807" y2="128.65896" gradientUnits="userSpaceOnUse" id="color-2"><stop offset="0" stop-color="#0d735b"/><stop offset="1" stop-color="#23c49f"/></linearGradient><linearGradient x1="283.09565" y1="116.5456" x2="283.09565" y2="123.30839" gradientUnits="userSpaceOnUse" id="color-3"><stop offset="0" stop-color="#1f302c"/><stop offset="1" stop-color="#0d741e"/></linearGradient><linearGradient x1="242.00005" y1="130.35886" x2="256.00003" y2="130.35886" gradientUnits="userSpaceOnUse" id="color-4"><stop offset="0" stop-color="#0a6651"/><stop offset="1" stop-color="#23c49f"/></linearGradient><linearGradient x1="242.00005" y1="144.5663" x2="256.00003" y2="144.5663" gradientUnits="userSpaceOnUse" id="color-5"><stop offset="0" stop-color="#0a6651"/><stop offset="1" stop-color="#23c49f"/></linearGradient><linearGradient x1="249.00005" y1="117.10551" x2="249.00005" y2="122.06951" gradientUnits="userSpaceOnUse" id="color-6"><stop offset="0" stop-color="#1f302c"/><stop offset="1" stop-color="#23c49f"/></linearGradient></defs><g transform="translate(-131.77988,31.38879)"><g data-paper-data="{&quot;isPaintingLayer&quot;:true}" fill-rule="nonzero" stroke-linecap="butt" stroke-linejoin="miter" stroke-miterlimit="10" stroke-dasharray="" stroke-dashoffset="0" style="mix-blend-mode: normal"><path d="M131.77988,119.927c0,-83.5694 67.74638,-151.31579 151.31579,-151.31579c83.5694,0 151.31579,67.74638 151.31579,151.31579c0,83.5694 -67.74638,151.31579 -151.31579,151.31579c-83.5694,0 -151.31579,-67.74638 -151.31579,-151.31579z" fill="url(#color-1)" stroke="none" stroke-width="0"/><path d="M255.50005,128.65896v-6.76281h7.37608c0,0 0,1.66934 0,2.64915c0,1.22097 -0.82645,3.08059 -0.82645,3.08059c0,0 -2.01913,1.03307 -3.31435,1.03307c-1.14488,0 -3.23528,0 -3.23528,0z" fill="url(#color-2)" stroke="#000000" stroke-width="1"/><path d="M255.39938,116.5456h55.39258c0,0 0,3.19883 0,4.44125c0,0.89826 -1.03307,1.60406 -1.03307,1.60406c0,0 -0.66942,0.7175 -2.57025,0.7175c-7.20627,0 -51.78926,0 -51.78926,0z" fill="url(#color-3)" stroke="#000000" stroke-width="1"/><path d="M242.00005,117.29642c0,0 0,-5.28321 0,-7.28863c0,-1.4093 2.49255,-2.6288 2.49255,-2.6288c0,0 2.90756,-3.55934 8.14742,-3.55934c7.17021,0 1.94309,-0.05087 26.86777,-0.09556c19.52539,-0.03501 29.49249,2.74135 38.46207,3.16953c3.8564,0.1841 16.18146,0.54116 25.46294,0.84881c6.23376,0.20664 8.32508,1.19992 8.32508,1.29463c0,0.22016 2.7695,0.98209 2.7695,2.58861c0,1.27552 0,2.5735 0,3.23577c0,1.39354 -1.38476,1.78783 -1.38476,1.78783c0,0 -0.71193,0.64715 -3.29283,0.64715c-12.39282,0 -107.84973,0 -107.84973,0z" fill="#1f302c" stroke="#000000" stroke-width="1"/><path d="M242.00005,143.42132v-26.1249h14c0,0 0,6.94283 0,13.07717c0,0.66716 -2.06612,3.77827 -2.06612,4.41633c0,2.53326 2.06612,2.30509 2.06612,3.59849c0,0.58369 -1.85952,1.69326 -1.85952,2.28995c0,1.70766 1.85952,2.74296 1.85952,2.74296z" fill="url(#color-4)" stroke="#000000" stroke-width="1"/><path d="M242.84373,145.26254c0,0 -0.84372,-1.09236 -0.84372,-1.54635c0,-0.20922 0,-0.45846 0,-0.45846h14c0,0 0,0.56146 0,0.91286c0,0.48013 -0.40907,1.44514 -0.40907,1.44514c0,0 -0.9494,0.25908 -2.08328,0.25908c-1.38494,0 -4.91363,0 -7.70145,0c-2.11663,0 -2.96247,-0.61228 -2.96247,-0.61228z" fill="url(#color-5)" stroke="#000000" stroke-width="1"/><path d="M242.00005,122.06951v-4.964h14v4.964z" fill="url(#color-6)" stroke="none" stroke-width="0"/></g></g></svg>