<svg version="1.1" xmlns="http://www.w3.org/2000/svg" xmlns:xlink="http://www.w3.org/1999/xlink" width="223.03092" height="223.03092" viewBox="0,0,223.03092,223.03092"><defs><linearGradient x1="320" y1="112.10567" x2="320" y2="247.89433" gradientUnits="userSpaceOnUse" id="color-1"><stop offset="0" stop-color="#450089"/><stop offset="1" stop-color="#5a008a"/></linearGradient><radialGradient cx="258.67922" cy="205.82461" r="15.07343" gradientUnits="userSpaceOnUse" id="color-2"><stop offset="0" stop-color="#ff6e6e"/><stop offset="1" stop-color="#ffffff"/></radialGradient><radialGradient cx="324.19964" cy="189.86596" r="18.54169" gradientUnits="userSpaceOnUse" id="color-3"><stop offset="0" stop-color="#ff6e6e"/><stop offset="1" stop-color="#ffffff"/></radialGradient><radialGradient cx="277.15767" cy="164.66805" r="15.07344" gradientUnits="userSpaceOnUse" id="color-4"><stop offset="0" stop-color="#ff6e6e"/><stop offset="1" stop-color="#ffffff"/></radialGradient><radialGradient cx="325.03958" cy="247.89433" r="15.07344" gradientUnits="userSpaceOnUse" id="color-5"><stop offset="0" stop-color="#ff6e6e"/><stop offset="1" stop-color="#ffffff"/></radialGradient><radialGradient cx="366.23903" cy="225.21669" r="11.60288" gradientUnits="userSpaceOnUse" id="color-6"><stop offset="0" stop-color="#ff6e6e"/><stop offset="1" stop-color="#ffffff"/></radialGradient><radialGradient cx="375.43538" cy="154.58889" r="18.54168" gradientUnits="userSpaceOnUse" id="color-7"><stop offset="0" stop-color="#ff6e6e"/><stop offset="1" stop-color="#ffffff"/></radialGradient><radialGradient cx="324.19964" cy="141.56998" r="11.60459" gradientUnits="userSpaceOnUse" id="color-8"><stop offset="0" stop-color="#ff6e6e"/><stop offset="1" stop-color="#ffffff"/></radialGradient><radialGradient cx="320.00001" cy="180" r="111.51546" gradientUnits="userSpaceOnUse" id="color-9"><stop offset="0" stop-color="#7a00d1" stop-opacity="0.67059"/><stop offset="1" stop-color="#7a00d1" stop-opacity="0"/></radialGradient></defs><g transform="translate(-208.48454,-68.48454)"><g data-paper-data="{&quot;isPaintingLayer&quot;:true}" fill-rule="nonzero" stroke-linejoin="miter" stroke-miterlimit="10" stroke-dasharray="" stroke-dashoffset="0" style="mix-blend-mode: normal"><path d="M332.60331,247.89433v-26.57637" fill="#1d0034" stroke="#1d0034" stroke-width="8.5" stroke-linecap="round"/><path d="M366.23903,221.31796v26.57637" fill="none" stroke="#1d0034" stroke-width="8.5" stroke-linecap="round"/><path d="M252.10567,180c0,-37.49701 30.39733,-67.89433 67.89433,-67.89433c37.49701,0 67.89433,30.39733 67.89433,67.89433c0,37.49701 -30.39733,67.89433 -67.89433,67.89433c-37.49701,0 -67.89433,-30.39733 -67.89433,-67.89433z" fill="url(#color-1)" stroke="none" stroke-width="0" stroke-linecap="butt"/><g stroke="#000000" stroke-width="3.5" stroke-linecap="butt"><path d="M242.15163,213.55767c-4.27084,-9.12793 -0.33339,-19.98977 8.79453,-24.26063c9.12793,-4.27084 19.98977,-0.33339 24.26063,8.79453c4.27084,9.12793 0.33339,19.98977 -8.79453,24.26063c-9.12793,4.27084 -19.98977,0.33339 -24.26063,-8.79453z" fill="#a100d9"/><path d="M272.33211,199.4366c2.38513,5.09766 -1.79394,12.09014 -9.33424,15.61815c-7.54028,3.528 -15.58642,2.25555 -17.97156,-2.84211c-2.38513,-5.09766 1.79394,-12.09014 9.33424,-15.61815c7.54028,-3.528 15.58642,-2.25555 17.97156,2.84211z" fill="url(#color-2)"/></g><path d="M296.47606,221.31796v26.57637" fill="none" stroke="#1d0034" stroke-width="8.5" stroke-linecap="round"/><g stroke="#000000" stroke-width="3.5" stroke-linecap="butt"><path d="M302.89557,182.79864c3.90316,-11.76591 16.60547,-18.13993 28.37139,-14.23677c11.76591,3.90316 18.13993,16.60547 14.23677,28.37139c-3.90316,11.76591 -16.60547,18.13993 -28.37139,14.23677c-11.76591,-3.90316 -18.13993,-16.60547 -14.23677,-28.37139z" fill="#a100d9"/><path d="M341.79827,195.70402c-2.17979,6.57089 -11.82603,9.28386 -21.54548,6.05958c-9.71945,-3.22428 -15.83154,-11.16484 -13.65174,-17.73573c2.17979,-6.57089 11.82603,-9.28386 21.54548,-6.05958c9.71945,3.22428 15.83154,11.16483 13.65174,17.73572z" fill="url(#color-3)"/></g><g stroke="#000000" stroke-width="3.5" stroke-linecap="butt"><path d="M259.04122,166.84858c-1.20427,-10.00544 5.93049,-19.09271 15.93593,-20.29698c10.00544,-1.20427 19.09271,5.93049 20.29698,15.93593c1.20427,10.00544 -5.93049,19.09271 -15.93593,20.29698c-10.00544,1.20427 -19.09271,-5.93049 -20.29698,-15.93593z" fill="#a100d9"/><path d="M292.1231,162.8668c0.67254,5.58772 -5.4825,10.92392 -13.74767,11.91873c-8.26518,0.99481 -15.51063,-2.72849 -16.18317,-8.31621c-0.67254,-5.58772 5.4825,-10.92391 13.74767,-11.91872c8.26518,-0.99481 15.51063,2.72849 16.18317,8.31621z" fill="url(#color-4)"/></g><g stroke="#000000" stroke-width="3.5" stroke-linecap="butt"><path d="M307.39753,243.23399c2.57384,-9.74343 12.55896,-15.55555 22.30239,-12.98171c9.74343,2.57384 15.55555,12.55896 12.98171,22.30239c-2.57384,9.74343 -12.55896,15.55555 -22.30239,12.98171c-9.74343,-2.57384 -15.55555,-12.55896 -12.98171,-22.30239z" fill="#a100d9"/><path d="M339.61312,251.74409c-1.4374,5.4414 -9.12745,8.12893 -17.1762,6.00277c-8.04874,-2.12616 -13.40827,-8.26088 -11.97087,-13.70229c1.4374,-5.4414 9.12744,-8.12892 17.17618,-6.00276c8.04874,2.12616 13.40828,8.26088 11.97088,13.70229z" fill="url(#color-5)"/></g><g stroke="#000000" stroke-width="3.5" stroke-linecap="butt"><path d="M352.65893,221.62936c1.98123,-7.50007 9.66736,-11.97399 17.16743,-9.99276c7.50007,1.98123 11.97399,9.66736 9.99276,17.16743c-1.98123,7.50007 -9.66736,11.97399 -17.16743,9.99276c-7.50007,-1.98123 -11.97399,-9.66736 -9.99276,-17.16743z" fill="#a100d9"/><path d="M377.45712,228.18006c-1.10645,4.18856 -7.02592,6.2573 -13.22149,4.62068c-6.19558,-1.63663 -10.32111,-6.35887 -9.21466,-10.54743c1.10645,-4.18856 7.02592,-6.2573 13.22149,-4.62066c6.19558,1.63663 10.32112,6.35887 9.21467,10.54743z" fill="url(#color-6)"/></g><g stroke="#000000" stroke-width="3.5" stroke-linecap="butt"><path d="M354.1313,147.52159c3.90316,-11.76591 16.60547,-18.13993 28.37139,-14.23677c11.76591,3.90316 18.13995,16.60547 14.23677,28.37139c-3.90316,11.76591 -16.60547,18.13993 -28.37139,14.23677c-11.76591,-3.90316 -18.13995,-16.60546 -14.23677,-28.37137z" fill="#a100d9"/><path d="M393.03399,160.42696c-2.17979,6.57089 -11.82603,9.28386 -21.54549,6.05959c-9.71945,-3.22428 -15.83153,-11.16483 -13.65173,-17.73572c2.17979,-6.57089 11.82602,-9.28386 21.54548,-6.05959c9.71945,3.22428 15.83154,11.16483 13.65174,17.73572z" fill="url(#color-7)"/></g><g stroke="#000000" stroke-width="3.5" stroke-linecap="butt"><path d="M310.25233,143.2487c-0.92713,-7.70289 4.56571,-14.69891 12.26859,-15.62604c7.70289,-0.92713 14.69891,4.56571 15.62604,12.26859c0.92713,7.70289 -4.56571,14.69891 -12.26859,15.62604c-7.70289,0.92713 -14.69891,-4.56571 -15.62604,-12.26859z" fill="#a100d9"/><path d="M335.72108,140.18324c0.51778,4.30182 -4.22081,8.41 -10.58392,9.17588c-6.36311,0.76587 -11.94117,-2.10059 -12.45893,-6.4024c-0.51778,-4.30182 4.22081,-8.40999 10.58392,-9.17586c6.36311,-0.76587 11.94117,2.10058 12.45895,6.4024z" fill="url(#color-8)"/></g><path d="M208.48454,180c0,-61.58828 49.92718,-111.51546 111.51546,-111.51546c61.58828,0 111.51546,49.92718 111.51546,111.51546c0,61.58828 -49.92718,111.51546 -111.51546,111.51546c-61.58828,0 -111.51546,-49.92718 -111.51546,-111.51546z" fill="url(#color-9)" stroke="none" stroke-width="0" stroke-linecap="butt"/></g></g></svg>