<svg version="1.1" xmlns="http://www.w3.org/2000/svg" xmlns:xlink="http://www.w3.org/1999/xlink" width="233.03092" height="233.03092" viewBox="0,0,233.03092,233.03092"><defs><linearGradient x1="320" y1="109.0615" x2="320" y2="250.9385" gradientUnits="userSpaceOnUse" id="color-1"><stop offset="0" stop-color="#8a0000"/><stop offset="1" stop-color="#d19045"/></linearGradient><radialGradient cx="255.92979" cy="206.98251" r="15.74927" gradientUnits="userSpaceOnUse" id="color-2"><stop offset="0" stop-color="#ff6e6e"/><stop offset="1" stop-color="#ffffff"/></radialGradient><radialGradient cx="324.38794" cy="190.30831" r="19.37304" gradientUnits="userSpaceOnUse" id="color-3"><stop offset="0" stop-color="#ff6e6e"/><stop offset="1" stop-color="#ffffff"/></radialGradient><radialGradient cx="275.23675" cy="163.98062" r="15.74928" gradientUnits="userSpaceOnUse" id="color-4"><stop offset="0" stop-color="#ff6e6e"/><stop offset="1" stop-color="#ffffff"/></radialGradient><radialGradient cx="325.26554" cy="250.9385" r="15.74928" gradientUnits="userSpaceOnUse" id="color-5"><stop offset="0" stop-color="#ff6e6e"/><stop offset="1" stop-color="#ffffff"/></radialGradient><radialGradient cx="368.31224" cy="227.24407" r="12.12312" gradientUnits="userSpaceOnUse" id="color-6"><stop offset="0" stop-color="#ff6e6e"/><stop offset="1" stop-color="#ffffff"/></radialGradient><radialGradient cx="377.92092" cy="153.44954" r="19.37303" gradientUnits="userSpaceOnUse" id="color-7"><stop offset="0" stop-color="#ff6e6e"/><stop offset="1" stop-color="#ffffff"/></radialGradient><radialGradient cx="324.38794" cy="139.84689" r="12.1249" gradientUnits="userSpaceOnUse" id="color-8"><stop offset="0" stop-color="#ff6e6e"/><stop offset="1" stop-color="#ffffff"/></radialGradient><radialGradient cx="320.00001" cy="180" r="116.51546" gradientUnits="userSpaceOnUse" id="color-9"><stop offset="0" stop-color="#d10000" stop-opacity="0.67059"/><stop offset="1" stop-color="#d10000" stop-opacity="0"/></radialGradient></defs><g transform="translate(-203.48454,-63.48454)"><g data-paper-data="{&quot;isPaintingLayer&quot;:true}" fill-rule="nonzero" stroke-linejoin="miter" stroke-miterlimit="10" stroke-dasharray="" stroke-dashoffset="0" style="mix-blend-mode: normal"><path d="M333.1684,223.17053v27.76797" fill="#1d0034" stroke="#1d0034" stroke-width="8.5" stroke-linecap="round"/><path d="M368.31224,250.9385v-27.76797" fill="none" stroke="#1d0034" stroke-width="8.5" stroke-linecap="round"/><path d="M249.0615,180c0,-39.17825 31.76025,-70.9385 70.9385,-70.9385c39.17825,0 70.9385,31.76025 70.9385,70.9385c0,39.17825 -31.76025,70.9385 -70.9385,70.9385c-39.17825,0 -70.9385,-31.76025 -70.9385,-70.9385z" fill="url(#color-1)" stroke="none" stroke-width="0" stroke-linecap="butt"/><g stroke="#000000" stroke-width="3.5" stroke-linecap="butt"><path d="M238.66116,215.06228c-4.46233,-9.53719 -0.34834,-20.88605 9.18885,-25.3484c9.53719,-4.46233 20.88605,-0.34834 25.3484,9.18885c4.46233,9.53719 0.34834,20.88605 -9.18885,25.3484c-9.53719,4.46233 -20.88605,0.34834 -25.3484,-9.18885z" fill="#a100d9"/><path d="M270.19483,200.30808c2.49208,5.32622 -1.87438,12.63222 -9.75276,16.31842c-7.87836,3.68619 -16.28527,2.35668 -18.77734,-2.96954c-2.49208,-5.32622 1.87438,-12.63222 9.75276,-16.31842c7.87836,-3.68619 16.28527,-2.35668 18.77734,2.96954z" fill="url(#color-2)"/></g><path d="M295.42132,250.9385v-27.76797" fill="none" stroke="#1d0034" stroke-width="8.5" stroke-linecap="round"/><g stroke="#000000" stroke-width="3.5" stroke-linecap="butt"><path d="M302.12867,182.92412c4.07817,-12.29346 17.35001,-18.95327 29.64347,-14.8751c12.29346,4.07817 18.95327,17.35001 14.8751,29.64347c-4.07817,12.29346 -17.35001,18.95327 -29.64347,14.8751c-12.29346,-4.07817 -18.95327,-17.35001 -14.8751,-29.64347z" fill="#a100d9"/><path d="M342.77563,196.40814c-2.27753,6.86551 -12.35628,9.70012 -22.51151,6.33127c-10.15524,-3.36885 -16.54137,-11.66544 -14.26385,-18.53095c2.27753,-6.86551 12.35628,-9.70012 22.51151,-6.33127c10.15524,3.36885 16.54137,11.66543 14.26385,18.53093z" fill="url(#color-3)"/></g><g stroke="#000000" stroke-width="3.5" stroke-linecap="butt"><path d="M256.30802,166.25891c-1.25827,-10.45406 6.19639,-19.94877 16.65045,-21.20703c10.45406,-1.25827 19.94877,6.19639 21.20703,16.65045c1.25827,10.45406 -6.19639,19.94877 -16.65045,21.20703c-10.45406,1.25827 -19.94877,-6.19639 -21.20703,-16.65045z" fill="#a100d9"/><path d="M290.87319,162.0986c0.70269,5.83825 -5.72832,11.41372 -14.36407,12.45313c-8.63577,1.03941 -16.20608,-2.85083 -16.90877,-8.68908c-0.70269,-5.83825 5.72832,-11.41371 14.36407,-12.45312c8.63577,-1.03941 16.20608,2.85083 16.90877,8.68908z" fill="url(#color-4)"/></g><g stroke="#000000" stroke-width="3.5" stroke-linecap="butt"><path d="M306.83247,246.0692c2.68925,-10.1803 13.12206,-16.25301 23.30236,-13.56377c10.1803,2.68925 16.25301,13.12206 13.56377,23.30236c-2.68925,10.1803 -13.12206,16.25301 -23.30236,13.56377c-10.1803,-2.68925 -16.25301,-13.12206 -13.56377,-23.30236z" fill="#a100d9"/><path d="M340.49251,254.96087c-1.50185,5.68538 -9.5367,8.49341 -17.94632,6.27191c-8.40962,-2.22149 -14.00946,-8.63128 -12.5076,-14.31665c1.50185,-5.68538 9.53669,-8.4934 17.94631,-6.2719c8.40962,2.22149 14.00947,8.63128 12.50762,14.31665z" fill="url(#color-5)"/></g><g stroke="#000000" stroke-width="3.5" stroke-linecap="butt"><path d="M354.12325,223.49588c2.07006,-7.83635 10.10081,-12.51087 17.93716,-10.44081c7.83635,2.07006 12.51087,10.10081 10.44081,17.93716c-2.07006,7.83635 -10.10081,12.51087 -17.93716,10.44081c-7.83635,-2.07006 -12.51087,-10.10081 -10.44081,-17.93716z" fill="#a100d9"/><path d="M380.03331,230.3403c-1.15606,4.37636 -7.34094,6.53786 -13.8143,4.82785c-6.47337,-1.71001 -10.78388,-6.64398 -9.62781,-11.02034c1.15606,-4.37636 7.34094,-6.53786 13.8143,-4.82784c6.47337,1.71001 10.78389,6.64398 9.62783,11.02034z" fill="url(#color-6)"/></g><g stroke="#000000" stroke-width="3.5" stroke-linecap="butt"><path d="M355.66164,146.06536c4.07817,-12.29346 17.35001,-18.95327 29.64347,-14.8751c12.29346,4.07817 18.95328,17.35001 14.8751,29.64347c-4.07817,12.29346 -17.35001,18.95327 -29.64347,14.8751c-12.29346,-4.07817 -18.95328,-17.35 -14.8751,-29.64346z" fill="#a100d9"/><path d="M396.3086,159.54937c-2.27753,6.86551 -12.35628,9.70012 -22.51152,6.33128c-10.15524,-3.36885 -16.54136,-11.66543 -14.26383,-18.53093c2.27753,-6.86551 12.35626,-9.70012 22.51151,-6.33128c10.15524,3.36885 16.54137,11.66543 14.26385,18.53093z" fill="url(#color-7)"/></g><g stroke="#000000" stroke-width="3.5" stroke-linecap="butt"><path d="M309.81527,141.60089c-0.96869,-8.04827 4.77043,-15.35796 12.81868,-16.32666c8.04827,-0.96869 15.35796,4.77043 16.32666,12.81868c0.96869,8.04827 -4.77043,15.35796 -12.81868,16.32666c-8.04827,0.96869 -15.35796,-4.77043 -16.32666,-12.81868z" fill="#a100d9"/><path d="M336.42596,138.39798c0.54099,4.4947 -4.41006,8.78708 -11.05847,9.58729c-6.64841,0.80021 -12.47657,-2.19477 -13.01755,-6.68946c-0.54099,-4.4947 4.41006,-8.78707 11.05847,-9.58728c6.64841,-0.80021 12.47657,2.19476 13.01757,6.68946z" fill="url(#color-8)"/></g><path d="M203.48454,180c0,-64.34971 52.16575,-116.51546 116.51546,-116.51546c64.34971,0 116.51546,52.16575 116.51546,116.51546c0,64.34971 -52.16575,116.51546 -116.51546,116.51546c-64.34971,0 -116.51546,-52.16575 -116.51546,-116.51546z" fill="url(#color-9)" stroke="none" stroke-width="0" stroke-linecap="butt"/></g></g></svg>