<svg version="1.1" xmlns="http://www.w3.org/2000/svg" xmlns:xlink="http://www.w3.org/1999/xlink" width="27.49988" height="23.64456" viewBox="0,0,27.49988,23.64456"><defs><radialGradient cx="316.62234" cy="179.99999" r="5.51875" gradientUnits="userSpaceOnUse" id="color-1"><stop offset="0" stop-color="#0017c2"/><stop offset="1" stop-color="#00094f" stop-opacity="0.58039"/></radialGradient><radialGradient cx="316.62234" cy="179.99999" r="11.82228" gradientUnits="userSpaceOnUse" id="color-2"><stop offset="0" stop-color="#0017c2" stop-opacity="0.82745"/><stop offset="1" stop-color="#0017c2" stop-opacity="0"/></radialGradient></defs><g transform="translate(-304.80006,-168.17772)"><g data-paper-data="{&quot;isPaintingLayer&quot;:true}" fill-rule="nonzero" stroke-linecap="butt" stroke-linejoin="miter" stroke-miterlimit="10" stroke-dasharray="" stroke-dashoffset="0" style="mix-blend-mode: normal"><path d="M309.85919,185.99903c0,-4.56708 0,-10.99964 0,-13.33361c0,-1.69505 1.92351,-3.6849 3.45484,-3.6849c2.31375,0 9.06266,0 13.73162,0c2.73365,0 4.75429,1.241 4.75429,3.08788c0,4.39853 0,12.23359 0,14.92569c0,1.78478 -2.0283,3.92719 -4.75429,3.92719c-4.4469,0 -10.75048,0 -13.1346,0c-1.83021,0 -4.05186,-3.47925 -4.05186,-4.92224z" fill="#25394f" stroke="#6e6e6e" stroke-width="1"/><text transform="translate(319.3,176.15656) scale(0.16092,0.16092)" font-size="40" xml:space="preserve" fill="#ff6666" fill-rule="nonzero" stroke="none" stroke-width="1" stroke-linecap="butt" stroke-linejoin="miter" stroke-miterlimit="10" stroke-dasharray="" stroke-dashoffset="0" font-family="Sans Serif" font-weight="normal" text-anchor="start" style="mix-blend-mode: normal"><tspan x="0" dy="0">E</tspan></text><g stroke="none"><g fill="#00d0ff" stroke-width="0"><path d="M323.80236,177.87965v-1.8709h6.79758v1.8709z"/><path d="M323.80236,180.93544v-1.8709h6.79758v1.8709z"/><path d="M323.80236,183.99123v-1.8709h6.79758v1.8709z"/></g><g><g><path d="M316.62234,183.65849c-3.04792,0 -5.51875,-1.63796 -5.51875,-3.6585c0,-2.02053 2.47083,-3.6585 5.51875,-3.6585c3.04792,0 5.51875,1.63796 5.51875,3.6585c0,2.02053 -2.47083,3.6585 -5.51875,3.6585z" fill="#096b22" stroke-width="NaN"/><path d="M316.62236,182.64586c-2.2043,0 -3.99124,-1.18459 -3.99124,-2.64587c0,-1.46128 1.78694,-2.64588 3.99124,-2.64588c2.2043,0 3.99124,1.1846 3.99124,2.64588c0,1.46128 -1.78694,2.64587 -3.99124,2.64587z" fill="#009f29" stroke-width="NaN"/><path d="M316.62234,181.77791c-1.48119,0 -2.68194,-0.796 -2.68194,-1.77792c0,-0.98192 1.20074,-1.77792 2.68194,-1.77792c1.48119,0 2.68194,0.796 2.68194,1.77792c0,0.98192 -1.20074,1.77792 -2.68194,1.77792z" fill="#37d660" stroke-width="NaN"/><path d="M316.62234,183.65849c-3.04792,0 -5.51875,-1.63796 -5.51875,-3.6585c0,-2.02053 2.47083,-3.6585 5.51875,-3.6585c3.04792,0 5.51875,1.63796 5.51875,3.6585c0,2.02053 -2.47083,3.6585 -5.51875,3.6585z" fill="url(#color-1)" stroke-width="NaN"/><path d="M313.3256,181.77791c-0.33955,0 -0.61481,-0.27525 -0.61481,-0.6148c0,-0.33955 0.27525,-0.61481 0.61481,-0.61481c0.33955,0 0.61481,0.27525 0.61481,0.61481c0,0.33955 -0.27525,0.6148 -0.61481,0.6148z" fill="#000000" stroke-width="0"/><path d="M313.3256,179.45169c-0.33955,0 -0.6148,-0.27525 -0.6148,-0.61481c0,-0.33955 0.27525,-0.6148 0.6148,-0.6148c0.33955,0 0.61481,0.27525 0.61481,0.6148c0,0.33955 -0.27525,0.61481 -0.61481,0.61481z" fill="#000000" stroke-width="0"/></g><path d="M328.44463,179.99999c0,6.52926 -5.29301,11.82228 -11.82228,11.82228c-6.52926,0 -11.82228,-5.29301 -11.82228,-11.82228c0,-6.52926 5.29301,-11.82227 11.82228,-11.82227c6.52926,0 11.82228,5.29301 11.82228,11.82227z" fill="url(#color-2)" stroke-width="0"/></g></g></g></g></svg>