<svg version="1.1" xmlns="http://www.w3.org/2000/svg" xmlns:xlink="http://www.w3.org/1999/xlink" width="299.33334" height="299.33334" viewBox="0,0,299.33334,299.33334"><defs><radialGradient cx="240" cy="195.40121" r="61.34903" gradientUnits="userSpaceOnUse" id="color-1"><stop offset="0" stop-color="#81e9ff"/><stop offset="1" stop-color="#55a8ba"/></radialGradient><radialGradient cx="240" cy="194.59879" r="61.34903" gradientUnits="userSpaceOnUse" id="color-2"><stop offset="0" stop-color="#81e9ff"/><stop offset="1" stop-color="#55a8ba"/></radialGradient><radialGradient cx="221.97825" cy="162.66001" r="6.46043" gradientUnits="userSpaceOnUse" id="color-3"><stop offset="0" stop-color="#81e9ff"/><stop offset="1" stop-color="#61a6b6"/></radialGradient><radialGradient cx="221.97825" cy="175.47159" r="6.46043" gradientUnits="userSpaceOnUse" id="color-4"><stop offset="0" stop-color="#81e9ff"/><stop offset="1" stop-color="#61a6b6"/></radialGradient><radialGradient cx="257.64492" cy="162.66001" r="6.46043" gradientUnits="userSpaceOnUse" id="color-5"><stop offset="0" stop-color="#81e9ff"/><stop offset="1" stop-color="#61a6b6"/></radialGradient><radialGradient cx="257.64492" cy="175.47159" r="6.46043" gradientUnits="userSpaceOnUse" id="color-6"><stop offset="0" stop-color="#81e9ff"/><stop offset="1" stop-color="#61a6b6"/></radialGradient><radialGradient cx="240" cy="180" r="149.66667" gradientUnits="userSpaceOnUse" id="color-7"><stop offset="0" stop-color="#82eaff" stop-opacity="0.51765"/><stop offset="1" stop-color="#82eaff" stop-opacity="0"/></radialGradient></defs><g transform="translate(-90.33333,-30.33333)"><g data-paper-data="{&quot;isPaintingLayer&quot;:true}" fill-rule="nonzero" stroke="none" stroke-width="0" stroke-linecap="butt" stroke-linejoin="miter" stroke-miterlimit="10" stroke-dasharray="" stroke-dashoffset="0" style="mix-blend-mode: normal"><g fill="#81e9ff"><path d="M282.78983,241.5742h-25.62316l12.81158,-25.84173z"/><path d="M257.16667,241.35563h25.62316l-12.81158,25.84174z"/></g><g fill="#81e9ff"><path d="M257.78983,289.57419h-25.62316l12.81158,-25.84173z"/><path d="M232.16667,289.35562h25.62317l-12.81159,25.84174z"/></g><g fill="#81e9ff"><path d="M234.78983,267.17509h-25.62316l12.81158,-25.84174z"/><path d="M209.16667,266.95651h25.62317l-12.81159,25.84174z"/></g><g><path d="M294.5,195.40121h-109l54.5,-94.8661z" fill="url(#color-1)"/><path d="M185.5,194.59879h109l-54.5,94.8661z" fill="url(#color-2)"/></g><g fill="#81e9ff"><path d="M232.78983,241.44263h-25.62316l12.81158,-25.84173z"/><path d="M207.16667,241.22406h25.62316l-12.81158,25.84174z"/></g><g fill="#81e9ff"><path d="M269.97825,229.44263h-25.62317l12.81158,-25.84173z"/><path d="M244.35508,229.22406h25.62317l-12.81159,25.84175z"/></g><g><g><g fill="#81e9ff"><path d="M234.78983,169.17509h-25.62316l12.81158,-25.84174z"/><path d="M209.16667,168.95651h25.62317l-12.81159,25.84174z"/></g><g><path d="M228.38404,169.12043h-12.81158l6.40579,-12.92087z" fill="url(#color-3)"/><path d="M215.57246,169.01115h12.81158l-6.40579,12.92087z" fill="url(#color-4)"/></g></g><g><g fill="#81e9ff"><path d="M270.4565,169.17509h-25.62317l12.81158,-25.84174z"/><path d="M244.83333,168.95651h25.62317l-12.81159,25.84174z"/></g><g><path d="M264.05071,169.12043h-12.81158l6.40579,-12.92087z" fill="url(#color-5)"/><path d="M251.23913,169.01115h12.81158l-6.40579,12.92087z" fill="url(#color-6)"/></g></g></g><path d="M90.33333,180c0,-82.6586 67.00805,-149.66667 149.66667,-149.66667c82.6586,0 149.66667,67.00805 149.66667,149.66667c0,82.6586 -67.00804,149.66667 -149.66667,149.66667c-82.6586,0 -149.66667,-67.00804 -149.66667,-149.66667z" fill="url(#color-7)"/></g></g></svg>