<svg version="1.1" xmlns="http://www.w3.org/2000/svg" xmlns:xlink="http://www.w3.org/1999/xlink" width="29.25588" height="36.82188" viewBox="0,0,29.25588,36.82188"><defs><linearGradient x1="240.25307" y1="176.4066" x2="240.25307" y2="163.56103" gradientUnits="userSpaceOnUse" id="color-1"><stop offset="0" stop-color="#ff0000"/><stop offset="1" stop-color="#ff7100"/></linearGradient><linearGradient x1="240.25307" y1="177.48977" x2="240.25307" y2="164.64419" gradientUnits="userSpaceOnUse" id="color-2"><stop offset="0" stop-color="#ff0000"/><stop offset="1" stop-color="#ff7100"/></linearGradient><linearGradient x1="240.25307" y1="178.35631" x2="240.25307" y2="165.51073" gradientUnits="userSpaceOnUse" id="color-3"><stop offset="0" stop-color="#ff0000"/><stop offset="1" stop-color="#ff7100"/></linearGradient><linearGradient x1="240.25307" y1="179.43948" x2="240.25307" y2="166.5939" gradientUnits="userSpaceOnUse" id="color-4"><stop offset="0" stop-color="#ff0000"/><stop offset="1" stop-color="#ff7100"/></linearGradient><linearGradient x1="240.25307" y1="180.52264" x2="240.25307" y2="167.67707" gradientUnits="userSpaceOnUse" id="color-5"><stop offset="0" stop-color="#ff0000"/><stop offset="1" stop-color="#ff7100"/></linearGradient><linearGradient x1="240.25307" y1="181.60581" x2="240.25307" y2="168.76024" gradientUnits="userSpaceOnUse" id="color-6"><stop offset="0" stop-color="#ff0000"/><stop offset="1" stop-color="#ff7100"/></linearGradient><linearGradient x1="240.25307" y1="182.68899" x2="240.25307" y2="169.84341" gradientUnits="userSpaceOnUse" id="color-7"><stop offset="0" stop-color="#ff0000"/><stop offset="1" stop-color="#ff7100"/></linearGradient><radialGradient cx="236.66253" cy="178.8125" r="1.1875" gradientUnits="userSpaceOnUse" id="color-8"><stop offset="0" stop-color="#ffffff"/><stop offset="1" stop-color="#ffffff" stop-opacity="0"/></radialGradient><radialGradient cx="243.16253" cy="178.8125" r="1.1875" gradientUnits="userSpaceOnUse" id="color-9"><stop offset="0" stop-color="#ffffff"/><stop offset="1" stop-color="#ffffff" stop-opacity="0"/></radialGradient><radialGradient cx="240.00003" cy="180" r="12.29688" gradientUnits="userSpaceOnUse" id="color-10"><stop offset="0" stop-color="#ff6200" stop-opacity="0.48627"/><stop offset="1" stop-color="#ff6200" stop-opacity="0"/></radialGradient><radialGradient cx="240" cy="170.10295" r="14.62794" gradientUnits="userSpaceOnUse" id="color-11"><stop offset="0" stop-color="#ff6300"/><stop offset="1" stop-color="#ff6300" stop-opacity="0"/></radialGradient></defs><g transform="translate(-225.37206,-155.475)"><g data-paper-data="{&quot;isPaintingLayer&quot;:true}" fill-rule="nonzero" stroke="none" stroke-linecap="butt" stroke-linejoin="miter" stroke-miterlimit="10" stroke-dasharray="" stroke-dashoffset="0" style="mix-blend-mode: normal"><g stroke-width="0.5"><path d="M241.59156,173.22294c0.21852,-0.29685 0.75103,-0.8294 1.40824,-0.13861c0.32236,0.33883 0.43471,0.7197 0.44873,1.06436c0.20741,0.02577 0.42397,0.12088 0.60438,0.22904c-0.05565,-0.42144 -0.07563,-1.33194 0.69494,-1.71762c1.01934,-0.5102 1.38339,0.91837 1.38339,0.91837c0.10552,0.88934 0.64369,1.89175 0.31654,2.66801c-0.94996,2.25407 -2.05326,0.97877 -3.17721,0.92652c-0.29131,-0.01354 -2.10219,0.38756 -2.4159,0.41669c-1.18976,0.1105 -2.41898,0.00331 -3.61138,0.00268l-0.03105,-0.01912l-0.00072,0.01715l-1.26133,-0.10398c-0.57173,-0.04089 -1.02633,-0.70351 -1.02633,-1.51494c0,-0.68238 0.3215,-1.25953 0.76379,-1.45016l1.31978,-0.61654l0.00972,0.04087c0.04216,-0.03151 0.08477,-0.06199 0.12787,-0.09134c0.413,-0.28118 0.91733,-0.06667 1.37455,-0.12562c1.0614,-0.13685 2.02924,-0.42186 3.07198,-0.50575z" fill="#ff4200"/><path d="M234.23897,176.16088c-0.69174,0 -0.69174,-0.96944 -0.69174,-0.96944l0.04404,-0.61729c0.25884,-0.96533 0.5137,-1.86099 0.55001,-2.90411c0.00415,-0.11928 -0.02117,-2.76869 0.03998,-2.90027c0.0433,-0.09317 0.092,-0.17945 0.14494,-0.26032l-0.02593,-0.03027l0.49055,-0.82499c0.12687,-0.21645 0.31932,-0.35451 0.53479,-0.35451c0.16516,0 0.3168,0.08112 0.43574,0.21647c0.21629,-0.64481 0.61409,-1.25774 0.70525,-1.30303c0.31556,-0.15678 0.96117,0.73288 1.32845,1.43814l0,-0.90505c0,-0.53541 0.30971,-0.96944 0.69174,-0.96944c0.35231,0 0.64311,0.36911 0.68623,0.84646l0.07222,0.70851c0.22128,0.24982 0.54725,0.32177 0.81101,0.48621c0.14356,-0.89455 0.2254,-1.82255 0.56931,-2.58797c0.31042,-0.69087 0.70252,-1.74654 1.28212,-1.66444c0.59256,0.08394 0.77021,1.28269 1.0765,1.99855c0.03744,0.0875 0.07627,0.19883 0.1104,0.3201c0.06908,-0.21788 0.15752,-0.41739 0.28325,-0.57056c0.03582,-0.04363 0.07288,-0.08464 0.11101,-0.12337l-0.01159,-0.01948l0.58923,-0.68816c0.12047,-0.14272 0.27623,-0.22877 0.44633,-0.22877c0.38204,0 0.69174,0.43404 0.69174,0.96945l0,1.24601c-0.00272,0.51884 -0.26952,1.22176 0.01338,1.55645c0.46162,0.54614 1.4242,0.15483 1.69076,0.91459c0.18342,0.52281 -0.19141,1.13727 -0.23343,1.71688c-0.10363,1.42944 0.03322,2.65667 -0.11392,3.96942c-0.174,0.239 -0.32612,0.50918 -0.45176,0.80407c-0.09285,0.12806 -0.17942,0.26501 -0.25903,0.40988c-0.18609,0.00789 -0.33521,0.22179 -0.33521,0.4845c0,0.02777 0.00167,0.055 0.00487,0.08149c-0.02115,-0.00879 -0.04276,-0.01894 -0.06484,-0.03055c-0.6477,-0.3404 -0.40481,-1.24812 -0.40481,-1.24812c0.45461,-1.62252 -0.01601,-3.16134 0.26342,-4.81664c0.03879,-0.22978 0.29697,-0.27888 0.35929,-0.49827c0.03908,-0.1376 -0.1752,0.24583 -0.27823,0.21291c-0.41856,-0.13375 -0.89761,-0.24514 -1.19219,-0.68279c-0.20624,-0.30638 -0.30355,-0.74641 -0.34849,-1.21464c-0.36163,0.47834 -0.84324,0.78778 -1.21803,0.65453c-0.1287,-0.04575 -0.61486,-0.99933 -0.85743,-1.89034c-0.04507,0.27967 -0.10009,0.55647 -0.16096,0.82944c-0.15286,0.68544 -0.37259,1.33799 -0.55889,2.00699l-0.09565,0.09405l0.03055,0.03568l-0.49055,0.82499c-0.12687,0.21645 -0.31933,0.35451 -0.53479,0.35451c-0.35906,0 -0.65422,-0.3834 -0.68843,-0.87402l-0.03528,-0.44495c-0.1812,0.09724 -0.41143,0.19147 -0.69938,0.28085c-0.53918,0.16735 -1.07012,-0.35898 -1.53748,-0.85986c0.01578,0.51598 0.01863,1.07598 -0.26884,1.27732c-0.36912,0.25853 -0.79431,0.02352 -1.21517,-0.17339c0.02813,1.8418 -0.17942,3.29581 -0.63736,5.01062l0.04404,-0.06351c0,0 0,0.96944 -0.69174,0.96944z" fill="url(#color-1)"/><path d="M234.23897,177.24405c-0.69174,0 -0.69174,-0.96945 -0.69174,-0.96945l0.04404,-0.61729c0.25884,-0.96533 0.5137,-1.86099 0.55001,-2.90411c0.00415,-0.11928 -0.02117,-2.76869 0.03998,-2.90027c0.0433,-0.09317 0.092,-0.17945 0.14494,-0.26032l-0.02593,-0.03028l0.49055,-0.82499c0.12687,-0.21645 0.31932,-0.35451 0.53479,-0.35451c0.16516,0 0.3168,0.08112 0.43574,0.21648c0.21629,-0.64481 0.61409,-1.25774 0.70525,-1.30303c0.31556,-0.15678 0.96117,0.73287 1.32845,1.43814l0,-0.90505c0,-0.53541 0.30971,-0.96944 0.69174,-0.96944c0.35231,0 0.64311,0.36911 0.68623,0.84646l0.07222,0.70851c0.22128,0.24982 0.54725,0.32177 0.81101,0.48621c0.14356,-0.89455 0.2254,-1.82256 0.56931,-2.58797c0.31042,-0.69087 0.70252,-1.74654 1.28212,-1.66444c0.59256,0.08394 0.77021,1.28269 1.0765,1.99855c0.03744,0.0875 0.07627,0.19883 0.1104,0.3201c0.06908,-0.21788 0.15752,-0.41739 0.28325,-0.57056c0.03582,-0.04363 0.07288,-0.08464 0.11101,-0.12337l-0.01159,-0.01948l0.58923,-0.68816c0.12047,-0.14272 0.27623,-0.22877 0.44633,-0.22877c0.38204,0 0.69174,0.43403 0.69174,0.96944v1.24601c-0.00272,0.51884 -0.26952,1.22176 0.01338,1.55645c0.46162,0.54614 1.4242,0.15483 1.69076,0.91459c0.18342,0.52281 -0.19141,1.13727 -0.23343,1.71688c-0.10363,1.42944 0.03322,2.65667 -0.11392,3.96942c-0.174,0.239 -0.32612,0.50918 -0.45176,0.80406c-0.09285,0.12806 -0.17942,0.26502 -0.25903,0.40989c-0.18609,0.00789 -0.33521,0.22179 -0.33521,0.48449c0,0.02777 0.00167,0.05501 0.00487,0.0815c-0.02115,-0.00879 -0.04276,-0.01894 -0.06484,-0.03055c-0.6477,-0.3404 -0.40481,-1.24811 -0.40481,-1.24811c0.45461,-1.62252 -0.01601,-3.16134 0.26342,-4.81664c0.03879,-0.22978 0.29697,-0.27888 0.35929,-0.49826c0.03908,-0.1376 -0.1752,0.24583 -0.27823,0.21291c-0.41856,-0.13375 -0.89761,-0.24515 -1.19219,-0.68279c-0.20624,-0.30638 -0.30355,-0.74641 -0.34849,-1.21464c-0.36163,0.47834 -0.84324,0.78778 -1.21803,0.65453c-0.1287,-0.04575 -0.61486,-0.99932 -0.85743,-1.89033c-0.04507,0.27967 -0.10009,0.55647 -0.16096,0.82944c-0.15286,0.68544 -0.37259,1.33799 -0.55889,2.00698l-0.09565,0.09406l0.03055,0.03568l-0.49055,0.82499c-0.12687,0.21645 -0.31933,0.35451 -0.53479,0.35451c-0.35906,0 -0.65422,-0.3834 -0.68843,-0.87402l-0.03528,-0.44495c-0.1812,0.09724 -0.41143,0.19148 -0.69938,0.28085c-0.53918,0.16735 -1.07012,-0.35898 -1.53748,-0.85987c0.01578,0.51598 0.01863,1.07598 -0.26884,1.27733c-0.36912,0.25853 -0.79431,0.02352 -1.21517,-0.17339c0.02813,1.8418 -0.17942,3.29581 -0.63736,5.01062l0.04404,-0.06351c0,0 0,0.96945 -0.69174,0.96945z" fill="url(#color-2)"/><path d="M234.23897,178.11059c-0.69174,0 -0.69174,-0.96944 -0.69174,-0.96944l0.04404,-0.61729c0.25884,-0.96533 0.5137,-1.86099 0.55001,-2.90411c0.00415,-0.11928 -0.02117,-2.76868 0.03998,-2.90026c0.0433,-0.09317 0.092,-0.17945 0.14494,-0.26032l-0.02593,-0.03028l0.49055,-0.82499c0.12687,-0.21645 0.31932,-0.35451 0.53479,-0.35451c0.16516,0 0.3168,0.08112 0.43574,0.21648c0.21629,-0.64481 0.61409,-1.25774 0.70525,-1.30303c0.31556,-0.15678 0.96117,0.73287 1.32845,1.43814l0,-0.90505c0,-0.53541 0.30971,-0.96944 0.69174,-0.96944c0.35231,0 0.64311,0.36911 0.68623,0.84646l0.07222,0.70851c0.22128,0.24982 0.54725,0.32177 0.81101,0.48621c0.14356,-0.89455 0.2254,-1.82256 0.56931,-2.58797c0.31042,-0.69087 0.70252,-1.74653 1.28212,-1.66443c0.59256,0.08394 0.77021,1.28269 1.0765,1.99855c0.03744,0.0875 0.07627,0.19884 0.1104,0.3201c0.06908,-0.21788 0.15752,-0.41739 0.28325,-0.57056c0.03582,-0.04363 0.07288,-0.08464 0.11101,-0.12336l-0.01159,-0.01948l0.58923,-0.68816c0.12047,-0.14272 0.27623,-0.22877 0.44633,-0.22877c0.38204,0 0.69174,0.43404 0.69174,0.96945l0,1.24601c-0.00272,0.51884 -0.26952,1.22175 0.01338,1.55644c0.46162,0.54614 1.4242,0.15483 1.69076,0.91459c0.18342,0.52281 -0.19141,1.13728 -0.23343,1.71688c-0.10363,1.42944 0.03322,2.65667 -0.11392,3.96942c-0.174,0.239 -0.32612,0.50918 -0.45176,0.80407c-0.09285,0.12806 -0.17942,0.26501 -0.25903,0.40988c-0.18609,0.00789 -0.33521,0.22179 -0.33521,0.4845c0,0.02777 0.00167,0.055 0.00487,0.08149c-0.02115,-0.00879 -0.04276,-0.01894 -0.06484,-0.03055c-0.6477,-0.3404 -0.40481,-1.24811 -0.40481,-1.24811c0.45461,-1.62252 -0.01601,-3.16134 0.26342,-4.81664c0.03879,-0.22978 0.29697,-0.27887 0.35929,-0.49826c0.03908,-0.1376 -0.1752,0.24583 -0.27823,0.21291c-0.41856,-0.13375 -0.89761,-0.24515 -1.19219,-0.68279c-0.20624,-0.30638 -0.30355,-0.74641 -0.34849,-1.21464c-0.36163,0.47834 -0.84324,0.78778 -1.21803,0.65453c-0.1287,-0.04575 -0.61486,-0.99932 -0.85743,-1.89033c-0.04507,0.27967 -0.10009,0.55647 -0.16096,0.82944c-0.15286,0.68544 -0.37259,1.33799 -0.55889,2.00699l-0.09565,0.09405l0.03055,0.03568l-0.49055,0.82499c-0.12687,0.21645 -0.31933,0.35451 -0.53479,0.35451c-0.35906,0 -0.65422,-0.3834 -0.68843,-0.87402l-0.03528,-0.44495c-0.1812,0.09724 -0.41143,0.19148 -0.69938,0.28085c-0.53918,0.16735 -1.07012,-0.35898 -1.53748,-0.85987c0.01578,0.51598 0.01863,1.07598 -0.26884,1.27733c-0.36912,0.25853 -0.79431,0.02352 -1.21517,-0.17339c0.02813,1.8418 -0.17942,3.29581 -0.63736,5.01062l0.04404,-0.06351c0,0 0,0.96944 -0.69174,0.96944z" fill="url(#color-3)"/><path d="M234.23897,179.19376c-0.69174,0 -0.69174,-0.96945 -0.69174,-0.96945l0.04404,-0.61729c0.25884,-0.96533 0.5137,-1.86099 0.55001,-2.90411c0.00415,-0.11928 -0.02117,-2.76869 0.03998,-2.90027c0.0433,-0.09317 0.092,-0.17945 0.14494,-0.26032l-0.02593,-0.03028l0.49055,-0.82499c0.12687,-0.21645 0.31932,-0.35451 0.53479,-0.35451c0.16516,0 0.3168,0.08112 0.43574,0.21647c0.21629,-0.64481 0.61409,-1.25774 0.70525,-1.30303c0.31556,-0.15678 0.96117,0.73288 1.32845,1.43814v-0.90505c0,-0.53541 0.30971,-0.96944 0.69174,-0.96944c0.35231,0 0.64311,0.36911 0.68623,0.84646l0.07222,0.70851c0.22128,0.24982 0.54725,0.32177 0.81101,0.48621c0.14356,-0.89455 0.2254,-1.82256 0.56931,-2.58797c0.31042,-0.69087 0.70252,-1.74654 1.28212,-1.66443c0.59256,0.08394 0.77021,1.28269 1.0765,1.99855c0.03744,0.0875 0.07627,0.19883 0.1104,0.3201c0.06908,-0.21788 0.15752,-0.41739 0.28325,-0.57056c0.03582,-0.04363 0.07288,-0.08464 0.11101,-0.12336l-0.01159,-0.01948l0.58923,-0.68816c0.12047,-0.14272 0.27623,-0.22877 0.44633,-0.22877c0.38204,0 0.69174,0.43403 0.69174,0.96944l0,1.24601c-0.00272,0.51884 -0.26952,1.22176 0.01338,1.55645c0.46162,0.54614 1.4242,0.15483 1.69076,0.91459c0.18342,0.52281 -0.19141,1.13728 -0.23343,1.71688c-0.10363,1.42944 0.03322,2.65667 -0.11392,3.96942c-0.174,0.239 -0.32612,0.50918 -0.45176,0.80407c-0.09285,0.12806 -0.17942,0.26501 -0.25903,0.40988c-0.18609,0.00789 -0.33521,0.22179 -0.33521,0.4845c0,0.02777 0.00167,0.055 0.00487,0.0815c-0.02115,-0.00879 -0.04276,-0.01894 -0.06484,-0.03055c-0.6477,-0.3404 -0.40481,-1.24812 -0.40481,-1.24812c0.45461,-1.62252 -0.01601,-3.16134 0.26342,-4.81664c0.03879,-0.22978 0.29697,-0.27888 0.35929,-0.49826c0.03908,-0.1376 -0.1752,0.24583 -0.27823,0.21291c-0.41856,-0.13375 -0.89761,-0.24515 -1.19219,-0.68279c-0.20624,-0.30638 -0.30355,-0.74641 -0.34849,-1.21464c-0.36163,0.47834 -0.84324,0.78778 -1.21803,0.65453c-0.1287,-0.04575 -0.61486,-0.99932 -0.85743,-1.89033c-0.04507,0.27967 -0.10009,0.55647 -0.16096,0.82944c-0.15286,0.68544 -0.37259,1.33799 -0.55889,2.00698l-0.09565,0.09406l0.03055,0.03568l-0.49055,0.82499c-0.12687,0.21645 -0.31933,0.35451 -0.53479,0.35451c-0.35906,0 -0.65422,-0.3834 -0.68843,-0.87402l-0.03528,-0.44495c-0.1812,0.09724 -0.41143,0.19148 -0.69938,0.28085c-0.53918,0.16735 -1.07012,-0.35898 -1.53748,-0.85987c0.01578,0.51598 0.01863,1.07598 -0.26884,1.27732c-0.36912,0.25853 -0.79431,0.02352 -1.21517,-0.17339c0.02813,1.8418 -0.17942,3.29581 -0.63736,5.01062l0.04404,-0.06351c0,0 0,0.96945 -0.69174,0.96945z" fill="url(#color-4)"/><path d="M234.23897,180.27693c-0.69174,0 -0.69174,-0.96945 -0.69174,-0.96945l0.04404,-0.61729c0.25884,-0.96533 0.5137,-1.86099 0.55001,-2.90411c0.00415,-0.11928 -0.02117,-2.76869 0.03998,-2.90027c0.0433,-0.09317 0.092,-0.17945 0.14494,-0.26032l-0.02593,-0.03028l0.49055,-0.82499c0.12687,-0.21645 0.31932,-0.35451 0.53479,-0.35451c0.16516,0 0.3168,0.08112 0.43574,0.21648c0.21629,-0.64481 0.61409,-1.25774 0.70525,-1.30303c0.31556,-0.15678 0.96117,0.73287 1.32845,1.43814l0,-0.90505c0,-0.53541 0.30971,-0.96945 0.69174,-0.96945c0.35231,0 0.64311,0.36911 0.68623,0.84646l0.07222,0.70851c0.22128,0.24982 0.54725,0.32177 0.81101,0.48621c0.14356,-0.89455 0.2254,-1.82256 0.56931,-2.58797c0.31042,-0.69087 0.70252,-1.74654 1.28212,-1.66443c0.59256,0.08394 0.77021,1.28269 1.0765,1.99855c0.03744,0.0875 0.07627,0.19884 0.1104,0.3201c0.06908,-0.21788 0.15752,-0.41739 0.28325,-0.57056c0.03582,-0.04363 0.07288,-0.08464 0.11101,-0.12336l-0.01159,-0.01948l0.58923,-0.68816c0.12047,-0.14272 0.27623,-0.22877 0.44633,-0.22877c0.38204,0 0.69174,0.43403 0.69174,0.96944l0,1.24602c-0.00272,0.51884 -0.26952,1.22176 0.01338,1.55645c0.46162,0.54614 1.4242,0.15483 1.69076,0.91459c0.18342,0.52281 -0.19141,1.13727 -0.23343,1.71688c-0.10363,1.42944 0.03322,2.65667 -0.11392,3.96942c-0.174,0.239 -0.32612,0.50917 -0.45176,0.80406c-0.09285,0.12806 -0.17942,0.26502 -0.25903,0.40989c-0.18609,0.00789 -0.33521,0.22179 -0.33521,0.48449c0,0.02777 0.00167,0.05501 0.00487,0.0815c-0.02115,-0.00879 -0.04276,-0.01894 -0.06484,-0.03055c-0.6477,-0.3404 -0.40481,-1.24811 -0.40481,-1.24811c0.45461,-1.62252 -0.01601,-3.16134 0.26342,-4.81664c0.03879,-0.22978 0.29697,-0.27887 0.35929,-0.49826c0.03908,-0.1376 -0.1752,0.24583 -0.27823,0.21291c-0.41856,-0.13375 -0.89761,-0.24515 -1.19219,-0.68279c-0.20624,-0.30638 -0.30355,-0.74641 -0.34849,-1.21464c-0.36163,0.47834 -0.84324,0.78778 -1.21803,0.65453c-0.1287,-0.04575 -0.61486,-0.99932 -0.85743,-1.89033c-0.04507,0.27967 -0.10009,0.55647 -0.16096,0.82944c-0.15286,0.68544 -0.37259,1.33799 -0.55889,2.00698l-0.09565,0.09406l0.03055,0.03568l-0.49055,0.82499c-0.12687,0.21645 -0.31933,0.35451 -0.53479,0.35451c-0.35906,0 -0.65422,-0.3834 -0.68843,-0.87402l-0.03528,-0.44495c-0.1812,0.09724 -0.41143,0.19148 -0.69938,0.28085c-0.53918,0.16735 -1.07012,-0.35898 -1.53748,-0.85986c0.01578,0.51598 0.01863,1.07598 -0.26884,1.27732c-0.36912,0.25853 -0.79431,0.02352 -1.21517,-0.17339c0.02813,1.8418 -0.17942,3.29581 -0.63736,5.01062l0.04404,-0.06351c0,0 0,0.96945 -0.69174,0.96945z" fill="url(#color-5)"/><path d="M234.23897,181.3601c-0.69174,0 -0.69174,-0.96944 -0.69174,-0.96944l0.04404,-0.61729c0.25884,-0.96533 0.5137,-1.86099 0.55001,-2.90411c0.00415,-0.11928 -0.02117,-2.76868 0.03998,-2.90026c0.0433,-0.09317 0.092,-0.17945 0.14494,-0.26032l-0.02593,-0.03028l0.49055,-0.82499c0.12687,-0.21645 0.31932,-0.35451 0.53479,-0.35451c0.16516,0 0.3168,0.08112 0.43574,0.21647c0.21629,-0.64481 0.61409,-1.25774 0.70525,-1.30303c0.31556,-0.15678 0.96117,0.73288 1.32845,1.43814v-0.90505c0,-0.53541 0.30971,-0.96944 0.69174,-0.96944c0.35231,0 0.64311,0.36911 0.68623,0.84646l0.07222,0.70851c0.22128,0.24982 0.54725,0.32177 0.81101,0.48621c0.14356,-0.89455 0.2254,-1.82256 0.56931,-2.58798c0.31042,-0.69087 0.70252,-1.74653 1.28212,-1.66443c0.59256,0.08394 0.77021,1.28269 1.0765,1.99855c0.03744,0.0875 0.07627,0.19883 0.1104,0.3201c0.06908,-0.21788 0.15752,-0.41739 0.28325,-0.57056c0.03582,-0.04363 0.07288,-0.08464 0.11101,-0.12337l-0.01159,-0.01948l0.58923,-0.68816c0.12047,-0.14272 0.27623,-0.22877 0.44633,-0.22877c0.38204,0 0.69174,0.43404 0.69174,0.96945v1.24601c-0.00272,0.51884 -0.26952,1.22176 0.01338,1.55645c0.46162,0.54614 1.4242,0.15483 1.69076,0.91459c0.18342,0.52281 -0.19141,1.13727 -0.23343,1.71688c-0.10363,1.42944 0.03322,2.65667 -0.11392,3.96942c-0.174,0.239 -0.32612,0.50918 -0.45176,0.80406c-0.09285,0.12806 -0.17942,0.26502 -0.25903,0.40989c-0.18609,0.00789 -0.33521,0.22179 -0.33521,0.48449c0,0.02777 0.00167,0.055 0.00487,0.0815c-0.02115,-0.00879 -0.04276,-0.01894 -0.06484,-0.03055c-0.6477,-0.3404 -0.40481,-1.24811 -0.40481,-1.24811c0.45461,-1.62252 -0.01601,-3.16134 0.26342,-4.81664c0.03879,-0.22978 0.29697,-0.27888 0.35929,-0.49827c0.03908,-0.1376 -0.1752,0.24584 -0.27823,0.21291c-0.41856,-0.13375 -0.89761,-0.24515 -1.19219,-0.68279c-0.20624,-0.30638 -0.30355,-0.74641 -0.34849,-1.21464c-0.36163,0.47834 -0.84324,0.78778 -1.21803,0.65453c-0.1287,-0.04575 -0.61486,-0.99932 -0.85743,-1.89033c-0.04507,0.27967 -0.10009,0.55647 -0.16096,0.82944c-0.15286,0.68544 -0.37259,1.33799 -0.55889,2.00698l-0.09565,0.09406l0.03055,0.03568l-0.49055,0.82499c-0.12687,0.21645 -0.31933,0.35451 -0.53479,0.35451c-0.35906,0 -0.65422,-0.3834 -0.68843,-0.87402l-0.03528,-0.44495c-0.1812,0.09724 -0.41143,0.19148 -0.69938,0.28085c-0.53918,0.16735 -1.07012,-0.35898 -1.53748,-0.85987c0.01578,0.51598 0.01863,1.07598 -0.26884,1.27733c-0.36912,0.25853 -0.79431,0.02352 -1.21517,-0.17339c0.02813,1.8418 -0.17942,3.29581 -0.63736,5.01062l0.04404,-0.06351c0,0 0,0.96944 -0.69174,0.96944z" fill="url(#color-6)"/><path d="M234.23897,182.44327c-0.69174,0 -0.69174,-0.96945 -0.69174,-0.96945l0.04404,-0.61729c0.25884,-0.96533 0.5137,-1.86099 0.55001,-2.90411c0.00415,-0.11928 -0.02117,-2.76869 0.03998,-2.90027c0.0433,-0.09317 0.092,-0.17945 0.14494,-0.26032l-0.02593,-0.03028l0.49055,-0.82499c0.12687,-0.21645 0.31932,-0.35451 0.53479,-0.35451c0.16516,0 0.3168,0.08112 0.43574,0.21648c0.21629,-0.64481 0.61409,-1.25774 0.70525,-1.30303c0.31556,-0.15678 0.96117,0.73287 1.32845,1.43814v-0.90505c0,-0.53541 0.30971,-0.96944 0.69174,-0.96944c0.35231,0 0.64311,0.36911 0.68623,0.84646l0.07222,0.70851c0.22128,0.24982 0.54725,0.32177 0.81101,0.48621c0.14356,-0.89455 0.2254,-1.82256 0.56931,-2.58797c0.31042,-0.69087 0.70252,-1.74654 1.28212,-1.66444c0.59256,0.08394 0.77021,1.28269 1.0765,1.99855c0.03744,0.0875 0.07627,0.19883 0.1104,0.3201c0.06908,-0.21788 0.15752,-0.41739 0.28325,-0.57056c0.03582,-0.04363 0.07288,-0.08464 0.11101,-0.12337l-0.01159,-0.01948l0.58923,-0.68816c0.12047,-0.14272 0.27623,-0.22877 0.44633,-0.22877c0.38204,0 0.69174,0.43403 0.69174,0.96944l0,1.24601c-0.00272,0.51884 -0.26952,1.22176 0.01338,1.55645c0.46162,0.54614 1.4242,0.15483 1.69076,0.91459c0.18342,0.52281 -0.19141,1.13727 -0.23343,1.71688c-0.10363,1.42944 0.03322,2.65667 -0.11392,3.96942c-0.174,0.239 -0.32612,0.50918 -0.45176,0.80406c-0.09285,0.12806 -0.17942,0.26502 -0.25903,0.40989c-0.18609,0.00789 -0.33521,0.22179 -0.33521,0.48449c0,0.02777 0.00167,0.05501 0.00487,0.0815c-0.02115,-0.00879 -0.04276,-0.01894 -0.06484,-0.03055c-0.6477,-0.3404 -0.40481,-1.24812 -0.40481,-1.24812c0.45461,-1.62252 -0.01601,-3.16134 0.26342,-4.81664c0.03879,-0.22978 0.29697,-0.27888 0.35929,-0.49827c0.03908,-0.1376 -0.1752,0.24584 -0.27823,0.21291c-0.41856,-0.13375 -0.89761,-0.24515 -1.19219,-0.68279c-0.20624,-0.30638 -0.30355,-0.74641 -0.34849,-1.21464c-0.36163,0.47834 -0.84324,0.78778 -1.21803,0.65453c-0.1287,-0.04575 -0.61486,-0.99932 -0.85743,-1.89033c-0.04507,0.27967 -0.10009,0.55647 -0.16096,0.82944c-0.15286,0.68544 -0.37259,1.33799 -0.55889,2.00698l-0.09565,0.09406l0.03055,0.03568l-0.49055,0.82499c-0.12687,0.21645 -0.31933,0.35451 -0.53479,0.35451c-0.35906,0 -0.65422,-0.3834 -0.68843,-0.87402l-0.03528,-0.44495c-0.1812,0.09724 -0.41143,0.19147 -0.69938,0.28085c-0.53918,0.16735 -1.07012,-0.35898 -1.53748,-0.85986c0.01578,0.51598 0.01863,1.07598 -0.26884,1.27732c-0.36912,0.25853 -0.79431,0.02352 -1.21517,-0.17339c0.02813,1.8418 -0.17942,3.29581 -0.63736,5.01062l0.04404,-0.06351c0,0 0,0.96945 -0.69174,0.96945z" fill="url(#color-7)"/></g><path d="M233.12503,180c0,-3.79696 3.07804,-6.875 6.875,-6.875c3.79696,0 6.875,3.07804 6.875,6.875c0,3.79696 -3.07804,6.875 -6.875,6.875c-3.79696,0 -6.875,-3.07804 -6.875,-6.875z" fill="#4d4d4d" stroke-width="0"/><path d="M235.47503,178.8125c0,-0.65584 0.53166,-1.1875 1.1875,-1.1875c0.65584,0 1.1875,0.53166 1.1875,1.1875c0,0.65584 -0.53166,1.1875 -1.1875,1.1875c-0.65584,0 -1.1875,-0.53166 -1.1875,-1.1875z" fill="url(#color-8)" stroke-width="0"/><path d="M241.97503,178.8125c0,-0.65584 0.53166,-1.1875 1.1875,-1.1875c0.65584,0 1.1875,0.53166 1.1875,1.1875c0,0.65584 -0.53166,1.1875 -1.1875,1.1875c-0.65584,0 -1.1875,-0.53166 -1.1875,-1.1875z" fill="url(#color-9)" stroke-width="0"/><path d="M227.70314,180c0,-6.79138 5.5055,-12.29688 12.29688,-12.29688c6.79138,0 12.29688,5.5055 12.29688,12.29688c0,6.79138 -5.5055,12.29688 -12.29688,12.29688c-6.79138,0 -12.29687,-5.5055 -12.29687,-12.29687z" fill="url(#color-10)" stroke-width="NaN"/><path d="M240,155.475c8.07879,0 14.62794,6.54915 14.62794,14.62795c0,8.0788 -6.54914,14.62794 -14.62794,14.62794c-8.07879,0 -14.62795,-6.54914 -14.62795,-14.62794c0,-8.07879 6.54915,-14.62795 14.62795,-14.62795z" fill="url(#color-11)" stroke-width="0"/></g></g></svg>