<svg version="1.1" xmlns="http://www.w3.org/2000/svg" xmlns:xlink="http://www.w3.org/1999/xlink" width="350.47798" height="321.83689" viewBox="0,0,350.47798,321.83689"><defs><linearGradient x1="363.74771" y1="106.37622" x2="363.74771" y2="315.32619" gradientUnits="userSpaceOnUse" id="color-1"><stop offset="0" stop-color="#534278"/><stop offset="1" stop-color="#342448"/></linearGradient><linearGradient x1="309.67886" y1="116.9581" x2="309.67886" y2="127.62328" gradientUnits="userSpaceOnUse" id="color-2"><stop offset="0" stop-color="#493561"/><stop offset="1" stop-color="#0d021a"/></linearGradient><radialGradient cx="320" cy="180" r="154.76054" gradientUnits="userSpaceOnUse" id="color-3"><stop offset="0" stop-color="#483766" stop-opacity="0.2902"/><stop offset="1" stop-color="#483766" stop-opacity="0"/></radialGradient></defs><g transform="translate(-165.23946,-25.23946)"><g data-paper-data="{&quot;isPaintingLayer&quot;:true}" fill-rule="nonzero" stroke-linecap="butt" stroke-linejoin="miter" stroke-miterlimit="10" stroke-dasharray="" stroke-dashoffset="0" style="mix-blend-mode: normal"><path d="M206.00002,202.94083l2,-51.08423c0,0 11.85218,10.21685 20.2352,10.21685c12.1714,0 44.7648,0 44.7648,0v32.69391c0,0 -36.64363,0 -48.7648,0c-7.20609,0 -18.2352,8.17348 -18.2352,8.17348z" fill="#2e1267" stroke="none" stroke-width="0"/><path d="M418.47092,259.40091c0,0 2.27265,0.29935 4.59386,5.31496c1.69525,3.66298 7.79587,9.40377 13.33662,14.12711c5.26158,4.48532 39.06811,11.52675 39.06811,11.52675c0,0 -35.97735,-6.63609 -43.23803,-10.47819c-6.39135,-3.38207 -13.04089,-7.29079 -15.45058,-10.03245c-3.75624,-4.27373 -9.74617,-11.08885 -9.74617,-11.08885l5.10285,0.97124z" data-paper-data="{&quot;index&quot;:null}" fill="#2e1267" stroke="none" stroke-width="0"/><path d="M370.85915,256.12069c0,0 3.60598,7.7917 5.92719,12.80731c1.69525,3.66298 7.79587,9.40377 13.33662,14.12711c5.26158,4.48532 39.06811,11.52675 39.06811,11.52675c0,0 -35.97735,-6.63609 -43.23803,-10.47819c-6.39135,-3.38207 -13.04089,-7.29079 -15.45058,-10.03245c-3.75624,-4.27373 -9.74617,-11.08885 -9.74617,-11.08885l10.10285,-6.86167z" data-paper-data="{&quot;index&quot;:null}" fill="#2e1267" stroke="none" stroke-width="0"/><path d="M343.70586,260.04048c0,0 2.28898,8.29547 3.76242,13.63533c1.07612,3.89982 6.15854,10.59626 10.85431,16.19437c4.45918,5.31601 36.65107,17.99737 36.65107,17.99737c0,0 -34.39846,-12.65009 -40.93354,-17.67112c-5.75264,-4.41984 -11.67424,-9.40284 -13.60467,-12.51539c-3.00916,-4.85188 -7.80775,-12.58894 -7.80775,-12.58894l11.07816,-5.05164z" data-paper-data="{&quot;index&quot;:null}" fill="#2e1267" stroke="none" stroke-width="0"/><path d="M376.35155,263.60629l-8.7367,-8.59935c0,0 7.08773,-5.60891 11.5324,-9.12623c2.85133,-2.25642 10.07853,-4.88522 16.95941,-7.04313c7.81678,-2.45144 44.37571,-2.39715 44.37571,-2.39715c0,0 -34.49425,0.74172 -40.45701,4.19176c-6.27914,3.63313 -13.28744,8.16481 -15.59739,11.45839c-3.16289,4.50977 -8.07641,11.51568 -8.07641,11.51568z" fill="#2e1267" stroke="none" stroke-width="0"/><path d="M396.45271,263.27754l-5.17958,-10.01272c0,0 7.71947,-2.80045 12.56031,-4.55659c3.10548,-1.1266 10.11308,-1.29976 16.68847,-1.16524c7.46976,0.15278 39.186,10.86586 39.186,10.86586c0,0 -30.14668,-9.41982 -36.28634,-8.16497c-6.46544,1.32147 -13.81489,3.2101 -16.74035,5.39485c-4.00569,2.99151 -10.22851,7.63881 -10.22851,7.63881z" fill="#2e1267" stroke="none" stroke-width="0"/><path d="M353.69221,259.51955l-8.73671,-8.59935c0,0 7.08773,-5.60891 11.5324,-9.12623c2.85133,-2.25642 10.07853,-4.88522 16.95941,-7.04313c7.81678,-2.45144 44.37571,-2.39715 44.37571,-2.39715c0,0 -34.49426,0.74172 -40.45702,4.19176c-6.27914,3.63313 -13.28744,8.16481 -15.59739,11.45839c-3.16289,4.50977 -8.0764,11.51568 -8.0764,11.51568z" fill="#2e1267" stroke="none" stroke-width="0"/><path d="M320.3327,303.9321l0.92216,8.25399c0,0 -6.00606,-0.19246 -9.77242,-0.31316c-2.41618,-0.07742 -7.24926,-1.87075 -11.70664,-3.75638c-5.06366,-2.14209 -23.93351,-18.11362 -23.93351,-18.11362c0,0 18.13546,14.65976 22.65821,15.47728c4.76274,0.86086 10.27772,1.57537 12.84744,0.88072c3.51861,-0.95117 8.98475,-2.42881 8.98475,-2.42881z" fill="#2e1267" stroke="none" stroke-width="0"/><path d="M319.8327,292.84052l0.92216,8.25398c0,0 -6.00606,-0.19246 -9.77242,-0.31316c-2.41618,-0.07742 -7.24926,-1.87075 -11.70664,-3.75638c-5.06366,-2.14209 -23.93351,-18.11362 -23.93351,-18.11362c0,0 18.13546,14.65976 22.65821,15.47728c4.76274,0.86086 10.27772,1.57537 12.84744,0.88072c3.51861,-0.95117 8.98475,-2.42881 8.98475,-2.42881z" fill="#2e1267" stroke="none" stroke-width="0"/><path d="M319.8327,292.84052l0.92216,8.25398c0,0 -6.00606,-0.19246 -9.77242,-0.31316c-2.41618,-0.07742 -7.24926,-1.87075 -11.70664,-3.75638c-5.06366,-2.14209 -23.93351,-18.11362 -23.93351,-18.11362c0,0 18.13546,14.65976 22.65821,15.47728c4.76274,0.86086 10.27772,1.57537 12.84744,0.88072c3.51861,-0.95117 8.98475,-2.42881 8.98475,-2.42881z" fill="#2e1267" stroke="none" stroke-width="0"/><path d="M458.71884,185.83962c0,0 2.27265,0.29935 4.59386,5.31496c1.69525,3.66298 7.79588,9.40378 13.33663,14.12712c5.26158,4.48532 39.06811,11.52675 39.06811,11.52675c0,0 -35.97735,-6.63608 -43.23803,-10.47818c-6.39135,-3.38207 -13.04089,-7.29079 -15.45058,-10.03245c-3.75624,-4.27373 -9.74617,-11.08886 -9.74617,-11.08886l5.10286,0.97124z" data-paper-data="{&quot;index&quot;:null}" fill="#2e1267" stroke="none" stroke-width="0"/><path d="M411.10706,182.55939c0,0 3.60598,7.79171 5.92719,12.80731c1.69525,3.66298 7.79587,9.40377 13.33662,14.12711c5.26158,4.48532 39.06811,11.52675 39.06811,11.52675c0,0 -35.97735,-6.63609 -43.23803,-10.47819c-6.39135,-3.38207 -13.04089,-7.29079 -15.45058,-10.03245c-3.75624,-4.27373 -9.74617,-11.08886 -9.74617,-11.08886l10.10285,-6.86167z" data-paper-data="{&quot;index&quot;:null}" fill="#2e1267" stroke="none" stroke-width="0"/><path d="M383.95379,186.47919c0,0 2.28898,8.29547 3.76243,13.63533c1.07612,3.89982 6.15854,10.59626 10.85431,16.19437c4.45918,5.31601 36.65107,17.99737 36.65107,17.99737c0,0 -34.39846,-12.65008 -40.93355,-17.67112c-5.75264,-4.41984 -11.67424,-9.40284 -13.60467,-12.51539c-3.00916,-4.85188 -7.80775,-12.58893 -7.80775,-12.58893l11.07816,-5.05164z" data-paper-data="{&quot;index&quot;:null}" fill="#2e1267" stroke="none" stroke-width="0"/><path d="M450.88548,186.2422l-5.10286,0.97124c0,0 5.98993,-6.81513 9.74617,-11.08885c2.40969,-2.74166 9.05923,-6.65038 15.45058,-10.03245c7.26068,-3.84211 43.23803,-10.47819 43.23803,-10.47819c0,0 -33.80653,7.04143 -39.06811,11.52675c-5.54075,4.72334 -11.64137,10.46412 -13.33663,14.12712c-2.32121,5.01559 -4.59386,5.31496 -4.59386,5.31496z" fill="#2e1267" stroke="none" stroke-width="0"/><path d="M409.60705,189.86298l-10.10285,-6.86167c0,0 5.98993,-6.81513 9.74617,-11.08886c2.40969,-2.74166 9.05923,-6.65038 15.45058,-10.03245c7.26068,-3.84211 43.23803,-10.47818 43.23803,-10.47818c0,0 -33.80653,7.04143 -39.06811,11.52675c-5.54075,4.72334 -11.64137,10.46412 -13.33662,14.12712c-2.32121,5.01559 -5.92719,12.80731 -5.92719,12.80731z" fill="#2e1267" stroke="none" stroke-width="0"/><path d="M382.45378,185.94319l-11.07816,-5.05164c0,0 4.79859,-7.73706 7.80775,-12.58894c1.93043,-3.11255 7.85203,-8.09554 13.60467,-12.51539c6.53508,-5.02104 40.93355,-17.67112 40.93355,-17.67112c0,0 -32.19189,12.68136 -36.65107,17.99737c-4.69577,5.59811 -9.77819,12.29454 -10.85431,16.19437c-1.47345,5.33988 -3.76243,13.63533 -3.76243,13.63533z" fill="#2e1267" stroke="none" stroke-width="0"/><path d="M313.66449,111.04666l-12.11589,0.62824c0,0 0.84417,-9.11889 1.37354,-14.8373c0.33961,-3.66845 3.40677,-10.85265 6.57321,-17.45666c3.59711,-7.50226 11.78603,-14.48728 11.78603,-14.48728c0,0 -6.20824,5.9909 -7.82413,12.79461c-1.7016,7.16473 -3.26051,15.48754 -2.4893,19.46203c1.05601,5.4421 2.69653,13.89636 2.69653,13.89636z" fill="#413658" stroke="none" stroke-width="0"/><path d="M303.7981,110.53581l-12.11589,0.62824c0,0 0.84417,-9.11889 1.37354,-14.8373c0.3396,-3.66845 3.40677,-10.85266 6.57321,-17.45666c3.59711,-7.50226 11.78604,-14.48728 11.78604,-14.48728c0,0 -6.20824,5.9909 -7.82413,12.79461c-1.7016,7.16473 -3.2605,15.48753 -2.4893,19.46202c1.05601,5.4421 2.69653,13.89636 2.69653,13.89636z" fill="#413658" stroke="none" stroke-width="0"/><path d="M330.51223,139.55549c0,-4.54485 9.75542,-7.85735 17.06984,-9.20719c2.37212,-0.43776 11.15418,3.41765 12.59683,3.41765c5.89103,0 -16.66666,1.47358 -16.66666,7.49235c0,6.01877 -1.33334,11.23853 -1.33334,11.23853c0,0 -11.66666,-6.92256 -11.66666,-12.94134z" fill="#16032e" stroke="none" stroke-width="0"/><path d="M367.2477,139.65794c0,0.55119 -14.66099,3.23958 -18.44995,4.86969c-2.02932,0.87307 -4.45393,1.51584 -7.11509,1.51584c-2.63787,0 -5.85306,-1.10371 -7.94967,-1.246c-3.96767,-0.26929 -6.36536,-4.33035 -6.36536,-4.88411c0,-0.55523 2.16174,2.53438 6.14693,2.26554c0.95731,-0.06458 2.41069,0.20499 3.95706,0.51611c1.8293,0.36804 3.78874,0.79425 5.21105,0.79425c7.62984,0 24.56504,-4.67771 24.56504,-3.83132z" fill="#000000" stroke="none" stroke-width="0"/><g stroke-width="0"><path d="M224.50003,181.48547c0.53405,-21.80145 45.05292,-18.65368 51.61252,-24.30462c6.15598,-5.30322 6.01963,-45.81505 15.31297,-49.12903c11.93558,-4.2562 36.57552,-0.09223 51.33903,8.96363c9.4082,5.77093 13.05438,17.47253 19.23547,17.47253c2.67388,0 -20.67053,-4.49925 -23.93745,-1.24656c-2.37788,2.36752 -3.24382,5.67159 -4.5665,8.00012c-1.55731,2.74159 9.13846,10.96911 9.13846,10.96911c0,0 -23.9589,6.54397 -11.54573,10.27975c6.79469,2.04488 16.72755,10.85449 29.87561,13.01602c52.71409,8.66613 142.03562,10.57664 142.03562,10.57664c0,0 -86.33199,-1.73898 -134.17518,15.17605c-20.60745,7.2858 -23.48602,30.51442 -26.73874,38.21564c-1.90176,4.50265 110.28137,22.68977 110.28137,22.68977c0,0 -119.18082,1.79786 -120.69079,7.04289c-7.36502,25.58296 -9.67665,46.11876 -9.67665,46.11876c0,0 -7.57038,-37.23108 -24.4189,-74.34708c-6.49077,-14.29867 -15.66861,-28.10745 -22.54597,-39.81634c-5.50439,-9.37135 -51.06918,2.12418 -50.53513,-19.67726z" fill="url(#color-1)" stroke="none"/><path d="M270.80683,344.28766c-1.58306,-0.30733 45.414,6.87062 46.99345,-15.89549c0.51599,-7.43739 1.13702,-14.38816 1.79459,-20.36578c1.35528,-12.32009 0.53242,-20.84695 1.59832,-20.64002c1.58306,0.30733 1.586,19.01206 0.00655,41.77818c-1.57945,22.76612 -48.80984,15.43045 -50.39291,15.12312z" fill="#342448" stroke="#000000"/><path d="M322.84936,329.1645c-1.57945,-22.76612 -1.57651,-41.47084 0.00655,-41.77818c1.05433,-0.20468 0.21031,8.48379 1.55414,20.58092c0.67392,6.06658 2.31124,12.48056 2.83877,20.08432c1.57945,22.76612 35.90985,17.9721 34.32679,18.27943c-1.58306,0.30733 -37.14679,5.59963 -38.72625,-17.16649z" data-paper-data="{&quot;index&quot;:null}" fill="#342448" stroke="#000000"/></g><path d="M325.17886,122.29069c0,0 -6.93959,5.95982 -15.5,5.95982c-8.56041,0 -15.5,-5.95982 -15.5,-5.95982c0,0 6.93959,-5.95983 15.5,-5.95983c8.56041,0 15.5,5.95983 15.5,5.95983z" fill="#000000" stroke="none" stroke-width="0"/><path d="M318.75613,122.29069c0,2.94511 -4.06402,5.33259 -9.07723,5.33259c-5.01322,0 -9.07723,-2.38748 -9.07723,-5.33259c0,-2.94511 4.06402,-5.33259 9.07723,-5.33259c5.01322,0 9.07723,2.38748 9.07723,5.33259z" fill="url(#color-2)" stroke="none" stroke-width="0"/><path d="M311.01223,122.63125c0,0.6583 -0.44772,1.19197 -1,1.19197c-0.55228,0 -1,-0.53366 -1,-1.19197c0,-0.6583 0.44772,-1.19197 1,-1.19197c0.55228,0 1,0.53366 1,1.19197z" fill="#780cff" stroke="none" stroke-width="0"/><path d="M165.23946,180c0,-85.47188 69.28866,-154.76054 154.76054,-154.76054c85.47188,0 154.76054,69.28866 154.76054,154.76054c0,85.47188 -69.28866,154.76054 -154.76054,154.76054c-85.47188,0 -154.76054,-69.28866 -154.76054,-154.76054z" fill="url(#color-3)" stroke="none" stroke-width="none"/></g></g></svg>