<svg version="1.1" xmlns="http://www.w3.org/2000/svg" xmlns:xlink="http://www.w3.org/1999/xlink" width="991.93056" height="849.03355" viewBox="0,0,991.93056,849.03355"><defs><linearGradient x1="319.91446" y1="363.77077" x2="319.91446" y2="287.19417" gradientUnits="userSpaceOnUse" id="color-1"><stop offset="0" stop-color="#002550"/><stop offset="1" stop-color="#002550" stop-opacity="0"/></linearGradient><linearGradient x1="319.91445" y1="-4.09714" x2="319.91445" y2="72.47944" gradientUnits="userSpaceOnUse" id="color-2"><stop offset="0" stop-color="#0074f5" stop-opacity="0.34902"/><stop offset="1" stop-color="#0074f5" stop-opacity="0"/></linearGradient><linearGradient x1="67.42343" y1="180" x2="126.54799" y2="180" gradientUnits="userSpaceOnUse" id="color-3"><stop offset="0" stop-color="#002853"/><stop offset="1" stop-color="#002853" stop-opacity="0"/></linearGradient><linearGradient x1="571.2221" y1="180.00002" x2="512.09755" y2="180.00002" gradientUnits="userSpaceOnUse" id="color-4"><stop offset="0" stop-color="#002753"/><stop offset="1" stop-color="#002753" stop-opacity="0"/></linearGradient></defs><g transform="translate(175.96528,244.51678)"><g data-paper-data="{&quot;isPaintingLayer&quot;:true}" fill-rule="nonzero" stroke="none" stroke-width="0" stroke-linecap="butt" stroke-linejoin="miter" stroke-miterlimit="10" stroke-dasharray="" stroke-dashoffset="0" style="mix-blend-mode: normal"><path d="M570.32436,287.19417v76.57657h-500.81975v-76.57657z" fill="url(#color-1)"/><path d="M69.50458,72.47944v-76.57657h500.81975v76.57657z" fill="url(#color-2)"/><path d="M126.54799,364.09714h-59.12455v-368.19425h59.12455z" fill="url(#color-3)"/><path d="M512.09755,-4.09713h59.12455v368.19425h-59.12455z" fill="url(#color-4)"/><g fill="#00254e"><path d="M-175.96528,448.4985v-540h244.51677v540z"/><path d="M571.4485,433.48349v-540h244.51678v540z"/><path d="M49.92685,-244.51677h540v244.51677h-540z"/><path d="M49.92685,360h540v244.51678h-540z"/></g></g></g></svg>