<svg version="1.1" xmlns="http://www.w3.org/2000/svg" xmlns:xlink="http://www.w3.org/1999/xlink" width="136.53092" height="136.53092" viewBox="0,0,136.53092,136.53092"><defs><radialGradient cx="320" cy="180" r="68.26546" gradientUnits="userSpaceOnUse" id="color-1"><stop offset="0" stop-color="#393434"/><stop offset="1" stop-color="#393434" stop-opacity="0"/></radialGradient></defs><g transform="translate(-251.73453,-111.73454)"><g data-paper-data="{&quot;isPaintingLayer&quot;:true}" fill-rule="nonzero" stroke-linejoin="miter" stroke-miterlimit="10" stroke-dasharray="" stroke-dashoffset="0" style="mix-blend-mode: normal"><path d="M330.1169,213.16667v21.33333" fill="none" stroke="#212121" stroke-width="8.5" stroke-linecap="round"/><path d="M357.1169,234.5v-21.33333" fill="none" stroke="#212121" stroke-width="8.5" stroke-linecap="round"/><path d="M265.5,180c0,-30.09952 24.40048,-54.5 54.5,-54.5c30.09952,0 54.5,24.40048 54.5,54.5c0,30.09952 -24.40048,54.5 -54.5,54.5c-30.09952,0 -54.5,-24.40048 -54.5,-54.5z" fill="#373737" stroke="none" stroke-width="0" stroke-linecap="butt"/><path d="M301.11691,234.5v-21.33333" fill="none" stroke="#212121" stroke-width="8.5" stroke-linecap="round"/><path d="M251.73453,180c0,-37.70197 30.56349,-68.26546 68.26546,-68.26546c37.70197,0 68.26546,30.56349 68.26546,68.26546c0,37.70197 -30.56349,68.26546 -68.26546,68.26546c-37.70197,0 -68.26546,-30.56349 -68.26546,-68.26546z" fill="url(#color-1)" stroke="none" stroke-width="0" stroke-linecap="butt"/></g></g></svg>