<svg version="1.1" xmlns="http://www.w3.org/2000/svg" xmlns:xlink="http://www.w3.org/1999/xlink" width="1129.03354" height="849.03353" viewBox="0,0,1129.03354,849.03353"><defs><linearGradient x1="320.00003" y1="363.77076" x2="320.00003" y2="287.19417" gradientUnits="userSpaceOnUse" id="color-1"><stop offset="0" stop-color="#472020"/><stop offset="1" stop-color="#472020" stop-opacity="0"/></linearGradient><linearGradient x1="320.00003" y1="-4.09714" x2="320.00003" y2="72.47944" gradientUnits="userSpaceOnUse" id="color-2"><stop offset="0" stop-color="#ff7070" stop-opacity="0.28235"/><stop offset="1" stop-color="#ff7070" stop-opacity="0"/></linearGradient><linearGradient x1="-6.57655" y1="180" x2="70.00003" y2="180" gradientUnits="userSpaceOnUse" id="color-3"><stop offset="0" stop-color="#461f1f"/><stop offset="1" stop-color="#461f1f" stop-opacity="0"/></linearGradient><linearGradient x1="645.04387" y1="180.00002" x2="568.46732" y2="180.00002" gradientUnits="userSpaceOnUse" id="color-4"><stop offset="0" stop-color="#461f1f"/><stop offset="1" stop-color="#461f1f" stop-opacity="0"/></linearGradient></defs><g transform="translate(244.51677,244.51676)"><g data-paper-data="{&quot;isPaintingLayer&quot;:true}" fill-rule="nonzero" stroke="none" stroke-width="0" stroke-linecap="butt" stroke-linejoin="miter" stroke-miterlimit="10" stroke-dasharray="" stroke-dashoffset="0" style="mix-blend-mode: normal"><path d="M644.32436,287.19417v76.57657h-648.64865v-76.57657z" fill="url(#color-1)"/><path d="M-4.32431,72.47944v-76.57657h648.64865v76.57657z" fill="url(#color-2)"/><path d="M70.00003,364.09714h-76.57657v-368.19425h76.57657z" fill="url(#color-3)"/><path d="M568.46732,-4.09713h76.57657v368.19425h-76.57657z" fill="url(#color-4)"/><g fill="#431f1f"><path d="M-244.51677,450v-540h244.51677v540z"/><path d="M640,450v-540h244.51677v540z"/><path d="M-52.1021,-244.51675h744.2042v244.51677h-744.2042z"/><path d="M-52.1021,360h744.2042v244.51677h-744.2042z"/></g></g></g></svg>