<svg version="1.1" xmlns="http://www.w3.org/2000/svg" xmlns:xlink="http://www.w3.org/1999/xlink" width="52.00001" height="52.00001" viewBox="0,0,52.00001,52.00001"><g transform="translate(-294,-154)"><g data-paper-data="{&quot;isPaintingLayer&quot;:true}" fill-rule="nonzero" stroke="none" stroke-width="1" stroke-linecap="butt" stroke-linejoin="miter" stroke-miterlimit="10" stroke-dasharray="" stroke-dashoffset="0" style="mix-blend-mode: normal"><path d="M317.05469,154c1.93181,0 3.86362,0 5.80855,0.03429c0.13204,0.07911 0.24744,0.14276 0.37044,0.16581c1.11504,0.20894 2.24288,0.36256 3.34503,0.62464c2.36129,0.56151 4.58159,1.50873 6.6571,2.75056c2.37703,1.42224 4.51253,3.14983 6.33575,5.26238c1.14894,1.33128 2.21346,2.7234 3.06241,4.25033c1.63926,2.94837 2.78359,6.08183 3.17098,9.46035c0.00845,0.0737 0.12756,0.13472 0.19506,0.20165c0,2.13493 0,4.26987 -0.03432,6.41793c-0.11284,0.47833 -0.17668,0.94657 -0.27227,1.40824c-0.60823,2.93752 -1.54856,5.75178 -3.04783,8.36871c-1.1242,1.96225 -2.47909,3.75168 -4.0567,5.35718c-0.91729,0.9335 -1.93992,1.77379 -2.97522,2.57879c-1.9143,1.48847 -4.02758,2.63983 -6.30029,3.49276c-1.8208,0.68334 -3.68319,1.20217 -5.61982,1.43389c-0.0532,0.00637 -0.09288,0.1258 -0.13887,0.1925c-2.33806,0 -4.67612,0 -7.02706,-0.03363c-0.09741,-0.07867 -0.17713,-0.14566 -0.2672,-0.16543c-1.2477,-0.27377 -2.5096,-0.49294 -3.74274,-0.82063c-2.11581,-0.56226 -4.08567,-1.48198 -5.95814,-2.61244c-1.67669,-1.01227 -3.22922,-2.19231 -4.63931,-3.5471c-0.69693,-0.6696 -1.31645,-1.42093 -1.95794,-2.14681c-1.11704,-1.26399 -2.03361,-2.66848 -2.8359,-4.1472c-1.5267,-2.81389 -2.55588,-5.79203 -2.93142,-8.98362c-0.0083,-0.07053 -0.1275,-0.12801 -0.19498,-0.19157c0,-2.20264 0,-4.40529 0.03378,-6.6211c0.07872,-0.09789 0.14538,-0.17781 0.16534,-0.26806c0.30444,-1.37683 0.54734,-2.77008 0.91663,-4.12905c0.45618,-1.67872 1.1781,-3.25444 2.01048,-4.7891c0.99753,-1.83915 2.1969,-3.52774 3.59695,-5.06627c1.51956,-1.66986 3.23094,-3.1314 5.14237,-4.34691c1.68296,-1.07021 3.45296,-1.95674 5.3374,-2.62393c1.84017,-0.65151 3.71227,-1.13666 5.66046,-1.3125c0.06906,-0.00623 0.12776,-0.12717 0.19128,-0.19464M321.97922,180.60894c0.44649,0 0.89299,0 1.43834,0c-1.64674,4.11611 -3.24866,8.12018 -4.85058,12.12425c0.04409,0.03109 0.08819,0.06218 0.13228,0.09327c5.55419,-4.26263 11.10838,-8.52526 16.71414,-12.82745c-5.63181,-4.32103 -11.17351,-8.57292 -16.7152,-12.82481c-0.04195,0.03603 -0.08389,0.07206 -0.12584,0.1081c1.61614,4.03892 3.23228,8.07784 4.88053,12.19699c-0.28075,0 -0.46204,0 -0.64334,0c-2.31874,0.00003 -4.63758,0.01116 -6.95613,-0.00948c-0.45058,-0.00401 -0.53254,0.17437 -0.52565,0.56809c0.00648,0.37012 0.03176,0.58792 0.50826,0.58185c2.01376,-0.02566 4.02804,-0.01083 6.1432,-0.01081M304.58741,180.41458c0.08514,0.06346 0.16937,0.18058 0.25557,0.18206c0.82882,0.01418 1.65838,0.02456 2.48687,0.00295c0.45917,-0.01197 0.24609,-0.39681 0.27359,-0.62388c0.02678,-0.22116 0.07356,-0.49956 -0.31058,-0.49574c-0.62597,0.00623 -1.25212,-0.00522 -1.87809,0.00089c-0.89815,0.00877 -0.84207,-0.13594 -0.82736,0.93373M309.99389,180.50234c0.02388,0.0234 0.04746,0.06692 0.07169,0.06729c0.89549,0.01352 1.79403,0.0702 2.68533,0.01349c0.45576,-0.029 0.17689,-0.48968 0.23419,-0.74986c0.05656,-0.2568 -0.09364,-0.35916 -0.35086,-0.35535c-0.59224,0.00879 -1.18494,-0.00848 -1.77705,0.0041c-0.924,0.01962 -0.92545,-0.22451 -0.86329,1.02034M318.53087,167.0562c0,0 -0.00546,0.00347 0,0M318.52406,192.94374c0,0 0.00547,-0.00353 0,0z" fill="#31484a"/><path d="M321.92868,180.60893c-2.06462,-0.00002 -4.0789,-0.01485 -6.09266,0.01081c-0.4765,0.00607 -0.50178,-0.21174 -0.50826,-0.58185c-0.00689,-0.39372 0.07507,-0.5721 0.52565,-0.56809c2.31855,0.02065 4.63739,0.00952 6.95613,0.00948c0.1813,0 0.36259,0 0.64334,0c-1.64824,-4.11915 -3.26438,-8.15807 -4.88053,-12.19699c0.04195,-0.03603 0.08389,-0.07206 0.12584,-0.1081c5.54169,4.25189 11.08339,8.50378 16.7152,12.82481c-5.60576,4.3022 -11.15995,8.56483 -16.71414,12.82745c-0.04409,-0.03109 -0.08819,-0.06218 -0.13228,-0.09327c1.60192,-4.00407 3.20384,-8.00814 4.85058,-12.12425c-0.54536,0 -0.99185,0 -1.48888,0M321.3118,189.35298c0.098,-0.06589 0.1999,-0.12669 0.29343,-0.1984c3.71725,-2.85029 7.43402,-5.70121 11.14972,-8.55353c0.24766,-0.19011 0.48645,-0.39176 0.7494,-0.60424c-0.1559,-0.12986 -0.25631,-0.21954 -0.36279,-0.30131c-3.15182,-2.42037 -6.30206,-4.84282 -9.45809,-7.2577c-0.80385,-0.61507 -1.62636,-1.20576 -2.46284,-1.83318c-0.01338,-0.00071 -0.02677,-0.00142 -0.04015,-0.00214c0.00718,0.02293 0.01435,0.04586 0.02815,0.14447c1.16924,2.93692 2.33319,5.87596 3.51513,8.80776c0.13166,0.32659 0.1214,0.59308 -0.01046,0.91302c-0.60552,1.46927 -1.19075,2.94696 -1.77521,4.42482c-0.58395,1.47655 -1.15833,2.95689 -1.76346,4.45747c0.02322,0.0069 0.04644,0.0138 0.13717,0.00296z" fill="#fdfefe"/><path d="M304.58322,180.36923c-0.01052,-1.02431 -0.0666,-0.87961 0.83155,-0.88837c0.62597,-0.00611 1.25212,0.00534 1.87809,-0.00089c0.38414,-0.00382 0.33736,0.27458 0.31058,0.49574c-0.0275,0.22707 0.18558,0.61191 -0.27359,0.62388c-0.82849,0.0216 -1.65805,0.01123 -2.48687,-0.00295c-0.0862,-0.00147 -0.17043,-0.11859 -0.25976,-0.22741z" fill="#fdfeff"/><path d="M309.98126,180.45864c-0.04954,-1.20115 -0.04809,-0.95701 0.87592,-0.97663c0.59211,-0.01257 1.1848,0.00469 1.77705,-0.0041c0.25723,-0.00382 0.40742,0.09854 0.35086,0.35535c-0.0573,0.26018 0.22157,0.72087 -0.23419,0.74986c-0.89129,0.05671 -1.78984,0.00003 -2.68533,-0.01349c-0.02423,-0.00037 -0.04781,-0.04389 -0.08431,-0.11099z" fill="#fdfeff"/><path d="M318.52814,167.05793c0.00273,-0.00173 -0.00273,0.00174 0,0z" fill="#fdfefe"/><path d="M318.52679,192.94197c-0.00273,0.00177 0.00273,-0.00177 0,0z" fill="#fdfefe"/><path d="M321.24317,170.63015c0.81394,0.60189 1.63645,1.19257 2.4403,1.80764c3.15603,2.41488 6.30627,4.83733 9.45809,7.2577c0.10648,0.08177 0.20689,0.17145 0.36279,0.30131c-0.26296,0.21248 -0.50175,0.41413 -0.7494,0.60424c-3.7157,2.85232 -7.43247,5.70324 -11.14972,8.55353c-0.09353,0.07172 -0.19543,0.13252 -0.33787,0.19654c-0.04444,-0.00187 -0.06617,-0.02299 -0.06617,-0.02299c0.57858,-1.47868 1.15296,-2.95901 1.7369,-4.43556c0.58446,-1.47786 1.16969,-2.95555 1.77521,-4.42482c0.13186,-0.31994 0.14212,-0.58643 0.01046,-0.91302c-1.18194,-2.9318 -2.34589,-5.87085 -3.50806,-8.85579c0.00707,-0.04803 0.02747,-0.06877 0.02747,-0.06877z" fill="#31484a"/><path d="M321.21238,170.66108c-0.01756,-0.01274 -0.02473,-0.03567 -0.03191,-0.0586c0.01338,0.00071 0.02677,0.00142 0.05142,0.0149c0.01127,0.01277 -0.00913,0.0335 -0.01951,0.04369z" fill="#8bd5dd"/><path d="M321.2336,189.35999c-0.01253,0.00384 -0.03575,-0.00306 -0.04569,-0.02092c0.01328,-0.01095 0.035,0.01017 0.04569,0.02092z" fill="#8bd5dd"/></g></g></svg>