<svg version="1.1" xmlns="http://www.w3.org/2000/svg" xmlns:xlink="http://www.w3.org/1999/xlink" width="991.93056" height="849.03355" viewBox="0,0,991.93056,849.03355"><defs><linearGradient x1="320.50453" y1="363.77079" x2="320.50453" y2="287.19418" gradientUnits="userSpaceOnUse" id="color-1"><stop offset="0" stop-color="#120a1c"/><stop offset="1" stop-color="#120a1c" stop-opacity="0"/></linearGradient><linearGradient x1="320.50451" y1="-4.09713" x2="320.50451" y2="72.47945" gradientUnits="userSpaceOnUse" id="color-2"><stop offset="0" stop-color="#120a1c"/><stop offset="1" stop-color="#120a1c" stop-opacity="0"/></linearGradient><linearGradient x1="66.51153" y1="180.00002" x2="126.3436" y2="180.00002" gradientUnits="userSpaceOnUse" id="color-3"><stop offset="0" stop-color="#120a1c"/><stop offset="1" stop-color="#120a1c" stop-opacity="0"/></linearGradient><linearGradient x1="574.80148" y1="180.00004" x2="514.9694" y2="180.00004" gradientUnits="userSpaceOnUse" id="color-4"><stop offset="0" stop-color="#120a1c"/><stop offset="1" stop-color="#120a1c" stop-opacity="0"/></linearGradient></defs><g transform="translate(175.96528,244.51676)"><g data-paper-data="{&quot;isPaintingLayer&quot;:true}" fill-rule="nonzero" stroke="none" stroke-width="0" stroke-linecap="butt" stroke-linejoin="miter" stroke-miterlimit="10" stroke-dasharray="" stroke-dashoffset="0" style="mix-blend-mode: normal"><g><path d="M573.91095,287.19418v76.57657h-506.81281v-76.57657z" fill="url(#color-1)"/><path d="M67.0981,72.47945v-76.57657h506.81281v76.57657z" fill="url(#color-2)"/><path d="M126.3436,364.09716h-59.83206v-368.19425h59.83206z" fill="url(#color-3)"/><path d="M514.9694,-4.09712h59.83206v368.19425h-59.83206z" fill="url(#color-4)"/></g><g fill="#120a1c"><path d="M-175.96528,448.49852v-540h244.51677v540z"/><path d="M571.4485,433.48351v-540h244.51678v540z"/><path d="M49.92685,-244.51675h540v244.51677h-540z"/><path d="M49.92685,360.00002h540v244.51678h-540z"/></g></g></g></svg>