<svg version="1.1" xmlns="http://www.w3.org/2000/svg" xmlns:xlink="http://www.w3.org/1999/xlink" width="350.47796" height="321.83688" viewBox="0,0,350.47796,321.83688"><defs><linearGradient x1="363.74769" y1="111.48493" x2="363.74769" y2="316.00005" gradientUnits="userSpaceOnUse" id="color-1"><stop offset="0" stop-color="#534278"/><stop offset="1" stop-color="#342448"/></linearGradient><linearGradient x1="309.67886" y1="121.84222" x2="309.67886" y2="132.28103" gradientUnits="userSpaceOnUse" id="color-2"><stop offset="0" stop-color="#493561"/><stop offset="1" stop-color="#0d021a"/></linearGradient><radialGradient cx="320" cy="180" r="154.76054" gradientUnits="userSpaceOnUse" id="color-3"><stop offset="0" stop-color="#483766" stop-opacity="0.2902"/><stop offset="1" stop-color="#483766" stop-opacity="0"/></radialGradient></defs><g transform="translate(-165.23946,-25.23946)"><g data-paper-data="{&quot;isPaintingLayer&quot;:true}" fill-rule="nonzero" stroke-linecap="butt" stroke-linejoin="miter" stroke-miterlimit="10" stroke-dasharray="" stroke-dashoffset="0" style="mix-blend-mode: normal"><path d="M206,206.00001l2,-50c0,0 11.85218,10 20.2352,10c12.1714,0 44.7648,0 44.7648,0v32c0,0 -36.64363,0 -48.7648,0c-7.20609,0 -18.2352,8 -18.2352,8z" fill="#2e1267" stroke="none" stroke-width="0"/><path d="M418.4709,261.26176c0,0 2.27265,0.293 4.59386,5.20215c1.69525,3.58524 7.79587,9.20418 13.33662,13.82727c5.26158,4.39012 39.06811,11.2821 39.06811,11.2821c0,0 -35.97735,-6.49524 -43.23803,-10.2558c-6.39135,-3.31029 -13.04089,-7.13605 -15.45058,-9.81952c-3.75624,-4.18302 -9.74617,-10.8535 -9.74617,-10.8535l5.10285,0.95063z" data-paper-data="{&quot;index&quot;:null}" fill="#2e1267" stroke="none" stroke-width="0"/><path d="M370.85913,258.05116c0,0 3.60598,7.62633 5.92719,12.53548c1.69525,3.58524 7.79587,9.20418 13.33662,13.82727c5.26158,4.39012 39.06811,11.2821 39.06811,11.2821c0,0 -35.97735,-6.49524 -43.23803,-10.2558c-6.39135,-3.31029 -13.04089,-7.13605 -15.45058,-9.81952c-3.75624,-4.18302 -9.74617,-10.8535 -9.74617,-10.8535l10.10285,-6.71604z" data-paper-data="{&quot;index&quot;:null}" fill="#2e1267" stroke="none" stroke-width="0"/><path d="M343.70585,261.88775c0,0 2.28898,8.1194 3.76242,13.34593c1.07612,3.81705 6.15854,10.37136 10.85431,15.85065c4.45918,5.20318 36.65107,17.61539 36.65107,17.61539c0,0 -34.39846,-12.3816 -40.93354,-17.29606c-5.75264,-4.32603 -11.67424,-9.20327 -13.60467,-12.24976c-3.00916,-4.7489 -7.80775,-12.32175 -7.80775,-12.32175l11.07816,-4.94442z" data-paper-data="{&quot;index&quot;:null}" fill="#2e1267" stroke="none" stroke-width="0"/><path d="M376.35153,265.37789l-8.7367,-8.41683c0,0 7.08773,-5.48986 11.5324,-8.93253c2.85133,-2.20853 10.07853,-4.78153 16.95941,-6.89364c7.81678,-2.39941 44.37571,-2.34627 44.37571,-2.34627c0,0 -34.49425,0.72598 -40.45701,4.10279c-6.27914,3.55602 -13.28744,7.99152 -15.59739,11.21519c-3.16289,4.41405 -8.07641,11.27127 -8.07641,11.27127z" fill="#2e1267" stroke="none" stroke-width="0"/><path d="M396.45269,265.05611l-5.17958,-9.80021c0,0 7.71947,-2.74101 12.56031,-4.45988c3.10548,-1.10269 10.11308,-1.27217 16.68847,-1.14051c7.46976,0.14954 39.186,10.63524 39.186,10.63524c0,0 -30.14668,-9.21989 -36.28634,-7.99167c-6.46544,1.29342 -13.81489,3.14197 -16.74035,5.28035c-4.00569,2.92802 -10.22851,7.47668 -10.22851,7.47668z" fill="#2e1267" stroke="none" stroke-width="0"/><path d="M353.69219,261.37789l-8.73671,-8.41683c0,0 7.08773,-5.48986 11.5324,-8.93253c2.85133,-2.20853 10.07853,-4.78153 16.95941,-6.89364c7.81678,-2.39941 44.37571,-2.34627 44.37571,-2.34627c0,0 -34.49426,0.72598 -40.45702,4.10279c-6.27914,3.55602 -13.28744,7.99152 -15.59739,11.21519c-3.16289,4.41405 -8.0764,11.27127 -8.0764,11.27127z" fill="#2e1267" stroke="none" stroke-width="0"/><path d="M320.3327,304.84781l0.92216,8.0788c0,0 -6.00606,-0.18838 -9.77242,-0.30651c-2.41618,-0.07578 -7.24926,-1.83104 -11.70664,-3.67665c-5.06366,-2.09663 -23.93351,-17.72917 -23.93351,-17.72917c0,0 18.13546,14.34862 22.65821,15.14878c4.76274,0.84259 10.27772,1.54193 12.84744,0.86203c3.51861,-0.93098 8.98475,-2.37726 8.98475,-2.37726z" fill="#2e1267" stroke="none" stroke-width="0"/><path d="M319.8327,293.99163l0.92216,8.07879c0,0 -6.00606,-0.18838 -9.77242,-0.30651c-2.41618,-0.07578 -7.24926,-1.83104 -11.70664,-3.67665c-5.06366,-2.09663 -23.93351,-17.72917 -23.93351,-17.72917c0,0 18.13546,14.34862 22.65821,15.14878c4.76274,0.84259 10.27772,1.54193 12.84744,0.86203c3.51861,-0.93098 8.98475,-2.37726 8.98475,-2.37726z" fill="#2e1267" stroke="none" stroke-width="0"/><path d="M319.8327,293.99163l0.92216,8.07879c0,0 -6.00606,-0.18838 -9.77242,-0.30651c-2.41618,-0.07578 -7.24926,-1.83104 -11.70664,-3.67665c-5.06366,-2.09663 -23.93351,-17.72917 -23.93351,-17.72917c0,0 18.13546,14.34862 22.65821,15.14878c4.76274,0.84259 10.27772,1.54193 12.84744,0.86203c3.51861,-0.93098 8.98475,-2.37726 8.98475,-2.37726z" fill="#2e1267" stroke="none" stroke-width="0"/><path d="M458.71882,189.26177c0,0 2.27265,0.293 4.59386,5.20215c1.69525,3.58524 7.79588,9.20419 13.33663,13.82728c5.26158,4.39012 39.06811,11.2821 39.06811,11.2821c0,0 -35.97735,-6.49523 -43.23803,-10.25579c-6.39135,-3.31029 -13.04089,-7.13605 -15.45058,-9.81952c-3.75624,-4.18302 -9.74617,-10.85351 -9.74617,-10.85351l5.10286,0.95063z" data-paper-data="{&quot;index&quot;:null}" fill="#2e1267" stroke="none" stroke-width="0"/><path d="M411.10704,186.05116c0,0 3.60598,7.62634 5.92719,12.53548c1.69525,3.58524 7.79587,9.20418 13.33662,13.82727c5.26158,4.39012 39.06811,11.2821 39.06811,11.2821c0,0 -35.97735,-6.49524 -43.23803,-10.2558c-6.39135,-3.31029 -13.04089,-7.13605 -15.45058,-9.81952c-3.75624,-4.18302 -9.74617,-10.85351 -9.74617,-10.85351l10.10285,-6.71604z" data-paper-data="{&quot;index&quot;:null}" fill="#2e1267" stroke="none" stroke-width="0"/><path d="M383.95377,189.88776c0,0 2.28898,8.1194 3.76243,13.34593c1.07612,3.81705 6.15854,10.37136 10.85431,15.85065c4.45918,5.20318 36.65107,17.61539 36.65107,17.61539c0,0 -34.39846,-12.38159 -40.93355,-17.29606c-5.75264,-4.32603 -11.67424,-9.20327 -13.60467,-12.24976c-3.00916,-4.7489 -7.80775,-12.32174 -7.80775,-12.32174l11.07816,-4.94442z" data-paper-data="{&quot;index&quot;:null}" fill="#2e1267" stroke="none" stroke-width="0"/><path d="M450.88547,189.6558l-5.10286,0.95063c0,0 5.98993,-6.67048 9.74617,-10.8535c2.40969,-2.68347 9.05923,-6.50923 15.45058,-9.81952c7.26068,-3.76056 43.23803,-10.2558 43.23803,-10.2558c0,0 -33.80653,6.89198 -39.06811,11.2821c-5.54075,4.62309 -11.64137,10.24203 -13.33663,13.82728c-2.32121,4.90914 -4.59386,5.20215 -4.59386,5.20215z" fill="#2e1267" stroke="none" stroke-width="0"/><path d="M409.60703,193.19973l-10.10285,-6.71604c0,0 5.98993,-6.67048 9.74617,-10.85351c2.40969,-2.68347 9.05923,-6.50923 15.45058,-9.81952c7.26068,-3.76056 43.23803,-10.25579 43.23803,-10.25579c0,0 -33.80653,6.89198 -39.06811,11.2821c-5.54075,4.62309 -11.64137,10.24203 -13.33662,13.82728c-2.32121,4.90914 -5.92719,12.53548 -5.92719,12.53548z" fill="#2e1267" stroke="none" stroke-width="0"/><path d="M382.45376,189.36314l-11.07816,-4.94442c0,0 4.79859,-7.57285 7.80775,-12.32175c1.93043,-3.04649 7.85203,-7.92372 13.60467,-12.24976c6.53508,-4.91447 40.93355,-17.29606 40.93355,-17.29606c0,0 -32.19189,12.41221 -36.65107,17.61539c-4.69577,5.47929 -9.77819,12.0336 -10.85431,15.85065c-1.47345,5.22654 -3.76243,13.34593 -3.76243,13.34593z" fill="#2e1267" stroke="none" stroke-width="0"/><path d="M313.66447,116.05624l-12.11589,0.61491c0,0 0.84417,-8.92535 1.37354,-14.52239c0.33961,-3.59059 3.40677,-10.62231 6.57321,-17.08615c3.59711,-7.34303 11.78603,-14.1798 11.78603,-14.1798c0,0 -6.20824,5.86375 -7.82413,12.52305c-1.7016,7.01266 -3.26051,15.15883 -2.4893,19.04896c1.05601,5.32659 2.69653,13.60142 2.69653,13.60142z" fill="#413658" stroke="none" stroke-width="0"/><path d="M303.79808,115.55624l-12.11589,0.61491c0,0 0.84417,-8.92535 1.37354,-14.52239c0.3396,-3.59059 3.40677,-10.62232 6.57321,-17.08615c3.59711,-7.34303 11.78604,-14.1798 11.78604,-14.1798c0,0 -6.20824,5.86375 -7.82413,12.52305c-1.7016,7.01266 -3.2605,15.15882 -2.4893,19.04895c1.05601,5.32659 2.69653,13.60142 2.69653,13.60142z" fill="#413658" stroke="none" stroke-width="0"/><path d="M330.51221,143.95999c0,-4.44839 9.75542,-7.69058 17.06984,-9.01177c2.37212,-0.42847 11.15418,3.34511 12.59683,3.34511c5.89103,0 -16.66666,1.4423 -16.66666,7.33333c0,5.89103 -1.33334,11 -1.33334,11c0,0 -11.66666,-6.77563 -11.66666,-12.66667z" fill="#16032e" stroke="none" stroke-width="0"/><path d="M367.24768,144.06027c0,0.53949 -14.66099,3.17082 -18.44995,4.76633c-2.02932,0.85454 -4.45393,1.48367 -7.11509,1.48367c-2.63787,0 -5.85306,-1.08028 -7.94967,-1.21955c-3.96767,-0.26357 -6.36536,-4.23844 -6.36536,-4.78045c0,-0.54345 2.16174,2.48059 6.14693,2.21746c0.95731,-0.06321 2.41069,0.20064 3.95706,0.50516c1.8293,0.36023 3.78874,0.77739 5.21105,0.77739c7.62984,0 24.56504,-4.57843 24.56504,-3.75z" fill="#000000" stroke="none" stroke-width="0"/><g stroke-width="0"><path d="M224.50001,185.00003c0.53405,-21.33873 45.05292,-18.25777 51.61252,-23.78877c6.15598,-5.19066 6.01963,-44.84265 15.31297,-48.0863c11.93558,-4.16586 36.57552,-0.09027 51.33903,8.77338c9.4082,5.64845 13.05438,17.10169 19.23547,17.10169c2.67388,0 -20.67053,-4.40376 -23.93745,-1.2201c-2.37788,2.31727 -3.24382,5.55121 -4.5665,7.83032c-1.55731,2.6834 9.13846,10.7363 9.13846,10.7363c0,0 -23.9589,6.40508 -11.54573,10.06157c6.79469,2.00148 16.72755,10.62411 29.87561,12.73976c52.71409,8.4822 142.03562,10.35216 142.03562,10.35216c0,0 -86.33199,-1.70207 -134.17518,14.85395c-20.60745,7.13116 -23.48602,29.86677 -26.73874,37.40454c-1.90176,4.40708 110.28137,22.20819 110.28137,22.20819c0,0 -119.18082,1.7597 -120.69079,6.89341c-7.36502,25.03998 -9.67665,45.13992 -9.67665,45.13992c0,0 -7.57038,-36.44087 -24.4189,-72.76911c-6.49077,-13.99519 -15.66861,-27.51089 -22.54597,-38.97126c-5.50439,-9.17245 -51.06918,2.0791 -50.53513,-19.25962z" fill="url(#color-1)" stroke="none"/><path d="M270.80683,344.34683c-1.58306,-0.30081 45.414,6.7248 46.99345,-15.55812c0.51599,-7.27954 1.13702,-14.08278 1.79459,-19.93353c1.35528,-12.0586 0.53242,-20.40449 1.59832,-20.20195c1.58306,0.30081 1.586,18.60854 0.00655,40.89146c-1.57945,22.28292 -48.80984,15.10295 -50.39291,14.80214z" fill="#342448" stroke="#000000"/><path d="M322.84935,329.54465c-1.57945,-22.28292 -1.57651,-40.59065 0.00655,-40.89146c1.05433,-0.20034 0.21031,8.30373 1.55414,20.1441c0.67392,5.93782 2.31124,12.21567 2.83877,19.65804c1.57945,22.28292 35.90985,17.59065 34.32679,17.89146c-1.58306,0.30081 -37.14679,5.48078 -38.72625,-16.80214z" data-paper-data="{&quot;index&quot;:null}" fill="#342448" stroke="#000000"/></g><path d="M325.17886,127.06163c0,0 -6.93959,5.83333 -15.5,5.83333c-8.56041,0 -15.5,-5.83333 -15.5,-5.83333c0,0 6.93959,-5.83334 15.5,-5.83334c8.56041,0 15.5,5.83334 15.5,5.83334z" fill="#000000" stroke="none" stroke-width="0"/><path d="M318.75611,127.06163c0,2.8826 -4.06402,5.21941 -9.07723,5.21941c-5.01322,0 -9.07723,-2.33681 -9.07723,-5.21941c0,-2.8826 4.06402,-5.21941 9.07723,-5.21941c5.01322,0 9.07723,2.33681 9.07723,5.21941z" fill="url(#color-2)" stroke="none" stroke-width="0"/><path d="M311.01221,127.39496c0,0.64433 -0.44772,1.16667 -1,1.16667c-0.55228,0 -1,-0.52233 -1,-1.16667c0,-0.64433 0.44772,-1.16667 1,-1.16667c0.55228,0 1,0.52233 1,1.16667z" fill="#780cff" stroke="none" stroke-width="0"/><path d="M165.23946,180c0,-85.47189 69.28865,-154.76054 154.76054,-154.76054c85.47189,0 154.76054,69.28865 154.76054,154.76054c0,85.47189 -69.28865,154.76054 -154.76054,154.76054c-85.47189,0 -154.76054,-69.28865 -154.76054,-154.76054z" fill="url(#color-3)" stroke="none" stroke-width="none"/></g></g></svg>