<svg version="1.1" xmlns="http://www.w3.org/2000/svg" xmlns:xlink="http://www.w3.org/1999/xlink" width="143.50771" height="143.5077" viewBox="0,0,143.50771,143.5077"><defs><radialGradient cx="320.00001" cy="180" r="71.75385" gradientUnits="userSpaceOnUse" id="color-1"><stop offset="0" stop-color="#ffffff"/><stop offset="1" stop-color="#ffffff" stop-opacity="0"/></radialGradient></defs><g transform="translate(-248.24614,-108.24615)"><g data-paper-data="{&quot;isPaintingLayer&quot;:true}" fill-rule="nonzero" stroke-linejoin="miter" stroke-miterlimit="10" stroke-dasharray="" stroke-dashoffset="0" style="mix-blend-mode: normal"><path d="M330.1169,213.16667v21.33333" fill="none" stroke="#212121" stroke-width="8.5" stroke-linecap="round"/><path d="M357.11691,234.5v-21.33333" fill="none" stroke="#212121" stroke-width="8.5" stroke-linecap="round"/><path d="M265.50001,180c0,-30.09952 24.40048,-54.5 54.5,-54.5c30.09952,0 54.5,24.40048 54.5,54.5c0,30.09952 -24.40048,54.5 -54.5,54.5c-30.09952,0 -54.5,-24.40048 -54.5,-54.5z" fill="#373737" stroke="none" stroke-width="0" stroke-linecap="butt"/><path d="M301.11691,213.16667v21.33333" fill="none" stroke="#212121" stroke-width="8.5" stroke-linecap="round"/><path d="M248.24614,180c0,-39.62856 32.12529,-71.75385 71.75386,-71.75385c39.62856,0 71.75385,32.12529 71.75385,71.75385c0,39.62856 -32.12529,71.75385 -71.75385,71.75385c-39.62856,0 -71.75386,-32.12529 -71.75386,-71.75385z" fill="url(#color-1)" stroke="none" stroke-width="0" stroke-linecap="butt"/></g></g></svg>