<svg version="1.1" xmlns="http://www.w3.org/2000/svg" xmlns:xlink="http://www.w3.org/1999/xlink" width="16.75" height="16.75" viewBox="0,0,16.75,16.75"><g transform="translate(-311.625,-171.62501)"><g data-paper-data="{&quot;isPaintingLayer&quot;:true}" fill-rule="nonzero" stroke="#6e6e6e" stroke-linecap="butt" stroke-linejoin="miter" stroke-miterlimit="10" stroke-dasharray="" stroke-dashoffset="0" style="mix-blend-mode: normal"><path d="M312.125,184.34162c0,-3.27844 0,-7.89601 0,-9.57143c0,-1.21678 1.38078,-2.64518 2.48003,-2.64518c1.66091,0 6.50556,0 9.85714,0c1.96233,0 3.41283,0.89084 3.41283,2.21661c0,3.15745 0,8.78179 0,10.71429c0,1.28119 -1.456,2.8191 -3.41283,2.8191c-3.19217,0 -7.71715,0 -9.42857,0c-1.3138,0 -2.9086,-2.49755 -2.9086,-3.53339z" fill="#ffffff" stroke-width="1"/><path d="M318,185.41472c0,-2.84943 0,-9.51136 0,-11c0,-0.57765 0.48643,-1.129 0.86425,-1.129c0.45987,0 1.6124,0 2.38462,0c0.43626,0 0.75114,0.3851 0.75114,0.8213c0,1.33185 0,8.24449 0,11.23077c0,0.84569 -0.27635,1.3765 -0.67422,1.3765c-0.84286,0 -2.23103,0 -2.69231,0c-0.29455,0 -0.63348,-0.4995 -0.63348,-1.29957z" fill="#ff0000" stroke-width="0"/><path d="M325.47963,182c-1.51999,0 -8.00138,0 -10.84615,0c-0.82787,0 -1.34776,-0.42021 -1.34776,-0.9699c0,-0.8366 0,-1.97311 0,-2.38462c0,-0.29911 0.33145,-0.64549 0.88622,-0.64549c2.51027,0 9.59296,0 11.23077,0c0.65793,0 1.31158,0.44401 1.31158,0.79933c0,0.35204 0,0.98628 0,1.69231c0,0.71992 -0.61024,1.50836 -1.23466,1.50836z" fill="#ff0000" stroke-width="0"/></g></g></svg>