<svg version="1.1" xmlns="http://www.w3.org/2000/svg" xmlns:xlink="http://www.w3.org/1999/xlink" width="29.31877" height="29.48421" viewBox="0,0,29.31877,29.48421"><defs><radialGradient cx="236.66253" cy="178.8125" r="1.1875" gradientUnits="userSpaceOnUse" id="color-1"><stop offset="0" stop-color="#ffffff"/><stop offset="1" stop-color="#ffffff" stop-opacity="0"/></radialGradient><radialGradient cx="243.16253" cy="178.8125" r="1.1875" gradientUnits="userSpaceOnUse" id="color-2"><stop offset="0" stop-color="#ffffff"/><stop offset="1" stop-color="#ffffff" stop-opacity="0"/></radialGradient><radialGradient cx="240" cy="180.00001" r="14.62794" gradientUnits="userSpaceOnUse" id="color-3"><stop offset="0" stop-color="#81e8fc" stop-opacity="0.48235"/><stop offset="1" stop-color="#81e8fc" stop-opacity="0"/></radialGradient></defs><g transform="translate(-225.30917,-165.14374)"><g data-paper-data="{&quot;isPaintingLayer&quot;:true}" fill-rule="nonzero" stroke="none" stroke-width="0" stroke-linecap="butt" stroke-linejoin="miter" stroke-miterlimit="10" stroke-dasharray="" stroke-dashoffset="0" style="mix-blend-mode: normal"><path d="M233.4409,178.8125v2.375l-8.13173,-1.1875z" fill="#80e7fc"/><path d="M246.30916,181.1875v-2.375l8.13173,1.1875z" fill="#80e7fc"/><path d="M238.81253,186.39374h2.375l-1.1875,8.13173z" fill="#80e7fc"/><path d="M241.1875,173.27547h-2.375l1.1875,-8.13173z" fill="#80e7fc"/><path d="M233.12503,180c0,-3.79696 3.07804,-6.875 6.875,-6.875c3.79696,0 6.875,3.07804 6.875,6.875c0,3.79696 -3.07804,6.875 -6.875,6.875c-3.79696,0 -6.875,-3.07804 -6.875,-6.875z" fill="#4d4d4d"/><path d="M235.47503,178.8125c0,-0.65584 0.53166,-1.1875 1.1875,-1.1875c0.65584,0 1.1875,0.53166 1.1875,1.1875c0,0.65584 -0.53166,1.1875 -1.1875,1.1875c-0.65584,0 -1.1875,-0.53166 -1.1875,-1.1875z" fill="url(#color-1)"/><path d="M241.97503,178.8125c0,-0.65584 0.53166,-1.1875 1.1875,-1.1875c0.65584,0 1.1875,0.53166 1.1875,1.1875c0,0.65584 -0.53166,1.1875 -1.1875,1.1875c-0.65584,0 -1.1875,-0.53166 -1.1875,-1.1875z" fill="url(#color-2)"/><path d="M240,165.37206c8.07879,0 14.62794,6.54915 14.62794,14.62795c0,8.0788 -6.54914,14.62794 -14.62794,14.62794c-8.07879,0 -14.62795,-6.54914 -14.62795,-14.62794c0,-8.07879 6.54915,-14.62795 14.62795,-14.62795z" fill="url(#color-3)"/></g></g></svg>