<svg version="1.1" xmlns="http://www.w3.org/2000/svg" xmlns:xlink="http://www.w3.org/1999/xlink" width="16.75" height="16.75" viewBox="0,0,16.75,16.75"><defs><radialGradient cx="236.30001" cy="180.00001" r="3.78571" gradientUnits="userSpaceOnUse" id="color-1"><stop offset="0" stop-color="#2d7002" stop-opacity="0.46175"/><stop offset="1" stop-color="#2d7002" stop-opacity="0"/></radialGradient><radialGradient cx="243.5" cy="180.00001" r="3.78571" gradientUnits="userSpaceOnUse" id="color-2"><stop offset="0" stop-color="#2d7002" stop-opacity="0.46175"/><stop offset="1" stop-color="#2d7002" stop-opacity="0"/></radialGradient></defs><g transform="translate(-231.625,-171.62501)"><g data-paper-data="{&quot;isPaintingLayer&quot;:true}" fill-rule="nonzero" stroke-linejoin="miter" stroke-miterlimit="10" stroke-dasharray="" stroke-dashoffset="0" style="mix-blend-mode: normal"><path d="M232.125,184.34162c0,-3.27844 0,-7.89601 0,-9.57143c0,-1.21678 1.38078,-2.64518 2.48003,-2.64518c1.66091,0 6.50556,0 9.85714,0c1.96233,0 3.41283,0.89084 3.41283,2.21661c0,3.15745 0,8.78179 0,10.71429c0,1.28119 -1.456,2.8191 -3.41283,2.8191c-3.19217,0 -7.71715,0 -9.42857,0c-1.3138,0 -2.9086,-2.49755 -2.9086,-3.53339z" fill="#494949" stroke="#6e6e6e" stroke-width="1" stroke-linecap="butt"/><g><path d="M235.87712,178.7026l0.84577,2.59484" fill="none" stroke="#ffffff" stroke-width="2.5" stroke-linecap="round"/><path d="M232.70066,181.1732c-0.64793,-1.98786 0.4383,-4.1246 2.42617,-4.77253c1.98786,-0.64793 4.12459,0.4383 4.77252,2.42617c0.64793,1.98786 -0.4383,4.12459 -2.42616,4.77252c-1.98786,0.64793 -4.1246,-0.4383 -4.77253,-2.42616z" fill="url(#color-1)" stroke="none" stroke-width="0" stroke-linecap="butt"/></g><g data-paper-data="{&quot;index&quot;:null}"><path d="M243.9229,178.70259l-0.84577,2.59484" fill="none" stroke="#ffffff" stroke-width="2.5" stroke-linecap="round"/><path d="M242.32682,183.59935c-1.98786,-0.64793 -3.07409,-2.78466 -2.42616,-4.77252c0.64793,-1.98787 2.78466,-3.0741 4.77252,-2.42617c1.98787,0.64793 3.0741,2.78467 2.42617,4.77253c-0.64793,1.98786 -2.78467,3.07409 -4.77253,2.42616z" fill="url(#color-2)" stroke="none" stroke-width="0" stroke-linecap="butt"/></g></g></g></svg>