<svg version="1.1" xmlns="http://www.w3.org/2000/svg" xmlns:xlink="http://www.w3.org/1999/xlink" width="164.47079" height="164.47079" viewBox="0,0,164.47079,164.47079"><defs><radialGradient cx="320" cy="180" r="54.5" gradientUnits="userSpaceOnUse" id="color-1"><stop offset="0" stop-color="#373737"/><stop offset="1" stop-color="#5f0c0c"/></radialGradient><radialGradient cx="320.00001" cy="180" r="82.2354" gradientUnits="userSpaceOnUse" id="color-2"><stop offset="0" stop-color="#da0000"/><stop offset="1" stop-color="#da0000" stop-opacity="0"/></radialGradient></defs><g transform="translate(-237.7646,-97.7646)"><g data-paper-data="{&quot;isPaintingLayer&quot;:true}" fill-rule="nonzero" stroke-linejoin="miter" stroke-miterlimit="10" stroke-dasharray="" stroke-dashoffset="0" style="mix-blend-mode: normal"><path d="M330.1169,234.5v-21.33333" fill="none" stroke="#200303" stroke-width="8.5" stroke-linecap="round"/><path d="M357.1169,234.5v-21.33333" fill="none" stroke="#200303" stroke-width="8.5" stroke-linecap="round"/><path d="M265.5,180c0,-30.09952 24.40048,-54.5 54.5,-54.5c30.09952,0 54.5,24.40048 54.5,54.5c0,30.09952 -24.40048,54.5 -54.5,54.5c-30.09952,0 -54.5,-24.40048 -54.5,-54.5z" fill="url(#color-1)" stroke="none" stroke-width="0" stroke-linecap="butt"/><path d="M301.11691,213.16667v21.33333" fill="none" stroke="#200303" stroke-width="8.5" stroke-linecap="round"/><path d="M237.7646,180c0,-45.41735 36.81804,-82.2354 82.2354,-82.2354c45.41735,0 82.2354,36.81804 82.2354,82.2354c0,45.41735 -36.81804,82.2354 -82.2354,82.2354c-45.41735,0 -82.2354,-36.81804 -82.2354,-82.2354z" fill="url(#color-2)" stroke="none" stroke-width="0" stroke-linecap="butt"/></g></g></svg>