<svg version="1.1" xmlns="http://www.w3.org/2000/svg" xmlns:xlink="http://www.w3.org/1999/xlink" width="350.478" height="321.83691" viewBox="0,0,350.478,321.83691"><defs><linearGradient x1="363.74772" y1="83.38702" x2="363.74772" y2="312.29373" gradientUnits="userSpaceOnUse" id="color-1"><stop offset="0" stop-color="#534278"/><stop offset="1" stop-color="#342448"/></linearGradient><linearGradient x1="309.67886" y1="94.97956" x2="309.67886" y2="106.66337" gradientUnits="userSpaceOnUse" id="color-2"><stop offset="0" stop-color="#493561"/><stop offset="1" stop-color="#0d021a"/></linearGradient><radialGradient cx="320" cy="180" r="154.76054" gradientUnits="userSpaceOnUse" id="color-3"><stop offset="0" stop-color="#483766" stop-opacity="0.2902"/><stop offset="1" stop-color="#483766" stop-opacity="0"/></radialGradient></defs><g transform="translate(-165.23946,-25.23946)"><g data-paper-data="{&quot;isPaintingLayer&quot;:true}" fill-rule="nonzero" stroke-linecap="butt" stroke-linejoin="miter" stroke-miterlimit="10" stroke-dasharray="" stroke-dashoffset="0" style="mix-blend-mode: normal"><path d="M206.00002,189.1745l2,-55.96327c0,0 11.85218,11.19266 20.2352,11.19266c12.1714,0 44.7648,0 44.7648,0v35.81649c0,0 -36.64363,0 -48.7648,0c-7.20609,0 -18.2352,8.95413 -18.2352,8.95413z" fill="#2e1267" stroke="none" stroke-width="0"/><path d="M418.47093,251.02705c0,0 2.27265,0.32794 4.59386,5.82259c1.69525,4.01282 7.79587,10.30192 13.33662,15.47638c5.26158,4.9137 39.06811,12.62767 39.06811,12.62767c0,0 -35.97735,-7.26989 -43.23803,-11.47897c-6.39135,-3.7051 -13.04089,-7.98712 -15.45058,-10.99065c-3.75624,-4.68192 -9.74617,-12.14795 -9.74617,-12.14795l5.10285,1.06401z" data-paper-data="{&quot;index&quot;:null}" fill="#2e1267" stroke="none" stroke-width="0"/><path d="M370.85916,247.43355c0,0 3.60598,8.53588 5.92719,14.03054c1.69525,4.01282 7.79587,10.30192 13.33662,15.47638c5.26158,4.9137 39.06811,12.62767 39.06811,12.62767c0,0 -35.97735,-7.26989 -43.23803,-11.47897c-6.39135,-3.7051 -13.04089,-7.98712 -15.45058,-10.99065c-3.75624,-4.68192 -9.74617,-12.14795 -9.74617,-12.14795l10.10285,-7.51702z" data-paper-data="{&quot;index&quot;:null}" fill="#2e1267" stroke="none" stroke-width="0"/><path d="M343.70586,251.72771c0,0 2.28898,9.08776 3.76242,14.93765c1.07612,4.27229 6.15854,11.6083 10.85431,17.74109c4.45918,5.82374 36.65107,19.7163 36.65107,19.7163c0,0 -34.39846,-13.85829 -40.93354,-19.35889c-5.75264,-4.84198 -11.67424,-10.30091 -13.60467,-13.71073c-3.00916,-5.31528 -7.80775,-13.7913 -7.80775,-13.7913l11.07816,-5.53413z" data-paper-data="{&quot;index&quot;:null}" fill="#2e1267" stroke="none" stroke-width="0"/><path d="M376.35155,255.63411l-8.7367,-9.42067c0,0 7.08773,-6.14462 11.5324,-9.99787c2.85133,-2.47193 10.07853,-5.35181 16.95941,-7.71581c7.81678,-2.68558 44.37571,-2.62611 44.37571,-2.62611c0,0 -34.49425,0.81257 -40.45701,4.59212c-6.27914,3.98013 -13.28744,8.94463 -15.59739,12.55278c-3.16289,4.9405 -8.07641,12.61555 -8.07641,12.61555z" fill="#2e1267" stroke="none" stroke-width="0"/><path d="M396.45273,255.27396l-5.17958,-10.96903c0,0 7.71947,-3.06791 12.56031,-4.99178c3.10548,-1.2342 10.11308,-1.4239 16.68847,-1.27653c7.46976,0.16736 39.186,11.90366 39.186,11.90366c0,0 -30.14668,-10.31951 -36.28634,-8.94481c-6.46544,1.44769 -13.81489,3.51669 -16.74035,5.91012c-4.00569,3.27723 -10.22851,8.3684 -10.22851,8.3684z" fill="#2e1267" stroke="none" stroke-width="0"/><path d="M353.69221,251.15703l-8.73671,-9.42067c0,0 7.08773,-6.14462 11.5324,-9.99787c2.85133,-2.47193 10.07853,-5.35181 16.95941,-7.71581c7.81678,-2.68558 44.37571,-2.62611 44.37571,-2.62611c0,0 -34.49426,0.81257 -40.45702,4.59212c-6.27914,3.98013 -13.28744,8.94463 -15.59739,12.55278c-3.16289,4.9405 -8.0764,12.61555 -8.0764,12.61555z" fill="#2e1267" stroke="none" stroke-width="0"/><path d="M320.3327,299.81142l0.92216,9.04233c0,0 -6.00606,-0.21085 -9.77242,-0.34307c-2.41618,-0.08482 -7.24926,-2.04943 -11.70664,-4.11515c-5.06366,-2.34667 -23.93351,-19.84365 -23.93351,-19.84365c0,0 18.13546,16.0599 22.65821,16.95551c4.76274,0.94308 10.27772,1.72584 12.84744,0.96483c3.51861,-1.04202 8.98475,-2.66079 8.98475,-2.66079z" fill="#2e1267" stroke="none" stroke-width="0"/><path d="M319.8327,287.66048l0.92216,9.04232c0,0 -6.00606,-0.21085 -9.77242,-0.34307c-2.41618,-0.08482 -7.24926,-2.04943 -11.70664,-4.11515c-5.06366,-2.34667 -23.93351,-19.84365 -23.93351,-19.84365c0,0 18.13546,16.0599 22.65821,16.95551c4.76274,0.94308 10.27772,1.72584 12.84744,0.96483c3.51861,-1.04202 8.98475,-2.66079 8.98475,-2.66079z" fill="#2e1267" stroke="none" stroke-width="0"/><path d="M319.8327,287.66048l0.92216,9.04232c0,0 -6.00606,-0.21085 -9.77242,-0.34307c-2.41618,-0.08482 -7.24926,-2.04943 -11.70664,-4.11515c-5.06366,-2.34667 -23.93351,-19.84365 -23.93351,-19.84365c0,0 18.13546,16.0599 22.65821,16.95551c4.76274,0.94308 10.27772,1.72584 12.84744,0.96483c3.51861,-1.04202 8.98475,-2.66079 8.98475,-2.66079z" fill="#2e1267" stroke="none" stroke-width="0"/><path d="M458.71885,170.43995c0,0 2.27265,0.32794 4.59386,5.82259c1.69525,4.01282 7.79588,10.30193 13.33663,15.47639c5.26158,4.9137 39.06811,12.62767 39.06811,12.62767c0,0 -35.97735,-7.26988 -43.23803,-11.47896c-6.39135,-3.7051 -13.04089,-7.98712 -15.45058,-10.99065c-3.75624,-4.68192 -9.74617,-12.14796 -9.74617,-12.14796l5.10286,1.06401z" data-paper-data="{&quot;index&quot;:null}" fill="#2e1267" stroke="none" stroke-width="0"/><path d="M411.10706,166.84642c0,0 3.60598,8.53589 5.92719,14.03054c1.69525,4.01282 7.79587,10.30192 13.33662,15.47638c5.26158,4.9137 39.06811,12.62767 39.06811,12.62767c0,0 -35.97735,-7.26989 -43.23803,-11.47897c-6.39135,-3.7051 -13.04089,-7.98712 -15.45058,-10.99065c-3.75624,-4.68192 -9.74617,-12.14796 -9.74617,-12.14796l10.10285,-7.51702z" data-paper-data="{&quot;index&quot;:null}" fill="#2e1267" stroke="none" stroke-width="0"/><path d="M383.95382,171.1406c0,0 2.28898,9.08776 3.76243,14.93765c1.07612,4.27229 6.15854,11.6083 10.85431,17.74109c4.45918,5.82374 36.65107,19.7163 36.65107,19.7163c0,0 -34.39846,-13.85828 -40.93355,-19.35889c-5.75264,-4.84198 -11.67424,-10.30091 -13.60467,-13.71073c-3.00916,-5.31528 -7.80775,-13.79129 -7.80775,-13.79129z" data-paper-data="{&quot;index&quot;:null}" fill="#2e1267" stroke="none" stroke-width="0"/><path d="M450.88548,170.88098l-5.10286,1.06401c0,0 5.98993,-7.46604 9.74617,-12.14795c2.40969,-3.00351 9.05923,-7.28556 15.45058,-10.99065c7.26068,-4.20907 43.23803,-11.47897 43.23803,-11.47897c0,0 -33.80653,7.71395 -39.06811,12.62767c-5.54075,5.17446 -11.64137,11.46355 -13.33663,15.47639c-2.32121,5.49463 -4.59386,5.82259 -4.59386,5.82259z" fill="#2e1267" stroke="none" stroke-width="0"/><path d="M409.60705,174.84758l-10.10285,-7.51702c0,0 5.98993,-7.46604 9.74617,-12.14796c2.40969,-3.00351 9.05923,-7.28556 15.45058,-10.99065c7.26068,-4.20907 43.23803,-11.47896 43.23803,-11.47896c0,0 -33.80653,7.71395 -39.06811,12.62767c-5.54075,5.17446 -11.64137,11.46355 -13.33662,15.47639c-2.32121,5.49463 -5.92719,14.03054 -5.92719,14.03054z" fill="#2e1267" stroke="none" stroke-width="0"/><path d="M382.45378,170.55341l-11.07816,-5.53413c0,0 4.79859,-8.47602 7.80775,-13.7913c1.93043,-3.40982 7.85203,-8.86874 13.60467,-13.71073c6.53508,-5.50059 40.93355,-19.35889 40.93355,-19.35889c0,0 -32.19189,13.89255 -36.65107,19.7163c-4.69577,6.13279 -9.77819,13.46879 -10.85431,17.74109c-1.47345,5.84989 -3.76243,14.93765 -3.76243,14.93765z" fill="#2e1267" stroke="none" stroke-width="0"/><path d="M313.6645,88.50353l-12.11589,0.68824c0,0 0.84417,-9.98983 1.37354,-16.2544c0.33961,-4.01883 3.40677,-11.88918 6.57321,-19.12394c3.59711,-8.21879 11.78603,-15.87095 11.78603,-15.87095c0,0 -6.20824,6.56309 -7.82413,14.01663c-1.7016,7.84904 -3.26051,16.96676 -2.4893,21.32084c1.05601,5.96188 2.69653,15.2236 2.69653,15.2236z" fill="#413658" stroke="none" stroke-width="0"/><path d="M303.7981,87.94389l-12.11589,0.68824c0,0 0.84417,-9.98983 1.37354,-16.2544c0.3396,-4.01883 3.40677,-11.88919 6.57321,-19.12394c3.59711,-8.21879 11.78604,-15.87095 11.78604,-15.87095c0,0 -6.20824,6.56309 -7.82413,14.01663c-1.7016,7.84904 -3.2605,16.96675 -2.4893,21.32083c1.05601,5.96188 2.69653,15.2236 2.69653,15.2236z" fill="#413658" stroke="none" stroke-width="0"/><path d="M330.51223,119.73523c0,-4.97893 9.75542,-8.60781 17.06984,-10.08658c2.37212,-0.47958 11.15418,3.74408 12.59683,3.74408c5.89103,0 -16.66666,1.61433 -16.66666,8.20793c0,6.59363 -1.33334,12.31192 -1.33334,12.31192c0,0 -11.66666,-7.58374 -11.66666,-14.17737z" fill="#16032e" stroke="none" stroke-width="0"/><path d="M367.24772,119.84747c0,0.60384 -14.66099,3.549 -18.44995,5.33479c-2.02932,0.95645 -4.45393,1.66061 -7.11509,1.66061c-2.63787,0 -5.85306,-1.20912 -7.94967,-1.36501c-3.96767,-0.29502 -6.36536,-4.74394 -6.36536,-5.35059c0,-0.60826 2.16174,2.77644 6.14693,2.48192c0.95731,-0.07074 2.41069,0.22457 3.95706,0.56541c1.8293,0.40319 3.78874,0.87012 5.21105,0.87012c7.62984,0 24.56504,-5.12448 24.56504,-4.19725z" fill="#000000" stroke="none" stroke-width="0"/><g stroke-width="0"><path d="M224.50003,165.66993c0.53405,-23.88369 45.05292,-20.4353 51.61252,-26.62595c6.15598,-5.80974 6.01963,-50.19083 15.31297,-53.82133c11.93558,-4.66271 36.57552,-0.10103 51.33903,9.81975c9.4082,6.32211 13.05438,19.14132 19.23547,19.14132c2.67388,0 -20.67053,-4.92898 -23.93745,-1.36563c-2.37788,2.59364 -3.24382,6.21329 -4.5665,8.76422c-1.55731,3.00344 9.13846,12.01676 9.13846,12.01676c0,0 -23.9589,7.16899 -11.54573,11.26158c6.79469,2.24019 16.72755,11.89121 29.87561,14.25918c52.71409,9.49384 142.03562,11.58682 142.03562,11.58682c0,0 -86.33199,-1.90506 -134.17518,16.62552c-20.60745,7.98167 -23.48602,33.42885 -26.73874,41.86561c-1.90176,4.9327 110.28137,24.85687 110.28137,24.85687c0,0 -119.18082,1.96958 -120.69079,7.71556c-7.36502,28.02638 -9.67665,50.52354 -9.67665,50.52354c0,0 -7.57038,-40.78701 -24.4189,-81.44795c-6.49077,-15.66433 -15.66861,-30.79198 -22.54597,-43.61918c-5.50439,-10.2664 -51.06918,2.32706 -50.53513,-21.55662z" fill="url(#color-1)" stroke="none"/><path d="M270.80683,344.02132c-1.58306,-0.33668 45.414,7.52683 46.99345,-17.41367c0.51599,-8.14773 1.13702,-15.76238 1.79459,-22.31091c1.35528,-13.49678 0.53242,-22.83804 1.59832,-22.61134c1.58306,0.33668 1.586,20.82789 0.00655,45.7684c-1.57945,24.94051 -48.80984,16.90422 -50.39291,16.56754z" fill="#342448" stroke="#000000"/><path d="M322.84936,327.45375c-1.57945,-24.94051 -1.57651,-45.43171 0.00655,-45.7684c1.05433,-0.22423 0.21031,9.29408 1.55414,22.5466c0.67392,6.646 2.31124,13.67258 2.83877,22.00256c1.57945,24.94051 35.90985,19.6886 34.32679,20.0253c-1.58306,0.33668 -37.14679,6.13445 -38.72625,-18.80606z" data-paper-data="{&quot;index&quot;:null}" fill="#342448" stroke="#000000"/></g><path d="M325.17886,100.82148c0,0 -6.93959,6.52904 -15.5,6.52904c-8.56041,0 -15.5,-6.52904 -15.5,-6.52904c0,0 6.93959,-6.52905 15.5,-6.52905c8.56041,0 15.5,6.52905 15.5,6.52905z" fill="#000000" stroke="none" stroke-width="0"/><path d="M318.75613,100.82148c0,3.2264 -4.06402,5.84189 -9.07723,5.84189c-5.01322,0 -9.07723,-2.6155 -9.07723,-5.84189c0,-3.2264 4.06402,-5.84189 9.07723,-5.84189c5.01322,0 9.07723,2.6155 9.07723,5.84189z" fill="url(#color-2)" stroke="none" stroke-width="0"/><path d="M311.01223,101.19455c0,0.72118 -0.44772,1.30581 -1,1.30581c-0.55228,0 -1,-0.58463 -1,-1.30581c0,-0.72118 0.44772,-1.30581 1,-1.30581c0.55228,0 1,0.58463 1,1.30581z" fill="#780cff" stroke="none" stroke-width="0"/><path d="M165.23946,180c0,-85.47188 69.28866,-154.76054 154.76054,-154.76054c85.47188,0 154.76054,69.28866 154.76054,154.76054c0,85.47188 -69.28866,154.76054 -154.76054,154.76054c-85.47188,0 -154.76054,-69.28866 -154.76054,-154.76054z" fill="url(#color-3)" stroke="none" stroke-width="none"/></g></g></svg>