<svg version="1.1" xmlns="http://www.w3.org/2000/svg" xmlns:xlink="http://www.w3.org/1999/xlink" width="385.74085" height="302.63157" viewBox="0,0,385.74085,302.63157"><defs><radialGradient cx="283.09567" cy="119.927" r="151.31579" gradientUnits="userSpaceOnUse" id="color-1"><stop offset="0" stop-color="#b01e1e" stop-opacity="0.63137"/><stop offset="1" stop-color="#b01e1e" stop-opacity="0"/></radialGradient><radialGradient cx="416.80021" cy="115.65825" r="100.72053" gradientUnits="userSpaceOnUse" id="color-2"><stop offset="0" stop-color="#ffffec"/><stop offset="1" stop-color="#ffffec" stop-opacity="0"/></radialGradient><linearGradient x1="263.55339" y1="113.76722" x2="263.55339" y2="122.82267" gradientUnits="userSpaceOnUse" id="color-3"><stop offset="0" stop-color="#730d0d"/><stop offset="1" stop-color="#c42323"/></linearGradient><linearGradient x1="293.53287" y1="106.6028" x2="293.53287" y2="115.65824" gradientUnits="userSpaceOnUse" id="color-4"><stop offset="0" stop-color="#301f1f"/><stop offset="1" stop-color="#730d0d"/></linearGradient><linearGradient x1="242.00006" y1="125.09886" x2="259.55569" y2="125.09886" gradientUnits="userSpaceOnUse" id="color-5"><stop offset="0" stop-color="#660a0a"/><stop offset="1" stop-color="#c42323"/></linearGradient><linearGradient x1="242.00006" y1="144.1227" x2="259.55569" y2="144.1227" gradientUnits="userSpaceOnUse" id="color-6"><stop offset="0" stop-color="#660a0a"/><stop offset="1" stop-color="#c42323"/></linearGradient><linearGradient x1="250.77789" y1="107.35253" x2="250.77789" y2="113.99935" gradientUnits="userSpaceOnUse" id="color-7"><stop offset="0" stop-color="#301f1f"/><stop offset="1" stop-color="#c42323"/></linearGradient></defs><g transform="translate(-131.77988,31.38879)"><g data-paper-data="{&quot;isPaintingLayer&quot;:true}" fill-rule="nonzero" stroke-linecap="butt" stroke-linejoin="miter" stroke-miterlimit="10" stroke-dasharray="" stroke-dashoffset="0" style="mix-blend-mode: normal"><path d="M131.77988,119.927c0,-83.5694 67.74639,-151.31578 151.31579,-151.31578c83.5694,0 151.31579,67.74639 151.31579,151.31579c0,83.5694 -67.74638,151.31579 -151.31578,151.31579c-83.5694,0 -151.31578,-67.74639 -151.31578,-151.31578z" fill="url(#color-1)" stroke="none" stroke-width="0"/><path d="M316.07968,115.65825c0,-55.62641 45.09412,-100.72053 100.72053,-100.72053c55.62641,0 100.72053,45.09412 100.72053,100.72053c0,55.62641 -45.09412,100.72053 -100.72053,100.72053c-55.62641,0 -100.72053,-45.09412 -100.72053,-100.72053z" fill="url(#color-2)" stroke="none" stroke-width="0"/><path d="M258.9287,122.82267v-9.05545h9.24941c0,0 0,2.23526 0,3.54723c0,1.63489 -1.03635,4.12493 -1.03635,4.12493c0,0 -2.53194,1.38329 -4.15611,1.38329c-1.43565,0 -4.05695,0 -4.05695,0z" fill="url(#color-3)" stroke="#000000" stroke-width="1"/><path d="M258.80247,106.6028h69.46082c0,0 0,4.28325 0,5.94686c0,1.20278 -1.29544,2.14785 -1.29544,2.14785c0,0 -0.83943,0.96074 -3.22302,0.96074c-9.03647,0 -64.94235,0 -64.94235,0z" fill="url(#color-4)" stroke="#000000" stroke-width="1"/><path d="M242.00006,107.60817c0,0 0,-7.07425 0,-9.75952c0,-1.88706 3.12559,-3.51998 3.12559,-3.51998c0,0 3.646,-4.76598 10.21665,-4.76598c8.99125,0 2.43658,-0.06812 33.69147,-0.12796c24.48432,-0.04688 36.9828,3.67069 48.23041,4.24402c4.83582,0.24651 20.29112,0.72462 31.92985,1.13656c7.81697,0.27669 10.43943,1.6067 10.43943,1.73352c0,0.2948 3.47288,1.31502 3.47288,3.46617c0,1.70793 0,3.44593 0,4.33272c0,1.86596 -1.73645,2.39392 -1.73645,2.39392c0,0 -0.89274,0.86654 -4.12912,0.86654c-15.54027,0 -135.24068,0 -135.24068,0z" fill="#301f1f" stroke="#000000" stroke-width="1"/><path d="M242.00006,142.58956v-34.98141h17.55563c0,0 0,9.29649 0,17.51041c0,0.89333 -2.59086,5.05913 -2.59086,5.91349c0,3.39205 2.59086,3.08653 2.59086,4.8184c0,0.78156 -2.33179,2.26729 -2.33179,3.06626c0,2.28657 2.33179,3.67284 2.33179,3.67284z" fill="url(#color-5)" stroke="#000000" stroke-width="1"/><path d="M243.05804,145.05498c0,0 -1.058,-1.46268 -1.058,-2.07057c0,-0.28015 0,-0.61388 0,-0.61388h17.55563c0,0 0,0.7518 0,1.22233c0,0.6429 -0.51296,1.93505 -0.51296,1.93505c0,0 -1.19052,0.34691 -2.61238,0.34691c-1.73668,0 -6.16156,0 -9.65741,0c-2.6542,0 -3.71486,-0.81985 -3.71486,-0.81985z" fill="url(#color-6)" stroke="#000000" stroke-width="1"/><path d="M242.00006,113.99935v-6.64683h17.55563v6.64683z" fill="url(#color-7)" stroke="none" stroke-width="0"/></g></g></svg>