<svg version="1.1" xmlns="http://www.w3.org/2000/svg" xmlns:xlink="http://www.w3.org/1999/xlink" width="438.36222" height="411.41142" viewBox="0,0,438.36222,411.41142"><defs><radialGradient cx="247.11424" cy="110.80675" r="101.88576" gradientUnits="userSpaceOnUse" id="color-1"><stop offset="0" stop-color="#300275"/><stop offset="1" stop-color="#300275" stop-opacity="0"/></radialGradient><radialGradient cx="320" cy="94.66602" r="101.88576" gradientUnits="userSpaceOnUse" id="color-2"><stop offset="0" stop-color="#1a0276"/><stop offset="1" stop-color="#1a0276" stop-opacity="0"/></radialGradient><radialGradient cx="394.77075" cy="87.66602" r="101.88576" gradientUnits="userSpaceOnUse" id="color-3"><stop offset="0" stop-color="#150459"/><stop offset="1" stop-color="#150459" stop-opacity="0"/></radialGradient><radialGradient cx="421.88576" cy="169.88576" r="101.88576" gradientUnits="userSpaceOnUse" id="color-4"><stop offset="0" stop-color="#025a75"/><stop offset="1" stop-color="#025a75" stop-opacity="0"/></radialGradient><radialGradient cx="338.77075" cy="181.05132" r="101.88576" gradientUnits="userSpaceOnUse" id="color-5"><stop offset="0" stop-color="#340275"/><stop offset="1" stop-color="#340275" stop-opacity="0"/></radialGradient><radialGradient cx="265.34769" cy="199.66602" r="101.88576" gradientUnits="userSpaceOnUse" id="color-6"><stop offset="0" stop-color="#3e2f81"/><stop offset="1" stop-color="#3e2f81" stop-opacity="0"/></radialGradient><radialGradient cx="208" cy="211.29139" r="101.88576" gradientUnits="userSpaceOnUse" id="color-7"><stop offset="0" stop-color="#5658ab"/><stop offset="1" stop-color="#5658ab" stop-opacity="0"/></radialGradient><radialGradient cx="326" cy="255.66602" r="101.88576" gradientUnits="userSpaceOnUse" id="color-8"><stop offset="0" stop-color="#471f85"/><stop offset="1" stop-color="#471f85" stop-opacity="0"/></radialGradient><radialGradient cx="417" cy="256.66602" r="101.88576" gradientUnits="userSpaceOnUse" id="color-9"><stop offset="0" stop-color="#7261be"/><stop offset="1" stop-color="#7261be" stop-opacity="0"/></radialGradient><radialGradient cx="338.77075" cy="181.05132" r="205.70571" gradientUnits="userSpaceOnUse" id="color-10"><stop offset="0" stop-color="#130359" stop-opacity="0.30588"/><stop offset="1" stop-color="#130359" stop-opacity="0"/></radialGradient></defs><g transform="translate(-106.11424,24.65439)"><g data-paper-data="{&quot;isPaintingLayer&quot;:true}" fill-rule="nonzero" stroke="none" stroke-width="0" stroke-linecap="butt" stroke-linejoin="miter" stroke-miterlimit="10" stroke-dasharray="" stroke-dashoffset="0" style="mix-blend-mode: normal"><path d="M170.77075,199.66602c0,-30.92795 25.07205,-56 56,-56c30.92795,0 56,25.07205 56,56c0,30.92795 -25.07205,56 -56,56c-30.92795,0 -56,-25.07205 -56,-56z" fill="#6b7dd1"/><path d="M226.77075,180.66602c0,-30.92794 25.07206,-56 56,-56c30.92794,0 56,25.07206 56,56c0,30.92794 -25.07206,56 -56,56c-30.92795,0 -56,-25.07206 -56,-56z" fill="#46528a"/><path d="M208,124c0,-30.92794 25.07206,-56 56,-56c30.92795,0 56,25.07205 56,56c0,30.92794 -25.07205,56 -56,56c-30.92794,0 -56,-25.07206 -56,-56z" fill="#350275"/><path d="M282.77075,143.66601c0,-30.92794 25.07205,-56 56,-56c30.92795,0 56,25.07206 56,56c0,30.92794 -25.07205,56 -56,56c-30.92795,0 -56,-25.07206 -56,-56z" fill="#025a75"/><path d="M293,199.66602c0,-30.92794 25.07205,-56 56,-56c30.92795,0 56,25.07206 56,56c0,30.92794 -25.07205,56 -56,56c-30.92795,0 -56,-25.07206 -56,-56z" fill="#350275"/><path d="M270,255.66602c0,-30.92794 25.07205,-56 56,-56c30.92795,0 56,25.07206 56,56c0,30.92794 -25.07205,56 -56,56c-30.92795,0 -56,-25.07206 -56,-56z" fill="#51248a"/><path d="M369,169.66602c0,-30.92794 25.07205,-56 56,-56c30.92795,0 56,25.07206 56,56c0,30.92794 -25.07205,56 -56,56c-30.92795,0 -56,-25.07206 -56,-56z" fill="#025a75"/><path d="M338.77075,87.66602c0,-30.92794 25.07205,-56 56,-56c30.92795,0 56,25.07205 56,56c0,30.92794 -25.07205,56 -56,56c-30.92795,0 -56,-25.07206 -56,-56z" fill="#150457"/><path d="M264,94.66602c0,-30.92795 25.07205,-56 56,-56c30.92795,0 56,25.07205 56,56c0,30.92795 -25.07205,56 -56,56c-30.92795,0 -56,-25.07205 -56,-56z" fill="#1a0276"/><path d="M361,256.66602c0,-30.92795 25.07205,-56 56,-56c30.92795,0 56,25.07206 56,56c0,30.92795 -25.07205,56 -56,56c-30.92795,0 -56,-25.07205 -56,-56z" fill="#8a6bd1"/><path d="M145.22848,110.80675c0,-56.26995 45.61581,-101.88576 101.88576,-101.88576c56.26995,0 101.88576,45.61581 101.88576,101.88576c0,56.26995 -45.61581,101.88576 -101.88576,101.88576c-56.26995,0 -101.88576,-45.61581 -101.88576,-101.88576z" fill="url(#color-1)"/><path d="M218.11424,94.66602c0,-56.26995 45.61581,-101.88576 101.88576,-101.88576c56.26995,0 101.88576,45.61581 101.88576,101.88576c0,56.26995 -45.61581,101.88576 -101.88576,101.88576c-56.26995,0 -101.88576,-45.61581 -101.88576,-101.88576z" fill="url(#color-2)"/><path d="M292.88499,87.66602c0,-56.26995 45.61581,-101.88576 101.88576,-101.88576c56.26995,0 101.88576,45.61581 101.88576,101.88576c0,56.26995 -45.61581,101.88576 -101.88576,101.88576c-56.26995,0 -101.88576,-45.61581 -101.88576,-101.88576z" fill="url(#color-3)"/><path d="M320,169.88576c0,-56.26995 45.61581,-101.88576 101.88576,-101.88576c56.26995,0 101.88576,45.61581 101.88576,101.88576c0,56.26995 -45.61581,101.88576 -101.88576,101.88576c-56.26995,0 -101.88576,-45.61581 -101.88576,-101.88576z" fill="url(#color-4)"/><path d="M236.88499,181.05132c0,-56.26995 45.61581,-101.88576 101.88576,-101.88576c56.26995,0 101.88576,45.61581 101.88576,101.88576c0,56.26995 -45.61581,101.88576 -101.88576,101.88576c-56.26995,0 -101.88576,-45.61581 -101.88576,-101.88576z" fill="url(#color-5)"/><path d="M163.46193,199.66602c0,-56.26995 45.61581,-101.88576 101.88576,-101.88576c56.26995,0 101.88576,45.61581 101.88576,101.88576c0,56.26995 -45.61581,101.88576 -101.88576,101.88576c-56.26995,0 -101.88576,-45.61581 -101.88576,-101.88576z" fill="url(#color-6)"/><path d="M106.11424,211.29139c0,-56.26995 45.61581,-101.88576 101.88576,-101.88576c56.26995,0 101.88576,45.61581 101.88576,101.88576c0,56.26995 -45.61581,101.88576 -101.88576,101.88576c-56.26995,0 -101.88576,-45.61581 -101.88576,-101.88576z" fill="url(#color-7)"/><path d="M224.11424,255.66602c0,-56.26995 45.61581,-101.88576 101.88576,-101.88576c56.26995,0 101.88576,45.61581 101.88576,101.88576c0,56.26995 -45.61581,101.88576 -101.88576,101.88576c-56.26995,0 -101.88576,-45.61581 -101.88576,-101.88576z" fill="url(#color-8)"/><path d="M315.11424,256.66602c0,-56.26995 45.61581,-101.88576 101.88576,-101.88576c56.26995,0 101.88576,45.61581 101.88576,101.88576c0,56.26995 -45.61581,101.88576 -101.88576,101.88576c-56.26995,0 -101.88576,-45.61581 -101.88576,-101.88576z" fill="url(#color-9)"/><path d="M133.06505,181.05132c0,-113.60812 92.09758,-205.70571 205.70571,-205.70571c113.60812,0 205.70571,92.09759 205.70571,205.70571c0,113.60813 -92.09758,205.70571 -205.70571,205.70571c-113.60812,0 -205.70571,-92.09758 -205.70571,-205.7057z" fill="url(#color-10)"/></g></g></svg>