<svg version="1.1" xmlns="http://www.w3.org/2000/svg" xmlns:xlink="http://www.w3.org/1999/xlink" width="46.7206" height="48.51548" viewBox="0,0,46.7206,48.51548"><defs><radialGradient cx="147.13973" cy="99.46197" r="0.00125" gradientUnits="userSpaceOnUse" id="color-1"><stop offset="0" stop-color="#00ff26"/><stop offset="1" stop-color="#00ff26" stop-opacity="0.03137"/></radialGradient></defs><g transform="translate(-294.27941,-150.40846)"><g data-paper-data="{&quot;isPaintingLayer&quot;:true}" fill-rule="nonzero" stroke-linecap="butt" stroke-linejoin="miter" stroke-miterlimit="10" stroke-dasharray="" stroke-dashoffset="0" style="mix-blend-mode: normal"><path d="M300.00001,181.83334v-3.66667h40v3.66667z" fill="#16ff00" stroke="#ffffff" stroke-width="2"/><path d="M300.00001,181.83336v-3.66667h40v3.66667z" fill="#000000" stroke="none" stroke-width="0"/><path d="M300.00001,181.75003v-3.66667h40.04167v3.66667z" fill="#0e6900" stroke="none" stroke-width="0"/><path d="M294.27941,198.92393z" fill="url(#color-1)" stroke="none" stroke-width="0"/><path d="M300.03904,170.3128c0,-4.51869 0,-13.01339 0,-15.4348c0,-1.26567 2.60171,-2.61607 5.03442,-2.61607c4.74667,0 21.62775,0 30.06112,0c2.95133,0 4.86806,1.50664 4.86806,2.87767c0,2.332 0,9.82189 0,14.38837c0,2.15755 -3.14031,3.66249 -5.92904,3.66249c-4.94886,0 -21.23825,0 -29.3538,0c-2.84135,0 -4.68076,-1.14732 -4.68076,-2.87767z" fill-opacity="0.70196" fill="#000000" stroke="none" stroke-width="0"/><text transform="translate(304.63776,160.27751) scale(0.21224,0.21224)" font-size="40" xml:space="preserve" fill-opacity="0.70196" fill="#1dff00" fill-rule="nonzero" stroke="none" stroke-width="1" stroke-linecap="butt" stroke-linejoin="miter" stroke-miterlimit="10" stroke-dasharray="" stroke-dashoffset="0" font-family="&quot;MV Boli&quot;, Sans Serif" font-weight="normal" text-anchor="start" style="mix-blend-mode: normal"><tspan x="0" dy="0">Ancient</tspan><tspan x="0" dy="46.15px">Kaboom</tspan></text></g></g></svg>