<svg version="1.1" xmlns="http://www.w3.org/2000/svg" xmlns:xlink="http://www.w3.org/1999/xlink" width="16.75" height="16.75" viewBox="0,0,16.75,16.75"><g transform="translate(-231.625,-171.62501)"><g data-paper-data="{&quot;isPaintingLayer&quot;:true}" fill-rule="nonzero" stroke-width="1" stroke-linejoin="miter" stroke-miterlimit="10" stroke-dasharray="" stroke-dashoffset="0" style="mix-blend-mode: normal"><path d="M232.125,184.34162c0,-3.27844 0,-7.89601 0,-9.57143c0,-1.21678 1.38078,-2.64518 2.48003,-2.64518c1.66091,0 6.50556,0 9.85714,0c1.96233,0 3.41283,0.89084 3.41283,2.21661c0,3.15745 0,8.78179 0,10.71429c0,1.28119 -1.456,2.8191 -3.41283,2.8191c-3.19217,0 -7.71715,0 -9.42857,0c-1.3138,0 -2.9086,-2.49755 -2.9086,-3.53339z" fill="#494949" stroke="#6e6e6e" stroke-linecap="butt"/><path d="M234.15865,180c0,-3.22609 2.61526,-5.84135 5.84135,-5.84135c3.22609,0 5.84135,2.61526 5.84135,5.84135c0,3.22609 -2.61526,5.84135 -5.84135,5.84135c-3.22609,0 -5.84135,-2.61526 -5.84135,-5.84135z" fill="#ffffff" stroke="#6e6e6e" stroke-linecap="butt"/><path d="M239.86425,179.87625l-2.34615,-2.34615" fill="none" stroke="#6e6e6e" stroke-linecap="round"/><path d="M240.00167,180.03375l2.34615,-0.52903" fill="none" stroke="#6e6e6e" stroke-linecap="round"/></g></g></svg>