<svg version="1.1" xmlns="http://www.w3.org/2000/svg" xmlns:xlink="http://www.w3.org/1999/xlink" width="303.45918" height="302.63158" viewBox="0,0,303.45918,302.63158"><defs><linearGradient x1="312.23538" y1="105.23367" x2="312.23538" y2="118.4522" gradientUnits="userSpaceOnUse" id="color-1"><stop offset="0" stop-color="#302a1f"/><stop offset="1" stop-color="#734d0d"/></linearGradient><linearGradient x1="205.97639" y1="132.23299" x2="231.60294" y2="132.23299" gradientUnits="userSpaceOnUse" id="color-2"><stop offset="0" stop-color="#3b1414"/><stop offset="1" stop-color="#815454"/></linearGradient><radialGradient cx="283.09567" cy="119.92701" r="151.31579" gradientUnits="userSpaceOnUse" id="color-3"><stop offset="0" stop-color="#d15c5c" stop-opacity="0.39608"/><stop offset="1" stop-color="#d15c5c" stop-opacity="0"/></radialGradient></defs><g transform="translate(-131.77988,31.38878)"><g data-paper-data="{&quot;isPaintingLayer&quot;:true}" fill-rule="nonzero" stroke-linecap="butt" stroke-linejoin="miter" stroke-miterlimit="10" stroke-dasharray="" stroke-dashoffset="0" style="mix-blend-mode: normal"><path d="M230.68771,128.91036v-13.21855h13.50168c0,0 0,3.26288 0,5.17801c0,2.3865 -1.5128,6.0213 -1.5128,6.0213c0,0 -3.69596,2.01924 -6.06681,2.01924c-2.09567,0 -5.92207,0 -5.92207,0z" fill="#000000" stroke="#000000" stroke-width="1"/><path d="M230.50344,105.23367h163.46393c0,0 0,6.2524 0,8.68083c0,1.75574 -3.04859,3.13529 -3.04859,3.13529c0,0 -1.97545,1.40242 -7.58482,1.40242c-21.26576,0 -152.8305,0 -152.8305,0z" fill="url(#color-1)" stroke="#000000" stroke-width="1"/><path d="M205.97639,106.70124c0,0 0,-12.46735 0,-17.19976c0,-3.32567 4.56253,-11.7033 4.56253,-11.7033c0,0 5.32219,-2.89952 14.91359,-2.89952c13.12483,0 3.55676,-0.12005 49.18058,-0.22551c35.74059,-0.08262 53.98504,6.46907 70.40356,7.47948c7.05901,0.43444 29.61963,1.27704 46.60908,2.00302c11.41069,0.48763 15.23879,2.83158 15.23879,3.05508c0,0.51954 5.06948,2.31753 5.06948,6.10863c0,3.00998 0,6.07296 0,7.6358c0,3.28849 -2.53475,4.21894 -2.53475,4.21894c0,0 -1.30316,1.52715 -6.02742,1.52715c-22.68466,0 -197.41538,0 -197.41538,0z" fill="#686464" stroke="#000000" stroke-width="1"/><path d="M205.97639,157.76476v-51.06354h25.62655c0,0 0,13.5704 0,25.56054c0,1.30402 -3.78197,7.38498 -3.78197,8.63212c0,4.95149 3.78197,4.50551 3.78197,7.03358c0,1.14087 -3.40379,3.30964 -3.40379,4.47592c0,3.33778 3.40379,5.36137 3.40379,5.36137z" fill="url(#color-2)" stroke="#000000" stroke-width="1"/><path d="M207.52076,161.36361c0,0 -1.5444,-2.13512 -1.5444,-3.02248c0,-0.40894 0,-0.8961 0,-0.8961h25.62655c0,0 0,1.09743 0,1.78428c0,0.93846 -0.74879,2.82466 -0.74879,2.82466c0,0 -1.73784,0.5064 -3.81338,0.5064c-2.53509,0 -8.99424,0 -14.09725,0c-3.87443,0 -5.42271,-1.19676 -5.42271,-1.19676z" fill="#000000" stroke="#000000" stroke-width="1"/><path d="M205.97639,116.03066v-9.7026h25.62655v9.7026z" fill="#686464" stroke="none" stroke-width="0"/><path d="M228.76145,88.63033c0,0 0,-12.46735 0,-17.19976c0,-3.32567 4.56253,-11.70331 4.56253,-11.70331c0,0 5.32219,-2.89951 14.91359,-2.89951c13.12483,0 3.55676,-0.12006 49.18058,-0.22551c35.74059,-0.08262 53.98504,6.46907 70.40356,7.47948c7.05901,0.43444 29.61963,1.27704 46.60908,2.00302c11.41069,0.48762 15.23879,2.83158 15.23879,3.05508c0,0.51954 5.06948,2.31754 5.06948,6.10864c0,3.00999 0,6.07295 0,7.63579c0,3.28849 -2.53475,4.21894 -2.53475,4.21894c0,0 -1.30316,1.52715 -6.02742,1.52715c-22.68466,0 -197.41538,0 -197.41538,0z" fill="#4f3a17" stroke="#000000" stroke-width="1"/><path d="M131.77988,119.92701c0,-83.5694 67.74639,-151.31578 151.31579,-151.31578c83.5694,0 151.31579,67.74639 151.31579,151.31579c0,83.5694 -67.74638,151.31579 -151.31578,151.31579c-83.5694,0 -151.31578,-67.74639 -151.31578,-151.31578z" fill="url(#color-3)" stroke="none" stroke-width="0"/></g></g></svg>