<svg version="1.1" xmlns="http://www.w3.org/2000/svg" xmlns:xlink="http://www.w3.org/1999/xlink" width="262.6852" height="331.29348" viewBox="0,0,262.6852,331.29348"><g transform="translate(-108.8926,-13.09784)"><g data-paper-data="{&quot;isPaintingLayer&quot;:true}" fill-rule="nonzero" stroke-linecap="butt" stroke-linejoin="miter" stroke-miterlimit="10" stroke-dasharray="" stroke-dashoffset="0" style="mix-blend-mode: normal"><path d="M199,180c0,-22.64367 18.35633,-41 41,-41c22.64367,0 41,18.35633 41,41c0,22.64367 -18.35633,41 -41,41c-22.64367,0 -41,-18.35633 -41,-41z" fill-opacity="0.70196" fill="#000000" stroke="none" stroke-width="0"/><text transform="translate(205.0686,187.13355) scale(0.35827,0.35827)" font-size="40" xml:space="preserve" fill-opacity="0.25098" fill="#ffffff" fill-rule="nonzero" stroke="none" stroke-width="1" stroke-linecap="butt" stroke-linejoin="miter" stroke-miterlimit="10" stroke-dasharray="" stroke-dashoffset="0" font-family="Pixel" font-weight="normal" text-anchor="start" style="mix-blend-mode: normal"><tspan x="0" dy="0">Skill tree</tspan></text><path d="M190.92841,155.16537l-59.38449,-56.54629l19.99808,-21.00183l59.38449,56.54629z" fill-opacity="0.25098" fill="#000000" stroke="#000000" stroke-width="0"/><path d="M266.54392,134.16354l59.38448,-56.54629l19.99808,21.00183l-59.38449,56.54629z" data-paper-data="{&quot;index&quot;:null}" fill-opacity="0.25098" fill="#000000" stroke="#000000" stroke-width="0"/><path d="M286.54199,200.61725l59.38449,56.54629l-19.99808,21.00183l-59.38448,-56.54629z" data-paper-data="{&quot;index&quot;:null}" fill-opacity="0.25098" fill="#000000" stroke="#000000" stroke-width="0"/><path d="M210.92648,224.61908l-59.38449,56.54629l-19.99808,-21.00183l59.38449,-56.54629z" data-paper-data="{&quot;index&quot;:null}" fill-opacity="0.25098" fill="#000000" stroke="#000000" stroke-width="0"/><path d="M190.86804,195.49911l-81.97544,-2.00691l0.70976,-28.99131l81.97544,2.00691z" data-paper-data="{&quot;index&quot;:null}" fill-opacity="0.25098" fill="#000000" stroke="#000000" stroke-width="0"/><path d="M370.86804,195.49911l-81.97544,-2.00691l0.70976,-28.99131l81.97544,2.00691z" data-paper-data="{&quot;index&quot;:null}" fill-opacity="0.25098" fill="#000000" stroke="#000000" stroke-width="0"/><path d="M183.5,82.39132c0,-17.27283 0,-49.74409 0,-59c0,-4.83806 7.35653,-10 14.2352,-10c13.42156,0 61.15402,0 85,0c8.3451,0 13.7648,5.75919 13.7648,11c0,8.91413 0,37.54448 0,55c0,8.24729 -8.87946,14 -16.7648,14c-13.99325,0 -60.05269,0 -83,0c-8.03412,0 -13.2352,-4.38567 -13.2352,-11z" fill-opacity="0.70196" fill="#000000" stroke="none" stroke-width="0"/><text transform="translate(191.25,38.39132) scale(0.5,0.5)" font-size="40" xml:space="preserve" fill-opacity="0.70196" fill="#464646" fill-rule="nonzero" stroke="none" stroke-width="1" stroke-linecap="butt" stroke-linejoin="miter" stroke-miterlimit="10" stroke-dasharray="" stroke-dashoffset="0" font-family="Pixel" font-weight="normal" text-anchor="start" style="mix-blend-mode: normal"><tspan x="0" dy="0">You have</tspan></text><text transform="translate(225,88.39132) scale(0.5,0.5)" font-size="40" xml:space="preserve" fill-opacity="0.70196" fill="#464646" fill-rule="nonzero" stroke="none" stroke-width="1" stroke-linecap="butt" stroke-linejoin="miter" stroke-miterlimit="10" stroke-dasharray="" stroke-dashoffset="0" font-family="Pixel" font-weight="normal" text-anchor="start" style="mix-blend-mode: normal"><tspan x="0" dy="0">XP</tspan></text><path d="M183.49993,333.39132c0,-17.27283 0,-49.74409 0,-59c0,-4.83806 7.35653,-10 14.2352,-10c13.42156,0 61.15402,0 85,0c8.3451,0 13.7648,5.75919 13.7648,11c0,8.91413 0,37.54448 0,55c0,8.24729 -8.87946,14 -16.7648,14c-13.99325,0 -60.05269,0 -83,0c-8.03412,0 -13.2352,-4.38567 -13.2352,-11z" fill-opacity="0.70196" fill="#000000" stroke="none" stroke-width="0"/><text transform="translate(192.86948,284.54692) scale(0.33074,0.33074)" font-size="40" xml:space="preserve" fill-opacity="0.70196" fill="#464646" fill-rule="nonzero" stroke="none" stroke-width="1" stroke-linecap="butt" stroke-linejoin="miter" stroke-miterlimit="10" stroke-dasharray="" stroke-dashoffset="0" font-family="Pixel" font-weight="normal" text-anchor="start" style="mix-blend-mode: normal"><tspan x="0" dy="0">Hover over a</tspan><tspan x="0" dy="48px">skill to see</tspan><tspan x="0" dy="48px">more </tspan><tspan x="0" dy="48px">information</tspan></text></g></g></svg>