<svg version="1.1" xmlns="http://www.w3.org/2000/svg" xmlns:xlink="http://www.w3.org/1999/xlink" width="302.63157" height="302.63157" viewBox="0,0,302.63157,302.63157"><defs><radialGradient cx="283.09567" cy="119.927" r="151.31579" gradientUnits="userSpaceOnUse" id="color-1"><stop offset="0" stop-color="#b87b1f" stop-opacity="0.63137"/><stop offset="1" stop-color="#b87b1f" stop-opacity="0"/></radialGradient><linearGradient x1="283.09565" y1="116.54559" x2="283.09565" y2="133.17142" gradientUnits="userSpaceOnUse" id="color-2"><stop offset="0" stop-color="#302a1f"/><stop offset="1" stop-color="#734a0d"/></linearGradient><linearGradient x1="257.30787" y1="126.40861" x2="257.30787" y2="143.03444" gradientUnits="userSpaceOnUse" id="color-3"><stop offset="0" stop-color="#734a0d"/><stop offset="1" stop-color="#c48423"/></linearGradient><linearGradient x1="242.00003" y1="133.79642" x2="256.00003" y2="133.79642" gradientUnits="userSpaceOnUse" id="color-4"><stop offset="0" stop-color="#66410a"/><stop offset="1" stop-color="#c48423"/></linearGradient><linearGradient x1="242.00003" y1="157.79941" x2="256.00003" y2="157.79941" gradientUnits="userSpaceOnUse" id="color-5"><stop offset="0" stop-color="#66410a"/><stop offset="1" stop-color="#c48423"/></linearGradient><linearGradient x1="249.00003" y1="117.1055" x2="249.00003" y2="122.0695" gradientUnits="userSpaceOnUse" id="color-6"><stop offset="0" stop-color="#302a1f"/><stop offset="1" stop-color="#c48423"/></linearGradient></defs><g transform="translate(-131.77988,31.38879)"><g data-paper-data="{&quot;isPaintingLayer&quot;:true}" fill-rule="nonzero" stroke-linecap="butt" stroke-linejoin="miter" stroke-miterlimit="10" stroke-dasharray="" stroke-dashoffset="0" style="mix-blend-mode: normal"><path d="M131.77988,119.927c0,-83.5694 67.74639,-151.31578 151.31579,-151.31578c83.5694,0 151.31579,67.74639 151.31579,151.31579c0,83.5694 -67.74638,151.31579 -151.31578,151.31579c-83.5694,0 -151.31578,-67.74639 -151.31578,-151.31578z" fill="url(#color-1)" stroke="none" stroke-width="0"/><path d="M255.39936,116.54559h55.39258c0,0 0,7.86408 0,10.91846c0,2.2083 -1.03307,3.94345 -1.03307,3.94345c0,0 -0.66942,1.76392 -2.57025,1.76392c-7.20627,0 -51.78926,0 -51.78926,0z" fill="url(#color-2)" stroke="#000000" stroke-width="1"/><path d="M253.61983,143.03444v-16.62583h7.37608c0,0 0,4.10394 0,6.51272c0,3.00166 -0.82645,7.57339 -0.82645,7.57339c0,0 -2.01913,2.53972 -3.31435,2.53972c-1.14488,0 -3.23528,0 -3.23528,0z" fill="url(#color-3)" stroke="#000000" stroke-width="1"/><path d="M241.62399,117.29641c0,0 0,-12.84538 0,-17.72127c0,-3.42652 1.85951,-6.39154 1.85951,-6.39154c0,0 2.16912,-8.65404 6.07819,-8.65404c5.34917,0 1.4496,-0.12368 20.04407,-0.23233c14.56646,-0.08512 22.00218,6.66521 28.69373,7.70627c2.87698,0.4476 12.0718,1.31575 18.99603,2.06376c4.65055,0.50241 6.21073,2.91744 6.21073,3.1477c0,0.53529 2.06612,2.38782 2.06612,6.29384c0,3.10124 0,6.25709 0,7.86732c0,3.3882 -1.03307,4.34686 -1.03307,4.34686c0,0 -0.53112,1.57346 -2.45654,1.57346c-9.24537,0 -80.45877,0 -80.45877,0z" fill="#302a1f" stroke="#000000" stroke-width="1"/><path d="M242.00003,150.29642v-33h14c0,0 0,8.76992 0,16.5186c0,0.84273 -2.06612,4.77257 -2.06612,5.57854c0,3.19992 2.06612,2.9117 2.06612,4.54548c0,0.73729 -1.85952,2.13886 -1.85952,2.89258c0,2.15705 1.85952,3.4648 1.85952,3.4648z" fill="url(#color-4)" stroke="#000000" stroke-width="1"/><path d="M242.84373,161.03983c0,0 -0.84372,-5.08388 -0.84372,-7.19675c0,-0.97372 0,-2.13369 0,-2.13369h14c0,0 0,2.61307 0,4.24847c0,2.23453 -0.40907,6.72573 -0.40907,6.72573c0,0 -0.9494,1.20576 -2.08328,1.20576c-1.38494,0 -4.91363,0 -7.70145,0c-2.11663,0 -2.96247,-2.84957 -2.96247,-2.84957z" fill="url(#color-5)" stroke="#000000" stroke-width="1"/><path d="M242.00003,122.0695v-4.964h14v4.964z" fill="url(#color-6)" stroke="none" stroke-width="0"/><path d="M241.62399,117.29643v-16.54571h83.94838v16.54571z" fill="#b08f5d" stroke="#000000" stroke-width="1"/></g></g></svg>