<svg version="1.1" xmlns="http://www.w3.org/2000/svg" xmlns:xlink="http://www.w3.org/1999/xlink" width="521.47647" height="517.0669" viewBox="0,0,521.47647,517.0669"><defs><radialGradient cx="228.72573" cy="96.72919" r="116.36063" gradientUnits="userSpaceOnUse" id="color-1"><stop offset="0" stop-color="#300275"/><stop offset="1" stop-color="#300275" stop-opacity="0"/></radialGradient><radialGradient cx="317.63871" cy="77.0392" r="124.28994" gradientUnits="userSpaceOnUse" id="color-2"><stop offset="0" stop-color="#1a0276"/><stop offset="1" stop-color="#1a0276" stop-opacity="0"/></radialGradient><radialGradient cx="408.85119" cy="68.49993" r="152.20723" gradientUnits="userSpaceOnUse" id="color-3"><stop offset="0" stop-color="#150459"/><stop offset="1" stop-color="#150459" stop-opacity="0"/></radialGradient><radialGradient cx="441.92866" cy="168.79939" r="111.01046" gradientUnits="userSpaceOnUse" id="color-4"><stop offset="0" stop-color="#025a75"/><stop offset="1" stop-color="#025a75" stop-opacity="0"/></radialGradient><radialGradient cx="340.53706" cy="182.4202" r="111.01046" gradientUnits="userSpaceOnUse" id="color-5"><stop offset="0" stop-color="#340275"/><stop offset="1" stop-color="#340275" stop-opacity="0"/></radialGradient><radialGradient cx="250.96863" cy="205.12819" r="124.28994" gradientUnits="userSpaceOnUse" id="color-6"><stop offset="0" stop-color="#3e2f81"/><stop offset="1" stop-color="#3e2f81" stop-opacity="0"/></radialGradient><radialGradient cx="181.01046" cy="219.30992" r="111.01046" gradientUnits="userSpaceOnUse" id="color-7"><stop offset="0" stop-color="#5658ab"/><stop offset="1" stop-color="#5658ab" stop-opacity="0"/></radialGradient><radialGradient cx="324.95809" cy="273.44231" r="111.01046" gradientUnits="userSpaceOnUse" id="color-8"><stop offset="0" stop-color="#471f85"/><stop offset="1" stop-color="#471f85" stop-opacity="0"/></radialGradient><radialGradient cx="435.96854" cy="274.66221" r="111.01046" gradientUnits="userSpaceOnUse" id="color-9"><stop offset="0" stop-color="#7261be"/><stop offset="1" stop-color="#7261be" stop-opacity="0"/></radialGradient><radialGradient cx="340.53706" cy="182.4202" r="250.9394" gradientUnits="userSpaceOnUse" id="color-10"><stop offset="0" stop-color="#130359" stop-opacity="0.30588"/><stop offset="1" stop-color="#130359" stop-opacity="0"/></radialGradient></defs><g transform="translate(-70,83.7073)"><g data-paper-data="{&quot;isPaintingLayer&quot;:true}" fill-rule="nonzero" stroke="none" stroke-width="0" stroke-linecap="butt" stroke-linejoin="miter" stroke-miterlimit="10" stroke-dasharray="" stroke-dashoffset="0" style="mix-blend-mode: normal"><path d="M135.59468,205.12819c0,-37.72886 30.58527,-68.31413 68.31413,-68.31413c37.72886,0 68.31413,30.58527 68.31413,68.31413c0,37.72886 -30.58527,68.31413 -68.31413,68.31413c-37.72886,0 -68.31413,-30.58527 -68.31413,-68.31413z" fill="#6b7dd1"/><path d="M203.9088,181.95018c0,-37.72884 30.58528,-68.31413 68.31413,-68.31413c37.72884,0 68.31413,30.58528 68.31413,68.31413c0,37.72884 -30.58528,68.31413 -68.31413,68.31413c-37.72886,0 -68.31413,-30.58528 -68.31413,-68.31413z" fill="#46528a"/><path d="M181.01046,112.82358c0,-37.72884 30.58528,-68.31413 68.31413,-68.31413c37.72886,0 68.31413,30.58527 68.31413,68.31413c0,37.72884 -30.58527,68.31413 -68.31413,68.31413c-37.72884,0 -68.31413,-30.58528 -68.31413,-68.31413z" fill="#350275"/><path d="M272.22293,136.81405c0,-37.72884 30.58527,-68.31413 68.31413,-68.31413c37.72886,0 68.31413,30.58528 68.31413,68.31413c0,37.72884 -30.58527,68.31413 -68.31413,68.31413c-37.72886,0 -68.31413,-30.58528 -68.31413,-68.31413z" fill="#025a75"/><path d="M284.70155,205.12819c0,-37.72884 30.58527,-68.31413 68.31413,-68.31413c37.72886,0 68.31413,30.58528 68.31413,68.31413c0,37.72884 -30.58527,68.31413 -68.31413,68.31413c-37.72886,0 -68.31413,-30.58528 -68.31413,-68.31413z" fill="#350275"/><path d="M256.64396,273.44231c0,-37.72884 30.58527,-68.31413 68.31413,-68.31413c37.72886,0 68.31413,30.58528 68.31413,68.31413c0,37.72884 -30.58527,68.31413 -68.31413,68.31413c-37.72886,0 -68.31413,-30.58528 -68.31413,-68.31413z" fill="#51248a"/><path d="M377.41358,168.53133c0,-37.72884 30.58527,-68.31413 68.31413,-68.31413c37.72886,0 68.31413,30.58528 68.31413,68.31413c0,37.72884 -30.58527,68.31413 -68.31413,68.31413c-37.72886,0 -68.31413,-30.58528 -68.31413,-68.31413z" fill="#025a75"/><path d="M340.53706,68.49993c0,-37.72884 30.58527,-68.31413 68.31413,-68.31413c37.72886,0 68.31413,30.58527 68.31413,68.31413c0,37.72884 -30.58527,68.31413 -68.31413,68.31413c-37.72886,0 -68.31413,-30.58528 -68.31413,-68.31413z" fill="#150457"/><path d="M249.32459,77.0392c0,-37.72886 30.58527,-68.31413 68.31413,-68.31413c37.72886,0 68.31413,30.58527 68.31413,68.31413c0,37.72886 -30.58527,68.31413 -68.31413,68.31413c-37.72886,0 -68.31413,-30.58527 -68.31413,-68.31413z" fill="#1a0276"/><path d="M367.65442,274.66221c0,-37.72886 30.58527,-68.31413 68.31413,-68.31413c37.72886,0 68.31413,30.58528 68.31413,68.31413c0,37.72886 -30.58527,68.31413 -68.31413,68.31413c-37.72886,0 -68.31413,-30.58527 -68.31413,-68.31413z" fill="#8a6bd1"/><path d="M112.3651,96.72919c0,-64.2642 52.09643,-116.36063 116.36063,-116.36063c64.2642,0 116.36063,52.09643 116.36063,116.36063c0,64.2642 -52.09643,116.36063 -116.36063,116.36063c-64.2642,0 -116.36063,-52.09643 -116.36063,-116.36063z" fill="url(#color-1)"/><path d="M193.34877,77.0392c0,-68.64344 55.64651,-124.28994 124.28994,-124.28994c68.64344,0 124.28994,55.64651 124.28994,124.28994c0,68.64344 -55.64651,124.28994 -124.28994,124.28994c-68.64344,0 -124.28994,-55.64651 -124.28994,-124.28994z" fill="url(#color-2)"/><path d="M256.64396,68.49993c0,-84.06173 68.1455,-152.20723 152.20723,-152.20723c84.06173,0 152.20723,68.1455 152.20723,152.20723c0,84.06173 -68.1455,152.20723 -152.20723,152.20723c-84.06173,0 -152.20723,-68.1455 -152.20723,-152.20723z" fill="url(#color-3)"/><path d="M330.9182,168.79939c0,-61.30938 49.70108,-111.01046 111.01046,-111.01046c61.30938,0 111.01046,49.70108 111.01046,111.01046c0,61.30938 -49.70108,111.01046 -111.01046,111.01046c-61.30938,0 -111.01046,-49.70108 -111.01046,-111.01046z" fill="url(#color-4)"/><path d="M229.5266,182.4202c0,-61.30938 49.70108,-111.01046 111.01046,-111.01046c61.30938,0 111.01046,49.70108 111.01046,111.01046c0,61.30938 -49.70108,111.01046 -111.01046,111.01046c-61.30938,0 -111.01046,-49.70108 -111.01046,-111.01046z" fill="url(#color-5)"/><path d="M126.67868,205.12819c0,-68.64344 55.64651,-124.28994 124.28994,-124.28994c68.64344,0 124.28994,55.64651 124.28994,124.28994c0,68.64344 -55.64651,124.28994 -124.28994,124.28994c-68.64344,0 -124.28994,-55.64651 -124.28994,-124.28994z" fill="url(#color-6)"/><path d="M70,219.30992c0,-61.30938 49.70108,-111.01046 111.01046,-111.01046c61.30938,0 111.01046,49.70108 111.01046,111.01046c0,61.30938 -49.70108,111.01046 -111.01046,111.01046c-61.30938,0 -111.01046,-49.70108 -111.01046,-111.01046z" fill="url(#color-7)"/><path d="M213.94763,273.44231c0,-61.30938 49.70108,-111.01046 111.01046,-111.01046c61.30938,0 111.01046,49.70108 111.01046,111.01046c0,61.30938 -49.70108,111.01046 -111.01046,111.01046c-61.30938,0 -111.01046,-49.70108 -111.01046,-111.01046z" fill="url(#color-8)"/><path d="M324.95809,274.66221c0,-61.30938 49.70108,-111.01046 111.01046,-111.01046c61.30938,0 111.01046,49.70108 111.01046,111.01046c0,61.30938 -49.70108,111.01046 -111.01046,111.01046c-61.30938,0 -111.01046,-49.70108 -111.01046,-111.01046z" fill="url(#color-9)"/><path d="M89.59768,182.4202c0,-138.58999 112.34939,-250.9394 250.9394,-250.9394c138.58999,0 250.9394,112.3494 250.9394,250.9394c0,138.59001 -112.34939,250.9394 -250.9394,250.9394c-138.58999,0 -250.9394,-112.34939 -250.9394,-250.93938z" fill="url(#color-10)"/></g></g></svg>