<svg version="1.1" xmlns="http://www.w3.org/2000/svg" xmlns:xlink="http://www.w3.org/1999/xlink" width="291" height="291" viewBox="0,0,291,291"><defs><radialGradient cx="320" cy="180" r="89.02769" gradientUnits="userSpaceOnUse" id="color-1"><stop offset="0" stop-color="#0017c2"/><stop offset="1" stop-color="#00094f" stop-opacity="0.58039"/></radialGradient><radialGradient cx="320" cy="180" r="145.5" gradientUnits="userSpaceOnUse" id="color-2"><stop offset="0" stop-color="#0017c2" stop-opacity="0.35294"/><stop offset="1" stop-color="#0017c2" stop-opacity="0"/></radialGradient></defs><g transform="translate(-174.5,-34.5)"><g data-paper-data="{&quot;isPaintingLayer&quot;:true}" fill-rule="nonzero" stroke="none" stroke-linecap="butt" stroke-linejoin="miter" stroke-miterlimit="10" stroke-dasharray="" stroke-dashoffset="0" style="mix-blend-mode: normal"><g><path d="M320,120.98164c49.16866,0 89.02769,26.42344 89.02769,59.01837c0,32.59493 -39.85904,59.01836 -89.02769,59.01836c-49.16865,0 -89.02769,-26.42343 -89.02769,-59.01836c0,-32.59493 39.85904,-59.01836 89.02769,-59.01836z" fill="#096b22" stroke-width="NaN"/><path d="M319.99991,137.31718c35.55944,0 64.38608,19.10971 64.38608,42.68282c0,23.57311 -28.82664,42.68292 -64.38608,42.68292c-35.55944,0 -64.38608,-19.10981 -64.38608,-42.68292c0,-23.57311 28.82655,-42.68282 64.38608,-42.68282z" fill="#009f29" stroke-width="NaN"/><path d="M320,151.31894c23.89436,0 43.26468,12.84094 43.26468,28.68106c0,15.84012 -19.37023,28.68106 -43.26468,28.68106c-23.89436,0 -43.26468,-12.84094 -43.26468,-28.68106c0,-15.84012 19.37023,-28.68106 43.26468,-28.68106z" fill="#37d660" stroke-width="NaN"/><path d="M320,120.98163c49.16865,0 89.02769,26.42343 89.02769,59.01836c0,32.59493 -39.85904,59.01837 -89.02769,59.01837c-49.16866,0 -89.02769,-26.42344 -89.02769,-59.01837c0,-32.59493 39.85903,-59.01836 89.02769,-59.01836z" fill="url(#color-1)" stroke-width="NaN"/><path d="M373.1826,151.31894c5.4776,0 9.91802,4.44037 9.91802,9.91788c0,5.47761 -4.44041,9.91801 -9.91802,9.91801c-5.4776,0 -9.91801,-4.44041 -9.91801,-9.91801c0,-5.47761 4.44041,-9.91788 9.91801,-9.91788z" fill="#000000" stroke-width="0"/><path d="M373.1826,188.84513c5.4776,0 9.91792,4.44041 9.91792,9.91801c0,5.47761 -4.44041,9.91797 -9.91792,9.91797c-5.4776,0 -9.91801,-4.44036 -9.91801,-9.91797c0,-5.47761 4.44041,-9.91801 9.91801,-9.91801z" fill="#000000" stroke-width="0"/><path d="M174.5,180c0,-80.35743 65.14257,-145.5 145.5,-145.5c80.35743,0 145.5,65.14257 145.5,145.5c0,80.35743 -65.14257,145.5 -145.5,145.5c-80.35743,0 -145.5,-65.14257 -145.5,-145.5z" fill="url(#color-2)" stroke-width="0"/></g></g></g></svg>