<svg version="1.1" xmlns="http://www.w3.org/2000/svg" xmlns:xlink="http://www.w3.org/1999/xlink" width="1058.39866" height="10.00722" viewBox="0,0,1058.39866,10.00722"><defs><linearGradient x1="345.5" y1="180" x2="376.75676" y2="180" gradientUnits="userSpaceOnUse" id="color-1"><stop offset="0" stop-color="#0042ce" stop-opacity="0"/><stop offset="1" stop-color="#0042ce"/></linearGradient><linearGradient x1="366.5" y1="180" x2="397.75676" y2="180" gradientUnits="userSpaceOnUse" id="color-2"><stop offset="0" stop-color="#334c81" stop-opacity="0"/><stop offset="1" stop-color="#334c81"/></linearGradient><linearGradient x1="382.12838" y1="180" x2="413.38514" y2="180" gradientUnits="userSpaceOnUse" id="color-3"><stop offset="0" stop-color="#0052ff" stop-opacity="0"/><stop offset="1" stop-color="#0052ff"/></linearGradient><linearGradient x1="397.75676" y1="180" x2="429.01352" y2="180" gradientUnits="userSpaceOnUse" id="color-4"><stop offset="0" stop-color="#008fff" stop-opacity="0"/><stop offset="1" stop-color="#008fff"/></linearGradient><linearGradient x1="413.38514" y1="180" x2="444.6419" y2="180" gradientUnits="userSpaceOnUse" id="color-5"><stop offset="0" stop-color="#1265a7" stop-opacity="0"/><stop offset="1" stop-color="#1265a7"/></linearGradient><linearGradient x1="430" y1="180" x2="461.25676" y2="180" gradientUnits="userSpaceOnUse" id="color-6"><stop offset="0" stop-color="#0042ce" stop-opacity="0"/><stop offset="1" stop-color="#0042ce"/></linearGradient><linearGradient x1="451" y1="180" x2="482.25676" y2="180" gradientUnits="userSpaceOnUse" id="color-7"><stop offset="0" stop-color="#334c81" stop-opacity="0"/><stop offset="1" stop-color="#334c81"/></linearGradient><linearGradient x1="466.62838" y1="180" x2="497.88514" y2="180" gradientUnits="userSpaceOnUse" id="color-8"><stop offset="0" stop-color="#0052ff" stop-opacity="0"/><stop offset="1" stop-color="#0052ff"/></linearGradient><linearGradient x1="482.25676" y1="180" x2="513.51352" y2="180" gradientUnits="userSpaceOnUse" id="color-9"><stop offset="0" stop-color="#008fff" stop-opacity="0"/><stop offset="1" stop-color="#008fff"/></linearGradient><linearGradient x1="497.88514" y1="180" x2="529.1419" y2="180" gradientUnits="userSpaceOnUse" id="color-10"><stop offset="0" stop-color="#1265a7" stop-opacity="0"/><stop offset="1" stop-color="#1265a7"/></linearGradient><linearGradient x1="513" y1="180" x2="544.25676" y2="180" gradientUnits="userSpaceOnUse" id="color-11"><stop offset="0" stop-color="#0042ce" stop-opacity="0"/><stop offset="1" stop-color="#0042ce"/></linearGradient><linearGradient x1="534" y1="180" x2="565.25676" y2="180" gradientUnits="userSpaceOnUse" id="color-12"><stop offset="0" stop-color="#334c81" stop-opacity="0"/><stop offset="1" stop-color="#334c81"/></linearGradient><linearGradient x1="549.62838" y1="180" x2="580.88514" y2="180" gradientUnits="userSpaceOnUse" id="color-13"><stop offset="0" stop-color="#0052ff" stop-opacity="0"/><stop offset="1" stop-color="#0052ff"/></linearGradient><linearGradient x1="565.25676" y1="180" x2="596.51352" y2="180" gradientUnits="userSpaceOnUse" id="color-14"><stop offset="0" stop-color="#008fff" stop-opacity="0"/><stop offset="1" stop-color="#008fff"/></linearGradient><linearGradient x1="580.88514" y1="180" x2="612.1419" y2="180" gradientUnits="userSpaceOnUse" id="color-15"><stop offset="0" stop-color="#1265a7" stop-opacity="0"/><stop offset="1" stop-color="#1265a7"/></linearGradient><linearGradient x1="595.30743" y1="180" x2="626.56419" y2="180" gradientUnits="userSpaceOnUse" id="color-16"><stop offset="0" stop-color="#0042ce" stop-opacity="0"/><stop offset="1" stop-color="#0042ce"/></linearGradient><linearGradient x1="616.30743" y1="180" x2="647.56419" y2="180" gradientUnits="userSpaceOnUse" id="color-17"><stop offset="0" stop-color="#334c81" stop-opacity="0"/><stop offset="1" stop-color="#334c81"/></linearGradient><linearGradient x1="631.93581" y1="180" x2="663.19257" y2="180" gradientUnits="userSpaceOnUse" id="color-18"><stop offset="0" stop-color="#0052ff" stop-opacity="0"/><stop offset="1" stop-color="#0052ff"/></linearGradient><linearGradient x1="647.56419" y1="180" x2="678.82095" y2="180" gradientUnits="userSpaceOnUse" id="color-19"><stop offset="0" stop-color="#008fff" stop-opacity="0"/><stop offset="1" stop-color="#008fff"/></linearGradient><linearGradient x1="663.19257" y1="180" x2="694.44933" y2="180" gradientUnits="userSpaceOnUse" id="color-20"><stop offset="0" stop-color="#1265a7" stop-opacity="0"/><stop offset="1" stop-color="#1265a7"/></linearGradient><linearGradient x1="679.80743" y1="180" x2="711.06419" y2="180" gradientUnits="userSpaceOnUse" id="color-21"><stop offset="0" stop-color="#0042ce" stop-opacity="0"/><stop offset="1" stop-color="#0042ce"/></linearGradient><linearGradient x1="700.80743" y1="180" x2="732.06419" y2="180" gradientUnits="userSpaceOnUse" id="color-22"><stop offset="0" stop-color="#334c81" stop-opacity="0"/><stop offset="1" stop-color="#334c81"/></linearGradient><linearGradient x1="716.43581" y1="180" x2="747.69257" y2="180" gradientUnits="userSpaceOnUse" id="color-23"><stop offset="0" stop-color="#0052ff" stop-opacity="0"/><stop offset="1" stop-color="#0052ff"/></linearGradient><linearGradient x1="732.06419" y1="180" x2="763.32095" y2="180" gradientUnits="userSpaceOnUse" id="color-24"><stop offset="0" stop-color="#008fff" stop-opacity="0"/><stop offset="1" stop-color="#008fff"/></linearGradient><linearGradient x1="747.69257" y1="180" x2="778.94933" y2="180" gradientUnits="userSpaceOnUse" id="color-25"><stop offset="0" stop-color="#1265a7" stop-opacity="0"/><stop offset="1" stop-color="#1265a7"/></linearGradient><linearGradient x1="762.80743" y1="180" x2="794.06419" y2="180" gradientUnits="userSpaceOnUse" id="color-26"><stop offset="0" stop-color="#0042ce" stop-opacity="0"/><stop offset="1" stop-color="#0042ce"/></linearGradient><linearGradient x1="783.80743" y1="180" x2="815.06419" y2="180" gradientUnits="userSpaceOnUse" id="color-27"><stop offset="0" stop-color="#334c81" stop-opacity="0"/><stop offset="1" stop-color="#334c81"/></linearGradient><linearGradient x1="799.43581" y1="180" x2="830.69257" y2="180" gradientUnits="userSpaceOnUse" id="color-28"><stop offset="0" stop-color="#0052ff" stop-opacity="0"/><stop offset="1" stop-color="#0052ff"/></linearGradient><linearGradient x1="815.06419" y1="180" x2="846.32095" y2="180" gradientUnits="userSpaceOnUse" id="color-29"><stop offset="0" stop-color="#008fff" stop-opacity="0"/><stop offset="1" stop-color="#008fff"/></linearGradient><linearGradient x1="830.69257" y1="180" x2="861.94933" y2="180" gradientUnits="userSpaceOnUse" id="color-30"><stop offset="0" stop-color="#1265a7" stop-opacity="0"/><stop offset="1" stop-color="#1265a7"/></linearGradient><linearGradient x1="861.94933" y1="180" x2="893.20609" y2="180" gradientUnits="userSpaceOnUse" id="color-31"><stop offset="0" stop-color="#0042ce" stop-opacity="0"/><stop offset="1" stop-color="#0042ce"/></linearGradient><linearGradient x1="882.94933" y1="180" x2="914.20609" y2="180" gradientUnits="userSpaceOnUse" id="color-32"><stop offset="0" stop-color="#334c81" stop-opacity="0"/><stop offset="1" stop-color="#334c81"/></linearGradient><linearGradient x1="898.57771" y1="180" x2="929.83447" y2="180" gradientUnits="userSpaceOnUse" id="color-33"><stop offset="0" stop-color="#0052ff" stop-opacity="0"/><stop offset="1" stop-color="#0052ff"/></linearGradient><linearGradient x1="914.20609" y1="180" x2="945.46285" y2="180" gradientUnits="userSpaceOnUse" id="color-34"><stop offset="0" stop-color="#008fff" stop-opacity="0"/><stop offset="1" stop-color="#008fff"/></linearGradient><linearGradient x1="929.83447" y1="180" x2="961.09123" y2="180" gradientUnits="userSpaceOnUse" id="color-35"><stop offset="0" stop-color="#1265a7" stop-opacity="0"/><stop offset="1" stop-color="#1265a7"/></linearGradient><linearGradient x1="946.44933" y1="180" x2="977.70609" y2="180" gradientUnits="userSpaceOnUse" id="color-36"><stop offset="0" stop-color="#0042ce" stop-opacity="0"/><stop offset="1" stop-color="#0042ce"/></linearGradient><linearGradient x1="967.44933" y1="180" x2="998.70609" y2="180" gradientUnits="userSpaceOnUse" id="color-37"><stop offset="0" stop-color="#334c81" stop-opacity="0"/><stop offset="1" stop-color="#334c81"/></linearGradient><linearGradient x1="983.07771" y1="180" x2="1014.33447" y2="180" gradientUnits="userSpaceOnUse" id="color-38"><stop offset="0" stop-color="#0052ff" stop-opacity="0"/><stop offset="1" stop-color="#0052ff"/></linearGradient><linearGradient x1="998.70609" y1="180" x2="1029.96285" y2="180" gradientUnits="userSpaceOnUse" id="color-39"><stop offset="0" stop-color="#008fff" stop-opacity="0"/><stop offset="1" stop-color="#008fff"/></linearGradient><linearGradient x1="1014.33447" y1="180" x2="1045.59123" y2="180" gradientUnits="userSpaceOnUse" id="color-40"><stop offset="0" stop-color="#1265a7" stop-opacity="0"/><stop offset="1" stop-color="#1265a7"/></linearGradient><linearGradient x1="1029.44933" y1="180" x2="1060.70609" y2="180" gradientUnits="userSpaceOnUse" id="color-41"><stop offset="0" stop-color="#0042ce" stop-opacity="0"/><stop offset="1" stop-color="#0042ce"/></linearGradient><linearGradient x1="1050.44933" y1="180" x2="1081.70609" y2="180" gradientUnits="userSpaceOnUse" id="color-42"><stop offset="0" stop-color="#334c81" stop-opacity="0"/><stop offset="1" stop-color="#334c81"/></linearGradient><linearGradient x1="1066.07771" y1="180" x2="1097.33447" y2="180" gradientUnits="userSpaceOnUse" id="color-43"><stop offset="0" stop-color="#0052ff" stop-opacity="0"/><stop offset="1" stop-color="#0052ff"/></linearGradient><linearGradient x1="1081.70609" y1="180" x2="1112.96285" y2="180" gradientUnits="userSpaceOnUse" id="color-44"><stop offset="0" stop-color="#008fff" stop-opacity="0"/><stop offset="1" stop-color="#008fff"/></linearGradient><linearGradient x1="1097.33447" y1="180" x2="1128.59123" y2="180" gradientUnits="userSpaceOnUse" id="color-45"><stop offset="0" stop-color="#1265a7" stop-opacity="0"/><stop offset="1" stop-color="#1265a7"/></linearGradient><linearGradient x1="1111.75676" y1="180" x2="1143.01352" y2="180" gradientUnits="userSpaceOnUse" id="color-46"><stop offset="0" stop-color="#0042ce" stop-opacity="0"/><stop offset="1" stop-color="#0042ce"/></linearGradient><linearGradient x1="1132.75676" y1="180" x2="1164.01352" y2="180" gradientUnits="userSpaceOnUse" id="color-47"><stop offset="0" stop-color="#334c81" stop-opacity="0"/><stop offset="1" stop-color="#334c81"/></linearGradient><linearGradient x1="1148.38514" y1="180" x2="1179.6419" y2="180" gradientUnits="userSpaceOnUse" id="color-48"><stop offset="0" stop-color="#0052ff" stop-opacity="0"/><stop offset="1" stop-color="#0052ff"/></linearGradient><linearGradient x1="1164.01352" y1="180" x2="1195.27028" y2="180" gradientUnits="userSpaceOnUse" id="color-49"><stop offset="0" stop-color="#008fff" stop-opacity="0"/><stop offset="1" stop-color="#008fff"/></linearGradient><linearGradient x1="1179.6419" y1="180" x2="1210.89866" y2="180" gradientUnits="userSpaceOnUse" id="color-50"><stop offset="0" stop-color="#1265a7" stop-opacity="0"/><stop offset="1" stop-color="#1265a7"/></linearGradient><linearGradient x1="1196.25676" y1="180" x2="1227.51352" y2="180" gradientUnits="userSpaceOnUse" id="color-51"><stop offset="0" stop-color="#0042ce" stop-opacity="0"/><stop offset="1" stop-color="#0042ce"/></linearGradient><linearGradient x1="1217.25676" y1="180" x2="1248.51352" y2="180" gradientUnits="userSpaceOnUse" id="color-52"><stop offset="0" stop-color="#334c81" stop-opacity="0"/><stop offset="1" stop-color="#334c81"/></linearGradient><linearGradient x1="1232.88514" y1="180" x2="1264.1419" y2="180" gradientUnits="userSpaceOnUse" id="color-53"><stop offset="0" stop-color="#0052ff" stop-opacity="0"/><stop offset="1" stop-color="#0052ff"/></linearGradient><linearGradient x1="1248.51352" y1="180" x2="1279.77028" y2="180" gradientUnits="userSpaceOnUse" id="color-54"><stop offset="0" stop-color="#008fff" stop-opacity="0"/><stop offset="1" stop-color="#008fff"/></linearGradient><linearGradient x1="1264.1419" y1="180" x2="1295.39866" y2="180" gradientUnits="userSpaceOnUse" id="color-55"><stop offset="0" stop-color="#1265a7" stop-opacity="0"/><stop offset="1" stop-color="#1265a7"/></linearGradient><linearGradient x1="1279.25676" y1="180" x2="1310.51352" y2="180" gradientUnits="userSpaceOnUse" id="color-56"><stop offset="0" stop-color="#0042ce" stop-opacity="0"/><stop offset="1" stop-color="#0042ce"/></linearGradient><linearGradient x1="1300.25676" y1="180" x2="1331.51352" y2="180" gradientUnits="userSpaceOnUse" id="color-57"><stop offset="0" stop-color="#334c81" stop-opacity="0"/><stop offset="1" stop-color="#334c81"/></linearGradient><linearGradient x1="1315.88514" y1="180" x2="1347.1419" y2="180" gradientUnits="userSpaceOnUse" id="color-58"><stop offset="0" stop-color="#0052ff" stop-opacity="0"/><stop offset="1" stop-color="#0052ff"/></linearGradient><linearGradient x1="1331.51352" y1="180" x2="1362.77028" y2="180" gradientUnits="userSpaceOnUse" id="color-59"><stop offset="0" stop-color="#008fff" stop-opacity="0"/><stop offset="1" stop-color="#008fff"/></linearGradient><linearGradient x1="1347.1419" y1="180" x2="1378.39866" y2="180" gradientUnits="userSpaceOnUse" id="color-60"><stop offset="0" stop-color="#1265a7" stop-opacity="0"/><stop offset="1" stop-color="#1265a7"/></linearGradient></defs><g transform="translate(-320,-174.99639)"><g data-paper-data="{&quot;isPaintingLayer&quot;:true}" fill-rule="nonzero" stroke="#ffffff" stroke-width="0" stroke-linecap="butt" stroke-linejoin="miter" stroke-miterlimit="10" stroke-dasharray="" stroke-dashoffset="0" style="mix-blend-mode: normal"><g><g><g><g><path d="M345.5,185.00361v-10.00722h31.25676v10.00722z" fill="url(#color-1)"/><path d="M366.5,185.00361v-10.00722h31.25676v10.00722z" fill="url(#color-2)"/><path d="M382.12838,185.00361v-10.00722h31.25676v10.00722z" fill="url(#color-3)"/><path d="M397.75676,185.00361v-10.00722h31.25676v10.00722z" fill="url(#color-4)"/><path d="M413.38514,185.00361v-10.00722h31.25676v10.00722z" fill="url(#color-5)"/></g><g><path d="M430,185.00361v-10.00722h31.25676v10.00722z" fill="url(#color-6)"/><path d="M451,185.00361v-10.00722h31.25676v10.00722z" fill="url(#color-7)"/><path d="M466.62838,185.00361v-10.00722h31.25676v10.00722z" fill="url(#color-8)"/><path d="M482.25676,185.00361v-10.00722h31.25676v10.00722z" fill="url(#color-9)"/><path d="M497.88514,185.00361v-10.00722h31.25676v10.00722z" fill="url(#color-10)"/></g><g><path d="M513,185.00361v-10.00722h31.25676v10.00722z" fill="url(#color-11)"/><path d="M534,185.00361v-10.00722h31.25676v10.00722z" fill="url(#color-12)"/><path d="M549.62838,185.00361v-10.00722h31.25676v10.00722z" fill="url(#color-13)"/><path d="M565.25676,185.00361v-10.00722h31.25676v10.00722z" fill="url(#color-14)"/><path d="M580.88514,185.00361v-10.00722h31.25676v10.00722z" fill="url(#color-15)"/></g></g><g><g><path d="M595.30743,185.00361v-10.00722h31.25676v10.00722z" fill="url(#color-16)"/><path d="M616.30743,185.00361v-10.00722h31.25676v10.00722z" fill="url(#color-17)"/><path d="M631.93581,185.00361v-10.00722h31.25676v10.00722z" fill="url(#color-18)"/><path d="M647.56419,185.00361v-10.00722h31.25676v10.00722z" fill="url(#color-19)"/><path d="M663.19257,185.00361v-10.00722h31.25676v10.00722z" fill="url(#color-20)"/></g><g><path d="M679.80743,185.00361v-10.00722h31.25676v10.00722z" fill="url(#color-21)"/><path d="M700.80743,185.00361v-10.00722h31.25676v10.00722z" fill="url(#color-22)"/><path d="M716.43581,185.00361v-10.00722h31.25676v10.00722z" fill="url(#color-23)"/><path d="M732.06419,185.00361v-10.00722h31.25676v10.00722z" fill="url(#color-24)"/><path d="M747.69257,185.00361v-10.00722h31.25676v10.00722z" fill="url(#color-25)"/></g><g><path d="M762.80743,185.00361v-10.00722h31.25676v10.00722z" fill="url(#color-26)"/><path d="M783.80743,185.00361v-10.00722h31.25676v10.00722z" fill="url(#color-27)"/><path d="M799.43581,185.00361v-10.00722h31.25676v10.00722z" fill="url(#color-28)"/><path d="M815.06419,185.00361v-10.00722h31.25676v10.00722z" fill="url(#color-29)"/><path d="M830.69257,185.00361v-10.00722h31.25676v10.00722z" fill="url(#color-30)"/></g></g></g><g><g><g><path d="M861.94933,185.00361v-10.00722h31.25676v10.00722z" fill="url(#color-31)"/><path d="M882.94933,185.00361v-10.00722h31.25676v10.00722z" fill="url(#color-32)"/><path d="M898.57771,185.00361v-10.00722h31.25676v10.00722z" fill="url(#color-33)"/><path d="M914.20609,185.00361v-10.00722h31.25676v10.00722z" fill="url(#color-34)"/><path d="M929.83447,185.00361v-10.00722h31.25676v10.00722z" fill="url(#color-35)"/></g><g><path d="M946.44933,185.00361v-10.00722h31.25676v10.00722z" fill="url(#color-36)"/><path d="M967.44933,185.00361v-10.00722h31.25676v10.00722z" fill="url(#color-37)"/><path d="M983.07771,185.00361v-10.00722h31.25676v10.00722z" fill="url(#color-38)"/><path d="M998.70609,185.00361v-10.00722h31.25676v10.00722z" fill="url(#color-39)"/><path d="M1014.33447,185.00361v-10.00722h31.25676v10.00722z" fill="url(#color-40)"/></g><g><path d="M1029.44933,185.00361v-10.00722h31.25676v10.00722z" fill="url(#color-41)"/><path d="M1050.44933,185.00361v-10.00722h31.25676v10.00722z" fill="url(#color-42)"/><path d="M1066.07771,185.00361v-10.00722h31.25676v10.00722z" fill="url(#color-43)"/><path d="M1081.70609,185.00361v-10.00722h31.25676v10.00722z" fill="url(#color-44)"/><path d="M1097.33447,185.00361v-10.00722h31.25676v10.00722z" fill="url(#color-45)"/></g></g><g><g><path d="M1111.75676,185.00361v-10.00722h31.25676v10.00722z" fill="url(#color-46)"/><path d="M1132.75676,185.00361v-10.00722h31.25676v10.00722z" fill="url(#color-47)"/><path d="M1148.38514,185.00361v-10.00722h31.25676v10.00722z" fill="url(#color-48)"/><path d="M1164.01352,185.00361v-10.00722h31.25676v10.00722z" fill="url(#color-49)"/><path d="M1179.6419,185.00361v-10.00722h31.25676v10.00722z" fill="url(#color-50)"/></g><g><path d="M1196.25676,185.00361v-10.00722h31.25676v10.00722z" fill="url(#color-51)"/><path d="M1217.25676,185.00361v-10.00722h31.25676v10.00722z" fill="url(#color-52)"/><path d="M1232.88514,185.00361v-10.00722h31.25676v10.00722z" fill="url(#color-53)"/><path d="M1248.51352,185.00361v-10.00722h31.25676v10.00722z" fill="url(#color-54)"/><path d="M1264.1419,185.00361v-10.00722h31.25676v10.00722z" fill="url(#color-55)"/></g><g><path d="M1279.25676,185.00361v-10.00722h31.25676v10.00722z" fill="url(#color-56)"/><path d="M1300.25676,185.00361v-10.00722h31.25676v10.00722z" fill="url(#color-57)"/><path d="M1315.88514,185.00361v-10.00722h31.25676v10.00722z" fill="url(#color-58)"/><path d="M1331.51352,185.00361v-10.00722h31.25676v10.00722z" fill="url(#color-59)"/><path d="M1347.1419,185.00361v-10.00722h31.25676v10.00722z" fill="url(#color-60)"/></g></g></g><path d="M320,185.00361v-10.00722h817.25676v10.00722z" fill-opacity="0.47843" fill="#0051ff"/></g></g></g></svg>