<svg version="1.1" xmlns="http://www.w3.org/2000/svg" xmlns:xlink="http://www.w3.org/1999/xlink" width="29.25589" height="29.25589" viewBox="0,0,29.25589,29.25589"><defs><linearGradient x1="320.00005" y1="173.12501" x2="320.00005" y2="186.87501" gradientUnits="userSpaceOnUse" id="color-1"><stop offset="0" stop-color="#5a5858"/><stop offset="1" stop-color="#3b2e58"/></linearGradient><radialGradient cx="316.66255" cy="178.81251" r="1.1875" gradientUnits="userSpaceOnUse" id="color-2"><stop offset="0" stop-color="#ffffff"/><stop offset="1" stop-color="#ffffff" stop-opacity="0"/></radialGradient><radialGradient cx="323.16255" cy="178.81251" r="1.1875" gradientUnits="userSpaceOnUse" id="color-3"><stop offset="0" stop-color="#ffffff"/><stop offset="1" stop-color="#ffffff" stop-opacity="0"/></radialGradient><radialGradient cx="320.00005" cy="180.00002" r="14.62794" gradientUnits="userSpaceOnUse" id="color-4"><stop offset="0" stop-color="#413659" stop-opacity="0.62745"/><stop offset="1" stop-color="#413659" stop-opacity="0"/></radialGradient></defs><g transform="translate(-305.37209,-165.37206)"><g data-paper-data="{&quot;isPaintingLayer&quot;:true}" fill-rule="nonzero" stroke="none" stroke-width="0" stroke-linecap="butt" stroke-linejoin="miter" stroke-miterlimit="10" stroke-dasharray="" stroke-dashoffset="0" style="mix-blend-mode: normal"><path d="M326.43391,173.77177c0.58569,-0.50968 1.32087,-1.95743 1.8981,-3.24685c0.54814,-1.22444 0.2901,-2.87623 0.2901,-2.87623c0,0 0.44798,2.03983 0.12454,3.60759c-0.28472,1.38005 -0.65286,2.8361 -1.0307,3.43257c-0.58898,0.92978 -1.5282,2.41246 -1.5282,2.41246l-1.80162,-1.54751c0,0 1.24582,-1.08415 2.04778,-1.78203z" data-paper-data="{&quot;index&quot;:null}" fill="#413658"/><path d="M316.1131,174.97929l-1.80162,1.54751c0,0 -0.93922,-1.48268 -1.5282,-2.41246c-0.37784,-0.59647 -0.74599,-2.05252 -1.0307,-3.43257c-0.32344,-1.56776 0.12454,-3.60758 0.12454,-3.60758c0,0 -0.25804,1.65179 0.2901,2.87623c0.57723,1.28941 1.31242,2.73716 1.8981,3.24684c0.80195,0.69788 2.04778,1.78203 2.04778,1.78203z" fill="#413658"/><path d="M313.12505,180.00001c0,-3.79696 3.07804,-6.875 6.875,-6.875c3.79696,0 6.875,3.07804 6.875,6.875c0,3.79696 -3.07804,6.875 -6.875,6.875c-3.79696,0 -6.875,-3.07804 -6.875,-6.875z" fill="url(#color-1)"/><path d="M315.47505,178.81251c0,-0.65584 0.53166,-1.1875 1.1875,-1.1875c0.65584,0 1.1875,0.53166 1.1875,1.1875c0,0.65584 -0.53166,1.1875 -1.1875,1.1875c-0.65584,0 -1.1875,-0.53166 -1.1875,-1.1875z" fill="url(#color-2)"/><path d="M321.97505,178.81251c0,-0.65584 0.53166,-1.1875 1.1875,-1.1875c0.65584,0 1.1875,0.53166 1.1875,1.1875c0,0.65584 -0.53166,1.1875 -1.1875,1.1875c-0.65584,0 -1.1875,-0.53166 -1.1875,-1.1875z" fill="url(#color-3)"/><path d="M320.00005,165.37206c8.07879,0 14.62794,6.54915 14.62794,14.62795c0,8.0788 -6.54914,14.62794 -14.62794,14.62794c-8.07879,0 -14.62795,-6.54914 -14.62795,-14.62794c0,-8.07879 6.54915,-14.62795 14.62795,-14.62795z" fill="url(#color-4)"/><path d="M324.13656,184.52038l1.80162,-1.54751c0,0 0.93922,1.48268 1.5282,2.41246c0.37784,0.59647 0.74599,2.05251 1.0307,3.43257c0.32344,1.56776 -0.12454,3.60759 -0.12454,3.60759c0,0 0.25804,-1.65179 -0.2901,-2.87623c-0.57723,-1.28941 -1.31242,-2.73716 -1.8981,-3.24684c-0.80196,-0.69788 -2.04778,-1.78203 -2.04778,-1.78203z" data-paper-data="{&quot;index&quot;:null}" fill="#413658"/><path d="M313.81575,186.87693c-0.58569,0.50968 -1.32087,1.95743 -1.8981,3.24685c-0.54814,1.22444 -0.2901,2.87623 -0.2901,2.87623c0,0 -0.44798,-2.03983 -0.12454,-3.60758c0.28472,-1.38005 0.65286,-2.8361 1.0307,-3.43257c0.58898,-0.92978 1.5282,-2.41246 1.5282,-2.41246l1.80162,1.54751c0,0 -1.24582,1.08415 -2.04778,1.78203z" data-paper-data="{&quot;index&quot;:null}" fill="#413658"/></g></g></svg>