<svg version="1.1" xmlns="http://www.w3.org/2000/svg" xmlns:xlink="http://www.w3.org/1999/xlink" width="92.66666" height="92.66666" viewBox="0,0,92.66666,92.66666"><defs><linearGradient x1="308.6266" y1="179.55694" x2="268.40253" y2="179.55694" gradientUnits="userSpaceOnUse" id="color-1"><stop offset="0" stop-color="#ff0000"/><stop offset="1" stop-color="#ff7100"/></linearGradient><linearGradient x1="312.01841" y1="179.55694" x2="271.79432" y2="179.55694" gradientUnits="userSpaceOnUse" id="color-2"><stop offset="0" stop-color="#ff0000"/><stop offset="1" stop-color="#ff7100"/></linearGradient><linearGradient x1="314.73184" y1="179.55694" x2="274.50776" y2="179.55694" gradientUnits="userSpaceOnUse" id="color-3"><stop offset="0" stop-color="#ff0000"/><stop offset="1" stop-color="#ff7100"/></linearGradient><linearGradient x1="318.12364" y1="179.55694" x2="277.89953" y2="179.55694" gradientUnits="userSpaceOnUse" id="color-4"><stop offset="0" stop-color="#ff0000"/><stop offset="1" stop-color="#ff7100"/></linearGradient><linearGradient x1="321.51541" y1="179.55694" x2="281.29133" y2="179.55694" gradientUnits="userSpaceOnUse" id="color-5"><stop offset="0" stop-color="#ff0000"/><stop offset="1" stop-color="#ff7100"/></linearGradient><linearGradient x1="324.90719" y1="179.55694" x2="284.68312" y2="179.55694" gradientUnits="userSpaceOnUse" id="color-6"><stop offset="0" stop-color="#ff0000"/><stop offset="1" stop-color="#ff7100"/></linearGradient><linearGradient x1="328.29899" y1="179.55694" x2="288.07492" y2="179.55694" gradientUnits="userSpaceOnUse" id="color-7"><stop offset="0" stop-color="#ff0000"/><stop offset="1" stop-color="#ff7100"/></linearGradient><radialGradient cx="321.32712" cy="180.02799" r="21.41348" gradientUnits="userSpaceOnUse" id="color-8"><stop offset="0" stop-color="#ff8600"/><stop offset="1" stop-color="#ff4b00"/></radialGradient><radialGradient cx="312.5" cy="179.55694" r="46.33333" gradientUnits="userSpaceOnUse" id="color-9"><stop offset="0" stop-color="#f76e09"/><stop offset="1" stop-color="#f76e09" stop-opacity="0"/></radialGradient></defs><g transform="translate(-266.16666,-133.2236)"><g data-paper-data="{&quot;isPaintingLayer&quot;:true}" fill-rule="nonzero" stroke="none" stroke-linecap="butt" stroke-linejoin="miter" stroke-miterlimit="10" stroke-dasharray="" stroke-dashoffset="0" style="mix-blend-mode: normal"><g><g stroke-width="0.5"><path d="M298.65744,175.36566c-0.92956,-0.68426 -2.59717,-2.35173 -0.43404,-4.4097c1.06099,-1.00941 2.25364,-1.36122 3.33289,-1.40514c0.08071,-0.64949 0.37853,-1.32761 0.71722,-1.89252c-1.31969,0.17425 -4.17078,0.23682 -5.37849,-2.17611c-1.59764,-3.19192 2.87573,-4.33191 2.87573,-4.33191c2.78483,-0.33041 5.92374,-2.01561 8.3545,-0.99121c7.0583,2.97467 3.06487,6.4295 2.90126,9.94897c-0.0424,0.91219 1.21358,6.58272 1.30482,7.56504c0.34603,3.72556 0.01037,7.57468 0.00838,11.30854l-0.05985,0.09722l0.0537,0.00225l-0.32561,3.94968c-0.12804,1.7903 -2.20294,3.2138 -4.74382,3.2138c-2.13679,0 -3.94402,-1.00673 -4.54098,-2.39172l-1.93061,-4.13269l0.12797,-0.03044c-0.09868,-0.13201 -0.19413,-0.26545 -0.28601,-0.40042c-0.88048,-1.29325 -0.20878,-2.87246 -0.39336,-4.3042c-0.42851,-3.32362 -1.32101,-6.35428 -1.58367,-9.61947z" fill="#ff4200"/><path d="M307.85718,198.38925c0,2.16608 -3.03567,2.16609 -3.03567,2.16609l-1.93295,-0.13792c-3.02278,-0.81053 -5.82742,-1.60859 -9.0938,-1.72228c-0.3735,-0.013 -8.66975,0.06628 -9.08177,-0.12519c-0.29175,-0.13559 -0.56192,-0.28808 -0.81516,-0.45386l-0.0948,0.08119l-2.58333,-1.53609c-0.67778,-0.39727 -1.11009,-0.99993 -1.11009,-1.67463c0,-0.51717 0.25402,-0.99202 0.67787,-1.36447c-2.01914,-0.67727 -3.93844,-1.92292 -4.08027,-2.20838c-0.49093,-0.98813 2.29489,-3.00976 4.50334,-4.15986h-2.83403c-1.67655,0 -3.03567,-0.9698 -3.03567,-2.16609c0,-1.10321 1.15584,-2.0138 2.65055,-2.14883l2.2186,-0.22614c0.78227,-0.6929 1.00757,-1.71363 1.5225,-2.53956c-2.80115,-0.44954 -5.70705,-0.70579 -8.10386,-1.78271c-2.16337,-0.97202 -5.46903,-2.19983 -5.21194,-4.01477c0.26285,-1.85553 4.01657,-2.41182 6.25816,-3.37091c0.274,-0.11724 0.6226,-0.23882 1.00235,-0.34569c-0.68227,-0.21631 -1.307,-0.49326 -1.78662,-0.88695c-0.13663,-0.11216 -0.26504,-0.2282 -0.38629,-0.3476l-0.06101,0.03628l-2.15488,-1.8451c-0.44692,-0.37723 -0.71637,-0.86498 -0.71637,-1.39762c0,-1.19629 1.35912,-2.16609 3.0357,-2.16609h3.90171c1.62467,0.00851 3.82575,0.84396 4.87379,-0.04189c1.71015,-1.44549 0.48482,-4.45967 2.86391,-5.29437c1.63711,-0.57437 3.5612,0.59938 5.37616,0.73096c4.47609,0.3245 8.31897,-0.10403 12.42966,0.35671c0.7484,0.54485 1.59442,1.02118 2.51781,1.41461c0.40101,0.29074 0.82986,0.56184 1.28349,0.81112c0.02472,0.5827 0.6945,1.04967 1.51713,1.04967c0.08696,0 0.17222,-0.00522 0.25519,-0.01525c-0.02753,0.06623 -0.05931,0.13389 -0.09566,0.20305c-1.06591,2.02817 -3.9083,1.2676 -3.9083,1.2676c-5.0807,-1.42354 -9.8993,0.05012 -15.08263,-0.82485c-0.71953,-0.12146 -0.87325,-0.92991 -1.56024,-1.12506c-0.43086,-0.12237 0.7698,0.54863 0.66671,0.87124c-0.41882,1.31065 -0.76764,2.81073 -2.13805,3.73318c-0.9594,0.6458 -2.33728,0.95054 -3.80348,1.09123c1.49786,1.13241 2.46682,2.64048 2.04957,3.81409c-0.14326,0.403 -3.12925,1.92536 -5.91933,2.68491c0.87575,0.14115 1.74251,0.31341 2.59727,0.50401c2.14636,0.47866 4.18971,1.16672 6.28458,1.75007l0.29453,0.2995l0.11173,-0.09566l2.58335,1.53609c0.67778,0.39727 1.11009,0.99992 1.11009,1.67463c0,1.12435 -1.20056,2.04862 -2.73686,2.15573l-1.39329,0.11047c0.3045,0.56739 0.59959,1.28835 0.87944,2.19002c0.52403,1.68837 -1.1241,3.35091 -2.69254,4.81441c1.61572,-0.0494 3.36928,-0.05835 3.99976,0.84184c0.80953,1.15586 0.07366,2.48727 -0.54294,3.80514c5.76732,-0.0881 10.32037,0.56181 15.69004,1.99581l-0.19886,-0.13792c0,0 3.03567,0 3.03567,2.16609z" fill="url(#color-1)"/><path d="M311.24897,198.38925c0,2.16608 -3.0357,2.16609 -3.0357,2.16609l-1.93295,-0.13792c-3.02278,-0.81053 -5.82742,-1.60859 -9.0938,-1.72228c-0.3735,-0.013 -8.66975,0.06628 -9.08177,-0.12519c-0.29175,-0.13559 -0.56192,-0.28808 -0.81516,-0.45386l-0.0948,0.08119l-2.58333,-1.53609c-0.67778,-0.39727 -1.11009,-0.99993 -1.11009,-1.67463c0,-0.51717 0.25402,-0.99202 0.67787,-1.36447c-2.01914,-0.67727 -3.93844,-1.92292 -4.08027,-2.20838c-0.49093,-0.98813 2.29489,-3.00976 4.50334,-4.15986h-2.83403c-1.67655,0 -3.03567,-0.9698 -3.03567,-2.16609c0,-1.10321 1.15584,-2.0138 2.65055,-2.14883l2.2186,-0.22614c0.78227,-0.6929 1.00757,-1.71363 1.5225,-2.53956c-2.80115,-0.44954 -5.70708,-0.70579 -8.10387,-1.78271c-2.16337,-0.97202 -5.46903,-2.19983 -5.21194,-4.01477c0.26285,-1.85553 4.01657,-2.41182 6.25816,-3.37091c0.274,-0.11724 0.6226,-0.23882 1.00235,-0.34569c-0.68227,-0.21631 -1.307,-0.49326 -1.78661,-0.88695c-0.13663,-0.11216 -0.26504,-0.2282 -0.3863,-0.3476l-0.06101,0.03628l-2.15488,-1.8451c-0.44692,-0.37723 -0.71636,-0.86498 -0.71636,-1.39762c0,-1.19629 1.35912,-2.16609 3.03567,-2.16609h3.90171c1.62467,0.00851 3.82576,0.84396 4.87381,-0.04189c1.71015,-1.44549 0.48481,-4.45967 2.86389,-5.29437c1.63711,-0.57437 3.5612,0.59938 5.37616,0.73096c4.47609,0.3245 8.31898,-0.10403 12.42967,0.35671c0.7484,0.54485 1.59442,1.02118 2.51781,1.41461c0.40101,0.29074 0.82986,0.56184 1.28349,0.81112c0.02472,0.5827 0.6945,1.04967 1.51713,1.04967c0.08696,0 0.17223,-0.00522 0.25521,-0.01525c-0.02753,0.06623 -0.05931,0.13389 -0.09566,0.20305c-1.06591,2.02817 -3.90829,1.2676 -3.90829,1.2676c-5.0807,-1.42354 -9.8993,0.05012 -15.08263,-0.82485c-0.71953,-0.12146 -0.87328,-0.92991 -1.56024,-1.12506c-0.43086,-0.12237 0.7698,0.54863 0.66671,0.87124c-0.41882,1.31065 -0.76764,2.81073 -2.13805,3.73318c-0.9594,0.6458 -2.33728,0.95054 -3.80348,1.09123c1.49786,1.13241 2.46681,2.64048 2.04958,3.81409c-0.14326,0.403 -3.12923,1.92536 -5.91931,2.68491c0.87575,0.14115 1.74251,0.31341 2.59726,0.50401c2.14636,0.47866 4.18972,1.16672 6.28459,1.75007l0.29452,0.2995l0.11173,-0.09566l2.58333,1.53609c0.67778,0.39727 1.11009,0.99992 1.11009,1.67463c0,1.12435 -1.20056,2.04862 -2.73686,2.15573l-1.39329,0.11047c0.3045,0.56739 0.59959,1.28835 0.87944,2.19002c0.52403,1.68837 -1.1241,3.35091 -2.69254,4.81441c1.61572,-0.0494 3.36928,-0.05835 3.99976,0.84184c0.80953,1.15586 0.07366,2.48727 -0.54294,3.80514c5.76732,-0.0881 10.32036,0.56181 15.69004,1.99581l-0.19886,-0.13792c0,0 3.0357,0 3.0357,2.16609z" fill="url(#color-2)"/><path d="M313.9624,198.38925c0,2.16608 -3.03567,2.16609 -3.03567,2.16609l-1.93295,-0.13792c-3.02278,-0.81053 -5.82743,-1.60859 -9.09381,-1.72228c-0.3735,-0.013 -8.66972,0.06628 -9.08175,-0.12519c-0.29175,-0.13559 -0.56192,-0.28808 -0.81516,-0.45386l-0.09481,0.08119l-2.58335,-1.53609c-0.67778,-0.39727 -1.11009,-0.99993 -1.11009,-1.67463c0,-0.51717 0.25401,-0.99202 0.67786,-1.36447c-2.01914,-0.67727 -3.93844,-1.92292 -4.08027,-2.20838c-0.49093,-0.98813 2.2949,-3.00976 4.50334,-4.15986h-2.83403c-1.67655,0 -3.03567,-0.9698 -3.03567,-2.16609c0,-1.10321 1.15583,-2.0138 2.65055,-2.14883l2.2186,-0.22614c0.78227,-0.6929 1.00757,-1.71363 1.5225,-2.53956c-2.80115,-0.44954 -5.70707,-0.70579 -8.10387,-1.78271c-2.16337,-0.97202 -5.46902,-2.19983 -5.21193,-4.01477c0.26285,-1.85553 4.01657,-2.41182 6.25816,-3.37091c0.274,-0.11724 0.62263,-0.23882 1.00235,-0.34569c-0.68227,-0.21631 -1.307,-0.49326 -1.78661,-0.88695c-0.13663,-0.11216 -0.26504,-0.2282 -0.3863,-0.3476l-0.06101,0.03628l-2.15488,-1.8451c-0.44692,-0.37723 -0.71637,-0.86498 -0.71637,-1.39762c0,-1.19629 1.35912,-2.16609 3.0357,-2.16609h3.90171c1.62467,0.00851 3.82575,0.84396 4.87379,-0.04189c1.71015,-1.44549 0.48481,-4.45967 2.86389,-5.29437c1.63711,-0.57437 3.5612,0.59938 5.37616,0.73096c4.47609,0.3245 8.31898,-0.10403 12.42967,0.35671c0.7484,0.54485 1.59442,1.02118 2.51781,1.41461c0.40101,0.29074 0.82986,0.56184 1.28349,0.81112c0.02472,0.5827 0.6945,1.04967 1.51713,1.04967c0.08696,0 0.17222,-0.00522 0.25519,-0.01525c-0.02753,0.06623 -0.05931,0.13389 -0.09566,0.20305c-1.06591,2.02817 -3.90829,1.2676 -3.90829,1.2676c-5.0807,-1.42354 -9.8993,0.05012 -15.08263,-0.82485c-0.71953,-0.12146 -0.87325,-0.92991 -1.56024,-1.12506c-0.43086,-0.12237 0.7698,0.54863 0.66671,0.87124c-0.41882,1.31065 -0.76764,2.81073 -2.13805,3.73318c-0.9594,0.6458 -2.33728,0.95054 -3.80348,1.09123c1.49786,1.13241 2.46681,2.64048 2.04958,3.81409c-0.14326,0.403 -3.12923,1.92536 -5.91931,2.68491c0.87575,0.14115 1.74251,0.31341 2.59728,0.50401c2.14636,0.47866 4.18971,1.16672 6.28458,1.75007l0.29452,0.2995l0.11173,-0.09566l2.58333,1.53609c0.67778,0.39727 1.11009,0.99992 1.11009,1.67463c0,1.12435 -1.20056,2.04862 -2.73686,2.15573l-1.39329,0.11047c0.3045,0.56739 0.59959,1.28835 0.87944,2.19002c0.52403,1.68837 -1.1241,3.35091 -2.69254,4.81441c1.61572,-0.0494 3.36928,-0.05835 3.99976,0.84184c0.80953,1.15586 0.07366,2.48727 -0.54294,3.80514c5.76732,-0.0881 10.32037,0.56181 15.69004,1.99581l-0.19886,-0.13792c0,0 3.03567,0 3.03567,2.16609z" fill="url(#color-3)"/><path d="M317.3542,198.38925c0,2.16608 -3.0357,2.16609 -3.0357,2.16609l-1.93295,-0.13792c-3.02278,-0.81053 -5.82743,-1.60859 -9.09381,-1.72228c-0.3735,-0.013 -8.66975,0.06628 -9.08177,-0.12519c-0.29175,-0.13559 -0.56192,-0.28808 -0.81516,-0.45386l-0.09481,0.08119l-2.58333,-1.53609c-0.67778,-0.39727 -1.11009,-0.99993 -1.11009,-1.67463c0,-0.51717 0.254,-0.99202 0.67786,-1.36447c-2.01914,-0.67727 -3.93844,-1.92292 -4.08027,-2.20838c-0.49093,-0.98813 2.2949,-3.00976 4.50334,-4.15986h-2.83403c-1.67655,0 -3.03567,-0.9698 -3.03567,-2.16609c0,-1.10321 1.15584,-2.0138 2.65055,-2.14883l2.2186,-0.22614c0.78227,-0.6929 1.00757,-1.71363 1.5225,-2.53956c-2.80115,-0.44954 -5.70707,-0.70579 -8.10387,-1.78271c-2.16337,-0.97202 -5.46903,-2.19983 -5.21194,-4.01477c0.26285,-1.85553 4.01657,-2.41182 6.25816,-3.37091c0.274,-0.11724 0.62261,-0.23882 1.00235,-0.34569c-0.68227,-0.21631 -1.307,-0.49326 -1.78662,-0.88695c-0.13663,-0.11216 -0.26504,-0.2282 -0.38629,-0.3476l-0.06101,0.03628l-2.15488,-1.8451c-0.44692,-0.37723 -0.71637,-0.86498 -0.71637,-1.39762c0,-1.19629 1.35912,-2.16609 3.03567,-2.16609h3.90171c1.62467,0.00851 3.82576,0.84396 4.87382,-0.04189c1.71015,-1.44549 0.48481,-4.45967 2.86389,-5.29437c1.63711,-0.57437 3.5612,0.59938 5.37616,0.73096c4.47609,0.3245 8.31898,-0.10403 12.42967,0.35671c0.7484,0.54485 1.59442,1.02118 2.51781,1.41461c0.40101,0.29074 0.82986,0.56184 1.28349,0.81112c0.02472,0.5827 0.6945,1.04967 1.51713,1.04967c0.08696,0 0.17224,-0.00522 0.25521,-0.01525c-0.02753,0.06623 -0.05931,0.13389 -0.09566,0.20305c-1.06591,2.02817 -3.9083,1.2676 -3.9083,1.2676c-5.0807,-1.42354 -9.89928,0.05012 -15.08263,-0.82485c-0.71953,-0.12146 -0.87328,-0.92991 -1.56024,-1.12506c-0.43086,-0.12237 0.7698,0.54863 0.66671,0.87124c-0.41882,1.31065 -0.76764,2.81073 -2.13805,3.73318c-0.9594,0.6458 -2.33728,0.95054 -3.80348,1.09123c1.49786,1.13241 2.46681,2.64048 2.04958,3.81409c-0.14326,0.403 -3.12923,1.92536 -5.91931,2.68491c0.87575,0.14115 1.74251,0.31341 2.59726,0.50401c2.14636,0.47866 4.18972,1.16672 6.28459,1.75007l0.29452,0.2995l0.11173,-0.09566l2.58333,1.53609c0.67778,0.39727 1.11009,0.99992 1.11009,1.67463c0,1.12435 -1.20056,2.04862 -2.73686,2.15573l-1.39329,0.11047c0.3045,0.56739 0.59959,1.28835 0.87944,2.19002c0.52403,1.68837 -1.1241,3.35091 -2.69254,4.81441c1.61572,-0.0494 3.36928,-0.05835 3.99974,0.84184c0.80953,1.15586 0.07366,2.48727 -0.54294,3.80514c5.76732,-0.0881 10.32036,0.56181 15.69004,1.99581l-0.19886,-0.13792c0,0 3.0357,0 3.0357,2.16609z" fill="url(#color-4)"/><path d="M320.74598,198.38925c0,2.16608 -3.0357,2.16609 -3.0357,2.16609l-1.93295,-0.13792c-3.02278,-0.81053 -5.82742,-1.60859 -9.0938,-1.72228c-0.3735,-0.013 -8.66975,0.06628 -9.08177,-0.12519c-0.29175,-0.13559 -0.56192,-0.28808 -0.81516,-0.45386l-0.0948,0.08119l-2.58333,-1.53609c-0.67778,-0.39727 -1.11009,-0.99993 -1.11009,-1.67463c0,-0.51717 0.25402,-0.99202 0.67787,-1.36447c-2.01914,-0.67727 -3.93844,-1.92292 -4.08027,-2.20838c-0.49093,-0.98813 2.29489,-3.00976 4.50334,-4.15986h-2.83403c-1.67655,0 -3.0357,-0.9698 -3.0357,-2.16609c0,-1.10321 1.15584,-2.0138 2.65055,-2.14883l2.2186,-0.22614c0.78227,-0.6929 1.00757,-1.71363 1.5225,-2.53956c-2.80115,-0.44954 -5.70707,-0.70579 -8.10387,-1.78271c-2.16337,-0.97202 -5.46903,-2.19983 -5.21194,-4.01477c0.26285,-1.85553 4.01657,-2.41182 6.25816,-3.37091c0.274,-0.11724 0.62263,-0.23882 1.00235,-0.34569c-0.68227,-0.21631 -1.307,-0.49326 -1.78662,-0.88695c-0.13663,-0.11216 -0.26504,-0.2282 -0.38629,-0.3476l-0.06101,0.03628l-2.15488,-1.8451c-0.44692,-0.37723 -0.71637,-0.86498 -0.71637,-1.39762c0,-1.19629 1.35912,-2.16609 3.03567,-2.16609h3.90173c1.62467,0.00851 3.82575,0.84396 4.87379,-0.04189c1.71015,-1.44549 0.48481,-4.45967 2.86389,-5.29437c1.63711,-0.57437 3.5612,0.59938 5.37616,0.73096c4.47609,0.3245 8.31898,-0.10403 12.42967,0.35671c0.7484,0.54485 1.5944,1.02118 2.51781,1.41461c0.40101,0.29074 0.82986,0.56184 1.28349,0.81112c0.02472,0.5827 0.6945,1.04967 1.51713,1.04967c0.08696,0 0.17223,-0.00522 0.25521,-0.01525c-0.02753,0.06623 -0.05931,0.13389 -0.09566,0.20305c-1.06591,2.02817 -3.90829,1.2676 -3.90829,1.2676c-5.0807,-1.42354 -9.8993,0.05012 -15.08263,-0.82485c-0.71953,-0.12146 -0.87325,-0.92991 -1.56024,-1.12506c-0.43086,-0.12237 0.7698,0.54863 0.66671,0.87124c-0.41882,1.31065 -0.76764,2.81073 -2.13805,3.73318c-0.9594,0.6458 -2.33728,0.95054 -3.80348,1.09123c1.49786,1.13241 2.46681,2.64048 2.04958,3.81409c-0.14326,0.403 -3.12923,1.92536 -5.91931,2.68491c0.87575,0.14115 1.74251,0.31341 2.59726,0.50401c2.14636,0.47866 4.18971,1.16672 6.28458,1.75007l0.29454,0.2995l0.11173,-0.09566l2.58333,1.53609c0.67778,0.39727 1.11009,0.99992 1.11009,1.67463c0,1.12435 -1.20056,2.04862 -2.73686,2.15573l-1.39329,0.11047c0.3045,0.56739 0.5996,1.28835 0.87945,2.19002c0.52403,1.68837 -1.1241,3.35091 -2.69254,4.81441c1.61572,-0.0494 3.36928,-0.05835 3.99976,0.84184c0.80953,1.15586 0.07366,2.48727 -0.54294,3.80514c5.76732,-0.0881 10.32037,0.56181 15.69004,1.99581l-0.19886,-0.13792c0,0 3.0357,0 3.0357,2.16609z" fill="url(#color-5)"/><path d="M324.13778,198.38925c0,2.16608 -3.03567,2.16609 -3.03567,2.16609l-1.93295,-0.13792c-3.02278,-0.81053 -5.82742,-1.60859 -9.0938,-1.72228c-0.3735,-0.013 -8.66972,0.06628 -9.08175,-0.12519c-0.29175,-0.13559 -0.56192,-0.28808 -0.81516,-0.45386l-0.0948,0.08119l-2.58335,-1.53609c-0.67778,-0.39727 -1.11009,-0.99993 -1.11009,-1.67463c0,-0.51717 0.25402,-0.99202 0.67787,-1.36447c-2.01914,-0.67727 -3.93844,-1.92292 -4.08027,-2.20838c-0.49093,-0.98813 2.29489,-3.00976 4.50334,-4.15986h-2.83403c-1.67655,0 -3.03567,-0.9698 -3.03567,-2.16609c0,-1.10321 1.15584,-2.0138 2.65055,-2.14883l2.2186,-0.22614c0.78227,-0.6929 1.00757,-1.71363 1.5225,-2.53956c-2.80115,-0.44954 -5.70708,-0.70579 -8.10387,-1.78271c-2.16337,-0.97202 -5.46902,-2.19983 -5.21193,-4.01477c0.26285,-1.85553 4.01657,-2.41182 6.25816,-3.37091c0.274,-0.11724 0.6226,-0.23882 1.00235,-0.34569c-0.68227,-0.21631 -1.307,-0.49326 -1.78662,-0.88695c-0.13663,-0.11216 -0.26504,-0.2282 -0.38629,-0.3476l-0.06101,0.03628l-2.15488,-1.8451c-0.44692,-0.37723 -0.71637,-0.86498 -0.71637,-1.39762c0,-1.19629 1.35912,-2.16609 3.0357,-2.16609h3.90171c1.62467,0.00851 3.82575,0.84396 4.87378,-0.04189c1.71015,-1.44549 0.48482,-4.45967 2.8639,-5.29437c1.63711,-0.57437 3.5612,0.59938 5.37616,0.73096c4.47609,0.3245 8.31898,-0.10403 12.42967,0.35671c0.7484,0.54485 1.59442,1.02118 2.51781,1.41461c0.40101,0.29074 0.82986,0.56184 1.28349,0.81112c0.02472,0.5827 0.6945,1.04967 1.51713,1.04967c0.08696,0 0.17222,-0.00522 0.25519,-0.01525c-0.02753,0.06623 -0.05931,0.13389 -0.09566,0.20305c-1.06591,2.02817 -3.90829,1.2676 -3.90829,1.2676c-5.0807,-1.42354 -9.8993,0.05012 -15.08263,-0.82485c-0.71953,-0.12146 -0.87325,-0.92991 -1.56024,-1.12506c-0.43086,-0.12237 0.7698,0.54863 0.66671,0.87124c-0.41882,1.31065 -0.76764,2.81073 -2.13805,3.73318c-0.9594,0.6458 -2.33728,0.95054 -3.80348,1.09123c1.49786,1.13241 2.46681,2.64048 2.04957,3.81409c-0.14326,0.403 -3.12923,1.92536 -5.9193,2.68491c0.87575,0.14115 1.74251,0.31341 2.59727,0.50401c2.14636,0.47866 4.18972,1.16672 6.28459,1.75007l0.29452,0.2995l0.11173,-0.09566l2.58333,1.53609c0.67778,0.39727 1.11009,0.99992 1.11009,1.67463c0,1.12435 -1.20056,2.04862 -2.73686,2.15573l-1.39329,0.11047c0.3045,0.56739 0.59959,1.28835 0.87944,2.19002c0.52403,1.68837 -1.1241,3.35091 -2.69254,4.81441c1.61572,-0.0494 3.36928,-0.05835 3.99976,0.84184c0.80953,1.15586 0.07366,2.48727 -0.54294,3.80514c5.76732,-0.0881 10.32037,0.56181 15.69004,1.99581l-0.19886,-0.13792c0,0 3.03567,0 3.03567,2.16609z" fill="url(#color-6)"/><path d="M327.52958,198.38925c0,2.16608 -3.0357,2.16609 -3.0357,2.16609l-1.93295,-0.13792c-3.02278,-0.81053 -5.82742,-1.60859 -9.0938,-1.72228c-0.3735,-0.013 -8.66975,0.06628 -9.08177,-0.12519c-0.29175,-0.13559 -0.56192,-0.28808 -0.81516,-0.45386l-0.0948,0.08119l-2.58333,-1.53609c-0.67778,-0.39727 -1.11009,-0.99993 -1.11009,-1.67463c0,-0.51717 0.254,-0.99202 0.67787,-1.36447c-2.01914,-0.67727 -3.93844,-1.92292 -4.08027,-2.20838c-0.49093,-0.98813 2.29489,-3.00976 4.50334,-4.15986h-2.83403c-1.67655,0 -3.03567,-0.9698 -3.03567,-2.16609c0,-1.10321 1.15584,-2.0138 2.65055,-2.14883l2.2186,-0.22614c0.78227,-0.6929 1.00757,-1.71363 1.5225,-2.53956c-2.80115,-0.44954 -5.70707,-0.70579 -8.10387,-1.78271c-2.16337,-0.97202 -5.46903,-2.19983 -5.21194,-4.01477c0.26285,-1.85553 4.01657,-2.41182 6.25816,-3.37091c0.274,-0.11724 0.6226,-0.23882 1.00235,-0.34569c-0.68227,-0.21631 -1.307,-0.49326 -1.78661,-0.88695c-0.13663,-0.11216 -0.26504,-0.2282 -0.3863,-0.3476l-0.06101,0.03628l-2.15488,-1.8451c-0.44692,-0.37723 -0.71637,-0.86498 -0.71637,-1.39762c0,-1.19629 1.35912,-2.16609 3.03567,-2.16609h3.90171c1.62467,0.00851 3.82576,0.84396 4.87381,-0.04189c1.71015,-1.44549 0.48482,-4.45967 2.8639,-5.29437c1.63711,-0.57437 3.5612,0.59938 5.37616,0.73096c4.47609,0.3245 8.31897,-0.10403 12.42966,0.35671c0.7484,0.54485 1.59442,1.02118 2.51781,1.41461c0.40101,0.29074 0.82986,0.56184 1.28349,0.81112c0.02472,0.5827 0.6945,1.04967 1.51713,1.04967c0.08696,0 0.17223,-0.00522 0.25521,-0.01525c-0.02753,0.06623 -0.05931,0.13389 -0.09566,0.20305c-1.06591,2.02817 -3.9083,1.2676 -3.9083,1.2676c-5.0807,-1.42354 -9.89928,0.05012 -15.08263,-0.82485c-0.71953,-0.12146 -0.87329,-0.92991 -1.56024,-1.12506c-0.43086,-0.12237 0.7698,0.54863 0.66671,0.87124c-0.41882,1.31065 -0.76764,2.81073 -2.13805,3.73318c-0.9594,0.6458 -2.33728,0.95054 -3.80348,1.09123c1.49786,1.13241 2.46681,2.64048 2.04957,3.81409c-0.14326,0.403 -3.12923,1.92536 -5.9193,2.68491c0.87575,0.14115 1.74251,0.31341 2.59726,0.50401c2.14636,0.47866 4.18971,1.16672 6.28458,1.75007l0.29452,0.2995l0.11173,-0.09566l2.58333,1.53609c0.67778,0.39727 1.11009,0.99992 1.11009,1.67463c0,1.12435 -1.20056,2.04862 -2.73686,2.15573l-1.39329,0.11047c0.3045,0.56739 0.59958,1.28835 0.87943,2.19002c0.52403,1.68837 -1.1241,3.35091 -2.69254,4.81441c1.61572,-0.0494 3.36928,-0.05835 3.99973,0.84184c0.80953,1.15586 0.07366,2.48727 -0.54294,3.80514c5.76732,-0.0881 10.32036,0.56181 15.69004,1.99581l-0.19886,-0.13792c0,0 3.0357,0 3.0357,2.16609z" fill="url(#color-7)"/></g><path d="M327.50266,163.35298v36.09375h-16.46673v-36.09375z" fill="#ff4200" stroke-width="0"/></g><path d="M299.91364,180.02799c0,-11.82634 9.58714,-21.41348 21.41348,-21.41348c11.82634,0 21.41348,9.58714 21.41348,21.41348c0,11.82634 -9.58714,21.41348 -21.41348,21.41348c-11.82634,0 -21.41348,-9.58714 -21.41348,-21.41348z" fill="url(#color-8)" stroke-width="0"/><path d="M266.16666,179.55694c0,-25.58919 20.74414,-46.33333 46.33333,-46.33333c25.58919,0 46.33333,20.74414 46.33333,46.33333c0,25.58919 -20.74414,46.33333 -46.33333,46.33333c-25.58919,0 -46.33333,-20.74414 -46.33333,-46.33333z" fill="url(#color-9)" stroke-width="0"/></g></g></svg>