<svg version="1.1" xmlns="http://www.w3.org/2000/svg" xmlns:xlink="http://www.w3.org/1999/xlink" width="113" height="81.03372" viewBox="0,0,113,81.03372"><g transform="translate(-263.49995,-263.35761)"><g data-paper-data="{&quot;isPaintingLayer&quot;:true}" fill-rule="nonzero" stroke="none" stroke-linecap="butt" stroke-linejoin="miter" stroke-miterlimit="10" stroke-dasharray="" stroke-dashoffset="0" style="mix-blend-mode: normal"><path d="M263.49995,333.39133c0,-17.27283 0,-49.74409 0,-59c0,-4.83806 7.35653,-10 14.2352,-10c13.42156,0 61.15402,0 85,0c8.3451,0 13.7648,5.75919 13.7648,11c0,8.91413 0,37.54448 0,55c0,8.24729 -8.87946,14 -16.7648,14c-13.99325,0 -60.05269,0 -83,0c-8.03412,0 -13.2352,-4.38567 -13.2352,-11z" fill="#101b33" stroke-width="0"/><text transform="translate(268.69962,285.42415) scale(0.41878,0.43621)" font-size="40" xml:space="preserve" fill-opacity="0.70196" fill="#0082fc" fill-rule="nonzero" stroke="none" stroke-width="1" stroke-linecap="butt" stroke-linejoin="miter" stroke-miterlimit="10" stroke-dasharray="" stroke-dashoffset="0" font-family="Pixel" font-weight="normal" text-anchor="start" style="mix-blend-mode: normal"><tspan x="0" dy="0">Ancient key</tspan></text><text transform="translate(266.57122,301.14169) scale(0.18747,0.18747)" font-size="40" xml:space="preserve" fill="#ffad00" fill-rule="nonzero" stroke="none" stroke-width="1" stroke-linecap="butt" stroke-linejoin="miter" stroke-miterlimit="10" stroke-dasharray="" stroke-dashoffset="0" font-family="Pixel" font-weight="normal" text-anchor="start" style="mix-blend-mode: normal"><tspan x="0" dy="0">"The key seems to possess</tspan><tspan x="0" dy="48px">some kind of ancient</tspan><tspan x="0" dy="48px">power... Maybe using it will</tspan><tspan x="0" dy="48px">unlock something..."</tspan></text></g></g></svg>