<svg version="1.1" xmlns="http://www.w3.org/2000/svg" xmlns:xlink="http://www.w3.org/1999/xlink" width="1054.64764" height="219.02995" viewBox="0,0,1054.64764,219.02995"><defs><linearGradient x1="345.85758" y1="172.62006" x2="376.97577" y2="169.68008" gradientUnits="userSpaceOnUse" id="color-1"><stop offset="0" stop-color="#0042ce" stop-opacity="0"/><stop offset="1" stop-color="#0042ce"/></linearGradient><linearGradient x1="366.76448" y1="170.64482" x2="397.88267" y2="167.70484" gradientUnits="userSpaceOnUse" id="color-2"><stop offset="0" stop-color="#334c81" stop-opacity="0"/><stop offset="1" stop-color="#334c81"/></linearGradient><linearGradient x1="382.32358" y1="169.17483" x2="413.44176" y2="166.23484" gradientUnits="userSpaceOnUse" id="color-3"><stop offset="0" stop-color="#0052ff" stop-opacity="0"/><stop offset="1" stop-color="#0052ff"/></linearGradient><linearGradient x1="397.88267" y1="167.70484" x2="429.00086" y2="164.76485" gradientUnits="userSpaceOnUse" id="color-4"><stop offset="0" stop-color="#008fff" stop-opacity="0"/><stop offset="1" stop-color="#008fff"/></linearGradient><linearGradient x1="413.44176" y1="166.23484" x2="444.55995" y2="163.29486" gradientUnits="userSpaceOnUse" id="color-5"><stop offset="0" stop-color="#1265a7" stop-opacity="0"/><stop offset="1" stop-color="#1265a7"/></linearGradient><linearGradient x1="429.98296" y1="164.67206" x2="461.10115" y2="161.73208" gradientUnits="userSpaceOnUse" id="color-6"><stop offset="0" stop-color="#0042ce" stop-opacity="0"/><stop offset="1" stop-color="#0042ce"/></linearGradient><linearGradient x1="450.88986" y1="162.69682" x2="482.00805" y2="159.75683" gradientUnits="userSpaceOnUse" id="color-7"><stop offset="0" stop-color="#334c81" stop-opacity="0"/><stop offset="1" stop-color="#334c81"/></linearGradient><linearGradient x1="466.44895" y1="161.22683" x2="497.56714" y2="158.28684" gradientUnits="userSpaceOnUse" id="color-8"><stop offset="0" stop-color="#0052ff" stop-opacity="0"/><stop offset="1" stop-color="#0052ff"/></linearGradient><linearGradient x1="482.00805" y1="159.75683" x2="513.12623" y2="156.81685" gradientUnits="userSpaceOnUse" id="color-9"><stop offset="0" stop-color="#008fff" stop-opacity="0"/><stop offset="1" stop-color="#008fff"/></linearGradient><linearGradient x1="497.56714" y1="158.28684" x2="528.68533" y2="155.34686" gradientUnits="userSpaceOnUse" id="color-10"><stop offset="0" stop-color="#1265a7" stop-opacity="0"/><stop offset="1" stop-color="#1265a7"/></linearGradient><linearGradient x1="512.61499" y1="156.86515" x2="543.73318" y2="153.92516" gradientUnits="userSpaceOnUse" id="color-11"><stop offset="0" stop-color="#0042ce" stop-opacity="0"/><stop offset="1" stop-color="#0042ce"/></linearGradient><linearGradient x1="533.52189" y1="154.88991" x2="564.64008" y2="151.94992" gradientUnits="userSpaceOnUse" id="color-12"><stop offset="0" stop-color="#334c81" stop-opacity="0"/><stop offset="1" stop-color="#334c81"/></linearGradient><linearGradient x1="549.08098" y1="153.41991" x2="580.19917" y2="150.47993" gradientUnits="userSpaceOnUse" id="color-13"><stop offset="0" stop-color="#0052ff" stop-opacity="0"/><stop offset="1" stop-color="#0052ff"/></linearGradient><linearGradient x1="564.64008" y1="151.94992" x2="595.75826" y2="149.00994" gradientUnits="userSpaceOnUse" id="color-14"><stop offset="0" stop-color="#008fff" stop-opacity="0"/><stop offset="1" stop-color="#008fff"/></linearGradient><linearGradient x1="580.19917" y1="150.47993" x2="611.31736" y2="147.53994" gradientUnits="userSpaceOnUse" id="color-15"><stop offset="0" stop-color="#1265a7" stop-opacity="0"/><stop offset="1" stop-color="#1265a7"/></linearGradient><linearGradient x1="594.55752" y1="149.12338" x2="625.67571" y2="146.18339" gradientUnits="userSpaceOnUse" id="color-16"><stop offset="0" stop-color="#0042ce" stop-opacity="0"/><stop offset="1" stop-color="#0042ce"/></linearGradient><linearGradient x1="615.46442" y1="147.14814" x2="646.5826" y2="144.20815" gradientUnits="userSpaceOnUse" id="color-17"><stop offset="0" stop-color="#334c81" stop-opacity="0"/><stop offset="1" stop-color="#334c81"/></linearGradient><linearGradient x1="631.02351" y1="145.67814" x2="662.1417" y2="142.73816" gradientUnits="userSpaceOnUse" id="color-18"><stop offset="0" stop-color="#0052ff" stop-opacity="0"/><stop offset="1" stop-color="#0052ff"/></linearGradient><linearGradient x1="646.5826" y1="144.20815" x2="677.70079" y2="141.26817" gradientUnits="userSpaceOnUse" id="color-19"><stop offset="0" stop-color="#008fff" stop-opacity="0"/><stop offset="1" stop-color="#008fff"/></linearGradient><linearGradient x1="662.1417" y1="142.73816" x2="693.25988" y2="139.79817" gradientUnits="userSpaceOnUse" id="color-20"><stop offset="0" stop-color="#1265a7" stop-opacity="0"/><stop offset="1" stop-color="#1265a7"/></linearGradient><linearGradient x1="678.6829" y1="141.17538" x2="709.80108" y2="138.23539" gradientUnits="userSpaceOnUse" id="color-21"><stop offset="0" stop-color="#0042ce" stop-opacity="0"/><stop offset="1" stop-color="#0042ce"/></linearGradient><linearGradient x1="699.5898" y1="139.20014" x2="730.70798" y2="136.26015" gradientUnits="userSpaceOnUse" id="color-22"><stop offset="0" stop-color="#334c81" stop-opacity="0"/><stop offset="1" stop-color="#334c81"/></linearGradient><linearGradient x1="715.14889" y1="137.73014" x2="746.26708" y2="134.79016" gradientUnits="userSpaceOnUse" id="color-23"><stop offset="0" stop-color="#0052ff" stop-opacity="0"/><stop offset="1" stop-color="#0052ff"/></linearGradient><linearGradient x1="730.70798" y1="136.26015" x2="761.82617" y2="133.32016" gradientUnits="userSpaceOnUse" id="color-24"><stop offset="0" stop-color="#008fff" stop-opacity="0"/><stop offset="1" stop-color="#008fff"/></linearGradient><linearGradient x1="746.26708" y1="134.79016" x2="777.38526" y2="131.85017" gradientUnits="userSpaceOnUse" id="color-25"><stop offset="0" stop-color="#1265a7" stop-opacity="0"/><stop offset="1" stop-color="#1265a7"/></linearGradient><linearGradient x1="761.31493" y1="133.36847" x2="792.43311" y2="130.42848" gradientUnits="userSpaceOnUse" id="color-26"><stop offset="0" stop-color="#0042ce" stop-opacity="0"/><stop offset="1" stop-color="#0042ce"/></linearGradient><linearGradient x1="782.22182" y1="131.39322" x2="813.34001" y2="128.45324" gradientUnits="userSpaceOnUse" id="color-27"><stop offset="0" stop-color="#334c81" stop-opacity="0"/><stop offset="1" stop-color="#334c81"/></linearGradient><linearGradient x1="797.78092" y1="129.92323" x2="828.8991" y2="126.98324" gradientUnits="userSpaceOnUse" id="color-28"><stop offset="0" stop-color="#0052ff" stop-opacity="0"/><stop offset="1" stop-color="#0052ff"/></linearGradient><linearGradient x1="813.34001" y1="128.45324" x2="844.4582" y2="125.51325" gradientUnits="userSpaceOnUse" id="color-29"><stop offset="0" stop-color="#008fff" stop-opacity="0"/><stop offset="1" stop-color="#008fff"/></linearGradient><linearGradient x1="828.8991" y1="126.98324" x2="860.01729" y2="124.04326" gradientUnits="userSpaceOnUse" id="color-30"><stop offset="0" stop-color="#1265a7" stop-opacity="0"/><stop offset="1" stop-color="#1265a7"/></linearGradient><linearGradient x1="860.01729" y1="124.04326" x2="891.13548" y2="121.10327" gradientUnits="userSpaceOnUse" id="color-31"><stop offset="0" stop-color="#0042ce" stop-opacity="0"/><stop offset="1" stop-color="#0042ce"/></linearGradient><linearGradient x1="880.92419" y1="122.06802" x2="912.04238" y2="119.12803" gradientUnits="userSpaceOnUse" id="color-32"><stop offset="0" stop-color="#334c81" stop-opacity="0"/><stop offset="1" stop-color="#334c81"/></linearGradient><linearGradient x1="896.48328" y1="120.59802" x2="927.60147" y2="117.65804" gradientUnits="userSpaceOnUse" id="color-33"><stop offset="0" stop-color="#0052ff" stop-opacity="0"/><stop offset="1" stop-color="#0052ff"/></linearGradient><linearGradient x1="912.04238" y1="119.12803" x2="943.16056" y2="116.18804" gradientUnits="userSpaceOnUse" id="color-34"><stop offset="0" stop-color="#008fff" stop-opacity="0"/><stop offset="1" stop-color="#008fff"/></linearGradient><linearGradient x1="927.60147" y1="117.65804" x2="958.71966" y2="114.71805" gradientUnits="userSpaceOnUse" id="color-35"><stop offset="0" stop-color="#1265a7" stop-opacity="0"/><stop offset="1" stop-color="#1265a7"/></linearGradient><linearGradient x1="944.14267" y1="116.09526" x2="975.26086" y2="113.15527" gradientUnits="userSpaceOnUse" id="color-36"><stop offset="0" stop-color="#0042ce" stop-opacity="0"/><stop offset="1" stop-color="#0042ce"/></linearGradient><linearGradient x1="965.04957" y1="114.12001" x2="996.16775" y2="111.18003" gradientUnits="userSpaceOnUse" id="color-37"><stop offset="0" stop-color="#334c81" stop-opacity="0"/><stop offset="1" stop-color="#334c81"/></linearGradient><linearGradient x1="980.60866" y1="112.65002" x2="1011.72685" y2="109.71004" gradientUnits="userSpaceOnUse" id="color-38"><stop offset="0" stop-color="#0052ff" stop-opacity="0"/><stop offset="1" stop-color="#0052ff"/></linearGradient><linearGradient x1="996.16775" y1="111.18003" x2="1027.28594" y2="108.24004" gradientUnits="userSpaceOnUse" id="color-39"><stop offset="0" stop-color="#008fff" stop-opacity="0"/><stop offset="1" stop-color="#008fff"/></linearGradient><linearGradient x1="1011.72685" y1="109.71004" x2="1042.84503" y2="106.77005" gradientUnits="userSpaceOnUse" id="color-40"><stop offset="0" stop-color="#1265a7" stop-opacity="0"/><stop offset="1" stop-color="#1265a7"/></linearGradient><linearGradient x1="1026.7747" y1="108.28834" x2="1057.89288" y2="105.34836" gradientUnits="userSpaceOnUse" id="color-41"><stop offset="0" stop-color="#0042ce" stop-opacity="0"/><stop offset="1" stop-color="#0042ce"/></linearGradient><linearGradient x1="1047.6816" y1="106.3131" x2="1078.79978" y2="103.37312" gradientUnits="userSpaceOnUse" id="color-42"><stop offset="0" stop-color="#334c81" stop-opacity="0"/><stop offset="1" stop-color="#334c81"/></linearGradient><linearGradient x1="1063.24069" y1="104.84311" x2="1094.35888" y2="101.90312" gradientUnits="userSpaceOnUse" id="color-43"><stop offset="0" stop-color="#0052ff" stop-opacity="0"/><stop offset="1" stop-color="#0052ff"/></linearGradient><linearGradient x1="1078.79978" y1="103.37312" x2="1109.91797" y2="100.43313" gradientUnits="userSpaceOnUse" id="color-44"><stop offset="0" stop-color="#008fff" stop-opacity="0"/><stop offset="1" stop-color="#008fff"/></linearGradient><linearGradient x1="1094.35888" y1="101.90312" x2="1125.47706" y2="98.96314" gradientUnits="userSpaceOnUse" id="color-45"><stop offset="0" stop-color="#1265a7" stop-opacity="0"/><stop offset="1" stop-color="#1265a7"/></linearGradient><linearGradient x1="1108.71723" y1="100.54657" x2="1139.83541" y2="97.60659" gradientUnits="userSpaceOnUse" id="color-46"><stop offset="0" stop-color="#0042ce" stop-opacity="0"/><stop offset="1" stop-color="#0042ce"/></linearGradient><linearGradient x1="1129.62413" y1="98.57133" x2="1160.74231" y2="95.63135" gradientUnits="userSpaceOnUse" id="color-47"><stop offset="0" stop-color="#334c81" stop-opacity="0"/><stop offset="1" stop-color="#334c81"/></linearGradient><linearGradient x1="1145.18322" y1="97.10134" x2="1176.30141" y2="94.16135" gradientUnits="userSpaceOnUse" id="color-48"><stop offset="0" stop-color="#0052ff" stop-opacity="0"/><stop offset="1" stop-color="#0052ff"/></linearGradient><linearGradient x1="1160.74231" y1="95.63135" x2="1191.8605" y2="92.69136" gradientUnits="userSpaceOnUse" id="color-49"><stop offset="0" stop-color="#008fff" stop-opacity="0"/><stop offset="1" stop-color="#008fff"/></linearGradient><linearGradient x1="1176.30141" y1="94.16135" x2="1207.41959" y2="91.22137" gradientUnits="userSpaceOnUse" id="color-50"><stop offset="0" stop-color="#1265a7" stop-opacity="0"/><stop offset="1" stop-color="#1265a7"/></linearGradient><linearGradient x1="1192.8426" y1="92.59857" x2="1223.96079" y2="89.65859" gradientUnits="userSpaceOnUse" id="color-51"><stop offset="0" stop-color="#0042ce" stop-opacity="0"/><stop offset="1" stop-color="#0042ce"/></linearGradient><linearGradient x1="1213.7495" y1="90.62333" x2="1244.86769" y2="87.68334" gradientUnits="userSpaceOnUse" id="color-52"><stop offset="0" stop-color="#334c81" stop-opacity="0"/><stop offset="1" stop-color="#334c81"/></linearGradient><linearGradient x1="1229.3086" y1="89.15334" x2="1260.42678" y2="86.21335" gradientUnits="userSpaceOnUse" id="color-53"><stop offset="0" stop-color="#0052ff" stop-opacity="0"/><stop offset="1" stop-color="#0052ff"/></linearGradient><linearGradient x1="1244.86769" y1="87.68334" x2="1275.98588" y2="84.74336" gradientUnits="userSpaceOnUse" id="color-54"><stop offset="0" stop-color="#008fff" stop-opacity="0"/><stop offset="1" stop-color="#008fff"/></linearGradient><linearGradient x1="1260.42678" y1="86.21335" x2="1291.54497" y2="83.27337" gradientUnits="userSpaceOnUse" id="color-55"><stop offset="0" stop-color="#1265a7" stop-opacity="0"/><stop offset="1" stop-color="#1265a7"/></linearGradient><linearGradient x1="1275.47463" y1="84.79166" x2="1306.59282" y2="81.85167" gradientUnits="userSpaceOnUse" id="color-56"><stop offset="0" stop-color="#0042ce" stop-opacity="0"/><stop offset="1" stop-color="#0042ce"/></linearGradient><linearGradient x1="1296.38153" y1="82.81642" x2="1327.49972" y2="79.87643" gradientUnits="userSpaceOnUse" id="color-57"><stop offset="0" stop-color="#334c81" stop-opacity="0"/><stop offset="1" stop-color="#334c81"/></linearGradient><linearGradient x1="1311.94063" y1="81.34642" x2="1343.05881" y2="78.40644" gradientUnits="userSpaceOnUse" id="color-58"><stop offset="0" stop-color="#0052ff" stop-opacity="0"/><stop offset="1" stop-color="#0052ff"/></linearGradient><linearGradient x1="1327.49972" y1="79.87643" x2="1358.61791" y2="76.93645" gradientUnits="userSpaceOnUse" id="color-59"><stop offset="0" stop-color="#008fff" stop-opacity="0"/><stop offset="1" stop-color="#008fff"/></linearGradient><linearGradient x1="1343.05881" y1="78.40644" x2="1374.177" y2="75.46645" gradientUnits="userSpaceOnUse" id="color-60"><stop offset="0" stop-color="#1265a7" stop-opacity="0"/><stop offset="1" stop-color="#1265a7"/></linearGradient><linearGradient x1="345.85759" y1="187.37994" x2="376.97577" y2="190.31992" gradientUnits="userSpaceOnUse" id="color-61"><stop offset="0" stop-color="#0042ce" stop-opacity="0"/><stop offset="1" stop-color="#0042ce"/></linearGradient><linearGradient x1="366.76449" y1="189.35518" x2="397.88267" y2="192.29517" gradientUnits="userSpaceOnUse" id="color-62"><stop offset="0" stop-color="#334c81" stop-opacity="0"/><stop offset="1" stop-color="#334c81"/></linearGradient><linearGradient x1="382.32358" y1="190.82517" x2="413.44176" y2="193.76516" gradientUnits="userSpaceOnUse" id="color-63"><stop offset="0" stop-color="#0052ff" stop-opacity="0"/><stop offset="1" stop-color="#0052ff"/></linearGradient><linearGradient x1="397.88267" y1="192.29517" x2="429.00086" y2="195.23515" gradientUnits="userSpaceOnUse" id="color-64"><stop offset="0" stop-color="#008fff" stop-opacity="0"/><stop offset="1" stop-color="#008fff"/></linearGradient><linearGradient x1="413.44176" y1="193.76516" x2="444.55995" y2="196.70515" gradientUnits="userSpaceOnUse" id="color-65"><stop offset="0" stop-color="#1265a7" stop-opacity="0"/><stop offset="1" stop-color="#1265a7"/></linearGradient><linearGradient x1="429.98296" y1="195.32794" x2="461.10115" y2="198.26793" gradientUnits="userSpaceOnUse" id="color-66"><stop offset="0" stop-color="#0042ce" stop-opacity="0"/><stop offset="1" stop-color="#0042ce"/></linearGradient><linearGradient x1="450.88986" y1="197.30318" x2="482.00805" y2="200.24317" gradientUnits="userSpaceOnUse" id="color-67"><stop offset="0" stop-color="#334c81" stop-opacity="0"/><stop offset="1" stop-color="#334c81"/></linearGradient><linearGradient x1="466.44896" y1="198.77318" x2="497.56714" y2="201.71316" gradientUnits="userSpaceOnUse" id="color-68"><stop offset="0" stop-color="#0052ff" stop-opacity="0"/><stop offset="1" stop-color="#0052ff"/></linearGradient><linearGradient x1="482.00805" y1="200.24317" x2="513.12623" y2="203.18315" gradientUnits="userSpaceOnUse" id="color-69"><stop offset="0" stop-color="#008fff" stop-opacity="0"/><stop offset="1" stop-color="#008fff"/></linearGradient><linearGradient x1="497.56714" y1="201.71316" x2="528.68533" y2="204.65315" gradientUnits="userSpaceOnUse" id="color-70"><stop offset="0" stop-color="#1265a7" stop-opacity="0"/><stop offset="1" stop-color="#1265a7"/></linearGradient><linearGradient x1="512.61499" y1="203.13485" x2="543.73317" y2="206.07484" gradientUnits="userSpaceOnUse" id="color-71"><stop offset="0" stop-color="#0042ce" stop-opacity="0"/><stop offset="1" stop-color="#0042ce"/></linearGradient><linearGradient x1="533.52189" y1="205.1101" x2="564.64008" y2="208.05008" gradientUnits="userSpaceOnUse" id="color-72"><stop offset="0" stop-color="#334c81" stop-opacity="0"/><stop offset="1" stop-color="#334c81"/></linearGradient><linearGradient x1="549.08099" y1="206.58009" x2="580.19917" y2="209.52007" gradientUnits="userSpaceOnUse" id="color-73"><stop offset="0" stop-color="#0052ff" stop-opacity="0"/><stop offset="1" stop-color="#0052ff"/></linearGradient><linearGradient x1="564.64008" y1="208.05008" x2="595.75826" y2="210.99007" gradientUnits="userSpaceOnUse" id="color-74"><stop offset="0" stop-color="#008fff" stop-opacity="0"/><stop offset="1" stop-color="#008fff"/></linearGradient><linearGradient x1="580.19917" y1="209.52007" x2="611.31736" y2="212.46006" gradientUnits="userSpaceOnUse" id="color-75"><stop offset="0" stop-color="#1265a7" stop-opacity="0"/><stop offset="1" stop-color="#1265a7"/></linearGradient><linearGradient x1="594.55752" y1="210.87662" x2="625.67571" y2="213.81661" gradientUnits="userSpaceOnUse" id="color-76"><stop offset="0" stop-color="#0042ce" stop-opacity="0"/><stop offset="1" stop-color="#0042ce"/></linearGradient><linearGradient x1="615.46442" y1="212.85187" x2="646.5826" y2="215.79185" gradientUnits="userSpaceOnUse" id="color-77"><stop offset="0" stop-color="#334c81" stop-opacity="0"/><stop offset="1" stop-color="#334c81"/></linearGradient><linearGradient x1="631.02351" y1="214.32186" x2="662.1417" y2="217.26184" gradientUnits="userSpaceOnUse" id="color-78"><stop offset="0" stop-color="#0052ff" stop-opacity="0"/><stop offset="1" stop-color="#0052ff"/></linearGradient><linearGradient x1="646.5826" y1="215.79185" x2="677.70079" y2="218.73184" gradientUnits="userSpaceOnUse" id="color-79"><stop offset="0" stop-color="#008fff" stop-opacity="0"/><stop offset="1" stop-color="#008fff"/></linearGradient><linearGradient x1="662.1417" y1="217.26184" x2="693.25989" y2="220.20183" gradientUnits="userSpaceOnUse" id="color-80"><stop offset="0" stop-color="#1265a7" stop-opacity="0"/><stop offset="1" stop-color="#1265a7"/></linearGradient><linearGradient x1="678.6829" y1="218.82462" x2="709.80109" y2="221.76461" gradientUnits="userSpaceOnUse" id="color-81"><stop offset="0" stop-color="#0042ce" stop-opacity="0"/><stop offset="1" stop-color="#0042ce"/></linearGradient><linearGradient x1="699.5898" y1="220.79987" x2="730.70799" y2="223.73985" gradientUnits="userSpaceOnUse" id="color-82"><stop offset="0" stop-color="#334c81" stop-opacity="0"/><stop offset="1" stop-color="#334c81"/></linearGradient><linearGradient x1="715.14889" y1="222.26986" x2="746.26708" y2="225.20985" gradientUnits="userSpaceOnUse" id="color-83"><stop offset="0" stop-color="#0052ff" stop-opacity="0"/><stop offset="1" stop-color="#0052ff"/></linearGradient><linearGradient x1="730.70799" y1="223.73985" x2="761.82617" y2="226.67984" gradientUnits="userSpaceOnUse" id="color-84"><stop offset="0" stop-color="#008fff" stop-opacity="0"/><stop offset="1" stop-color="#008fff"/></linearGradient><linearGradient x1="746.26708" y1="225.20985" x2="777.38527" y2="228.14983" gradientUnits="userSpaceOnUse" id="color-85"><stop offset="0" stop-color="#1265a7" stop-opacity="0"/><stop offset="1" stop-color="#1265a7"/></linearGradient><linearGradient x1="761.31493" y1="226.63154" x2="792.43312" y2="229.57152" gradientUnits="userSpaceOnUse" id="color-86"><stop offset="0" stop-color="#0042ce" stop-opacity="0"/><stop offset="1" stop-color="#0042ce"/></linearGradient><linearGradient x1="782.22183" y1="228.60678" x2="813.34001" y2="231.54677" gradientUnits="userSpaceOnUse" id="color-87"><stop offset="0" stop-color="#334c81" stop-opacity="0"/><stop offset="1" stop-color="#334c81"/></linearGradient><linearGradient x1="797.78092" y1="230.07677" x2="828.89911" y2="233.01675" gradientUnits="userSpaceOnUse" id="color-88"><stop offset="0" stop-color="#0052ff" stop-opacity="0"/><stop offset="1" stop-color="#0052ff"/></linearGradient><linearGradient x1="813.34001" y1="231.54677" x2="844.4582" y2="234.48675" gradientUnits="userSpaceOnUse" id="color-89"><stop offset="0" stop-color="#008fff" stop-opacity="0"/><stop offset="1" stop-color="#008fff"/></linearGradient><linearGradient x1="828.89911" y1="233.01675" x2="860.01729" y2="235.95674" gradientUnits="userSpaceOnUse" id="color-90"><stop offset="0" stop-color="#1265a7" stop-opacity="0"/><stop offset="1" stop-color="#1265a7"/></linearGradient><linearGradient x1="860.01729" y1="235.95674" x2="891.13548" y2="238.89673" gradientUnits="userSpaceOnUse" id="color-91"><stop offset="0" stop-color="#0042ce" stop-opacity="0"/><stop offset="1" stop-color="#0042ce"/></linearGradient><linearGradient x1="880.92419" y1="237.93199" x2="912.04238" y2="240.87197" gradientUnits="userSpaceOnUse" id="color-92"><stop offset="0" stop-color="#334c81" stop-opacity="0"/><stop offset="1" stop-color="#334c81"/></linearGradient><linearGradient x1="896.48329" y1="239.40197" x2="927.60147" y2="242.34197" gradientUnits="userSpaceOnUse" id="color-93"><stop offset="0" stop-color="#0052ff" stop-opacity="0"/><stop offset="1" stop-color="#0052ff"/></linearGradient><linearGradient x1="912.04238" y1="240.87197" x2="943.16057" y2="243.81195" gradientUnits="userSpaceOnUse" id="color-94"><stop offset="0" stop-color="#008fff" stop-opacity="0"/><stop offset="1" stop-color="#008fff"/></linearGradient><linearGradient x1="927.60147" y1="242.34197" x2="958.71966" y2="245.28195" gradientUnits="userSpaceOnUse" id="color-95"><stop offset="0" stop-color="#1265a7" stop-opacity="0"/><stop offset="1" stop-color="#1265a7"/></linearGradient><linearGradient x1="944.14267" y1="243.90475" x2="975.26086" y2="246.84473" gradientUnits="userSpaceOnUse" id="color-96"><stop offset="0" stop-color="#0042ce" stop-opacity="0"/><stop offset="1" stop-color="#0042ce"/></linearGradient><linearGradient x1="965.04957" y1="245.87998" x2="996.16776" y2="248.81997" gradientUnits="userSpaceOnUse" id="color-97"><stop offset="0" stop-color="#334c81" stop-opacity="0"/><stop offset="1" stop-color="#334c81"/></linearGradient><linearGradient x1="980.60866" y1="247.34998" x2="1011.72685" y2="250.28997" gradientUnits="userSpaceOnUse" id="color-98"><stop offset="0" stop-color="#0052ff" stop-opacity="0"/><stop offset="1" stop-color="#0052ff"/></linearGradient><linearGradient x1="996.16776" y1="248.81997" x2="1027.28594" y2="251.75995" gradientUnits="userSpaceOnUse" id="color-99"><stop offset="0" stop-color="#008fff" stop-opacity="0"/><stop offset="1" stop-color="#008fff"/></linearGradient><linearGradient x1="1011.72685" y1="250.28997" x2="1042.84503" y2="253.22995" gradientUnits="userSpaceOnUse" id="color-100"><stop offset="0" stop-color="#1265a7" stop-opacity="0"/><stop offset="1" stop-color="#1265a7"/></linearGradient><linearGradient x1="1026.7747" y1="251.71166" x2="1057.89288" y2="254.65164" gradientUnits="userSpaceOnUse" id="color-101"><stop offset="0" stop-color="#0042ce" stop-opacity="0"/><stop offset="1" stop-color="#0042ce"/></linearGradient><linearGradient x1="1047.6816" y1="253.6869" x2="1078.79978" y2="256.62688" gradientUnits="userSpaceOnUse" id="color-102"><stop offset="0" stop-color="#334c81" stop-opacity="0"/><stop offset="1" stop-color="#334c81"/></linearGradient><linearGradient x1="1063.24069" y1="255.15689" x2="1094.35887" y2="258.09688" gradientUnits="userSpaceOnUse" id="color-103"><stop offset="0" stop-color="#0052ff" stop-opacity="0"/><stop offset="1" stop-color="#0052ff"/></linearGradient><linearGradient x1="1078.79978" y1="256.62688" x2="1109.91797" y2="259.56687" gradientUnits="userSpaceOnUse" id="color-104"><stop offset="0" stop-color="#008fff" stop-opacity="0"/><stop offset="1" stop-color="#008fff"/></linearGradient><linearGradient x1="1094.35887" y1="258.09688" x2="1125.47707" y2="261.03686" gradientUnits="userSpaceOnUse" id="color-105"><stop offset="0" stop-color="#1265a7" stop-opacity="0"/><stop offset="1" stop-color="#1265a7"/></linearGradient><linearGradient x1="1108.71722" y1="259.45343" x2="1139.83542" y2="262.39341" gradientUnits="userSpaceOnUse" id="color-106"><stop offset="0" stop-color="#0042ce" stop-opacity="0"/><stop offset="1" stop-color="#0042ce"/></linearGradient><linearGradient x1="1129.62412" y1="261.42867" x2="1160.74231" y2="264.36865" gradientUnits="userSpaceOnUse" id="color-107"><stop offset="0" stop-color="#334c81" stop-opacity="0"/><stop offset="1" stop-color="#334c81"/></linearGradient><linearGradient x1="1145.18322" y1="262.89866" x2="1176.3014" y2="265.83865" gradientUnits="userSpaceOnUse" id="color-108"><stop offset="0" stop-color="#0052ff" stop-opacity="0"/><stop offset="1" stop-color="#0052ff"/></linearGradient><linearGradient x1="1160.74231" y1="264.36865" x2="1191.8605" y2="267.30864" gradientUnits="userSpaceOnUse" id="color-109"><stop offset="0" stop-color="#008fff" stop-opacity="0"/><stop offset="1" stop-color="#008fff"/></linearGradient><linearGradient x1="1176.3014" y1="265.83865" x2="1207.41959" y2="268.77863" gradientUnits="userSpaceOnUse" id="color-110"><stop offset="0" stop-color="#1265a7" stop-opacity="0"/><stop offset="1" stop-color="#1265a7"/></linearGradient><linearGradient x1="1192.8426" y1="267.40142" x2="1223.96079" y2="270.34141" gradientUnits="userSpaceOnUse" id="color-111"><stop offset="0" stop-color="#0042ce" stop-opacity="0"/><stop offset="1" stop-color="#0042ce"/></linearGradient><linearGradient x1="1213.7495" y1="269.37667" x2="1244.86769" y2="272.31666" gradientUnits="userSpaceOnUse" id="color-112"><stop offset="0" stop-color="#334c81" stop-opacity="0"/><stop offset="1" stop-color="#334c81"/></linearGradient><linearGradient x1="1229.3086" y1="270.84666" x2="1260.42679" y2="273.78665" gradientUnits="userSpaceOnUse" id="color-113"><stop offset="0" stop-color="#0052ff" stop-opacity="0"/><stop offset="1" stop-color="#0052ff"/></linearGradient><linearGradient x1="1244.86769" y1="272.31666" x2="1275.98588" y2="275.25664" gradientUnits="userSpaceOnUse" id="color-114"><stop offset="0" stop-color="#008fff" stop-opacity="0"/><stop offset="1" stop-color="#008fff"/></linearGradient><linearGradient x1="1260.42679" y1="273.78665" x2="1291.54497" y2="276.72663" gradientUnits="userSpaceOnUse" id="color-115"><stop offset="0" stop-color="#1265a7" stop-opacity="0"/><stop offset="1" stop-color="#1265a7"/></linearGradient><linearGradient x1="1275.47464" y1="275.20834" x2="1306.59282" y2="278.14832" gradientUnits="userSpaceOnUse" id="color-116"><stop offset="0" stop-color="#0042ce" stop-opacity="0"/><stop offset="1" stop-color="#0042ce"/></linearGradient><linearGradient x1="1296.38153" y1="277.18358" x2="1327.49972" y2="280.12357" gradientUnits="userSpaceOnUse" id="color-117"><stop offset="0" stop-color="#334c81" stop-opacity="0"/><stop offset="1" stop-color="#334c81"/></linearGradient><linearGradient x1="1311.94063" y1="278.65358" x2="1343.05881" y2="281.59356" gradientUnits="userSpaceOnUse" id="color-118"><stop offset="0" stop-color="#0052ff" stop-opacity="0"/><stop offset="1" stop-color="#0052ff"/></linearGradient><linearGradient x1="1327.49972" y1="280.12357" x2="1358.61791" y2="283.06356" gradientUnits="userSpaceOnUse" id="color-119"><stop offset="0" stop-color="#008fff" stop-opacity="0"/><stop offset="1" stop-color="#008fff"/></linearGradient><linearGradient x1="1343.05881" y1="281.59356" x2="1374.177" y2="284.53354" gradientUnits="userSpaceOnUse" id="color-120"><stop offset="0" stop-color="#1265a7" stop-opacity="0"/><stop offset="1" stop-color="#1265a7"/></linearGradient></defs><g transform="translate(-320,-70.48503)"><g data-paper-data="{&quot;isPaintingLayer&quot;:true}" fill-rule="nonzero" stroke="#ffffff" stroke-width="0" stroke-linecap="butt" stroke-linejoin="miter" stroke-miterlimit="10" stroke-dasharray="" stroke-dashoffset="0" style="mix-blend-mode: normal"><g><g><g><g><path d="M346.32822,177.60149l-0.94127,-9.96285l31.11819,-2.93999l0.94127,9.96285z" fill="url(#color-1)"/><path d="M367.23512,175.62625l-0.94127,-9.96285l31.11819,-2.93999l0.94127,9.96285z" fill="url(#color-2)"/><path d="M382.79421,174.15625l-0.94127,-9.96285l31.11819,-2.93999l0.94127,9.96285z" fill="url(#color-3)"/><path d="M398.3533,172.68626l-0.94127,-9.96285l31.11819,-2.93999l0.94127,9.96285z" fill="url(#color-4)"/><path d="M413.9124,171.21627l-0.94127,-9.96285l31.11819,-2.93999l0.94127,9.96285z" fill="url(#color-5)"/></g><g><path d="M430.4536,169.65349l-0.94127,-9.96285l31.11819,-2.93999l0.94127,9.96285z" fill="url(#color-6)"/><path d="M451.3605,167.67825l-0.94127,-9.96285l31.11819,-2.93999l0.94127,9.96285z" fill="url(#color-7)"/><path d="M466.91959,166.20825l-0.94127,-9.96285l31.11819,-2.93999l0.94127,9.96285z" fill="url(#color-8)"/><path d="M482.47868,164.73826l-0.94127,-9.96285l31.11819,-2.93999l0.94127,9.96285z" fill="url(#color-9)"/><path d="M498.03778,163.26827l-0.94127,-9.96285l31.11819,-2.93999l0.94127,9.96285z" fill="url(#color-10)"/></g><g><path d="M513.08563,161.84658l-0.94127,-9.96285l31.11819,-2.93999l0.94127,9.96285z" fill="url(#color-11)"/><path d="M533.99252,159.87133l-0.94127,-9.96285l31.11819,-2.93999l0.94127,9.96285z" fill="url(#color-12)"/><path d="M549.55162,158.40134l-0.94127,-9.96285l31.11819,-2.93999l0.94127,9.96285z" fill="url(#color-13)"/><path d="M565.11071,156.93135l-0.94127,-9.96285l31.11819,-2.93999l0.94127,9.96285z" fill="url(#color-14)"/><path d="M580.6698,155.46136l-0.94127,-9.96285l31.11819,-2.93999l0.94127,9.96285z" fill="url(#color-15)"/></g></g><g><g><path d="M595.02815,154.10481l-0.94127,-9.96285l31.11819,-2.93999l0.94127,9.96285z" fill="url(#color-16)"/><path d="M615.93505,152.12956l-0.94127,-9.96285l31.11819,-2.93999l0.94127,9.96285z" fill="url(#color-17)"/><path d="M631.49415,150.65957l-0.94127,-9.96285l31.11819,-2.93999l0.94127,9.96285z" fill="url(#color-18)"/><path d="M647.05324,149.18958l-0.94127,-9.96285l31.11819,-2.93999l0.94127,9.96285z" fill="url(#color-19)"/><path d="M662.61233,147.71959l-0.94127,-9.96285l31.11819,-2.93999l0.94127,9.96285z" fill="url(#color-20)"/></g><g><path d="M679.15353,146.15681l-0.94127,-9.96285l31.11819,-2.93999l0.94127,9.96285z" fill="url(#color-21)"/><path d="M700.06043,144.18156l-0.94127,-9.96285l31.11819,-2.93999l0.94127,9.96285z" fill="url(#color-22)"/><path d="M715.61953,142.71157l-0.94127,-9.96285l31.11819,-2.93999l0.94127,9.96285z" fill="url(#color-23)"/><path d="M731.17862,141.24158l-0.94127,-9.96285l31.11819,-2.93999l0.94127,9.96285z" fill="url(#color-24)"/><path d="M746.73771,139.77158l-0.94127,-9.96285l31.11819,-2.93999l0.94127,9.96285z" fill="url(#color-25)"/></g><g><path d="M761.78556,138.34989l-0.94127,-9.96285l31.11819,-2.93999l0.94127,9.96285z" fill="url(#color-26)"/><path d="M782.69246,136.37465l-0.94127,-9.96285l31.11819,-2.93999l0.94127,9.96285z" fill="url(#color-27)"/><path d="M798.25155,134.90466l-0.94127,-9.96285l31.11819,-2.93999l0.94127,9.96285z" fill="url(#color-28)"/><path d="M813.81065,133.43466l-0.94127,-9.96285l31.11819,-2.93999l0.94127,9.96285z" fill="url(#color-29)"/><path d="M829.36974,131.96467l-0.94127,-9.96285l31.11819,-2.93999l0.94127,9.96285z" fill="url(#color-30)"/></g></g></g><g><g><g><path d="M860.48793,129.02469l-0.94127,-9.96285l31.11819,-2.93999l0.94127,9.96285z" fill="url(#color-31)"/><path d="M881.39483,127.04944l-0.94127,-9.96285l31.11819,-2.93999l0.94127,9.96285z" fill="url(#color-32)"/><path d="M896.95392,125.57945l-0.94127,-9.96285l31.11819,-2.93999l0.94127,9.96285z" fill="url(#color-33)"/><path d="M912.51301,124.10946l-0.94127,-9.96285l31.11819,-2.93999l0.94127,9.96285z" fill="url(#color-34)"/><path d="M928.07211,122.63946l-0.94127,-9.96285l31.11819,-2.93999l0.94127,9.96285z" fill="url(#color-35)"/></g><g><path d="M944.6133,121.07668l-0.94127,-9.96285l31.11819,-2.93999l0.94127,9.96285z" fill="url(#color-36)"/><path d="M965.5202,119.10144l-0.94127,-9.96285l31.11819,-2.93999l0.94127,9.96285z" fill="url(#color-37)"/><path d="M981.0793,117.63145l-0.94127,-9.96285l31.11819,-2.93999l0.94127,9.96285z" fill="url(#color-38)"/><path d="M996.63839,116.16146l-0.94127,-9.96285l31.11819,-2.93999l0.94127,9.96285z" fill="url(#color-39)"/><path d="M1012.19748,114.69146l-0.94127,-9.96285l31.11819,-2.93999l0.94127,9.96285z" fill="url(#color-40)"/></g><g><path d="M1027.24533,113.26977l-0.94127,-9.96285l31.11819,-2.93999l0.94127,9.96285z" fill="url(#color-41)"/><path d="M1048.15223,111.29453l-0.94127,-9.96285l31.11819,-2.93999l0.94127,9.96285z" fill="url(#color-42)"/><path d="M1063.71133,109.82454l-0.94127,-9.96285l31.11819,-2.93999l0.94127,9.96285z" fill="url(#color-43)"/><path d="M1079.27042,108.35454l-0.94127,-9.96285l31.11819,-2.93999l0.94127,9.96285z" fill="url(#color-44)"/><path d="M1094.82951,106.88455l-0.94127,-9.96285l31.11819,-2.93999l0.94127,9.96285z" fill="url(#color-45)"/></g></g><g><g><path d="M1109.18786,105.528l-0.94127,-9.96285l31.11819,-2.93999l0.94127,9.96285z" fill="url(#color-46)"/><path d="M1130.09476,103.55276l-0.94127,-9.96285l31.11819,-2.93999l0.94127,9.96285z" fill="url(#color-47)"/><path d="M1145.65385,102.08277l-0.94127,-9.96285l31.11819,-2.93999l0.94127,9.96285z" fill="url(#color-48)"/><path d="M1161.21295,100.61277l-0.94127,-9.96285l31.11819,-2.93999l0.94127,9.96285z" fill="url(#color-49)"/><path d="M1176.77204,99.14278l-0.94127,-9.96285l31.11819,-2.93999l0.94127,9.96285z" fill="url(#color-50)"/></g><g><path d="M1193.31324,97.58l-0.94127,-9.96285l31.11819,-2.93999l0.94127,9.96285z" fill="url(#color-51)"/><path d="M1214.22014,95.60476l-0.94127,-9.96285l31.11819,-2.93999l0.94127,9.96285z" fill="url(#color-52)"/><path d="M1229.77923,94.13476l-0.94127,-9.96285l31.11819,-2.93999l0.94127,9.96285z" fill="url(#color-53)"/><path d="M1245.33833,92.66477l-0.94127,-9.96285l31.11819,-2.93999l0.94127,9.96285z" fill="url(#color-54)"/><path d="M1260.89742,91.19478l-0.94127,-9.96285l31.11819,-2.93999l0.94127,9.96285z" fill="url(#color-55)"/></g><g><path d="M1275.94527,89.77309l-0.94127,-9.96285l31.11819,-2.93999l0.94127,9.96285z" fill="url(#color-56)"/><path d="M1296.85217,87.79784l-0.94127,-9.96285l31.11819,-2.93999l0.94127,9.96285z" fill="url(#color-57)"/><path d="M1312.41126,86.32785l-0.94127,-9.96285l31.11819,-2.93999l0.94127,9.96285z" fill="url(#color-58)"/><path d="M1327.97035,84.85786l-0.94127,-9.96285l31.11819,-2.93999l0.94127,9.96285z" fill="url(#color-59)"/><path d="M1343.52945,83.38787l-0.94127,-9.96285l31.11819,-2.93999l0.94127,9.96285z" fill="url(#color-60)"/></g></g></g><path d="M320.94127,180l-0.94127,-9.96285l813.63354,-76.87051l0.94127,9.96285z" fill-opacity="0.47843" fill="#0051ff"/></g><g data-paper-data="{&quot;index&quot;:null}"><g><g><g><path d="M377.44641,185.3385l-0.94127,9.96286l-31.11818,-2.93999l0.94127,-9.96286z" fill="url(#color-61)"/><path d="M398.35331,187.31374l-0.94127,9.96285l-31.11819,-2.93999l0.94128,-9.96285z" fill="url(#color-62)"/><path d="M413.9124,188.78373l-0.94128,9.96286l-31.11818,-2.93999l0.94127,-9.96285z" fill="url(#color-63)"/><path d="M429.47149,190.25373l-0.94127,9.96285l-31.11818,-2.93999l0.94127,-9.96285z" fill="url(#color-64)"/><path d="M445.03059,191.72372l-0.94127,9.96285l-31.11819,-2.93998l0.94128,-9.96286z" fill="url(#color-65)"/></g><g><path d="M461.57179,193.2865l-0.94127,9.96285l-31.11819,-2.93998l0.94128,-9.96286z" fill="url(#color-66)"/><path d="M482.47869,195.26174l-0.94127,9.96285l-31.11819,-2.93999l0.94127,-9.96285z" fill="url(#color-67)"/><path d="M498.03778,196.73173l-0.94127,9.96285l-31.11818,-2.93998l0.94127,-9.96286z" fill="url(#color-68)"/><path d="M513.59687,198.20173l-0.94127,9.96285l-31.11819,-2.93999l0.94127,-9.96285z" fill="url(#color-69)"/><path d="M529.15597,199.67172l-0.94128,9.96285l-31.11819,-2.93999l0.94127,-9.96285z" fill="url(#color-70)"/></g><g><path d="M544.20382,201.09341l-0.94128,9.96285l-31.11818,-2.93999l0.94127,-9.96285z" fill="url(#color-71)"/><path d="M565.11071,203.06865l-0.94127,9.96286l-31.11819,-2.93999l0.94127,-9.96285z" fill="url(#color-72)"/><path d="M580.66981,204.53865l-0.94127,9.96285l-31.11819,-2.93998l0.94127,-9.96286z" fill="url(#color-73)"/><path d="M596.2289,206.00864l-0.94127,9.96285l-31.11819,-2.93998l0.94127,-9.96286z" fill="url(#color-74)"/><path d="M611.78799,207.47863l-0.94127,9.96285l-31.11819,-2.93999l0.94127,-9.96285z" fill="url(#color-75)"/></g></g><g><g><path d="M626.14634,208.83518l-0.94127,9.96285l-31.11818,-2.93999l0.94127,-9.96285z" fill="url(#color-76)"/><path d="M647.05324,210.81042l-0.94127,9.96285l-31.11819,-2.93998l0.94127,-9.96286z" fill="url(#color-77)"/><path d="M662.61234,212.28042l-0.94128,9.96286l-31.11819,-2.93999l0.94127,-9.96285z" fill="url(#color-78)"/><path d="M678.17143,213.75041l-0.94127,9.96285l-31.11818,-2.93998l0.94127,-9.96285z" fill="url(#color-79)"/><path d="M693.73052,215.2204l-0.94127,9.96285l-31.11819,-2.93998l0.94128,-9.96286z" fill="url(#color-80)"/></g><g><path d="M710.27172,216.78318l-0.94127,9.96285l-31.11819,-2.93998l0.94128,-9.96285z" fill="url(#color-81)"/><path d="M731.17862,218.75842l-0.94127,9.96285l-31.11819,-2.93998l0.94127,-9.96285z" fill="url(#color-82)"/><path d="M746.73771,220.22842l-0.94127,9.96285l-31.11818,-2.93998l0.94127,-9.96286z" fill="url(#color-83)"/><path d="M762.29681,221.69841l-0.94127,9.96285l-31.11819,-2.93999l0.94127,-9.96285z" fill="url(#color-84)"/><path d="M777.8559,223.1684l-0.94128,9.96285l-31.11819,-2.93998l0.94127,-9.96285z" fill="url(#color-85)"/></g><g><path d="M792.90375,224.5901l-0.94127,9.96285l-31.11819,-2.93998l0.94127,-9.96285z" fill="url(#color-86)"/><path d="M813.81065,226.56533l-0.94127,9.96285l-31.11819,-2.93998l0.94127,-9.96285z" fill="url(#color-87)"/><path d="M829.36974,228.03533l-0.94127,9.96285l-31.11818,-2.93999l0.94127,-9.96285z" fill="url(#color-88)"/><path d="M844.92884,229.50532l-0.94128,9.96286l-31.11819,-2.93999l0.94127,-9.96285z" fill="url(#color-89)"/><path d="M860.48793,230.97532l-0.94127,9.96285l-31.11819,-2.93998l0.94127,-9.96285z" fill="url(#color-90)"/></g></g></g><g><g><g><path d="M891.60612,233.9153l-0.94128,9.96285l-31.11819,-2.93998l0.94127,-9.96285z" fill="url(#color-91)"/><path d="M912.51301,235.89055l-0.94127,9.96285l-31.11818,-2.93999l0.94127,-9.96285z" fill="url(#color-92)"/><path d="M928.07211,237.36054l-0.94127,9.96285l-31.11819,-2.93998l0.94127,-9.96285z" fill="url(#color-93)"/><path d="M943.6312,238.83053l-0.94128,9.96285l-31.11819,-2.93998l0.94127,-9.96285z" fill="url(#color-94)"/><path d="M959.19029,240.30052l-0.94127,9.96285l-31.11818,-2.93998l0.94127,-9.96285z" fill="url(#color-95)"/></g><g><path d="M975.73149,241.8633l-0.94127,9.96286l-31.11818,-2.93999l0.94127,-9.96285z" fill="url(#color-96)"/><path d="M996.63839,243.83855l-0.94127,9.96285l-31.11819,-2.93998l0.94127,-9.96285z" fill="url(#color-97)"/><path d="M1012.19749,245.30853l-0.94128,9.96285l-31.11819,-2.93998l0.94127,-9.96285z" fill="url(#color-98)"/><path d="M1027.75657,246.77853l-0.94127,9.96285l-31.11819,-2.93998l0.94127,-9.96285z" fill="url(#color-99)"/><path d="M1043.31567,248.24852l-0.94127,9.96285l-31.11819,-2.93998l0.94128,-9.96285z" fill="url(#color-100)"/></g><g><path d="M1058.36352,249.67021l-0.94127,9.96285l-31.11819,-2.93998l0.94128,-9.96285z" fill="url(#color-101)"/><path d="M1079.27042,251.64546l-0.94127,9.96285l-31.11819,-2.93999l0.94127,-9.96285z" fill="url(#color-102)"/><path d="M1094.82951,253.11545l-0.94127,9.96285l-31.11818,-2.93998l0.94127,-9.96285z" fill="url(#color-103)"/><path d="M1110.38861,254.58544l-0.94127,9.96285l-31.11818,-2.93998l0.94127,-9.96285z" fill="url(#color-104)"/><path d="M1125.9477,256.05543l-0.94127,9.96285l-31.11819,-2.93998l0.94127,-9.96285z" fill="url(#color-105)"/></g></g><g><g><path d="M1140.30605,257.41199l-0.94127,9.96285l-31.11819,-2.93999l0.94127,-9.96285z" fill="url(#color-106)"/><path d="M1161.21294,259.38723l-0.94127,9.96285l-31.11819,-2.93998l0.94127,-9.96286z" fill="url(#color-107)"/><path d="M1176.77204,260.85722l-0.94127,9.96286l-31.11819,-2.93999l0.94127,-9.96285z" fill="url(#color-108)"/><path d="M1192.33113,262.32721l-0.94127,9.96285l-31.11819,-2.93998l0.94127,-9.96285z" fill="url(#color-109)"/><path d="M1207.89023,263.79721l-0.94127,9.96285l-31.11818,-2.93998l0.94127,-9.96286z" fill="url(#color-110)"/></g><g><path d="M1224.43142,265.35999l-0.94127,9.96285l-31.11819,-2.93998l0.94127,-9.96285z" fill="url(#color-111)"/><path d="M1245.33833,267.33523l-0.94127,9.96285l-31.11818,-2.93999l0.94127,-9.96285z" fill="url(#color-112)"/><path d="M1260.89742,268.80522l-0.94127,9.96285l-31.11819,-2.93998l0.94127,-9.96286z" fill="url(#color-113)"/><path d="M1276.45651,270.27521l-0.94127,9.96285l-31.11819,-2.93998l0.94127,-9.96285z" fill="url(#color-114)"/><path d="M1292.01561,271.74521l-0.94127,9.96285l-31.11819,-2.93998l0.94127,-9.96285z" fill="url(#color-115)"/></g><g><path d="M1307.06346,273.1669l-0.94127,9.96285l-31.11819,-2.93998l0.94127,-9.96285z" fill="url(#color-116)"/><path d="M1327.97036,275.14214l-0.94127,9.96285l-31.11819,-2.93998l0.94128,-9.96285z" fill="url(#color-117)"/><path d="M1343.52945,276.61214l-0.94127,9.96285l-31.11819,-2.93999l0.94127,-9.96285z" fill="url(#color-118)"/><path d="M1359.08854,278.08212l-0.94127,9.96285l-31.11818,-2.93998l0.94127,-9.96285z" fill="url(#color-119)"/><path d="M1374.64764,279.55212l-0.94127,9.96285l-31.11819,-2.93998l0.94127,-9.96285z" fill="url(#color-120)"/></g></g></g><path d="M1134.57481,256.87051l-0.94127,9.96285l-813.63354,-76.8705l0.94127,-9.96285z" fill-opacity="0.47843" fill="#0051ff"/></g></g></g></svg>