<svg version="1.1" xmlns="http://www.w3.org/2000/svg" xmlns:xlink="http://www.w3.org/1999/xlink" width="350.478" height="321.83691" viewBox="0,0,350.478,321.83691"><defs><linearGradient x1="363.74772" y1="76.5754" x2="363.74772" y2="311.39523" gradientUnits="userSpaceOnUse" id="color-1"><stop offset="0" stop-color="#534278"/><stop offset="1" stop-color="#342448"/></linearGradient><linearGradient x1="309.67886" y1="88.4674" x2="309.67886" y2="100.45303" gradientUnits="userSpaceOnUse" id="color-2"><stop offset="0" stop-color="#493561"/><stop offset="1" stop-color="#0d021a"/></linearGradient><radialGradient cx="320" cy="180" r="154.76054" gradientUnits="userSpaceOnUse" id="color-3"><stop offset="0" stop-color="#483766" stop-opacity="0.2902"/><stop offset="1" stop-color="#483766" stop-opacity="0"/></radialGradient></defs><g transform="translate(-165.23946,-25.23946)"><g data-paper-data="{&quot;isPaintingLayer&quot;:true}" fill-rule="nonzero" stroke-linecap="butt" stroke-linejoin="miter" stroke-miterlimit="10" stroke-dasharray="" stroke-dashoffset="0" style="mix-blend-mode: normal"><path d="M206.00002,185.09559l2,-57.40891c0,0 11.85218,11.48179 20.2352,11.48179c12.1714,0 44.7648,0 44.7648,0v36.7417c0,0 -36.64363,0 -48.7648,0c-7.20609,0 -18.2352,9.18543 -18.2352,9.18543z" fill="#2e1267" stroke="none" stroke-width="0"/><path d="M418.47093,248.54591c0,0 2.27265,0.33641 4.59386,5.973c1.69525,4.11648 7.79587,10.56804 13.33662,15.87617c5.26158,5.04063 39.06811,12.95387 39.06811,12.95387c0,0 -35.97735,-7.45769 -43.23803,-11.77549c-6.39135,-3.80081 -13.04089,-8.19344 -15.45058,-11.27456c-3.75624,-4.80286 -9.74617,-12.46176 -9.74617,-12.46176l5.10285,1.0915z" data-paper-data="{&quot;index&quot;:null}" fill="#2e1267" stroke="none" stroke-width="0"/><path d="M370.85916,244.85958c0,0 3.60598,8.75638 5.92719,14.39298c1.69525,4.11648 7.79587,10.56804 13.33662,15.87617c5.26158,5.04063 39.06811,12.95387 39.06811,12.95387c0,0 -35.97735,-7.45769 -43.23803,-11.77549c-6.39135,-3.80081 -13.04089,-8.19344 -15.45058,-11.27456c-3.75624,-4.80286 -9.74617,-12.46176 -9.74617,-12.46176l10.10285,-7.7112z" data-paper-data="{&quot;index&quot;:null}" fill="#2e1267" stroke="none" stroke-width="0"/><path d="M343.70586,249.26467c0,0 2.28898,9.32251 3.76242,15.32352c1.07612,4.38265 6.15854,11.90817 10.85431,18.19938c4.45918,5.97418 36.65107,20.22561 36.65107,20.22561c0,0 -34.39846,-14.21628 -40.93354,-19.85897c-5.75264,-4.96706 -11.67424,-10.567 -13.60467,-14.06491c-3.00916,-5.45258 -7.80775,-14.14756 -7.80775,-14.14756l11.07816,-5.67709z" data-paper-data="{&quot;index&quot;:null}" fill="#2e1267" stroke="none" stroke-width="0"/><path d="M376.35155,253.27198l-8.7367,-9.66402c0,0 7.08773,-6.30335 11.5324,-10.25613c2.85133,-2.53578 10.07853,-5.49006 16.95941,-7.91512c7.81678,-2.75495 44.37571,-2.69395 44.37571,-2.69395c0,0 -34.49425,0.83356 -40.45701,4.71074c-6.27914,4.08294 -13.28744,9.17569 -15.59739,12.87704c-3.16289,5.06812 -8.07641,12.94143 -8.07641,12.94143z" fill="#2e1267" stroke="none" stroke-width="0"/><path d="M396.45273,252.90253l-5.17958,-11.25238c0,0 7.71947,-3.14716 12.56031,-5.12073c3.10548,-1.26608 10.11308,-1.46068 16.68847,-1.30951c7.46976,0.17168 39.186,12.21116 39.186,12.21116c0,0 -30.14668,-10.58608 -36.28634,-9.17587c-6.46544,1.48509 -13.81489,3.60753 -16.74035,6.06279c-4.00569,3.36189 -10.22851,8.58457 -10.22851,8.58457z" fill="#2e1267" stroke="none" stroke-width="0"/><path d="M353.69221,248.67925l-8.73671,-9.66402c0,0 7.08773,-6.30335 11.5324,-10.25613c2.85133,-2.53578 10.07853,-5.49006 16.95941,-7.91512c7.81678,-2.75495 44.37571,-2.69395 44.37571,-2.69395c0,0 -34.49426,0.83356 -40.45702,4.71074c-6.27914,4.08294 -13.28744,9.17569 -15.59739,12.87704c-3.16289,5.06812 -8.0764,12.94143 -8.0764,12.94143z" fill="#2e1267" stroke="none" stroke-width="0"/><path d="M320.3327,298.59048l0.92216,9.27591c0,0 -6.00606,-0.2163 -9.77242,-0.35193c-2.41618,-0.08701 -7.24926,-2.10237 -11.70664,-4.22145c-5.06366,-2.40729 -23.93351,-20.35625 -23.93351,-20.35625c0,0 18.13546,16.47476 22.65821,17.3935c4.76274,0.96744 10.27772,1.77042 12.84744,0.98975c3.51861,-1.06894 8.98475,-2.72952 8.98475,-2.72952z" fill="#2e1267" stroke="none" stroke-width="0"/><path d="M319.8327,286.12565l0.92216,9.2759c0,0 -6.00606,-0.2163 -9.77242,-0.35193c-2.41618,-0.08701 -7.24926,-2.10237 -11.70664,-4.22145c-5.06366,-2.40729 -23.93351,-20.35625 -23.93351,-20.35625c0,0 18.13546,16.47476 22.65821,17.3935c4.76274,0.96744 10.27772,1.77042 12.84744,0.98975c3.51861,-1.06894 8.98475,-2.72952 8.98475,-2.72952z" fill="#2e1267" stroke="none" stroke-width="0"/><path d="M319.8327,286.12565l0.92216,9.2759c0,0 -6.00606,-0.2163 -9.77242,-0.35193c-2.41618,-0.08701 -7.24926,-2.10237 -11.70664,-4.22145c-5.06366,-2.40729 -23.93351,-20.35625 -23.93351,-20.35625c0,0 18.13546,16.47476 22.65821,17.3935c4.76274,0.96744 10.27772,1.77042 12.84744,0.98975c3.51861,-1.06894 8.98475,-2.72952 8.98475,-2.72952z" fill="#2e1267" stroke="none" stroke-width="0"/><path d="M458.71885,165.87708c0,0 2.27265,0.33641 4.59386,5.973c1.69525,4.11648 7.79588,10.56805 13.33663,15.87618c5.26158,5.04063 39.06811,12.95387 39.06811,12.95387c0,0 -35.97735,-7.45768 -43.23803,-11.77548c-6.39135,-3.80081 -13.04089,-8.19344 -15.45058,-11.27456c-3.75624,-4.80286 -9.74617,-12.46177 -9.74617,-12.46177l5.10286,1.0915z" data-paper-data="{&quot;index&quot;:null}" fill="#2e1267" stroke="none" stroke-width="0"/><path d="M411.10706,162.19073c0,0 3.60598,8.75639 5.92719,14.39298c1.69525,4.11648 7.79587,10.56804 13.33662,15.87617c5.26158,5.04063 39.06811,12.95387 39.06811,12.95387c0,0 -35.97735,-7.45769 -43.23803,-11.77549c-6.39135,-3.80081 -13.04089,-8.19344 -15.45058,-11.27456c-3.75624,-4.80286 -9.74617,-12.46177 -9.74617,-12.46177l10.10285,-7.7112z" data-paper-data="{&quot;index&quot;:null}" fill="#2e1267" stroke="none" stroke-width="0"/><path d="M383.95382,166.59583c0,0 2.28898,9.32251 3.76243,15.32352c1.07612,4.38265 6.15854,11.90817 10.85431,18.19938c4.45918,5.97418 36.65107,20.22561 36.65107,20.22561c0,0 -34.39846,-14.21627 -40.93355,-19.85897c-5.75264,-4.96706 -11.67424,-10.567 -13.60467,-14.06491c-3.00916,-5.45258 -7.80775,-14.14755 -7.80775,-14.14755z" data-paper-data="{&quot;index&quot;:null}" fill="#2e1267" stroke="none" stroke-width="0"/><path d="M450.88548,166.32951l-5.10286,1.0915c0,0 5.98993,-7.6589 9.74617,-12.46176c2.40969,-3.0811 9.05923,-7.47376 15.45058,-11.27456c7.26068,-4.3178 43.23803,-11.77549 43.23803,-11.77549c0,0 -33.80653,7.91322 -39.06811,12.95387c-5.54075,5.30813 -11.64137,11.75968 -13.33663,15.87618c-2.32121,5.63657 -4.59386,5.973 -4.59386,5.973z" fill="#2e1267" stroke="none" stroke-width="0"/><path d="M409.60705,170.39857l-10.10285,-7.7112c0,0 5.98993,-7.6589 9.74617,-12.46177c2.40969,-3.0811 9.05923,-7.47376 15.45058,-11.27456c7.26068,-4.3178 43.23803,-11.77548 43.23803,-11.77548c0,0 -33.80653,7.91322 -39.06811,12.95387c-5.54075,5.30813 -11.64137,11.75968 -13.33662,15.87618c-2.32121,5.63657 -5.92719,14.39298 -5.92719,14.39298z" fill="#2e1267" stroke="none" stroke-width="0"/><path d="M382.45378,165.99348l-11.07816,-5.67709c0,0 4.79859,-8.69497 7.80775,-14.14756c1.93043,-3.4979 7.85203,-9.09784 13.60467,-14.06491c6.53508,-5.64268 40.93355,-19.85897 40.93355,-19.85897c0,0 -32.19189,14.25142 -36.65107,20.22561c-4.69577,6.29121 -9.77819,13.81672 -10.85431,18.19938c-1.47345,6.001 -3.76243,15.32352 -3.76243,15.32352z" fill="#2e1267" stroke="none" stroke-width="0"/><path d="M313.6645,81.82408l-12.11589,0.70602c0,0 0.84417,-10.24789 1.37354,-16.67428c0.33961,-4.12264 3.40677,-12.1963 6.57321,-19.61795c3.59711,-8.4311 11.78603,-16.28093 11.78603,-16.28093c0,0 -6.20824,6.73263 -7.82413,14.37871c-1.7016,8.0518 -3.26051,17.40505 -2.4893,21.8716c1.05601,6.11589 2.69653,15.61686 2.69653,15.61686z" fill="#413658" stroke="none" stroke-width="0"/><path d="M303.7981,81.24999l-12.11589,0.70602c0,0 0.84417,-10.24789 1.37354,-16.67428c0.3396,-4.12264 3.40677,-12.19631 6.57321,-19.61795c3.59711,-8.4311 11.78604,-16.28093 11.78604,-16.28093c0,0 -6.20824,6.73263 -7.82413,14.37871c-1.7016,8.0518 -3.2605,17.40503 -2.4893,21.87159c1.05601,6.11589 2.69653,15.61686 2.69653,15.61686z" fill="#413658" stroke="none" stroke-width="0"/><path d="M330.51223,113.86256c0,-5.10755 9.75542,-8.83017 17.06984,-10.34714c2.37212,-0.49197 11.15418,3.8408 12.59683,3.8408c5.89103,0 -16.66666,1.65603 -16.66666,8.41996c0,6.76396 -1.33334,12.62996 -1.33334,12.62996c0,0 -11.66666,-7.77964 -11.66666,-14.5436z" fill="#16032e" stroke="none" stroke-width="0"/><path d="M367.24772,113.9777c0,0.61944 -14.66099,3.64068 -18.44995,5.4726c-2.02932,0.98116 -4.45393,1.70351 -7.11509,1.70351c-2.63787,0 -5.85306,-1.24035 -7.94967,-1.40027c-3.96767,-0.30264 -6.36536,-4.86649 -6.36536,-5.48881c0,-0.62397 2.16174,2.84816 6.14693,2.54603c0.95731,-0.07257 2.41069,0.23037 3.95706,0.58002c1.8293,0.41361 3.78874,0.8926 5.21105,0.8926c7.62984,0 24.56504,-5.25686 24.56504,-4.30567z" fill="#000000" stroke="none" stroke-width="0"/><g stroke-width="0"><path d="M224.50003,160.98385c0.53405,-24.50065 45.05292,-20.96318 51.61252,-27.31375c6.15598,-5.95982 6.01963,-51.48736 15.31297,-55.21164c11.93558,-4.78316 36.57552,-0.10364 51.33903,10.07341c9.4082,6.48542 13.05438,19.63578 19.23547,19.63578c2.67388,0 -20.67053,-5.05631 -23.93745,-1.40091c-2.37788,2.66064 -3.24382,6.37379 -4.5665,8.99062c-1.55731,3.08102 9.13846,12.32718 9.13846,12.32718c0,0 -23.9589,7.35418 -11.54573,11.55249c6.79469,2.29806 16.72755,12.19838 29.87561,14.62752c52.71409,9.73908 142.03562,11.88613 142.03562,11.88613c0,0 -86.33199,-1.95427 -134.17518,17.05499c-20.60745,8.18785 -23.48602,34.29238 -26.73874,42.94708c-1.90176,5.06012 110.28137,25.49897 110.28137,25.49897c0,0 -119.18082,2.02046 -120.69079,7.91487c-7.36502,28.75036 -9.67665,51.82866 -9.67665,51.82866c0,0 -7.57038,-41.84062 -24.4189,-83.55191c-6.49077,-16.06897 -15.66861,-31.5874 -22.54597,-44.74595c-5.50439,-10.5316 -51.06918,2.38717 -50.53513,-22.11347z" fill="url(#color-1)" stroke="none"/><path d="M270.80683,343.94241c-1.58306,-0.34538 45.414,7.72126 46.99345,-17.8635c0.51599,-8.3582 1.13702,-16.16955 1.79459,-22.88725c1.35528,-13.84543 0.53242,-23.42799 1.59832,-23.19544c1.58306,0.34538 1.586,21.36592 0.00655,46.95069c-1.57945,25.58477 -48.80984,17.34089 -50.39291,16.99551z" fill="#342448" stroke="#000000"/><path d="M322.84936,326.94686c-1.57945,-25.58477 -1.57651,-46.6053 0.00655,-46.95069c1.05433,-0.23002 0.21031,9.53416 1.55414,23.12902c0.67392,6.81768 2.31124,14.02577 2.83877,22.57093c1.57945,25.58477 35.90985,20.1972 34.32679,20.54259c-1.58306,0.34538 -37.14679,6.29292 -38.72625,-19.29186z" data-paper-data="{&quot;index&quot;:null}" fill="#342448" stroke="#000000"/></g><path d="M325.17886,94.46023c0,0 -6.93959,6.6977 -15.5,6.6977c-8.56041,0 -15.5,-6.6977 -15.5,-6.6977c0,0 6.93959,-6.69771 15.5,-6.69771c8.56041,0 15.5,6.69771 15.5,6.69771z" fill="#000000" stroke="none" stroke-width="0"/><path d="M318.75613,94.46023c0,3.30974 -4.06402,5.9928 -9.07723,5.9928c-5.01322,0 -9.07723,-2.68306 -9.07723,-5.9928c0,-3.30974 4.06402,-5.9928 9.07723,-5.9928c5.01322,0 9.07723,2.68306 9.07723,5.9928z" fill="url(#color-2)" stroke="none" stroke-width="0"/><path d="M311.01223,94.84294c0,0.73981 -0.44772,1.33954 -1,1.33954c-0.55228,0 -1,-0.59973 -1,-1.33954c0,-0.73981 0.44772,-1.33954 1,-1.33954c0.55228,0 1,0.59973 1,1.33954z" fill="#780cff" stroke="none" stroke-width="0"/><path d="M165.23946,180c0,-85.47188 69.28866,-154.76054 154.76054,-154.76054c85.47188,0 154.76054,69.28866 154.76054,154.76054c0,85.47188 -69.28866,154.76054 -154.76054,154.76054c-85.47188,0 -154.76054,-69.28866 -154.76054,-154.76054z" fill="url(#color-3)" stroke="none" stroke-width="none"/></g></g></svg>