<svg version="1.1" xmlns="http://www.w3.org/2000/svg" xmlns:xlink="http://www.w3.org/1999/xlink" width="174.81564" height="174.81564" viewBox="0,0,174.81564,174.81564"><defs><linearGradient x1="320" y1="126.78321" x2="320" y2="233.21679" gradientUnits="userSpaceOnUse" id="color-1"><stop offset="0" stop-color="#450089"/><stop offset="1" stop-color="#5a008a"/></linearGradient><radialGradient cx="271.93567" cy="200.24179" r="11.81483" gradientUnits="userSpaceOnUse" id="color-2"><stop offset="0" stop-color="#ff6e6e"/><stop offset="1" stop-color="#ffffff"/></radialGradient><radialGradient cx="323.29175" cy="187.73312" r="14.53331" gradientUnits="userSpaceOnUse" id="color-3"><stop offset="0" stop-color="#ff6e6e"/><stop offset="1" stop-color="#ffffff"/></radialGradient><radialGradient cx="286.41941" cy="167.98254" r="11.81483" gradientUnits="userSpaceOnUse" id="color-4"><stop offset="0" stop-color="#ff6e6e"/><stop offset="1" stop-color="#ffffff"/></radialGradient><radialGradient cx="323.95011" cy="233.21679" r="11.81483" gradientUnits="userSpaceOnUse" id="color-5"><stop offset="0" stop-color="#ff6e6e"/><stop offset="1" stop-color="#ffffff"/></radialGradient><radialGradient cx="353.92242" cy="215.44165" r="9.09455" gradientUnits="userSpaceOnUse" id="color-6"><stop offset="0" stop-color="#ff6e6e"/><stop offset="1" stop-color="#ffffff"/></radialGradient><radialGradient cx="363.45125" cy="160.08232" r="14.5333" gradientUnits="userSpaceOnUse" id="color-7"><stop offset="0" stop-color="#ff6e6e"/><stop offset="1" stop-color="#ffffff"/></radialGradient><radialGradient cx="323.29175" cy="149.87786" r="9.09589" gradientUnits="userSpaceOnUse" id="color-8"><stop offset="0" stop-color="#ff6e6e"/><stop offset="1" stop-color="#ffffff"/></radialGradient><radialGradient cx="320.00001" cy="180" r="87.40782" gradientUnits="userSpaceOnUse" id="color-9"><stop offset="0" stop-color="#7a00d1" stop-opacity="0.67059"/><stop offset="1" stop-color="#7a00d1" stop-opacity="0"/></radialGradient></defs><g transform="translate(-232.59218,-92.59218)"><g data-paper-data="{&quot;isPaintingLayer&quot;:true}" fill-rule="nonzero" stroke-linejoin="miter" stroke-miterlimit="10" stroke-dasharray="" stroke-dashoffset="0" style="mix-blend-mode: normal"><path d="M329.87869,233.21679v-20.83104" fill="#1d0034" stroke="#1d0034" stroke-width="8.5" stroke-linecap="round"/><path d="M356.24298,233.21679v-20.83104" fill="none" stroke="#1d0034" stroke-width="8.5" stroke-linecap="round"/><path d="M266.78321,180c0,-29.39083 23.82597,-53.21679 53.21679,-53.21679c29.39083,0 53.21679,23.82597 53.21679,53.21679c0,29.39083 -23.82597,53.21679 -53.21679,53.21679c-29.39083,0 -53.21679,-23.82597 -53.21679,-53.21679z" fill="url(#color-1)" stroke="none" stroke-width="0" stroke-linecap="butt"/><g stroke="#000000" stroke-width="2.1" stroke-linecap="butt"><path d="M258.98105,206.3031c-3.34756,-7.15464 -0.26132,-15.66834 6.89331,-19.01592c7.15464,-3.34756 15.66834,-0.26132 19.01592,6.89331c3.34756,7.15464 0.26132,15.66834 -6.89331,19.01592c-7.15464,3.34756 -15.66834,0.26132 -19.01592,-6.89331z" fill="#a100d9"/><path d="M282.63705,195.23476c1.86951,3.99564 -1.40612,9.47647 -7.31634,12.24179c-5.91021,2.76531 -12.21692,1.76794 -14.08643,-2.2277c-1.86951,-3.99564 1.40612,-9.47647 7.31634,-12.24179c5.91021,-2.76531 12.21692,-1.76794 14.08643,2.2277z" fill="url(#color-2)"/></g><path d="M301.56151,212.38576v20.83104" fill="none" stroke="#1d0034" stroke-width="8.5" stroke-linecap="round"/><g stroke="#000000" stroke-width="2.1" stroke-linecap="butt"><path d="M306.59323,182.19362c3.05937,-9.22233 13.01567,-14.2184 22.238,-11.15904c9.22233,3.05937 14.2184,13.01567 11.15904,22.238c-3.05937,9.22233 -13.01567,14.2184 -22.238,11.15904c-9.22233,-3.05937 -14.2184,-13.01567 -11.15904,-22.238z" fill="#a100d9"/><path d="M337.08588,192.30909c-1.70856,5.15038 -9.26945,7.27686 -16.88773,4.74961c-7.61828,-2.52725 -12.40905,-8.7512 -10.70048,-13.90158c1.70856,-5.15038 9.26945,-7.27686 16.88773,-4.74961c7.61828,2.52725 12.40905,8.75119 10.70048,13.90158z" fill="url(#color-3)"/></g><g stroke="#000000" stroke-width="2.1" stroke-linecap="butt"><path d="M272.21941,169.69168c-0.94393,-7.84244 4.64842,-14.96521 12.49087,-15.90914c7.84244,-0.94393 14.96521,4.64842 15.90914,12.49087c0.94393,7.84244 -4.64842,14.96521 -12.49087,15.90914c-7.84244,0.94393 -14.96521,-4.64842 -15.90914,-12.49087z" fill="#a100d9"/><path d="M298.14958,166.57069c0.52715,4.37976 -4.29728,8.56236 -10.77567,9.34211c-6.4784,0.77975 -12.15751,-2.13864 -12.68466,-6.51839c-0.52715,-4.37976 4.29728,-8.56236 10.77567,-9.34211c6.4784,-0.77975 12.15751,2.13864 12.68466,6.51839z" fill="url(#color-4)"/></g><g stroke="#000000" stroke-width="2.1" stroke-linecap="butt"><path d="M310.12195,229.56394c2.01742,-7.63708 9.84394,-12.19272 17.48101,-10.1753c7.63708,2.01742 12.19272,9.84394 10.1753,17.48101c-2.01742,7.63708 -9.84394,12.19272 -17.48101,10.1753c-7.63708,-2.01742 -12.19272,-9.84394 -10.1753,-17.48101z" fill="#a100d9"/><path d="M335.37312,236.23431c-1.12666,4.26507 -7.15426,6.3716 -13.46301,4.70508c-6.30875,-1.66652 -10.50964,-6.47503 -9.38298,-10.7401c1.12666,-4.26507 7.15425,-6.37159 13.463,-4.70507c6.30875,1.66652 10.50965,6.47503 9.38299,10.7401z" fill="url(#color-5)"/></g><g stroke="#000000" stroke-width="2.1" stroke-linecap="butt"><path d="M343.27809,212.62984c1.55292,-5.87869 7.57745,-9.38543 13.45614,-7.8325c5.87869,1.55292 9.38543,7.57745 7.8325,13.45614c-1.55292,5.87869 -7.57745,9.38543 -13.45614,7.8325c-5.87869,-1.55292 -9.38543,-7.57745 -7.8325,-13.45614z" fill="#a100d9"/><path d="M362.71536,217.7644c-0.86726,3.28307 -5.50704,4.90458 -10.36324,3.62177c-4.85621,-1.28282 -8.08987,-4.9842 -7.22262,-8.26726c0.86726,-3.28307 5.50704,-4.90458 10.36324,-3.62176c4.85621,1.28282 8.08988,4.9842 7.22262,8.26726z" fill="url(#color-6)"/></g><g stroke="#000000" stroke-width="2.1" stroke-linecap="butt"><path d="M346.75273,154.54284c3.05937,-9.22233 13.01567,-14.2184 22.238,-11.15904c9.22233,3.05937 14.21842,13.01567 11.15904,22.238c-3.05937,9.22233 -13.01567,14.2184 -22.238,11.15904c-9.22233,-3.05937 -14.21842,-13.01566 -11.15904,-22.23799z" fill="#a100d9"/><path d="M377.24535,164.6583c-1.70856,5.15038 -9.26945,7.27686 -16.88774,4.74962c-7.61828,-2.52725 -12.40904,-8.75119 -10.70047,-13.90158c1.70856,-5.15038 9.26945,-7.27686 16.88773,-4.74962c7.61828,2.52725 12.40905,8.75119 10.70048,13.90158z" fill="url(#color-7)"/></g><g stroke="#000000" stroke-width="2.1" stroke-linecap="butt"><path d="M312.3596,151.19367c-0.7267,-6.03766 3.57869,-11.52127 9.61634,-12.24797c6.03766,-0.7267 11.52127,3.57869 12.24797,9.61634c0.7267,6.03766 -3.57869,11.52127 -9.61634,12.24797c-6.03766,0.7267 -11.52127,-3.57869 -12.24797,-9.61634z" fill="#a100d9"/><path d="M332.32246,148.79091c0.40585,3.37184 -3.30835,6.59191 -8.29587,7.19222c-4.98752,0.6003 -9.3597,-1.64648 -9.76553,-5.01832c-0.40585,-3.37184 3.30835,-6.5919 8.29587,-7.1922c4.98752,-0.6003 9.3597,1.64647 9.76555,5.01832z" fill="url(#color-8)"/></g><path d="M232.59218,180c0,-48.274 39.13382,-87.40782 87.40782,-87.40782c48.274,0 87.40782,39.13382 87.40782,87.40782c0,48.274 -39.13382,87.40782 -87.40782,87.40782c-48.274,0 -87.40782,-39.13382 -87.40782,-87.40782z" fill="url(#color-9)" stroke="none" stroke-width="0" stroke-linecap="butt"/></g></g></svg>