<svg version="1.1" xmlns="http://www.w3.org/2000/svg" xmlns:xlink="http://www.w3.org/1999/xlink" width="37.4374" height="37.4374" viewBox="0,0,37.4374,37.4374"><defs><radialGradient cx="320" cy="180" r="18.7187" gradientUnits="userSpaceOnUse" id="color-1"><stop offset="0" stop-color="#ff5301"/><stop offset="1" stop-color="#ff5301" stop-opacity="0"/></radialGradient><radialGradient cx="320" cy="178.16419" r="10.23032" gradientUnits="userSpaceOnUse" id="color-2"><stop offset="0" stop-color="#ff5200"/><stop offset="1" stop-color="#ff8045"/></radialGradient><radialGradient cx="324.27982" cy="184.54946" r="5.40901" gradientUnits="userSpaceOnUse" id="color-3"><stop offset="0" stop-color="#46a400"/><stop offset="1" stop-color="#46a400" stop-opacity="0"/></radialGradient><radialGradient cx="315.56121" cy="184.54946" r="5.40901" gradientUnits="userSpaceOnUse" id="color-4"><stop offset="0" stop-color="#46a400"/><stop offset="1" stop-color="#46a400" stop-opacity="0"/></radialGradient></defs><g transform="translate(-301.2813,-161.2813)"><g data-paper-data="{&quot;isPaintingLayer&quot;:true}" fill-rule="nonzero" stroke-linecap="butt" stroke-linejoin="miter" stroke-miterlimit="10" stroke-dasharray="" stroke-dashoffset="0" style="mix-blend-mode: normal"><path d="M301.2813,180c0,-10.33805 8.38065,-18.7187 18.7187,-18.7187c10.33805,0 18.7187,8.38065 18.7187,18.7187c0,10.33805 -8.38065,18.7187 -18.7187,18.7187c-10.33805,0 -18.7187,-8.38065 -18.7187,-18.7187z" fill="url(#color-1)" stroke="#6e6e6e" stroke-width="0"/><path d="M310.36204,184.92157c1.3896,-2.67642 5.73288,-11.04175 8.09234,-15.58616c0.93854,-1.80766 2.1535,-1.87376 3.04458,-0.15749c2.28006,4.39148 6.52925,12.57561 7.8967,15.20937c1.22431,2.35806 0.52098,4.00721 -1.73773,4.00721c-4.95664,0 -13.28009,0 -15.87758,0c-1.52919,0 -2.25768,-1.85627 -1.41831,-3.47293z" fill="url(#color-2)" stroke="#ff5301" stroke-width="1.5"/><text transform="translate(314.6433,180.03376) scale(0.16204,0.16204)" font-size="40" xml:space="preserve" fill="#46a400" fill-rule="nonzero" stroke="none" stroke-width="1" stroke-linecap="butt" stroke-linejoin="miter" stroke-miterlimit="10" stroke-dasharray="" stroke-dashoffset="0" font-family="&quot;MV Boli&quot;, Technological" font-weight="normal" text-anchor="start" style="mix-blend-mode: normal"><tspan x="0" dy="0">XP</tspan></text><path d="M314.03682,186.56575c0,-0.31289 0,-1.06964 0,-1.55804c0,-0.26034 -0.60766,-0.44443 -0.95682,-0.44443c-0.18465,0 -0.47542,0 -0.74418,0c-0.34583,0 -0.24663,-0.29889 0.08713,-0.54305c0.47659,-0.34863 1.80968,-1.3238 2.5918,-1.89593c0.35236,-0.25776 0.78205,-0.29535 1.07032,-0.08447c0.75208,0.55016 2.17884,1.59385 2.68162,1.96163c0.17507,0.12807 0.41132,0.56182 0.0358,0.56182c-0.24599,0 -0.50006,0 -0.6672,0c-0.34916,0 -0.95682,0.20155 -0.95682,0.48198c0,0.50068 0,1.25279 0,1.55804c0,0.25659 -0.37608,0.59229 -0.83947,0.59229c-0.55203,0 -1.22798,0 -1.53968,0c-0.32458,0 -0.76249,-0.36081 -0.76249,-0.62983z" fill="#46a400" stroke="none" stroke-width="0"/><path d="M322.75543,186.56575c0,-0.31289 0,-1.06963 0,-1.55804c0,-0.26033 -0.60766,-0.44443 -0.95682,-0.44443c-0.18465,0 -0.47542,0 -0.74418,0c-0.34583,0 -0.24663,-0.29889 0.08713,-0.54305c0.47659,-0.34863 1.80968,-1.3238 2.5918,-1.89593c0.35236,-0.25776 0.78205,-0.29535 1.07032,-0.08447c0.75208,0.55016 2.17884,1.59385 2.68162,1.96163c0.17507,0.12807 0.41132,0.56182 0.0358,0.56182c-0.246,0 -0.50006,0 -0.6672,0c-0.34916,0 -0.95682,0.20155 -0.95682,0.48197c0,0.50068 0,1.25279 0,1.55804c0,0.2566 -0.37608,0.59229 -0.83947,0.59229c-0.55203,0 -1.22799,0 -1.53968,0c-0.32457,0 -0.76249,-0.36081 -0.76249,-0.62982z" fill="#46a400" stroke="none" stroke-width="0"/><path d="M318.87081,184.54946c0,-2.98732 2.4217,-5.40901 5.40901,-5.40901c2.98732,0 5.40901,2.4217 5.40901,5.40901c0,2.98732 -2.4217,5.40901 -5.40901,5.40901c-2.98732,0 -5.40901,-2.4217 -5.40901,-5.40901z" fill="url(#color-3)" stroke="#6e6e6e" stroke-width="0"/><path d="M310.15219,184.54946c0,-2.98732 2.4217,-5.40901 5.40901,-5.40901c2.98732,0 5.40901,2.4217 5.40901,5.40901c0,2.98732 -2.42169,5.40901 -5.40901,5.40901c-2.98732,0 -5.40901,-2.4217 -5.40901,-5.40901z" fill="url(#color-4)" stroke="#6e6e6e" stroke-width="0"/></g></g></svg>