<svg version="1.1" xmlns="http://www.w3.org/2000/svg" xmlns:xlink="http://www.w3.org/1999/xlink" width="142.33334" height="142.33334" viewBox="0,0,142.33334,142.33334"><defs><linearGradient x1="216.70114" y1="198.93923" x2="187.03199" y2="198.93923" gradientUnits="userSpaceOnUse" id="color-1"><stop offset="0" stop-color="#ff0000"/><stop offset="1" stop-color="#ff7100"/></linearGradient><linearGradient x1="219.20292" y1="198.93923" x2="189.53376" y2="198.93923" gradientUnits="userSpaceOnUse" id="color-2"><stop offset="0" stop-color="#ff0000"/><stop offset="1" stop-color="#ff7100"/></linearGradient><linearGradient x1="221.20433" y1="198.93922" x2="191.53518" y2="198.93923" gradientUnits="userSpaceOnUse" id="color-3"><stop offset="0" stop-color="#ff0000"/><stop offset="1" stop-color="#ff7100"/></linearGradient><linearGradient x1="223.70611" y1="198.93922" x2="194.03695" y2="198.93923" gradientUnits="userSpaceOnUse" id="color-4"><stop offset="0" stop-color="#ff0000"/><stop offset="1" stop-color="#ff7100"/></linearGradient><linearGradient x1="226.20787" y1="198.93923" x2="196.53873" y2="198.93923" gradientUnits="userSpaceOnUse" id="color-5"><stop offset="0" stop-color="#ff0000"/><stop offset="1" stop-color="#ff7100"/></linearGradient><linearGradient x1="228.70964" y1="198.93923" x2="199.04049" y2="198.93922" gradientUnits="userSpaceOnUse" id="color-6"><stop offset="0" stop-color="#ff0000"/><stop offset="1" stop-color="#ff7100"/></linearGradient><linearGradient x1="231.21142" y1="198.93923" x2="201.54227" y2="198.93922" gradientUnits="userSpaceOnUse" id="color-7"><stop offset="0" stop-color="#ff0000"/><stop offset="1" stop-color="#ff7100"/></linearGradient><linearGradient x1="216.70113" y1="152.255" x2="187.03198" y2="152.255" gradientUnits="userSpaceOnUse" id="color-8"><stop offset="0" stop-color="#ff0000"/><stop offset="1" stop-color="#ff7100"/></linearGradient><linearGradient x1="219.20291" y1="152.255" x2="189.53375" y2="152.255" gradientUnits="userSpaceOnUse" id="color-9"><stop offset="0" stop-color="#ff0000"/><stop offset="1" stop-color="#ff7100"/></linearGradient><linearGradient x1="221.20433" y1="152.255" x2="191.53518" y2="152.255" gradientUnits="userSpaceOnUse" id="color-10"><stop offset="0" stop-color="#ff0000"/><stop offset="1" stop-color="#ff7100"/></linearGradient><linearGradient x1="223.70611" y1="152.255" x2="194.03694" y2="152.255" gradientUnits="userSpaceOnUse" id="color-11"><stop offset="0" stop-color="#ff0000"/><stop offset="1" stop-color="#ff7100"/></linearGradient><linearGradient x1="226.20787" y1="152.255" x2="196.53872" y2="152.255" gradientUnits="userSpaceOnUse" id="color-12"><stop offset="0" stop-color="#ff0000"/><stop offset="1" stop-color="#ff7100"/></linearGradient><linearGradient x1="228.70964" y1="152.255" x2="199.04049" y2="152.255" gradientUnits="userSpaceOnUse" id="color-13"><stop offset="0" stop-color="#ff0000"/><stop offset="1" stop-color="#ff7100"/></linearGradient><linearGradient x1="231.21142" y1="152.255" x2="201.54227" y2="152.255" gradientUnits="userSpaceOnUse" id="color-14"><stop offset="0" stop-color="#ff0000"/><stop offset="1" stop-color="#ff7100"/></linearGradient><radialGradient cx="197.1137" cy="197.90328" r="22.0897" gradientUnits="userSpaceOnUse" id="color-15"><stop offset="0" stop-color="#ff6300"/><stop offset="1" stop-color="#ff6300" stop-opacity="0"/></radialGradient><radialGradient cx="197.1137" cy="150.39228" r="22.0897" gradientUnits="userSpaceOnUse" id="color-16"><stop offset="0" stop-color="#ff6300"/><stop offset="1" stop-color="#ff6300" stop-opacity="0"/></radialGradient><linearGradient x1="276.36839" y1="176.53731" x2="232.18901" y2="176.53731" gradientUnits="userSpaceOnUse" id="color-17"><stop offset="0" stop-color="#ff0000"/><stop offset="1" stop-color="#ff7166"/></linearGradient><linearGradient x1="301.76282" y1="176.5373" x2="267.84559" y2="176.5373" gradientUnits="userSpaceOnUse" id="color-18"><stop offset="0" stop-color="#740000"/><stop offset="1" stop-color="#ff0000"/></linearGradient><radialGradient cx="240" cy="180" r="71.16667" gradientUnits="userSpaceOnUse" id="color-19"><stop offset="0" stop-color="#ff4e00" stop-opacity="0.49799"/><stop offset="1" stop-color="#ff4e00" stop-opacity="0"/></radialGradient></defs><g transform="translate(-168.83333,-108.83333)"><g data-paper-data="{&quot;isPaintingLayer&quot;:true}" fill-rule="nonzero" stroke-linecap="butt" stroke-linejoin="miter" stroke-miterlimit="10" stroke-dasharray="" stroke-dashoffset="0" style="mix-blend-mode: normal"><g stroke="none"><g stroke-width="0.5"><g><path d="M209.34791,195.84776c-0.68564,-0.50471 -1.91566,-1.73464 -0.32015,-3.25258c0.78258,-0.74454 1.66227,-1.00403 2.45833,-1.03643c0.05953,-0.47906 0.2792,-0.97924 0.52902,-1.39592c-0.9734,0.12853 -3.07635,0.17468 -3.96716,-1.60509c-1.17841,-2.35435 2.12113,-3.1952 2.12113,-3.1952c2.05408,-0.24371 4.36933,-1.48671 6.16225,-0.73111c5.20618,2.19411 2.26064,4.74238 2.13996,7.33833c-0.03127,0.67283 0.89513,4.85539 0.96243,5.57995c0.25523,2.74797 0.00765,5.58706 0.00618,8.34114l-0.04415,0.07171l0.03961,0.00166l-0.24017,2.91327c-0.09444,1.32052 -1.62488,2.37049 -3.49903,2.37049c-1.57608,0 -2.9091,-0.74256 -3.34941,-1.76412l-1.42401,-3.04826l0.09439,-0.02245c-0.07279,-0.09737 -0.14319,-0.19579 -0.21096,-0.29535c-0.64944,-0.9539 -0.15399,-2.11872 -0.29014,-3.17476c-0.31607,-2.4515 -0.97437,-4.6869 -1.16811,-7.09529z" fill="#ff4200"/><path d="M216.1336,212.82987c0,1.59769 -2.2391,1.59769 -2.2391,1.59769l-1.42574,-0.10172c-2.22959,-0.59783 -4.29829,-1.18649 -6.70755,-1.27035c-0.27549,-0.00959 -6.39478,0.04889 -6.69868,-0.09234c-0.21519,-0.10001 -0.41447,-0.21249 -0.60126,-0.33477l-0.06993,0.05988l-1.90546,-1.13302c-0.49993,-0.29302 -0.8188,-0.73753 -0.8188,-1.23519c0,-0.38146 0.18736,-0.73171 0.49999,-1.00643c-1.48931,-0.49955 -2.90498,-1.41834 -3.00958,-1.62889c-0.36211,-0.72884 1.69271,-2.21999 3.32165,-3.0683h-2.09037c-1.23662,0 -2.2391,-0.71532 -2.2391,-1.5977c0,-0.81372 0.85254,-1.48536 1.95504,-1.58496l1.63643,-0.16681c0.577,-0.51108 0.74318,-1.26397 1.12299,-1.87317c-2.06612,-0.33159 -4.2095,-0.52059 -5.97738,-1.31491c-1.59569,-0.71695 -4.03394,-1.62259 -3.84431,-2.96128c0.19388,-1.36863 2.96261,-1.77895 4.616,-2.48637c0.2021,-0.08648 0.45923,-0.17615 0.73933,-0.25498c-0.50324,-0.15955 -0.96404,-0.36383 -1.3178,-0.65421c-0.10078,-0.08273 -0.19549,-0.16832 -0.28493,-0.25639l-0.045,0.02676l-1.58943,-1.36094c-0.32965,-0.27824 -0.52839,-0.638 -0.52839,-1.03088c0,-0.88238 1.00248,-1.5977 2.23912,-1.5977h2.87789c1.19835,0.00628 2.82186,0.6225 3.59489,-0.0309c1.2614,-1.06619 0.3576,-3.28944 2.11241,-3.90511c1.20753,-0.42365 2.62673,0.4421 3.96544,0.53915c3.30155,0.23935 6.13605,-0.07673 9.16807,0.26311c0.55202,0.40188 1.17604,0.75322 1.85713,1.04341c0.29578,0.21445 0.6121,0.41441 0.9467,0.59828c0.01823,0.4298 0.51226,0.77423 1.11903,0.77423c0.06414,0 0.12703,-0.00385 0.18823,-0.01125c-0.02031,0.04885 -0.04375,0.09876 -0.07056,0.14977c-0.78621,1.49597 -2.88275,0.93498 -2.88275,0.93498c-3.74751,-1.05 -7.30169,0.03698 -11.12489,-0.60841c-0.53072,-0.08959 -0.64411,-0.6859 -1.15083,-0.82984c-0.3178,-0.09026 0.5678,0.40467 0.49176,0.64263c-0.30892,0.96673 -0.5662,2.07318 -1.57702,2.75358c-0.70765,0.47634 -1.72397,0.70111 -2.80543,0.80489c1.10482,0.83526 1.81952,1.94761 1.51176,2.81325c-0.10567,0.29724 -2.30812,1.42015 -4.36607,1.98038c0.64595,0.10411 1.28527,0.23116 1.91574,0.37176c1.58315,0.35305 3.09032,0.86057 4.63549,1.29086l0.21724,0.22091l0.08241,-0.07056l1.90547,1.13302c0.49993,0.29302 0.8188,0.73754 0.8188,1.2352c0,0.82932 -0.88553,1.51105 -2.01869,1.59006l-1.02769,0.08148c0.2246,0.4185 0.44225,0.95028 0.64867,1.61535c0.38652,1.24534 -0.82913,2.47162 -1.98601,3.55109c1.19175,-0.03643 2.48517,-0.04304 2.9502,0.62094c0.59711,0.85256 0.05433,1.8346 -0.40047,2.80666c4.25396,-0.06498 7.61227,0.41439 11.57291,1.4721l-0.14668,-0.10173c0,0 2.2391,0 2.2391,1.5977z" fill="url(#color-1)"/><path d="M218.63538,212.82987c0,1.59769 -2.23912,1.59769 -2.23912,1.59769l-1.42574,-0.10172c-2.22959,-0.59783 -4.29829,-1.18649 -6.70755,-1.27035c-0.27549,-0.00959 -6.39478,0.04889 -6.69868,-0.09234c-0.21519,-0.10001 -0.41447,-0.21249 -0.60126,-0.33477l-0.06993,0.05988l-1.90546,-1.13302c-0.49993,-0.29302 -0.8188,-0.73753 -0.8188,-1.23519c0,-0.38146 0.18736,-0.73171 0.49999,-1.00643c-1.48931,-0.49955 -2.90498,-1.41834 -3.00958,-1.62889c-0.36211,-0.72884 1.69271,-2.21999 3.32165,-3.0683h-2.09037c-1.23662,0 -2.2391,-0.71532 -2.2391,-1.5977c0,-0.81372 0.85254,-1.48536 1.95504,-1.58496l1.63643,-0.16681c0.577,-0.51108 0.74318,-1.26397 1.12299,-1.87317c-2.06612,-0.33159 -4.20952,-0.52059 -5.97739,-1.31491c-1.59569,-0.71695 -4.03394,-1.62259 -3.84431,-2.96128c0.19388,-1.36863 2.96261,-1.77895 4.616,-2.48637c0.2021,-0.08648 0.45923,-0.17615 0.73933,-0.25498c-0.50324,-0.15955 -0.96404,-0.36383 -1.3178,-0.65421c-0.10078,-0.08273 -0.19549,-0.16832 -0.28493,-0.25639l-0.045,0.02676l-1.58943,-1.36094c-0.32965,-0.27824 -0.52839,-0.638 -0.52839,-1.03088c0,-0.88238 1.00248,-1.5977 2.2391,-1.5977h2.87789c1.19835,0.00628 2.82187,0.6225 3.59491,-0.0309c1.2614,-1.06619 0.3576,-3.28944 2.1124,-3.90511c1.20753,-0.42365 2.62673,0.4421 3.96544,0.53915c3.30155,0.23935 6.13605,-0.07673 9.16807,0.26311c0.55202,0.40188 1.17604,0.75322 1.85713,1.04341c0.29578,0.21445 0.6121,0.41441 0.9467,0.59828c0.01823,0.4298 0.51226,0.77423 1.11903,0.77423c0.06414,0 0.12704,-0.00385 0.18824,-0.01125c-0.02031,0.04885 -0.04375,0.09876 -0.07056,0.14977c-0.78621,1.49597 -2.88274,0.93498 -2.88274,0.93498c-3.74751,-1.05 -7.30169,0.03698 -11.12489,-0.60841c-0.53072,-0.08959 -0.64413,-0.6859 -1.15083,-0.82984c-0.3178,-0.09026 0.5678,0.40467 0.49176,0.64263c-0.30892,0.96673 -0.5662,2.07318 -1.57702,2.75358c-0.70765,0.47634 -1.72397,0.70111 -2.80543,0.80489c1.10482,0.83526 1.8195,1.94761 1.51176,2.81325c-0.10567,0.29724 -2.30811,1.42015 -4.36606,1.98038c0.64595,0.10411 1.28527,0.23116 1.91573,0.37176c1.58315,0.35305 3.09032,0.86057 4.63549,1.29086l0.21724,0.22091l0.08241,-0.07056l1.90546,1.13302c0.49993,0.29302 0.8188,0.73754 0.8188,1.2352c0,0.82932 -0.88553,1.51105 -2.01869,1.59006l-1.02769,0.08148c0.2246,0.4185 0.44225,0.95028 0.64867,1.61535c0.38652,1.24534 -0.82913,2.47162 -1.98601,3.55109c1.19175,-0.03643 2.48517,-0.04304 2.9502,0.62094c0.59711,0.85256 0.05433,1.8346 -0.40047,2.80666c4.25396,-0.06498 7.61225,0.41439 11.57291,1.4721l-0.14668,-0.10173c0,0 2.23912,0 2.23912,1.5977z" fill="url(#color-2)"/><path d="M220.63679,212.82986c0,1.59769 -2.2391,1.59769 -2.2391,1.59769l-1.42574,-0.10172c-2.22959,-0.59783 -4.29829,-1.18649 -6.70755,-1.27035c-0.27549,-0.00959 -6.39476,0.04889 -6.69867,-0.09234c-0.21519,-0.10001 -0.41447,-0.21249 -0.60126,-0.33477l-0.06993,0.05988l-1.90547,-1.13302c-0.49993,-0.29302 -0.8188,-0.73753 -0.8188,-1.23519c0,-0.38146 0.18736,-0.73171 0.49999,-1.00643c-1.48931,-0.49955 -2.90498,-1.41834 -3.00958,-1.62889c-0.36211,-0.72884 1.69271,-2.21999 3.32165,-3.0683h-2.09037c-1.23662,0 -2.2391,-0.71532 -2.2391,-1.5977c0,-0.81372 0.85254,-1.48536 1.95504,-1.58496l1.63643,-0.16681c0.577,-0.51108 0.74318,-1.26397 1.12299,-1.87317c-2.06612,-0.33159 -4.20952,-0.52059 -5.97739,-1.31491c-1.59569,-0.71695 -4.03393,-1.62259 -3.8443,-2.96128c0.19388,-1.36863 2.96261,-1.77895 4.616,-2.48637c0.2021,-0.08648 0.45925,-0.17615 0.73933,-0.25498c-0.50324,-0.15955 -0.96404,-0.36383 -1.3178,-0.65421c-0.10078,-0.08273 -0.19549,-0.16832 -0.28493,-0.25639l-0.045,0.02676l-1.58943,-1.36094c-0.32965,-0.27824 -0.52839,-0.638 -0.52839,-1.03088c0,-0.88238 1.00248,-1.5977 2.23912,-1.5977h2.87789c1.19835,0.00628 2.82186,0.6225 3.59489,-0.0309c1.2614,-1.06619 0.3576,-3.28944 2.1124,-3.90511c1.20753,-0.42365 2.62673,0.4421 3.96544,0.53915c3.30155,0.23935 6.13605,-0.07673 9.16807,0.26311c0.55202,0.40188 1.17604,0.75322 1.85713,1.04341c0.29578,0.21445 0.6121,0.41441 0.9467,0.59828c0.01823,0.4298 0.51226,0.77423 1.11903,0.77423c0.06414,0 0.12703,-0.00385 0.18823,-0.01125c-0.02031,0.04885 -0.04375,0.09876 -0.07056,0.14977c-0.78621,1.49597 -2.88274,0.93498 -2.88274,0.93498c-3.74751,-1.05 -7.30169,0.03698 -11.12489,-0.60841c-0.53072,-0.08959 -0.64411,-0.6859 -1.15083,-0.82984c-0.3178,-0.09026 0.5678,0.40467 0.49176,0.64263c-0.30892,0.96673 -0.5662,2.07318 -1.57702,2.75358c-0.70765,0.47634 -1.72397,0.70111 -2.80543,0.80489c1.10482,0.83526 1.8195,1.94761 1.51176,2.81325c-0.10567,0.29724 -2.30811,1.42015 -4.36606,1.98038c0.64595,0.10411 1.28527,0.23116 1.91574,0.37176c1.58315,0.35305 3.09032,0.86057 4.63549,1.29086l0.21724,0.22091l0.08241,-0.07056l1.90546,1.13302c0.49993,0.29302 0.8188,0.73754 0.8188,1.2352c0,0.82932 -0.88553,1.51105 -2.01869,1.59006l-1.02769,0.08148c0.2246,0.4185 0.44225,0.95028 0.64867,1.61535c0.38652,1.24534 -0.82913,2.47162 -1.98601,3.55109c1.19175,-0.03643 2.48517,-0.04304 2.9502,0.62094c0.59711,0.85256 0.05433,1.8346 -0.40047,2.80666c4.25396,-0.06498 7.61227,0.41439 11.57291,1.4721l-0.14668,-0.10173c0,0 2.2391,0 2.2391,1.5977z" fill="url(#color-3)"/><path d="M223.13857,212.82986c0,1.59769 -2.23912,1.59769 -2.23912,1.59769l-1.42574,-0.10172c-2.22959,-0.59783 -4.29829,-1.18649 -6.70755,-1.27035c-0.27549,-0.00959 -6.39478,0.04889 -6.69868,-0.09234c-0.21519,-0.10001 -0.41447,-0.21249 -0.60126,-0.33477l-0.06993,0.05988l-1.90546,-1.13302c-0.49993,-0.29302 -0.8188,-0.73753 -0.8188,-1.23519c0,-0.38146 0.18735,-0.73171 0.49999,-1.00643c-1.48931,-0.49955 -2.90498,-1.41834 -3.00958,-1.62889c-0.36211,-0.72884 1.69271,-2.21999 3.32165,-3.0683h-2.09037c-1.23662,0 -2.2391,-0.71532 -2.2391,-1.5977c0,-0.81372 0.85254,-1.48536 1.95504,-1.58496l1.63643,-0.16681c0.577,-0.51108 0.74318,-1.26397 1.12299,-1.87317c-2.06612,-0.33159 -4.20952,-0.52059 -5.97739,-1.31491c-1.59569,-0.71695 -4.03394,-1.62259 -3.84431,-2.96128c0.19388,-1.36863 2.96261,-1.77895 4.616,-2.48637c0.2021,-0.08648 0.45923,-0.17615 0.73933,-0.25498c-0.50324,-0.15955 -0.96404,-0.36383 -1.3178,-0.65421c-0.10078,-0.08273 -0.19549,-0.16832 -0.28493,-0.25639l-0.045,0.02676l-1.58943,-1.36094c-0.32965,-0.27824 -0.52839,-0.638 -0.52839,-1.03088c0,-0.88238 1.00248,-1.5977 2.2391,-1.5977h2.87789c1.19835,0.00628 2.82187,0.6225 3.59491,-0.0309c1.2614,-1.06619 0.3576,-3.28944 2.1124,-3.90511c1.20753,-0.42365 2.62673,0.4421 3.96544,0.53915c3.30155,0.23935 6.13605,-0.07673 9.16807,0.26311c0.55202,0.40188 1.17604,0.75322 1.85713,1.04341c0.29578,0.21445 0.6121,0.41441 0.9467,0.59828c0.01823,0.4298 0.51226,0.77423 1.11903,0.77423c0.06414,0 0.12704,-0.00385 0.18824,-0.01125c-0.02031,0.04885 -0.04375,0.09876 -0.07056,0.14977c-0.78621,1.49597 -2.88275,0.93498 -2.88275,0.93498c-3.74751,-1.05 -7.30168,0.03698 -11.12489,-0.60841c-0.53072,-0.08959 -0.64413,-0.6859 -1.15083,-0.82984c-0.3178,-0.09026 0.5678,0.40467 0.49176,0.64263c-0.30892,0.96673 -0.5662,2.07318 -1.57702,2.75358c-0.70765,0.47634 -1.72397,0.70111 -2.80543,0.80489c1.10482,0.83526 1.8195,1.94761 1.51176,2.81325c-0.10567,0.29724 -2.30811,1.42015 -4.36606,1.98038c0.64595,0.10411 1.28527,0.23116 1.91573,0.37176c1.58315,0.35305 3.09032,0.86057 4.63549,1.29086l0.21724,0.22091l0.08241,-0.07056l1.90546,1.13302c0.49993,0.29302 0.8188,0.73754 0.8188,1.2352c0,0.82932 -0.88553,1.51105 -2.01869,1.59006l-1.02769,0.08148c0.2246,0.4185 0.44225,0.95028 0.64867,1.61535c0.38652,1.24534 -0.82913,2.47162 -1.98601,3.55109c1.19175,-0.03643 2.48517,-0.04304 2.95019,0.62094c0.59711,0.85256 0.05433,1.8346 -0.40047,2.80666c4.25396,-0.06498 7.61225,0.41439 11.57291,1.4721l-0.14668,-0.10173c0,0 2.23912,0 2.23912,1.5977z" fill="url(#color-4)"/><path d="M225.64034,212.82986c0,1.59769 -2.23912,1.59769 -2.23912,1.59769l-1.42574,-0.10172c-2.22959,-0.59783 -4.29829,-1.18649 -6.70755,-1.27035c-0.27549,-0.00959 -6.39478,0.04889 -6.69868,-0.09234c-0.21519,-0.10001 -0.41447,-0.21249 -0.60126,-0.33477l-0.06993,0.05988l-1.90546,-1.13302c-0.49993,-0.29302 -0.8188,-0.73753 -0.8188,-1.23519c0,-0.38146 0.18736,-0.73171 0.49999,-1.00643c-1.48931,-0.49955 -2.90498,-1.41834 -3.00958,-1.62889c-0.36211,-0.72884 1.69271,-2.21999 3.32165,-3.0683h-2.09037c-1.23662,0 -2.23912,-0.71532 -2.23912,-1.5977c0,-0.81372 0.85254,-1.48536 1.95504,-1.58496l1.63643,-0.16681c0.577,-0.51108 0.74318,-1.26397 1.12299,-1.87317c-2.06612,-0.33159 -4.20952,-0.52059 -5.97739,-1.31491c-1.59569,-0.71695 -4.03394,-1.62259 -3.84431,-2.96128c0.19388,-1.36863 2.96261,-1.77895 4.616,-2.48637c0.2021,-0.08648 0.45925,-0.17615 0.73933,-0.25498c-0.50324,-0.15955 -0.96404,-0.36383 -1.3178,-0.65421c-0.10078,-0.08273 -0.19549,-0.16832 -0.28493,-0.25639l-0.045,0.02676l-1.58943,-1.36094c-0.32965,-0.27824 -0.52839,-0.638 -0.52839,-1.03088c0,-0.88238 1.00248,-1.5977 2.2391,-1.5977h2.8779c1.19835,0.00628 2.82186,0.6225 3.59489,-0.0309c1.2614,-1.06619 0.3576,-3.28944 2.1124,-3.90511c1.20753,-0.42365 2.62673,0.4421 3.96544,0.53915c3.30155,0.23935 6.13605,-0.07673 9.16807,0.26311c0.55202,0.40188 1.17602,0.75322 1.85713,1.04341c0.29578,0.21445 0.6121,0.41441 0.9467,0.59828c0.01823,0.4298 0.51226,0.77423 1.11903,0.77423c0.06414,0 0.12704,-0.00385 0.18824,-0.01125c-0.02031,0.04885 -0.04375,0.09876 -0.07056,0.14977c-0.78621,1.49597 -2.88274,0.93498 -2.88274,0.93498c-3.74751,-1.05 -7.30169,0.03698 -11.12489,-0.60841c-0.53072,-0.08959 -0.64411,-0.6859 -1.15083,-0.82984c-0.3178,-0.09026 0.5678,0.40467 0.49176,0.64263c-0.30892,0.96673 -0.5662,2.07318 -1.57702,2.75358c-0.70765,0.47634 -1.72397,0.70111 -2.80543,0.80489c1.10482,0.83526 1.8195,1.94761 1.51176,2.81325c-0.10567,0.29724 -2.30811,1.42015 -4.36606,1.98038c0.64595,0.10411 1.28527,0.23116 1.91573,0.37176c1.58315,0.35305 3.09032,0.86057 4.63549,1.29086l0.21725,0.22091l0.08241,-0.07056l1.90546,1.13302c0.49993,0.29302 0.8188,0.73754 0.8188,1.2352c0,0.82932 -0.88553,1.51105 -2.01869,1.59006l-1.02769,0.08148c0.2246,0.4185 0.44226,0.95028 0.64868,1.61535c0.38652,1.24534 -0.82913,2.47162 -1.98601,3.55109c1.19175,-0.03643 2.48517,-0.04304 2.9502,0.62094c0.59711,0.85256 0.05433,1.8346 -0.40047,2.80666c4.25396,-0.06498 7.61227,0.41439 11.57291,1.4721l-0.14668,-0.10173c0,0 2.23912,0 2.23912,1.5977z" fill="url(#color-5)"/><path d="M228.14212,212.82986c0,1.59769 -2.2391,1.59769 -2.2391,1.59769l-1.42574,-0.10172c-2.22959,-0.59783 -4.29829,-1.18649 -6.70755,-1.27035c-0.27549,-0.00959 -6.39476,0.04889 -6.69867,-0.09234c-0.21519,-0.10001 -0.41447,-0.21249 -0.60126,-0.33477l-0.06993,0.05988l-1.90547,-1.13302c-0.49993,-0.29302 -0.8188,-0.73753 -0.8188,-1.23519c0,-0.38146 0.18736,-0.73171 0.49999,-1.00643c-1.48931,-0.49955 -2.90498,-1.41834 -3.00958,-1.62889c-0.36211,-0.72884 1.69271,-2.21999 3.32165,-3.0683h-2.09037c-1.23662,0 -2.2391,-0.71532 -2.2391,-1.5977c0,-0.81372 0.85254,-1.48536 1.95504,-1.58496l1.63643,-0.16681c0.577,-0.51108 0.74318,-1.26397 1.12299,-1.87317c-2.06612,-0.33159 -4.20952,-0.52059 -5.97739,-1.31491c-1.59569,-0.71695 -4.03393,-1.62259 -3.8443,-2.96128c0.19388,-1.36863 2.96261,-1.77895 4.616,-2.48637c0.2021,-0.08648 0.45923,-0.17615 0.73933,-0.25498c-0.50324,-0.15955 -0.96404,-0.36383 -1.3178,-0.65421c-0.10078,-0.08273 -0.19549,-0.16832 -0.28493,-0.25639l-0.045,0.02676l-1.58943,-1.36094c-0.32965,-0.27824 -0.52839,-0.638 -0.52839,-1.03088c0,-0.88238 1.00248,-1.5977 2.23912,-1.5977h2.87789c1.19835,0.00628 2.82186,0.6225 3.59489,-0.0309c1.2614,-1.06619 0.3576,-3.28944 2.1124,-3.90511c1.20753,-0.42365 2.62673,0.4421 3.96544,0.53915c3.30155,0.23935 6.13605,-0.07673 9.16807,0.26311c0.55202,0.40188 1.17604,0.75322 1.85713,1.04341c0.29578,0.21445 0.6121,0.41441 0.9467,0.59828c0.01823,0.4298 0.51226,0.77423 1.11903,0.77423c0.06414,0 0.12703,-0.00385 0.18823,-0.01125c-0.02031,0.04885 -0.04375,0.09876 -0.07056,0.14977c-0.78621,1.49597 -2.88274,0.93498 -2.88274,0.93498c-3.74751,-1.05 -7.30169,0.03698 -11.12489,-0.60841c-0.53072,-0.08959 -0.64411,-0.6859 -1.15083,-0.82984c-0.3178,-0.09026 0.5678,0.40467 0.49176,0.64263c-0.30892,0.96673 -0.5662,2.07318 -1.57702,2.75358c-0.70765,0.47634 -1.72397,0.70111 -2.80543,0.80489c1.10482,0.83526 1.8195,1.94761 1.51176,2.81325c-0.10567,0.29724 -2.30811,1.42015 -4.36606,1.98038c0.64595,0.10411 1.28527,0.23116 1.91574,0.37176c1.58315,0.35305 3.09032,0.86057 4.63549,1.29086l0.21724,0.22091l0.08241,-0.07056l1.90546,1.13302c0.49993,0.29302 0.8188,0.73754 0.8188,1.2352c0,0.82932 -0.88553,1.51105 -2.01869,1.59006l-1.02769,0.08148c0.2246,0.4185 0.44225,0.95028 0.64867,1.61535c0.38652,1.24534 -0.82913,2.47162 -1.98601,3.55109c1.19175,-0.03643 2.48517,-0.04304 2.9502,0.62094c0.59711,0.85256 0.05433,1.8346 -0.40047,2.80666c4.25396,-0.06498 7.61227,0.41439 11.57291,1.4721l-0.14668,-0.10173c0,0 2.2391,0 2.2391,1.5977z" fill="url(#color-6)"/><path d="M230.6439,212.82986c0,1.59769 -2.23912,1.59769 -2.23912,1.59769l-1.42574,-0.10172c-2.22959,-0.59783 -4.29829,-1.18649 -6.70755,-1.27035c-0.27549,-0.00959 -6.39478,0.04889 -6.69868,-0.09234c-0.21519,-0.10001 -0.41447,-0.21249 -0.60126,-0.33477l-0.06993,0.05988l-1.90546,-1.13302c-0.49993,-0.29302 -0.8188,-0.73753 -0.8188,-1.23519c0,-0.38146 0.18735,-0.73171 0.49999,-1.00643c-1.48931,-0.49955 -2.90498,-1.41834 -3.00958,-1.62889c-0.36211,-0.72884 1.69271,-2.21999 3.32165,-3.0683h-2.09037c-1.23662,0 -2.2391,-0.71532 -2.2391,-1.5977c0,-0.81372 0.85254,-1.48536 1.95504,-1.58496l1.63643,-0.16681c0.577,-0.51108 0.74318,-1.26397 1.12299,-1.87317c-2.06612,-0.33159 -4.20952,-0.52059 -5.97739,-1.31491c-1.59569,-0.71695 -4.03394,-1.62259 -3.84431,-2.96128c0.19388,-1.36863 2.96261,-1.77895 4.616,-2.48637c0.2021,-0.08648 0.45923,-0.17615 0.73933,-0.25498c-0.50324,-0.15955 -0.96404,-0.36383 -1.3178,-0.65421c-0.10078,-0.08273 -0.19549,-0.16832 -0.28493,-0.25639l-0.045,0.02676l-1.58943,-1.36094c-0.32965,-0.27824 -0.52839,-0.638 -0.52839,-1.03088c0,-0.88238 1.00248,-1.5977 2.2391,-1.5977h2.87789c1.19835,0.00628 2.82187,0.6225 3.59491,-0.0309c1.2614,-1.06619 0.3576,-3.28944 2.1124,-3.90511c1.20753,-0.42365 2.62673,0.4421 3.96544,0.53915c3.30155,0.23935 6.13605,-0.07673 9.16807,0.26311c0.55202,0.40188 1.17604,0.75322 1.85713,1.04341c0.29578,0.21445 0.6121,0.41441 0.9467,0.59828c0.01823,0.4298 0.51226,0.77423 1.11903,0.77423c0.06414,0 0.12704,-0.00385 0.18824,-0.01125c-0.02031,0.04885 -0.04375,0.09876 -0.07056,0.14977c-0.78621,1.49597 -2.88275,0.93498 -2.88275,0.93498c-3.74751,-1.05 -7.30168,0.03698 -11.12489,-0.60841c-0.53072,-0.08959 -0.64413,-0.6859 -1.15083,-0.82984c-0.3178,-0.09026 0.5678,0.40467 0.49176,0.64263c-0.30892,0.96673 -0.5662,2.07318 -1.57702,2.75358c-0.70765,0.47634 -1.72397,0.70111 -2.80543,0.80489c1.10482,0.83526 1.8195,1.94761 1.51176,2.81325c-0.10567,0.29724 -2.30811,1.42015 -4.36606,1.98038c0.64595,0.10411 1.28527,0.23116 1.91573,0.37176c1.58315,0.35305 3.09032,0.86057 4.63549,1.29086l0.21724,0.22091l0.08241,-0.07056l1.90546,1.13302c0.49993,0.29302 0.8188,0.73754 0.8188,1.2352c0,0.82932 -0.88553,1.51105 -2.01869,1.59006l-1.02769,0.08148c0.2246,0.4185 0.44225,0.95028 0.64867,1.61535c0.38652,1.24534 -0.82913,2.47162 -1.98601,3.55109c1.19175,-0.03643 2.48517,-0.04304 2.95019,0.62094c0.59711,0.85256 0.05433,1.8346 -0.40047,2.80666c4.25396,-0.06498 7.61225,0.41439 11.57291,1.4721l-0.14668,-0.10173c0,0 2.23912,0 2.23912,1.5977z" fill="url(#color-7)"/></g><g><path d="M209.34791,149.16352c-0.68564,-0.50471 -1.91566,-1.73463 -0.32015,-3.25258c0.78258,-0.74454 1.66228,-1.00403 2.45833,-1.03643c0.05953,-0.47906 0.2792,-0.97924 0.52902,-1.39592c-0.9734,0.12853 -3.07635,0.17468 -3.96716,-1.60509c-1.17841,-2.35435 2.12113,-3.1952 2.12113,-3.1952c2.05408,-0.24371 4.36933,-1.48671 6.16225,-0.73111c5.20618,2.19411 2.26064,4.74238 2.13996,7.33833c-0.03127,0.67283 0.89513,4.85539 0.96243,5.57995c0.25523,2.74796 0.00765,5.58706 0.00618,8.34114l-0.04415,0.07171l0.03961,0.00166l-0.24017,2.91327c-0.09444,1.32052 -1.62488,2.37049 -3.49903,2.37049c-1.57609,0 -2.9091,-0.74256 -3.34941,-1.76412l-1.42401,-3.04826l0.09439,-0.02245c-0.07279,-0.09737 -0.14319,-0.1958 -0.21096,-0.29535c-0.64944,-0.9539 -0.15399,-2.11872 -0.29014,-3.17476c-0.31607,-2.45149 -0.97437,-4.6869 -1.16811,-7.09529z" fill="#ff4200"/><path d="M216.1336,166.14565c0,1.59769 -2.2391,1.5977 -2.2391,1.5977l-1.42574,-0.10173c-2.22959,-0.59784 -4.29829,-1.18649 -6.70756,-1.27035c-0.27549,-0.00959 -6.39478,0.04889 -6.69868,-0.09234c-0.21519,-0.10001 -0.41447,-0.21249 -0.60126,-0.33477l-0.06993,0.05989l-1.90546,-1.13302c-0.49993,-0.29302 -0.8188,-0.73754 -0.8188,-1.2352c0,-0.38146 0.18736,-0.73171 0.49999,-1.00643c-1.48931,-0.49955 -2.90498,-1.41834 -3.00959,-1.62889c-0.36211,-0.72884 1.69271,-2.21999 3.32165,-3.0683h-2.09037c-1.23662,0 -2.2391,-0.71532 -2.2391,-1.5977c0,-0.81372 0.85254,-1.48537 1.95504,-1.58497l1.63643,-0.1668c0.577,-0.51108 0.74318,-1.26397 1.12299,-1.87317c-2.06612,-0.33158 -4.2095,-0.52059 -5.97738,-1.31492c-1.59569,-0.71696 -4.03394,-1.62259 -3.84431,-2.96128c0.19388,-1.36863 2.96261,-1.77895 4.616,-2.48637c0.2021,-0.08648 0.45923,-0.17615 0.73933,-0.25498c-0.50324,-0.15955 -0.96404,-0.36383 -1.3178,-0.65421c-0.10078,-0.08273 -0.19549,-0.16832 -0.28493,-0.25639l-0.045,0.02676l-1.58943,-1.36094c-0.32965,-0.27824 -0.52839,-0.638 -0.52839,-1.03088c0,-0.88238 1.00248,-1.5977 2.23912,-1.5977h2.87789c1.19835,0.00628 2.82186,0.6225 3.59489,-0.0309c1.2614,-1.06619 0.3576,-3.28944 2.11241,-3.90511c1.20753,-0.42365 2.62673,0.4421 3.96544,0.53915c3.30155,0.23935 6.13605,-0.07673 9.16808,0.26311c0.55202,0.40188 1.17604,0.75322 1.85713,1.04341c0.29578,0.21445 0.6121,0.41441 0.9467,0.59828c0.01823,0.4298 0.51226,0.77423 1.11903,0.77423c0.06414,0 0.12703,-0.00385 0.18823,-0.01125c-0.02031,0.04885 -0.04375,0.09876 -0.07056,0.14977c-0.78621,1.49597 -2.88275,0.93498 -2.88275,0.93498c-3.74751,-1.05 -7.30169,0.03697 -11.1249,-0.60841c-0.53072,-0.08959 -0.64411,-0.6859 -1.15083,-0.82984c-0.3178,-0.09026 0.5678,0.40467 0.49176,0.64263c-0.30892,0.96673 -0.56621,2.07318 -1.57702,2.75358c-0.70765,0.47634 -1.72397,0.70111 -2.80543,0.80489c1.10482,0.83526 1.81952,1.94761 1.51176,2.81326c-0.10567,0.29725 -2.30813,1.42014 -4.36608,1.98038c0.64595,0.10411 1.28527,0.23117 1.91574,0.37176c1.58315,0.35306 3.09032,0.86057 4.63549,1.29085l0.21724,0.22091l0.08241,-0.07056l1.90547,1.13302c0.49993,0.29302 0.8188,0.73754 0.8188,1.2352c0,0.82932 -0.88553,1.51105 -2.0187,1.59006l-1.02769,0.08148c0.2246,0.4185 0.44225,0.95028 0.64867,1.61535c0.38652,1.24534 -0.82913,2.47162 -1.98601,3.55109c1.19175,-0.03644 2.48517,-0.04304 2.95021,0.62094c0.59711,0.85256 0.05433,1.8346 -0.40047,2.80666c4.25396,-0.06498 7.61227,0.41439 11.57292,1.4721l-0.14668,-0.10173c0,0 2.2391,0 2.2391,1.5977z" fill="url(#color-8)"/><path d="M218.63538,166.14565c0,1.59769 -2.23912,1.5977 -2.23912,1.5977l-1.42574,-0.10173c-2.22959,-0.59784 -4.29829,-1.18649 -6.70756,-1.27035c-0.27549,-0.00959 -6.39478,0.04889 -6.69868,-0.09234c-0.21519,-0.10001 -0.41447,-0.21249 -0.60126,-0.33477l-0.06993,0.05989l-1.90546,-1.13302c-0.49993,-0.29302 -0.8188,-0.73754 -0.8188,-1.2352c0,-0.38146 0.18736,-0.73171 0.49999,-1.00643c-1.48931,-0.49955 -2.90498,-1.41834 -3.00959,-1.62889c-0.36211,-0.72884 1.69271,-2.21999 3.32165,-3.0683h-2.09037c-1.23662,0 -2.2391,-0.71532 -2.2391,-1.5977c0,-0.81372 0.85254,-1.48537 1.95504,-1.58497l1.63643,-0.1668c0.577,-0.51108 0.74318,-1.26397 1.12299,-1.87317c-2.06612,-0.33158 -4.20952,-0.52059 -5.97739,-1.31492c-1.59569,-0.71696 -4.03394,-1.62259 -3.84431,-2.96128c0.19388,-1.36863 2.96261,-1.77895 4.616,-2.48637c0.2021,-0.08648 0.45923,-0.17615 0.73933,-0.25498c-0.50324,-0.15955 -0.96404,-0.36383 -1.3178,-0.65421c-0.10078,-0.08273 -0.19549,-0.16832 -0.28493,-0.25639l-0.045,0.02676l-1.58943,-1.36094c-0.32965,-0.27824 -0.52839,-0.638 -0.52839,-1.03088c0,-0.88238 1.00248,-1.5977 2.2391,-1.5977h2.87789c1.19835,0.00628 2.82187,0.6225 3.59491,-0.0309c1.2614,-1.06619 0.3576,-3.28944 2.1124,-3.90511c1.20753,-0.42365 2.62673,0.4421 3.96544,0.53915c3.30155,0.23935 6.13605,-0.07673 9.16808,0.26311c0.55202,0.40188 1.17604,0.75322 1.85713,1.04341c0.29578,0.21445 0.6121,0.41441 0.9467,0.59828c0.01823,0.4298 0.51226,0.77423 1.11903,0.77423c0.06414,0 0.12704,-0.00385 0.18824,-0.01125c-0.02031,0.04885 -0.04375,0.09876 -0.07056,0.14977c-0.78621,1.49597 -2.88274,0.93498 -2.88274,0.93498c-3.74751,-1.05 -7.30169,0.03697 -11.1249,-0.60841c-0.53072,-0.08959 -0.64413,-0.6859 -1.15083,-0.82984c-0.3178,-0.09026 0.5678,0.40467 0.49176,0.64263c-0.30892,0.96673 -0.56621,2.07318 -1.57702,2.75358c-0.70765,0.47634 -1.72397,0.70111 -2.80543,0.80489c1.10482,0.83526 1.81951,1.94761 1.51176,2.81326c-0.10567,0.29725 -2.30811,1.42014 -4.36606,1.98038c0.64595,0.10411 1.28527,0.23117 1.91573,0.37176c1.58315,0.35306 3.09032,0.86057 4.63549,1.29085l0.21724,0.22091l0.08241,-0.07056l1.90546,1.13302c0.49993,0.29302 0.8188,0.73754 0.8188,1.2352c0,0.82932 -0.88553,1.51105 -2.0187,1.59006l-1.02769,0.08148c0.2246,0.4185 0.44225,0.95028 0.64867,1.61535c0.38652,1.24534 -0.82913,2.47162 -1.98601,3.55109c1.19175,-0.03644 2.48517,-0.04304 2.95021,0.62094c0.59711,0.85256 0.05433,1.8346 -0.40047,2.80666c4.25396,-0.06498 7.61226,0.41439 11.57292,1.4721l-0.14668,-0.10173c0,0 2.23912,0 2.23912,1.5977z" fill="url(#color-9)"/><path d="M220.63679,166.14565c0,1.59769 -2.2391,1.5977 -2.2391,1.5977l-1.42574,-0.10173c-2.22959,-0.59784 -4.29829,-1.18649 -6.70756,-1.27035c-0.27549,-0.00959 -6.39476,0.04889 -6.69867,-0.09234c-0.21519,-0.10001 -0.41447,-0.21249 -0.60126,-0.33477l-0.06993,0.05989l-1.90547,-1.13302c-0.49993,-0.29302 -0.8188,-0.73754 -0.8188,-1.2352c0,-0.38146 0.18736,-0.73171 0.49999,-1.00643c-1.48931,-0.49955 -2.90498,-1.41834 -3.00959,-1.62889c-0.36211,-0.72884 1.69271,-2.21999 3.32165,-3.0683h-2.09037c-1.23662,0 -2.2391,-0.71532 -2.2391,-1.5977c0,-0.81372 0.85254,-1.48537 1.95504,-1.58497l1.63643,-0.1668c0.577,-0.51108 0.74318,-1.26397 1.12299,-1.87317c-2.06612,-0.33158 -4.20952,-0.52059 -5.97739,-1.31492c-1.59569,-0.71696 -4.03393,-1.62259 -3.8443,-2.96128c0.19388,-1.36863 2.96261,-1.77895 4.616,-2.48637c0.2021,-0.08648 0.45925,-0.17615 0.73933,-0.25498c-0.50324,-0.15955 -0.96404,-0.36383 -1.3178,-0.65421c-0.10078,-0.08273 -0.19549,-0.16832 -0.28493,-0.25639l-0.045,0.02676l-1.58943,-1.36094c-0.32965,-0.27824 -0.52839,-0.638 -0.52839,-1.03088c0,-0.88238 1.00248,-1.5977 2.23912,-1.5977h2.87789c1.19835,0.00628 2.82186,0.6225 3.59489,-0.0309c1.2614,-1.06619 0.3576,-3.28944 2.1124,-3.90511c1.20753,-0.42365 2.62673,0.4421 3.96544,0.53915c3.30155,0.23935 6.13605,-0.07673 9.16808,0.26311c0.55202,0.40188 1.17604,0.75322 1.85713,1.04341c0.29578,0.21445 0.6121,0.41441 0.9467,0.59828c0.01823,0.4298 0.51226,0.77423 1.11903,0.77423c0.06414,0 0.12703,-0.00385 0.18823,-0.01125c-0.02031,0.04885 -0.04375,0.09876 -0.07056,0.14977c-0.78621,1.49597 -2.88274,0.93498 -2.88274,0.93498c-3.74751,-1.05 -7.30169,0.03697 -11.1249,-0.60841c-0.53072,-0.08959 -0.64411,-0.6859 -1.15083,-0.82984c-0.3178,-0.09026 0.5678,0.40467 0.49176,0.64263c-0.30892,0.96673 -0.56621,2.07318 -1.57702,2.75358c-0.70765,0.47634 -1.72397,0.70111 -2.80543,0.80489c1.10482,0.83526 1.81951,1.94761 1.51176,2.81326c-0.10567,0.29725 -2.30811,1.42014 -4.36606,1.98038c0.64595,0.10411 1.28527,0.23117 1.91574,0.37176c1.58315,0.35306 3.09032,0.86057 4.63549,1.29085l0.21724,0.22091l0.08241,-0.07056l1.90546,1.13302c0.49993,0.29302 0.8188,0.73754 0.8188,1.2352c0,0.82932 -0.88553,1.51105 -2.0187,1.59006l-1.02769,0.08148c0.2246,0.4185 0.44225,0.95028 0.64867,1.61535c0.38652,1.24534 -0.82913,2.47162 -1.98601,3.55109c1.19175,-0.03644 2.48517,-0.04304 2.95021,0.62094c0.59711,0.85256 0.05433,1.8346 -0.40047,2.80666c4.25396,-0.06498 7.61227,0.41439 11.57292,1.4721l-0.14668,-0.10173c0,0 2.2391,0 2.2391,1.5977z" fill="url(#color-10)"/><path d="M223.13857,166.14565c0,1.59769 -2.23912,1.5977 -2.23912,1.5977l-1.42574,-0.10173c-2.22959,-0.59784 -4.29829,-1.18649 -6.70756,-1.27035c-0.27549,-0.00959 -6.39478,0.04889 -6.69868,-0.09234c-0.21519,-0.10001 -0.41447,-0.21249 -0.60126,-0.33477l-0.06993,0.05989l-1.90546,-1.13302c-0.49993,-0.29302 -0.8188,-0.73754 -0.8188,-1.2352c0,-0.38146 0.18735,-0.73171 0.49999,-1.00643c-1.48931,-0.49955 -2.90498,-1.41834 -3.00959,-1.62889c-0.36211,-0.72884 1.69271,-2.21999 3.32165,-3.0683h-2.09037c-1.23662,0 -2.2391,-0.71532 -2.2391,-1.5977c0,-0.81372 0.85254,-1.48537 1.95504,-1.58497l1.63643,-0.1668c0.577,-0.51108 0.74318,-1.26397 1.12299,-1.87317c-2.06612,-0.33158 -4.20952,-0.52059 -5.97739,-1.31492c-1.59569,-0.71696 -4.03394,-1.62259 -3.84431,-2.96128c0.19388,-1.36863 2.96261,-1.77895 4.616,-2.48637c0.2021,-0.08648 0.45923,-0.17615 0.73933,-0.25498c-0.50324,-0.15955 -0.96404,-0.36383 -1.3178,-0.65421c-0.10078,-0.08273 -0.19549,-0.16832 -0.28493,-0.25639l-0.045,0.02676l-1.58943,-1.36094c-0.32965,-0.27824 -0.52839,-0.638 -0.52839,-1.03088c0,-0.88238 1.00248,-1.5977 2.2391,-1.5977h2.87789c1.19835,0.00628 2.82187,0.6225 3.59491,-0.0309c1.2614,-1.06619 0.3576,-3.28944 2.1124,-3.90511c1.20753,-0.42365 2.62673,0.4421 3.96544,0.53915c3.30155,0.23935 6.13605,-0.07673 9.16808,0.26311c0.55202,0.40188 1.17604,0.75322 1.85713,1.04341c0.29578,0.21445 0.6121,0.41441 0.9467,0.59828c0.01823,0.4298 0.51226,0.77423 1.11903,0.77423c0.06414,0 0.12704,-0.00385 0.18824,-0.01125c-0.02031,0.04885 -0.04375,0.09876 -0.07056,0.14977c-0.78621,1.49597 -2.88275,0.93498 -2.88275,0.93498c-3.74751,-1.05 -7.30168,0.03697 -11.1249,-0.60841c-0.53072,-0.08959 -0.64413,-0.6859 -1.15083,-0.82984c-0.3178,-0.09026 0.5678,0.40467 0.49176,0.64263c-0.30892,0.96673 -0.56621,2.07318 -1.57702,2.75358c-0.70765,0.47634 -1.72397,0.70111 -2.80543,0.80489c1.10482,0.83526 1.81951,1.94761 1.51176,2.81326c-0.10567,0.29725 -2.30811,1.42014 -4.36606,1.98038c0.64595,0.10411 1.28527,0.23117 1.91573,0.37176c1.58315,0.35306 3.09032,0.86057 4.63549,1.29085l0.21724,0.22091l0.08241,-0.07056l1.90546,1.13302c0.49993,0.29302 0.8188,0.73754 0.8188,1.2352c0,0.82932 -0.88553,1.51105 -2.0187,1.59006l-1.02769,0.08148c0.2246,0.4185 0.44225,0.95028 0.64867,1.61535c0.38652,1.24534 -0.82913,2.47162 -1.98601,3.55109c1.19175,-0.03644 2.48517,-0.04304 2.95019,0.62094c0.59711,0.85256 0.05433,1.8346 -0.40047,2.80666c4.25396,-0.06498 7.61226,0.41439 11.57292,1.4721l-0.14668,-0.10173c0,0 2.23912,0 2.23912,1.5977z" fill="url(#color-11)"/><path d="M225.64034,166.14565c0,1.59769 -2.23912,1.5977 -2.23912,1.5977l-1.42574,-0.10173c-2.22959,-0.59784 -4.29829,-1.18649 -6.70756,-1.27035c-0.27549,-0.00959 -6.39478,0.04889 -6.69868,-0.09234c-0.21519,-0.10001 -0.41447,-0.21249 -0.60126,-0.33477l-0.06993,0.05989l-1.90546,-1.13302c-0.49993,-0.29302 -0.8188,-0.73754 -0.8188,-1.2352c0,-0.38146 0.18736,-0.73171 0.49999,-1.00643c-1.48931,-0.49955 -2.90498,-1.41834 -3.00959,-1.62889c-0.36211,-0.72884 1.69271,-2.21999 3.32165,-3.0683h-2.09037c-1.23662,0 -2.23912,-0.71532 -2.23912,-1.5977c0,-0.81372 0.85254,-1.48537 1.95504,-1.58497l1.63643,-0.1668c0.577,-0.51108 0.74318,-1.26397 1.12299,-1.87317c-2.06612,-0.33158 -4.20952,-0.52059 -5.97739,-1.31492c-1.59569,-0.71696 -4.03394,-1.62259 -3.84431,-2.96128c0.19388,-1.36863 2.96261,-1.77895 4.616,-2.48637c0.2021,-0.08648 0.45925,-0.17615 0.73933,-0.25498c-0.50324,-0.15955 -0.96404,-0.36383 -1.3178,-0.65421c-0.10078,-0.08273 -0.19549,-0.16832 -0.28493,-0.25639l-0.045,0.02676l-1.58943,-1.36094c-0.32965,-0.27824 -0.52839,-0.638 -0.52839,-1.03088c0,-0.88238 1.00248,-1.5977 2.2391,-1.5977h2.8779c1.19835,0.00628 2.82186,0.6225 3.59489,-0.0309c1.2614,-1.06619 0.3576,-3.28944 2.1124,-3.90511c1.20753,-0.42365 2.62673,0.4421 3.96544,0.53915c3.30155,0.23935 6.13605,-0.07673 9.16808,0.26311c0.55202,0.40188 1.17602,0.75322 1.85713,1.04341c0.29578,0.21445 0.6121,0.41441 0.9467,0.59828c0.01823,0.4298 0.51226,0.77423 1.11903,0.77423c0.06414,0 0.12704,-0.00385 0.18824,-0.01125c-0.02031,0.04885 -0.04375,0.09876 -0.07056,0.14977c-0.78621,1.49597 -2.88274,0.93498 -2.88274,0.93498c-3.74751,-1.05 -7.30169,0.03697 -11.1249,-0.60841c-0.53072,-0.08959 -0.64411,-0.6859 -1.15083,-0.82984c-0.3178,-0.09026 0.5678,0.40467 0.49176,0.64263c-0.30892,0.96673 -0.56621,2.07318 -1.57702,2.75358c-0.70765,0.47634 -1.72397,0.70111 -2.80543,0.80489c1.10482,0.83526 1.81951,1.94761 1.51176,2.81326c-0.10567,0.29725 -2.30811,1.42014 -4.36606,1.98038c0.64595,0.10411 1.28527,0.23117 1.91573,0.37176c1.58315,0.35306 3.09032,0.86057 4.63549,1.29085l0.21725,0.22091l0.08241,-0.07056l1.90546,1.13302c0.49993,0.29302 0.8188,0.73754 0.8188,1.2352c0,0.82932 -0.88553,1.51105 -2.0187,1.59006l-1.02769,0.08148c0.2246,0.4185 0.44226,0.95028 0.64868,1.61535c0.38652,1.24534 -0.82913,2.47162 -1.98601,3.55109c1.19175,-0.03644 2.48517,-0.04304 2.95021,0.62094c0.59711,0.85256 0.05433,1.8346 -0.40047,2.80666c4.25396,-0.06498 7.61227,0.41439 11.57292,1.4721l-0.14668,-0.10173c0,0 2.23912,0 2.23912,1.5977z" fill="url(#color-12)"/><path d="M228.14212,166.14565c0,1.59769 -2.2391,1.5977 -2.2391,1.5977l-1.42574,-0.10173c-2.22959,-0.59784 -4.29829,-1.18649 -6.70756,-1.27035c-0.27549,-0.00959 -6.39476,0.04889 -6.69867,-0.09234c-0.21519,-0.10001 -0.41447,-0.21249 -0.60126,-0.33477l-0.06993,0.05989l-1.90547,-1.13302c-0.49993,-0.29302 -0.8188,-0.73754 -0.8188,-1.2352c0,-0.38146 0.18736,-0.73171 0.49999,-1.00643c-1.48931,-0.49955 -2.90498,-1.41834 -3.00959,-1.62889c-0.36211,-0.72884 1.69271,-2.21999 3.32165,-3.0683h-2.09037c-1.23662,0 -2.2391,-0.71532 -2.2391,-1.5977c0,-0.81372 0.85254,-1.48537 1.95504,-1.58497l1.63643,-0.1668c0.577,-0.51108 0.74318,-1.26397 1.12299,-1.87317c-2.06612,-0.33158 -4.20952,-0.52059 -5.97739,-1.31492c-1.59569,-0.71696 -4.03393,-1.62259 -3.8443,-2.96128c0.19388,-1.36863 2.96261,-1.77895 4.616,-2.48637c0.2021,-0.08648 0.45923,-0.17615 0.73933,-0.25498c-0.50324,-0.15955 -0.96404,-0.36383 -1.3178,-0.65421c-0.10078,-0.08273 -0.19549,-0.16832 -0.28493,-0.25639l-0.045,0.02676l-1.58943,-1.36094c-0.32965,-0.27824 -0.52839,-0.638 -0.52839,-1.03088c0,-0.88238 1.00248,-1.5977 2.23912,-1.5977h2.87789c1.19835,0.00628 2.82186,0.6225 3.59489,-0.0309c1.2614,-1.06619 0.3576,-3.28944 2.1124,-3.90511c1.20753,-0.42365 2.62673,0.4421 3.96544,0.53915c3.30155,0.23935 6.13605,-0.07673 9.16808,0.26311c0.55202,0.40188 1.17604,0.75322 1.85713,1.04341c0.29578,0.21445 0.6121,0.41441 0.9467,0.59828c0.01823,0.4298 0.51226,0.77423 1.11903,0.77423c0.06414,0 0.12703,-0.00385 0.18823,-0.01125c-0.02031,0.04885 -0.04375,0.09876 -0.07056,0.14977c-0.78621,1.49597 -2.88274,0.93498 -2.88274,0.93498c-3.74751,-1.05 -7.30169,0.03697 -11.1249,-0.60841c-0.53072,-0.08959 -0.64411,-0.6859 -1.15083,-0.82984c-0.3178,-0.09026 0.5678,0.40467 0.49176,0.64263c-0.30892,0.96673 -0.56621,2.07318 -1.57702,2.75358c-0.70765,0.47634 -1.72397,0.70111 -2.80543,0.80489c1.10482,0.83526 1.81951,1.94761 1.51176,2.81326c-0.10567,0.29725 -2.30811,1.42014 -4.36606,1.98038c0.64595,0.10411 1.28527,0.23117 1.91574,0.37176c1.58315,0.35306 3.09032,0.86057 4.63549,1.29085l0.21724,0.22091l0.08241,-0.07056l1.90546,1.13302c0.49993,0.29302 0.8188,0.73754 0.8188,1.2352c0,0.82932 -0.88553,1.51105 -2.0187,1.59006l-1.02769,0.08148c0.2246,0.4185 0.44225,0.95028 0.64867,1.61535c0.38652,1.24534 -0.82913,2.47162 -1.98601,3.55109c1.19175,-0.03644 2.48517,-0.04304 2.95021,0.62094c0.59711,0.85256 0.05433,1.8346 -0.40047,2.80666c4.25396,-0.06498 7.61227,0.41439 11.57292,1.4721l-0.14668,-0.10173c0,0 2.2391,0 2.2391,1.5977z" fill="url(#color-13)"/><path d="M230.6439,166.14565c0,1.59769 -2.23912,1.5977 -2.23912,1.5977l-1.42574,-0.10173c-2.22959,-0.59784 -4.29829,-1.18649 -6.70756,-1.27035c-0.27549,-0.00959 -6.39478,0.04889 -6.69868,-0.09234c-0.21519,-0.10001 -0.41447,-0.21249 -0.60126,-0.33477l-0.06993,0.05989l-1.90546,-1.13302c-0.49993,-0.29302 -0.8188,-0.73754 -0.8188,-1.2352c0,-0.38146 0.18735,-0.73171 0.49999,-1.00643c-1.48931,-0.49955 -2.90498,-1.41834 -3.00959,-1.62889c-0.36211,-0.72884 1.69271,-2.21999 3.32165,-3.0683h-2.09037c-1.23662,0 -2.2391,-0.71532 -2.2391,-1.5977c0,-0.81372 0.85254,-1.48537 1.95504,-1.58497l1.63643,-0.1668c0.577,-0.51108 0.74318,-1.26397 1.12299,-1.87317c-2.06612,-0.33158 -4.20952,-0.52059 -5.97739,-1.31492c-1.59569,-0.71696 -4.03394,-1.62259 -3.84431,-2.96128c0.19388,-1.36863 2.96261,-1.77895 4.616,-2.48637c0.2021,-0.08648 0.45923,-0.17615 0.73933,-0.25498c-0.50324,-0.15955 -0.96404,-0.36383 -1.3178,-0.65421c-0.10078,-0.08273 -0.19549,-0.16832 -0.28493,-0.25639l-0.045,0.02676l-1.58943,-1.36094c-0.32965,-0.27824 -0.52839,-0.638 -0.52839,-1.03088c0,-0.88238 1.00248,-1.5977 2.2391,-1.5977h2.87789c1.19835,0.00628 2.82187,0.6225 3.59491,-0.0309c1.2614,-1.06619 0.3576,-3.28944 2.1124,-3.90511c1.20753,-0.42365 2.62673,0.4421 3.96544,0.53915c3.30155,0.23935 6.13605,-0.07673 9.16808,0.26311c0.55202,0.40188 1.17604,0.75322 1.85713,1.04341c0.29578,0.21445 0.6121,0.41441 0.9467,0.59828c0.01823,0.4298 0.51226,0.77423 1.11903,0.77423c0.06414,0 0.12704,-0.00385 0.18824,-0.01125c-0.02031,0.04885 -0.04375,0.09876 -0.07056,0.14977c-0.78621,1.49597 -2.88275,0.93498 -2.88275,0.93498c-3.74751,-1.05 -7.30168,0.03697 -11.1249,-0.60841c-0.53072,-0.08959 -0.64413,-0.6859 -1.15083,-0.82984c-0.3178,-0.09026 0.5678,0.40467 0.49176,0.64263c-0.30892,0.96673 -0.56621,2.07318 -1.57702,2.75358c-0.70765,0.47634 -1.72397,0.70111 -2.80543,0.80489c1.10482,0.83526 1.81951,1.94761 1.51176,2.81326c-0.10567,0.29725 -2.30811,1.42014 -4.36606,1.98038c0.64595,0.10411 1.28527,0.23117 1.91573,0.37176c1.58315,0.35306 3.09032,0.86057 4.63549,1.29085l0.21724,0.22091l0.08241,-0.07056l1.90546,1.13302c0.49993,0.29302 0.8188,0.73754 0.8188,1.2352c0,0.82932 -0.88553,1.51105 -2.0187,1.59006l-1.02769,0.08148c0.2246,0.4185 0.44225,0.95028 0.64867,1.61535c0.38652,1.24534 -0.82913,2.47162 -1.98601,3.55109c1.19175,-0.03644 2.48517,-0.04304 2.95019,0.62094c0.59711,0.85256 0.05433,1.8346 -0.40047,2.80666c4.25396,-0.06498 7.61226,0.41439 11.57292,1.4721l-0.14668,-0.10173c0,0 2.23912,0 2.23912,1.5977z" fill="url(#color-14)"/></g></g><path d="M197.1137,175.81358c12.1998,0 22.0897,9.88989 22.0897,22.0897c0,12.19981 -9.88989,22.0897 -22.0897,22.0897c-12.1998,0 -22.0897,-9.88989 -22.0897,-22.0897c0,-12.1998 9.88989,-22.0897 22.0897,-22.0897z" fill="url(#color-15)" stroke-width="0"/><path d="M197.1137,128.30258c12.1998,0 22.0897,9.88989 22.0897,22.0897c0,12.19981 -9.88989,22.0897 -22.0897,22.0897c-12.1998,0 -22.0897,-9.88989 -22.0897,-22.0897c0,-12.1998 9.88989,-22.0897 22.0897,-22.0897z" fill="url(#color-16)" stroke-width="0"/></g><g fill="#ff8383" stroke="#ffffff" stroke-width="1.5"><path d="M242.31842,193.85294h8.92558v35.34532c0,0 -2.98474,0 -4.47424,0c-1.48568,0 -4.45135,-2.62806 -4.45135,-4.99833c0,-5.84041 0,-30.34699 0,-30.34699z"/><path d="M268.28962,220.27268v8.92558c0,0 -17.47271,0 -21.87688,0c-1.90529,0 -4.09432,-3.43255 -4.09432,-4.99833c0,-1.38792 0,-3.92726 0,-3.92726z"/></g><path d="M245.1746,199.11161l-25.9712,21.68692v-43.37384z" fill="#ff7166" stroke="#ffffff" stroke-width="1.5"/><path d="M245.1746,154.12667l-25.9712,21.68692v-43.37384z" fill="#ff7166" stroke="#ffffff" stroke-width="1.5"/><path d="M276.36839,176.53731l-44.17939,44.17939v-87.81096c0.11343,-0.06852 0.22542,-0.13917 0.33592,-0.21191z" fill="url(#color-17)" stroke="#ffffff" stroke-width="1.5"/><path d="M267.84559,168.68279h33.91723v15.70903h-33.91723z" fill="url(#color-18)" stroke="#ffffff" stroke-width="1.5"/><path d="M301.76282,166.54064h3.21321v19.99331h-3.21321z" fill="#740000" stroke="#ffffff" stroke-width="1"/><path d="M274.09349,217.41648c3.94357,0 7.14047,3.1969 7.14047,7.14047c0,3.94357 -3.1969,7.14047 -7.14047,7.14047c-3.94357,0 -7.14047,-3.1969 -7.14047,-7.14047c0,-3.94357 3.1969,-7.14047 7.14047,-7.14047z" fill="#ff8383" stroke="#ffffff" stroke-width="1.5"/><path d="M274.09349,219.55861c2.7605,0 4.99833,2.23783 4.99833,4.99833c0,2.7605 -2.23783,4.99833 -4.99833,4.99833c-2.7605,0 -4.99833,-2.23783 -4.99833,-4.99833c0,-2.7605 2.23783,-4.99833 4.99833,-4.99833z" fill="#000000" stroke="#ffffff" stroke-width="0.5"/><path d="M276.1788,227.34315c-1.25484,0 -1.25484,-5.67529 0,-5.67529c1.25484,0 2.27208,1.27045 2.27208,2.83764c0,1.56719 -1.01725,2.83765 -2.27208,2.83765z" fill="#ffffff" stroke="#ffffff" stroke-width="0.5"/><path d="M168.83333,180c0,-39.30426 31.8624,-71.16667 71.16667,-71.16667c39.30426,0 71.16667,31.8624 71.16667,71.16667c0,39.30426 -31.8624,71.16667 -71.16667,71.16667c-39.30426,0 -71.16667,-31.8624 -71.16667,-71.16667z" fill="url(#color-19)" stroke="none" stroke-width="0"/></g></g></svg>