<svg version="1.1" xmlns="http://www.w3.org/2000/svg" xmlns:xlink="http://www.w3.org/1999/xlink" width="80.26483" height="50.79445" viewBox="0,0,80.26483,50.79445"><defs><radialGradient cx="189.63435" cy="295.32454" r="10.81884" gradientUnits="userSpaceOnUse" id="color-1"><stop offset="0" stop-color="#ba0000" stop-opacity="0.3451"/><stop offset="1" stop-color="#ba0000" stop-opacity="0"/></radialGradient></defs><g transform="translate(-121.18836,-280.39314)"><g data-paper-data="{&quot;isPaintingLayer&quot;:true}" fill-rule="nonzero" stroke-linecap="butt" stroke-linejoin="miter" stroke-miterlimit="10" stroke-dasharray="" stroke-dashoffset="0" style="mix-blend-mode: normal"><path d="M133.04331,329.68759c-5.71888,0 -10.35495,-4.13788 -10.35495,-9.24221v-15.04545c0,-5.10433 4.63607,-9.24221 10.35495,-9.24221h46.23609c5.71889,0 10.35495,4.13788 10.35495,9.24221v15.04545c0,5.10433 -4.63606,9.24221 -10.35495,9.24221z" fill-opacity="0.70196" fill="#000000" stroke="#000000" stroke-width="3"/><text transform="translate(127.84917,307.43431) scale(0.21832,0.21832)" font-size="40" xml:space="preserve" fill-opacity="0.9098" fill="#00631b" fill-rule="nonzero" stroke-opacity="0.9098" stroke="#00631b" stroke-width="1" stroke-linecap="butt" stroke-linejoin="miter" stroke-miterlimit="10" stroke-dasharray="" stroke-dashoffset="0" font-family="&quot;MV Boli&quot;, Technological" font-weight="normal" text-anchor="start" style="mix-blend-mode: normal"><tspan x="0" dy="0">XP Charge</tspan></text><g fill="#ffde00" stroke="#000000" stroke-width="0"><path d="M161.1087,315.42256c0,1.51116 0,5.99858 0,8.83645c0,1.43028 -4.12149,2.44151 -4.12149,2.44151c0,0 1.7765,-2.07794 2.27281,-4.04093c0.50132,-1.98294 -0.27748,-3.85723 -0.27748,-5.09918c0,-1.68609 -1.99533,-4.25474 -1.99533,-4.25474c0,0 4.12149,1.13222 4.12149,2.11689z"/><path d="M163.22559,324.6398c1.51116,0 5.99864,0 8.83645,0c1.43028,0 2.44145,4.12143 2.44145,4.12143c0,0 -2.07794,-1.77644 -4.04093,-2.27275c-1.98288,-0.50132 -3.8573,0.27748 -5.09918,0.27748c-1.68609,0 -4.25474,1.99527 -4.25474,1.99527c0,0 1.13222,-4.12143 2.11689,-4.12143z"/><path d="M174.50348,323.9481c0,-1.51116 0,-5.99864 0,-8.83645c0,-1.43028 4.12143,-2.44145 4.12143,-2.44145c0,0 -1.77644,2.07794 -2.27275,4.04093c-0.50133,1.98288 0.27748,3.85724 0.27748,5.09912c0,1.68615 1.99527,4.25474 1.99527,4.25474c0,0 -4.12143,-1.13222 -4.12143,-2.11689z"/><path d="M163.22553,314.50892c-0.98467,0 -2.11689,-4.12143 -2.11689,-4.12143c0,0 2.56865,1.99527 4.25474,1.99527c1.24188,0 3.1163,0.77881 5.09918,0.27748c1.96299,-0.49631 4.04093,-2.27275 4.04093,-2.27275c0,0 -1.01117,4.12143 -2.44145,4.12143c-2.83781,0 -7.32529,0 -8.83645,0z" data-paper-data="{&quot;index&quot;:null}"/></g><g fill="#ffffff" stroke="#ffffff" stroke-width="0" font-weight="normal" font-size="40" text-anchor="start"><text transform="translate(127.84917,322.104) scale(0.22486,0.21833)" font-size="40" xml:space="preserve" fill="#ffffff" fill-rule="nonzero" stroke="#ffffff" stroke-width="0" stroke-linecap="butt" stroke-linejoin="miter" stroke-miterlimit="10" stroke-dasharray="" stroke-dashoffset="0" font-family="&quot;MV Boli&quot;, Technological" font-weight="normal" text-anchor="start" style="mix-blend-mode: normal"><tspan x="0" dy="0">Lv</tspan></text><text transform="translate(138.65524,322.12495) scale(0.34533,0.3353)" font-size="40" xml:space="preserve" fill="#ffffff" fill-rule="nonzero" stroke="#ffffff" stroke-width="0" stroke-linecap="butt" stroke-linejoin="miter" stroke-miterlimit="10" stroke-dasharray="" stroke-dashoffset="0" font-family="Handwriting" font-weight="normal" text-anchor="start" style="mix-blend-mode: normal"><tspan x="0" dy="0">.</tspan></text></g><g><path d="M178.8155,295.32454c0,-5.97508 4.84377,-10.81885 10.81885,-10.81885c5.97508,0 10.81884,4.84377 10.81884,10.81885c0,5.97508 -4.84377,10.81885 -10.81884,10.81885c-5.97508,0 -10.81885,-4.84376 -10.81885,-10.81885z" fill="#000000" stroke="#000000" stroke-width="2"/><text transform="translate(185.39372,302.18583) scale(0.46866,0.46866)" font-size="40" xml:space="preserve" fill-opacity="0.70196" fill="#ff0000" fill-rule="nonzero" stroke="none" stroke-width="1" stroke-linecap="butt" stroke-linejoin="miter" stroke-miterlimit="10" stroke-dasharray="" stroke-dashoffset="0" font-family="&quot;MV Boli&quot;, Pixel" font-weight="normal" text-anchor="start" style="mix-blend-mode: normal"><tspan x="0" dy="0">!</tspan></text><path d="M178.8155,295.32454c0,-5.97508 4.84377,-10.81885 10.81885,-10.81885c5.97508,0 10.81884,4.84377 10.81884,10.81885c0,5.97508 -4.84377,10.81885 -10.81884,10.81885c-5.97508,0 -10.81885,-4.84376 -10.81885,-10.81885z" fill="url(#color-1)" stroke="#000000" stroke-width="0"/></g></g></g></svg>