<svg version="1.1" xmlns="http://www.w3.org/2000/svg" xmlns:xlink="http://www.w3.org/1999/xlink" width="43.18931" height="45.80905" viewBox="0,0,43.18931,45.80905"><defs><radialGradient cx="319.676" cy="180.228" r="13.728" gradientUnits="userSpaceOnUse" id="color-1"><stop offset="0" stop-color="#4200ff"/><stop offset="1" stop-color="#4200ff" stop-opacity="0"/></radialGradient><radialGradient cx="319.676" cy="180.228" r="13.728" gradientUnits="userSpaceOnUse" id="color-2"><stop offset="0" stop-color="#ff0000"/><stop offset="1" stop-color="#ff0000" stop-opacity="0"/></radialGradient><radialGradient cx="319.676" cy="180.228" r="9.568" gradientUnits="userSpaceOnUse" id="color-3"><stop offset="0" stop-color="#ff0000"/><stop offset="1" stop-color="#ff0000" stop-opacity="0"/></radialGradient><radialGradient cx="316.46685" cy="182.48629" r="13.728" gradientUnits="userSpaceOnUse" id="color-4"><stop offset="0" stop-color="#4200ff"/><stop offset="1" stop-color="#4200ff" stop-opacity="0"/></radialGradient><radialGradient cx="316.46685" cy="182.48629" r="13.728" gradientUnits="userSpaceOnUse" id="color-5"><stop offset="0" stop-color="#ff0000"/><stop offset="1" stop-color="#ff0000" stop-opacity="0"/></radialGradient><radialGradient cx="316.46685" cy="182.48629" r="9.568" gradientUnits="userSpaceOnUse" id="color-6"><stop offset="0" stop-color="#ff0000"/><stop offset="1" stop-color="#ff0000" stop-opacity="0"/></radialGradient></defs><g transform="translate(-298.73885,-154.40524)"><g data-paper-data="{&quot;isPaintingLayer&quot;:true}" fill-rule="nonzero" stroke-linecap="butt" stroke-linejoin="miter" stroke-miterlimit="10" stroke-dasharray="" stroke-dashoffset="0" style="mix-blend-mode: normal"><g stroke-width="8"><path d="M305.948,180.228c0,-7.58177 6.14623,-13.728 13.728,-13.728c7.58177,0 13.728,6.14623 13.728,13.728c0,7.58177 -6.14623,13.728 -13.728,13.728c-7.58177,0 -13.728,-6.14623 -13.728,-13.728z" fill="url(#color-1)" stroke="url(#color-2)"/><path d="M310.108,180.228c0,-5.28427 4.28374,-9.568 9.568,-9.568c5.28427,0 9.568,4.28374 9.568,9.568c0,5.28427 -4.28374,9.568 -9.568,9.568c-5.28427,0 -9.568,-4.28374 -9.568,-9.568z" fill="none" stroke="url(#color-3)"/></g><g stroke-width="8"><path d="M302.73885,182.48629c0,-7.58177 6.14623,-13.728 13.728,-13.728c7.58177,0 13.728,6.14623 13.728,13.728c0,7.58177 -6.14623,13.728 -13.728,13.728c-7.58177,0 -13.728,-6.14623 -13.728,-13.728z" fill="url(#color-4)" stroke="url(#color-5)"/><path d="M306.89885,182.48629c0,-5.28426 4.28374,-9.568 9.568,-9.568c5.28426,0 9.568,4.28374 9.568,9.568c0,5.28426 -4.28374,9.568 -9.568,9.568c-5.28426,0 -9.568,-4.28374 -9.568,-9.568z" fill="none" stroke="url(#color-6)"/></g><text transform="translate(298.99815,164.09703) scale(0.20828,0.20828)" font-size="40" xml:space="preserve" fill="#00ff08" fill-rule="nonzero" stroke="#00ff09" stroke-width="2" stroke-linecap="butt" stroke-linejoin="miter" stroke-miterlimit="10" stroke-dasharray="" stroke-dashoffset="0" font-family="&quot;MV Boli&quot;, Technological" font-weight="normal" text-anchor="start" style="mix-blend-mode: normal"><tspan x="0" dy="0">Warp Gate</tspan></text></g></g></svg>