<svg version="1.1" xmlns="http://www.w3.org/2000/svg" xmlns:xlink="http://www.w3.org/1999/xlink" width="345.44019" height="345.44012" viewBox="0,0,345.44019,345.44012"><defs><radialGradient cx="126.72282" cy="227.56191" r="172.72012" gradientUnits="userSpaceOnUse" id="color-1"><stop offset="0" stop-color="#0b7019" stop-opacity="0.59608"/><stop offset="1" stop-color="#0b7019" stop-opacity="0"/></radialGradient><radialGradient cx="126.72281" cy="260.61555" r="33.98458" gradientUnits="userSpaceOnUse" id="color-2"><stop offset="0" stop-color="#555555"/><stop offset="1" stop-color="#3f6b4b" stop-opacity="0.58039"/></radialGradient></defs><g transform="translate(45.9973,-54.84179)"><g data-paper-data="{&quot;isPaintingLayer&quot;:true}" fill-rule="nonzero" stroke-linejoin="miter" stroke-miterlimit="10" stroke-dasharray="" stroke-dashoffset="0" style="mix-blend-mode: normal"><path d="M126.72282,400.28191c-95.39068,0 -172.72012,-77.32939 -172.72012,-172.72007c0,-95.39068 77.32944,-172.72005 172.72012,-172.72005c95.39068,0 172.72007,77.32937 172.72007,172.72005c0,95.39068 -77.32939,172.72007 -172.72007,172.72007z" fill="url(#color-1)" stroke="none" stroke-width="0" stroke-linecap="butt"/><path d="M104.19371,260.61553c0,-18.76916 10.08662,-33.98456 22.5291,-33.98456c12.44247,0 22.5291,15.2154 22.5291,33.98456c0,18.76916 -10.08662,33.98457 -22.52909,33.98457c-12.44247,0 -22.52909,-15.2154 -22.52909,-33.98457z" fill="#096b22" stroke="none" stroke-width="NaN" stroke-linecap="butt"/><path d="M110.4295,260.61556c0,-13.57412 7.29474,-24.57812 16.29331,-24.57812c8.99857,0 16.29336,11.004 16.29336,24.57812c0,13.57412 -7.29479,24.57811 -16.29336,24.57811c-8.99857,0 -16.29331,-11.00396 -16.29331,-24.57811z" fill="#009f29" stroke="none" stroke-width="NaN" stroke-linecap="butt"/><path d="M115.77438,260.61553c0,-9.1212 4.90178,-16.51543 10.94843,-16.51543c6.04665,0 10.94843,7.3942 10.94843,16.51543c0,9.1212 -4.90178,16.51546 -10.94843,16.51546c-6.04665,0 -10.94842,-7.39422 -10.94842,-16.51546z" fill="#37d660" stroke="none" stroke-width="NaN" stroke-linecap="butt"/><path d="M104.19371,260.61553c0,-18.76916 10.08662,-33.98456 22.5291,-33.98456c12.44247,0 22.5291,15.2154 22.5291,33.98456c0,18.76916 -10.08662,33.98457 -22.52909,33.98457c-12.44247,0 -22.52909,-15.2154 -22.52909,-33.98457z" fill="url(#color-2)" stroke="none" stroke-width="NaN" stroke-linecap="butt"/><path d="M115.77438,240.31412c0,-2.09097 1.69504,-3.786 3.78597,-3.786c2.09096,0 3.78601,1.69504 3.78601,3.786c0,2.09097 -1.69504,3.786 -3.78601,3.786c-2.09096,0 -3.78597,-1.69504 -3.78597,-3.786z" fill="#000000" stroke="none" stroke-width="0" stroke-linecap="butt"/><path d="M130.09926,240.31412c0,-2.09097 1.69506,-3.78597 3.78602,-3.78597c2.09096,0 3.78597,1.69504 3.78597,3.78597c0,2.09097 -1.69503,3.786 -3.78599,3.786c-2.09096,0 -3.78601,-1.69504 -3.78601,-3.786z" fill="#000000" stroke="none" stroke-width="0" stroke-linecap="butt"/><path d="M137.47284,265.31118h-21.5" fill="none" stroke="#000000" stroke-width="5" stroke-linecap="round"/><g fill="none" stroke="#3d2222" stroke-width="5" stroke-linecap="round"><path d="M136.7853,258.49053c0,0 -9.75,-4.36883 -9.75,-9.75" data-paper-data="{&quot;index&quot;:null}"/><path d="M126.4103,249.74053c0,5.38117 -9.75,9.75 -9.75,9.75" data-paper-data="{&quot;index&quot;:null}"/></g><path d="M78.7826,184.42576c0,-12.3726 0,-28.64955 0,-35c0,-5.13122 6.08182,-11.34494 11.8078,-11.34494c10.23796,0 44.50385,0 66,0c10.58422,0 18.07261,5.81184 18.07261,13.34494c0,9.98431 0,22.9923 0,29.5c0,7.60337 -7.54281,19 -18.07261,19c-19.62045,0 -49.61166,0 -60.5,0c-7.85288,0 -17.3078,-6.78041 -17.3078,-15.5z" fill-opacity="0.50196" fill="#ffffff" stroke-opacity="0.50196" stroke="#000000" stroke-width="5" stroke-linecap="butt"/><path d="M150.09039,205.30034c0,0 -6.83342,6.83342 -8.72464,8.72464c-0.91121,0.91121 -2.02536,2.02536 -2.02536,2.02536c0,0 0.29609,-2.834 0.4619,-4.42103c0.19344,-1.85151 0.62868,-6.01738 0.62868,-6.01738z" fill-opacity="0.50196" fill="#ffffff" stroke-opacity="0.50196" stroke="#ffffff" stroke-width="5" stroke-linecap="round"/><text transform="translate(84.15689,166.28897) scale(0.22619,0.22619)" font-size="40" xml:space="preserve" fill="#000000" fill-rule="nonzero" stroke="none" stroke-width="1" stroke-linecap="butt" stroke-linejoin="miter" stroke-miterlimit="10" stroke-dasharray="" stroke-dashoffset="0" font-family="&quot;MV Boli&quot;, Sans Serif" font-weight="normal" text-anchor="start" style="mix-blend-mode: normal"><tspan x="0" dy="0">First, I will tell you</tspan><tspan x="0" dy="48px">the controls</tspan></text><text transform="translate(13.38808,245.66329) scale(0.5,0.5)" font-size="40" xml:space="preserve" fill="#000000" fill-rule="nonzero" stroke="none" stroke-width="1" stroke-linecap="butt" stroke-linejoin="miter" stroke-miterlimit="10" stroke-dasharray="" stroke-dashoffset="0" font-family="Sans Serif" font-weight="normal" text-anchor="start" style="mix-blend-mode: normal"><tspan x="0" dy="0"> </tspan></text><text transform="translate(88.36744,191.74742) scale(0.17829,0.17829)" font-size="40" xml:space="preserve" fill="#ff0000" fill-rule="nonzero" stroke="none" stroke-width="1" stroke-linecap="butt" stroke-linejoin="miter" stroke-miterlimit="10" stroke-dasharray="" stroke-dashoffset="0" font-family="&quot;MV Boli&quot;, Sans Serif" font-weight="normal" text-anchor="start" style="mix-blend-mode: normal"><tspan x="0" dy="0">click on me to advance</tspan></text></g></g></svg>