<svg version="1.1" xmlns="http://www.w3.org/2000/svg" xmlns:xlink="http://www.w3.org/1999/xlink" width="33.63089" height="33.63089" viewBox="0,0,33.63089,33.63089"><defs><radialGradient cx="236.66253" cy="178.8125" r="1.1875" gradientUnits="userSpaceOnUse" id="color-1"><stop offset="0" stop-color="#ffffff"/><stop offset="1" stop-color="#ffffff" stop-opacity="0"/></radialGradient><radialGradient cx="243.16253" cy="178.8125" r="1.1875" gradientUnits="userSpaceOnUse" id="color-2"><stop offset="0" stop-color="#ffffff"/><stop offset="1" stop-color="#ffffff" stop-opacity="0"/></radialGradient><radialGradient cx="240.00001" cy="180.00001" r="16.81544" gradientUnits="userSpaceOnUse" id="color-3"><stop offset="0" stop-color="#81e8fc" stop-opacity="0.48235"/><stop offset="1" stop-color="#81e8fc" stop-opacity="0"/></radialGradient></defs><g transform="translate(-223.18455,-163.18455)"><g data-paper-data="{&quot;isPaintingLayer&quot;:true}" fill-rule="nonzero" stroke="none" stroke-width="0" stroke-linecap="butt" stroke-linejoin="miter" stroke-miterlimit="10" stroke-dasharray="" stroke-dashoffset="0" style="mix-blend-mode: normal"><path d="M234.7405,183.58015l1.67938,1.67938l-6.58969,4.91031z" fill="#80e7fc"/><path d="M245.25957,176.41984l-1.67937,-1.67938l6.58969,-4.91031z" fill="#80e7fc"/><path d="M243.58019,185.25953l1.67938,-1.67937l4.91031,6.58969z" fill="#80e7fc"/><path d="M236.41988,174.74046l-1.67938,1.67938l-4.91031,-6.58969z" fill="#80e7fc"/><path d="M233.4409,178.8125v2.375l-8.13173,-1.1875z" fill="#80e7fc"/><path d="M246.30916,181.1875v-2.375l8.13173,1.1875z" fill="#80e7fc"/><path d="M238.81253,186.39374h2.375l-1.1875,8.13173z" fill="#80e7fc"/><path d="M241.1875,173.27547h-2.375l1.1875,-8.13173z" fill="#80e7fc"/><path d="M233.12503,180c0,-3.79696 3.07804,-6.875 6.875,-6.875c3.79696,0 6.875,3.07804 6.875,6.875c0,3.79696 -3.07804,6.875 -6.875,6.875c-3.79696,0 -6.875,-3.07804 -6.875,-6.875z" fill="#4d4d4d"/><path d="M235.47503,178.8125c0,-0.65584 0.53166,-1.1875 1.1875,-1.1875c0.65584,0 1.1875,0.53166 1.1875,1.1875c0,0.65584 -0.53166,1.1875 -1.1875,1.1875c-0.65584,0 -1.1875,-0.53166 -1.1875,-1.1875z" fill="url(#color-1)"/><path d="M241.97503,178.8125c0,-0.65584 0.53166,-1.1875 1.1875,-1.1875c0.65584,0 1.1875,0.53166 1.1875,1.1875c0,0.65584 -0.53166,1.1875 -1.1875,1.1875c-0.65584,0 -1.1875,-0.53166 -1.1875,-1.1875z" fill="url(#color-2)"/><path d="M240.00001,163.18455c9.28691,0 16.81544,7.52853 16.81544,16.81545c0,9.28692 -7.52852,16.81544 -16.81544,16.81544c-9.28691,0 -16.81545,-7.52852 -16.81545,-16.81544c0,-9.28691 7.52853,-16.81545 16.81545,-16.81545z" fill="url(#color-3)"/></g></g></svg>