<svg version="1.1" xmlns="http://www.w3.org/2000/svg" xmlns:xlink="http://www.w3.org/1999/xlink" width="121.16066" height="121.16066" viewBox="0,0,121.16066,121.16066"><defs><radialGradient cx="319.09348" cy="173.63118" r="15.58033" gradientUnits="userSpaceOnUse" id="color-1"><stop offset="0" stop-color="#005907" stop-opacity="0"/><stop offset="1" stop-color="#005907" stop-opacity="0.4"/></radialGradient><radialGradient cx="319.09352" cy="173.63118" r="38.08033" gradientUnits="userSpaceOnUse" id="color-2"><stop offset="0" stop-color="#005907" stop-opacity="0.70196"/><stop offset="1" stop-color="#005907" stop-opacity="0"/></radialGradient></defs><g transform="translate(-258.51318,-113.05085)"><g data-paper-data="{&quot;isPaintingLayer&quot;:true}" fill-rule="nonzero" stroke-linecap="butt" stroke-linejoin="miter" stroke-miterlimit="10" stroke-dasharray="" stroke-dashoffset="0" style="mix-blend-mode: normal"><g><path d="M303.51319,173.63118c0,-8.60479 6.97554,-15.58033 15.58033,-15.58033c8.60479,0 15.58033,6.97554 15.58033,15.58033c0,8.60479 -6.97554,15.58033 -15.58033,15.58033c-8.60479,0 -15.58033,-6.97554 -15.58033,-15.58033z" fill="url(#color-1)" stroke="none" stroke-width="0"/><path d="M281.01318,173.63118c0,-21.03121 17.04912,-38.08033 38.08033,-38.08033c21.03121,0 38.08033,17.04912 38.08033,38.08033c0,21.03121 -17.04912,38.08033 -38.08033,38.08033c-21.03121,0 -38.08033,-17.04912 -38.08033,-38.08033z" fill="none" stroke="url(#color-2)" stroke-width="45"/></g></g></g></svg>