<svg version="1.1" xmlns="http://www.w3.org/2000/svg" xmlns:xlink="http://www.w3.org/1999/xlink" width="38.5" height="38.5" viewBox="0,0,38.5,38.5"><defs><radialGradient cx="320" cy="180" r="19.25" gradientUnits="userSpaceOnUse" id="color-1"><stop offset="0" stop-color="#000c5a"/><stop offset="1" stop-color="#000c5a" stop-opacity="0"/></radialGradient><radialGradient cx="322.49172" cy="174.5472" r="3.78571" gradientUnits="userSpaceOnUse" id="color-2"><stop offset="0" stop-color="#2d7002" stop-opacity="0.46175"/><stop offset="1" stop-color="#2d7002" stop-opacity="0"/></radialGradient><radialGradient cx="319.91757" cy="178.79828" r="9.1377" gradientUnits="userSpaceOnUse" id="color-3"><stop offset="0" stop-color="#000a51"/><stop offset="1" stop-color="#001598"/></radialGradient><radialGradient cx="319.91756" cy="183.31251" r="3.1069" gradientUnits="userSpaceOnUse" id="color-4"><stop offset="0" stop-color="#0017c2"/><stop offset="1" stop-color="#00094f" stop-opacity="0.58039"/></radialGradient><radialGradient cx="319.91756" cy="183.31251" r="6.65561" gradientUnits="userSpaceOnUse" id="color-5"><stop offset="0" stop-color="#0017c2" stop-opacity="0.82745"/><stop offset="1" stop-color="#0017c2" stop-opacity="0"/></radialGradient></defs><g transform="translate(-300.75,-160.75)"><g data-paper-data="{&quot;isPaintingLayer&quot;:true}" fill-rule="nonzero" stroke-linejoin="miter" stroke-miterlimit="10" stroke-dasharray="" stroke-dashoffset="0" style="mix-blend-mode: normal"><path d="M300.75,180c0,-10.63148 8.61852,-19.25 19.25,-19.25c10.63148,0 19.25,8.61852 19.25,19.25c0,10.63148 -8.61852,19.25 -19.25,19.25c-10.63148,0 -19.25,-8.61852 -19.25,-19.25z" fill="url(#color-1)" stroke="#6e6e6e" stroke-width="0" stroke-linecap="butt"/><path d="" fill="#494949" stroke="#6e6e6e" stroke-width="1" stroke-linecap="butt"/><g><path d="" fill="none" stroke="#ffffff" stroke-width="2.5" stroke-linecap="round"/><path d="" fill="url(#color-2)" stroke="none" stroke-width="0" stroke-linecap="butt"/></g><path d="M311.04022,184.80004c2.03756,-3.52916 6.28582,-10.88736 7.53541,-13.05172c0.6754,-1.16982 2.18018,-1.15796 2.86003,0.01958c1.20176,2.08151 5.15684,8.93191 7.27091,12.59359c0.81845,1.41759 0.16334,2.35726 -1.62147,2.35726c-4.47345,0 -12.63562,0 -14.875,0c-1.11885,0 -1.84519,-0.74906 -1.16989,-1.91871z" fill="url(#color-3)" stroke="#000c5a" stroke-width="1" stroke-linecap="butt"/><g stroke="none" stroke-linecap="butt"><g><path d="M319.91756,181.25287c1.71589,0 3.1069,0.92213 3.1069,2.05963c0,1.1375 -1.39101,2.05963 -3.1069,2.05963c-1.71589,0 -3.1069,-0.92212 -3.1069,-2.05963c0,-1.1375 1.39101,-2.05963 3.1069,-2.05963z" fill="#096b22" stroke-width="NaN"/><path d="M319.91755,181.82295c1.24096,0 2.24696,0.66689 2.24696,1.48955c0,0.82266 -1.006,1.48956 -2.24696,1.48956c-1.24096,0 -2.24696,-0.6669 -2.24696,-1.48956c0,-0.82266 1.006,-1.48955 2.24696,-1.48955z" fill="#009f29" stroke-width="NaN"/><path d="M319.91756,182.31159c0.83387,0 1.50986,0.44812 1.50986,1.00092c0,0.5528 -0.67598,1.00092 -1.50986,1.00092c-0.83387,0 -1.50985,-0.44812 -1.50985,-1.00092c0,-0.5528 0.67598,-1.00092 1.50985,-1.00092z" fill="#37d660" stroke-width="NaN"/><path d="M319.91756,181.25287c1.71589,0 3.1069,0.92213 3.1069,2.05963c0,1.1375 -1.39101,2.05963 -3.1069,2.05963c-1.71589,0 -3.1069,-0.92212 -3.1069,-2.05963c0,-1.1375 1.39101,-2.05963 3.1069,-2.05963z" fill="url(#color-4)" stroke-width="NaN"/><path d="M321.77353,182.31159c0.19115,0 0.34612,0.15496 0.34612,0.34611c0,0.19116 -0.15496,0.34612 -0.34612,0.34612c-0.19115,0 -0.34612,-0.15495 -0.34612,-0.34612c0,-0.19116 0.15496,-0.34611 0.34612,-0.34611z" fill="#000000" stroke-width="0"/><path d="M321.77353,183.62118c0.19115,0 0.34611,0.15495 0.34611,0.34612c0,0.19116 -0.15496,0.34611 -0.34611,0.34611c-0.19115,0 -0.34612,-0.15496 -0.34612,-0.34611c0,-0.19116 0.15496,-0.34612 0.34612,-0.34612z" fill="#000000" stroke-width="0"/></g><path d="M313.26195,183.31251c0,-3.67579 2.97981,-6.65561 6.65561,-6.65561c3.67579,0 6.65561,2.97982 6.65561,6.65561c0,3.67579 -2.97982,6.65561 -6.65561,6.65561c-3.67579,0 -6.65561,-2.97982 -6.65561,-6.65561z" fill="url(#color-5)" stroke-width="0"/></g><text transform="translate(316.46194,179.5774) scale(0.06753,0.06753)" font-size="40" xml:space="preserve" fill="#ffffff" fill-rule="nonzero" stroke="none" stroke-width="1" stroke-linecap="butt" stroke-linejoin="miter" stroke-miterlimit="10" stroke-dasharray="" stroke-dashoffset="0" font-family="&quot;MV Boli&quot;, Technological" font-weight="normal" text-anchor="start" style="mix-blend-mode: normal"><tspan x="0" dy="0">x300</tspan></text><text transform="translate(317.56287,176.74731) scale(0.12071,0.12071)" font-size="40" xml:space="preserve" fill="#ffffff" fill-rule="nonzero" stroke="none" stroke-width="1" stroke-linecap="butt" stroke-linejoin="miter" stroke-miterlimit="10" stroke-dasharray="" stroke-dashoffset="0" font-family="&quot;MV Boli&quot;, Technological" font-weight="normal" text-anchor="start" style="mix-blend-mode: normal"><tspan x="0" dy="0">E</tspan></text></g></g></svg>