<svg version="1.1" xmlns="http://www.w3.org/2000/svg" xmlns:xlink="http://www.w3.org/1999/xlink" width="122.66066" height="122.66066" viewBox="0,0,122.66066,122.66066"><defs><radialGradient cx="319.09349" cy="173.63118" r="16.34747" gradientUnits="userSpaceOnUse" id="color-1"><stop offset="0" stop-color="#005907" stop-opacity="0"/><stop offset="1" stop-color="#005907" stop-opacity="0.4"/></radialGradient><radialGradient cx="319.09353" cy="173.63118" r="38.83033" gradientUnits="userSpaceOnUse" id="color-2"><stop offset="0" stop-color="#005907" stop-opacity="0.70196"/><stop offset="1" stop-color="#005907" stop-opacity="0"/></radialGradient></defs><g transform="translate(-257.76319,-112.30085)"><g data-paper-data="{&quot;isPaintingLayer&quot;:true}" fill-rule="nonzero" stroke-linecap="butt" stroke-linejoin="miter" stroke-miterlimit="10" stroke-dasharray="" stroke-dashoffset="0" style="mix-blend-mode: normal"><path d="M302.74606,173.63118c0,-9.02847 7.319,-16.34747 16.34747,-16.34747c9.02847,0 16.34747,7.319 16.34747,16.34747c0,9.02847 -7.319,16.34747 -16.34747,16.34747c-9.02847,0 -16.34747,-7.319 -16.34747,-16.34747z" fill="url(#color-1)" stroke="none" stroke-width="0"/><path d="M280.26319,173.63118c0,-21.44542 17.38491,-38.83033 38.83033,-38.83033c21.44542,0 38.83033,17.38491 38.83033,38.83033c0,21.44542 -17.38491,38.83033 -38.83033,38.83033c-21.44542,0 -38.83033,-17.38491 -38.83033,-38.83033z" fill="none" stroke="url(#color-2)" stroke-width="45"/></g></g></svg>