<svg version="1.1" xmlns="http://www.w3.org/2000/svg" xmlns:xlink="http://www.w3.org/1999/xlink" width="186.01437" height="130.74751" viewBox="0,0,186.01437,130.74751"><defs><radialGradient cx="320" cy="180" r="51.6" gradientUnits="userSpaceOnUse" id="color-1"><stop offset="0" stop-color="#ffffff"/><stop offset="1" stop-color="#ffffff" stop-opacity="0"/></radialGradient><radialGradient cx="320" cy="180" r="42.85" gradientUnits="userSpaceOnUse" id="color-2"><stop offset="0" stop-color="#ffffff"/><stop offset="1" stop-color="#ffffff" stop-opacity="0"/></radialGradient><radialGradient cx="320" cy="180" r="35.725" gradientUnits="userSpaceOnUse" id="color-3"><stop offset="0" stop-color="#ffffff"/><stop offset="1" stop-color="#ffffff" stop-opacity="0"/></radialGradient><radialGradient cx="320" cy="180" r="31.225" gradientUnits="userSpaceOnUse" id="color-4"><stop offset="0" stop-color="#ffffff"/><stop offset="1" stop-color="#ffffff" stop-opacity="0"/></radialGradient><radialGradient cx="320" cy="180" r="26.975" gradientUnits="userSpaceOnUse" id="color-5"><stop offset="0" stop-color="#ffffff"/><stop offset="1" stop-color="#ffffff" stop-opacity="0"/></radialGradient><radialGradient cx="320" cy="180" r="34.35" gradientUnits="userSpaceOnUse" id="color-6"><stop offset="0" stop-color="#ffa0a0"/><stop offset="1" stop-color="#ffa0a0" stop-opacity="0"/></radialGradient><radialGradient cx="280" cy="147.10249" r="46.25" gradientUnits="userSpaceOnUse" id="color-7"><stop offset="0" stop-color="#ffffff" stop-opacity="0.50196"/><stop offset="1" stop-color="#ffffff" stop-opacity="0"/></radialGradient><radialGradient cx="373.50205" cy="168.08768" r="46.25" gradientUnits="userSpaceOnUse" id="color-8"><stop offset="0" stop-color="#ffffff" stop-opacity="0.50196"/><stop offset="1" stop-color="#ffffff" stop-opacity="0"/></radialGradient><radialGradient cx="308.09961" cy="183.90039" r="46.25" gradientUnits="userSpaceOnUse" id="color-9"><stop offset="0" stop-color="#ffffff" stop-opacity="0.50196"/><stop offset="1" stop-color="#ffffff" stop-opacity="0"/></radialGradient></defs><g transform="translate(-233.75,-100.85249)"><g data-paper-data="{&quot;isPaintingLayer&quot;:true}" fill-rule="nonzero" stroke-linecap="butt" stroke-linejoin="miter" stroke-miterlimit="10" stroke-dasharray="" stroke-dashoffset="0" style="mix-blend-mode: normal"><path d="M296.4,180c0,-13.03392 10.56608,-23.6 23.6,-23.6c13.03392,0 23.6,10.56608 23.6,23.6c0,13.03392 -10.56608,23.6 -23.6,23.6c-13.03392,0 -23.6,-10.56608 -23.6,-23.6z" fill="#ffffff" stroke="#000000" stroke-width="0"/><g stroke="#000000" stroke-width="0"><path d="M268.4,180c0,-28.49789 23.10211,-51.6 51.6,-51.6c28.49789,0 51.6,23.10211 51.6,51.6c0,28.49789 -23.10211,51.6 -51.6,51.6c-28.49789,0 -51.6,-23.10211 -51.6,-51.6z" fill="url(#color-1)"/><path d="M277.15,180c0,-23.6654 19.1846,-42.85 42.85,-42.85c23.6654,0 42.85,19.1846 42.85,42.85c0,23.6654 -19.1846,42.85 -42.85,42.85c-23.6654,0 -42.85,-19.1846 -42.85,-42.85z" fill="url(#color-2)"/><path d="M284.275,180c0,-19.73037 15.99463,-35.725 35.725,-35.725c19.73037,0 35.725,15.99463 35.725,35.725c0,19.73037 -15.99463,35.725 -35.725,35.725c-19.73037,0 -35.725,-15.99463 -35.725,-35.725z" fill="url(#color-3)"/><path d="M288.775,180c0,-17.24509 13.97991,-31.225 31.225,-31.225c17.24509,0 31.225,13.97991 31.225,31.225c0,17.24509 -13.97991,31.225 -31.225,31.225c-17.24509,0 -31.225,-13.97991 -31.225,-31.225z" fill="url(#color-4)"/><path d="M293.025,180c0,-14.89788 12.07712,-26.975 26.975,-26.975c14.89788,0 26.975,12.07712 26.975,26.975c0,14.89788 -12.07712,26.975 -26.975,26.975c-14.89788,0 -26.975,-12.07712 -26.975,-26.975z" fill="url(#color-5)"/></g><path d="M285.65,180c0,-18.97098 15.37902,-34.35 34.35,-34.35c18.97098,0 34.35,15.37902 34.35,34.35c0,18.97098 -15.37902,34.35 -34.35,34.35c-18.97098,0 -34.35,-15.37902 -34.35,-34.35z" fill="url(#color-6)" stroke="#000000" stroke-width="0"/><g stroke="none"><path d="M233.75,147.10249c0,-25.54317 20.70683,-46.25 46.25,-46.25c25.54317,0 46.25,20.70683 46.25,46.25c0,25.54317 -20.70683,46.25 -46.25,46.25c-25.54317,0 -46.25,-20.70683 -46.25,-46.25z" fill="url(#color-7)" stroke-width="NaN"/><g><path d="M332.08739,181.61264l5.11367,10.96462l-13.28397,-7.20623c0,0 4.56803,8.64629 3.73486,7.94048c-1.43491,-1.21558 -4.0121,0.67886 -5.13835,-2.88967c-0.56414,-1.78747 -4.44557,-3.68958 -4.44557,-3.68958l-6.56426,6.35068l-4.5029,-25.12736l-15.20863,-7.87486l-10.00568,-10.72637l-26.18762,-12.43353l21.39232,4.88693l5.44451,-9.36024l6.33315,21.11809l9.33741,-5.49485c0,0 9.77179,13.51656 15.51116,16.4834c2.81625,1.4558 7.82445,15.8777 7.82445,15.8777l7.96576,-12.56765z" fill="#ffa4a4" stroke-width="NaN"/><path d="M322.98729,176.76498l3.80313,8.15458l-9.87953,-5.35939c0,0 3.39732,6.43039 2.77768,5.90547c-1.06717,-0.90404 -2.98387,0.50488 -3.82148,-2.1491c-0.41956,-1.32937 -3.30625,-2.74401 -3.30625,-2.74401l-4.88196,4.72312l-3.34888,-18.68766l-11.31093,-5.85667l-7.4414,-7.9774l-19.4762,-9.24703l15.90985,3.6345l4.04918,-6.96138l4.71008,15.7059l6.9444,-4.08662c0,0 7.26745,10.05251 11.53592,12.259c2.09449,1.0827 5.81918,11.80854 5.81918,11.80854l5.92428,-9.34678z" fill="#ffcaca" stroke-width="NaN"/><path d="M313.60024,171.76448l2.45127,5.25594l-6.36773,-3.45434c0,0 2.1897,4.14464 1.79031,3.80631c-0.68783,-0.58269 -1.92322,0.32541 -2.46309,-1.38518c-0.27042,-0.85683 -2.131,-1.76862 -2.131,-1.76862l-3.14661,3.04423l-2.15848,-12.04492l-7.29032,-3.77485l-4.79627,-5.14174l-12.55316,-5.96006l10.25451,2.34258l2.60984,-4.48688l3.03583,10.12306l4.47593,-2.63399c0,0 4.68416,6.47923 7.43535,7.90139c1.34998,0.69785 3.75068,7.61106 3.75068,7.61106l3.81843,-6.02436z" fill="#ffe4e4" stroke-width="NaN"/><path d="M305.97327,167.70153l1.35288,2.90079l-3.51441,-1.90648c0,0 1.20852,2.28746 0.98809,2.10073c-0.37962,-0.32159 -1.06144,0.1796 -1.3594,-0.76449c-0.14924,-0.47289 -1.17612,-0.97611 -1.17612,-0.97611l-1.73664,1.68013l-1.19128,-6.64768l-4.02359,-2.08337l-2.6471,-2.83777l-6.92819,-3.28942l5.65955,1.29289l1.4404,-2.47634l1.6755,5.587l2.47031,-1.45372c0,0 2.58522,3.57594 4.10362,4.36084c0.74506,0.38514 2.07003,4.2006 2.07003,4.2006l2.10742,-3.32489z" fill="#fff1f1" stroke-width="NaN"/><path d="M300.69308,164.88876l0.59245,1.27031l-1.53902,-0.83488c0,0 0.52923,1.00172 0.4327,0.91995c-0.16624,-0.14083 -0.46482,0.07865 -0.59531,-0.33478c-0.06536,-0.20709 -0.51505,-0.42746 -0.51505,-0.42746l-0.76051,0.73575l-0.52168,-2.91114l-1.76201,-0.91235l-1.15921,-1.24271l-3.03398,-1.44049l2.47841,0.56618l0.63078,-1.08443l0.73373,2.44665l1.08179,-0.63661c0,0 1.13211,1.56597 1.79706,1.90969c0.32627,0.16866 0.9065,1.83952 0.9065,1.83952l0.92287,-1.45603z" fill="#ffffff" stroke-width="NaN"/></g></g><g stroke="none"><path d="M390.61939,125.12189c23.72935,9.45365 35.3021,36.35378 25.84845,60.08313c-9.45365,23.72935 -36.35378,35.3021 -60.08313,25.84845c-23.72935,-9.45365 -35.3021,-36.35378 -25.84845,-60.08313c9.45365,-23.72935 36.35378,-35.3021 60.08313,-25.84845z" fill="url(#color-8)" stroke-width="NaN"/><g><path d="M322.16468,203.70398l-12.07862,0.69249l11.61098,-9.67362c0,0 -9.72297,1.04362 -8.75892,0.53084c1.66033,-0.88313 0.85424,-3.97845 4.5862,-3.704c1.86933,0.13747 5.07291,-2.76436 5.07291,-2.76436l-3.47026,-8.44855l25.00961,5.1166l12.94445,-11.21414l13.66784,-5.3253l21.24279,-19.72633l-12.45731,18.06458l6.68053,8.52216l-21.96242,-1.93247l1.64884,10.70803c0,0 -16.17333,4.07535 -21.05367,8.30913c-2.39473,2.07747 -17.64609,1.39243 -17.64609,1.39243l8.72706,12.05146z" fill="#ffa4a4" stroke-width="NaN"/><path d="M330.03609,197.04422l-8.98308,0.51502l8.63528,-7.19445c0,0 -7.23113,0.77616 -6.51416,0.3948c1.23481,-0.6568 0.63532,-2.95884 3.41084,-2.75473c1.39025,0.10224 3.77282,-2.0559 3.77282,-2.0559l-2.5809,-6.28334l18.60009,3.80531l9.62702,-8.34016l10.16502,-3.96051l15.79863,-14.67083l-9.26472,13.43495l4.96843,6.33809l-16.33385,-1.43721l1.22627,7.96376c0,0 -12.0284,3.03091 -15.65799,6.17964c-1.781,1.54505 -13.12372,1.03556 -13.12372,1.03556l6.49046,8.96288z" fill="#ffcaca" stroke-width="NaN"/><path d="M338.1557,190.17445l-5.78994,0.33196l5.56577,-4.63709c0,0 -4.66075,0.50026 -4.19863,0.25445c0.79588,-0.42333 0.40949,-1.90709 2.19842,-1.77552c0.89607,0.0659 2.43172,-1.3251 2.43172,-1.3251l-1.66348,-4.04985l11.98847,2.45267l6.20498,-5.37555l6.55175,-2.55271l10.18282,-9.45591l-5.97148,8.65934l3.20235,4.08513l-10.5278,-0.92634l0.79039,5.13295c0,0 -7.75277,1.95354 -10.09217,3.98302c-1.14793,0.99584 -8.45874,0.66746 -8.45874,0.66746l4.18335,5.77693z" fill="#ffe4e4" stroke-width="NaN"/><path d="M344.75292,184.59279l-3.19551,0.18322l3.0718,-2.55925c0,0 -2.57231,0.2761 -2.31725,0.14044c0.43925,-0.23364 0.226,-1.05254 1.21332,-0.97993c0.49454,0.03638 1.34208,-0.73134 1.34208,-0.73134l-0.91809,-2.23515l6.61653,1.35365l3.42458,-2.96681l3.61596,-1.40886l5.61999,-5.21879l-3.29571,4.77916l1.7674,2.25462l-5.81038,-0.51125l0.43622,2.83292c0,0 -4.27881,1.07817 -5.56995,2.19825c-0.63354,0.54961 -4.66844,0.36838 -4.66844,0.36838l2.30882,3.18833z" fill="#fff1f1" stroke-width="NaN"/><path d="M349.32018,180.72856l-1.39937,0.08023l1.34519,-1.12074c0,0 -1.12646,0.12091 -1.01477,0.0615c0.19236,-0.10231 0.09897,-0.46092 0.53133,-0.42913c0.21657,0.01593 0.58773,-0.32027 0.58773,-0.32027l-0.40204,-0.97881l2.8975,0.59279l1.49969,-1.29922l1.58349,-0.61696l2.46109,-2.28541l-1.44325,2.09287l0.77397,0.98734l-2.54447,-0.22389l0.19103,1.24058c0,0 -1.87377,0.47215 -2.43918,0.96267c-0.27744,0.24068 -2.0444,0.16131 -2.0444,0.16131l1.01108,1.39622z" fill="#ffffff" stroke-width="NaN"/></g></g><g stroke="none"><path d="M342.45998,152.94191c17.0979,18.97671 15.57482,48.22096 -3.40189,65.31885c-18.97671,17.0979 -48.22095,15.57482 -65.31885,-3.40188c-17.0979,-18.97671 -15.57482,-48.22096 3.40189,-65.31885c18.97671,-17.0979 48.22095,-15.57482 65.31885,3.40188z" fill="url(#color-9)" stroke-width="NaN"/><g><path d="M246.30234,193.12775l-11.1385,-4.72296l14.69267,-3.53822c0,0 -9.1813,-3.36585 -8.08986,-3.39919c1.87971,-0.0574 2.52628,-3.18993 5.75168,-1.29266c1.6156,0.95034 5.77244,-0.23465 5.77244,-0.23465l0.62579,-9.11202l20.1649,15.65367l16.57011,-4.32979l14.61343,1.27138l27.77815,-8.29207l-19.1641,10.6888l2.22061,10.59838l-18.84094,-11.44996l-3.25891,10.33248c0,0 -16.30735,-3.50085 -22.5572,-1.86322c-3.06674,0.80357 -16.44109,-6.5585 -16.44109,-6.5585l2.49446,14.66891z" fill="#ffa4a4" stroke-width="NaN"/><path d="M256.30794,190.63784l-8.2839,-3.51254l10.9272,-2.63145c0,0 -6.82829,-2.50323 -6.01657,-2.52803c1.39797,-0.0427 1.87884,-2.37241 4.27763,-0.96137c1.20155,0.70678 4.29307,-0.17452 4.29307,-0.17452l0.46541,-6.77678l14.99698,11.64192l12.32349,-3.22015l10.86827,0.94555l20.6591,-6.16697l-14.25269,7.94945l1.65151,7.8822l-14.01234,-8.51553l-2.42371,7.68445c0,0 -12.12805,-2.60365 -16.77618,-1.38571c-2.28079,0.59763 -12.22754,-4.87768 -12.22754,-4.87768l1.85517,10.90952z" fill="#ffcaca" stroke-width="NaN"/><path d="M266.62903,188.06942l-5.3393,-2.26397l7.043,-1.69606c0,0 -4.40109,-1.61344 -3.87791,-1.62942c0.90104,-0.02752 1.21099,-1.52911 2.7571,-0.61964c0.77444,0.45555 2.76705,-0.11248 2.76705,-0.11248l0.29998,-4.3679l9.66613,7.50367l7.94296,-2.0755l7.00502,0.60944l13.31558,-3.97485l-9.18641,5.12372l1.06447,5.08038l-9.0315,-5.48859l-1.56217,4.95293c0,0 -7.81701,-1.67815 -10.81289,-0.89314c-1.47006,0.38519 -7.88112,-3.14386 -7.88112,-3.14386l1.19572,7.03161z" fill="#ffe4e4" stroke-width="NaN"/><path d="M275.01494,185.9826l-2.9468,-1.24949l3.88709,-0.93607c0,0 -2.429,-0.89046 -2.14025,-0.89929c0.49729,-0.01519 0.66836,-0.84393 1.52167,-0.34199c0.42742,0.25142 1.52715,-0.06208 1.52715,-0.06208l0.16556,-2.41067l5.33481,4.14133l4.38378,-1.14549l3.86613,0.33636l7.34899,-2.19374l-5.07006,2.82783l0.58748,2.8039l-4.98456,-3.0292l-0.86218,2.73356c0,0 -4.31427,-0.92619 -5.96772,-0.49293c-0.81133,0.21259 -4.34964,-1.73512 -4.34964,-1.73512l0.65993,3.8808z" fill="#fff1f1" stroke-width="NaN"/><path d="M280.82052,184.53787l-1.29046,-0.54718l1.70223,-0.40992c0,0 -1.0637,-0.38996 -0.93725,-0.39382c0.21777,-0.00665 0.29269,-0.36957 0.66637,-0.14977c0.18718,0.1101 0.66878,-0.02719 0.66878,-0.02719l0.07251,-1.05567l2.33621,1.81356l1.91974,-0.50163l1.69304,0.1473l3.21825,-0.96068l-2.22026,1.23835l0.25726,1.22788l-2.18283,-1.32654l-0.37756,1.19708c0,0 -1.88929,-0.40559 -2.61338,-0.21585c-0.35529,0.09309 -1.90478,-0.75985 -1.90478,-0.75985l0.289,1.69947z" fill="#ffffff" stroke-width="NaN"/></g></g></g></g></svg>