<svg version="1.1" xmlns="http://www.w3.org/2000/svg" xmlns:xlink="http://www.w3.org/1999/xlink" width="101.36786" height="101.36786" viewBox="0,0,101.36786,101.36786"><g transform="translate(-189.31607,-129.31607)"><g data-paper-data="{&quot;isPaintingLayer&quot;:true}" fill-rule="nonzero" stroke-linecap="butt" stroke-linejoin="miter" stroke-miterlimit="10" stroke-dasharray="" stroke-dashoffset="0" style="mix-blend-mode: normal"><path d="M221.31229,180c0,-10.32094 8.36677,-18.68771 18.68771,-18.68771c10.32094,0 18.68771,8.36677 18.68771,18.68771c0,10.32094 -8.36677,18.68771 -18.68771,18.68771c-10.32094,0 -18.68771,-8.36677 -18.68771,-18.68771z" fill="#cccccc" stroke="none" stroke-width="0"/><path d="M218.68433,180c0,-11.77232 9.54334,-21.31567 21.31567,-21.31567c11.77232,0 21.31567,9.54334 21.31567,21.31567c0,11.77232 -9.54334,21.31567 -21.31567,21.31567c-11.77232,0 -21.31567,-9.54334 -21.31567,-21.31567z" fill="none" stroke="#cccccc" stroke-width="1.5"/><path d="M189.31607,230.68393v-101.36786h101.36786v101.36786z" fill="none" stroke="none" stroke-width="0"/></g></g></svg>