<svg version="1.1" xmlns="http://www.w3.org/2000/svg" xmlns:xlink="http://www.w3.org/1999/xlink" width="166" height="166" viewBox="0,0,166,166"><defs><radialGradient cx="318.75" cy="180" r="42.08482" gradientUnits="userSpaceOnUse" id="color-1"><stop offset="0" stop-color="#36b351"/><stop offset="1" stop-color="#a2e9b5"/></radialGradient><radialGradient cx="320" cy="180" r="83" gradientUnits="userSpaceOnUse" id="color-2"><stop offset="0" stop-color="#ffffff" stop-opacity="0.41961"/><stop offset="1" stop-color="#ffffff" stop-opacity="0"/></radialGradient></defs><g transform="translate(-237,-97)"><g data-paper-data="{&quot;isPaintingLayer&quot;:true}" fill-rule="nonzero" stroke-linecap="butt" stroke-linejoin="miter" stroke-miterlimit="10" stroke-dasharray="" stroke-dashoffset="0" style="mix-blend-mode: normal"><path d="M276.66518,202.69385c0,-13.51679 0,-38.92706 0,-46.17024c0,-3.78601 5.47962,-7.82546 10.60329,-7.82546c9.99724,0 45.55143,0 63.31345,0c6.21596,0 10.2529,4.50683 10.2529,8.60801c0,6.97572 0,29.3803 0,43.04005c0,6.45389 -6.61399,10.95565 -12.4875,10.95565c-10.42307,0 -44.73109,0 -61.82372,0c-5.98433,0 -9.85842,-3.43199 -9.85842,-8.60801z" fill="url(#color-1)" stroke="#ffffff" stroke-width="5"/><text transform="translate(283.16518,190.43942) scale(0.90483,0.90483)" font-size="40" xml:space="preserve" fill="#ffffff" fill-rule="nonzero" stroke="none" stroke-width="1" stroke-linecap="butt" stroke-linejoin="miter" stroke-miterlimit="10" stroke-dasharray="" stroke-dashoffset="0" font-family="&quot;MV Boli&quot;, Sans Serif" font-weight="normal" text-anchor="start" style="mix-blend-mode: normal"><tspan x="0" dy="0">Skip</tspan></text><path d="M237,180c0,-45.83963 37.16037,-83 83,-83c45.83963,0 83,37.16037 83,83c0,45.83963 -37.16037,83 -83,83c-45.83963,0 -83,-37.16037 -83,-83z" fill="url(#color-2)" stroke="#ffffff" stroke-width="0"/></g></g></svg>