<svg version="1.1" xmlns="http://www.w3.org/2000/svg" xmlns:xlink="http://www.w3.org/1999/xlink" width="226" height="226" viewBox="0,0,226,226"><defs><linearGradient x1="320.04192" y1="103.7994" x2="320.04192" y2="256.61976" gradientUnits="userSpaceOnUse" id="color-1"><stop offset="0" stop-color="#5d9369"/><stop offset="1" stop-color="#37a14b"/></linearGradient><radialGradient cx="320" cy="180" r="113" gradientUnits="userSpaceOnUse" id="color-2"><stop offset="0" stop-color="#616161"/><stop offset="1" stop-color="#616161" stop-opacity="0"/></radialGradient></defs><g transform="translate(-207,-67)"><g data-paper-data="{&quot;isPaintingLayer&quot;:true}" fill-rule="nonzero" stroke-linecap="butt" stroke-linejoin="miter" stroke-miterlimit="10" stroke-dasharray="" stroke-dashoffset="0" style="mix-blend-mode: normal"><path d="M243.63174,234.82531c0,-35.98391 0,-105.34423 0,-120.30539c0,-5.60696 6.80573,-10.72052 13.80282,-10.72052c17.18698,0 91.04734,0 123.55689,0c9.49344,0 15.46065,5.70072 15.46065,11.80435c0,16.0705 0,89.48902 0,123.55689c0,10.65367 -7.74282,17.45912 -15.46065,17.45912c-17.45889,0 -87.53468,0 -120.30539,0c-10.40901,0 -17.05432,-8.6809 -17.05432,-21.79445z" fill="url(#color-1)" stroke="none" stroke-width="0"/><path d="M298.90719,180.20958c0,-11.67239 9.46234,-21.13473 21.13473,-21.13473c11.67239,0 21.13473,9.46234 21.13473,21.13473c0,11.67239 -9.46234,21.13473 -21.13473,21.13473c-11.67239,0 -21.13473,-9.46234 -21.13473,-21.13473z" fill="#616161" stroke="#000000" stroke-width="4.5"/><path d="M231.16766,246.86527c0,-11.67239 9.46233,-21.13473 21.13473,-21.13473c11.6724,0 21.13473,9.46234 21.13473,21.13473c0,11.67239 -9.46233,21.13473 -21.13473,21.13473c-11.6724,0 -21.13473,-9.46234 -21.13473,-21.13473z" fill="#489b58" stroke="#000000" stroke-width="4.5"/><path d="M365.02096,245.78144c0,-11.67239 9.46234,-21.13473 21.13473,-21.13473c11.6724,0 21.13473,9.46234 21.13473,21.13473c0,11.67239 -9.46233,21.13473 -21.13473,21.13473c-11.67239,0 -21.13473,-9.46234 -21.13473,-21.13473z" fill="#489b58" stroke="#000000" stroke-width="4.5"/><path d="M367.73054,108.13473c0,-11.67239 9.46233,-21.13473 21.13473,-21.13473c11.6724,0 21.13473,9.46234 21.13473,21.13473c0,11.67239 -9.46233,21.13473 -21.13473,21.13473c-11.6724,0 -21.13473,-9.46234 -21.13473,-21.13473z" fill="#489b58" stroke="#000000" stroke-width="4.5"/><path d="M229,110.3024c0,-11.67239 9.46233,-21.13473 21.13473,-21.13473c11.6724,0 21.13473,9.46234 21.13473,21.13473c0,11.67239 -9.46233,21.13473 -21.13473,21.13473c-11.6724,0 -21.13473,-9.46234 -21.13473,-21.13473z" fill="#489b58" stroke="#000000" stroke-width="4.5"/><path d="M207,180c0,-62.40817 50.59182,-113 113,-113c62.40818,0 113,50.59183 113,113c0,62.40818 -50.59182,113 -113,113c-62.40818,0 -113,-50.59182 -113,-113z" fill="url(#color-2)" stroke="none" stroke-width="0"/></g></g></svg>