<svg version="1.1" xmlns="http://www.w3.org/2000/svg" xmlns:xlink="http://www.w3.org/1999/xlink" width="72.18134" height="56.39168" viewBox="0,0,72.18134,56.39168"><defs><linearGradient x1="306.31677" y1="179.9811" x2="287.25355" y2="179.98111" gradientUnits="userSpaceOnUse" id="color-1"><stop offset="0" stop-color="#5a10b4"/><stop offset="1" stop-color="#7628d6"/></linearGradient><linearGradient x1="350.84157" y1="179.90065" x2="331.77835" y2="179.90065" gradientUnits="userSpaceOnUse" id="color-2"><stop offset="0" stop-color="#7729d7"/><stop offset="1" stop-color="#5a10b4"/></linearGradient><radialGradient cx="320" cy="180.00003" r="28.19584" gradientUnits="userSpaceOnUse" id="color-3"><stop offset="0" stop-color="#6e02f2" stop-opacity="0.54118"/><stop offset="1" stop-color="#6e02f2" stop-opacity="0"/></radialGradient></defs><g transform="translate(-283.90933,-151.80418)"><g data-paper-data="{&quot;isPaintingLayer&quot;:true}" fill-rule="nonzero" stroke-linecap="butt" stroke-linejoin="miter" stroke-miterlimit="10" stroke-dasharray="" stroke-dashoffset="0" style="mix-blend-mode: normal"><path d="M297.51592,174.97625l0,10.00972l-1.46151,0l0,-10.00972z" fill="#671bc3" stroke="#ffffff" stroke-width="0.15"/><path d="M347.3231,174.89579v10.00972h-1.46151v-10.00972z" fill="#7123cf" stroke="#ffffff" stroke-width="0.15"/><path d="M342.04071,174.89579v10.00972l-1.46151,0v-10.00972z" fill="#691dc6" stroke="#ffffff" stroke-width="0.15"/><path d="M302.79831,174.97624l0,10.00972l-1.46151,0l0,-10.00972z" fill="#6116bc" stroke="#ffffff" stroke-width="0.15"/><path d="M287.25355,178.51959l19.06322,0v2.92302l-19.06322,0z" fill="url(#color-1)" stroke="#ffffff" stroke-width="0.5"/><path d="M331.77835,178.43915l19.06322,0v2.92302l-19.06322,0z" fill="url(#color-2)" stroke="#ffffff" stroke-width="0.5"/><path d="M320,186.28288c-10.01159,0 -18.12758,-6.28286 -18.12758,-6.28286c0,0 8.11599,-6.28286 18.12758,-6.28286c10.01159,0 18.12758,6.28286 18.12758,6.28286c0,0 -8.11599,6.28286 -18.12758,6.28286z" fill="#5a10b4" stroke="#ffffff" stroke-width="0.5"/><path d="M345.848,174.93328l0.73075,-0.73075l0.73076,0.73075z" fill="#9966ff" stroke="none" stroke-width="0"/><path d="M340.59676,174.93328l0.73076,-0.73075l0.73075,0.73075z" fill="#9966ff" stroke="none" stroke-width="0"/><path d="M342.05827,184.90585l-0.73075,0.73076l-0.73076,-0.73076z" data-paper-data="{&quot;index&quot;:null}" fill="#9966ff" stroke="none" stroke-width="0"/><path d="M347.33498,184.90585l-0.73075,0.73076l-0.73075,-0.73076z" data-paper-data="{&quot;index&quot;:null}" fill="#9966ff" stroke="none" stroke-width="0"/><path d="M301.32321,175.01375l0.73075,-0.73075l0.73076,0.73075z" fill="#9966ff" stroke="none" stroke-width="0"/><path d="M296.07196,175.01374l0.73076,-0.73075l0.73075,0.73075z" fill="#9966ff" stroke="none" stroke-width="0"/><path d="M297.53347,184.9863l-0.73075,0.73076l-0.73076,-0.73076z" data-paper-data="{&quot;index&quot;:null}" fill="#9966ff" stroke="none" stroke-width="0"/><path d="M302.81019,184.9863l-0.73075,0.73076l-0.73075,-0.73076z" data-paper-data="{&quot;index&quot;:null}" fill="#9966ff" stroke="none" stroke-width="0"/><path d="M350.72341,178.46775l1.46151,1.46151l-1.46151,1.46151z" fill="#9966ff" stroke="#ffffff" stroke-width="0.5"/><path d="M287.35276,181.39078l-1.46151,-1.46151l1.46151,-1.46151z" data-paper-data="{&quot;index&quot;:null}" fill="#9966ff" stroke="none" stroke-width="0"/><path d="M320,151.80418c19.93232,0 36.09067,12.6237 36.09067,28.19584c0,15.57214 -16.15834,28.19584 -36.09067,28.19584c-19.93232,0 -36.09067,-12.6237 -36.09067,-28.19584c0,-15.57214 16.15834,-28.19584 36.09067,-28.19584z" fill="url(#color-3)" stroke="none" stroke-width="0"/></g></g></svg>