<svg version="1.1" xmlns="http://www.w3.org/2000/svg" xmlns:xlink="http://www.w3.org/1999/xlink" width="223.03092" height="223.03092" viewBox="0,0,223.03092,223.03092"><defs><linearGradient x1="320" y1="102.11281" x2="320" y2="257.8872" gradientUnits="userSpaceOnUse" id="color-1"><stop offset="0" stop-color="#450089"/><stop offset="1" stop-color="#5a008a"/></linearGradient><radialGradient cx="258.67922" cy="205.8246" r="18.54231" gradientUnits="userSpaceOnUse" id="color-2"><stop offset="0" stop-color="#ff6e6e"/><stop offset="1" stop-color="#ffffff"/></radialGradient><radialGradient cx="324.19964" cy="189.86595" r="18.5417" gradientUnits="userSpaceOnUse" id="color-3"><stop offset="0" stop-color="#ff6e6e"/><stop offset="1" stop-color="#ffffff"/></radialGradient><radialGradient cx="277.15767" cy="164.66805" r="15.07344" gradientUnits="userSpaceOnUse" id="color-4"><stop offset="0" stop-color="#ff6e6e"/><stop offset="1" stop-color="#ffffff"/></radialGradient><radialGradient cx="325.03958" cy="247.89433" r="18.54217" gradientUnits="userSpaceOnUse" id="color-5"><stop offset="0" stop-color="#ff6e6e"/><stop offset="1" stop-color="#ffffff"/></radialGradient><radialGradient cx="366.23902" cy="225.21669" r="11.60288" gradientUnits="userSpaceOnUse" id="color-6"><stop offset="0" stop-color="#ff6e6e"/><stop offset="1" stop-color="#ffffff"/></radialGradient><radialGradient cx="375.43538" cy="154.58889" r="23.90032" gradientUnits="userSpaceOnUse" id="color-7"><stop offset="0" stop-color="#ff6e6e"/><stop offset="1" stop-color="#ffffff"/></radialGradient><radialGradient cx="324.19963" cy="141.56998" r="15.76943" gradientUnits="userSpaceOnUse" id="color-8"><stop offset="0" stop-color="#ff6e6e"/><stop offset="1" stop-color="#ffffff"/></radialGradient><radialGradient cx="320.00001" cy="180" r="111.51546" gradientUnits="userSpaceOnUse" id="color-9"><stop offset="0" stop-color="#7a00d1" stop-opacity="0.67059"/><stop offset="1" stop-color="#7a00d1" stop-opacity="0"/></radialGradient></defs><g transform="translate(-208.48453,-68.48453)"><g data-paper-data="{&quot;isPaintingLayer&quot;:true}" fill-rule="nonzero" stroke-linejoin="miter" stroke-miterlimit="10" stroke-dasharray="" stroke-dashoffset="0" style="mix-blend-mode: normal"><path d="M332.6033,221.31796v26.57637" fill="#1d0034" stroke="#1d0034" stroke-width="8.5" stroke-linecap="round"/><path d="M366.23903,247.89433v-26.57637" fill="none" stroke="#1d0034" stroke-width="8.5" stroke-linecap="round"/><path d="M242.1128,180c0,-43.01592 34.87129,-77.8872 77.8872,-77.8872c43.01592,0 77.8872,34.87129 77.8872,77.8872c0,43.01592 -34.87129,77.8872 -77.8872,77.8872c-43.01592,0 -77.8872,-34.87129 -77.8872,-77.8872z" fill="url(#color-1)" stroke="none" stroke-width="0" stroke-linecap="butt"/><g stroke="#000000" stroke-width="3.5" stroke-linecap="butt"><path d="M238.3481,215.33729c-5.2537,-11.22856 -0.41011,-24.59005 10.81843,-29.84377c11.22856,-5.2537 24.59005,-0.41011 29.84377,10.81843c5.2537,11.22856 0.41011,24.59005 -10.81843,29.84377c-11.22856,5.2537 -24.59005,0.41011 -29.84377,-10.81843z" fill="#a100d9"/><path d="M275.47407,197.96651c2.93402,6.27079 -2.20678,14.87247 -11.48235,19.21238c-9.27554,4.33991 -19.17335,2.77462 -22.10739,-3.49617c-2.93402,-6.27079 2.20678,-14.87247 11.48235,-19.21238c9.27554,-4.33991 19.17335,-2.77462 22.10739,3.49617z" fill="url(#color-2)"/></g><path d="M296.47605,221.31796v26.57637" fill="none" stroke="#1d0034" stroke-width="8.5" stroke-linecap="round"/><g stroke="#000000" stroke-width="3.5" stroke-linecap="butt"><path d="M302.89555,182.79863c3.90316,-11.76591 16.60548,-18.13993 28.3714,-14.23678c11.76591,3.90316 18.13993,16.60548 14.23678,28.3714c-3.90316,11.76591 -16.60548,18.13993 -28.3714,14.23678c-11.76591,-3.90316 -18.13993,-16.60548 -14.23678,-28.3714z" fill="#a100d9"/><path d="M341.79828,195.70402c-2.17979,6.5709 -11.82603,9.28386 -21.54548,6.05958c-9.71945,-3.22428 -15.83154,-11.16485 -13.65174,-17.73574c2.17979,-6.5709 11.82603,-9.28386 21.54548,-6.05958c9.71945,3.22428 15.83154,11.16483 13.65174,17.73573z" fill="url(#color-3)"/></g><g stroke="#000000" stroke-width="3.5" stroke-linecap="butt"><path d="M259.04122,166.84858c-1.20427,-10.00544 5.93049,-19.0927 15.93592,-20.29698c10.00544,-1.20427 19.0927,5.93049 20.29698,15.93592c1.20427,10.00544 -5.93049,19.0927 -15.93592,20.29698c-10.00544,1.20427 -19.0927,-5.93049 -20.29698,-15.93592z" fill="#a100d9"/><path d="M292.12309,162.8668c0.67254,5.58772 -5.4825,10.92392 -13.74767,11.91873c-8.26517,0.9948 -15.51063,-2.72849 -16.18317,-8.31621c-0.67254,-5.58772 5.4825,-10.92391 13.74767,-11.91871c8.26517,-0.9948 15.51063,2.72849 16.18317,8.31621z" fill="url(#color-4)"/></g><g stroke="#000000" stroke-width="3.5" stroke-linecap="butt"><path d="M303.3377,242.16154c3.16614,-11.98561 15.44905,-19.13522 27.43466,-15.96909c11.98561,3.16614 19.13522,15.44905 15.96909,27.43466c-3.16614,11.98561 -15.44905,19.13522 -27.43466,15.96909c-11.98561,-3.16614 -19.13522,-15.44905 -15.96909,-27.43466z" fill="#a100d9"/><path d="M342.96681,252.63c-1.76818,6.69359 -11.22788,9.99958 -21.12882,7.38414c-9.90093,-2.61544 -16.49381,-10.16189 -14.72563,-16.85549c1.76818,-6.69359 11.22786,-9.99956 21.1288,-7.38413c9.90093,2.61544 16.49382,10.16189 14.72564,16.85549z" fill="url(#color-5)"/></g><g stroke="#000000" stroke-width="3.5" stroke-linecap="butt"><path d="M352.65893,221.62936c1.98123,-7.50007 9.66736,-11.97399 17.16743,-9.99276c7.50007,1.98123 11.97399,9.66736 9.99276,17.16743c-1.98123,7.50007 -9.66736,11.97399 -17.16743,9.99276c-7.50007,-1.98123 -11.97399,-9.66736 -9.99276,-17.16743z" fill="#a100d9"/><path d="M377.45712,228.18005c-1.10645,4.18855 -7.02591,6.25731 -13.22149,4.62068c-6.19557,-1.63664 -10.32111,-6.35888 -9.21466,-10.54743c1.10645,-4.18855 7.02591,-6.25731 13.22149,-4.62065c6.19557,1.63664 10.32112,6.35888 9.21467,10.54743z" fill="url(#color-6)"/></g><g stroke="#000000" stroke-width="3.5" stroke-linecap="butt"><path d="M347.97432,145.4791c5.03119,-15.16632 21.40453,-23.38246 36.57086,-18.35127c15.16632,5.03119 23.38248,21.40453 18.35127,36.57086c-5.03119,15.16632 -21.40453,23.38246 -36.57086,18.35127c-15.16632,-5.03119 -23.38248,-21.40452 -18.35127,-36.57083z" fill="#a100d9"/><path d="M398.12007,162.11419c-2.80976,8.46991 -15.24381,11.96694 -27.77224,7.81084c-12.52842,-4.15611 -20.40692,-14.39152 -17.59715,-22.86143c2.80976,-8.46991 15.2438,-11.96694 27.77223,-7.81084c12.52842,4.15611 20.40693,14.39152 17.59716,22.86143z" fill="url(#color-7)"/></g><g stroke="#000000" stroke-width="3.5" stroke-linecap="butt"><path d="M305.2467,143.85118c-1.25987,-10.46742 6.20432,-19.97428 16.67173,-21.23416c10.46742,-1.25987 19.97428,6.20432 21.23416,16.67173c1.25987,10.46742 -6.20432,19.97428 -16.67173,21.23416c-10.46742,1.25987 -19.97428,-6.20432 -21.23416,-16.67173z" fill="#a100d9"/><path d="M339.85607,139.68554c0.70361,5.84572 -5.73564,11.42831 -14.38244,12.46906c-8.6468,1.04074 -16.2268,-2.85448 -16.93038,-8.70019c-0.70361,-5.84572 5.73564,-11.4283 14.38244,-12.46903c8.6468,-1.04074 16.2268,2.85447 16.93041,8.70019z" fill="url(#color-8)"/></g><path d="M208.48454,180c0,-61.58828 49.92718,-111.51546 111.51546,-111.51546c61.58828,0 111.51546,49.92718 111.51546,111.51546c0,61.58828 -49.92718,111.51546 -111.51546,111.51546c-61.58828,0 -111.51546,-49.92718 -111.51546,-111.51546z" fill="url(#color-9)" stroke="none" stroke-width="0" stroke-linecap="butt"/></g></g></svg>