<svg version="1.1" xmlns="http://www.w3.org/2000/svg" xmlns:xlink="http://www.w3.org/1999/xlink" width="38.5" height="54.75474" viewBox="0,0,38.5,54.75474"><defs><radialGradient cx="320" cy="180" r="19.25" gradientUnits="userSpaceOnUse" id="color-1"><stop offset="0" stop-color="#205069"/><stop offset="1" stop-color="#205069" stop-opacity="0"/></radialGradient><radialGradient cx="346.25002" cy="180" r="3.78571" gradientUnits="userSpaceOnUse" id="color-2"><stop offset="0" stop-color="#2d7002" stop-opacity="0.46175"/><stop offset="1" stop-color="#2d7002" stop-opacity="0"/></radialGradient><radialGradient cx="320.00001" cy="175.16286" r="5.58052" gradientUnits="userSpaceOnUse" id="color-3"><stop offset="0" stop-color="#2c7da8"/><stop offset="1" stop-color="#49a2d1"/></radialGradient><radialGradient cx="319.99998" cy="184.83714" r="5.58052" gradientUnits="userSpaceOnUse" id="color-4"><stop offset="0" stop-color="#2c7da8"/><stop offset="1" stop-color="#49a2d1"/></radialGradient><radialGradient cx="315.16285" cy="180.07089" r="5.58052" gradientUnits="userSpaceOnUse" id="color-5"><stop offset="0" stop-color="#2c7da8"/><stop offset="1" stop-color="#49a2d1"/></radialGradient><radialGradient cx="324.83714" cy="180.07091" r="5.58052" gradientUnits="userSpaceOnUse" id="color-6"><stop offset="0" stop-color="#2c7da8"/><stop offset="1" stop-color="#49a2d1"/></radialGradient><radialGradient cx="319.9875" cy="180.0709" r="5.58051" gradientUnits="userSpaceOnUse" id="color-7"><stop offset="0" stop-color="#a1deff"/><stop offset="1" stop-color="#00a5ff"/></radialGradient><radialGradient cx="319.83062" cy="163.63652" r="15.96574" gradientUnits="userSpaceOnUse" id="color-8"><stop offset="0" stop-color="#00ff19" stop-opacity="0.50196"/><stop offset="1" stop-color="#00ff19" stop-opacity="0"/></radialGradient><radialGradient cx="319.83062" cy="160.46101" r="15.96574" gradientUnits="userSpaceOnUse" id="color-9"><stop offset="0" stop-color="#00ff19" stop-opacity="0.50196"/><stop offset="1" stop-color="#00ff19" stop-opacity="0"/></radialGradient></defs><g transform="translate(-300.75,-144.49526)"><g data-paper-data="{&quot;isPaintingLayer&quot;:true}" fill-rule="nonzero" stroke-linejoin="miter" stroke-miterlimit="10" stroke-dasharray="" stroke-dashoffset="0" style="mix-blend-mode: normal"><path d="M300.75,180c0,-10.63148 8.61852,-19.25 19.25,-19.25c10.63148,0 19.25,8.61852 19.25,19.25c0,10.63148 -8.61852,19.25 -19.25,19.25c-10.63148,0 -19.25,-8.61852 -19.25,-19.25z" fill="url(#color-1)" stroke="#6e6e6e" stroke-width="0" stroke-linecap="butt"/><path d="" fill="#494949" stroke="#6e6e6e" stroke-width="1" stroke-linecap="butt"/><g><path d="" fill="none" stroke="#ffffff" stroke-width="2.5" stroke-linecap="round"/><path d="" fill="url(#color-2)" stroke="none" stroke-width="0" stroke-linecap="butt"/></g><path d="M314.57849,178.82822c1.24437,-2.15531 3.83883,-6.64906 4.60198,-7.97086c0.41248,-0.71442 1.33146,-0.70718 1.74666,0.01196c0.73393,1.27121 3.14935,5.45484 4.44044,7.69107c0.49984,0.86574 0.09975,1.43961 -0.99025,1.43961c-2.732,0 -7.71674,0 -9.08436,0c-0.6833,0 -1.12688,-0.45746 -0.71447,-1.17178z" fill="url(#color-3)" stroke="#6fc5f2" stroke-width="0.5" stroke-linecap="butt"/><path d="M325.42151,181.17178c-1.24437,2.15531 -3.83883,6.64906 -4.60198,7.97086c-0.41248,0.71442 -1.33146,0.70718 -1.74666,-0.01196c-0.73393,-1.27121 -3.14935,-5.45484 -4.44044,-7.69107c-0.49984,-0.86574 -0.09975,-1.43961 0.99025,-1.43961c2.732,0 7.71674,0 9.08436,0c0.6833,0 1.12688,0.45746 0.71447,1.17178z" fill="url(#color-4)" stroke="#6fc5f2" stroke-width="0.5" stroke-linecap="butt"/><path d="M318.82822,185.49241c-2.15531,-1.24437 -6.64906,-3.83883 -7.97086,-4.60198c-0.71442,-0.41248 -0.70718,-1.33146 0.01196,-1.74666c1.27121,-0.73393 5.45484,-3.14935 7.69107,-4.44044c0.86574,-0.49984 1.43961,-0.09975 1.43961,0.99025c0,2.732 0,7.71674 0,9.08436c0,0.6833 -0.45746,1.12688 -1.17178,0.71447z" fill="url(#color-5)" stroke="#6fc5f2" stroke-width="0.5" stroke-linecap="butt"/><path d="M321.17178,174.6494c2.15531,1.24437 6.64906,3.83883 7.97086,4.60198c0.71442,0.41248 0.70718,1.33146 -0.01196,1.74666c-1.27121,0.73393 -5.45484,3.14935 -7.69107,4.44044c-0.86574,0.49984 -1.43961,0.09975 -1.43961,-0.99025c0,-2.732 0,-7.71674 0,-9.08436c0,-0.6833 0.45746,-1.12688 1.17178,-0.71447z" fill="url(#color-6)" stroke="#6fc5f2" stroke-width="0.5" stroke-linecap="butt"/><path d="M314.40698,180.0709c0,-3.08203 2.49849,-5.58052 5.58052,-5.58052c3.08203,0 5.58051,2.49849 5.58051,5.58052c0,3.08203 -2.49849,5.58051 -5.58051,5.58051c-3.08203,0 -5.58052,-2.49848 -5.58052,-5.58051z" fill="url(#color-7)" stroke="#72a2bb" stroke-width="0.5" stroke-linecap="butt"/><g stroke="#ffffff" stroke-linecap="butt"><g><path d="M303.86488,163.63652c0,-8.81764 7.14811,-15.96574 15.96574,-15.96574c8.81764,0 15.96574,7.14811 15.96574,15.96574c0,8.81764 -7.14811,15.96574 -15.96574,15.96574c-8.81764,0 -15.96574,-7.14811 -15.96574,-15.96574z" fill="url(#color-8)" stroke-width="0"/><path d="M311.55026,165.91098c1.17457,-0.78149 5.56684,-3.70387 7.49924,-4.98959c0.56702,-0.37726 1.18607,-0.43808 1.62097,-0.14872c1.74148,1.15869 6.22614,4.14253 7.49924,4.98959c0.65339,0.43473 0.35983,0.91989 -0.64658,0.91989c-2.34931,0 -11.98115,0 -15.67792,0c-0.90474,0 -0.85855,-0.39617 -0.29495,-0.77117z" fill-opacity="0.50196" fill="#00ff19" stroke-width="1.5"/></g><g><path d="M303.86488,160.46101c0,-8.81764 7.14811,-15.96574 15.96574,-15.96574c8.81764,0 15.96574,7.14811 15.96574,15.96574c0,8.81764 -7.14811,15.96574 -15.96574,15.96574c-8.81764,0 -15.96574,-7.14811 -15.96574,-15.96574z" fill="url(#color-9)" stroke-width="0"/><path d="M311.55026,162.73547c1.17457,-0.78149 5.56684,-3.70387 7.49924,-4.98959c0.56702,-0.37726 1.18607,-0.43808 1.62097,-0.14872c1.74148,1.15869 6.22614,4.14253 7.49924,4.98959c0.65339,0.43473 0.35983,0.91989 -0.64658,0.91989c-2.34931,0 -11.98115,0 -15.67792,0c-0.90474,0 -0.85855,-0.39617 -0.29495,-0.77117z" fill-opacity="0.50196" fill="#00ff19" stroke-width="1.5"/></g></g></g></g></svg>