<svg version="1.1" xmlns="http://www.w3.org/2000/svg" xmlns:xlink="http://www.w3.org/1999/xlink" width="1129.03354" height="849.03351" viewBox="0,0,1129.03354,849.03351"><defs><linearGradient x1="320.00001" y1="363.77078" x2="320.00001" y2="287.19417" gradientUnits="userSpaceOnUse" id="color-1"><stop offset="0" stop-color="#f25100"/><stop offset="1" stop-color="#f25100" stop-opacity="0"/></linearGradient><linearGradient x1="320" y1="-4.09713" x2="320" y2="72.47945" gradientUnits="userSpaceOnUse" id="color-2"><stop offset="0" stop-color="#f55200"/><stop offset="1" stop-color="#f55200" stop-opacity="0"/></linearGradient><linearGradient x1="-5.07507" y1="180.00001" x2="71.50151" y2="180.00001" gradientUnits="userSpaceOnUse" id="color-3"><stop offset="0" stop-color="#ff5500"/><stop offset="1" stop-color="#ff5500" stop-opacity="0"/></linearGradient><linearGradient x1="643.54237" y1="180.00003" x2="566.96579" y2="180.00003" gradientUnits="userSpaceOnUse" id="color-4"><stop offset="0" stop-color="#f05000"/><stop offset="1" stop-color="#f05000" stop-opacity="0"/></linearGradient></defs><g transform="translate(244.51677,244.5167)"><g data-paper-data="{&quot;isPaintingLayer&quot;:true}" fill-rule="nonzero" stroke="none" stroke-width="0" stroke-linecap="butt" stroke-linejoin="miter" stroke-miterlimit="10" stroke-dasharray="" stroke-dashoffset="0" style="mix-blend-mode: normal"><path d="M644.32434,287.19417v76.57657h-648.64865v-76.57657z" fill="url(#color-1)"/><path d="M-4.32433,72.47945v-76.57657h648.64865v76.57657z" fill="url(#color-2)"/><path d="M71.50151,364.09715h-76.57657v-368.19425h76.57657z" fill="url(#color-3)"/><path d="M566.96579,-4.09712h76.57657v368.19425h-76.57657z" fill="url(#color-4)"/><g fill="#f25100"><path d="M-244.51677,450.00004v-540h244.51677v540z"/><path d="M640,450.00004v-540h244.51677v540z"/><path d="M-52.1021,-244.5167h744.2042v244.51677h-744.2042z"/><path d="M-52.1021,360.00004h744.2042v244.51677h-744.2042z"/></g></g></g></svg>