<svg version="1.1" xmlns="http://www.w3.org/2000/svg" xmlns:xlink="http://www.w3.org/1999/xlink" width="47.59559" height="49.56879" viewBox="0,0,47.59559,49.56879"><defs><radialGradient cx="147.13973" cy="99.46197" r="0.00125" gradientUnits="userSpaceOnUse" id="color-1"><stop offset="0" stop-color="#00ff26"/><stop offset="1" stop-color="#00ff26" stop-opacity="0.03137"/></radialGradient></defs><g transform="translate(-294.27941,-149.35515)"><g data-paper-data="{&quot;isPaintingLayer&quot;:true}" fill-rule="nonzero" stroke-linecap="butt" stroke-linejoin="miter" stroke-miterlimit="10" stroke-dasharray="" stroke-dashoffset="0" style="mix-blend-mode: normal"><path d="M294.27941,198.92394z" fill="url(#color-1)" stroke="none" stroke-width="0"/><path d="M300.03905,170.31281c0,-4.51869 0,-13.01339 0,-15.4348c0,-1.26567 2.60171,-2.61607 5.03442,-2.61607c4.74667,0 21.62775,0 30.06112,0c2.95133,0 4.86806,1.50664 4.86806,2.87767c0,2.332 0,9.82189 0,14.38837c0,2.15755 -3.14031,3.66249 -5.92904,3.66249c-4.94886,0 -21.23825,0 -29.3538,0c-2.84135,0 -4.68076,-1.14732 -4.68076,-2.87767z" fill-opacity="0.70196" fill="#000000" stroke="none" stroke-width="0"/><text transform="translate(303.11906,167.17492) scale(0.38559,0.38559)" font-size="40" xml:space="preserve" fill="#66ffff" fill-rule="nonzero" stroke="none" stroke-width="1" stroke-linecap="butt" stroke-linejoin="miter" stroke-miterlimit="10" stroke-dasharray="" stroke-dashoffset="0" font-family="&quot;MV Boli&quot;, Sans Serif" font-weight="normal" text-anchor="start" style="mix-blend-mode: normal"><tspan x="0" dy="0">Dash</tspan></text><path d="M301.125,182.375c-1.10457,0 -2,-0.89543 -2,-2v-0.75c0,-1.10457 0.89543,-2 2,-2h37.75c1.10457,0 2,0.89543 2,2v0.75c0,1.10457 -0.89543,2 -2,2z" fill="#6d0000" stroke="#333333" stroke-width="2"/></g></g></svg>