<svg version="1.1" xmlns="http://www.w3.org/2000/svg" xmlns:xlink="http://www.w3.org/1999/xlink" width="45.7862" height="48.52333" viewBox="0,0,45.7862,48.52333"><defs><radialGradient cx="319.87302" cy="180.05644" r="15.41358" gradientUnits="userSpaceOnUse" id="color-1"><stop offset="0" stop-color="#4200ff"/><stop offset="1" stop-color="#4200ff" stop-opacity="0"/></radialGradient><radialGradient cx="319.87302" cy="180.05644" r="15.41358" gradientUnits="userSpaceOnUse" id="color-2"><stop offset="0" stop-color="#ff0000"/><stop offset="1" stop-color="#ff0000" stop-opacity="0"/></radialGradient><radialGradient cx="319.87302" cy="180.05644" r="10.7428" gradientUnits="userSpaceOnUse" id="color-3"><stop offset="0" stop-color="#ff0000"/><stop offset="1" stop-color="#ff0000" stop-opacity="0"/></radialGradient><radialGradient cx="316.26984" cy="181.65785" r="15.41358" gradientUnits="userSpaceOnUse" id="color-4"><stop offset="0" stop-color="#4200ff"/><stop offset="1" stop-color="#4200ff" stop-opacity="0"/></radialGradient><radialGradient cx="316.26984" cy="181.65785" r="15.41358" gradientUnits="userSpaceOnUse" id="color-5"><stop offset="0" stop-color="#ff0000"/><stop offset="1" stop-color="#ff0000" stop-opacity="0"/></radialGradient><radialGradient cx="316.26984" cy="181.65785" r="10.7428" gradientUnits="userSpaceOnUse" id="color-6"><stop offset="0" stop-color="#ff0000"/><stop offset="1" stop-color="#ff0000" stop-opacity="0"/></radialGradient></defs><g transform="translate(-296.85626,-152.5481)"><g data-paper-data="{&quot;isPaintingLayer&quot;:true}" fill-rule="nonzero" stroke-linecap="butt" stroke-linejoin="miter" stroke-miterlimit="10" stroke-dasharray="" stroke-dashoffset="0" style="mix-blend-mode: normal"><g stroke-width="8"><path d="M304.45944,180.05644c0,-8.51269 6.90089,-15.41358 15.41358,-15.41358c8.51269,0 15.41358,6.90089 15.41358,15.41358c0,8.51269 -6.90089,15.41358 -15.41358,15.41358c-8.51269,0 -15.41358,-6.90089 -15.41358,-15.41358z" fill="url(#color-1)" stroke="url(#color-2)"/><path d="M309.13022,180.05644c0,-5.93309 4.80971,-10.7428 10.7428,-10.7428c5.93309,0 10.7428,4.80971 10.7428,10.7428c0,5.93309 -4.80971,10.7428 -10.7428,10.7428c-5.93309,0 -10.7428,-4.80971 -10.7428,-10.7428z" fill="none" stroke="url(#color-3)"/></g><g stroke-width="8"><path d="M300.85626,181.65785c0,-8.51269 6.90089,-15.41358 15.41358,-15.41358c8.51269,0 15.41358,6.90089 15.41358,15.41358c0,8.51269 -6.90089,15.41358 -15.41358,15.41358c-8.51269,0 -15.41358,-6.90089 -15.41358,-15.41358z" fill="url(#color-4)" stroke="url(#color-5)"/><path d="M305.52704,181.65785c0,-5.93308 4.80972,-10.7428 10.7428,-10.7428c5.93308,0 10.7428,4.80972 10.7428,10.7428c0,5.93308 -4.80972,10.7428 -10.7428,10.7428c-5.93308,0 -10.7428,-4.80972 -10.7428,-10.7428z" fill="none" stroke="url(#color-6)"/></g><text transform="translate(299.71244,162.23988) scale(0.20828,0.20828)" font-size="40" xml:space="preserve" fill="#00ff08" fill-rule="nonzero" stroke="#00ff09" stroke-width="2" stroke-linecap="butt" stroke-linejoin="miter" stroke-miterlimit="10" stroke-dasharray="" stroke-dashoffset="0" font-family="&quot;MV Boli&quot;, Technological" font-weight="normal" text-anchor="start" style="mix-blend-mode: normal"><tspan x="0" dy="0">Warp Gate</tspan></text></g></g></svg>