<svg version="1.1" xmlns="http://www.w3.org/2000/svg" xmlns:xlink="http://www.w3.org/1999/xlink" width="57.50589" height="57.50589" viewBox="0,0,57.50589,57.50589"><defs><linearGradient x1="320.00004" y1="173.12501" x2="320.00004" y2="186.87501" gradientUnits="userSpaceOnUse" id="color-1"><stop offset="0" stop-color="#5a5858"/><stop offset="1" stop-color="#3b2e58"/></linearGradient><radialGradient cx="316.66254" cy="178.81251" r="1.1875" gradientUnits="userSpaceOnUse" id="color-2"><stop offset="0" stop-color="#ffffff"/><stop offset="1" stop-color="#ffffff" stop-opacity="0"/></radialGradient><radialGradient cx="323.16254" cy="178.81251" r="1.1875" gradientUnits="userSpaceOnUse" id="color-3"><stop offset="0" stop-color="#ffffff"/><stop offset="1" stop-color="#ffffff" stop-opacity="0"/></radialGradient><radialGradient cx="320.00001" cy="180.00003" r="28.75294" gradientUnits="userSpaceOnUse" id="color-4"><stop offset="0" stop-color="#413659" stop-opacity="0.62745"/><stop offset="1" stop-color="#413659" stop-opacity="0"/></radialGradient></defs><g transform="translate(-291.24705,-151.24705)"><g data-paper-data="{&quot;isPaintingLayer&quot;:true}" fill-rule="nonzero" stroke="none" stroke-width="0" stroke-linecap="butt" stroke-linejoin="miter" stroke-miterlimit="10" stroke-dasharray="" stroke-dashoffset="0" style="mix-blend-mode: normal"><path d="M329.72887,176.4545c1.26727,-0.04539 3.68816,-1.1282 5.74581,-2.17227c0.30735,-0.15596 2.66155,-2.38533 5.41498,-5.04286c4.28857,-4.13921 1.89887,-11.98977 1.89887,-11.98977c0,0 6.19735,7.11446 2.45826,11.00468c-1.19897,1.24743 -2.70132,3.46434 -3.79397,4.59501c-2.24289,2.32094 -4.60466,3.16642 -4.86676,3.38143c-1.77938,1.45969 -5.0791,2.33622 -6.17165,2.70534c-1.70308,0.57539 -4.4189,1.49293 -4.4189,1.49293l-0.69753,-3.81584c0,0 2.69566,-0.09652 4.43089,-0.15866z" data-paper-data="{&quot;index&quot;:null}" fill="#413658"/><path d="M322.20938,177.71316l-0.69752,3.81584c0,0 -2.71583,-0.91754 -4.41891,-1.49293c-1.09255,-0.36912 -4.39228,-1.24565 -6.17165,-2.70534c-0.2621,-0.21501 -2.62386,-1.06048 -4.86676,-3.38143c-1.09265,-1.13067 -2.595,-3.34758 -3.79396,-4.59501c-3.73909,-3.89022 2.45826,-11.00469 2.45826,-11.00469c0,0 -2.38971,7.85056 1.89886,11.98977c2.75342,2.65753 5.10763,4.8869 5.41498,5.04285c2.05765,1.04407 4.47854,2.12688 5.74581,2.17227c1.73522,0.06214 4.43089,0.15867 4.43089,0.15867z" fill="#413658"/><path d="M326.68391,182.62694c-0.80196,-0.69788 -2.04778,-1.78203 -2.04778,-1.78203l1.80162,-1.54751c0,0 0.93922,1.48268 1.5282,2.41246c0.37784,0.59647 0.74598,2.05252 1.0307,3.43257c0.32344,1.56775 -0.12454,3.60758 -0.12454,3.60758c0,0 0.25804,-1.65179 -0.2901,-2.87623c-0.57723,-1.28942 -1.31241,-2.73717 -1.8981,-3.24685z" data-paper-data="{&quot;index&quot;:null}" fill="#413658"/><path d="M313.31618,182.00193c-0.58569,0.50968 -1.32087,1.95743 -1.8981,3.24685c-0.54814,1.22444 -0.2901,2.87623 -0.2901,2.87623c0,0 -0.44798,-2.03983 -0.12454,-3.60758c0.28472,-1.38005 0.65286,-2.8361 1.0307,-3.43257c0.58898,-0.92978 1.5282,-2.41246 1.5282,-2.41246l1.80162,1.54751c0,0 -1.24582,1.08415 -2.04778,1.78203z" data-paper-data="{&quot;index&quot;:null}" fill="#413658"/><path d="M326.4339,173.77177c0.58569,-0.50968 1.32087,-1.95743 1.8981,-3.24685c0.54814,-1.22444 0.2901,-2.87623 0.2901,-2.87623c0,0 0.44798,2.03983 0.12454,3.60759c-0.28472,1.38005 -0.65286,2.8361 -1.0307,3.43257c-0.58898,0.92978 -1.5282,2.41246 -1.5282,2.41246l-1.80162,-1.54751c0,0 1.24582,-1.08415 2.04778,-1.78203z" data-paper-data="{&quot;index&quot;:null}" fill="#413658"/><path d="M316.11309,174.97929l-1.80162,1.54751c0,0 -0.93922,-1.48268 -1.5282,-2.41246c-0.37784,-0.59647 -0.74599,-2.05252 -1.0307,-3.43257c-0.32344,-1.56776 0.12454,-3.60758 0.12454,-3.60758c0,0 -0.25804,1.65179 0.2901,2.87623c0.57723,1.28941 1.31242,2.73716 1.8981,3.24684c0.80195,0.69788 2.04778,1.78203 2.04778,1.78203z" fill="#413658"/><path d="M313.12504,180.00001c0,-3.79696 3.07804,-6.875 6.875,-6.875c3.79696,0 6.875,3.07804 6.875,6.875c0,3.79696 -3.07804,6.875 -6.875,6.875c-3.79696,0 -6.875,-3.07804 -6.875,-6.875z" fill="url(#color-1)"/><path d="M315.47504,178.81251c0,-0.65584 0.53166,-1.1875 1.1875,-1.1875c0.65584,0 1.1875,0.53166 1.1875,1.1875c0,0.65584 -0.53166,1.1875 -1.1875,1.1875c-0.65584,0 -1.1875,-0.53166 -1.1875,-1.1875z" fill="url(#color-2)"/><path d="M321.97504,178.81251c0,-0.65584 0.53166,-1.1875 1.1875,-1.1875c0.65584,0 1.1875,0.53166 1.1875,1.1875c0,0.65584 -0.53166,1.1875 -1.1875,1.1875c-0.65584,0 -1.1875,-0.53166 -1.1875,-1.1875z" fill="url(#color-3)"/><path d="M320.00001,151.24705c15.87981,0 28.75294,12.87312 28.75294,28.75295c0,15.87983 -12.8731,28.75294 -28.75294,28.75294c-15.87981,0 -28.75295,-12.8731 -28.75295,-28.75294c0,-15.87981 12.87312,-28.75295 28.75295,-28.75295z" fill="url(#color-4)"/><path d="M324.13655,184.52038l1.80162,-1.54751c0,0 0.93922,1.48268 1.5282,2.41246c0.37784,0.59647 0.74599,2.05251 1.0307,3.43257c0.32344,1.56776 -0.12454,3.60759 -0.12454,3.60759c0,0 0.25804,-1.65179 -0.2901,-2.87623c-0.57723,-1.28941 -1.31242,-2.73716 -1.8981,-3.24684c-0.80196,-0.69788 -2.04778,-1.78203 -2.04778,-1.78203z" data-paper-data="{&quot;index&quot;:null}" fill="#413658"/><path d="M313.81574,186.87693c-0.58569,0.50968 -1.32087,1.95743 -1.8981,3.24685c-0.54814,1.22444 -0.2901,2.87623 -0.2901,2.87623c0,0 -0.44798,-2.03983 -0.12454,-3.60758c0.28472,-1.38005 0.65286,-2.8361 1.0307,-3.43257c0.58898,-0.92978 1.5282,-2.41246 1.5282,-2.41246l1.80162,1.54751c0,0 -1.24582,1.08415 -2.04778,1.78203z" data-paper-data="{&quot;index&quot;:null}" fill="#413658"/></g></g></svg>