<svg version="1.1" xmlns="http://www.w3.org/2000/svg" xmlns:xlink="http://www.w3.org/1999/xlink" width="140.40177" height="156.06417" viewBox="0,0,140.40177,156.06417"><defs><radialGradient cx="374.50002" cy="-1720.49999" r="3.78571" gradientUnits="userSpaceOnUse" id="color-1"><stop offset="0" stop-color="#2d7002" stop-opacity="0.46175"/><stop offset="1" stop-color="#2d7002" stop-opacity="0"/></radialGradient><radialGradient cx="269.65236" cy="174.75" r="19.25" gradientUnits="userSpaceOnUse" id="color-2"><stop offset="0" stop-color="#205069"/><stop offset="1" stop-color="#205069" stop-opacity="0"/></radialGradient><radialGradient cx="269.65237" cy="167.22536" r="5.58052" gradientUnits="userSpaceOnUse" id="color-3"><stop offset="0" stop-color="#2c7da8"/><stop offset="1" stop-color="#49a2d1"/></radialGradient><radialGradient cx="269.65234" cy="182.27464" r="5.58052" gradientUnits="userSpaceOnUse" id="color-4"><stop offset="0" stop-color="#2c7da8"/><stop offset="1" stop-color="#49a2d1"/></radialGradient><radialGradient cx="264.81521" cy="174.86028" r="5.58052" gradientUnits="userSpaceOnUse" id="color-5"><stop offset="0" stop-color="#2c7da8"/><stop offset="1" stop-color="#49a2d1"/></radialGradient><radialGradient cx="274.4895" cy="174.86031" r="5.58052" gradientUnits="userSpaceOnUse" id="color-6"><stop offset="0" stop-color="#2c7da8"/><stop offset="1" stop-color="#49a2d1"/></radialGradient><radialGradient cx="269.65237" cy="174.75001" r="5.58051" gradientUnits="userSpaceOnUse" id="color-7"><stop offset="0" stop-color="#a1deff"/><stop offset="1" stop-color="#00a5ff"/></radialGradient><radialGradient cx="371.55413" cy="180" r="19.25" gradientUnits="userSpaceOnUse" id="color-8"><stop offset="0" stop-color="#205069"/><stop offset="1" stop-color="#205069" stop-opacity="0"/></radialGradient><radialGradient cx="371.55414" cy="172.47536" r="5.58052" gradientUnits="userSpaceOnUse" id="color-9"><stop offset="0" stop-color="#2c7da8"/><stop offset="1" stop-color="#49a2d1"/></radialGradient><radialGradient cx="371.55411" cy="187.52464" r="5.58052" gradientUnits="userSpaceOnUse" id="color-10"><stop offset="0" stop-color="#2c7da8"/><stop offset="1" stop-color="#49a2d1"/></radialGradient><radialGradient cx="366.71698" cy="180.11028" r="5.58052" gradientUnits="userSpaceOnUse" id="color-11"><stop offset="0" stop-color="#2c7da8"/><stop offset="1" stop-color="#49a2d1"/></radialGradient><radialGradient cx="376.39127" cy="180.11031" r="5.58052" gradientUnits="userSpaceOnUse" id="color-12"><stop offset="0" stop-color="#2c7da8"/><stop offset="1" stop-color="#49a2d1"/></radialGradient><radialGradient cx="371.55414" cy="180.00001" r="5.58051" gradientUnits="userSpaceOnUse" id="color-13"><stop offset="0" stop-color="#a1deff"/><stop offset="1" stop-color="#00a5ff"/></radialGradient><radialGradient cx="320" cy="120.16339" r="19.25" gradientUnits="userSpaceOnUse" id="color-14"><stop offset="0" stop-color="#205069"/><stop offset="1" stop-color="#205069" stop-opacity="0"/></radialGradient><radialGradient cx="320.00001" cy="112.63875" r="5.58052" gradientUnits="userSpaceOnUse" id="color-15"><stop offset="0" stop-color="#2c7da8"/><stop offset="1" stop-color="#49a2d1"/></radialGradient><radialGradient cx="319.99998" cy="127.68803" r="5.58052" gradientUnits="userSpaceOnUse" id="color-16"><stop offset="0" stop-color="#2c7da8"/><stop offset="1" stop-color="#49a2d1"/></radialGradient><radialGradient cx="315.16285" cy="120.27367" r="5.58052" gradientUnits="userSpaceOnUse" id="color-17"><stop offset="0" stop-color="#2c7da8"/><stop offset="1" stop-color="#49a2d1"/></radialGradient><radialGradient cx="324.83714" cy="120.2737" r="5.58052" gradientUnits="userSpaceOnUse" id="color-18"><stop offset="0" stop-color="#2c7da8"/><stop offset="1" stop-color="#49a2d1"/></radialGradient><radialGradient cx="320.00001" cy="120.1634" r="5.58051" gradientUnits="userSpaceOnUse" id="color-19"><stop offset="0" stop-color="#a1deff"/><stop offset="1" stop-color="#00a5ff"/></radialGradient><radialGradient cx="442.86812" cy="5233.9796" r="3.78571" gradientUnits="userSpaceOnUse" id="color-20"><stop offset="0" stop-color="#2d7002" stop-opacity="0.46175"/><stop offset="1" stop-color="#2d7002" stop-opacity="0"/></radialGradient><radialGradient cx="320" cy="237.72756" r="19.25" gradientUnits="userSpaceOnUse" id="color-21"><stop offset="0" stop-color="#205069"/><stop offset="1" stop-color="#205069" stop-opacity="0"/></radialGradient><radialGradient cx="320.00001" cy="245.2522" r="5.58052" gradientUnits="userSpaceOnUse" id="color-22"><stop offset="0" stop-color="#2c7da8"/><stop offset="1" stop-color="#49a2d1"/></radialGradient><radialGradient cx="319.99998" cy="230.20292" r="5.58052" gradientUnits="userSpaceOnUse" id="color-23"><stop offset="0" stop-color="#2c7da8"/><stop offset="1" stop-color="#49a2d1"/></radialGradient><radialGradient cx="315.16285" cy="237.61728" r="5.58052" gradientUnits="userSpaceOnUse" id="color-24"><stop offset="0" stop-color="#2c7da8"/><stop offset="1" stop-color="#49a2d1"/></radialGradient><radialGradient cx="324.83714" cy="237.61725" r="5.58052" gradientUnits="userSpaceOnUse" id="color-25"><stop offset="0" stop-color="#2c7da8"/><stop offset="1" stop-color="#49a2d1"/></radialGradient><radialGradient cx="320.00001" cy="237.72755" r="5.58051" gradientUnits="userSpaceOnUse" id="color-26"><stop offset="0" stop-color="#a1deff"/><stop offset="1" stop-color="#00a5ff"/></radialGradient></defs><g transform="translate(-250.40236,-100.91339)"><g data-paper-data="{&quot;isPaintingLayer&quot;:true}" fill-rule="nonzero" stroke-linejoin="miter" stroke-miterlimit="10" stroke-dasharray="" stroke-dashoffset="0" style="mix-blend-mode: normal"><path d="" fill="#494949" stroke="#6e6e6e" stroke-width="1" stroke-linecap="butt"/><g><path d="" fill="none" stroke="#ffffff" stroke-width="2.5" stroke-linecap="round"/><path d="" fill="url(#color-1)" stroke="none" stroke-width="0" stroke-linecap="butt"/></g><g stroke-linecap="butt"><path d="M250.40236,174.75c0,-10.63148 8.61852,-19.25 19.25,-19.25c10.63148,0 19.25,8.61852 19.25,19.25c0,10.63148 -8.61852,19.25 -19.25,19.25c-10.63148,0 -19.25,-8.61852 -19.25,-19.25z" fill="url(#color-2)" stroke="#6e6e6e" stroke-width="0"/><g stroke-width="0.5"><path d="M264.23085,172.92718c1.24437,-3.35279 3.83883,-10.34326 4.60198,-12.39945c0.41248,-1.11135 1.33146,-1.10009 1.74666,0.0186c0.73393,1.97749 3.14935,8.48554 4.44044,11.96421c0.49984,1.34674 0.09975,2.23945 -0.99025,2.23945c-2.732,0 -7.71674,0 -9.08436,0c-0.6833,0 -1.12688,-0.71162 -0.71447,-1.82282z" fill="url(#color-3)" stroke="#6fc5f2"/><path d="M275.07387,176.57282c-1.24437,3.35279 -3.83883,10.34326 -4.60198,12.39945c-0.41248,1.11135 -1.33146,1.10009 -1.74666,-0.0186c-0.73393,-1.97749 -3.14935,-8.48554 -4.44044,-11.96421c-0.49984,-1.34674 -0.09975,-2.23945 0.99025,-2.23945c2.732,0 7.71674,0 9.08436,0c0.6833,0 1.12688,0.71162 0.71447,1.82282z" fill="url(#color-4)" stroke="#6fc5f2"/><path d="M268.48058,183.29398c-2.15531,-1.93574 -6.64906,-5.97167 -7.97086,-7.15883c-0.71442,-0.64165 -0.70718,-2.07122 0.01196,-2.7171c1.27121,-1.1417 5.45484,-4.89912 7.69107,-6.90754c0.86574,-0.77755 1.43961,-0.15517 1.43961,1.54043c0,4.24989 0,12.00414 0,14.13161c0,1.06294 -0.45746,1.75297 -1.17178,1.11143z" fill="url(#color-5)" stroke="#6fc5f2"/><path d="M270.82414,166.42662c2.15531,1.93574 6.64906,5.97167 7.97086,7.15883c0.71442,0.64165 0.70718,2.07122 -0.01196,2.7171c-1.27121,1.1417 -5.45484,4.89912 -7.69107,6.90754c-0.86574,0.77755 -1.43961,0.15517 -1.43961,-1.54043c0,-4.24989 0,-12.00414 0,-14.13161c0,-1.06294 0.45746,-1.75297 1.17178,-1.11143z" fill="url(#color-6)" stroke="#6fc5f2"/><path d="M264.07185,174.75001c0,-3.08203 2.49849,-5.58052 5.58052,-5.58052c3.08203,0 5.58051,2.49849 5.58051,5.58052c0,3.08203 -2.49849,5.58051 -5.58051,5.58051c-3.08203,0 -5.58052,-2.49848 -5.58052,-5.58051z" fill="url(#color-7)" stroke="#72a2bb"/></g></g><g stroke-linecap="butt"><path d="M352.30413,180c0,-10.63148 8.61852,-19.25 19.25,-19.25c10.63148,0 19.25,8.61852 19.25,19.25c0,10.63148 -8.61852,19.25 -19.25,19.25c-10.63148,0 -19.25,-8.61852 -19.25,-19.25z" fill="url(#color-8)" stroke="#6e6e6e" stroke-width="0"/><g stroke-width="0.5"><path d="M366.13262,178.17718c1.24437,-3.35279 3.83883,-10.34326 4.60198,-12.39945c0.41248,-1.11135 1.33146,-1.10009 1.74666,0.0186c0.73393,1.97749 3.14935,8.48554 4.44044,11.96421c0.49984,1.34674 0.09975,2.23945 -0.99025,2.23945c-2.732,0 -7.71674,0 -9.08436,0c-0.6833,0 -1.12688,-0.71162 -0.71447,-1.82282z" fill="url(#color-9)" stroke="#6fc5f2"/><path d="M376.97564,181.82282c-1.24437,3.35279 -3.83883,10.34326 -4.60198,12.39945c-0.41248,1.11135 -1.33146,1.10009 -1.74666,-0.0186c-0.73393,-1.97749 -3.14935,-8.48554 -4.44044,-11.96421c-0.49984,-1.34674 -0.09975,-2.23945 0.99025,-2.23945c2.732,0 7.71674,0 9.08436,0c0.6833,0 1.12688,0.71162 0.71447,1.82282z" fill="url(#color-10)" stroke="#6fc5f2"/><path d="M370.38235,188.54398c-2.15531,-1.93574 -6.64906,-5.97167 -7.97086,-7.15883c-0.71442,-0.64165 -0.70718,-2.07122 0.01196,-2.7171c1.27121,-1.1417 5.45484,-4.89912 7.69107,-6.90754c0.86574,-0.77755 1.43961,-0.15517 1.43961,1.54043c0,4.24989 0,12.00414 0,14.13161c0,1.06294 -0.45746,1.75297 -1.17178,1.11143z" fill="url(#color-11)" stroke="#6fc5f2"/><path d="M372.72591,171.67662c2.15531,1.93574 6.64906,5.97167 7.97086,7.15883c0.71442,0.64165 0.70718,2.07122 -0.01196,2.7171c-1.27121,1.1417 -5.45484,4.89912 -7.69107,6.90754c-0.86574,0.77755 -1.43961,0.15517 -1.43961,-1.54043c0,-4.24989 0,-12.00414 0,-14.13161c0,-1.06294 0.45746,-1.75297 1.17178,-1.11143z" fill="url(#color-12)" stroke="#6fc5f2"/><path d="M365.97362,180.00001c0,-3.08203 2.49849,-5.58052 5.58052,-5.58052c3.08203,0 5.58051,2.49849 5.58051,5.58052c0,3.08203 -2.49849,5.58051 -5.58051,5.58051c-3.08203,0 -5.58052,-2.49848 -5.58052,-5.58051z" fill="url(#color-13)" stroke="#72a2bb"/></g></g><g stroke-linecap="butt"><path d="M300.75,120.16339c0,-10.63148 8.61852,-19.25 19.25,-19.25c10.63148,0 19.25,8.61852 19.25,19.25c0,10.63148 -8.61852,19.25 -19.25,19.25c-10.63148,0 -19.25,-8.61852 -19.25,-19.25z" fill="url(#color-14)" stroke="#6e6e6e" stroke-width="0"/><g stroke-width="0.5"><path d="M314.57849,118.34057c1.24437,-3.35279 3.83883,-10.34326 4.60198,-12.39945c0.41248,-1.11135 1.33146,-1.10009 1.74666,0.0186c0.73393,1.97749 3.14935,8.48554 4.44044,11.96421c0.49984,1.34674 0.09975,2.23945 -0.99025,2.23945c-2.732,0 -7.71674,0 -9.08436,0c-0.6833,0 -1.12688,-0.71162 -0.71447,-1.82282z" fill="url(#color-15)" stroke="#6fc5f2"/><path d="M325.42151,121.98621c-1.24437,3.35279 -3.83883,10.34326 -4.60198,12.39945c-0.41248,1.11135 -1.33146,1.10009 -1.74666,-0.0186c-0.73393,-1.97749 -3.14935,-8.48554 -4.44044,-11.96421c-0.49984,-1.34674 -0.09975,-2.23945 0.99025,-2.23945c2.732,0 7.71674,0 9.08436,0c0.6833,0 1.12688,0.71162 0.71447,1.82282z" fill="url(#color-16)" stroke="#6fc5f2"/><path d="M318.82822,128.70737c-2.15531,-1.93574 -6.64906,-5.97167 -7.97086,-7.15883c-0.71442,-0.64165 -0.70718,-2.07122 0.01196,-2.7171c1.27121,-1.1417 5.45484,-4.89912 7.69107,-6.90754c0.86574,-0.77755 1.43961,-0.15517 1.43961,1.54043c0,4.24989 0,12.00414 0,14.13161c0,1.06294 -0.45746,1.75297 -1.17178,1.11143z" fill="url(#color-17)" stroke="#6fc5f2"/><path d="M321.17178,111.84001c2.15531,1.93574 6.64906,5.97167 7.97086,7.15883c0.71442,0.64165 0.70718,2.07122 -0.01196,2.7171c-1.27121,1.1417 -5.45484,4.89912 -7.69107,6.90754c-0.86574,0.77755 -1.43961,0.15517 -1.43961,-1.54043c0,-4.24989 0,-12.00414 0,-14.13161c0,-1.06294 0.45746,-1.75297 1.17178,-1.11143z" fill="url(#color-18)" stroke="#6fc5f2"/><path d="M314.41949,120.1634c0,-3.08203 2.49849,-5.58052 5.58052,-5.58052c3.08203,0 5.58051,2.49849 5.58051,5.58052c0,3.08203 -2.49849,5.58051 -5.58051,5.58051c-3.08203,0 -5.58052,-2.49848 -5.58052,-5.58051z" fill="url(#color-19)" stroke="#72a2bb"/></g></g><path d="" data-paper-data="{&quot;index&quot;:null}" fill="#494949" stroke="#6e6e6e" stroke-width="1" stroke-linecap="butt"/><g data-paper-data="{&quot;index&quot;:null}"><path d="" fill="none" stroke="#ffffff" stroke-width="2.5" stroke-linecap="round"/><path d="" fill="url(#color-20)" stroke="none" stroke-width="0" stroke-linecap="butt"/></g><g data-paper-data="{&quot;index&quot;:null}" stroke-linecap="butt"><path d="M320,218.47756c10.63148,0 19.25,8.61852 19.25,19.25c0,10.63148 -8.61852,19.25 -19.25,19.25c-10.63148,0 -19.25,-8.61852 -19.25,-19.25c0,-10.63148 8.61852,-19.25 19.25,-19.25z" fill="url(#color-21)" stroke="#6e6e6e" stroke-width="0"/><g stroke-width="0.5"><path d="M314.57849,239.55039c-0.41241,-1.1112 0.03117,-1.82282 0.71447,-1.82282c1.36762,0 6.35236,0 9.08436,0c1.09,0 1.49009,0.89271 0.99025,2.23945c-1.29109,3.47867 -3.70651,9.98672 -4.44044,11.96421c-0.4152,1.11869 -1.33418,1.12995 -1.74666,0.0186c-0.76315,-2.05619 -3.35761,-9.04666 -4.60198,-12.39945z" fill="url(#color-22)" stroke="#6fc5f2"/><path d="M325.42151,235.90473c0.41241,1.1112 -0.03117,1.82282 -0.71447,1.82282c-1.36762,0 -6.35236,0 -9.08436,0c-1.09,0 -1.49009,-0.89271 -0.99025,-2.23945c1.29109,-3.47867 3.70651,-9.98672 4.44044,-11.96421c0.4152,-1.11869 1.33418,-1.12995 1.74666,-0.0186c0.76315,2.05619 3.35761,9.04666 4.60198,12.39945z" fill="url(#color-23)" stroke="#6fc5f2"/><path d="M320,230.29501c0,2.12747 0,9.88172 0,14.13161c0,1.6956 -0.57387,2.31798 -1.43961,1.54043c-2.23623,-2.00842 -6.41986,-5.76584 -7.69107,-6.90754c-0.71914,-0.64588 -0.72638,-2.07545 -0.01196,-2.7171c1.3218,-1.18716 5.81555,-5.22309 7.97086,-7.15883c0.71432,-0.64154 1.17178,0.04849 1.17178,1.11143z" fill="url(#color-24)" stroke="#6fc5f2"/><path d="M320,244.93951c0,-2.12747 0,-9.88172 0,-14.13161c0,-1.6956 0.57387,-2.31798 1.43961,-1.54043c2.23623,2.00842 6.41986,5.76584 7.69107,6.90754c0.71914,0.64588 0.72638,2.07545 0.01196,2.7171c-1.3218,1.18716 -5.81555,5.22309 -7.97086,7.15883c-0.71432,0.64154 -1.17178,-0.04849 -1.17178,-1.11143z" fill="url(#color-25)" stroke="#6fc5f2"/><path d="M320.00001,232.14704c3.08202,0 5.58051,2.49848 5.58051,5.58051c0,3.08203 -2.49848,5.58052 -5.58051,5.58052c-3.08203,0 -5.58052,-2.49849 -5.58052,-5.58052c0,-3.08203 2.49849,-5.58051 5.58052,-5.58051z" fill="url(#color-26)" stroke="#72a2bb"/></g></g></g></g></svg>