<svg version="1.1" xmlns="http://www.w3.org/2000/svg" xmlns:xlink="http://www.w3.org/1999/xlink" width="43.57638" height="49.49923" viewBox="0,0,43.57638,49.49923"><defs><radialGradient cx="320.00492" cy="180" r="17.63793" gradientUnits="userSpaceOnUse" id="color-1"><stop offset="0" stop-color="#4200ff"/><stop offset="1" stop-color="#4200ff" stop-opacity="0"/></radialGradient><radialGradient cx="320.00492" cy="180" r="17.63793" gradientUnits="userSpaceOnUse" id="color-2"><stop offset="0" stop-color="#ff0000"/><stop offset="1" stop-color="#ff0000" stop-opacity="0"/></radialGradient><radialGradient cx="320.00492" cy="180" r="12.2931" gradientUnits="userSpaceOnUse" id="color-3"><stop offset="0" stop-color="#ff0000"/><stop offset="1" stop-color="#ff0000" stop-opacity="0"/></radialGradient><radialGradient cx="319.85221" cy="180" r="17.63793" gradientUnits="userSpaceOnUse" id="color-4"><stop offset="0" stop-color="#4200ff"/><stop offset="1" stop-color="#4200ff" stop-opacity="0"/></radialGradient><radialGradient cx="319.85221" cy="180" r="17.63793" gradientUnits="userSpaceOnUse" id="color-5"><stop offset="0" stop-color="#ff0000"/><stop offset="1" stop-color="#ff0000" stop-opacity="0"/></radialGradient><radialGradient cx="319.85221" cy="180" r="12.2931" gradientUnits="userSpaceOnUse" id="color-6"><stop offset="0" stop-color="#ff0000"/><stop offset="1" stop-color="#ff0000" stop-opacity="0"/></radialGradient></defs><g transform="translate(-298.21428,-152.1387)"><g data-paper-data="{&quot;isPaintingLayer&quot;:true}" fill-rule="nonzero" stroke-linecap="butt" stroke-linejoin="miter" stroke-miterlimit="10" stroke-dasharray="" stroke-dashoffset="0" style="mix-blend-mode: normal"><g stroke-width="8"><path d="M302.36699,180c0,-9.74116 7.89677,-17.63793 17.63793,-17.63793c9.74116,0 17.63793,7.89677 17.63793,17.63793c0,9.74116 -7.89677,17.63793 -17.63793,17.63793c-9.74116,0 -17.63793,-7.89677 -17.63793,-17.63793z" fill="url(#color-1)" stroke="url(#color-2)"/><path d="M307.71182,180c0,-6.7893 5.5038,-12.2931 12.2931,-12.2931c6.7893,0 12.2931,5.5038 12.2931,12.2931c0,6.7893 -5.5038,12.2931 -12.2931,12.2931c-6.7893,0 -12.2931,-5.5038 -12.2931,-12.2931z" fill="none" stroke="url(#color-3)"/></g><g stroke-width="8"><path d="M302.21428,180c0,-9.74116 7.89677,-17.63793 17.63793,-17.63793c9.74116,0 17.63793,7.89677 17.63793,17.63793c0,9.74116 -7.89677,17.63793 -17.63793,17.63793c-9.74116,0 -17.63793,-7.89677 -17.63793,-17.63793z" fill="url(#color-4)" stroke="url(#color-5)"/><path d="M307.55911,180c0,-6.78929 5.50381,-12.2931 12.2931,-12.2931c6.78929,0 12.2931,5.50381 12.2931,12.2931c0,6.78929 -5.50381,12.2931 -12.2931,12.2931c-6.78929,0 -12.2931,-5.50381 -12.2931,-12.2931z" fill="none" stroke="url(#color-6)"/></g><text transform="translate(298.85962,161.83072) scale(0.20828,0.20828)" font-size="40" xml:space="preserve" fill="#00ff08" fill-rule="nonzero" stroke="#00ff09" stroke-width="2" stroke-linecap="butt" stroke-linejoin="miter" stroke-miterlimit="10" stroke-dasharray="" stroke-dashoffset="0" font-family="&quot;MV Boli&quot;, Technological" font-weight="normal" text-anchor="start" style="mix-blend-mode: normal"><tspan x="0" dy="0">Warp Gate</tspan></text></g></g></svg>