<svg version="1.1" xmlns="http://www.w3.org/2000/svg" xmlns:xlink="http://www.w3.org/1999/xlink" width="37.43742" height="57.85305" viewBox="0,0,37.43742,57.85305"><defs><radialGradient cx="320.00001" cy="180.00001" r="18.71871" gradientUnits="userSpaceOnUse" id="color-1"><stop offset="0" stop-color="#ff5301"/><stop offset="1" stop-color="#ff5301" stop-opacity="0"/></radialGradient><radialGradient cx="320.00001" cy="178.16419" r="10.23032" gradientUnits="userSpaceOnUse" id="color-2"><stop offset="0" stop-color="#ff5200"/><stop offset="1" stop-color="#ff8045"/></radialGradient><radialGradient cx="324.27982" cy="184.54947" r="5.40902" gradientUnits="userSpaceOnUse" id="color-3"><stop offset="0" stop-color="#46a400"/><stop offset="1" stop-color="#46a400" stop-opacity="0"/></radialGradient><radialGradient cx="315.5612" cy="184.54947" r="5.40901" gradientUnits="userSpaceOnUse" id="color-4"><stop offset="0" stop-color="#46a400"/><stop offset="1" stop-color="#46a400" stop-opacity="0"/></radialGradient><radialGradient cx="319.83062" cy="160.00693" r="15.96574" gradientUnits="userSpaceOnUse" id="color-5"><stop offset="0" stop-color="#00ff19" stop-opacity="0.50196"/><stop offset="1" stop-color="#00ff19" stop-opacity="0"/></radialGradient><radialGradient cx="319.83062" cy="156.83142" r="15.96574" gradientUnits="userSpaceOnUse" id="color-6"><stop offset="0" stop-color="#00ff19" stop-opacity="0.50196"/><stop offset="1" stop-color="#00ff19" stop-opacity="0"/></radialGradient></defs><g transform="translate(-301.2813,-140.86568)"><g data-paper-data="{&quot;isPaintingLayer&quot;:true}" fill-rule="nonzero" stroke-linecap="butt" stroke-linejoin="miter" stroke-miterlimit="10" stroke-dasharray="" stroke-dashoffset="0" style="mix-blend-mode: normal"><g><path d="M301.2813,180.00001c0,-10.33805 8.38065,-18.7187 18.71871,-18.7187c10.33805,0 18.71871,8.38065 18.71871,18.71871c0,10.33805 -8.38065,18.71871 -18.7187,18.71871c-10.33805,0 -18.7187,-8.38065 -18.7187,-18.7187z" fill="url(#color-1)" stroke="#6e6e6e" stroke-width="0"/><path d="M310.36204,184.92158c1.38959,-2.67642 5.73288,-11.04174 8.09234,-15.58616c0.93854,-1.80766 2.1535,-1.87376 3.04458,-0.1575c2.28006,4.39148 6.52925,12.57561 7.8967,15.20937c1.22431,2.35806 0.52098,4.00722 -1.73773,4.00722c-4.95664,0 -13.28009,0 -15.87758,0c-1.5292,0 -2.25768,-1.85628 -1.41832,-3.47293z" fill="url(#color-2)" stroke="#ff5301" stroke-width="1.5"/><text transform="translate(314.6433,180.03377) scale(0.16204,0.16204)" font-size="40" xml:space="preserve" fill="#46a400" fill-rule="nonzero" stroke="none" stroke-width="1" stroke-linecap="butt" stroke-linejoin="miter" stroke-miterlimit="10" stroke-dasharray="" stroke-dashoffset="0" font-family="&quot;MV Boli&quot;, Technological" font-weight="normal" text-anchor="start" style="mix-blend-mode: normal"><tspan x="0" dy="0">XP</tspan></text><path d="M314.03683,186.56575c0,-0.31289 0,-1.06964 0,-1.55804c0,-0.26034 -0.60767,-0.44443 -0.95683,-0.44443c-0.18466,0 -0.47541,0 -0.74418,0c-0.34583,0 -0.24664,-0.29889 0.08713,-0.54304c0.47659,-0.34863 1.80967,-1.3238 2.59179,-1.89594c0.35236,-0.25776 0.78204,-0.29535 1.07032,-0.08447c0.75208,0.55016 2.17884,1.59385 2.68162,1.96164c0.17507,0.12807 0.41132,0.56181 0.0358,0.56181c-0.24599,0 -0.50007,0 -0.6672,0c-0.34916,0 -0.95682,0.20155 -0.95682,0.48198c0,0.50069 0,1.25279 0,1.55804c0,0.2566 -0.37608,0.59229 -0.83947,0.59229c-0.55203,0 -1.22799,0 -1.53969,0c-0.32458,0 -0.76248,-0.36082 -0.76248,-0.62984z" fill="#46a400" stroke="none" stroke-width="0"/><path d="M322.75543,186.56576c0,-0.31289 0,-1.06964 0,-1.55804c0,-0.26033 -0.60765,-0.44443 -0.95682,-0.44443c-0.18466,0 -0.47542,0 -0.74419,0c-0.34583,0 -0.24663,-0.29889 0.08713,-0.54305c0.47659,-0.34863 1.80968,-1.3238 2.5918,-1.89594c0.35236,-0.25776 0.78204,-0.29535 1.07031,-0.08447c0.75208,0.55016 2.17884,1.59385 2.68161,1.96164c0.17507,0.12807 0.41132,0.56181 0.03581,0.56181c-0.246,0 -0.50006,0 -0.66719,0c-0.34916,0 -0.95683,0.20156 -0.95683,0.48198c0,0.50069 0,1.25279 0,1.55804c0,0.2566 -0.37607,0.59229 -0.83946,0.59229c-0.55203,0 -1.228,0 -1.53969,0c-0.32457,0 -0.76249,-0.36082 -0.76249,-0.62983z" fill="#46a400" stroke="none" stroke-width="0"/><path d="M318.87081,184.54947c0,-2.98731 2.42169,-5.40902 5.40901,-5.40902c2.98732,0 5.40902,2.4217 5.40902,5.40902c0,2.98731 -2.4217,5.40901 -5.40902,5.40901c-2.98732,0 -5.40901,-2.42169 -5.40901,-5.40901z" fill="url(#color-3)" stroke="#6e6e6e" stroke-width="0"/><path d="M310.15219,184.54947c0,-2.98731 2.4217,-5.40902 5.40901,-5.40902c2.98732,0 5.40901,2.4217 5.40901,5.40902c0,2.98731 -2.42169,5.40901 -5.40901,5.40901c-2.98732,0 -5.40901,-2.42169 -5.40901,-5.40901z" fill="url(#color-4)" stroke="#6e6e6e" stroke-width="0"/></g><g stroke="#ffffff"><g><path d="M303.86488,160.00693c0,-8.81764 7.14811,-15.96574 15.96574,-15.96574c8.81764,0 15.96574,7.14811 15.96574,15.96574c0,8.81764 -7.14811,15.96574 -15.96574,15.96574c-8.81764,0 -15.96574,-7.14811 -15.96574,-15.96574z" fill="url(#color-5)" stroke-width="0"/><path d="M311.55026,162.28139c1.17457,-0.78149 5.56684,-3.70387 7.49924,-4.98959c0.56702,-0.37726 1.18607,-0.43808 1.62097,-0.14872c1.74148,1.15869 6.22614,4.14253 7.49924,4.98959c0.65339,0.43473 0.35983,0.91989 -0.64658,0.91989c-2.34931,0 -11.98115,0 -15.67792,0c-0.90474,0 -0.85855,-0.39617 -0.29495,-0.77117z" fill-opacity="0.50196" fill="#00ff19" stroke-width="1.5"/></g><g><path d="M303.86488,156.83142c0,-8.81764 7.14811,-15.96574 15.96574,-15.96574c8.81764,0 15.96574,7.14811 15.96574,15.96574c0,8.81764 -7.14811,15.96574 -15.96574,15.96574c-8.81764,0 -15.96574,-7.14811 -15.96574,-15.96574z" fill="url(#color-6)" stroke-width="0"/><path d="M311.55026,159.10588c1.17457,-0.78149 5.56684,-3.70387 7.49924,-4.98959c0.56702,-0.37726 1.18607,-0.43808 1.62097,-0.14872c1.74148,1.15869 6.22614,4.14253 7.49924,4.98959c0.65339,0.43473 0.35983,0.91989 -0.64658,0.91989c-2.34931,0 -11.98115,0 -15.67792,0c-0.90474,0 -0.85855,-0.39617 -0.29495,-0.77117z" fill-opacity="0.50196" fill="#00ff19" stroke-width="1.5"/></g></g></g></g></svg>