<svg version="1.1" xmlns="http://www.w3.org/2000/svg" xmlns:xlink="http://www.w3.org/1999/xlink" width="43.91514" height="40.86" viewBox="0,0,43.91514,40.86"><defs><radialGradient cx="315.38253" cy="173.26052" r="4.48949" gradientUnits="userSpaceOnUse" id="color-1"><stop offset="0" stop-color="#030303"/><stop offset="1" stop-color="#000000" stop-opacity="0.16078"/></radialGradient><radialGradient cx="315.38253" cy="173.26052" r="3.62745" gradientUnits="userSpaceOnUse" id="color-2"><stop offset="0" stop-color="#252525"/><stop offset="1" stop-color="#000000"/></radialGradient><radialGradient cx="315.38253" cy="173.26052" r="1.89929" gradientUnits="userSpaceOnUse" id="color-3"><stop offset="0" stop-color="#630000"/><stop offset="1" stop-color="#630000" stop-opacity="0"/></radialGradient><radialGradient cx="315.33565" cy="184.89468" r="2.52411" gradientUnits="userSpaceOnUse" id="color-4"><stop offset="0" stop-color="#030303"/><stop offset="1" stop-color="#000000" stop-opacity="0.16078"/></radialGradient><radialGradient cx="315.33565" cy="184.89468" r="2.03945" gradientUnits="userSpaceOnUse" id="color-5"><stop offset="0" stop-color="#252525"/><stop offset="1" stop-color="#000000"/></radialGradient><radialGradient cx="315.33565" cy="184.89468" r="1.06784" gradientUnits="userSpaceOnUse" id="color-6"><stop offset="0" stop-color="#630000"/><stop offset="1" stop-color="#630000" stop-opacity="0"/></radialGradient><radialGradient cx="324.47233" cy="174.47586" r="2.08508" gradientUnits="userSpaceOnUse" id="color-7"><stop offset="0" stop-color="#030303"/><stop offset="1" stop-color="#000000" stop-opacity="0.16078"/></radialGradient><radialGradient cx="324.47233" cy="174.47586" r="1.68472" gradientUnits="userSpaceOnUse" id="color-8"><stop offset="0" stop-color="#252525"/><stop offset="1" stop-color="#000000"/></radialGradient><radialGradient cx="324.47233" cy="174.47586" r="0.8821" gradientUnits="userSpaceOnUse" id="color-9"><stop offset="0" stop-color="#630000"/><stop offset="1" stop-color="#630000" stop-opacity="0"/></radialGradient><radialGradient cx="324.47233" cy="174.47586" r="2.52411" gradientUnits="userSpaceOnUse" id="color-10"><stop offset="0" stop-color="#030303"/><stop offset="1" stop-color="#000000" stop-opacity="0.16078"/></radialGradient><radialGradient cx="324.47233" cy="174.47586" r="2.03945" gradientUnits="userSpaceOnUse" id="color-11"><stop offset="0" stop-color="#252525"/><stop offset="1" stop-color="#000000"/></radialGradient><radialGradient cx="324.47233" cy="174.47586" r="1.06783" gradientUnits="userSpaceOnUse" id="color-12"><stop offset="0" stop-color="#630000"/><stop offset="1" stop-color="#630000" stop-opacity="0"/></radialGradient><radialGradient cx="320.20014" cy="180.64912" r="3.05352" gradientUnits="userSpaceOnUse" id="color-13"><stop offset="0" stop-color="#030303"/><stop offset="1" stop-color="#000000" stop-opacity="0.16078"/></radialGradient><radialGradient cx="320.20014" cy="180.64912" r="2.4672" gradientUnits="userSpaceOnUse" id="color-14"><stop offset="0" stop-color="#252525"/><stop offset="1" stop-color="#000000"/></radialGradient><radialGradient cx="320.20014" cy="180.64912" r="1.2918" gradientUnits="userSpaceOnUse" id="color-15"><stop offset="0" stop-color="#630000"/><stop offset="1" stop-color="#630000" stop-opacity="0"/></radialGradient><radialGradient cx="320" cy="180" r="20.43" gradientUnits="userSpaceOnUse" id="color-16"><stop offset="0" stop-color="#8f0000" stop-opacity="0.5098"/><stop offset="1" stop-color="#8f0000" stop-opacity="0"/></radialGradient></defs><g transform="translate(-299.57,-159.57)"><g stroke-width="0" stroke-miterlimit="10"><path d="M309.97727,181.1422c0,-5.5354 4.48733,-10.02273 10.02273,-10.02273c5.5354,0 10.02273,4.48733 10.02273,10.02273c0,5.5354 -4.48733,10.02273 -10.02273,10.02273c-5.5354,0 -10.02273,-4.48733 -10.02273,-10.02273z" fill="#630000" stroke="#000000"/><path d="M309.97727,181.1422c0,-5.5354 4.48733,-10.02273 10.02273,-10.02273c5.5354,0 10.02273,4.48733 10.02273,10.02273c0,5.5354 -4.48733,10.02273 -10.02273,10.02273c-5.5354,0 -10.02273,-4.48733 -10.02273,-10.02273z" fill="#630000" stroke="#000000"/><g stroke="#000000"><path d="M310.89304,173.26052c0,-2.47948 2.01001,-4.48949 4.48949,-4.48949c2.47947,0 4.48949,2.01001 4.48949,4.48949c0,2.47948 -2.01001,4.48949 -4.48949,4.48949c-2.47947,0 -4.48949,-2.01001 -4.48949,-4.48949z" fill="url(#color-1)"/><path d="M311.75508,173.26052c0,-2.00339 1.62406,-3.62745 3.62745,-3.62745c2.00339,0 3.62745,1.62406 3.62745,3.62745c0,2.00339 -1.62406,3.62745 -3.62745,3.62745c-2.00339,0 -3.62745,-1.62406 -3.62745,-3.62745z" fill="url(#color-2)"/><path d="M314.86835,173.26052c0,-0.51307 0.23021,-0.929 0.51419,-0.929c0.28398,0 0.51418,0.41593 0.51418,0.929c0,0.51307 -0.23021,0.929 -0.51418,0.929c-0.28398,0 -0.51419,-0.41593 -0.51419,-0.929z" fill="#630000"/><path d="M315.03786,173.26052c0,-0.19036 0.15432,-0.34468 0.34468,-0.34468c0.19036,0 0.34467,0.15432 0.34467,0.34468c0,0.19036 -0.15431,0.34468 -0.34467,0.34468c-0.19036,0 -0.34468,-0.15432 -0.34468,-0.34468z" fill="#000000"/><path d="M313.48325,173.26052c0,-1.04894 0.85033,-1.89929 1.89928,-1.89929c1.04894,0 1.89929,0.85034 1.89929,1.89929c0,1.04894 -0.85034,1.89929 -1.89929,1.89929c-1.04894,0 -1.89928,-0.85034 -1.89928,-1.89929z" fill="url(#color-3)"/></g><g stroke="#000000"><path d="M312.81155,184.89468c0,-1.39403 1.13008,-2.52411 2.52411,-2.52411c1.39403,0 2.52411,1.13008 2.52411,2.52411c0,1.39403 -1.13008,2.52411 -2.52411,2.52411c-1.39403,0 -2.52411,-1.13008 -2.52411,-2.52411z" fill="url(#color-4)"/><path d="M313.29621,184.89468c0,-1.12636 0.91309,-2.03945 2.03945,-2.03945c1.12636,0 2.03945,0.91309 2.03945,2.03945c0,1.12636 -0.91309,2.03946 -2.03945,2.03946c-1.12636,0 -2.03945,-0.9131 -2.03945,-2.03946z" fill="url(#color-5)"/><path d="M315.04657,184.89468c0,-0.28846 0.12943,-0.52231 0.2891,-0.52231c0.15966,0 0.28909,0.23384 0.28909,0.52231c0,0.28846 -0.12942,0.52231 -0.28909,0.52231c-0.15966,0 -0.2891,-0.23384 -0.2891,-0.52231z" fill="#630000"/><path d="M315.14187,184.89468c0,-0.10702 0.08676,-0.19379 0.19379,-0.19379c0.10702,0 0.19379,0.08676 0.19379,0.19379c0,0.10702 -0.08676,0.19379 -0.19379,0.19379c-0.10702,0 -0.19379,-0.08676 -0.19379,-0.19379z" fill="#000000"/><path d="M314.26783,184.89468c0,-0.58975 0.47808,-1.06783 1.06783,-1.06783c0.58975,0 1.06784,0.47808 1.06784,1.06783c0,0.58975 -0.47809,1.06783 -1.06784,1.06783c-0.58975,0 -1.06783,-0.47808 -1.06783,-1.06783z" fill="url(#color-6)"/></g><g stroke="#000000"><path d="M322.38726,174.47586c0,-1.15156 0.93351,-2.08508 2.08507,-2.08508c1.15156,0 2.08508,0.93352 2.08508,2.08508c0,1.15156 -0.93352,2.08508 -2.08508,2.08508c-1.15156,0 -2.08507,-0.93352 -2.08507,-2.08508z" fill="url(#color-7)"/><path d="M322.78762,174.47586c0,-0.93044 0.75427,-1.68472 1.68471,-1.68472c0.93045,0 1.68472,0.75428 1.68472,1.68472c0,0.93044 -0.75428,1.68472 -1.68472,1.68472c-0.93045,0 -1.68471,-0.75428 -1.68471,-1.68472z" fill="url(#color-8)"/><path d="M324.23352,174.47586c0,-0.23829 0.10692,-0.43146 0.23881,-0.43146c0.13189,0 0.23881,0.19317 0.23881,0.43146c0,0.23829 -0.10692,0.43146 -0.23881,0.43146c-0.13189,0 -0.23881,-0.19317 -0.23881,-0.43146z" fill="#630000"/><path d="M324.31225,174.47586c0,-0.08841 0.07167,-0.16008 0.16008,-0.16008c0.08841,0 0.16008,0.07167 0.16008,0.16008c0,0.08841 -0.07167,0.16008 -0.16008,0.16008c-0.08841,0 -0.16008,-0.07167 -0.16008,-0.16008z" fill="#000000"/><path d="M323.59024,174.47586c0,-0.48717 0.39493,-0.88209 0.88209,-0.88209c0.48717,0 0.8821,0.39493 0.8821,0.88209c0,0.48717 -0.39494,0.88209 -0.8821,0.88209c-0.48717,0 -0.88209,-0.39493 -0.88209,-0.88209z" fill="url(#color-9)"/></g><g stroke="#000000"><path d="M321.94823,174.47586c0,-1.39403 1.13007,-2.52411 2.5241,-2.52411c1.39403,0 2.52411,1.13008 2.52411,2.52411c0,1.39403 -1.13008,2.52411 -2.52411,2.52411c-1.39403,0 -2.5241,-1.13008 -2.5241,-2.52411z" fill="url(#color-10)"/><path d="M322.43289,174.47586c0,-1.12635 0.91309,-2.03945 2.03944,-2.03945c1.12636,0 2.03945,0.9131 2.03945,2.03945c0,1.12635 -0.9131,2.03945 -2.03945,2.03945c-1.12636,0 -2.03944,-0.9131 -2.03944,-2.03945z" fill="url(#color-11)"/><path d="M324.18324,174.47586c0,-0.28846 0.12943,-0.52231 0.28909,-0.52231c0.15966,0 0.28909,0.23384 0.28909,0.52231c0,0.28846 -0.12943,0.52231 -0.28909,0.52231c-0.15966,0 -0.28909,-0.23384 -0.28909,-0.52231z" fill="#630000"/><path d="M324.27855,174.47586c0,-0.10703 0.08676,-0.19379 0.19379,-0.19379c0.10703,0 0.19379,0.08676 0.19379,0.19379c0,0.10703 -0.08676,0.19379 -0.19379,0.19379c-0.10703,0 -0.19379,-0.08676 -0.19379,-0.19379z" fill="#000000"/><path d="M323.40451,174.47586c0,-0.58975 0.47809,-1.06782 1.06782,-1.06782c0.58975,0 1.06783,0.47809 1.06783,1.06782c0,0.58975 -0.4781,1.06782 -1.06783,1.06782c-0.58975,0 -1.06782,-0.47809 -1.06782,-1.06782z" fill="url(#color-12)"/></g><g stroke="#000000"><path d="M317.14664,180.64912c0,-1.6864 1.36709,-3.05352 3.0535,-3.05352c1.6864,0 3.05352,1.3671 3.05352,3.05352c0,1.6864 -1.3671,3.0535 -3.05352,3.0535c-1.6864,0 -3.0535,-1.3671 -3.0535,-3.0535z" fill="url(#color-13)"/><path d="M317.73294,180.64912c0,-1.36259 1.1046,-2.4672 2.46719,-2.4672c1.36259,0 2.4672,1.10461 2.4672,2.4672c0,1.36259 -1.1046,2.4672 -2.4672,2.4672c-1.36259,0 -2.46719,-1.1046 -2.46719,-2.4672z" fill="url(#color-14)"/><path d="M319.85042,180.64912c0,-0.34897 0.15658,-0.63186 0.34972,-0.63186c0.19315,0 0.34972,0.2829 0.34972,0.63186c0,0.34897 -0.15658,0.63185 -0.34972,0.63185c-0.19315,0 -0.34972,-0.28289 -0.34972,-0.63185z" fill="#630000"/><path d="M319.96572,180.64912c0,-0.12947 0.10496,-0.23444 0.23442,-0.23444c0.12948,0 0.23444,0.10497 0.23444,0.23444c0,0.12947 -0.10496,0.23442 -0.23444,0.23442c-0.12948,0 -0.23442,-0.10496 -0.23442,-0.23442z" fill="#000000"/><path d="M318.90835,180.64912c0,-0.71343 0.57835,-1.29178 1.29178,-1.29178c0.71343,0 1.2918,0.57835 1.2918,1.29178c0,0.71343 -0.57836,1.29178 -1.2918,1.29178c-0.71343,0 -1.29178,-0.57835 -1.29178,-1.29178z" fill="url(#color-15)"/></g><g fill="#730000"><path d="M325.36014,180.64453c0,-1.10457 0.8431,-2 1.88312,-2h13.29951c1.04002,0 1.88312,0.89543 1.88312,2v2.625c0,1.10457 -0.8431,2 -1.88312,2h-13.29951c-1.04002,0 -1.88312,-0.89543 -1.88312,-2z" stroke="none"/><path d="M341.60202,183.89453v-3.875h1.88312v3.875z" stroke="#000000"/></g><path d="M299.57,180c0,-11.28317 9.14682,-20.43 20.43,-20.43c11.28318,0 20.43,9.14683 20.43,20.43c0,11.28318 -9.14682,20.43 -20.43,20.43c-11.28318,0 -20.43,-9.14683 -20.43,-20.43z" fill="url(#color-16)" stroke="#000000"/></g></g></svg>