<svg version="1.1" xmlns="http://www.w3.org/2000/svg" xmlns:xlink="http://www.w3.org/1999/xlink" width="103.2" height="103.2" viewBox="0,0,103.2,103.2"><defs><radialGradient cx="320" cy="180" r="51.6" gradientUnits="userSpaceOnUse" id="color-1"><stop offset="0" stop-color="#ffffff"/><stop offset="1" stop-color="#ffffff" stop-opacity="0"/></radialGradient><radialGradient cx="320" cy="180" r="42.85" gradientUnits="userSpaceOnUse" id="color-2"><stop offset="0" stop-color="#ffffff"/><stop offset="1" stop-color="#ffffff" stop-opacity="0"/></radialGradient><radialGradient cx="320" cy="180" r="35.725" gradientUnits="userSpaceOnUse" id="color-3"><stop offset="0" stop-color="#ffffff"/><stop offset="1" stop-color="#ffffff" stop-opacity="0"/></radialGradient><radialGradient cx="320" cy="180" r="31.225" gradientUnits="userSpaceOnUse" id="color-4"><stop offset="0" stop-color="#ffffff"/><stop offset="1" stop-color="#ffffff" stop-opacity="0"/></radialGradient><radialGradient cx="320" cy="180" r="26.975" gradientUnits="userSpaceOnUse" id="color-5"><stop offset="0" stop-color="#ffffff"/><stop offset="1" stop-color="#ffffff" stop-opacity="0"/></radialGradient><radialGradient cx="320" cy="180" r="34.35" gradientUnits="userSpaceOnUse" id="color-6"><stop offset="0" stop-color="#ffa0a0"/><stop offset="1" stop-color="#ffa0a0" stop-opacity="0"/></radialGradient></defs><g transform="translate(-268.4,-128.4)"><g data-paper-data="{&quot;isPaintingLayer&quot;:true}" fill-rule="nonzero" stroke="#000000" stroke-width="0" stroke-linecap="butt" stroke-linejoin="miter" stroke-miterlimit="10" stroke-dasharray="" stroke-dashoffset="0" style="mix-blend-mode: normal"><path d="M296.4,180c0,-13.03392 10.56608,-23.6 23.6,-23.6c13.03392,0 23.6,10.56608 23.6,23.6c0,13.03392 -10.56608,23.6 -23.6,23.6c-13.03392,0 -23.6,-10.56608 -23.6,-23.6z" fill="#ffffff"/><g><path d="M268.4,180c0,-28.49789 23.10211,-51.6 51.6,-51.6c28.49789,0 51.6,23.10211 51.6,51.6c0,28.49789 -23.10211,51.6 -51.6,51.6c-28.49789,0 -51.6,-23.10211 -51.6,-51.6z" fill="url(#color-1)"/><path d="M277.15,180c0,-23.6654 19.1846,-42.85 42.85,-42.85c23.6654,0 42.85,19.1846 42.85,42.85c0,23.6654 -19.1846,42.85 -42.85,42.85c-23.6654,0 -42.85,-19.1846 -42.85,-42.85z" fill="url(#color-2)"/><path d="M284.275,180c0,-19.73037 15.99463,-35.725 35.725,-35.725c19.73037,0 35.725,15.99463 35.725,35.725c0,19.73037 -15.99463,35.725 -35.725,35.725c-19.73037,0 -35.725,-15.99463 -35.725,-35.725z" fill="url(#color-3)"/><path d="M288.775,180c0,-17.24509 13.97991,-31.225 31.225,-31.225c17.24509,0 31.225,13.97991 31.225,31.225c0,17.24509 -13.97991,31.225 -31.225,31.225c-17.24509,0 -31.225,-13.97991 -31.225,-31.225z" fill="url(#color-4)"/><path d="M293.025,180c0,-14.89788 12.07712,-26.975 26.975,-26.975c14.89788,0 26.975,12.07712 26.975,26.975c0,14.89788 -12.07712,26.975 -26.975,26.975c-14.89788,0 -26.975,-12.07712 -26.975,-26.975z" fill="url(#color-5)"/></g><path d="M285.65,180c0,-18.97098 15.37902,-34.35 34.35,-34.35c18.97098,0 34.35,15.37902 34.35,34.35c0,18.97098 -15.37902,34.35 -34.35,34.35c-18.97098,0 -34.35,-15.37902 -34.35,-34.35z" fill="url(#color-6)"/></g></g></svg>