<svg version="1.1" xmlns="http://www.w3.org/2000/svg" xmlns:xlink="http://www.w3.org/1999/xlink" width="30.59937" height="29.90588" viewBox="0,0,30.59937,29.90588"><defs><radialGradient cx="319.99999" cy="180" r="14.95294" gradientUnits="userSpaceOnUse" id="color-1"><stop offset="0" stop-color="#808080"/><stop offset="1" stop-color="#808080" stop-opacity="0"/></radialGradient></defs><g transform="translate(-305.00318,-165.04706)"><g data-paper-data="{&quot;isPaintingLayer&quot;:true}" fill-rule="nonzero" stroke-linecap="butt" stroke-linejoin="miter" stroke-miterlimit="10" stroke-dasharray="" stroke-dashoffset="0" style="mix-blend-mode: normal"><path d="M306.60562,180l10.31092,-3.38633v6.77266z" data-paper-data="{&quot;index&quot;:null}" fill="#d3d3d3" stroke="#000000" stroke-width="1"/><path d="M323.6892,177.59412h-6.77266l3.38633,-10.31092z" fill="#d3d3d3" stroke="#000000" stroke-width="1"/><path d="M334.00012,180l-10.31092,3.38633v-6.77266z" data-paper-data="{&quot;index&quot;:null}" fill="#d3d3d3" stroke="#000000" stroke-width="1"/><path d="M320.30287,190.31092l-3.38633,-10.31092h6.77266z" data-paper-data="{&quot;index&quot;:null}" fill="#d3d3d3" stroke="#000000" stroke-width="1"/><path d="M315.14741,180c0,-2.84728 2.30818,-5.15546 5.15546,-5.15546c2.84728,0 5.15546,2.30818 5.15546,5.15546c0,2.84728 -2.30818,5.15546 -5.15546,5.15546c-2.84728,0 -5.15546,-2.30818 -5.15546,-5.15546z" fill="#d3d3d3" stroke="#000000" stroke-width="1"/><path d="M305.04706,180c0,-8.25828 6.69467,-14.95294 14.95294,-14.95294c8.25828,0 14.95294,6.69467 14.95294,14.95294c0,8.25828 -6.69467,14.95294 -14.95294,14.95294c-8.25828,0 -14.95294,-6.69467 -14.95294,-14.95294z" fill="url(#color-1)" stroke="none" stroke-width="0"/></g></g></svg>