<svg version="1.1" xmlns="http://www.w3.org/2000/svg" xmlns:xlink="http://www.w3.org/1999/xlink" width="40.86" height="40.86" viewBox="0,0,40.86,40.86"><defs><radialGradient cx="315.33565" cy="173.69956" r="4.86449" gradientUnits="userSpaceOnUse" id="color-1"><stop offset="0" stop-color="#030303"/><stop offset="1" stop-color="#000000" stop-opacity="0.16078"/></radialGradient><radialGradient cx="315.33565" cy="173.69956" r="3.93045" gradientUnits="userSpaceOnUse" id="color-2"><stop offset="0" stop-color="#252525"/><stop offset="1" stop-color="#000000"/></radialGradient><radialGradient cx="315.33565" cy="173.69956" r="2.05793" gradientUnits="userSpaceOnUse" id="color-3"><stop offset="0" stop-color="#630000"/><stop offset="1" stop-color="#630000" stop-opacity="0"/></radialGradient><radialGradient cx="315.33565" cy="184.89468" r="3.52226" gradientUnits="userSpaceOnUse" id="color-4"><stop offset="0" stop-color="#030303"/><stop offset="1" stop-color="#000000" stop-opacity="0.16078"/></radialGradient><radialGradient cx="315.33565" cy="184.89468" r="2.84594" gradientUnits="userSpaceOnUse" id="color-5"><stop offset="0" stop-color="#252525"/><stop offset="1" stop-color="#000000"/></radialGradient><radialGradient cx="315.33565" cy="184.89468" r="1.49011" gradientUnits="userSpaceOnUse" id="color-6"><stop offset="0" stop-color="#630000"/><stop offset="1" stop-color="#630000" stop-opacity="0"/></radialGradient><radialGradient cx="324.42546" cy="174.52273" r="3.11633" gradientUnits="userSpaceOnUse" id="color-7"><stop offset="0" stop-color="#030303"/><stop offset="1" stop-color="#000000" stop-opacity="0.16078"/></radialGradient><radialGradient cx="324.42546" cy="174.52273" r="2.51796" gradientUnits="userSpaceOnUse" id="color-8"><stop offset="0" stop-color="#252525"/><stop offset="1" stop-color="#000000"/></radialGradient><radialGradient cx="324.42546" cy="174.52273" r="1.31837" gradientUnits="userSpaceOnUse" id="color-9"><stop offset="0" stop-color="#630000"/><stop offset="1" stop-color="#630000" stop-opacity="0"/></radialGradient><radialGradient cx="320.20014" cy="180.64912" r="2.08508" gradientUnits="userSpaceOnUse" id="color-10"><stop offset="0" stop-color="#030303"/><stop offset="1" stop-color="#000000" stop-opacity="0.16078"/></radialGradient><radialGradient cx="320.20014" cy="180.64912" r="1.68472" gradientUnits="userSpaceOnUse" id="color-11"><stop offset="0" stop-color="#252525"/><stop offset="1" stop-color="#000000"/></radialGradient><radialGradient cx="320.20014" cy="180.64912" r="0.8821" gradientUnits="userSpaceOnUse" id="color-12"><stop offset="0" stop-color="#630000"/><stop offset="1" stop-color="#630000" stop-opacity="0"/></radialGradient><radialGradient cx="320" cy="180" r="20.43" gradientUnits="userSpaceOnUse" id="color-13"><stop offset="0" stop-color="#8f0000" stop-opacity="0.5098"/><stop offset="1" stop-color="#8f0000" stop-opacity="0"/></radialGradient></defs><g transform="translate(-299.57,-159.57)"><g stroke-width="0" stroke-miterlimit="10"><path d="M309.97727,181.1422c0,-5.5354 4.48733,-10.02273 10.02273,-10.02273c5.5354,0 10.02273,4.48733 10.02273,10.02273c0,5.5354 -4.48733,10.02273 -10.02273,10.02273c-5.5354,0 -10.02273,-4.48733 -10.02273,-10.02273z" fill="#630000" stroke="#000000"/><g stroke="#000000"><path d="M310.47117,173.69956c0,-2.68659 2.1779,-4.86449 4.86449,-4.86449c2.68658,0 4.86449,2.1779 4.86449,4.86449c0,2.68659 -2.1779,4.86449 -4.86449,4.86449c-2.68658,0 -4.86449,-2.1779 -4.86449,-4.86449z" fill="url(#color-1)"/><path d="M311.40521,173.69956c0,-2.17073 1.75972,-3.93045 3.93045,-3.93045c2.17073,0 3.93045,1.75972 3.93045,3.93045c0,2.17073 -1.75972,3.93045 -3.93045,3.93045c-2.17073,0 -3.93045,-1.75972 -3.93045,-3.93045z" fill="url(#color-2)"/><path d="M314.77853,173.69956c0,-0.55593 0.24944,-1.0066 0.55714,-1.0066c0.3077,0 0.55713,0.45067 0.55713,1.0066c0,0.55593 -0.24944,1.0066 -0.55713,1.0066c-0.3077,0 -0.55714,-0.45067 -0.55714,-1.0066z" fill="#630000"/><path d="M314.9622,173.69956c0,-0.20626 0.16721,-0.37347 0.37347,-0.37347c0.20626,0 0.37346,0.16721 0.37346,0.37347c0,0.20626 -0.1672,0.37347 -0.37346,0.37347c-0.20626,0 -0.37347,-0.16721 -0.37347,-0.37347z" fill="#000000"/><path d="M313.27773,173.69956c0,-1.13656 0.92136,-2.05793 2.05792,-2.05793c1.13656,0 2.05793,0.92137 2.05793,2.05793c0,1.13656 -0.92137,2.05793 -2.05793,2.05793c-1.13656,0 -2.05792,-0.92137 -2.05792,-2.05793z" fill="url(#color-3)"/></g><g stroke="#000000"><path d="M311.8134,184.89468c0,-1.94529 1.57697,-3.52226 3.52226,-3.52226c1.94529,0 3.52226,1.57697 3.52226,3.52226c0,1.94529 -1.57697,3.52226 -3.52226,3.52226c-1.94529,0 -3.52226,-1.57697 -3.52226,-3.52226z" fill="url(#color-4)"/><path d="M312.48972,184.89468c0,-1.57178 1.27417,-2.84594 2.84594,-2.84594c1.57178,0 2.84594,1.27417 2.84594,2.84594c0,1.57178 -1.27417,2.84596 -2.84594,2.84596c-1.57178,0 -2.84594,-1.27418 -2.84594,-2.84596z" fill="url(#color-5)"/><path d="M314.93225,184.89468c0,-0.40253 0.18062,-0.72886 0.40342,-0.72886c0.2228,0 0.40341,0.32632 0.40341,0.72886c0,0.40253 -0.18061,0.72886 -0.40341,0.72886c-0.2228,0 -0.40342,-0.32632 -0.40342,-0.72886z" fill="#630000"/><path d="M315.06524,184.89468c0,-0.14935 0.12107,-0.27042 0.27042,-0.27042c0.14935,0 0.27042,0.12107 0.27042,0.27042c0,0.14935 -0.12107,0.27042 -0.27042,0.27042c-0.14935,0 -0.27042,-0.12107 -0.27042,-0.27042z" fill="#000000"/><path d="M313.84556,184.89468c0,-0.82296 0.66713,-1.4901 1.4901,-1.4901c0.82296,0 1.49011,0.66713 1.49011,1.4901c0,0.82296 -0.66715,1.4901 -1.49011,1.4901c-0.82296,0 -1.4901,-0.66713 -1.4901,-1.4901z" fill="url(#color-6)"/></g><g stroke="#000000"><path d="M321.30914,174.52273c0,-1.72111 1.39521,-3.11633 3.11632,-3.11633c1.72111,0 3.11633,1.39523 3.11633,3.11633c0,1.72111 -1.39523,3.11633 -3.11633,3.11633c-1.72111,0 -3.11632,-1.39523 -3.11632,-3.11633z" fill="url(#color-7)"/><path d="M321.90751,174.52273c0,-1.39062 1.12732,-2.51796 2.51794,-2.51796c1.39064,0 2.51796,1.12734 2.51796,2.51796c0,1.39062 -1.12734,2.51796 -2.51796,2.51796c-1.39064,0 -2.51794,-1.12734 -2.51794,-2.51796z" fill="url(#color-8)"/><path d="M324.06854,174.52273c0,-0.35615 0.1598,-0.64485 0.35692,-0.64485c0.19712,0 0.35692,0.28871 0.35692,0.64485c0,0.35615 -0.1598,0.64485 -0.35692,0.64485c-0.19712,0 -0.35692,-0.28871 -0.35692,-0.64485z" fill="#630000"/><path d="M324.1862,174.52273c0,-0.13214 0.10712,-0.23925 0.23925,-0.23925c0.13214,0 0.23925,0.10712 0.23925,0.23925c0,0.13214 -0.10712,0.23925 -0.23925,0.23925c-0.13214,0 -0.23925,-0.10712 -0.23925,-0.23925z" fill="#000000"/><path d="M323.1071,174.52273c0,-0.72812 0.59026,-1.31836 1.31836,-1.31836c0.72812,0 1.31837,0.59026 1.31837,1.31836c0,0.72812 -0.59027,1.31836 -1.31837,1.31836c-0.72812,0 -1.31836,-0.59026 -1.31836,-1.31836z" fill="url(#color-9)"/></g><g stroke="#000000"><path d="M318.11507,180.64912c0,-1.15155 0.93351,-2.08508 2.08508,-2.08508c1.15155,0 2.08508,0.93352 2.08508,2.08508c0,1.15155 -0.93352,2.08508 -2.08508,2.08508c-1.15155,0 -2.08508,-0.93352 -2.08508,-2.08508z" fill="url(#color-10)"/><path d="M318.51542,180.64912c0,-0.93044 0.75427,-1.68472 1.68471,-1.68472c0.93044,0 1.68472,0.75428 1.68472,1.68472c0,0.93044 -0.75427,1.68472 -1.68472,1.68472c-0.93044,0 -1.68471,-0.75427 -1.68471,-1.68472z" fill="url(#color-11)"/><path d="M319.96133,180.64912c0,-0.2383 0.10692,-0.43146 0.23881,-0.43146c0.13189,0 0.23881,0.19318 0.23881,0.43146c0,0.2383 -0.10692,0.43145 -0.23881,0.43145c-0.13189,0 -0.23881,-0.19317 -0.23881,-0.43145z" fill="#630000"/><path d="M320.04007,180.64912c0,-0.08841 0.07167,-0.16008 0.16008,-0.16008c0.08841,0 0.16008,0.07168 0.16008,0.16008c0,0.08841 -0.07167,0.16008 -0.16008,0.16008c-0.08841,0 -0.16008,-0.07167 -0.16008,-0.16008z" fill="#000000"/><path d="M319.31805,180.64912c0,-0.48716 0.39493,-0.88209 0.88209,-0.88209c0.48716,0 0.8821,0.39493 0.8821,0.88209c0,0.48716 -0.39493,0.88209 -0.8821,0.88209c-0.48716,0 -0.88209,-0.39493 -0.88209,-0.88209z" fill="url(#color-12)"/></g><g fill="#730000"><path d="M325.36014,180.64453c0,-1.10457 0.70099,-2 1.5657,-2h11.05775c0.86471,0 1.5657,0.89543 1.5657,2v2.625c0,1.10457 -0.70099,2 -1.5657,2h-11.05775c-0.86471,0 -1.5657,-0.89543 -1.5657,-2z" stroke="none"/><path d="M338.8643,183.89453v-3.875h1.5657v3.875z" stroke="#000000"/></g><path d="M299.57,180c0,-11.28317 9.14682,-20.43 20.43,-20.43c11.28318,0 20.43,9.14683 20.43,20.43c0,11.28318 -9.14682,20.43 -20.43,20.43c-11.28318,0 -20.43,-9.14683 -20.43,-20.43z" fill="url(#color-13)" stroke="#000000"/></g></g></svg>