<svg version="1.1" xmlns="http://www.w3.org/2000/svg" xmlns:xlink="http://www.w3.org/1999/xlink" width="142.33334" height="142.33334" viewBox="0,0,142.33334,142.33334"><defs><linearGradient x1="215.91667" y1="180.00001" x2="264.08333" y2="180.00001" gradientUnits="userSpaceOnUse" id="color-1"><stop offset="0" stop-color="#221818"/><stop offset="1" stop-color="#424242"/></linearGradient><radialGradient cx="240" cy="180" r="71.16667" gradientUnits="userSpaceOnUse" id="color-2"><stop offset="0" stop-color="#ff0000" stop-opacity="0.33061"/><stop offset="1" stop-color="#ff0000" stop-opacity="0"/></radialGradient></defs><g transform="translate(-168.83333,-108.83333)"><g data-paper-data="{&quot;isPaintingLayer&quot;:true}" fill-rule="nonzero" stroke-linejoin="miter" stroke-miterlimit="10" stroke-dasharray="" stroke-dashoffset="0" style="mix-blend-mode: normal"><path d="M240,155.91668c13.30086,0 24.08333,10.78248 24.08333,24.08333c0,13.30086 -10.78248,24.08333 -24.08333,24.08333c-13.30086,0 -24.08333,-10.78248 -24.08333,-24.08333c0,-13.30086 10.78248,-24.08333 24.08333,-24.08333z" fill="url(#color-1)" stroke="#d4d4d4" stroke-width="2" stroke-linecap="butt"/><path d="M259.79672,193.60864v-26.87006l13.43502,13.43503z" fill="#221818" stroke="#d4d4d4" stroke-width="2" stroke-linecap="butt"/><path d="M283.13005,140.07191l-23.33333,26.66666" fill="none" stroke="#d4d4d4" stroke-width="2" stroke-linecap="round"/><path d="M259.89841,191.60864l26.66666,23.33333" fill="none" stroke="#d4d4d4" stroke-width="2" stroke-linecap="round"/><path d="M247.01423,169.17361c2.11709,0 3.83333,1.71625 3.83333,3.83334c0,2.11709 -1.71624,3.83334 -3.83333,3.83334c-2.11709,0 -3.83334,-1.71625 -3.83334,-3.83334c0,-2.11709 1.71625,-3.83334 3.83334,-3.83334z" fill="none" stroke="#d4d4d4" stroke-width="2" stroke-linecap="butt"/><path d="M247.01423,184.50694c2.11709,0 3.83333,1.71625 3.83333,3.83334c0,2.11709 -1.71624,3.83334 -3.83333,3.83334c-2.11709,0 -3.83334,-1.71625 -3.83334,-3.83334c0,-2.11709 1.71625,-3.83334 3.83334,-3.83334z" fill="none" stroke="#d4d4d4" stroke-width="2" stroke-linecap="butt"/><path d="M266.51423,176.84027c1.65686,0 3,1.34314 3,3c0,1.65686 -1.34314,3 -3,3c-1.65686,0 -3,-1.34314 -3,-3c0,-1.65686 1.34314,-3 3,-3z" fill="none" stroke="#d4d4d4" stroke-width="2" stroke-linecap="butt"/><path d="M168.83333,180c0,-39.30426 31.8624,-71.16667 71.16667,-71.16667c39.30426,0 71.16667,31.8624 71.16667,71.16667c0,39.30426 -31.8624,71.16667 -71.16667,71.16667c-39.30426,0 -71.16667,-31.8624 -71.16667,-71.16667z" fill="url(#color-2)" stroke="none" stroke-width="0" stroke-linecap="butt"/></g></g></svg>