<svg version="1.1" xmlns="http://www.w3.org/2000/svg" xmlns:xlink="http://www.w3.org/1999/xlink" width="45.99999" height="51.63631" viewBox="0,0,45.99999,51.63631"><defs><radialGradient cx="320.01047" cy="180" r="18.9181" gradientUnits="userSpaceOnUse" id="color-1"><stop offset="0" stop-color="#4200ff"/><stop offset="1" stop-color="#4200ff" stop-opacity="0"/></radialGradient><radialGradient cx="320.01047" cy="180" r="18.9181" gradientUnits="userSpaceOnUse" id="color-2"><stop offset="0" stop-color="#ff0000"/><stop offset="1" stop-color="#ff0000" stop-opacity="0"/></radialGradient><radialGradient cx="320.01047" cy="180" r="13.18534" gradientUnits="userSpaceOnUse" id="color-3"><stop offset="0" stop-color="#ff0000"/><stop offset="1" stop-color="#ff0000" stop-opacity="0"/></radialGradient><radialGradient cx="319.84667" cy="180" r="18.9181" gradientUnits="userSpaceOnUse" id="color-4"><stop offset="0" stop-color="#4200ff"/><stop offset="1" stop-color="#4200ff" stop-opacity="0"/></radialGradient><radialGradient cx="319.84667" cy="180" r="18.9181" gradientUnits="userSpaceOnUse" id="color-5"><stop offset="0" stop-color="#ff0000"/><stop offset="1" stop-color="#ff0000" stop-opacity="0"/></radialGradient><radialGradient cx="319.84667" cy="180" r="13.18534" gradientUnits="userSpaceOnUse" id="color-6"><stop offset="0" stop-color="#ff0000"/><stop offset="1" stop-color="#ff0000" stop-opacity="0"/></radialGradient></defs><g transform="translate(-296.92857,-151.28178)"><g data-paper-data="{&quot;isPaintingLayer&quot;:true}" fill-rule="nonzero" stroke-linecap="butt" stroke-linejoin="miter" stroke-miterlimit="10" stroke-dasharray="" stroke-dashoffset="0" style="mix-blend-mode: normal"><g stroke-width="8"><path d="M301.09236,180c0,-10.44818 8.46992,-18.9181 18.9181,-18.9181c10.44818,0 18.9181,8.46992 18.9181,18.9181c0,10.44818 -8.46992,18.9181 -18.9181,18.9181c-10.44818,0 -18.9181,-8.46992 -18.9181,-18.9181z" fill="url(#color-1)" stroke="url(#color-2)"/><path d="M306.82512,180c0,-7.28207 5.90327,-13.18534 13.18534,-13.18534c7.28207,0 13.18534,5.90327 13.18534,13.18534c0,7.28207 -5.90327,13.18534 -13.18534,13.18534c-7.28207,0 -13.18534,-5.90327 -13.18534,-13.18534z" fill="none" stroke="url(#color-3)"/></g><g stroke-width="8"><path d="M300.92857,180c0,-10.44818 8.46992,-18.9181 18.9181,-18.9181c10.44818,0 18.9181,8.46992 18.9181,18.9181c0,10.44818 -8.46992,18.9181 -18.9181,18.9181c-10.44818,0 -18.9181,-8.46992 -18.9181,-18.9181z" fill="url(#color-4)" stroke="url(#color-5)"/><path d="M306.66133,180c0,-7.28206 5.90329,-13.18534 13.18534,-13.18534c7.28206,0 13.18534,5.90329 13.18534,13.18534c0,7.28206 -5.90329,13.18534 -13.18534,13.18534c-7.28206,0 -13.18534,-5.90329 -13.18534,-13.18534z" fill="none" stroke="url(#color-6)"/></g><text transform="translate(299.14101,160.97357) scale(0.20828,0.20828)" font-size="40" xml:space="preserve" fill="#00ff08" fill-rule="nonzero" stroke="#00ff09" stroke-width="2" stroke-linecap="butt" stroke-linejoin="miter" stroke-miterlimit="10" stroke-dasharray="" stroke-dashoffset="0" font-family="&quot;MV Boli&quot;, Technological" font-weight="normal" text-anchor="start" style="mix-blend-mode: normal"><tspan x="0" dy="0">Warp Gate</tspan></text></g></g></svg>