<svg version="1.1" xmlns="http://www.w3.org/2000/svg" xmlns:xlink="http://www.w3.org/1999/xlink" width="16.75355" height="14.91066" viewBox="0,0,16.75355,14.91066"><defs><linearGradient x1="315.96802" y1="173.97487" x2="315.96802" y2="174.81892" gradientUnits="userSpaceOnUse" id="color-1"><stop offset="0" stop-color="#00e013"/><stop offset="1" stop-color="#00a210"/></linearGradient><linearGradient x1="323.70738" y1="171.29977" x2="323.70738" y2="172.63928" gradientUnits="userSpaceOnUse" id="color-2"><stop offset="0" stop-color="#00890b"/><stop offset="1" stop-color="#005308"/></linearGradient><linearGradient x1="319.35398" y1="170.85327" x2="319.35398" y2="173.08578" gradientUnits="userSpaceOnUse" id="color-3"><stop offset="0" stop-color="#00890b"/><stop offset="1" stop-color="#005308"/></linearGradient><linearGradient x1="313.58665" y1="174.57413" x2="315.81916" y2="174.57413" gradientUnits="userSpaceOnUse" id="color-4"><stop offset="0" stop-color="#004406"/><stop offset="1" stop-color="#006909"/></linearGradient><linearGradient x1="313.58665" y1="173.01136" x2="321.32603" y2="173.01136" gradientUnits="userSpaceOnUse" id="color-5"><stop offset="0" stop-color="#004606"/><stop offset="1" stop-color="#006909"/></linearGradient><linearGradient x1="314.47966" y1="171.22535" x2="314.47966" y2="172.56486" gradientUnits="userSpaceOnUse" id="color-6"><stop offset="0" stop-color="#00890b"/><stop offset="1" stop-color="#005308"/></linearGradient><linearGradient x1="319.09351" y1="172.78812" x2="319.09351" y2="174.12763" gradientUnits="userSpaceOnUse" id="color-7"><stop offset="0" stop-color="#00890b"/><stop offset="1" stop-color="#005308"/></linearGradient><linearGradient x1="319.4284" y1="170.00923" x2="319.4284" y2="170.85327" gradientUnits="userSpaceOnUse" id="color-8"><stop offset="0" stop-color="#00e013"/><stop offset="1" stop-color="#00a210"/></linearGradient><radialGradient cx="322.85985" cy="172.61688" r="7.45533" gradientUnits="userSpaceOnUse" id="color-9"><stop offset="0" stop-color="#ff9141" stop-opacity="0.50196"/><stop offset="1" stop-color="#ff9141" stop-opacity="0"/></radialGradient></defs><g transform="translate(-313.56165,-165.16155)"><g data-paper-data="{&quot;isPaintingLayer&quot;:true}" fill-rule="nonzero" stroke-linecap="butt" stroke-linejoin="miter" stroke-miterlimit="10" stroke-dasharray="" stroke-dashoffset="0" style="mix-blend-mode: normal"><path d="M314.07036,174.81892v-0.84404h3.79528v0.84404z" fill="url(#color-1)" stroke="#000000" stroke-width="0.05"/><path d="M322.81437,172.63928v-1.33951h1.78601v1.33951z" fill="url(#color-2)" stroke="#000000" stroke-width="0.05"/><path d="M315.70753,175.54154c-0.47264,0 -0.8558,-0.20899 -0.8558,-0.4668v-1.29891c0,-0.2578 0.38316,-0.4668 0.8558,-0.4668h0.52092c0.47264,0 0.8558,0.209 0.8558,0.4668v1.29891c0,0.2578 -0.38316,0.4668 -0.8558,0.4668z" fill="#004606" stroke="#000000" stroke-width="0.05"/><path d="M324.22829,172.22998c0,0.47264 -0.9126,0.8558 -2.03834,0.8558h-5.67194c-1.12575,0 -2.03834,-0.38316 -2.03834,-0.8558v-0.52092c0,-0.47264 0.9126,-0.8558 2.03834,-0.8558h5.67194c1.12575,0 2.03834,0.38316 2.03834,0.8558z" fill="url(#color-3)" stroke="#000000" stroke-width="0.05"/><path d="M314.44245,177.25313c-0.47264,0 -0.8558,-0.50158 -0.8558,-1.12032v-3.11739c0,-0.61872 0.38316,-1.12032 0.8558,-1.12032h0.52092c0.47264,0 0.8558,0.50158 0.8558,1.12032v3.11739c0,0.61872 -0.38316,1.12032 -0.8558,1.12032z" fill="url(#color-4)" stroke="#000000" stroke-width="0.05"/><path d="M321.32603,173.27183c0,0.47264 -0.7245,0.8558 -1.61822,0.8558h-4.50291c-0.89373,0 -1.61822,-0.38316 -1.61822,-0.8558v-0.52092c0,-0.47264 0.7245,-0.8558 1.61822,-0.8558h4.50291c0.89373,0 1.61822,0.38316 1.61822,0.8558z" fill="url(#color-5)" stroke="#000000" stroke-width="0.05"/><path d="M313.58665,172.56486v-1.33951h1.78601v1.33951z" fill="url(#color-6)" stroke="#000000" stroke-width="0.05"/><path d="M318.2005,174.12763v-1.33951h1.78601v1.33951z" fill="url(#color-7)" stroke="#000000" stroke-width="0.05"/><path d="M317.53076,170.85327v-0.84404h3.79528v0.84404z" fill="url(#color-8)" stroke="#000000" stroke-width="0.05"/><path d="M315.40454,172.61688c0,-4.11747 3.33786,-7.45533 7.45533,-7.45533c4.11747,0 7.45533,3.33786 7.45533,7.45533c0,4.11747 -3.33786,7.45533 -7.45533,7.45533c-4.11747,0 -7.45533,-3.33786 -7.45533,-7.45533z" fill="url(#color-9)" stroke="none" stroke-width="0"/></g></g></svg>