<svg version="1.1" xmlns="http://www.w3.org/2000/svg" xmlns:xlink="http://www.w3.org/1999/xlink" width="40.86" height="40.86" viewBox="0,0,40.86,40.86"><defs><radialGradient cx="315.33565" cy="173.69956" r="4.63012" gradientUnits="userSpaceOnUse" id="color-1"><stop offset="0" stop-color="#030303"/><stop offset="1" stop-color="#000000" stop-opacity="0.16078"/></radialGradient><radialGradient cx="315.33565" cy="173.69956" r="3.74108" gradientUnits="userSpaceOnUse" id="color-2"><stop offset="0" stop-color="#252525"/><stop offset="1" stop-color="#000000"/></radialGradient><radialGradient cx="315.33565" cy="173.69956" r="1.95878" gradientUnits="userSpaceOnUse" id="color-3"><stop offset="0" stop-color="#630000"/><stop offset="1" stop-color="#630000" stop-opacity="0"/></radialGradient><radialGradient cx="315.33565" cy="184.89468" r="2.44414" gradientUnits="userSpaceOnUse" id="color-4"><stop offset="0" stop-color="#030303"/><stop offset="1" stop-color="#000000" stop-opacity="0.16078"/></radialGradient><radialGradient cx="315.33565" cy="184.89468" r="1.97483" gradientUnits="userSpaceOnUse" id="color-5"><stop offset="0" stop-color="#252525"/><stop offset="1" stop-color="#000000"/></radialGradient><radialGradient cx="315.33565" cy="184.89468" r="1.034" gradientUnits="userSpaceOnUse" id="color-6"><stop offset="0" stop-color="#630000"/><stop offset="1" stop-color="#630000" stop-opacity="0"/></radialGradient><radialGradient cx="324.42546" cy="174.52273" r="1.70122" gradientUnits="userSpaceOnUse" id="color-7"><stop offset="0" stop-color="#030303"/><stop offset="1" stop-color="#000000" stop-opacity="0.16078"/></radialGradient><radialGradient cx="324.42546" cy="174.52273" r="1.37456" gradientUnits="userSpaceOnUse" id="color-8"><stop offset="0" stop-color="#252525"/><stop offset="1" stop-color="#000000"/></radialGradient><radialGradient cx="324.42546" cy="174.52273" r="0.71971" gradientUnits="userSpaceOnUse" id="color-9"><stop offset="0" stop-color="#630000"/><stop offset="1" stop-color="#630000" stop-opacity="0"/></radialGradient><radialGradient cx="320.20014" cy="180.64912" r="2.75849" gradientUnits="userSpaceOnUse" id="color-10"><stop offset="0" stop-color="#030303"/><stop offset="1" stop-color="#000000" stop-opacity="0.16078"/></radialGradient><radialGradient cx="320.20014" cy="180.64912" r="2.22882" gradientUnits="userSpaceOnUse" id="color-11"><stop offset="0" stop-color="#252525"/><stop offset="1" stop-color="#000000"/></radialGradient><radialGradient cx="320.20014" cy="180.64912" r="1.16698" gradientUnits="userSpaceOnUse" id="color-12"><stop offset="0" stop-color="#630000"/><stop offset="1" stop-color="#630000" stop-opacity="0"/></radialGradient><radialGradient cx="320" cy="180" r="20.43" gradientUnits="userSpaceOnUse" id="color-13"><stop offset="0" stop-color="#8f0000" stop-opacity="0.5098"/><stop offset="1" stop-color="#8f0000" stop-opacity="0"/></radialGradient></defs><g transform="translate(-299.57,-159.57)"><g stroke-width="0" stroke-miterlimit="10"><path d="M309.97727,181.1422c0,-5.5354 4.48733,-10.02273 10.02273,-10.02273c5.5354,0 10.02273,4.48733 10.02273,10.02273c0,5.5354 -4.48733,10.02273 -10.02273,10.02273c-5.5354,0 -10.02273,-4.48733 -10.02273,-10.02273z" fill="#630000" stroke="#000000"/><g stroke="#000000"><path d="M310.70554,173.69956c0,-2.55715 2.07297,-4.63012 4.63012,-4.63012c2.55714,0 4.63012,2.07297 4.63012,4.63012c0,2.55715 -2.07297,4.63012 -4.63012,4.63012c-2.55714,0 -4.63012,-2.07297 -4.63012,-4.63012z" fill="url(#color-1)"/><path d="M311.59458,173.69956c0,-2.06614 1.67494,-3.74108 3.74108,-3.74108c2.06614,0 3.74108,1.67494 3.74108,3.74108c0,2.06614 -1.67494,3.74108 -3.74108,3.74108c-2.06614,0 -3.74108,-1.67494 -3.74108,-3.74108z" fill="url(#color-2)"/><path d="M314.80537,173.69956c0,-0.52914 0.23742,-0.9581 0.5303,-0.9581c0.29287,0 0.53029,0.42896 0.53029,0.9581c0,0.52914 -0.23742,0.9581 -0.53029,0.9581c-0.29287,0 -0.5303,-0.42896 -0.5303,-0.9581z" fill="#630000"/><path d="M314.98019,173.69956c0,-0.19632 0.15915,-0.35548 0.35548,-0.35548c0.19632,0 0.35547,0.15915 0.35547,0.35548c0,0.19632 -0.15914,0.35548 -0.35547,0.35548c-0.19632,0 -0.35548,-0.15915 -0.35548,-0.35548z" fill="#000000"/><path d="M313.37688,173.69956c0,-1.0818 0.87697,-1.95878 1.95877,-1.95878c1.0818,0 1.95878,0.87698 1.95878,1.95878c0,1.0818 -0.87698,1.95878 -1.95878,1.95878c-1.0818,0 -1.95877,-0.87698 -1.95877,-1.95878z" fill="url(#color-3)"/></g><g stroke="#000000"><path d="M312.89152,184.89468c0,-1.34986 1.09427,-2.44414 2.44414,-2.44414c1.34986,0 2.44414,1.09427 2.44414,2.44414c0,1.34986 -1.09427,2.44414 -2.44414,2.44414c-1.34986,0 -2.44414,-1.09427 -2.44414,-2.44414z" fill="url(#color-4)"/><path d="M313.36083,184.89468c0,-1.09067 0.88416,-1.97483 1.97483,-1.97483c1.09067,0 1.97483,0.88416 1.97483,1.97483c0,1.09067 -0.88416,1.97484 -1.97483,1.97484c-1.09067,0 -1.97483,-0.88417 -1.97483,-1.97484z" fill="url(#color-5)"/><path d="M315.05573,184.89468c0,-0.27932 0.12533,-0.50576 0.27994,-0.50576c0.1546,0 0.27993,0.22643 0.27993,0.50576c0,0.27932 -0.12532,0.50576 -0.27993,0.50576c-0.1546,0 -0.27994,-0.22643 -0.27994,-0.50576z" fill="#630000"/><path d="M315.14801,184.89468c0,-0.10363 0.08401,-0.18765 0.18765,-0.18765c0.10363,0 0.18765,0.08401 0.18765,0.18765c0,0.10363 -0.08401,0.18765 -0.18765,0.18765c-0.10363,0 -0.18765,-0.08401 -0.18765,-0.18765z" fill="#000000"/><path d="M314.30167,184.89468c0,-0.57106 0.46293,-1.03399 1.03399,-1.03399c0.57106,0 1.034,0.46293 1.034,1.03399c0,0.57106 -0.46294,1.03399 -1.034,1.03399c-0.57106,0 -1.03399,-0.46293 -1.03399,-1.03399z" fill="url(#color-6)"/></g><g stroke="#000000"><path d="M322.72425,174.52273c0,-0.93956 0.76165,-1.70122 1.70121,-1.70122c0.93956,0 1.70122,0.76166 1.70122,1.70122c0,0.93956 -0.76166,1.70122 -1.70122,1.70122c-0.93956,0 -1.70121,-0.76166 -1.70121,-1.70122z" fill="url(#color-7)"/><path d="M323.0509,174.52273c0,-0.75915 0.61541,-1.37456 1.37456,-1.37456c0.75916,0 1.37456,0.61542 1.37456,1.37456c0,0.75915 -0.61542,1.37456 -1.37456,1.37456c-0.75916,0 -1.37456,-0.61542 -1.37456,-1.37456z" fill="url(#color-8)"/><path d="M324.23062,174.52273c0,-0.19442 0.08724,-0.35203 0.19485,-0.35203c0.10761,0 0.19485,0.15761 0.19485,0.35203c0,0.19442 -0.08724,0.35203 -0.19485,0.35203c-0.10761,0 -0.19485,-0.15761 -0.19485,-0.35203z" fill="#630000"/><path d="M324.29485,174.52273c0,-0.07213 0.05848,-0.13061 0.13061,-0.13061c0.07213,0 0.13061,0.05848 0.13061,0.13061c0,0.07213 -0.05848,0.13061 -0.13061,0.13061c-0.07213,0 -0.13061,-0.05848 -0.13061,-0.13061z" fill="#000000"/><path d="M323.70576,174.52273c0,-0.39748 0.32222,-0.7197 0.7197,-0.7197c0.39748,0 0.71971,0.32222 0.71971,0.7197c0,0.39748 -0.32223,0.7197 -0.71971,0.7197c-0.39748,0 -0.7197,-0.32222 -0.7197,-0.7197z" fill="url(#color-9)"/></g><g stroke="#000000"><path d="M317.44167,180.64912c0,-1.52346 1.235,-2.75849 2.75847,-2.75849c1.52346,0 2.75849,1.23501 2.75849,2.75849c0,1.52346 -1.23501,2.75847 -2.75849,2.75847c-1.52346,0 -2.75847,-1.23501 -2.75847,-2.75847z" fill="url(#color-10)"/><path d="M317.97132,180.64912c0,-1.23094 0.99787,-2.22882 2.22881,-2.22882c1.23094,0 2.22882,0.99789 2.22882,2.22882c0,1.23094 -0.99787,2.22882 -2.22882,2.22882c-1.23094,0 -2.22881,-0.99787 -2.22881,-2.22882z" fill="url(#color-11)"/><path d="M319.88421,180.64912c0,-0.31526 0.14145,-0.57081 0.31593,-0.57081c0.17449,0 0.31593,0.25556 0.31593,0.57081c0,0.31526 -0.14145,0.5708 -0.31593,0.5708c-0.17449,0 -0.31593,-0.25555 -0.31593,-0.5708z" fill="#630000"/><path d="M319.98837,180.64912c0,-0.11696 0.09482,-0.21178 0.21177,-0.21178c0.11697,0 0.21178,0.09483 0.21178,0.21178c0,0.11696 -0.09482,0.21177 -0.21178,0.21177c-0.11697,0 -0.21177,-0.09482 -0.21177,-0.21177z" fill="#000000"/><path d="M319.03317,180.64912c0,-0.6445 0.52247,-1.16697 1.16697,-1.16697c0.6445,0 1.16698,0.52247 1.16698,1.16697c0,0.6445 -0.52248,1.16697 -1.16698,1.16697c-0.6445,0 -1.16697,-0.52247 -1.16697,-1.16697z" fill="url(#color-12)"/></g><g fill="#730000"><path d="M325.36014,180.64453c0,-1.10457 0.59051,-2 1.31895,-2h9.31506c0.72843,0 1.31895,0.89543 1.31895,2v2.625c0,1.10457 -0.59051,2 -1.31895,2h-9.31506c-0.72843,0 -1.31895,-0.89543 -1.31895,-2z" stroke="none"/><path d="M336.73605,183.89453v-3.875h1.31895v3.875z" stroke="#000000"/></g><path d="M299.57,180c0,-11.28317 9.14682,-20.43 20.43,-20.43c11.28318,0 20.43,9.14683 20.43,20.43c0,11.28318 -9.14682,20.43 -20.43,20.43c-11.28318,0 -20.43,-9.14683 -20.43,-20.43z" fill="url(#color-13)" stroke="#000000"/></g></g></svg>