<svg version="1.1" xmlns="http://www.w3.org/2000/svg" xmlns:xlink="http://www.w3.org/1999/xlink" width="338.43393" height="265.98589" viewBox="0,0,338.43393,265.98589"><g transform="translate(-23.54028,-79.01412)"><g data-paper-data="{&quot;isPaintingLayer&quot;:true}" fill-rule="nonzero" stroke-linecap="butt" stroke-linejoin="miter" stroke-miterlimit="10" stroke-dasharray="" stroke-dashoffset="0" style="mix-blend-mode: normal"><text transform="translate(320,112.92547) scale(0.57646,0.57646)" font-size="40" xml:space="preserve" fill-opacity="0.9098" fill="#00631b" fill-rule="nonzero" stroke-opacity="0.9098" stroke="#00631b" stroke-width="1" stroke-linecap="butt" stroke-linejoin="miter" stroke-miterlimit="10" stroke-dasharray="" stroke-dashoffset="0" font-family="&quot;MV Boli&quot;, Technological" font-weight="normal" text-anchor="middle" style="mix-blend-mode: normal"><tspan x="0" dy="0">Defense</tspan></text><path d="M26.5403,306.25198c0,-56.13369 0,-161.65954 0,-191.73963c0,-15.72281 6.40994,-32.49823 12.40348,-32.49823c11.69454,0 53.28501,0 74.06261,0c7.27129,0 11.99361,18.71633 11.99361,35.74803c0,28.96936 0,122.01298 0,178.74035c0,26.80223 -7.73689,45.49751 -14.60759,45.49751c-12.19267,0 -52.3254,0 -72.31996,0c-7.00033,0 -11.53217,-14.2527 -11.53217,-35.74802z" fill-opacity="0.70196" fill="#000000" stroke="#000000" stroke-width="6"/><text transform="translate(75.77014,96.37726) scale(0.31461,0.31461)" font-size="40" xml:space="preserve" fill-opacity="0.9098" fill="#ffffff" fill-rule="nonzero" stroke-opacity="0.9098" stroke="#ffffff" stroke-width="1" stroke-linecap="butt" stroke-linejoin="miter" stroke-miterlimit="10" stroke-dasharray="" stroke-dashoffset="0" font-family="&quot;MV Boli&quot;, Technological" font-weight="normal" text-anchor="middle" style="mix-blend-mode: normal"><tspan x="0" dy="0">Increases</tspan><tspan x="0" dy="48px">Base Defense</tspan><tspan x="0" dy="48px"> </tspan><tspan x="0" dy="48px">Any damage</tspan><tspan x="0" dy="48px">you take gets</tspan><tspan x="0" dy="48px">reduced by</tspan><tspan x="0" dy="48px">Defense</tspan></text></g></g></svg>