<svg version="1.1" xmlns="http://www.w3.org/2000/svg" xmlns:xlink="http://www.w3.org/1999/xlink" width="458.00996" height="325.69509" viewBox="0,0,458.00996,325.69509"><defs><linearGradient x1="298.15725" y1="194.30891" x2="298.15725" y2="37.83921" gradientUnits="userSpaceOnUse" id="color-1"><stop offset="0" stop-color="#140f1e"/><stop offset="1" stop-color="#000000"/></linearGradient><linearGradient x1="354.17327" y1="179.99999" x2="354.17327" y2="23.53029" gradientUnits="userSpaceOnUse" id="color-2"><stop offset="0" stop-color="#140f1e"/><stop offset="1" stop-color="#000000"/></linearGradient><linearGradient x1="280.65486" y1="168.57028" x2="124.18518" y2="168.57028" gradientUnits="userSpaceOnUse" id="color-3"><stop offset="0" stop-color="#140f1e"/><stop offset="1" stop-color="#000000"/></linearGradient><linearGradient x1="292.56017" y1="168.57028" x2="114.92551" y2="168.57028" gradientUnits="userSpaceOnUse" id="color-4"><stop offset="0" stop-color="#140f1e"/><stop offset="1" stop-color="#000000"/></linearGradient><linearGradient x1="350.89213" y1="173.76865" x2="528.52682" y2="173.76865" gradientUnits="userSpaceOnUse" id="color-5"><stop offset="0" stop-color="#140f1e"/><stop offset="1" stop-color="#000000"/></linearGradient><linearGradient x1="317.44888" y1="81.78123" x2="317.44888" y2="284.72675" gradientUnits="userSpaceOnUse" id="color-6"><stop offset="0" stop-color="#261c37"/><stop offset="1" stop-color="#000000"/></linearGradient><radialGradient cx="303.36116" cy="141.09107" r="22.70629" gradientUnits="userSpaceOnUse" id="color-7"><stop offset="0" stop-color="#000000" stop-opacity="0.54118"/><stop offset="1" stop-color="#000000" stop-opacity="0"/></radialGradient><radialGradient cx="348.77374" cy="141.09107" r="22.70628" gradientUnits="userSpaceOnUse" id="color-8"><stop offset="0" stop-color="#ff0000" stop-opacity="0.54118"/><stop offset="1" stop-color="#ff0000" stop-opacity="0"/></radialGradient><radialGradient cx="317.44888" cy="188.35627" r="23.81061" gradientUnits="userSpaceOnUse" id="color-9"><stop offset="0" stop-color="#000000"/><stop offset="1" stop-color="#000000" stop-opacity="0"/></radialGradient><radialGradient cx="293.63827" cy="211.27573" r="23.81061" gradientUnits="userSpaceOnUse" id="color-10"><stop offset="0" stop-color="#000000"/><stop offset="1" stop-color="#000000" stop-opacity="0"/></radialGradient><radialGradient cx="356.14112" cy="223.99063" r="23.81061" gradientUnits="userSpaceOnUse" id="color-11"><stop offset="0" stop-color="#000000"/><stop offset="1" stop-color="#000000" stop-opacity="0"/></radialGradient><radialGradient cx="317.44888" cy="234.19518" r="23.81061" gradientUnits="userSpaceOnUse" id="color-12"><stop offset="0" stop-color="#000000"/><stop offset="1" stop-color="#000000" stop-opacity="0"/></radialGradient><radialGradient cx="269.82768" cy="234.19518" r="23.81061" gradientUnits="userSpaceOnUse" id="color-13"><stop offset="0" stop-color="#000000"/><stop offset="1" stop-color="#000000" stop-opacity="0"/></radialGradient><radialGradient cx="269.82768" cy="257.11463" r="23.81061" gradientUnits="userSpaceOnUse" id="color-14"><stop offset="0" stop-color="#000000"/><stop offset="1" stop-color="#000000" stop-opacity="0"/></radialGradient><radialGradient cx="308.51991" cy="257.11463" r="23.81061" gradientUnits="userSpaceOnUse" id="color-15"><stop offset="0" stop-color="#000000"/><stop offset="1" stop-color="#000000" stop-opacity="0"/></radialGradient><radialGradient cx="341.25948" cy="257.11463" r="16.0657" gradientUnits="userSpaceOnUse" id="color-16"><stop offset="0" stop-color="#000000"/><stop offset="1" stop-color="#000000" stop-opacity="0"/></radialGradient><radialGradient cx="379.95173" cy="251.25711" r="34.86554" gradientUnits="userSpaceOnUse" id="color-17"><stop offset="0" stop-color="#000000"/><stop offset="1" stop-color="#000000" stop-opacity="0"/></radialGradient><radialGradient cx="379.95173" cy="223.99063" r="23.81061" gradientUnits="userSpaceOnUse" id="color-18"><stop offset="0" stop-color="#000000"/><stop offset="1" stop-color="#000000" stop-opacity="0"/></radialGradient><radialGradient cx="341.25949" cy="206.17346" r="23.81061" gradientUnits="userSpaceOnUse" id="color-19"><stop offset="0" stop-color="#000000"/><stop offset="1" stop-color="#000000" stop-opacity="0"/></radialGradient><radialGradient cx="365.07008" cy="188.35627" r="23.81061" gradientUnits="userSpaceOnUse" id="color-20"><stop offset="0" stop-color="#000000"/><stop offset="1" stop-color="#000000" stop-opacity="0"/></radialGradient><radialGradient cx="343.81062" cy="202.91946" r="23.81061" gradientUnits="userSpaceOnUse" id="color-21"><stop offset="0" stop-color="#000000"/><stop offset="1" stop-color="#000000" stop-opacity="0"/></radialGradient><radialGradient cx="308.51989" cy="223.99063" r="23.03282" gradientUnits="userSpaceOnUse" id="color-22"><stop offset="0" stop-color="#000000"/><stop offset="1" stop-color="#000000" stop-opacity="0"/></radialGradient><radialGradient cx="280.65486" cy="186.71682" r="23.81061" gradientUnits="userSpaceOnUse" id="color-23"><stop offset="0" stop-color="#000000"/><stop offset="1" stop-color="#000000" stop-opacity="0"/></radialGradient><radialGradient cx="284.7093" cy="223.99063" r="23.81061" gradientUnits="userSpaceOnUse" id="color-24"><stop offset="0" stop-color="#000000"/><stop offset="1" stop-color="#000000" stop-opacity="0"/></radialGradient><radialGradient cx="256.8443" cy="178.04178" r="23.81061" gradientUnits="userSpaceOnUse" id="color-25"><stop offset="0" stop-color="#000000"/><stop offset="1" stop-color="#000000" stop-opacity="0"/></radialGradient><radialGradient cx="260.89869" cy="201.07118" r="23.81061" gradientUnits="userSpaceOnUse" id="color-26"><stop offset="0" stop-color="#000000"/><stop offset="1" stop-color="#000000" stop-opacity="0"/></radialGradient><radialGradient cx="233.03368" cy="163.79737" r="34.86554" gradientUnits="userSpaceOnUse" id="color-27"><stop offset="0" stop-color="#000000"/><stop offset="1" stop-color="#000000" stop-opacity="0"/></radialGradient><radialGradient cx="205.53257" cy="170.69669" r="16.0657" gradientUnits="userSpaceOnUse" id="color-28"><stop offset="0" stop-color="#000000"/><stop offset="1" stop-color="#000000" stop-opacity="0"/></radialGradient><radialGradient cx="403.76232" cy="178.15173" r="34.86554" gradientUnits="userSpaceOnUse" id="color-29"><stop offset="0" stop-color="#000000"/><stop offset="1" stop-color="#000000" stop-opacity="0"/></radialGradient><radialGradient cx="450.81162" cy="171.75221" r="16.0657" gradientUnits="userSpaceOnUse" id="color-30"><stop offset="0" stop-color="#000000"/><stop offset="1" stop-color="#000000" stop-opacity="0"/></radialGradient><radialGradient cx="371.48002" cy="95.46534" r="23.81061" gradientUnits="userSpaceOnUse" id="color-31"><stop offset="0" stop-color="#000000"/><stop offset="1" stop-color="#000000" stop-opacity="0"/></radialGradient><radialGradient cx="371.48002" cy="72.54589" r="23.81061" gradientUnits="userSpaceOnUse" id="color-32"><stop offset="0" stop-color="#000000"/><stop offset="1" stop-color="#000000" stop-opacity="0"/></radialGradient><radialGradient cx="352.15683" cy="91.9858" r="23.81061" gradientUnits="userSpaceOnUse" id="color-33"><stop offset="0" stop-color="#000000"/><stop offset="1" stop-color="#000000" stop-opacity="0"/></radialGradient><radialGradient cx="347.66942" cy="49.62644" r="23.81061" gradientUnits="userSpaceOnUse" id="color-34"><stop offset="0" stop-color="#000000"/><stop offset="1" stop-color="#000000" stop-opacity="0"/></radialGradient><radialGradient cx="371.48002" cy="49.62644" r="23.81061" gradientUnits="userSpaceOnUse" id="color-35"><stop offset="0" stop-color="#000000"/><stop offset="1" stop-color="#000000" stop-opacity="0"/></radialGradient><radialGradient cx="323.8588" cy="95.46534" r="23.81061" gradientUnits="userSpaceOnUse" id="color-36"><stop offset="0" stop-color="#000000"/><stop offset="1" stop-color="#000000" stop-opacity="0"/></radialGradient><radialGradient cx="280.65488" cy="155.12233" r="23.81061" gradientUnits="userSpaceOnUse" id="color-37"><stop offset="0" stop-color="#000000"/><stop offset="1" stop-color="#000000" stop-opacity="0"/></radialGradient><radialGradient cx="260.89869" cy="132.31283" r="23.81061" gradientUnits="userSpaceOnUse" id="color-38"><stop offset="0" stop-color="#000000"/><stop offset="1" stop-color="#000000" stop-opacity="0"/></radialGradient><radialGradient cx="260.89869" cy="132.31283" r="16.0657" gradientUnits="userSpaceOnUse" id="color-39"><stop offset="0" stop-color="#000000"/><stop offset="1" stop-color="#000000" stop-opacity="0"/></radialGradient><radialGradient cx="320" cy="180" r="149.66667" gradientUnits="userSpaceOnUse" id="color-40"><stop offset="0" stop-color="#171122"/><stop offset="1" stop-color="#171122" stop-opacity="0"/></radialGradient></defs><g transform="translate(-92.72117,-3.97158)"><g data-paper-data="{&quot;isPaintingLayer&quot;:true}" fill-rule="nonzero" stroke="none" stroke-width="0" stroke-linecap="butt" stroke-linejoin="miter" stroke-miterlimit="10" stroke-dasharray="" stroke-dashoffset="0" style="mix-blend-mode: normal"><path d="M284.7093,194.30892c0,0 0,-69.96031 0,-85.88826c0,-6.13825 2.30453,-28.91288 2.30453,-28.91288c0,0 6.27498,-61.22728 8.50379,-61.22728c0.56684,0 3.35047,37.62764 5.71033,45.1017c5.38772,17.06378 11.00866,37.38504 11.00866,37.38504c0,0 3.40151,3.06136 3.40151,10.20454c0,16.66743 0,83.33713 0,83.33713h-30.92882z" data-paper-data="{&quot;index&quot;:null}" fill="url(#color-1)"/><path d="M367.62123,179.99999h-30.92882c0,0 0,-66.6697 0,-83.33713c0,-7.14318 3.40151,-10.20454 3.40151,-10.20454c0,0 5.62094,-20.32126 11.00866,-37.38504c2.35986,-7.47406 5.14349,-45.1017 5.71033,-45.1017c2.22881,0 8.50379,61.22728 8.50379,61.22728c0,0 2.30453,22.77463 2.30453,28.91288c0,15.92795 0,85.88826 0,85.88826z" fill="url(#color-2)"/><path d="M280.65486,155.12232v30.92882c0,0 -66.6697,0 -83.33712,0c-7.14318,0 -10.20454,-3.40152 -10.20454,-3.40152c0,0 -20.32126,-5.62095 -37.38504,-11.00866c-7.47406,-2.35986 -45.10171,-5.1435 -45.10171,-5.71033c0,-2.22881 61.22728,-8.50378 61.22728,-8.50378c0,0 22.77463,-2.30453 28.91288,-2.30453c15.92795,0 85.88826,0 85.88826,0z" fill="url(#color-3)"/><path d="M292.56017,155.12232v30.92882c0,0 -75.68782,0 -94.60977,0c-8.10941,0 -11.58486,-3.40152 -11.58486,-3.40152c0,0 -23.07003,-5.62095 -42.44195,-11.00866c-8.48504,-2.35986 -51.20242,-5.1435 -51.20242,-5.71033c0,-2.22881 69.50923,-8.50378 69.50923,-8.50378c0,0 25.85526,-2.30453 32.8238,-2.30453c18.08246,0 97.506,0 97.506,0z" fill="url(#color-4)"/><path d="M350.89213,187.21661v-30.92882c0,0 75.68782,0 94.60978,0c8.10941,0 11.58486,3.40151 11.58486,3.40151c0,0 23.07003,5.62094 42.44195,11.00866c8.48504,2.35986 51.20241,5.14349 51.20241,5.71033c0,2.22881 -69.50923,8.50379 -69.50923,8.50379c0,0 -25.85526,2.30453 -32.8238,2.30453c-18.08246,0 -97.506,0 -97.506,0z" fill="url(#color-5)"/><path d="M268.5521,280.69653c0,0 -13.60606,-26.39848 -13.60606,-43.39415c0,-28.08423 17.87124,-95.92015 21.42819,-129.36729c0.93877,-8.82751 20.24036,-10.40571 20.24036,-10.40571c0,0 44.21601,-11.43083 57.69394,-14.84942c7.10933,-1.80324 12.03713,-0.33541 12.03713,-0.33541c0,0 5.5657,3.20906 6.27618,14.39357c2.33299,36.72653 7.32989,118.51643 7.32989,145.30955c0,15.95346 -8.50379,38.64889 -8.50379,38.64889c0,0 -6.33414,-24.53225 -14.50261,-27.69621c-2.28661,-0.8857 -5.50071,21.77015 -7.80552,20.48087c-2.93147,-1.63984 -2.62933,-11.51421 -5.76319,-12.2425c-2.43831,-0.56664 -3.24551,19.51321 -5.77678,18.41871c-2.6713,-1.15504 -4.53804,-26.73795 -7.25262,-27.29534c-2.84719,-0.58462 -2.35581,20.62215 -5.29137,19.96501c-2.50056,-0.55978 -7.54311,-20.86011 -9.99646,-20.99531c-2.87344,-0.15835 -4.01459,33.75585 -6.78302,33.3921c-3.17989,-0.41781 -4.58425,-19.71728 -7.55611,-19.90817c-3.95977,-0.25437 -6.0139,13.68826 -9.43422,13.35047c-2.08733,-0.20614 -3.20425,-21.19594 -5.02269,-21.19594c-1.87369,0 -4.43554,23.72631 -5.95265,23.72631c-2.61785,0 -2.95629,-22.77726 -4.25189,-22.77726c-3.11009,0 -7.5067,22.77726 -7.5067,22.77726z" fill="url(#color-6)"/><path d="M280.65486,141.09107c0,-12.54033 10.16595,-22.70629 22.70628,-22.70629c12.54033,0 22.70629,10.16595 22.70629,22.70629c0,12.54033 -10.16595,22.70629 -22.70629,22.70629c-12.54033,0 -22.70628,-10.16595 -22.70628,-22.70629z" fill="url(#color-7)"/><path d="M326.06746,141.09107c0,-12.54033 10.16595,-22.70629 22.70628,-22.70629c12.54034,0 22.70628,10.16595 22.70628,22.70629c0,12.54034 -10.16595,22.70629 -22.70628,22.70629c-12.54034,0 -22.70628,-10.16595 -22.70628,-22.70629z" fill="url(#color-8)"/><path d="M293.63827,179.04288c0,-2.18008 5.84259,2.28848 9.24353,1.70062c2.95839,-0.51137 3.4485,-6.09032 4.47816,-7.51998c1.76415,-2.44948 5.80687,-0.20315 8.52704,-1.56516c2.51718,-1.26037 3.65745,-6.22155 6.66415,-6.22155c2.27735,0 4.09144,7.096 5.65332,8.75439c2.54926,2.70678 4.42662,0.83298 6.54971,3.55198c2.47775,3.17319 6.5053,2.06402 6.5053,6.40197c0,2.18651 -0.65165,9.90153 -2.63848,11.51314c-3.06114,2.48303 -8.12348,-1.34449 -9.76584,1.42255c-2.3289,3.92373 2.72491,10.02454 -2.05212,10.02454c-1.52762,0 -8.42738,-3.19598 -12.15703,-2.12094c-5.00977,1.44404 -7.03554,7.1745 -8.66527,6.17495c-1.55773,-0.95539 -5.17838,-4.59437 -4.54575,-8.94763c0.52312,-3.59968 5.29908,-7.95668 4.58728,-9.29522c-0.77511,-1.45759 -5.38118,-0.36185 -8.55553,-3.41957c-2.52305,-2.43035 -3.82847,-9.05042 -3.82847,-10.45409z" fill="url(#color-9)"/><path d="M269.82766,201.96234c0,-2.18008 5.84259,2.28848 9.24353,1.70062c2.95839,-0.51137 3.4485,-6.09032 4.47816,-7.51998c1.76415,-2.44948 5.80687,-0.20315 8.52704,-1.56516c2.51718,-1.26037 3.65745,-6.22155 6.66415,-6.22155c2.27735,0 4.09144,7.096 5.65332,8.75439c2.54926,2.70678 4.42662,0.83298 6.54971,3.55198c2.47775,3.17319 6.5053,2.06402 6.5053,6.40197c0,2.18651 -0.65165,9.90153 -2.63848,11.51314c-3.06114,2.48303 -8.12348,-1.34449 -9.76584,1.42255c-2.3289,3.92373 2.72491,10.02454 -2.05212,10.02454c-1.52762,0 -8.42738,-3.19598 -12.15703,-2.12094c-5.00977,1.44404 -7.03554,7.1745 -8.66527,6.17495c-1.55773,-0.95539 -5.17838,-4.59437 -4.54575,-8.94763c0.52312,-3.59968 5.29908,-7.95668 4.58728,-9.29522c-0.77511,-1.45759 -5.38118,-0.36185 -8.55553,-3.41957c-2.52305,-2.43035 -3.82847,-9.05042 -3.82847,-10.45409z" fill="url(#color-10)"/><path d="M332.3305,214.67724c0,-2.18008 5.84259,2.28848 9.24353,1.70062c2.95839,-0.51137 3.4485,-6.09032 4.47816,-7.51998c1.76415,-2.44948 5.80687,-0.20315 8.52704,-1.56516c2.51718,-1.26037 3.65745,-6.22155 6.66415,-6.22155c2.27735,0 4.09144,7.096 5.65332,8.75439c2.54926,2.70678 4.42662,0.83298 6.54971,3.55198c2.47775,3.17319 6.5053,2.06402 6.5053,6.40197c0,2.18651 -0.65165,9.90153 -2.63848,11.51314c-3.06114,2.48303 -8.12348,-1.34449 -9.76584,1.42255c-2.3289,3.92373 2.72491,10.02454 -2.05212,10.02454c-1.52762,0 -8.42738,-3.19598 -12.15703,-2.12094c-5.00977,1.44404 -7.03554,7.1745 -8.66527,6.17495c-1.55773,-0.95539 -5.17838,-4.59437 -4.54575,-8.94763c0.52312,-3.59968 5.29908,-7.95668 4.58728,-9.29522c-0.77511,-1.45759 -5.38118,-0.36185 -8.55553,-3.41957c-2.52305,-2.43035 -3.82847,-9.05042 -3.82847,-10.45409z" fill="url(#color-11)"/><path d="M293.63827,224.88179c0,-2.18008 5.84259,2.28848 9.24353,1.70062c2.95839,-0.51137 3.4485,-6.09032 4.47816,-7.51998c1.76415,-2.44948 5.80687,-0.20315 8.52704,-1.56516c2.51718,-1.26037 3.65745,-6.22155 6.66415,-6.22155c2.27735,0 4.09144,7.096 5.65332,8.75439c2.54926,2.70678 4.42662,0.83298 6.54971,3.55198c2.47775,3.17319 6.5053,2.06402 6.5053,6.40197c0,2.18651 -0.65165,9.90153 -2.63848,11.51314c-3.06114,2.48303 -8.12348,-1.34449 -9.76584,1.42255c-2.3289,3.92373 2.72491,10.02454 -2.05212,10.02454c-1.52762,0 -8.42738,-3.19598 -12.15703,-2.12094c-5.00977,1.44404 -7.03554,7.1745 -8.66527,6.17495c-1.55773,-0.95539 -5.17838,-4.59437 -4.54575,-8.94763c0.52312,-3.59968 5.29908,-7.95668 4.58728,-9.29522c-0.77511,-1.45759 -5.38118,-0.36185 -8.55553,-3.41957c-2.52305,-2.43035 -3.82847,-9.05042 -3.82847,-10.45409z" fill="url(#color-12)"/><path d="M246.01706,224.88179c0,-2.18008 5.84259,2.28848 9.24353,1.70062c2.95839,-0.51137 3.4485,-6.09032 4.47816,-7.51998c1.76415,-2.44948 5.80687,-0.20315 8.52704,-1.56516c2.51718,-1.26037 3.65745,-6.22155 6.66415,-6.22155c2.27735,0 4.09144,7.096 5.65332,8.75439c2.54926,2.70678 4.42662,0.83298 6.54971,3.55198c2.47775,3.17319 6.5053,2.06402 6.5053,6.40197c0,2.18651 -0.65165,9.90153 -2.63848,11.51314c-3.06114,2.48303 -8.12348,-1.34449 -9.76584,1.42255c-2.3289,3.92373 2.72491,10.02454 -2.05212,10.02454c-1.52762,0 -8.42738,-3.19598 -12.15703,-2.12094c-5.00977,1.44404 -7.03554,7.1745 -8.66527,6.17495c-1.55773,-0.95539 -5.17838,-4.59437 -4.54575,-8.94763c0.52312,-3.59968 5.29908,-7.95668 4.58728,-9.29522c-0.77511,-1.45759 -5.38118,-0.36185 -8.55553,-3.41957c-2.52305,-2.43035 -3.82847,-9.05042 -3.82847,-10.45409z" fill="url(#color-13)"/><path d="M246.01706,247.80124c0,-2.18008 5.84259,2.28848 9.24353,1.70062c2.95839,-0.51137 3.4485,-6.09032 4.47816,-7.51998c1.76415,-2.44948 5.80687,-0.20315 8.52704,-1.56516c2.51718,-1.26037 3.65745,-6.22155 6.66415,-6.22155c2.27735,0 4.09144,7.096 5.65332,8.75439c2.54926,2.70678 4.42662,0.83298 6.54971,3.55198c2.47775,3.17319 6.5053,2.06402 6.5053,6.40197c0,2.18651 -0.65165,9.90153 -2.63848,11.51314c-3.06114,2.48303 -8.12348,-1.34449 -9.76584,1.42255c-2.3289,3.92373 2.72491,10.02454 -2.05212,10.02454c-1.52762,0 -8.42738,-3.19598 -12.15703,-2.12094c-5.00977,1.44404 -7.03554,7.1745 -8.66527,6.17495c-1.55773,-0.95539 -5.17838,-4.59437 -4.54575,-8.94763c0.52312,-3.59968 5.29908,-7.95668 4.58728,-9.29522c-0.77511,-1.45759 -5.38118,-0.36185 -8.55553,-3.41957c-2.52305,-2.43035 -3.82847,-9.05042 -3.82847,-10.45409z" fill="url(#color-14)"/><path d="M284.7093,247.80124c0,-2.18008 5.84259,2.28848 9.24353,1.70062c2.95839,-0.51137 3.4485,-6.09032 4.47816,-7.51998c1.76415,-2.44948 5.80687,-0.20315 8.52704,-1.56516c2.51718,-1.26037 3.65745,-6.22155 6.66415,-6.22155c2.27735,0 4.09144,7.096 5.65332,8.75439c2.54926,2.70678 4.42662,0.83298 6.54971,3.55198c2.47775,3.17319 6.5053,2.06402 6.5053,6.40197c0,2.18651 -0.65165,9.90153 -2.63848,11.51314c-3.06114,2.48303 -8.12348,-1.34449 -9.76584,1.42255c-2.3289,3.92373 2.72491,10.02454 -2.05212,10.02454c-1.52762,0 -8.42738,-3.19598 -12.15703,-2.12094c-5.00977,1.44404 -7.03554,7.1745 -8.66527,6.17495c-1.55773,-0.95539 -5.17838,-4.59437 -4.54575,-8.94763c0.52312,-3.59968 5.29908,-7.95668 4.58728,-9.29522c-0.77511,-1.45759 -5.38118,-0.36185 -8.55553,-3.41957c-2.52305,-2.43035 -3.82847,-9.05042 -3.82847,-10.45409z" fill="url(#color-15)"/><path d="M325.19377,250.83062c0,-1.47096 3.94216,1.5441 6.23687,1.14746c1.99611,-0.34504 2.3268,-4.10931 3.02154,-5.07395c1.19032,-1.65273 3.91806,-0.13707 5.75344,-1.05606c1.69841,-0.85041 2.46779,-4.19786 4.49649,-4.19786c1.53659,0 2.76061,4.78787 3.81446,5.90684c1.72006,1.82634 2.98677,0.56204 4.41928,2.39662c1.67181,2.14104 4.38931,1.39265 4.38931,4.31959c0,1.4753 -0.43969,6.68085 -1.78026,7.76825c-2.06544,1.67537 -5.48114,-0.90717 -6.58929,0.95984c-1.57138,2.64745 1.83857,6.76384 -1.38462,6.76384c-1.03073,0 -5.68619,-2.15642 -8.2027,-1.43106c-3.38024,0.97434 -4.74708,4.84084 -5.84671,4.16642c-1.05105,-0.64463 -3.494,-3.09995 -3.06715,-6.03722c0.35296,-2.42881 3.57544,-5.3686 3.09517,-6.27175c-0.52299,-0.98348 -3.63084,-0.24415 -5.77266,-2.30728c-1.70237,-1.63983 -2.58318,-6.10658 -2.58318,-7.05367z" fill="url(#color-16)"/><path d="M345.08619,237.61965c0,-3.19226 8.55522,3.35099 13.53517,2.49019c4.33193,-0.74879 5.04959,-8.91797 6.55731,-11.0114c2.58322,-3.58674 8.50292,-0.29747 12.48602,-2.29184c3.68587,-1.84554 5.35555,-9.11013 9.75822,-9.11013c3.33469,0 5.99104,10.39057 8.27808,12.81893c3.73285,3.9635 6.48184,1.21972 9.59065,5.20111c3.62813,4.64646 9.52562,3.02232 9.52562,9.37431c0,3.20168 -0.9542,14.49867 -3.86349,16.85853c-4.48238,3.63587 -11.8951,-1.96872 -14.29998,2.08302c-3.41018,5.74546 3.99005,14.67879 -3.00489,14.67879c-2.23687,0 -12.34009,-4.67983 -17.80137,-3.10566c-7.33573,2.11449 -10.30204,10.50552 -12.68843,9.04189c-2.28096,-1.39896 -7.58263,-6.72747 -6.65628,-13.10189c0.766,-5.27096 7.75937,-11.65085 6.71709,-13.61086c-1.13498,-2.13433 -7.87959,-0.52985 -12.52774,-5.00723c-3.69447,-3.55873 -5.60597,-13.2524 -5.60597,-15.30777z" fill="url(#color-17)"/><path d="M356.14112,214.67724c0,-2.18008 5.84259,2.28848 9.24353,1.70062c2.95839,-0.51137 3.4485,-6.09032 4.47816,-7.51998c1.76415,-2.44948 5.80687,-0.20315 8.52704,-1.56516c2.51718,-1.26037 3.65745,-6.22155 6.66415,-6.22155c2.27735,0 4.09144,7.096 5.65332,8.75439c2.54926,2.70678 4.42662,0.83298 6.54971,3.55198c2.47775,3.17319 6.5053,2.06402 6.5053,6.40197c0,2.18651 -0.65165,9.90153 -2.63848,11.51314c-3.06114,2.48303 -8.12348,-1.34449 -9.76584,1.42255c-2.3289,3.92373 2.72491,10.02454 -2.05212,10.02454c-1.52762,0 -8.42738,-3.19598 -12.15703,-2.12094c-5.00977,1.44404 -7.03554,7.1745 -8.66527,6.17495c-1.55773,-0.95539 -5.17838,-4.59437 -4.54575,-8.94763c0.52312,-3.59968 5.29908,-7.95668 4.58728,-9.29522c-0.77511,-1.45759 -5.38118,-0.36185 -8.55553,-3.41957c-2.52305,-2.43035 -3.82847,-9.05042 -3.82847,-10.45409z" fill="url(#color-18)"/><path d="M317.44885,196.86007c0,-2.18008 5.84259,2.28848 9.24353,1.70062c2.95839,-0.51137 3.4485,-6.09032 4.47816,-7.51998c1.76415,-2.44948 5.80687,-0.20315 8.52704,-1.56516c2.51718,-1.26037 3.65745,-6.22155 6.66415,-6.22155c2.27735,0 4.09144,7.096 5.65332,8.75439c2.54926,2.70678 4.42662,0.83298 6.54971,3.55198c2.47775,3.17319 6.5053,2.06402 6.5053,6.40197c0,2.18651 -0.65165,9.90153 -2.63848,11.51314c-3.06114,2.48303 -8.12348,-1.34449 -9.76584,1.42255c-2.3289,3.92373 2.72491,10.02454 -2.05212,10.02454c-1.52762,0 -8.42738,-3.19598 -12.15703,-2.12094c-5.00977,1.44404 -7.03554,7.1745 -8.66527,6.17495c-1.55773,-0.95539 -5.17838,-4.59437 -4.54575,-8.94763c0.52312,-3.59968 5.29908,-7.95668 4.58728,-9.29522c-0.77511,-1.45759 -5.38118,-0.36185 -8.55553,-3.41957c-2.52305,-2.43035 -3.82847,-9.05042 -3.82847,-10.45409z" fill="url(#color-19)"/><path d="M354.819,164.93407c1.54155,-1.54155 2.51314,5.74953 5.33364,7.73868c2.45349,1.7303 6.74496,-1.86805 8.48397,-2.15089c2.97949,-0.4846 4.24973,3.96243 7.13626,4.92279c2.67113,0.8887 6.98551,-1.81309 9.11157,0.31297c1.61033,1.61033 -2.12454,7.91071 -2.19279,10.18779c-0.11138,3.71658 2.54109,3.7191 2.11972,7.14297c-0.49175,3.99582 3.14046,6.05942 0.07307,9.12682c-1.5461,1.5461 -7.46223,6.54065 -10.00671,6.27533c-3.92032,-0.40879 -4.79347,-6.69487 -7.91139,-5.8996c-4.42128,1.12772 -5.16162,9.01522 -8.53949,5.63735c-1.08019,-1.08019 -3.69916,-8.21896 -7.09659,-10.09605c-4.56353,-2.52135 -10.04802,0.09826 -10.49362,-1.76092c-0.42592,-1.77704 -0.41296,-6.91038 3.1126,-9.54126c2.91526,-2.17546 9.37324,-1.87921 9.81641,-3.32902c0.48259,-1.57876 -3.5492,-4.06094 -3.63167,-8.46767c-0.06555,-3.50258 3.69248,-9.10675 4.68502,-10.0993z" fill="url(#color-20)"/><path d="M320.00001,193.60607c0,-2.18008 5.84259,2.28848 9.24353,1.70062c2.95839,-0.51137 3.4485,-6.09032 4.47816,-7.51998c1.76415,-2.44948 5.80687,-0.20315 8.52704,-1.56516c2.51718,-1.26037 3.65745,-6.22155 6.66415,-6.22155c2.27735,0 4.09144,7.096 5.65332,8.75439c2.54926,2.70678 4.42662,0.83298 6.54971,3.55198c2.47775,3.17319 6.5053,2.06402 6.5053,6.40197c0,2.18651 -0.65165,9.90153 -2.63848,11.51314c-3.06114,2.48303 -8.12348,-1.34449 -9.76584,1.42255c-2.3289,3.92373 2.72491,10.02454 -2.05212,10.02454c-1.52762,0 -8.42738,-3.19598 -12.15703,-2.12094c-5.00977,1.44404 -7.03554,7.1745 -8.66527,6.17495c-1.55773,-0.95539 -5.17838,-4.59437 -4.54575,-8.94763c0.52312,-3.59968 5.29908,-7.95668 4.58728,-9.29522c-0.77511,-1.45759 -5.38118,-0.36185 -8.55553,-3.41957c-2.52305,-2.43035 -3.82847,-9.05042 -3.82847,-10.45409z" fill="url(#color-21)"/><path d="M285.48708,214.98147c0,-2.10887 5.65174,2.21372 8.94158,1.64507c2.86175,-0.49467 3.33585,-5.89137 4.33188,-7.27433c1.70652,-2.36947 5.61718,-0.19651 8.2485,-1.51403c2.43495,-1.2192 3.53798,-6.01832 6.44646,-6.01832c2.20296,0 3.95779,6.8642 5.46865,8.46842c2.46599,2.61836 4.28202,0.80577 6.33576,3.43595c2.39681,3.06954 6.2928,1.9966 6.2928,6.19284c0,2.11509 -0.63036,9.57809 -2.55229,11.13705c-2.96115,2.40192 -7.85812,-1.30057 -9.44683,1.37608c-2.25282,3.79556 2.6359,9.69708 -1.98509,9.69708c-1.47772,0 -8.15209,-3.09158 -11.75991,-2.05166c-4.84612,1.39687 -6.80572,6.94014 -8.38221,5.97324c-1.50685,-0.92418 -5.00922,-4.44429 -4.39726,-8.65535c0.50603,-3.48209 5.12598,-7.69677 4.43743,-8.99158c-0.74979,-1.40998 -5.2054,-0.35003 -8.27606,-3.30787c-2.44063,-2.35096 -3.70341,-8.75478 -3.70341,-10.1126z" fill="url(#color-22)"/><path d="M256.84425,177.40343c0,-2.18008 5.84259,2.28848 9.24353,1.70062c2.95839,-0.51137 3.4485,-6.09032 4.47816,-7.51998c1.76415,-2.44948 5.80687,-0.20315 8.52704,-1.56516c2.51718,-1.26037 3.65745,-6.22155 6.66415,-6.22155c2.27735,0 4.09144,7.096 5.65332,8.75439c2.54926,2.70678 4.42662,0.83298 6.54971,3.55198c2.47775,3.17319 6.5053,2.06402 6.5053,6.40197c0,2.18651 -0.65165,9.90153 -2.63848,11.51314c-3.06114,2.48303 -8.12348,-1.34449 -9.76584,1.42255c-2.3289,3.92373 2.72491,10.02454 -2.05212,10.02454c-1.52762,0 -8.42738,-3.19598 -12.15703,-2.12094c-5.00977,1.44404 -7.03554,7.1745 -8.66527,6.17495c-1.55773,-0.95539 -5.17838,-4.59437 -4.54575,-8.94763c0.52312,-3.59968 5.29908,-7.95668 4.58728,-9.29522c-0.77511,-1.45759 -5.38118,-0.36185 -8.55553,-3.41957c-2.52305,-2.43035 -3.82847,-9.05042 -3.82847,-10.45409z" fill="url(#color-23)"/><path d="M262.59943,211.15168c0.33279,-2.15453 5.42478,3.15354 8.8756,3.09172c3.00178,-0.05378 4.33778,-5.49253 5.57361,-6.74825c2.11739,-2.15147 5.76983,0.68566 8.66603,-0.24516c2.68008,-0.86135 4.56431,-5.59032 7.53577,-5.13135c2.25066,0.34764 2.96028,7.6374 4.2507,9.51477c2.10619,3.0642 4.24759,1.49895 5.93074,4.51017c1.96432,3.51423 6.11398,3.03287 5.45179,7.31998c-0.33377,2.16088 -2.15549,9.68601 -4.36505,10.97544c-3.4043,1.98664 -7.82304,-2.56879 -9.86854,-0.08489c-2.90057,3.52224 1.16272,10.32301 -3.55833,9.5938c-1.50972,-0.23319 -7.84074,-4.44497 -11.69079,-3.95187c-5.17149,0.66237 -8.04828,6.01643 -9.50633,4.77982c-1.39363,-1.18198 -4.41635,-5.33101 -3.12661,-9.53668c1.06648,-3.47764 6.45157,-7.05452 5.95244,-8.48603c-0.54352,-1.55883 -5.26288,-1.17905 -7.93326,-4.6855c-2.12248,-2.78701 -2.40205,-9.52877 -2.18777,-10.91599z" fill="url(#color-24)"/><path d="M233.03369,168.72839c0,-2.18008 5.84259,2.28848 9.24353,1.70062c2.95839,-0.51137 3.4485,-6.09032 4.47816,-7.51998c1.76415,-2.44948 5.80687,-0.20315 8.52704,-1.56516c2.51718,-1.26037 3.65745,-6.22155 6.66415,-6.22155c2.27735,0 4.09144,7.096 5.65332,8.75439c2.54926,2.70678 4.42662,0.83298 6.54971,3.55198c2.47775,3.17319 6.5053,2.06402 6.5053,6.40197c0,2.18651 -0.65165,9.90153 -2.63848,11.51314c-3.06114,2.48303 -8.12348,-1.34449 -9.76584,1.42255c-2.3289,3.92373 2.72491,10.02454 -2.05212,10.02454c-1.52762,0 -8.42738,-3.19598 -12.15703,-2.12094c-5.00977,1.44404 -7.03554,7.1745 -8.66527,6.17495c-1.55773,-0.95539 -5.17838,-4.59437 -4.54575,-8.94763c0.52312,-3.59968 5.29908,-7.95668 4.58728,-9.29522c-0.77511,-1.45759 -5.38118,-0.36185 -8.55553,-3.41957c-2.52305,-2.43035 -3.82847,-9.05042 -3.82847,-10.45409z" fill="url(#color-25)"/><path d="M235.64953,197.05073c-0.46499,-2.12991 6.19626,0.98964 9.39355,-0.31009c2.78124,-1.13061 2.07012,-6.68571 2.77115,-8.30209c1.2011,-2.76939 5.62991,-1.43704 7.99698,-3.3479c2.19043,-1.76826 2.24628,-6.85849 5.18379,-7.4998c2.22494,-0.48574 5.51081,6.06004 7.39047,7.34713c3.06793,2.10075 4.50242,-0.13035 7.1566,2.07324c3.09755,2.57168 6.79584,0.62899 7.7211,4.86712c0.46637,2.13619 1.47527,9.81267 -0.1221,11.81097c-2.46109,3.07881 -8.22332,0.41913 -9.23769,3.4728c-1.43841,4.33018 4.80037,9.21266 0.13326,10.23156c-1.49247,0.32583 -8.91513,-1.32494 -12.32966,0.52087c-4.58648,2.47936 -5.34337,8.51003 -7.1488,7.88109c-1.72566,-0.60115 -6.03916,-3.38414 -6.34961,-7.77216c-0.2567,-3.62842 3.48004,-8.90384 2.49912,-10.05975c-1.06817,-1.25872 -5.33453,0.79424 -9.08802,-1.51605c-2.98337,-1.83628 -5.67076,-8.02557 -5.97015,-9.39694z" fill="url(#color-26)"/><path d="M198.16813,150.15991c0,-3.19226 8.55522,3.35099 13.53517,2.49019c4.33193,-0.74879 5.04959,-8.91797 6.55731,-11.0114c2.58322,-3.58674 8.50292,-0.29747 12.48602,-2.29184c3.68587,-1.84554 5.35555,-9.11013 9.75822,-9.11013c3.33469,0 5.99104,10.39057 8.27808,12.81893c3.73285,3.9635 6.48184,1.21972 9.59065,5.20111c3.62813,4.64646 9.52562,3.02232 9.52562,9.37431c0,3.20168 -0.9542,14.49867 -3.86349,16.85853c-4.48238,3.63587 -11.8951,-1.96872 -14.29998,2.08302c-3.41018,5.74546 3.99005,14.67879 -3.00489,14.67879c-2.23687,0 -12.34009,-4.67983 -17.80137,-3.10566c-7.33573,2.11449 -10.30204,10.50552 -12.68843,9.04189c-2.28096,-1.39896 -7.58263,-6.72747 -6.65628,-13.10189c0.766,-5.27096 7.75937,-11.65085 6.71709,-13.61086c-1.13498,-2.13433 -7.87959,-0.52985 -12.52774,-5.00723c-3.69447,-3.55873 -5.60597,-13.2524 -5.60597,-15.30777z" fill="url(#color-27)"/><path d="M189.46689,164.41268c0,-1.47096 3.94216,1.5441 6.23687,1.14746c1.99611,-0.34504 2.3268,-4.10931 3.02154,-5.07395c1.19032,-1.65273 3.91806,-0.13707 5.75344,-1.05606c1.69841,-0.85041 2.46779,-4.19786 4.49649,-4.19786c1.53659,0 2.76061,4.78787 3.81446,5.90684c1.72006,1.82634 2.98677,0.56204 4.41928,2.39662c1.67181,2.14104 4.38931,1.39265 4.38931,4.31959c0,1.4753 -0.43969,6.68085 -1.78026,7.76825c-2.06544,1.67537 -5.48114,-0.90717 -6.58929,0.95984c-1.57138,2.64745 1.83857,6.76384 -1.38462,6.76384c-1.03073,0 -5.68619,-2.15642 -8.2027,-1.43106c-3.38024,0.97434 -4.74708,4.84084 -5.84671,4.16642c-1.05105,-0.64463 -3.494,-3.09995 -3.06715,-6.03722c0.35296,-2.42881 3.57544,-5.3686 3.09517,-6.27175c-0.52299,-0.98348 -3.63084,-0.24415 -5.77266,-2.30728c-1.70237,-1.63983 -2.58318,-6.10658 -2.58318,-7.05367z" fill="url(#color-28)"/><path d="M368.89678,164.51427c0,-3.19226 8.55522,3.35099 13.53517,2.49019c4.33193,-0.74879 5.04959,-8.91797 6.55731,-11.0114c2.58322,-3.58674 8.50292,-0.29747 12.48602,-2.29184c3.68587,-1.84554 5.35555,-9.11013 9.75822,-9.11013c3.33469,0 5.99104,10.39057 8.27808,12.81893c3.73285,3.9635 6.48184,1.21972 9.59065,5.20111c3.62813,4.64646 9.52562,3.02232 9.52562,9.37431c0,3.20168 -0.9542,14.49867 -3.86349,16.85853c-4.48238,3.63587 -11.8951,-1.96872 -14.29998,2.08302c-3.41018,5.74546 3.99005,14.67879 -3.00489,14.67879c-2.23687,0 -12.34009,-4.67983 -17.80137,-3.10566c-7.33573,2.11449 -10.30204,10.50552 -12.68843,9.04189c-2.28096,-1.39896 -7.58263,-6.72747 -6.65628,-13.10189c0.766,-5.27096 7.75937,-11.65085 6.71709,-13.61086c-1.13498,-2.13433 -7.87959,-0.52985 -12.52774,-5.00723c-3.69447,-3.55873 -5.60597,-13.2524 -5.60597,-15.30777z" fill="url(#color-29)"/><path d="M434.74592,165.4682c0,-1.47096 3.94216,1.5441 6.23687,1.14746c1.99611,-0.34504 2.3268,-4.10931 3.02154,-5.07395c1.19032,-1.65273 3.91806,-0.13707 5.75344,-1.05606c1.69841,-0.85041 2.46779,-4.19786 4.49649,-4.19786c1.53659,0 2.76061,4.78787 3.81446,5.90684c1.72006,1.82634 2.98677,0.56204 4.41928,2.39662c1.67181,2.14104 4.38931,1.39265 4.38931,4.31959c0,1.4753 -0.43969,6.68085 -1.78026,7.76825c-2.06544,1.67537 -5.48114,-0.90717 -6.58929,0.95984c-1.57138,2.64745 1.83857,6.76384 -1.38462,6.76384c-1.03073,0 -5.68619,-2.15642 -8.2027,-1.43106c-3.38024,0.97434 -4.74708,4.84084 -5.84671,4.16642c-1.05105,-0.64463 -3.494,-3.09995 -3.06715,-6.03722c0.35296,-2.42881 3.57544,-5.3686 3.09517,-6.27175c-0.52299,-0.98348 -3.63084,-0.24415 -5.77266,-2.30728c-1.70237,-1.63983 -2.58318,-6.10658 -2.58318,-7.05367z" fill="url(#color-30)"/><path d="M347.66941,86.15195c0,-2.18008 5.84259,2.28848 9.24353,1.70062c2.95839,-0.51137 3.4485,-6.09032 4.47816,-7.51998c1.76415,-2.44948 5.80687,-0.20315 8.52704,-1.56516c2.51718,-1.26037 3.65745,-6.22155 6.66415,-6.22155c2.27735,0 4.09144,7.096 5.65332,8.75439c2.54926,2.70678 4.42662,0.83298 6.54971,3.55198c2.47775,3.17319 6.5053,2.06402 6.5053,6.40197c0,2.18651 -0.65165,9.90153 -2.63848,11.51314c-3.06114,2.48303 -8.12348,-1.34449 -9.76584,1.42255c-2.3289,3.92373 2.72491,10.02454 -2.05212,10.02454c-1.52762,0 -8.42738,-3.19598 -12.15703,-2.12094c-5.00977,1.44404 -7.03554,7.1745 -8.66527,6.17495c-1.55773,-0.95539 -5.17838,-4.59437 -4.54575,-8.94763c0.52312,-3.59968 5.29908,-7.95668 4.58728,-9.29522c-0.77511,-1.45759 -5.38118,-0.36185 -8.55553,-3.41957c-2.52305,-2.43035 -3.82847,-9.05042 -3.82847,-10.45409z" fill="url(#color-31)"/><path d="M347.66941,63.2325c0,-2.18008 5.84259,2.28848 9.24353,1.70062c2.95839,-0.51137 3.4485,-6.09032 4.47816,-7.51998c1.76415,-2.44948 5.80687,-0.20315 8.52704,-1.56516c2.51718,-1.26037 3.65745,-6.22155 6.66415,-6.22155c2.27735,0 4.09144,7.096 5.65332,8.75439c2.54926,2.70678 4.42662,0.83298 6.54971,3.55198c2.47775,3.17319 6.5053,2.06402 6.5053,6.40197c0,2.18651 -0.65165,9.90153 -2.63848,11.51314c-3.06114,2.48303 -8.12348,-1.34449 -9.76584,1.42255c-2.3289,3.92373 2.72491,10.02454 -2.05212,10.02454c-1.52762,0 -8.42738,-3.19598 -12.15703,-2.12094c-5.00977,1.44404 -7.03554,7.1745 -8.66527,6.17495c-1.55773,-0.95539 -5.17838,-4.59437 -4.54575,-8.94763c0.52312,-3.59968 5.29908,-7.95668 4.58728,-9.29522c-0.77511,-1.45759 -5.38118,-0.36185 -8.55553,-3.41957c-2.52305,-2.43035 -3.82847,-9.05042 -3.82847,-10.45409z" fill="url(#color-32)"/><path d="M328.34621,82.67241c0,-2.18008 5.84259,2.28848 9.24353,1.70062c2.95839,-0.51137 3.4485,-6.09032 4.47816,-7.51998c1.76415,-2.44948 5.80687,-0.20315 8.52704,-1.56516c2.51718,-1.26037 3.65745,-6.22155 6.66415,-6.22155c2.27735,0 4.09144,7.096 5.65332,8.75439c2.54926,2.70678 4.42662,0.83298 6.54971,3.55198c2.47775,3.17319 6.5053,2.06402 6.5053,6.40197c0,2.18651 -0.65165,9.90153 -2.63848,11.51314c-3.06114,2.48303 -8.12348,-1.34449 -9.76584,1.42255c-2.3289,3.92373 2.72491,10.02454 -2.05212,10.02454c-1.52762,0 -8.42738,-3.19598 -12.15703,-2.12094c-5.00977,1.44404 -7.03554,7.1745 -8.66527,6.17495c-1.55773,-0.95539 -5.17838,-4.59437 -4.54575,-8.94763c0.52312,-3.59968 5.29908,-7.95668 4.58728,-9.29522c-0.77511,-1.45759 -5.38118,-0.36185 -8.55553,-3.41957c-2.52305,-2.43035 -3.82847,-9.05042 -3.82847,-10.45409z" fill="url(#color-33)"/><path d="M323.8588,40.31305c0,-2.18008 5.84259,2.28848 9.24353,1.70062c2.95839,-0.51137 3.4485,-6.09032 4.47816,-7.51998c1.76415,-2.44948 5.80687,-0.20315 8.52704,-1.56516c2.51718,-1.26037 3.65745,-6.22155 6.66415,-6.22155c2.27735,0 4.09144,7.096 5.65332,8.75439c2.54926,2.70678 4.42662,0.83298 6.54971,3.55198c2.47775,3.17319 6.5053,2.06402 6.5053,6.40197c0,2.18651 -0.65165,9.90153 -2.63848,11.51314c-3.06114,2.48303 -8.12348,-1.34449 -9.76584,1.42255c-2.3289,3.92373 2.72491,10.02454 -2.05212,10.02454c-1.52762,0 -8.42738,-3.19598 -12.15703,-2.12094c-5.00977,1.44404 -7.03554,7.1745 -8.66527,6.17495c-1.55773,-0.95539 -5.17838,-4.59437 -4.54575,-8.94763c0.52312,-3.59968 5.29908,-7.95668 4.58728,-9.29522c-0.77511,-1.45759 -5.38118,-0.36185 -8.55553,-3.41957c-2.52305,-2.43035 -3.82847,-9.05042 -3.82847,-10.45409z" fill="url(#color-34)"/><path d="M347.66941,40.31305c0,-2.18008 5.84259,2.28848 9.24353,1.70062c2.95839,-0.51137 3.4485,-6.09032 4.47816,-7.51998c1.76415,-2.44948 5.80687,-0.20315 8.52704,-1.56516c2.51718,-1.26037 3.65745,-6.22155 6.66415,-6.22155c2.27735,0 4.09144,7.096 5.65332,8.75439c2.54926,2.70678 4.42662,0.83298 6.54971,3.55198c2.47775,3.17319 6.5053,2.06402 6.5053,6.40197c0,2.18651 -0.65165,9.90153 -2.63848,11.51314c-3.06114,2.48303 -8.12348,-1.34449 -9.76584,1.42255c-2.3289,3.92373 2.72491,10.02454 -2.05212,10.02454c-1.52762,0 -8.42738,-3.19598 -12.15703,-2.12094c-5.00977,1.44404 -7.03554,7.1745 -8.66527,6.17495c-1.55773,-0.95539 -5.17838,-4.59437 -4.54575,-8.94763c0.52312,-3.59968 5.29908,-7.95668 4.58728,-9.29522c-0.77511,-1.45759 -5.38118,-0.36185 -8.55553,-3.41957c-2.52305,-2.43035 -3.82847,-9.05042 -3.82847,-10.45409z" fill="url(#color-35)"/><path d="M300.04819,86.15195c0,-2.18008 5.84259,2.28848 9.24353,1.70062c2.95839,-0.51137 3.4485,-6.09032 4.47816,-7.51998c1.76415,-2.44948 5.80687,-0.20315 8.52704,-1.56516c2.51718,-1.26037 3.65745,-6.22155 6.66415,-6.22155c2.27735,0 4.09144,7.096 5.65332,8.75439c2.54926,2.70678 4.42662,0.83298 6.54971,3.55198c2.47775,3.17319 6.5053,2.06402 6.5053,6.40197c0,2.18651 -0.65165,9.90153 -2.63848,11.51314c-3.06114,2.48303 -8.12348,-1.34449 -9.76584,1.42255c-2.3289,3.92373 2.72491,10.02454 -2.05212,10.02454c-1.52762,0 -8.42738,-3.19598 -12.15703,-2.12094c-5.00977,1.44404 -7.03554,7.1745 -8.66527,6.17495c-1.55773,-0.95539 -5.17838,-4.59437 -4.54575,-8.94763c0.52312,-3.59968 5.29908,-7.95668 4.58728,-9.29522c-0.77511,-1.45759 -5.38118,-0.36185 -8.55553,-3.41957c-2.52305,-2.43035 -3.82847,-9.05042 -3.82847,-10.45409z" fill="url(#color-36)"/><path d="M259.96475,140.10227c0.55009,-2.10954 5.07609,3.68867 8.51532,3.97797c2.9917,0.25166 4.87366,-5.02311 6.23074,-6.1467c2.32513,-1.92508 5.67023,1.26865 8.64606,0.63708c2.75375,-0.58444 5.10896,-5.09737 8.01837,-4.3387c2.20366,0.57463 2.16855,7.89877 3.26143,9.8976c1.78378,3.26244 4.0732,1.92298 5.44152,5.08971c1.5969,3.69571 5.774,3.63869 4.67942,7.83627c-0.55171,2.11576 -3.12898,9.41671 -5.45817,10.47484c-3.58862,1.63028 -7.52137,-3.35075 -9.80879,-1.08765c-3.2436,3.20913 0.10729,10.38773 -4.51517,9.18237c-1.47819,-0.38546 -7.34826,-5.21901 -11.22849,-5.11984c-5.21203,0.13322 -8.6182,5.1671 -9.94298,3.78867c-1.26626,-1.31753 -3.85154,-5.75235 -2.14094,-9.80512c1.41449,-3.35121 7.13529,-6.36213 6.78427,-7.83696c-0.38224,-1.60601 -5.11575,-1.70795 -7.41585,-5.4677c-1.82817,-2.98834 -1.42093,-9.72359 -1.06675,-11.08184z" fill="url(#color-37)"/><path d="M237.0881,122.99944c0,-2.18008 5.84259,2.28848 9.24353,1.70062c2.95839,-0.51137 3.4485,-6.09032 4.47816,-7.51998c1.76415,-2.44948 5.80687,-0.20315 8.52704,-1.56516c2.51718,-1.26037 3.65745,-6.22155 6.66415,-6.22155c2.27735,0 4.09144,7.096 5.65332,8.75439c2.54926,2.70678 4.42662,0.83298 6.54971,3.55198c2.47775,3.17319 6.5053,2.06402 6.5053,6.40197c0,2.18651 -0.65165,9.90153 -2.63848,11.51314c-3.06114,2.48303 -8.12348,-1.34449 -9.76584,1.42255c-2.3289,3.92373 2.72491,10.02454 -2.05212,10.02454c-1.52762,0 -8.42738,-3.19598 -12.15703,-2.12094c-5.00977,1.44404 -7.03554,7.1745 -8.66527,6.17495c-1.55773,-0.95539 -5.17838,-4.59437 -4.54575,-8.94763c0.52312,-3.59968 5.29908,-7.95668 4.58728,-9.29522c-0.77511,-1.45759 -5.38118,-0.36185 -8.55553,-3.41957c-2.52305,-2.43035 -3.82847,-9.05042 -3.82847,-10.45409z" fill="url(#color-38)"/><path d="M244.833,126.02882c0,-1.47096 3.94216,1.5441 6.23687,1.14746c1.99611,-0.34504 2.3268,-4.10931 3.02154,-5.07395c1.19032,-1.65273 3.91806,-0.13707 5.75344,-1.05606c1.69841,-0.85041 2.46779,-4.19786 4.49649,-4.19786c1.53659,0 2.76061,4.78787 3.81446,5.90684c1.72006,1.82634 2.98677,0.56204 4.41928,2.39662c1.67181,2.14104 4.38931,1.39265 4.38931,4.31959c0,1.4753 -0.43969,6.68085 -1.78026,7.76825c-2.06544,1.67537 -5.48114,-0.90717 -6.58929,0.95984c-1.57138,2.64745 1.83857,6.76384 -1.38462,6.76384c-1.03073,0 -5.68619,-2.15642 -8.2027,-1.43106c-3.38024,0.97434 -4.74708,4.84084 -5.84671,4.16642c-1.05105,-0.64463 -3.494,-3.09995 -3.06715,-6.03722c0.35296,-2.42881 3.57544,-5.3686 3.09517,-6.27175c-0.52299,-0.98348 -3.63084,-0.24415 -5.77266,-2.30728c-1.70237,-1.63983 -2.58318,-6.10658 -2.58318,-7.05367z" fill="url(#color-39)"/><path d="M170.33333,180c0,-82.6586 67.00805,-149.66667 149.66667,-149.66667c82.6586,0 149.66667,67.00805 149.66667,149.66667c0,82.6586 -67.00804,149.66667 -149.66667,149.66667c-82.6586,0 -149.66667,-67.00804 -149.66667,-149.66667z" fill="url(#color-40)"/></g></g></svg>