<svg version="1.1" xmlns="http://www.w3.org/2000/svg" xmlns:xlink="http://www.w3.org/1999/xlink" width="253.06502" height="349.18454" viewBox="0,0,253.06502,349.18454"><g transform="translate(4.06502,1.78273)"><g data-paper-data="{&quot;isPaintingLayer&quot;:true}" fill-rule="nonzero" stroke="#000000" stroke-linecap="butt" stroke-linejoin="miter" stroke-miterlimit="10" stroke-dasharray="" stroke-dashoffset="0" style="mix-blend-mode: normal"><path d="M128.91891,68.11749c0,-16.7472 0,-48.2303 0,-57.20454c0,-4.69082 7.62222,-9.69568 14.74931,-9.69568c13.9063,0 63.36265,0 88.06986,0c8.64649,0 14.26192,5.58392 14.26192,10.66524c0,8.64286 0,36.40195 0,53.32626c0,7.99632 -9.20015,13.57396 -17.37028,13.57396c-14.49864,0 -62.22154,0 -85.99762,0c-8.32429,0 -13.71321,-4.25222 -13.71321,-10.66524z" fill-opacity="0.70196" fill="#000000" stroke-width="6"/><path d="M-0.63002,68.11749c0,-16.7472 0,-48.2303 0,-57.20454c0,-4.69082 8.43391,-9.69568 16.31995,-9.69568c15.38716,0 70.11005,0 97.4483,0c9.56725,0 15.78066,5.58392 15.78066,10.66524c0,8.64286 0,36.40195 0,53.32626c0,7.99632 -10.17986,13.57396 -19.22002,13.57396c-16.04257,0 -68.84744,0 -95.1554,0c-9.21072,0 -15.17351,-4.25222 -15.17351,-10.66524z" fill-opacity="0.70196" fill="#000000" stroke-width="6"/><path d="M6.21794,343.65181c-3.60806,0 -6.53296,-9.68839 -6.53296,-21.63963v-221.58982c0,-11.95124 2.92491,-21.63963 6.53297,-21.63963h144.50921c3.60806,0 6.53296,9.68839 6.53296,21.63963v221.58982c0,11.95124 -2.92491,21.63963 -6.53296,21.63963z" fill-opacity="0.45098" fill="#000000" stroke-width="7.5"/></g></g></svg>