<svg version="1.1" xmlns="http://www.w3.org/2000/svg" xmlns:xlink="http://www.w3.org/1999/xlink" width="69.94598" height="36.55549" viewBox="0,0,69.94598,36.55549"><defs><radialGradient cx="171.49919" cy="151.383" r="16.76493" gradientUnits="userSpaceOnUse" id="color-1"><stop offset="0" stop-color="#2c7002" stop-opacity="0.24314"/><stop offset="1" stop-color="#2c7002" stop-opacity="0"/></radialGradient><radialGradient cx="167.62073" cy="152.25878" r="12.88648" gradientUnits="userSpaceOnUse" id="color-2"><stop offset="0" stop-color="#2c7002" stop-opacity="0.24314"/><stop offset="1" stop-color="#2c7002" stop-opacity="0"/></radialGradient><radialGradient cx="175.37764" cy="150.13189" r="12.88649" gradientUnits="userSpaceOnUse" id="color-3"><stop offset="0" stop-color="#2c7002" stop-opacity="0.24314"/><stop offset="1" stop-color="#2c7002" stop-opacity="0"/></radialGradient><radialGradient cx="171.99964" cy="152.25878" r="12.88647" gradientUnits="userSpaceOnUse" id="color-4"><stop offset="0" stop-color="#2c7002" stop-opacity="0.24314"/><stop offset="1" stop-color="#2c7002" stop-opacity="0"/></radialGradient><radialGradient cx="165.24361" cy="150.13189" r="12.88648" gradientUnits="userSpaceOnUse" id="color-5"><stop offset="0" stop-color="#2c7002" stop-opacity="0.24314"/><stop offset="1" stop-color="#2c7002" stop-opacity="0"/></radialGradient></defs><g transform="translate(-121.18836,-132.41065)"><g data-paper-data="{&quot;isPaintingLayer&quot;:true}" fill-rule="nonzero" stroke-linecap="butt" stroke-linejoin="miter" stroke-miterlimit="10" stroke-dasharray="" stroke-dashoffset="0" style="mix-blend-mode: normal"><path d="M133.04331,167.44052c-5.71888,0 -10.35495,-4.13788 -10.35495,-9.24221v-15.04545c0,-5.10433 4.63607,-9.24221 10.35495,-9.24221h46.23608c5.71889,0 10.35495,4.13788 10.35495,9.24221v15.04545c0,5.10433 -4.63607,9.24221 -10.35495,9.24221z" fill-opacity="0.70196" fill="#000000" stroke="#ffffff" stroke-width="3"/><text transform="translate(138.82379,144.14461) scale(0.21833,0.21833)" font-size="40" xml:space="preserve" fill-opacity="0.9098" fill="#00631b" fill-rule="nonzero" stroke-opacity="0.9098" stroke="#00631b" stroke-width="1" stroke-linecap="butt" stroke-linejoin="miter" stroke-miterlimit="10" stroke-dasharray="" stroke-dashoffset="0" font-family="&quot;MV Boli&quot;, Technological" font-weight="normal" text-anchor="middle" style="mix-blend-mode: normal"><tspan x="0" dy="0">Charge</tspan><tspan x="0" dy="48px">Shot</tspan></text><g fill="#ffffff" stroke="#ffffff" stroke-width="0" font-weight="normal" font-size="40" text-anchor="start"><text transform="translate(125.95711,163.58039) scale(0.21833,0.21833)" font-size="40" xml:space="preserve" fill="#ffffff" fill-rule="nonzero" stroke="#ffffff" stroke-width="0" stroke-linecap="butt" stroke-linejoin="miter" stroke-miterlimit="10" stroke-dasharray="" stroke-dashoffset="0" font-family="&quot;MV Boli&quot;, Technological" font-weight="normal" text-anchor="start" style="mix-blend-mode: normal"><tspan x="0" dy="0">Lv</tspan></text><text transform="translate(136.44946,163.60134) scale(0.3353,0.3353)" font-size="40" xml:space="preserve" fill="#ffffff" fill-rule="nonzero" stroke="#ffffff" stroke-width="0" stroke-linecap="butt" stroke-linejoin="miter" stroke-miterlimit="10" stroke-dasharray="" stroke-dashoffset="0" font-family="Handwriting" font-weight="normal" text-anchor="start" style="mix-blend-mode: normal"><tspan x="0" dy="0">.</tspan></text></g><g stroke="none"><path d="M154.73425,151.383c0,-9.25902 7.50592,-16.76494 16.76494,-16.76494c9.25902,0 16.76493,7.50592 16.76493,16.76494c0,9.25902 -7.50591,16.76493 -16.76493,16.76493c-9.25902,0 -16.76494,-7.50591 -16.76494,-16.76493z" fill="url(#color-1)" stroke-width="0"/><path d="M166.49472,155.69934c-2.21112,0 -4.00356,-1.79245 -4.00356,-4.00357v-0.62555c0,-2.21112 1.79245,-4.00357 4.00356,-4.00357h10.00892c2.21112,0 4.00357,1.79245 4.00357,4.00357v0.62555c0,2.21112 -1.79245,4.00357 -4.00357,4.00357z" fill="#9ff4a8" stroke-width="NaN"/><path d="M154.73425,152.25878c0,-7.11701 5.76948,-12.88648 12.88648,-12.88648c7.11701,0 12.88648,5.76948 12.88648,12.88648c0,7.11701 -5.76947,12.88647 -12.88648,12.88647c-7.11701,0 -12.88648,-5.76947 -12.88648,-12.88647z" fill="url(#color-2)" stroke-width="0"/><path d="M162.49116,150.13189c0,-7.11701 5.76947,-12.88648 12.88647,-12.88648c7.11701,0 12.88649,5.76948 12.88649,12.88648c0,7.11701 -5.76949,12.88647 -12.88649,12.88647c-7.11701,0 -12.88647,-5.76947 -12.88647,-12.88647z" fill="url(#color-3)" stroke-width="0"/><path d="M159.11316,152.25878c0,-7.11701 5.76948,-12.88648 12.88648,-12.88648c7.11701,0 12.88647,5.76948 12.88647,12.88648c0,7.11701 -5.76947,12.88647 -12.88647,12.88647c-7.11701,0 -12.88648,-5.76947 -12.88648,-12.88647z" fill="url(#color-4)" stroke-width="0"/><path d="M152.35714,150.13189c0,-7.11701 5.76947,-12.88648 12.88647,-12.88648c7.11701,0 12.88648,5.76948 12.88648,12.88648c0,7.11701 -5.76947,12.88647 -12.88648,12.88647c-7.11701,0 -12.88647,-5.76947 -12.88647,-12.88647z" fill="url(#color-5)" stroke-width="0"/></g></g></g></svg>