<svg version="1.1" xmlns="http://www.w3.org/2000/svg" xmlns:xlink="http://www.w3.org/1999/xlink" width="26.8804" height="26.8804" viewBox="0,0,26.8804,26.8804"><defs><radialGradient cx="240.00001" cy="180.00001" r="13.4402" gradientUnits="userSpaceOnUse" id="color-1"><stop offset="0" stop-color="#700b0b"/><stop offset="1" stop-color="#700b0b" stop-opacity="0"/></radialGradient><radialGradient cx="240.00001" cy="180.00001" r="9.52769" gradientUnits="userSpaceOnUse" id="color-2"><stop offset="0" stop-color="#6b0909"/><stop offset="1" stop-color="#6b0909"/></radialGradient></defs><g transform="translate(-226.55981,-166.5598)"><g data-paper-data="{&quot;isPaintingLayer&quot;:true}" fill-rule="nonzero" stroke-linejoin="miter" stroke-miterlimit="10" stroke-dasharray="" stroke-dashoffset="0" style="mix-blend-mode: normal"><path d="M226.55981,180.00001c0,-7.42282 6.01738,-13.4402 13.4402,-13.4402c7.42282,0 13.4402,6.01738 13.4402,13.4402c0,7.42282 -6.01738,13.4402 -13.4402,13.4402c-7.42282,0 -13.4402,-6.01738 -13.4402,-13.4402z" fill="url(#color-1)" stroke="none" stroke-width="0" stroke-linecap="butt"/><path d="M240.00001,173.6839c5.262,0 9.52769,2.82782 9.52769,6.31611c0,3.48829 -4.26569,6.31611 -9.52769,6.31611c-5.262,0 -9.52769,-2.82782 -9.52769,-6.31611c0,-3.48829 4.26569,-6.31611 9.52769,-6.31611z" fill="#096b22" stroke="none" stroke-width="NaN" stroke-linecap="butt"/><path d="M240,175.43212c3.80555,0 6.89056,2.04511 6.89056,4.56789c0,2.52278 -3.08501,4.5679 -6.89056,4.5679c-3.80555,0 -6.89056,-2.04512 -6.89056,-4.5679c0,-2.52278 3.085,-4.56789 6.89056,-4.56789z" fill="#009f29" stroke="none" stroke-width="NaN" stroke-linecap="butt"/><path d="M240.00001,176.93058c2.55716,0 4.63016,1.37423 4.63016,3.06943c0,1.6952 -2.07299,3.06943 -4.63016,3.06943c-2.55716,0 -4.63016,-1.37423 -4.63016,-3.06943c0,-1.6952 2.07299,-3.06943 4.63016,-3.06943z" fill="#37d660" stroke="none" stroke-width="NaN" stroke-linecap="butt"/><path d="M240.00001,173.6839c5.262,0 9.52769,2.82782 9.52769,6.31611c0,3.48829 -4.26569,6.31611 -9.52769,6.31611c-5.262,0 -9.52769,-2.82782 -9.52769,-6.31611c0,-3.48829 4.26569,-6.31611 9.52769,-6.31611z" fill="url(#color-2)" stroke="none" stroke-width="NaN" stroke-linecap="butt"/><g fill="none" stroke="#000000" stroke-width="1" stroke-linecap="round"><path d="M243.44267,178.93058l2.375,-2.375"/><path d="M245.81767,178.93058l-2.375,-2.375" data-paper-data="{&quot;index&quot;:null}"/></g><g fill="none" stroke="#000000" stroke-width="1" stroke-linecap="round"><path d="M243.44267,183.44444l2.375,-2.375"/><path d="M245.81767,183.44444l-2.375,-2.375" data-paper-data="{&quot;index&quot;:null}"/></g></g></g></svg>