<svg version="1.1" xmlns="http://www.w3.org/2000/svg" xmlns:xlink="http://www.w3.org/1999/xlink" width="299.33334" height="299.33334" viewBox="0,0,299.33334,299.33334"><defs><linearGradient x1="303.79884" y1="263.48527" x2="311.07619" y2="292.53282" gradientUnits="userSpaceOnUse" id="color-1"><stop offset="0" stop-color="#000000"/><stop offset="1" stop-color="#82c9ff"/></linearGradient><linearGradient x1="310.51324" y1="289.3366" x2="317.71934" y2="318.09979" gradientUnits="userSpaceOnUse" id="color-2"><stop offset="0" stop-color="#000000"/><stop offset="1" stop-color="#82c9ff"/></linearGradient><linearGradient x1="367.52515" y1="193.17459" x2="367.95338" y2="223.11681" gradientUnits="userSpaceOnUse" id="color-3"><stop offset="0" stop-color="#000000"/><stop offset="1" stop-color="#82c9ff"/></linearGradient><linearGradient x1="368.13774" y1="219.87664" x2="368.56177" y2="249.52573" gradientUnits="userSpaceOnUse" id="color-4"><stop offset="0" stop-color="#000000"/><stop offset="1" stop-color="#82c9ff"/></linearGradient><linearGradient x1="330.00915" y1="132.10608" x2="357.89789" y2="121.20022" gradientUnits="userSpaceOnUse" id="color-5"><stop offset="0" stop-color="#000000"/><stop offset="1" stop-color="#82c9ff"/></linearGradient><linearGradient x1="354.79899" y1="122.16435" x2="382.41472" y2="111.36526" gradientUnits="userSpaceOnUse" id="color-6"><stop offset="0" stop-color="#000000"/><stop offset="1" stop-color="#82c9ff"/></linearGradient><radialGradient cx="320.71814" cy="143.03822" r="55.04665" gradientUnits="userSpaceOnUse" id="color-7"><stop offset="0" stop-color="#81e9ff"/><stop offset="1" stop-color="#82bdff"/></radialGradient><radialGradient cx="321.56622" cy="236.38213" r="54.50775" gradientUnits="userSpaceOnUse" id="color-8"><stop offset="0" stop-color="#81e9ff"/><stop offset="1" stop-color="#82bdff"/></radialGradient><radialGradient cx="300.99307" cy="164.47958" r="12.50072" gradientUnits="userSpaceOnUse" id="color-9"><stop offset="0" stop-color="#000000"/><stop offset="1" stop-color="#82a8ff"/></radialGradient><radialGradient cx="300.99307" cy="164.47958" r="8.69932" gradientUnits="userSpaceOnUse" id="color-10"><stop offset="0" stop-color="#000000"/><stop offset="1" stop-color="#81e3ff"/></radialGradient><linearGradient x1="339.42707" y1="236.97973" x2="339.11426" y2="266.92337" gradientUnits="userSpaceOnUse" id="color-11"><stop offset="0" stop-color="#000000"/><stop offset="1" stop-color="#82c9ff"/></linearGradient><linearGradient x1="339.37874" y1="263.68876" x2="339.06898" y2="293.33926" gradientUnits="userSpaceOnUse" id="color-12"><stop offset="0" stop-color="#000000"/><stop offset="1" stop-color="#82c9ff"/></linearGradient><radialGradient cx="339.00693" cy="164.47958" r="12.50072" gradientUnits="userSpaceOnUse" id="color-13"><stop offset="0" stop-color="#000000"/><stop offset="1" stop-color="#82a8ff"/></radialGradient><radialGradient cx="339.00693" cy="164.47958" r="8.69932" gradientUnits="userSpaceOnUse" id="color-14"><stop offset="0" stop-color="#000000"/><stop offset="1" stop-color="#81e3ff"/></radialGradient><linearGradient x1="280.88059" y1="207.49226" x2="282.7677" y2="237.37801" gradientUnits="userSpaceOnUse" id="color-15"><stop offset="0" stop-color="#000000"/><stop offset="1" stop-color="#82c9ff"/></linearGradient><linearGradient x1="282.79391" y1="234.13271" x2="284.66255" y2="263.72589" gradientUnits="userSpaceOnUse" id="color-16"><stop offset="0" stop-color="#000000"/><stop offset="1" stop-color="#82c9ff"/></linearGradient><radialGradient cx="300.99307" cy="164.47958" r="28.97784" gradientUnits="userSpaceOnUse" id="color-17"><stop offset="0" stop-color="#000000" stop-opacity="0.51765"/><stop offset="1" stop-color="#000000" stop-opacity="0"/></radialGradient><radialGradient cx="339.00693" cy="164.47958" r="28.97784" gradientUnits="userSpaceOnUse" id="color-18"><stop offset="0" stop-color="#ffffff" stop-opacity="0.51765"/><stop offset="1" stop-color="#ffffff" stop-opacity="0"/></radialGradient><radialGradient cx="320" cy="180" r="149.66667" gradientUnits="userSpaceOnUse" id="color-19"><stop offset="0" stop-color="#000000" stop-opacity="0.51765"/><stop offset="1" stop-color="#000000" stop-opacity="0"/></radialGradient></defs><g transform="translate(-170.33333,-30.33333)"><g data-paper-data="{&quot;isPaintingLayer&quot;:true}" fill-rule="nonzero" stroke="none" stroke-width="0" stroke-linecap="butt" stroke-linejoin="miter" stroke-miterlimit="10" stroke-dasharray="" stroke-dashoffset="0" style="mix-blend-mode: normal"><g><path d="M324.30028,287.16874c0,0 -0.70064,0.68828 -2.03562,1.02274c-3.3748,0.8455 -18.19079,4.55739 -23.88234,5.98331c-1.39164,0.34865 -0.66897,1.70586 -0.66897,1.70586c0,0 -1.34724,-2.16092 -0.98487,-3.82204c1.44258,-6.61298 5.11659,-23.45516 5.92599,-27.16553c0.30823,-1.413 0.96571,-1.31718 0.96571,-1.31718c0,0 0.46898,-0.47153 1.35351,0.56647c2.31814,2.72037 12.8579,15.08885 17.60271,20.65693c1.42495,1.67219 1.7239,2.36945 1.7239,2.36945z" fill="url(#color-1)"/><path d="M297.7118,294.85118c0,0 -0.25858,-0.78187 1.53307,-1.35096c6.18981,-1.9661 20.28997,-6.42382 23.07817,-7.12235c0.89381,-0.22393 1.91578,0.54555 1.91578,0.54555c0,0 0.67965,1.05719 0.40263,2.32709c-1.25678,5.76122 -4.82077,22.09904 -5.75958,26.40269c-0.43925,2.0136 -1.33453,2.48968 -1.33453,2.48968c0,0 -0.8708,0.17029 -2.10797,-1.28154c-2.64475,-3.10363 -12.74149,-14.95225 -17.0963,-20.06264c-1.24346,-1.4592 -0.63128,-1.94752 -0.63128,-1.94752z" fill="url(#color-2)"/></g><g><path d="M382.05472,220.9254c0,0 -0.8397,0.50944 -2.2158,0.52913c-3.47874,0.04975 -18.75107,0.26817 -24.61793,0.35208c-1.43451,0.02052 -1.04203,1.5072 -1.04203,1.5072c0,0 -0.81627,-2.41212 -0.08294,-3.94602c2.9194,-6.10653 10.35464,-21.65884 11.99265,-25.08505c0.62379,-1.30479 1.24182,-1.06088 1.24182,-1.06088c0,0 0.56454,-0.35153 1.18771,0.86153c1.63317,3.17914 9.0586,17.63351 12.4014,24.14061c1.0039,1.9542 1.13514,2.70141 1.13514,2.70141z" fill="url(#color-3)"/><path d="M354.41333,222.31138c0,0 -0.07256,-0.82032 1.80183,-0.96375c6.47563,-0.49556 21.22206,-1.60398 24.09613,-1.64509c0.92134,-0.01318 1.73981,0.96999 1.73981,0.96999c0,0 0.41935,1.18479 -0.14127,2.35744c-2.54338,5.32 -9.75596,20.40657 -11.65588,24.38063c-0.88893,1.85938 -1.86947,2.11767 -1.86947,2.11767c0,0 -0.88665,-0.03376 -1.75826,-1.73043c-1.86327,-3.62704 -8.9766,-17.47387 -12.04463,-23.44611c-0.87603,-1.70529 -0.16825,-2.04035 -0.16825,-2.04035z" fill="url(#color-4)"/></g><g><path d="M350.89849,108.76404c0,0 0.77166,0.6076 1.27288,1.88932c1.26707,3.24017 6.82971,17.4651 8.96659,22.92959c0.52249,1.33613 1.77698,0.44701 1.77698,0.44701c0,0 -1.97241,1.61065 -3.6661,1.46209c-6.74261,-0.59143 -23.91493,-2.09773 -27.69803,-2.42957c-1.4407,-0.12637 -1.42912,-0.79068 -1.42912,-0.79068c0,0 -0.52724,-0.40533 0.39008,-1.41447c2.40409,-2.64472 13.33456,-14.6693 18.25527,-20.08255c1.47778,-1.62569 2.13144,-2.01074 2.13144,-2.01074z" fill="url(#color-5)"/><path d="M361.89401,134.16219c0,0 -0.74272,0.35574 -1.53465,-1.34918c-2.73595,-5.89015 -8.94752,-19.31037 -9.99434,-21.98733c-0.33558,-0.85815 0.29794,-1.96953 0.29794,-1.96953c0,0 0.96236,-0.80836 2.25716,-0.69478c5.87415,0.51526 22.53222,1.97644 26.92023,2.36135c2.05307,0.18009 2.63894,1.00768 2.63894,1.00768c0,0 0.27945,0.84214 -1.00358,2.2536c-2.74279,3.01734 -13.21384,14.5365 -17.73008,19.5048c-1.28955,1.41863 -1.85163,0.87339 -1.85163,0.87339z" fill="url(#color-6)"/></g><g><path d="M372.67138,188.6642c0,0 -3.11362,1.74793 -8.17334,1.74793c-12.79082,0 -68.94502,0 -90.51662,0c-5.27447,0 -3.90987,5.24379 -3.90987,5.24379c0,0 -2.8739,-8.51696 -0.09746,-13.87009c11.05309,-21.31098 39.20348,-75.58655 45.40508,-87.5436c2.36172,-4.55353 4.62083,-3.66543 4.62083,-3.66543c0,0 2.09379,-1.20685 4.32083,3.08702c5.83657,11.25324 32.3733,62.41757 44.31967,85.45086c3.58771,6.91731 4.03088,9.54952 4.03088,9.54952z" fill="url(#color-7)"/><path d="M270.98586,192.14524c0,0 -0.22362,-2.88612 6.67436,-3.29597c23.83118,-1.41591 78.09888,-4.56972 88.66644,-4.56972c3.38763,0 6.34472,3.49586 6.34472,3.49586c0,0 1.47929,4.18431 -0.64327,8.27672c-9.62944,18.56612 -36.93682,71.2163 -44.13005,85.08526c-3.36557,6.489 -6.98375,7.34732 -6.98375,7.34732c0,0 -3.25765,-0.16319 -6.37257,-6.16893c-6.65888,-12.83869 -32.08023,-61.85252 -43.04464,-82.99252c-3.13074,-6.03625 -0.51125,-7.17802 -0.51125,-7.17802z" fill="url(#color-8)"/></g><g><path d="M281.98614,164.18716c0,-2.21651 6.9936,-4.00968 7.98056,-5.83038c2.17712,-4.01621 6.42946,-6.74344 11.31878,-6.74344c4.47017,0 8.40789,2.27968 10.71402,5.73987c1.35971,2.04016 8.0005,4.49071 8.0005,7.12636c0,2.21211 -6.40655,4.29383 -7.38988,6.11197c-2.17534,4.02213 -6.43093,6.75426 -11.32464,6.75426c-5.20929,0 -9.6955,-3.09586 -11.71914,-7.54809c-0.73674,-1.62091 -7.5802,-3.71402 -7.5802,-5.61056z" fill="#82a8ff"/><path d="M288.49235,164.47958c0,-6.90395 5.59676,-12.50071 12.50072,-12.50071c6.90395,0 12.50071,5.59676 12.50071,12.50071c0,6.90395 -5.59676,12.50071 -12.50071,12.50071c-6.90395,0 -12.50072,-5.59676 -12.50072,-12.50071z" fill="url(#color-9)"/><path d="M292.29375,164.47958c0,-4.80451 3.89482,-8.69933 8.69932,-8.69933c4.80451,0 8.69932,3.89482 8.69932,8.69933c0,4.80451 -3.89482,8.69932 -8.69932,8.69932c-4.80451,0 -8.69932,-3.89482 -8.69932,-8.69932z" fill="url(#color-10)"/></g><g><path d="M353.26551,265.08157c0,0 -0.85205,0.48851 -2.22822,0.47413c-3.47891,-0.03634 -18.75196,-0.1959 -24.6191,-0.25719c-1.43457,-0.01498 -1.07901,1.48095 -1.07901,1.48095c0,0 -0.75634,-2.43158 0.01473,-3.94687c3.06961,-6.03242 10.88741,-21.39599 12.60969,-24.78062c0.65589,-1.28895 1.26769,-1.02983 1.26769,-1.02983c0,0 0.57307,-0.33745 1.16602,0.89065c1.554,3.21858 8.61949,17.85226 11.80025,24.44009c0.95524,1.97844 1.06795,2.72867 1.06795,2.72867z" fill="url(#color-11)"/><path d="M325.59829,265.78314c0,0 -0.05224,-0.82186 1.82513,-0.91887c6.48591,-0.33517 21.25525,-1.07836 24.12946,-1.04833c0.92138,0.00963 1.71528,1.01274 1.71528,1.01274c0,0 0.38991,1.1948 -0.19957,2.35322c-2.67424,5.25544 -10.25793,20.15892 -12.2556,24.08475c-0.93467,1.83682 -1.9213,2.07076 -1.9213,2.07076c0,0 -0.88555,-0.05569 -1.7149,-1.77341c-1.77295,-3.67204 -8.54146,-17.69065 -11.46077,-23.73697c-0.83357,-1.72645 -0.11772,-2.04389 -0.11772,-2.04389z" fill="url(#color-12)"/></g><g><path d="M320,164.18716c0,-2.21651 6.9936,-4.00968 7.98056,-5.83038c2.17712,-4.01621 6.42946,-6.74344 11.31878,-6.74344c4.47017,0 8.40789,2.27968 10.71402,5.73987c1.35971,2.04016 8.0005,4.49071 8.0005,7.12636c0,2.21211 -6.40655,4.29383 -7.38988,6.11197c-2.17534,4.02213 -6.43093,6.75426 -11.32464,6.75426c-5.20929,0 -9.6955,-3.09586 -11.71915,-7.54809c-0.73674,-1.62091 -7.5802,-3.71402 -7.5802,-5.61056z" fill="#82a8ff"/><path d="M326.50622,164.47958c0,-6.90395 5.59676,-12.50071 12.50072,-12.50071c6.90395,0 12.50071,5.59676 12.50071,12.50071c0,6.90395 -5.59675,12.50071 -12.50071,12.50071c-6.90395,0 -12.50072,-5.59676 -12.50072,-12.50071z" fill="url(#color-13)"/><path d="M330.3076,164.47958c0,-4.80451 3.89483,-8.69933 8.69933,-8.69933c4.80451,0 8.69932,3.89482 8.69932,8.69933c0,4.80451 -3.89482,8.69932 -8.69932,8.69932c-4.80451,0 -8.69933,-3.89482 -8.69933,-8.69932z" fill="url(#color-14)"/></g><g><path d="M296.74547,234.50191c0,0 -0.81388,0.54976 -2.18738,0.63649c-3.47218,0.21925 -18.71571,1.18179 -24.57151,1.55155c-1.4318,0.09041 -0.96733,1.5562 -0.96733,1.5562c0,0 -0.93287,-2.36946 -0.27518,-3.93729c2.6183,-6.24156 9.28668,-22.13778 10.75574,-25.63976c0.55945,-1.33364 1.18863,-1.12015 1.18863,-1.12015c0,0 0.54673,-0.37862 1.22828,0.80262c1.78618,3.09576 9.90729,17.17104 13.56327,23.50748c1.09796,1.90295 1.26546,2.64287 1.26546,2.64287z" fill="url(#color-15)"/><path d="M269.20449,237.23348c0,0 -0.11246,-0.81579 1.75271,-1.05042c6.44378,-0.81059 21.11866,-2.63644 23.98731,-2.81759c0.9196,-0.05807 1.78502,0.88403 1.78502,0.88403c0,0 0.4766,1.16295 -0.0262,2.36153c-2.28106,5.43764 -8.74975,20.85782 -10.45371,24.91976c-0.79725,1.9005 -1.76405,2.20627 -1.76405,2.20627c0,0 -0.88724,0.00949 -1.84051,-1.64268c-2.03783,-3.53191 -9.8176,-17.01558 -13.17308,-22.83119c-0.95811,-1.66057 -0.2675,-2.02972 -0.2675,-2.02972z" fill="url(#color-16)"/></g><path d="M272.01523,164.47958c0,-16.00402 12.97382,-28.97784 28.97784,-28.97784c16.00401,0 28.97784,12.97382 28.97784,28.97784c0,16.00402 -12.97382,28.97784 -28.97784,28.97784c-16.00401,0 -28.97784,-12.97382 -28.97784,-28.97784z" fill="url(#color-17)"/><path d="M310.02909,164.47958c0,-16.00402 12.97382,-28.97784 28.97784,-28.97784c16.00401,0 28.97784,12.97382 28.97784,28.97784c0,16.00402 -12.97382,28.97784 -28.97784,28.97784c-16.00401,0 -28.97784,-12.97382 -28.97784,-28.97784z" fill="url(#color-18)"/><path d="M170.33333,180c0,-82.6586 67.00805,-149.66667 149.66667,-149.66667c82.6586,0 149.66667,67.00805 149.66667,149.66667c0,82.6586 -67.00804,149.66667 -149.66667,149.66667c-82.6586,0 -149.66667,-67.00804 -149.66667,-149.66667z" fill="url(#color-19)"/></g></g></svg>