<svg version="1.1" xmlns="http://www.w3.org/2000/svg" xmlns:xlink="http://www.w3.org/1999/xlink" width="80.26483" height="53.04892" viewBox="0,0,80.26483,53.04892"><defs><radialGradient cx="269.19559" cy="317.0626" r="5.10508" gradientUnits="userSpaceOnUse" id="color-1"><stop offset="0" stop-color="#0017c2"/><stop offset="1" stop-color="#00094f" stop-opacity="0.58039"/></radialGradient><radialGradient cx="269.19559" cy="317.0626" r="8.34336" gradientUnits="userSpaceOnUse" id="color-2"><stop offset="0" stop-color="#0017c2" stop-opacity="0.35294"/><stop offset="1" stop-color="#0017c2" stop-opacity="0"/></radialGradient><radialGradient cx="278.16052" cy="319.19908" r="5.10508" gradientUnits="userSpaceOnUse" id="color-3"><stop offset="0" stop-color="#0017c2"/><stop offset="1" stop-color="#00094f" stop-opacity="0.58039"/></radialGradient><radialGradient cx="278.16052" cy="319.19908" r="8.34335" gradientUnits="userSpaceOnUse" id="color-4"><stop offset="0" stop-color="#0017c2" stop-opacity="0.35294"/><stop offset="1" stop-color="#0017c2" stop-opacity="0"/></radialGradient><radialGradient cx="277.53894" cy="325.40595" r="5.10508" gradientUnits="userSpaceOnUse" id="color-5"><stop offset="0" stop-color="#0017c2"/><stop offset="1" stop-color="#00094f" stop-opacity="0.58039"/></radialGradient><radialGradient cx="277.53894" cy="325.40595" r="8.34335" gradientUnits="userSpaceOnUse" id="color-6"><stop offset="0" stop-color="#0017c2" stop-opacity="0.35294"/><stop offset="1" stop-color="#0017c2" stop-opacity="0"/></radialGradient><radialGradient cx="285.8823" cy="317.0626" r="5.10508" gradientUnits="userSpaceOnUse" id="color-7"><stop offset="0" stop-color="#0017c2"/><stop offset="1" stop-color="#00094f" stop-opacity="0.58039"/></radialGradient><radialGradient cx="285.8823" cy="317.0626" r="8.34335" gradientUnits="userSpaceOnUse" id="color-8"><stop offset="0" stop-color="#0017c2" stop-opacity="0.35294"/><stop offset="1" stop-color="#0017c2" stop-opacity="0"/></radialGradient><radialGradient cx="269.19559" cy="325.40595" r="5.10508" gradientUnits="userSpaceOnUse" id="color-9"><stop offset="0" stop-color="#0017c2"/><stop offset="1" stop-color="#00094f" stop-opacity="0.58039"/></radialGradient><radialGradient cx="269.19559" cy="325.40595" r="8.34336" gradientUnits="userSpaceOnUse" id="color-10"><stop offset="0" stop-color="#0017c2" stop-opacity="0.35294"/><stop offset="1" stop-color="#0017c2" stop-opacity="0"/></radialGradient><radialGradient cx="285.8823" cy="325.40595" r="5.10508" gradientUnits="userSpaceOnUse" id="color-11"><stop offset="0" stop-color="#0017c2"/><stop offset="1" stop-color="#00094f" stop-opacity="0.58039"/></radialGradient><radialGradient cx="285.8823" cy="325.40595" r="8.34335" gradientUnits="userSpaceOnUse" id="color-12"><stop offset="0" stop-color="#0017c2" stop-opacity="0.35294"/><stop offset="1" stop-color="#0017c2" stop-opacity="0"/></radialGradient><radialGradient cx="285.8823" cy="317.0626" r="5.10508" gradientUnits="userSpaceOnUse" id="color-13"><stop offset="0" stop-color="#0017c2"/><stop offset="1" stop-color="#00094f" stop-opacity="0.58039"/></radialGradient><radialGradient cx="285.8823" cy="317.0626" r="8.34335" gradientUnits="userSpaceOnUse" id="color-14"><stop offset="0" stop-color="#0017c2" stop-opacity="0.35294"/><stop offset="1" stop-color="#0017c2" stop-opacity="0"/></radialGradient><radialGradient cx="273.09069" cy="321.57325" r="5.10508" gradientUnits="userSpaceOnUse" id="color-15"><stop offset="0" stop-color="#0017c2"/><stop offset="1" stop-color="#00094f" stop-opacity="0.58039"/></radialGradient><radialGradient cx="273.09069" cy="321.57325" r="8.34336" gradientUnits="userSpaceOnUse" id="color-16"><stop offset="0" stop-color="#0017c2" stop-opacity="0.35294"/><stop offset="1" stop-color="#0017c2" stop-opacity="0"/></radialGradient><radialGradient cx="278.09069" cy="321.57325" r="5.10508" gradientUnits="userSpaceOnUse" id="color-17"><stop offset="0" stop-color="#0017c2"/><stop offset="1" stop-color="#00094f" stop-opacity="0.58039"/></radialGradient><radialGradient cx="278.09069" cy="321.57325" r="8.34336" gradientUnits="userSpaceOnUse" id="color-18"><stop offset="0" stop-color="#0017c2" stop-opacity="0.35294"/><stop offset="1" stop-color="#0017c2" stop-opacity="0"/></radialGradient><radialGradient cx="287.59069" cy="314.07325" r="5.10508" gradientUnits="userSpaceOnUse" id="color-19"><stop offset="0" stop-color="#0017c2"/><stop offset="1" stop-color="#00094f" stop-opacity="0.58039"/></radialGradient><radialGradient cx="287.59069" cy="314.07325" r="8.34336" gradientUnits="userSpaceOnUse" id="color-20"><stop offset="0" stop-color="#0017c2" stop-opacity="0.35294"/><stop offset="1" stop-color="#0017c2" stop-opacity="0"/></radialGradient><radialGradient cx="298.22033" cy="295.63178" r="10.81884" gradientUnits="userSpaceOnUse" id="color-21"><stop offset="0" stop-color="#ba0000" stop-opacity="0.3451"/><stop offset="1" stop-color="#ba0000" stop-opacity="0"/></radialGradient></defs><g transform="translate(-229.77434,-280.70038)"><g data-paper-data="{&quot;isPaintingLayer&quot;:true}" fill-rule="nonzero" stroke-linecap="butt" stroke-linejoin="miter" stroke-miterlimit="10" stroke-dasharray="" stroke-dashoffset="0" style="mix-blend-mode: normal"><path d="M241.62929,329.99482c-5.71888,0 -10.35495,-4.13788 -10.35495,-9.24221v-15.04545c0,-5.10433 4.63607,-9.2422 10.35495,-9.2422h46.23609c5.71889,0 10.35495,4.13788 10.35495,9.2422v15.04545c0,5.10433 -4.63606,9.24221 -10.35495,9.24221z" fill-opacity="0.70196" fill="#000000" stroke="#000000" stroke-width="3"/><text transform="translate(235.20059,306.09928) scale(0.21833,0.21833)" font-size="40" xml:space="preserve" fill-opacity="0.9098" fill="#00631b" fill-rule="nonzero" stroke-opacity="0.9098" stroke="#00631b" stroke-width="1" stroke-linecap="butt" stroke-linejoin="miter" stroke-miterlimit="10" stroke-dasharray="" stroke-dashoffset="0" font-family="&quot;MV Boli&quot;, Technological" font-weight="normal" text-anchor="start" style="mix-blend-mode: normal"><tspan x="0" dy="0">Ancient Slug</tspan><tspan x="0" dy="48px">Burst</tspan></text><g stroke="none"><path d="M269.19559,313.67833c2.81946,0 5.10508,1.51518 5.10508,3.38427c0,1.86908 -2.28562,3.38427 -5.10508,3.38427c-2.81946,0 -5.10508,-1.51519 -5.10508,-3.38427c0,-1.86908 2.28562,-3.38427 5.10508,-3.38427z" fill="#096b22" stroke-width="NaN"/><path d="M269.19558,314.61506c2.03908,0 3.69207,1.0958 3.69207,2.44754c0,1.35174 -1.65299,2.44755 -3.69207,2.44755c-2.03908,0 -3.69207,-1.09581 -3.69207,-2.44755c0,-1.35174 1.65299,-2.44754 3.69207,-2.44754z" fill="#009f29" stroke-width="NaN"/><path d="M269.19559,315.41794c1.37016,0 2.48091,0.73633 2.48091,1.64465c0,0.90832 -1.11074,1.64465 -2.48091,1.64465c-1.37016,0 -2.48091,-0.73633 -2.48091,-1.64465c0,-0.90832 1.11075,-1.64465 2.48091,-1.64465z" fill="#37d660" stroke-width="NaN"/><path d="M269.19559,313.67833c2.81946,0 5.10508,1.51518 5.10508,3.38427c0,1.86908 -2.28562,3.38427 -5.10508,3.38427c-2.81946,0 -5.10508,-1.51519 -5.10508,-3.38427c0,-1.86908 2.28562,-3.38427 5.10508,-3.38427z" fill="url(#color-1)" stroke-width="NaN"/><path d="M272.24521,315.41794c0.3141,0 0.56873,0.25463 0.56873,0.56872c0,0.3141 -0.25463,0.56872 -0.56873,0.56872c-0.3141,0 -0.56872,-0.25462 -0.56872,-0.56872c0,-0.3141 0.25462,-0.56872 0.56872,-0.56872z" fill="#000000" stroke-width="0"/><path d="M272.24521,317.5698c0.3141,0 0.56872,0.25463 0.56872,0.56873c0,0.3141 -0.25463,0.56872 -0.56872,0.56872c-0.3141,0 -0.56872,-0.25462 -0.56872,-0.56872c0,-0.3141 0.25462,-0.56873 0.56872,-0.56873z" fill="#000000" stroke-width="0"/><path d="M260.85223,317.0626c0,-4.60791 3.73544,-8.34335 8.34335,-8.34335c4.60791,0 8.34336,3.73544 8.34336,8.34335c0,4.60791 -3.73545,8.34336 -8.34336,8.34336c-4.60791,0 -8.34335,-3.73545 -8.34335,-8.34336z" fill="url(#color-2)" stroke-width="0"/></g><g stroke="none"><path d="M278.16052,315.81482c2.81946,0 5.10508,1.51519 5.10508,3.38427c0,1.86908 -2.28562,3.38427 -5.10508,3.38427c-2.81946,0 -5.10509,-1.51518 -5.10509,-3.38427c0,-1.86908 2.28563,-3.38427 5.10509,-3.38427z" fill="#096b22" stroke-width="NaN"/><path d="M278.16051,316.75154c2.03908,0 3.69207,1.0958 3.69207,2.44755c0,1.35174 -1.65299,2.44755 -3.69207,2.44755c-2.03908,0 -3.69207,-1.0958 -3.69207,-2.44755c0,-1.35174 1.65299,-2.44755 3.69207,-2.44755z" fill="#009f29" stroke-width="NaN"/><path d="M278.16052,317.55443c1.37016,0 2.48091,0.73633 2.48091,1.64465c0,0.90832 -1.11074,1.64465 -2.48091,1.64465c-1.37016,0 -2.48092,-0.73633 -2.48092,-1.64465c0,-0.90832 1.11075,-1.64465 2.48092,-1.64465z" fill="#37d660" stroke-width="NaN"/><path d="M278.16052,315.81482c2.81946,0 5.10508,1.51519 5.10508,3.38427c0,1.86908 -2.28562,3.38427 -5.10508,3.38427c-2.81946,0 -5.10509,-1.51518 -5.10509,-3.38427c0,-1.86908 2.28563,-3.38427 5.10509,-3.38427z" fill="url(#color-3)" stroke-width="NaN"/><path d="M281.21015,317.55443c0.3141,0 0.56873,0.25462 0.56873,0.56872c0,0.3141 -0.25463,0.56872 -0.56873,0.56872c-0.3141,0 -0.56872,-0.25462 -0.56872,-0.56872c0,-0.3141 0.25462,-0.56872 0.56872,-0.56872z" fill="#000000" stroke-width="0"/><path d="M281.21015,319.70628c0.3141,0 0.56872,0.25463 0.56872,0.56873c0,0.3141 -0.25462,0.56872 -0.56872,0.56872c-0.3141,0 -0.56872,-0.25462 -0.56872,-0.56872c0,-0.3141 0.25462,-0.56873 0.56872,-0.56873z" fill="#000000" stroke-width="0"/><path d="M269.81717,319.19908c0,-4.60791 3.73545,-8.34335 8.34336,-8.34335c4.60791,0 8.34335,3.73544 8.34335,8.34335c0,4.60791 -3.73544,8.34336 -8.34335,8.34336c-4.60791,0 -8.34336,-3.73545 -8.34336,-8.34336z" fill="url(#color-4)" stroke-width="0"/></g><g stroke="none"><path d="M277.53894,322.02169c2.81946,0 5.10508,1.51519 5.10508,3.38427c0,1.86908 -2.28562,3.38427 -5.10508,3.38427c-2.81946,0 -5.10509,-1.51519 -5.10509,-3.38427c0,-1.86908 2.28563,-3.38427 5.10509,-3.38427z" fill="#096b22" stroke-width="NaN"/><path d="M277.53893,322.95841c2.03908,0 3.69207,1.0958 3.69207,2.44754c0,1.35174 -1.65299,2.44755 -3.69207,2.44755c-2.03908,0 -3.69207,-1.0958 -3.69207,-2.44755c0,-1.35174 1.65299,-2.44754 3.69207,-2.44754z" fill="#009f29" stroke-width="NaN"/><path d="M277.53894,323.7613c1.37016,0 2.48091,0.73633 2.48091,1.64465c0,0.90832 -1.11074,1.64465 -2.48091,1.64465c-1.37016,0 -2.48092,-0.73633 -2.48092,-1.64465c0,-0.90832 1.11075,-1.64465 2.48092,-1.64465z" fill="#37d660" stroke-width="NaN"/><path d="M277.53894,322.02169c2.81946,0 5.10508,1.51519 5.10508,3.38427c0,1.86908 -2.28562,3.38427 -5.10508,3.38427c-2.81946,0 -5.10509,-1.51519 -5.10509,-3.38427c0,-1.86908 2.28563,-3.38427 5.10509,-3.38427z" fill="url(#color-5)" stroke-width="NaN"/><path d="M280.58857,323.7613c0.3141,0 0.56872,0.25462 0.56872,0.56872c0,0.3141 -0.25462,0.56873 -0.56872,0.56873c-0.3141,0 -0.56873,-0.25463 -0.56873,-0.56873c0,-0.3141 0.25463,-0.56872 0.56873,-0.56872z" fill="#000000" stroke-width="0"/><path d="M280.58857,325.91316c0.3141,0 0.56872,0.25462 0.56872,0.56872c0,0.3141 -0.25462,0.56873 -0.56872,0.56873c-0.3141,0 -0.56873,-0.25463 -0.56873,-0.56873c0,-0.3141 0.25463,-0.56872 0.56873,-0.56872z" fill="#000000" stroke-width="0"/><path d="M269.19559,325.40595c0,-4.60791 3.73545,-8.34336 8.34336,-8.34336c4.60791,0 8.34335,3.73545 8.34335,8.34336c0,4.60791 -3.73544,8.34335 -8.34335,8.34335c-4.60791,0 -8.34336,-3.73544 -8.34336,-8.34335z" fill="url(#color-6)" stroke-width="0"/></g><g stroke="none"><path d="M285.8823,313.67833c2.81946,0 5.10508,1.51518 5.10508,3.38427c0,1.86908 -2.28562,3.38427 -5.10508,3.38427c-2.81946,0 -5.10508,-1.51519 -5.10508,-3.38427c0,-1.86908 2.28562,-3.38427 5.10508,-3.38427z" fill="#096b22" stroke-width="NaN"/><path d="M285.88229,314.61506c2.03908,0 3.69207,1.0958 3.69207,2.44754c0,1.35174 -1.65299,2.44755 -3.69207,2.44755c-2.03908,0 -3.69207,-1.09581 -3.69207,-2.44755c0,-1.35174 1.65299,-2.44754 3.69207,-2.44754z" fill="#009f29" stroke-width="NaN"/><path d="M285.8823,315.41794c1.37016,0 2.48091,0.73633 2.48091,1.64465c0,0.90832 -1.11074,1.64465 -2.48091,1.64465c-1.37016,0 -2.48091,-0.73633 -2.48091,-1.64465c0,-0.90832 1.11075,-1.64465 2.48091,-1.64465z" fill="#37d660" stroke-width="NaN"/><path d="M285.8823,313.67833c2.81946,0 5.10508,1.51518 5.10508,3.38427c0,1.86908 -2.28562,3.38427 -5.10508,3.38427c-2.81946,0 -5.10508,-1.51519 -5.10508,-3.38427c0,-1.86908 2.28562,-3.38427 5.10508,-3.38427z" fill="url(#color-7)" stroke-width="NaN"/><path d="M288.93192,315.41794c0.3141,0 0.56873,0.25463 0.56873,0.56872c0,0.3141 -0.25463,0.56872 -0.56873,0.56872c-0.3141,0 -0.56872,-0.25462 -0.56872,-0.56872c0,-0.3141 0.25462,-0.56872 0.56872,-0.56872z" fill="#000000" stroke-width="0"/><path d="M288.93192,317.5698c0.3141,0 0.56872,0.25463 0.56872,0.56873c0,0.3141 -0.25463,0.56872 -0.56872,0.56872c-0.3141,0 -0.56872,-0.25462 -0.56872,-0.56872c0,-0.3141 0.25462,-0.56873 0.56872,-0.56873z" fill="#000000" stroke-width="0"/><path d="M277.53894,317.0626c0,-4.60791 3.73544,-8.34335 8.34335,-8.34335c4.60791,0 8.34335,3.73544 8.34335,8.34335c0,4.60791 -3.73544,8.34336 -8.34335,8.34336c-4.60791,0 -8.34335,-3.73545 -8.34335,-8.34336z" fill="url(#color-8)" stroke-width="0"/></g><g stroke="none"><path d="M269.19559,322.02169c2.81946,0 5.10508,1.51519 5.10508,3.38427c0,1.86908 -2.28562,3.38427 -5.10508,3.38427c-2.81946,0 -5.10508,-1.51519 -5.10508,-3.38427c0,-1.86908 2.28562,-3.38427 5.10508,-3.38427z" fill="#096b22" stroke-width="NaN"/><path d="M269.19558,322.95841c2.03908,0 3.69207,1.0958 3.69207,2.44754c0,1.35174 -1.65299,2.44755 -3.69207,2.44755c-2.03908,0 -3.69207,-1.0958 -3.69207,-2.44755c0,-1.35174 1.65299,-2.44754 3.69207,-2.44754z" fill="#009f29" stroke-width="NaN"/><path d="M269.19559,323.7613c1.37016,0 2.48091,0.73633 2.48091,1.64465c0,0.90832 -1.11074,1.64465 -2.48091,1.64465c-1.37016,0 -2.48091,-0.73633 -2.48091,-1.64465c0,-0.90832 1.11075,-1.64465 2.48091,-1.64465z" fill="#37d660" stroke-width="NaN"/><path d="M269.19559,322.02169c2.81946,0 5.10508,1.51519 5.10508,3.38427c0,1.86908 -2.28562,3.38427 -5.10508,3.38427c-2.81946,0 -5.10508,-1.51519 -5.10508,-3.38427c0,-1.86908 2.28562,-3.38427 5.10508,-3.38427z" fill="url(#color-9)" stroke-width="NaN"/><path d="M272.24521,323.7613c0.3141,0 0.56873,0.25462 0.56873,0.56872c0,0.3141 -0.25463,0.56873 -0.56873,0.56873c-0.3141,0 -0.56872,-0.25463 -0.56872,-0.56873c0,-0.3141 0.25462,-0.56872 0.56872,-0.56872z" fill="#000000" stroke-width="0"/><path d="M272.24521,325.91316c0.3141,0 0.56872,0.25462 0.56872,0.56872c0,0.3141 -0.25463,0.56873 -0.56872,0.56873c-0.3141,0 -0.56872,-0.25463 -0.56872,-0.56873c0,-0.3141 0.25462,-0.56872 0.56872,-0.56872z" fill="#000000" stroke-width="0"/><path d="M260.85223,325.40595c0,-4.60791 3.73544,-8.34336 8.34335,-8.34336c4.60791,0 8.34336,3.73545 8.34336,8.34336c0,4.60791 -3.73545,8.34335 -8.34336,8.34335c-4.60791,0 -8.34335,-3.73544 -8.34335,-8.34335z" fill="url(#color-10)" stroke-width="0"/></g><g stroke="none"><path d="M285.8823,322.02169c2.81946,0 5.10508,1.51519 5.10508,3.38427c0,1.86908 -2.28562,3.38427 -5.10508,3.38427c-2.81946,0 -5.10508,-1.51519 -5.10508,-3.38427c0,-1.86908 2.28562,-3.38427 5.10508,-3.38427z" fill="#096b22" stroke-width="NaN"/><path d="M285.88229,322.95841c2.03908,0 3.69207,1.0958 3.69207,2.44754c0,1.35174 -1.65299,2.44755 -3.69207,2.44755c-2.03908,0 -3.69207,-1.0958 -3.69207,-2.44755c0,-1.35174 1.65299,-2.44754 3.69207,-2.44754z" fill="#009f29" stroke-width="NaN"/><path d="M285.8823,323.7613c1.37016,0 2.48091,0.73633 2.48091,1.64465c0,0.90832 -1.11074,1.64465 -2.48091,1.64465c-1.37016,0 -2.48091,-0.73633 -2.48091,-1.64465c0,-0.90832 1.11075,-1.64465 2.48091,-1.64465z" fill="#37d660" stroke-width="NaN"/><path d="M285.8823,322.02169c2.81946,0 5.10508,1.51519 5.10508,3.38427c0,1.86908 -2.28562,3.38427 -5.10508,3.38427c-2.81946,0 -5.10508,-1.51519 -5.10508,-3.38427c0,-1.86908 2.28562,-3.38427 5.10508,-3.38427z" fill="url(#color-11)" stroke-width="NaN"/><path d="M288.93192,323.7613c0.3141,0 0.56873,0.25462 0.56873,0.56872c0,0.3141 -0.25463,0.56873 -0.56873,0.56873c-0.3141,0 -0.56872,-0.25463 -0.56872,-0.56873c0,-0.3141 0.25462,-0.56872 0.56872,-0.56872z" fill="#000000" stroke-width="0"/><path d="M288.93192,325.91316c0.3141,0 0.56872,0.25462 0.56872,0.56872c0,0.3141 -0.25463,0.56873 -0.56872,0.56873c-0.3141,0 -0.56872,-0.25463 -0.56872,-0.56873c0,-0.3141 0.25462,-0.56872 0.56872,-0.56872z" fill="#000000" stroke-width="0"/><path d="M277.53894,325.40595c0,-4.60791 3.73544,-8.34336 8.34335,-8.34336c4.60791,0 8.34335,3.73545 8.34335,8.34336c0,4.60791 -3.73544,8.34335 -8.34335,8.34335c-4.60791,0 -8.34335,-3.73544 -8.34335,-8.34335z" fill="url(#color-12)" stroke-width="0"/></g><g stroke="none"><path d="M285.8823,313.67833c2.81946,0 5.10508,1.51518 5.10508,3.38427c0,1.86908 -2.28562,3.38427 -5.10508,3.38427c-2.81946,0 -5.10508,-1.51519 -5.10508,-3.38427c0,-1.86908 2.28562,-3.38427 5.10508,-3.38427z" fill="#096b22" stroke-width="NaN"/><path d="M285.88229,314.61506c2.03908,0 3.69207,1.0958 3.69207,2.44754c0,1.35174 -1.65299,2.44755 -3.69207,2.44755c-2.03908,0 -3.69207,-1.09581 -3.69207,-2.44755c0,-1.35174 1.65299,-2.44754 3.69207,-2.44754z" fill="#009f29" stroke-width="NaN"/><path d="M285.8823,315.41794c1.37016,0 2.48091,0.73633 2.48091,1.64465c0,0.90832 -1.11074,1.64465 -2.48091,1.64465c-1.37016,0 -2.48091,-0.73633 -2.48091,-1.64465c0,-0.90832 1.11075,-1.64465 2.48091,-1.64465z" fill="#37d660" stroke-width="NaN"/><path d="M285.8823,313.67833c2.81946,0 5.10508,1.51518 5.10508,3.38427c0,1.86908 -2.28562,3.38427 -5.10508,3.38427c-2.81946,0 -5.10508,-1.51519 -5.10508,-3.38427c0,-1.86908 2.28562,-3.38427 5.10508,-3.38427z" fill="url(#color-13)" stroke-width="NaN"/><path d="M288.93192,315.41794c0.3141,0 0.56873,0.25463 0.56873,0.56872c0,0.3141 -0.25463,0.56872 -0.56873,0.56872c-0.3141,0 -0.56872,-0.25462 -0.56872,-0.56872c0,-0.3141 0.25462,-0.56872 0.56872,-0.56872z" fill="#000000" stroke-width="0"/><path d="M288.93192,317.5698c0.3141,0 0.56872,0.25463 0.56872,0.56873c0,0.3141 -0.25463,0.56872 -0.56872,0.56872c-0.3141,0 -0.56872,-0.25462 -0.56872,-0.56872c0,-0.3141 0.25462,-0.56873 0.56872,-0.56873z" fill="#000000" stroke-width="0"/><path d="M277.53894,317.0626c0,-4.60791 3.73544,-8.34335 8.34335,-8.34335c4.60791,0 8.34335,3.73544 8.34335,8.34335c0,4.60791 -3.73544,8.34336 -8.34335,8.34336c-4.60791,0 -8.34335,-3.73545 -8.34335,-8.34336z" fill="url(#color-14)" stroke-width="0"/></g><g stroke="none"><path d="M273.09069,318.18898c2.81946,0 5.10508,1.51518 5.10508,3.38427c0,1.86908 -2.28562,3.38427 -5.10508,3.38427c-2.81946,0 -5.10508,-1.51519 -5.10508,-3.38427c0,-1.86908 2.28562,-3.38427 5.10508,-3.38427z" fill="#096b22" stroke-width="NaN"/><path d="M273.09069,319.12571c2.03908,0 3.69207,1.0958 3.69207,2.44754c0,1.35174 -1.65299,2.44755 -3.69207,2.44755c-2.03908,0 -3.69207,-1.09581 -3.69207,-2.44755c0,-1.35174 1.65299,-2.44754 3.69207,-2.44754z" fill="#009f29" stroke-width="NaN"/><path d="M273.09069,319.92859c1.37016,0 2.48091,0.73633 2.48091,1.64465c0,0.90832 -1.11074,1.64465 -2.48091,1.64465c-1.37016,0 -2.48091,-0.73633 -2.48091,-1.64465c0,-0.90832 1.11075,-1.64465 2.48091,-1.64465z" fill="#37d660" stroke-width="NaN"/><path d="M273.09069,318.18898c2.81946,0 5.10508,1.51518 5.10508,3.38427c0,1.86908 -2.28562,3.38427 -5.10508,3.38427c-2.81946,0 -5.10508,-1.51519 -5.10508,-3.38427c0,-1.86908 2.28562,-3.38427 5.10508,-3.38427z" fill="url(#color-15)" stroke-width="NaN"/><path d="M276.14032,319.92859c0.3141,0 0.56873,0.25463 0.56873,0.56872c0,0.3141 -0.25463,0.56872 -0.56873,0.56872c-0.3141,0 -0.56872,-0.25462 -0.56872,-0.56872c0,-0.3141 0.25462,-0.56872 0.56872,-0.56872z" fill="#000000" stroke-width="0"/><path d="M276.14032,322.08045c0.3141,0 0.56872,0.25463 0.56872,0.56873c0,0.3141 -0.25463,0.56872 -0.56872,0.56872c-0.3141,0 -0.56872,-0.25462 -0.56872,-0.56872c0,-0.3141 0.25462,-0.56873 0.56872,-0.56873z" fill="#000000" stroke-width="0"/><path d="M264.74734,321.57325c0,-4.60791 3.73544,-8.34335 8.34335,-8.34335c4.60791,0 8.34336,3.73544 8.34336,8.34335c0,4.60791 -3.73545,8.34336 -8.34336,8.34336c-4.60791,0 -8.34335,-3.73545 -8.34335,-8.34336z" fill="url(#color-16)" stroke-width="0"/></g><g stroke="none"><path d="M278.09069,318.18898c2.81946,0 5.10508,1.51518 5.10508,3.38427c0,1.86908 -2.28562,3.38427 -5.10508,3.38427c-2.81946,0 -5.10508,-1.51519 -5.10508,-3.38427c0,-1.86908 2.28562,-3.38427 5.10508,-3.38427z" fill="#096b22" stroke-width="NaN"/><path d="M278.09069,319.12571c2.03908,0 3.69207,1.0958 3.69207,2.44754c0,1.35174 -1.65299,2.44755 -3.69207,2.44755c-2.03908,0 -3.69207,-1.09581 -3.69207,-2.44755c0,-1.35174 1.65299,-2.44754 3.69207,-2.44754z" fill="#009f29" stroke-width="NaN"/><path d="M278.09069,319.92859c1.37016,0 2.48091,0.73633 2.48091,1.64465c0,0.90832 -1.11074,1.64465 -2.48091,1.64465c-1.37016,0 -2.48091,-0.73633 -2.48091,-1.64465c0,-0.90832 1.11075,-1.64465 2.48091,-1.64465z" fill="#37d660" stroke-width="NaN"/><path d="M278.09069,318.18898c2.81946,0 5.10508,1.51518 5.10508,3.38427c0,1.86908 -2.28562,3.38427 -5.10508,3.38427c-2.81946,0 -5.10508,-1.51519 -5.10508,-3.38427c0,-1.86908 2.28562,-3.38427 5.10508,-3.38427z" fill="url(#color-17)" stroke-width="NaN"/><path d="M281.14032,319.92859c0.3141,0 0.56873,0.25463 0.56873,0.56872c0,0.3141 -0.25463,0.56872 -0.56873,0.56872c-0.3141,0 -0.56872,-0.25462 -0.56872,-0.56872c0,-0.3141 0.25462,-0.56872 0.56872,-0.56872z" fill="#000000" stroke-width="0"/><path d="M281.14032,322.08045c0.3141,0 0.56872,0.25463 0.56872,0.56873c0,0.3141 -0.25463,0.56872 -0.56872,0.56872c-0.3141,0 -0.56872,-0.25462 -0.56872,-0.56872c0,-0.3141 0.25462,-0.56873 0.56872,-0.56873z" fill="#000000" stroke-width="0"/><path d="M269.74734,321.57325c0,-4.60791 3.73544,-8.34335 8.34335,-8.34335c4.60791,0 8.34336,3.73544 8.34336,8.34335c0,4.60791 -3.73545,8.34336 -8.34336,8.34336c-4.60791,0 -8.34335,-3.73545 -8.34335,-8.34336z" fill="url(#color-18)" stroke-width="0"/></g><g stroke="none"><path d="M287.59069,310.68898c2.81946,0 5.10508,1.51518 5.10508,3.38427c0,1.86908 -2.28562,3.38427 -5.10508,3.38427c-2.81946,0 -5.10508,-1.51519 -5.10508,-3.38427c0,-1.86908 2.28562,-3.38427 5.10508,-3.38427z" fill="#096b22" stroke-width="NaN"/><path d="M287.59069,311.62571c2.03908,0 3.69207,1.0958 3.69207,2.44754c0,1.35174 -1.65299,2.44755 -3.69207,2.44755c-2.03908,0 -3.69207,-1.09581 -3.69207,-2.44755c0,-1.35174 1.65299,-2.44754 3.69207,-2.44754z" fill="#009f29" stroke-width="NaN"/><path d="M287.59069,312.42859c1.37016,0 2.48091,0.73633 2.48091,1.64465c0,0.90832 -1.11074,1.64465 -2.48091,1.64465c-1.37016,0 -2.48091,-0.73633 -2.48091,-1.64465c0,-0.90832 1.11075,-1.64465 2.48091,-1.64465z" fill="#37d660" stroke-width="NaN"/><path d="M287.59069,310.68898c2.81946,0 5.10508,1.51518 5.10508,3.38427c0,1.86908 -2.28562,3.38427 -5.10508,3.38427c-2.81946,0 -5.10508,-1.51519 -5.10508,-3.38427c0,-1.86908 2.28562,-3.38427 5.10508,-3.38427z" fill="url(#color-19)" stroke-width="NaN"/><path d="M290.64032,312.42859c0.3141,0 0.56873,0.25463 0.56873,0.56872c0,0.3141 -0.25463,0.56872 -0.56873,0.56872c-0.3141,0 -0.56872,-0.25462 -0.56872,-0.56872c0,-0.3141 0.25462,-0.56872 0.56872,-0.56872z" fill="#000000" stroke-width="0"/><path d="M290.64032,314.58045c0.3141,0 0.56872,0.25463 0.56872,0.56873c0,0.3141 -0.25463,0.56872 -0.56872,0.56872c-0.3141,0 -0.56872,-0.25462 -0.56872,-0.56872c0,-0.3141 0.25462,-0.56873 0.56872,-0.56873z" fill="#000000" stroke-width="0"/><path d="M279.24734,314.07325c0,-4.60791 3.73544,-8.34335 8.34335,-8.34335c4.60791,0 8.34336,3.73544 8.34336,8.34335c0,4.60791 -3.73545,8.34336 -8.34336,8.34336c-4.60791,0 -8.34335,-3.73545 -8.34335,-8.34336z" fill="url(#color-20)" stroke-width="0"/></g><g fill="#ffffff" stroke="#ffffff" stroke-width="0" font-weight="normal" font-size="40" text-anchor="start"><text transform="translate(235.70059,324.74893) scale(0.22486,0.21833)" font-size="40" xml:space="preserve" fill="#ffffff" fill-rule="nonzero" stroke="#ffffff" stroke-width="0" stroke-linecap="butt" stroke-linejoin="miter" stroke-miterlimit="10" stroke-dasharray="" stroke-dashoffset="0" font-family="&quot;MV Boli&quot;, Technological" font-weight="normal" text-anchor="start" style="mix-blend-mode: normal"><tspan x="0" dy="0">Lv</tspan></text><text transform="translate(246.50666,324.76988) scale(0.34533,0.3353)" font-size="40" xml:space="preserve" fill="#ffffff" fill-rule="nonzero" stroke="#ffffff" stroke-width="0" stroke-linecap="butt" stroke-linejoin="miter" stroke-miterlimit="10" stroke-dasharray="" stroke-dashoffset="0" font-family="Handwriting" font-weight="normal" text-anchor="start" style="mix-blend-mode: normal"><tspan x="0" dy="0">.</tspan></text></g><g><path d="M287.40148,295.63178c0,-5.97508 4.84377,-10.81885 10.81885,-10.81885c5.97508,0 10.81884,4.84377 10.81884,10.81885c0,5.97508 -4.84377,10.81885 -10.81884,10.81885c-5.97508,0 -10.81885,-4.84376 -10.81885,-10.81885z" fill="#000000" stroke="#000000" stroke-width="2"/><text transform="translate(293.9797,302.49307) scale(0.46866,0.46866)" font-size="40" xml:space="preserve" fill-opacity="0.70196" fill="#ff0000" fill-rule="nonzero" stroke="none" stroke-width="1" stroke-linecap="butt" stroke-linejoin="miter" stroke-miterlimit="10" stroke-dasharray="" stroke-dashoffset="0" font-family="&quot;MV Boli&quot;, Pixel" font-weight="normal" text-anchor="start" style="mix-blend-mode: normal"><tspan x="0" dy="0">!</tspan></text><path d="M287.40148,295.63178c0,-5.97508 4.84377,-10.81885 10.81885,-10.81885c5.97508,0 10.81884,4.84377 10.81884,10.81885c0,5.97508 -4.84377,10.81885 -10.81884,10.81885c-5.97508,0 -10.81885,-4.84376 -10.81885,-10.81885z" fill="url(#color-21)" stroke="#000000" stroke-width="0"/></g></g></g></svg>