<svg version="1.1" xmlns="http://www.w3.org/2000/svg" xmlns:xlink="http://www.w3.org/1999/xlink" width="130.10296" height="130.10296" viewBox="0,0,130.10296,130.10296"><defs><radialGradient cx="319.09349" cy="173.75618" r="20.06353" gradientUnits="userSpaceOnUse" id="color-1"><stop offset="0" stop-color="#005907" stop-opacity="0"/><stop offset="1" stop-color="#005907" stop-opacity="0.4"/></radialGradient><radialGradient cx="319.09354" cy="173.75618" r="42.55148" gradientUnits="userSpaceOnUse" id="color-2"><stop offset="0" stop-color="#005907" stop-opacity="0.70196"/><stop offset="1" stop-color="#005907" stop-opacity="0"/></radialGradient></defs><g transform="translate(-254.04205,-108.7047)"><g data-paper-data="{&quot;isPaintingLayer&quot;:true}" fill-rule="nonzero" stroke-linecap="butt" stroke-linejoin="miter" stroke-miterlimit="10" stroke-dasharray="" stroke-dashoffset="0" style="mix-blend-mode: normal"><path d="M299.03002,173.75618c0,-11.08079 8.98273,-20.06352 20.06353,-20.06352c11.0808,0 20.06353,8.98273 20.06353,20.06352c0,11.08079 -8.98273,20.06352 -20.06353,20.06352c-11.0808,0 -20.06353,-8.98273 -20.06353,-20.06352z" fill="url(#color-1)" stroke="none" stroke-width="0"/><path d="M276.54205,173.75618c0,-23.50056 19.05092,-42.55148 42.55148,-42.55148c23.50056,0 42.55148,19.05092 42.55148,42.55148c0,23.50056 -19.05092,42.55148 -42.55148,42.55148c-23.50056,0 -42.55148,-19.05092 -42.55148,-42.55148z" fill="none" stroke="url(#color-2)" stroke-width="45"/></g></g></svg>