<svg version="1.1" xmlns="http://www.w3.org/2000/svg" xmlns:xlink="http://www.w3.org/1999/xlink" width="1129.03354" height="849.03351" viewBox="0,0,1129.03354,849.03351"><defs><linearGradient x1="320.29333" y1="363.77078" x2="320.29333" y2="287.19418" gradientUnits="userSpaceOnUse" id="color-1"><stop offset="0" stop-color="#61596b"/><stop offset="1" stop-color="#61596b" stop-opacity="0"/></linearGradient><linearGradient x1="320.2933" y1="-4.09712" x2="320.2933" y2="72.47946" gradientUnits="userSpaceOnUse" id="color-2"><stop offset="0" stop-color="#61596b"/><stop offset="1" stop-color="#61596b" stop-opacity="0"/></linearGradient><linearGradient x1="-4.78177" y1="180.00002" x2="71.79481" y2="180.00002" gradientUnits="userSpaceOnUse" id="color-3"><stop offset="0" stop-color="#61596b"/><stop offset="1" stop-color="#61596b" stop-opacity="0"/></linearGradient><linearGradient x1="643.83569" y1="180.00004" x2="567.2591" y2="180.00004" gradientUnits="userSpaceOnUse" id="color-4"><stop offset="0" stop-color="#61596b"/><stop offset="1" stop-color="#61596b" stop-opacity="0"/></linearGradient></defs><g transform="translate(244.51677,244.51668)"><g data-paper-data="{&quot;isPaintingLayer&quot;:true}" fill-rule="nonzero" stroke="none" stroke-width="0" stroke-linecap="butt" stroke-linejoin="miter" stroke-miterlimit="10" stroke-dasharray="" stroke-dashoffset="0" style="mix-blend-mode: normal"><g><path d="M644.61766,287.19418v76.57657h-648.64865v-76.57657z" fill="url(#color-1)"/><path d="M-4.03103,72.47946v-76.57657h648.64865v76.57657z" fill="url(#color-2)"/><path d="M71.79481,364.09715h-76.57657v-368.19425h76.57657z" fill="url(#color-3)"/><path d="M567.2591,-4.09711h76.57657v368.19425h-76.57657z" fill="url(#color-4)"/></g><g fill="#61596b"><path d="M-244.51677,450.00007v-540h244.51677v540z"/><path d="M640,450.00007v-540h244.51677v540z"/><path d="M-52.1021,-244.51667h744.2042v244.51677h-744.2042z"/><path d="M-52.1021,360.00007h744.2042v244.51677h-744.2042z"/></g></g></g></svg>