<svg version="1.1" xmlns="http://www.w3.org/2000/svg" xmlns:xlink="http://www.w3.org/1999/xlink" width="142.33334" height="142.33334" viewBox="0,0,142.33334,142.33334"><defs><linearGradient x1="219.41334" y1="198.93922" x2="185.63936" y2="198.93922" gradientUnits="userSpaceOnUse" id="color-1"><stop offset="0" stop-color="#ff0000"/><stop offset="1" stop-color="#ff7100"/></linearGradient><linearGradient x1="222.26125" y1="198.93922" x2="188.48726" y2="198.93922" gradientUnits="userSpaceOnUse" id="color-2"><stop offset="0" stop-color="#ff0000"/><stop offset="1" stop-color="#ff7100"/></linearGradient><linearGradient x1="224.53957" y1="198.93922" x2="190.76558" y2="198.93922" gradientUnits="userSpaceOnUse" id="color-3"><stop offset="0" stop-color="#ff0000"/><stop offset="1" stop-color="#ff7100"/></linearGradient><linearGradient x1="227.38748" y1="198.93922" x2="193.61348" y2="198.93922" gradientUnits="userSpaceOnUse" id="color-4"><stop offset="0" stop-color="#ff0000"/><stop offset="1" stop-color="#ff7100"/></linearGradient><linearGradient x1="230.23536" y1="198.93922" x2="196.46139" y2="198.93922" gradientUnits="userSpaceOnUse" id="color-5"><stop offset="0" stop-color="#ff0000"/><stop offset="1" stop-color="#ff7100"/></linearGradient><linearGradient x1="233.08326" y1="198.93922" x2="199.30928" y2="198.93922" gradientUnits="userSpaceOnUse" id="color-6"><stop offset="0" stop-color="#ff0000"/><stop offset="1" stop-color="#ff7100"/></linearGradient><linearGradient x1="235.93117" y1="198.93922" x2="202.15719" y2="198.93922" gradientUnits="userSpaceOnUse" id="color-7"><stop offset="0" stop-color="#ff0000"/><stop offset="1" stop-color="#ff7100"/></linearGradient><linearGradient x1="219.41333" y1="152.25499" x2="185.63935" y2="152.25499" gradientUnits="userSpaceOnUse" id="color-8"><stop offset="0" stop-color="#ff0000"/><stop offset="1" stop-color="#ff7100"/></linearGradient><linearGradient x1="222.26124" y1="152.25499" x2="188.48724" y2="152.25499" gradientUnits="userSpaceOnUse" id="color-9"><stop offset="0" stop-color="#ff0000"/><stop offset="1" stop-color="#ff7100"/></linearGradient><linearGradient x1="224.53957" y1="152.25499" x2="190.76558" y2="152.25499" gradientUnits="userSpaceOnUse" id="color-10"><stop offset="0" stop-color="#ff0000"/><stop offset="1" stop-color="#ff7100"/></linearGradient><linearGradient x1="227.38748" y1="152.25499" x2="193.61347" y2="152.25499" gradientUnits="userSpaceOnUse" id="color-11"><stop offset="0" stop-color="#ff0000"/><stop offset="1" stop-color="#ff7100"/></linearGradient><linearGradient x1="230.23536" y1="152.25499" x2="196.46138" y2="152.25499" gradientUnits="userSpaceOnUse" id="color-12"><stop offset="0" stop-color="#ff0000"/><stop offset="1" stop-color="#ff7100"/></linearGradient><linearGradient x1="233.08326" y1="152.25499" x2="199.30928" y2="152.25499" gradientUnits="userSpaceOnUse" id="color-13"><stop offset="0" stop-color="#ff0000"/><stop offset="1" stop-color="#ff7100"/></linearGradient><linearGradient x1="235.93117" y1="152.25499" x2="202.15719" y2="152.25499" gradientUnits="userSpaceOnUse" id="color-14"><stop offset="0" stop-color="#ff0000"/><stop offset="1" stop-color="#ff7100"/></linearGradient><radialGradient cx="197.11591" cy="197.90328" r="22.0897" gradientUnits="userSpaceOnUse" id="color-15"><stop offset="0" stop-color="#ff6300"/><stop offset="1" stop-color="#ff6300" stop-opacity="0"/></radialGradient><radialGradient cx="197.11591" cy="150.39228" r="22.0897" gradientUnits="userSpaceOnUse" id="color-16"><stop offset="0" stop-color="#ff6300"/><stop offset="1" stop-color="#ff6300" stop-opacity="0"/></radialGradient><linearGradient x1="279.42235" y1="176.5373" x2="235.24296" y2="176.5373" gradientUnits="userSpaceOnUse" id="color-17"><stop offset="0" stop-color="#ff0000"/><stop offset="1" stop-color="#ff7166"/></linearGradient><linearGradient x1="304.81677" y1="176.5373" x2="270.89954" y2="176.5373" gradientUnits="userSpaceOnUse" id="color-18"><stop offset="0" stop-color="#740000"/><stop offset="1" stop-color="#ff0000"/></linearGradient><radialGradient cx="240" cy="180" r="71.16667" gradientUnits="userSpaceOnUse" id="color-19"><stop offset="0" stop-color="#ff4e00" stop-opacity="0.49799"/><stop offset="1" stop-color="#ff4e00" stop-opacity="0"/></radialGradient></defs><g transform="translate(-168.83333,-108.83333)"><g data-paper-data="{&quot;isPaintingLayer&quot;:true}" fill-rule="nonzero" stroke-linecap="butt" stroke-linejoin="miter" stroke-miterlimit="10" stroke-dasharray="" stroke-dashoffset="0" style="mix-blend-mode: normal"><g stroke="none"><g stroke-width="0.5"><g><path d="M211.04277,195.84776c-0.7805,-0.50471 -2.1807,-1.73464 -0.36444,-3.25258c0.89085,-0.74454 1.89225,-1.00403 2.79845,-1.03643c0.06777,-0.47906 0.31783,-0.97924 0.60221,-1.39592c-1.10807,0.12853 -3.50197,0.17468 -4.51603,-1.60509c-1.34145,-2.35435 2.4146,-3.1952 2.4146,-3.1952c2.33827,-0.24371 4.97384,-1.48671 7.01482,-0.73111c5.92647,2.19411 2.57341,4.74238 2.43603,7.33833c-0.0356,0.67283 1.01897,4.85539 1.09559,5.57995c0.29054,2.74797 0.00871,5.58706 0.00704,8.34114l-0.05026,0.07171l0.04509,0.00166l-0.2734,2.91327c-0.10751,1.32052 -1.84969,2.37049 -3.98313,2.37049c-1.79414,0 -3.31158,-0.74256 -3.81281,-1.76412l-1.62103,-3.04826l0.10745,-0.02245c-0.08286,-0.09737 -0.163,-0.19579 -0.24015,-0.29535c-0.73929,-0.9539 -0.1753,-2.11872 -0.33028,-3.17476c-0.3598,-2.4515 -1.10918,-4.6869 -1.32972,-7.09529z" fill="#ff4200"/><path d="M218.76728,212.82986c0,1.59769 -2.54889,1.59769 -2.54889,1.59769l-1.623,-0.10172c-2.53806,-0.59783 -4.89297,-1.18649 -7.63556,-1.27035c-0.31361,-0.00959 -7.27952,0.04889 -7.62547,-0.09234c-0.24496,-0.10001 -0.47181,-0.21249 -0.68445,-0.33477l-0.07961,0.05988l-2.16909,-1.13302c-0.5691,-0.29302 -0.93208,-0.73753 -0.93208,-1.23519c0,-0.38146 0.21328,-0.73171 0.56917,-1.00643c-1.69536,-0.49955 -3.30689,-1.41834 -3.42597,-1.62889c-0.41221,-0.72884 1.9269,-2.21999 3.78121,-3.0683h-2.37958c-1.40771,0 -2.54889,-0.71532 -2.54889,-1.5977c0,-0.81372 0.97049,-1.48536 2.22553,-1.58496l1.86284,-0.16681c0.65683,-0.51108 0.846,-1.26397 1.27836,-1.87317c-2.35198,-0.33159 -4.7919,-0.52059 -6.80437,-1.31491c-1.81646,-0.71695 -4.59205,-1.62259 -4.37618,-2.96128c0.2207,-1.36863 3.3725,-1.77895 5.25464,-2.48637c0.23006,-0.08648 0.52277,-0.17615 0.84162,-0.25498c-0.57287,-0.15955 -1.09742,-0.36383 -1.50012,-0.65421c-0.11472,-0.08273 -0.22254,-0.16832 -0.32435,-0.25639l-0.05123,0.02676l-1.80933,-1.36094c-0.37526,-0.27824 -0.60149,-0.638 -0.60149,-1.03088c0,-0.88238 1.14118,-1.5977 2.54891,-1.5977h3.27606c1.36415,0.00628 3.21227,0.6225 4.09226,-0.0309c1.43592,-1.06619 0.40708,-3.28944 2.40467,-3.90511c1.3746,-0.42365 2.99015,0.4421 4.51407,0.53915c3.75833,0.23935 6.985,-0.07673 10.43651,0.26311c0.62839,0.40188 1.33875,0.75322 2.11407,1.04341c0.3367,0.21445 0.69679,0.41441 1.07768,0.59828c0.02075,0.4298 0.58313,0.77423 1.27385,0.77423c0.07301,0 0.14461,-0.00385 0.21427,-0.01125c-0.02312,0.04885 -0.0498,0.09876 -0.08032,0.14977c-0.89499,1.49597 -3.28159,0.93498 -3.28159,0.93498c-4.26599,-1.05 -8.31191,0.03698 -12.66406,-0.60841c-0.60415,-0.08959 -0.73322,-0.6859 -1.31005,-0.82984c-0.36177,-0.09026 0.64636,0.40467 0.5598,0.64263c-0.35166,0.96673 -0.64454,2.07318 -1.79521,2.75358c-0.80556,0.47634 -1.96249,0.70111 -3.19357,0.80489c1.25768,0.83526 2.07126,1.94761 1.72092,2.81325c-0.12029,0.29724 -2.62746,1.42015 -4.97013,1.98038c0.73532,0.10411 1.46309,0.23116 2.18079,0.37176c1.80218,0.35305 3.51788,0.86057 5.27683,1.29086l0.2473,0.22091l0.09381,-0.07056l2.1691,1.13302c0.5691,0.29302 0.93208,0.73754 0.93208,1.2352c0,0.82932 -1.00805,1.51105 -2.29798,1.59006l-1.16987,0.08148c0.25567,0.4185 0.50344,0.95028 0.73842,1.61535c0.44,1.24534 -0.94384,2.47162 -2.26078,3.55109c1.35663,-0.03643 2.829,-0.04304 3.35837,0.62094c0.67972,0.85256 0.06185,1.8346 -0.45588,2.80666c4.84251,-0.06498 8.66546,0.41439 13.17406,1.4721l-0.16697,-0.10173c0,0 2.54889,0 2.54889,1.5977z" fill="url(#color-1)"/><path d="M221.61519,212.82986c0,1.59769 -2.54891,1.59769 -2.54891,1.59769l-1.623,-0.10172c-2.53806,-0.59783 -4.89297,-1.18649 -7.63556,-1.27035c-0.31361,-0.00959 -7.27952,0.04889 -7.62547,-0.09234c-0.24496,-0.10001 -0.47181,-0.21249 -0.68445,-0.33477l-0.07961,0.05988l-2.16909,-1.13302c-0.5691,-0.29302 -0.93208,-0.73753 -0.93208,-1.23519c0,-0.38146 0.21328,-0.73171 0.56917,-1.00643c-1.69536,-0.49955 -3.30689,-1.41834 -3.42597,-1.62889c-0.41221,-0.72884 1.9269,-2.21999 3.78121,-3.0683h-2.37958c-1.40771,0 -2.54889,-0.71532 -2.54889,-1.5977c0,-0.81372 0.97049,-1.48536 2.22553,-1.58496l1.86284,-0.16681c0.65683,-0.51108 0.846,-1.26397 1.27836,-1.87317c-2.35198,-0.33159 -4.79192,-0.52059 -6.80438,-1.31491c-1.81646,-0.71695 -4.59205,-1.62259 -4.37618,-2.96128c0.2207,-1.36863 3.3725,-1.77895 5.25464,-2.48637c0.23006,-0.08648 0.52277,-0.17615 0.84162,-0.25498c-0.57287,-0.15955 -1.09742,-0.36383 -1.50012,-0.65421c-0.11472,-0.08273 -0.22254,-0.16832 -0.32435,-0.25639l-0.05123,0.02676l-1.80933,-1.36094c-0.37526,-0.27824 -0.60149,-0.638 -0.60149,-1.03088c0,-0.88238 1.14118,-1.5977 2.54889,-1.5977h3.27606c1.36415,0.00628 3.21229,0.6225 4.09228,-0.0309c1.43592,-1.06619 0.40708,-3.28944 2.40466,-3.90511c1.3746,-0.42365 2.99015,0.4421 4.51407,0.53915c3.75833,0.23935 6.985,-0.07673 10.43651,0.26311c0.62839,0.40188 1.33875,0.75322 2.11407,1.04341c0.3367,0.21445 0.69679,0.41441 1.07768,0.59828c0.02075,0.4298 0.58313,0.77423 1.27385,0.77423c0.07301,0 0.14462,-0.00385 0.21428,-0.01125c-0.02312,0.04885 -0.0498,0.09876 -0.08032,0.14977c-0.89499,1.49597 -3.28158,0.93498 -3.28158,0.93498c-4.26599,-1.05 -8.31191,0.03698 -12.66406,-0.60841c-0.60415,-0.08959 -0.73325,-0.6859 -1.31005,-0.82984c-0.36177,-0.09026 0.64636,0.40467 0.5598,0.64263c-0.35166,0.96673 -0.64454,2.07318 -1.79521,2.75358c-0.80556,0.47634 -1.96249,0.70111 -3.19357,0.80489c1.25768,0.83526 2.07123,1.94761 1.72092,2.81325c-0.12029,0.29724 -2.62745,1.42015 -4.97012,1.98038c0.73532,0.10411 1.46309,0.23116 2.18078,0.37176c1.80218,0.35305 3.51788,0.86057 5.27683,1.29086l0.2473,0.22091l0.09381,-0.07056l2.16909,1.13302c0.5691,0.29302 0.93208,0.73754 0.93208,1.2352c0,0.82932 -1.00805,1.51105 -2.29798,1.59006l-1.16987,0.08148c0.25567,0.4185 0.50344,0.95028 0.73842,1.61535c0.44,1.24534 -0.94384,2.47162 -2.26078,3.55109c1.35663,-0.03643 2.829,-0.04304 3.35837,0.62094c0.67972,0.85256 0.06185,1.8346 -0.45588,2.80666c4.84251,-0.06498 8.66543,0.41439 13.17406,1.4721l-0.16697,-0.10173c0,0 2.54891,0 2.54891,1.5977z" fill="url(#color-2)"/><path d="M223.8935,212.82986c0,1.59769 -2.54889,1.59769 -2.54889,1.59769l-1.623,-0.10172c-2.53806,-0.59783 -4.89297,-1.18649 -7.63556,-1.27035c-0.31361,-0.00959 -7.2795,0.04889 -7.62546,-0.09234c-0.24496,-0.10001 -0.47181,-0.21249 -0.68445,-0.33477l-0.07961,0.05988l-2.1691,-1.13302c-0.5691,-0.29302 -0.93208,-0.73753 -0.93208,-1.23519c0,-0.38146 0.21328,-0.73171 0.56917,-1.00643c-1.69536,-0.49955 -3.30689,-1.41834 -3.42597,-1.62889c-0.41221,-0.72884 1.9269,-2.21999 3.78121,-3.0683h-2.37958c-1.40771,0 -2.54889,-0.71532 -2.54889,-1.5977c0,-0.81372 0.97049,-1.48536 2.22553,-1.58496l1.86284,-0.16681c0.65683,-0.51108 0.846,-1.26397 1.27836,-1.87317c-2.35198,-0.33159 -4.79192,-0.52059 -6.80438,-1.31491c-1.81646,-0.71695 -4.59204,-1.62259 -4.37617,-2.96128c0.2207,-1.36863 3.3725,-1.77895 5.25464,-2.48637c0.23006,-0.08648 0.52279,-0.17615 0.84162,-0.25498c-0.57287,-0.15955 -1.09742,-0.36383 -1.50012,-0.65421c-0.11472,-0.08273 -0.22254,-0.16832 -0.32435,-0.25639l-0.05123,0.02676l-1.80933,-1.36094c-0.37526,-0.27824 -0.60149,-0.638 -0.60149,-1.03088c0,-0.88238 1.14118,-1.5977 2.54891,-1.5977h3.27606c1.36415,0.00628 3.21227,0.6225 4.09226,-0.0309c1.43592,-1.06619 0.40708,-3.28944 2.40466,-3.90511c1.3746,-0.42365 2.99015,0.4421 4.51407,0.53915c3.75833,0.23935 6.985,-0.07673 10.43651,0.26311c0.62839,0.40188 1.33875,0.75322 2.11407,1.04341c0.3367,0.21445 0.69679,0.41441 1.07768,0.59828c0.02075,0.4298 0.58313,0.77423 1.27385,0.77423c0.07301,0 0.14461,-0.00385 0.21427,-0.01125c-0.02312,0.04885 -0.0498,0.09876 -0.08032,0.14977c-0.89499,1.49597 -3.28158,0.93498 -3.28158,0.93498c-4.26599,-1.05 -8.31191,0.03698 -12.66406,-0.60841c-0.60415,-0.08959 -0.73322,-0.6859 -1.31005,-0.82984c-0.36177,-0.09026 0.64636,0.40467 0.5598,0.64263c-0.35166,0.96673 -0.64454,2.07318 -1.79521,2.75358c-0.80556,0.47634 -1.96249,0.70111 -3.19357,0.80489c1.25768,0.83526 2.07123,1.94761 1.72092,2.81325c-0.12029,0.29724 -2.62745,1.42015 -4.97012,1.98038c0.73532,0.10411 1.46309,0.23116 2.18079,0.37176c1.80218,0.35305 3.51788,0.86057 5.27683,1.29086l0.2473,0.22091l0.09381,-0.07056l2.16909,1.13302c0.5691,0.29302 0.93208,0.73754 0.93208,1.2352c0,0.82932 -1.00805,1.51105 -2.29798,1.59006l-1.16987,0.08148c0.25567,0.4185 0.50344,0.95028 0.73842,1.61535c0.44,1.24534 -0.94384,2.47162 -2.26078,3.55109c1.35663,-0.03643 2.829,-0.04304 3.35837,0.62094c0.67972,0.85256 0.06185,1.8346 -0.45588,2.80666c4.84251,-0.06498 8.66546,0.41439 13.17406,1.4721l-0.16697,-0.10173c0,0 2.54889,0 2.54889,1.5977z" fill="url(#color-3)"/><path d="M226.74141,212.82986c0,1.59769 -2.54891,1.59769 -2.54891,1.59769l-1.623,-0.10172c-2.53806,-0.59783 -4.89297,-1.18649 -7.63556,-1.27035c-0.31361,-0.00959 -7.27952,0.04889 -7.62547,-0.09234c-0.24496,-0.10001 -0.47181,-0.21249 -0.68445,-0.33477l-0.07961,0.05988l-2.16909,-1.13302c-0.5691,-0.29302 -0.93208,-0.73753 -0.93208,-1.23519c0,-0.38146 0.21327,-0.73171 0.56917,-1.00643c-1.69536,-0.49955 -3.30689,-1.41834 -3.42597,-1.62889c-0.41221,-0.72884 1.9269,-2.21999 3.78121,-3.0683h-2.37958c-1.40771,0 -2.54889,-0.71532 -2.54889,-1.5977c0,-0.81372 0.97049,-1.48536 2.22553,-1.58496l1.86284,-0.16681c0.65683,-0.51108 0.846,-1.26397 1.27836,-1.87317c-2.35198,-0.33159 -4.79192,-0.52059 -6.80438,-1.31491c-1.81646,-0.71695 -4.59205,-1.62259 -4.37618,-2.96128c0.2207,-1.36863 3.3725,-1.77895 5.25464,-2.48637c0.23006,-0.08648 0.52277,-0.17615 0.84162,-0.25498c-0.57287,-0.15955 -1.09742,-0.36383 -1.50012,-0.65421c-0.11472,-0.08273 -0.22254,-0.16832 -0.32435,-0.25639l-0.05123,0.02676l-1.80933,-1.36094c-0.37526,-0.27824 -0.60149,-0.638 -0.60149,-1.03088c0,-0.88238 1.14118,-1.5977 2.54889,-1.5977h3.27606c1.36415,0.00628 3.21229,0.6225 4.09228,-0.0309c1.43592,-1.06619 0.40708,-3.28944 2.40466,-3.90511c1.3746,-0.42365 2.99015,0.4421 4.51407,0.53915c3.75833,0.23935 6.985,-0.07673 10.43651,0.26311c0.62839,0.40188 1.33875,0.75322 2.11407,1.04341c0.3367,0.21445 0.69679,0.41441 1.07768,0.59828c0.02075,0.4298 0.58313,0.77423 1.27385,0.77423c0.07301,0 0.14462,-0.00385 0.21428,-0.01125c-0.02312,0.04885 -0.0498,0.09876 -0.08032,0.14977c-0.89499,1.49597 -3.28159,0.93498 -3.28159,0.93498c-4.26599,-1.05 -8.31189,0.03698 -12.66406,-0.60841c-0.60415,-0.08959 -0.73325,-0.6859 -1.31005,-0.82984c-0.36177,-0.09026 0.64636,0.40467 0.5598,0.64263c-0.35166,0.96673 -0.64454,2.07318 -1.79521,2.75358c-0.80556,0.47634 -1.96249,0.70111 -3.19357,0.80489c1.25768,0.83526 2.07123,1.94761 1.72092,2.81325c-0.12029,0.29724 -2.62745,1.42015 -4.97012,1.98038c0.73532,0.10411 1.46309,0.23116 2.18078,0.37176c1.80218,0.35305 3.51788,0.86057 5.27683,1.29086l0.2473,0.22091l0.09381,-0.07056l2.16909,1.13302c0.5691,0.29302 0.93208,0.73754 0.93208,1.2352c0,0.82932 -1.00805,1.51105 -2.29798,1.59006l-1.16987,0.08148c0.25567,0.4185 0.50344,0.95028 0.73842,1.61535c0.44,1.24534 -0.94384,2.47162 -2.26078,3.55109c1.35663,-0.03643 2.829,-0.04304 3.35836,0.62094c0.67972,0.85256 0.06185,1.8346 -0.45588,2.80666c4.84251,-0.06498 8.66543,0.41439 13.17406,1.4721l-0.16697,-0.10173c0,0 2.54891,0 2.54891,1.5977z" fill="url(#color-4)"/><path d="M229.58931,212.82986c0,1.59769 -2.54891,1.59769 -2.54891,1.59769l-1.623,-0.10172c-2.53806,-0.59783 -4.89297,-1.18649 -7.63556,-1.27035c-0.31361,-0.00959 -7.27952,0.04889 -7.62547,-0.09234c-0.24496,-0.10001 -0.47181,-0.21249 -0.68445,-0.33477l-0.07961,0.05988l-2.16909,-1.13302c-0.5691,-0.29302 -0.93208,-0.73753 -0.93208,-1.23519c0,-0.38146 0.21328,-0.73171 0.56917,-1.00643c-1.69536,-0.49955 -3.30689,-1.41834 -3.42597,-1.62889c-0.41221,-0.72884 1.9269,-2.21999 3.78121,-3.0683h-2.37958c-1.40771,0 -2.54891,-0.71532 -2.54891,-1.5977c0,-0.81372 0.97049,-1.48536 2.22553,-1.58496l1.86284,-0.16681c0.65683,-0.51108 0.846,-1.26397 1.27836,-1.87317c-2.35198,-0.33159 -4.79192,-0.52059 -6.80438,-1.31491c-1.81646,-0.71695 -4.59205,-1.62259 -4.37618,-2.96128c0.2207,-1.36863 3.3725,-1.77895 5.25464,-2.48637c0.23006,-0.08648 0.52279,-0.17615 0.84162,-0.25498c-0.57287,-0.15955 -1.09742,-0.36383 -1.50012,-0.65421c-0.11472,-0.08273 -0.22254,-0.16832 -0.32435,-0.25639l-0.05123,0.02676l-1.80933,-1.36094c-0.37526,-0.27824 -0.60149,-0.638 -0.60149,-1.03088c0,-0.88238 1.14118,-1.5977 2.54889,-1.5977h3.27607c1.36415,0.00628 3.21227,0.6225 4.09226,-0.0309c1.43592,-1.06619 0.40708,-3.28944 2.40466,-3.90511c1.3746,-0.42365 2.99015,0.4421 4.51407,0.53915c3.75833,0.23935 6.985,-0.07673 10.43651,0.26311c0.62839,0.40188 1.33873,0.75322 2.11407,1.04341c0.3367,0.21445 0.69679,0.41441 1.07768,0.59828c0.02075,0.4298 0.58313,0.77423 1.27385,0.77423c0.07301,0 0.14462,-0.00385 0.21428,-0.01125c-0.02312,0.04885 -0.0498,0.09876 -0.08032,0.14977c-0.89499,1.49597 -3.28158,0.93498 -3.28158,0.93498c-4.26599,-1.05 -8.31191,0.03698 -12.66406,-0.60841c-0.60415,-0.08959 -0.73322,-0.6859 -1.31005,-0.82984c-0.36177,-0.09026 0.64636,0.40467 0.5598,0.64263c-0.35166,0.96673 -0.64454,2.07318 -1.79521,2.75358c-0.80556,0.47634 -1.96249,0.70111 -3.19357,0.80489c1.25768,0.83526 2.07123,1.94761 1.72092,2.81325c-0.12029,0.29724 -2.62745,1.42015 -4.97012,1.98038c0.73532,0.10411 1.46309,0.23116 2.18078,0.37176c1.80218,0.35305 3.51788,0.86057 5.27683,1.29086l0.24731,0.22091l0.09381,-0.07056l2.16909,1.13302c0.5691,0.29302 0.93208,0.73754 0.93208,1.2352c0,0.82932 -1.00805,1.51105 -2.29798,1.59006l-1.16987,0.08148c0.25567,0.4185 0.50345,0.95028 0.73843,1.61535c0.44,1.24534 -0.94384,2.47162 -2.26078,3.55109c1.35663,-0.03643 2.829,-0.04304 3.35837,0.62094c0.67972,0.85256 0.06185,1.8346 -0.45588,2.80666c4.84251,-0.06498 8.66546,0.41439 13.17406,1.4721l-0.16697,-0.10173c0,0 2.54891,0 2.54891,1.5977z" fill="url(#color-5)"/><path d="M232.43722,212.82986c0,1.59769 -2.54889,1.59769 -2.54889,1.59769l-1.623,-0.10172c-2.53806,-0.59783 -4.89297,-1.18649 -7.63556,-1.27035c-0.31361,-0.00959 -7.2795,0.04889 -7.62546,-0.09234c-0.24496,-0.10001 -0.47181,-0.21249 -0.68445,-0.33477l-0.07961,0.05988l-2.1691,-1.13302c-0.5691,-0.29302 -0.93208,-0.73753 -0.93208,-1.23519c0,-0.38146 0.21328,-0.73171 0.56917,-1.00643c-1.69536,-0.49955 -3.30689,-1.41834 -3.42597,-1.62889c-0.41221,-0.72884 1.9269,-2.21999 3.78121,-3.0683h-2.37958c-1.40771,0 -2.54889,-0.71532 -2.54889,-1.5977c0,-0.81372 0.97049,-1.48536 2.22553,-1.58496l1.86284,-0.16681c0.65683,-0.51108 0.846,-1.26397 1.27836,-1.87317c-2.35198,-0.33159 -4.79192,-0.52059 -6.80438,-1.31491c-1.81646,-0.71695 -4.59204,-1.62259 -4.37617,-2.96128c0.2207,-1.36863 3.3725,-1.77895 5.25464,-2.48637c0.23006,-0.08648 0.52277,-0.17615 0.84162,-0.25498c-0.57287,-0.15955 -1.09742,-0.36383 -1.50012,-0.65421c-0.11472,-0.08273 -0.22254,-0.16832 -0.32435,-0.25639l-0.05123,0.02676l-1.80933,-1.36094c-0.37526,-0.27824 -0.60149,-0.638 -0.60149,-1.03088c0,-0.88238 1.14118,-1.5977 2.54891,-1.5977h3.27606c1.36415,0.00628 3.21227,0.6225 4.09226,-0.0309c1.43592,-1.06619 0.40708,-3.28944 2.40466,-3.90511c1.3746,-0.42365 2.99015,0.4421 4.51407,0.53915c3.75833,0.23935 6.985,-0.07673 10.43651,0.26311c0.62839,0.40188 1.33875,0.75322 2.11407,1.04341c0.3367,0.21445 0.69679,0.41441 1.07768,0.59828c0.02075,0.4298 0.58313,0.77423 1.27385,0.77423c0.07301,0 0.14461,-0.00385 0.21427,-0.01125c-0.02312,0.04885 -0.0498,0.09876 -0.08032,0.14977c-0.89499,1.49597 -3.28158,0.93498 -3.28158,0.93498c-4.26599,-1.05 -8.31191,0.03698 -12.66406,-0.60841c-0.60415,-0.08959 -0.73322,-0.6859 -1.31005,-0.82984c-0.36177,-0.09026 0.64636,0.40467 0.5598,0.64263c-0.35166,0.96673 -0.64454,2.07318 -1.79521,2.75358c-0.80556,0.47634 -1.96249,0.70111 -3.19357,0.80489c1.25768,0.83526 2.07123,1.94761 1.72092,2.81325c-0.12029,0.29724 -2.62745,1.42015 -4.97012,1.98038c0.73532,0.10411 1.46309,0.23116 2.18079,0.37176c1.80218,0.35305 3.51788,0.86057 5.27683,1.29086l0.2473,0.22091l0.09381,-0.07056l2.16909,1.13302c0.5691,0.29302 0.93208,0.73754 0.93208,1.2352c0,0.82932 -1.00805,1.51105 -2.29798,1.59006l-1.16987,0.08148c0.25567,0.4185 0.50344,0.95028 0.73842,1.61535c0.44,1.24534 -0.94384,2.47162 -2.26078,3.55109c1.35663,-0.03643 2.829,-0.04304 3.35837,0.62094c0.67972,0.85256 0.06185,1.8346 -0.45588,2.80666c4.84251,-0.06498 8.66546,0.41439 13.17406,1.4721l-0.16697,-0.10173c0,0 2.54889,0 2.54889,1.5977z" fill="url(#color-6)"/><path d="M235.28513,212.82986c0,1.59769 -2.54891,1.59769 -2.54891,1.59769l-1.623,-0.10172c-2.53806,-0.59783 -4.89297,-1.18649 -7.63556,-1.27035c-0.31361,-0.00959 -7.27952,0.04889 -7.62547,-0.09234c-0.24496,-0.10001 -0.47181,-0.21249 -0.68445,-0.33477l-0.07961,0.05988l-2.16909,-1.13302c-0.5691,-0.29302 -0.93208,-0.73753 -0.93208,-1.23519c0,-0.38146 0.21327,-0.73171 0.56917,-1.00643c-1.69536,-0.49955 -3.30689,-1.41834 -3.42597,-1.62889c-0.41221,-0.72884 1.9269,-2.21999 3.78121,-3.0683h-2.37958c-1.40771,0 -2.54889,-0.71532 -2.54889,-1.5977c0,-0.81372 0.97049,-1.48536 2.22553,-1.58496l1.86284,-0.16681c0.65683,-0.51108 0.846,-1.26397 1.27836,-1.87317c-2.35198,-0.33159 -4.79192,-0.52059 -6.80438,-1.31491c-1.81646,-0.71695 -4.59205,-1.62259 -4.37618,-2.96128c0.2207,-1.36863 3.3725,-1.77895 5.25464,-2.48637c0.23006,-0.08648 0.52277,-0.17615 0.84162,-0.25498c-0.57287,-0.15955 -1.09742,-0.36383 -1.50012,-0.65421c-0.11472,-0.08273 -0.22254,-0.16832 -0.32435,-0.25639l-0.05123,0.02676l-1.80933,-1.36094c-0.37526,-0.27824 -0.60149,-0.638 -0.60149,-1.03088c0,-0.88238 1.14118,-1.5977 2.54889,-1.5977h3.27606c1.36415,0.00628 3.21229,0.6225 4.09228,-0.0309c1.43592,-1.06619 0.40708,-3.28944 2.40466,-3.90511c1.3746,-0.42365 2.99015,0.4421 4.51407,0.53915c3.75833,0.23935 6.985,-0.07673 10.43651,0.26311c0.62839,0.40188 1.33875,0.75322 2.11407,1.04341c0.3367,0.21445 0.69679,0.41441 1.07768,0.59828c0.02075,0.4298 0.58313,0.77423 1.27385,0.77423c0.07301,0 0.14462,-0.00385 0.21428,-0.01125c-0.02312,0.04885 -0.0498,0.09876 -0.08032,0.14977c-0.89499,1.49597 -3.28159,0.93498 -3.28159,0.93498c-4.26599,-1.05 -8.31189,0.03698 -12.66406,-0.60841c-0.60415,-0.08959 -0.73325,-0.6859 -1.31005,-0.82984c-0.36177,-0.09026 0.64636,0.40467 0.5598,0.64263c-0.35166,0.96673 -0.64454,2.07318 -1.79521,2.75358c-0.80556,0.47634 -1.96249,0.70111 -3.19357,0.80489c1.25768,0.83526 2.07123,1.94761 1.72092,2.81325c-0.12029,0.29724 -2.62745,1.42015 -4.97012,1.98038c0.73532,0.10411 1.46309,0.23116 2.18078,0.37176c1.80218,0.35305 3.51788,0.86057 5.27683,1.29086l0.2473,0.22091l0.09381,-0.07056l2.16909,1.13302c0.5691,0.29302 0.93208,0.73754 0.93208,1.2352c0,0.82932 -1.00805,1.51105 -2.29798,1.59006l-1.16987,0.08148c0.25567,0.4185 0.50344,0.95028 0.73842,1.61535c0.44,1.24534 -0.94384,2.47162 -2.26078,3.55109c1.35663,-0.03643 2.829,-0.04304 3.35836,0.62094c0.67972,0.85256 0.06185,1.8346 -0.45588,2.80666c4.84251,-0.06498 8.66543,0.41439 13.17406,1.4721l-0.16697,-0.10173c0,0 2.54891,0 2.54891,1.5977z" fill="url(#color-7)"/></g><g><path d="M211.04277,149.16352c-0.7805,-0.50471 -2.1807,-1.73463 -0.36444,-3.25258c0.89085,-0.74454 1.89226,-1.00403 2.79845,-1.03643c0.06777,-0.47906 0.31783,-0.97924 0.60221,-1.39592c-1.10807,0.12853 -3.50197,0.17468 -4.51603,-1.60509c-1.34145,-2.35435 2.4146,-3.1952 2.4146,-3.1952c2.33827,-0.24371 4.97384,-1.48671 7.01482,-0.73111c5.92647,2.19411 2.57341,4.74238 2.43603,7.33833c-0.0356,0.67283 1.01897,4.85539 1.09559,5.57995c0.29054,2.74796 0.00871,5.58706 0.00704,8.34114l-0.05026,0.07171l0.04509,0.00166l-0.2734,2.91327c-0.10751,1.32052 -1.84969,2.37049 -3.98313,2.37049c-1.79415,0 -3.31158,-0.74256 -3.81281,-1.76412l-1.62103,-3.04826l0.10745,-0.02245c-0.08286,-0.09737 -0.163,-0.1958 -0.24015,-0.29535c-0.73929,-0.9539 -0.1753,-2.11872 -0.33028,-3.17476c-0.3598,-2.45149 -1.10918,-4.6869 -1.32972,-7.09529z" fill="#ff4200"/><path d="M218.76728,166.14564c0,1.59769 -2.54889,1.5977 -2.54889,1.5977l-1.623,-0.10173c-2.53806,-0.59784 -4.89297,-1.18649 -7.63558,-1.27035c-0.31361,-0.00959 -7.27952,0.04889 -7.62547,-0.09234c-0.24496,-0.10001 -0.47181,-0.21249 -0.68445,-0.33477l-0.07961,0.05989l-2.16909,-1.13302c-0.5691,-0.29302 -0.93208,-0.73754 -0.93208,-1.2352c0,-0.38146 0.21328,-0.73171 0.56917,-1.00643c-1.69536,-0.49955 -3.30689,-1.41834 -3.42598,-1.62889c-0.41221,-0.72884 1.9269,-2.21999 3.78121,-3.0683h-2.37958c-1.40771,0 -2.54889,-0.71532 -2.54889,-1.5977c0,-0.81372 0.97049,-1.48537 2.22553,-1.58497l1.86284,-0.1668c0.65683,-0.51108 0.846,-1.26397 1.27836,-1.87317c-2.35198,-0.33158 -4.7919,-0.52059 -6.80437,-1.31492c-1.81646,-0.71696 -4.59205,-1.62259 -4.37618,-2.96128c0.2207,-1.36863 3.3725,-1.77895 5.25464,-2.48637c0.23006,-0.08648 0.52277,-0.17615 0.84162,-0.25498c-0.57287,-0.15955 -1.09742,-0.36383 -1.50012,-0.65421c-0.11472,-0.08273 -0.22254,-0.16832 -0.32435,-0.25639l-0.05123,0.02676l-1.80933,-1.36094c-0.37526,-0.27824 -0.60149,-0.638 -0.60149,-1.03088c0,-0.88238 1.14118,-1.5977 2.54891,-1.5977h3.27606c1.36415,0.00628 3.21227,0.6225 4.09226,-0.0309c1.43592,-1.06619 0.40708,-3.28944 2.40467,-3.90511c1.3746,-0.42365 2.99015,0.4421 4.51407,0.53915c3.75833,0.23935 6.985,-0.07673 10.43652,0.26311c0.62839,0.40188 1.33875,0.75322 2.11407,1.04341c0.3367,0.21445 0.69679,0.41441 1.07768,0.59828c0.02075,0.4298 0.58313,0.77423 1.27385,0.77423c0.07301,0 0.14461,-0.00385 0.21427,-0.01125c-0.02312,0.04885 -0.0498,0.09876 -0.08032,0.14977c-0.89499,1.49597 -3.28159,0.93498 -3.28159,0.93498c-4.26599,-1.05 -8.31191,0.03697 -12.66407,-0.60841c-0.60415,-0.08959 -0.73322,-0.6859 -1.31005,-0.82984c-0.36177,-0.09026 0.64636,0.40467 0.5598,0.64263c-0.35166,0.96673 -0.64455,2.07318 -1.79521,2.75358c-0.80556,0.47634 -1.96249,0.70111 -3.19357,0.80489c1.25768,0.83526 2.07126,1.94761 1.72092,2.81326c-0.12029,0.29725 -2.62747,1.42014 -4.97014,1.98038c0.73532,0.10411 1.46309,0.23117 2.18079,0.37176c1.80218,0.35306 3.51788,0.86057 5.27683,1.29085l0.2473,0.22091l0.09381,-0.07056l2.1691,1.13302c0.5691,0.29302 0.93208,0.73754 0.93208,1.2352c0,0.82932 -1.00805,1.51105 -2.29799,1.59006l-1.16987,0.08148c0.25567,0.4185 0.50344,0.95028 0.73842,1.61535c0.44,1.24534 -0.94384,2.47162 -2.26078,3.55109c1.35663,-0.03644 2.829,-0.04304 3.35838,0.62094c0.67972,0.85256 0.06185,1.8346 -0.45588,2.80666c4.84251,-0.06498 8.66546,0.41439 13.17408,1.4721l-0.16697,-0.10173c0,0 2.54889,0 2.54889,1.5977z" fill="url(#color-8)"/><path d="M221.61519,166.14564c0,1.59769 -2.54891,1.5977 -2.54891,1.5977l-1.623,-0.10173c-2.53806,-0.59784 -4.89297,-1.18649 -7.63558,-1.27035c-0.31361,-0.00959 -7.27952,0.04889 -7.62547,-0.09234c-0.24496,-0.10001 -0.47181,-0.21249 -0.68445,-0.33477l-0.07961,0.05989l-2.16909,-1.13302c-0.5691,-0.29302 -0.93208,-0.73754 -0.93208,-1.2352c0,-0.38146 0.21328,-0.73171 0.56917,-1.00643c-1.69536,-0.49955 -3.30689,-1.41834 -3.42598,-1.62889c-0.41221,-0.72884 1.9269,-2.21999 3.78121,-3.0683h-2.37958c-1.40771,0 -2.54889,-0.71532 -2.54889,-1.5977c0,-0.81372 0.97049,-1.48537 2.22553,-1.58497l1.86284,-0.1668c0.65683,-0.51108 0.846,-1.26397 1.27836,-1.87317c-2.35198,-0.33158 -4.79192,-0.52059 -6.80438,-1.31492c-1.81646,-0.71696 -4.59205,-1.62259 -4.37618,-2.96128c0.2207,-1.36863 3.3725,-1.77895 5.25464,-2.48637c0.23006,-0.08648 0.52277,-0.17615 0.84162,-0.25498c-0.57287,-0.15955 -1.09742,-0.36383 -1.50012,-0.65421c-0.11472,-0.08273 -0.22254,-0.16832 -0.32435,-0.25639l-0.05123,0.02676l-1.80933,-1.36094c-0.37526,-0.27824 -0.60149,-0.638 -0.60149,-1.03088c0,-0.88238 1.14118,-1.5977 2.54889,-1.5977h3.27606c1.36415,0.00628 3.21229,0.6225 4.09228,-0.0309c1.43592,-1.06619 0.40708,-3.28944 2.40466,-3.90511c1.3746,-0.42365 2.99015,0.4421 4.51407,0.53915c3.75833,0.23935 6.985,-0.07673 10.43652,0.26311c0.62839,0.40188 1.33875,0.75322 2.11407,1.04341c0.3367,0.21445 0.69679,0.41441 1.07768,0.59828c0.02075,0.4298 0.58313,0.77423 1.27385,0.77423c0.07301,0 0.14462,-0.00385 0.21428,-0.01125c-0.02312,0.04885 -0.0498,0.09876 -0.08032,0.14977c-0.89499,1.49597 -3.28158,0.93498 -3.28158,0.93498c-4.26599,-1.05 -8.31191,0.03697 -12.66407,-0.60841c-0.60415,-0.08959 -0.73325,-0.6859 -1.31005,-0.82984c-0.36177,-0.09026 0.64636,0.40467 0.5598,0.64263c-0.35166,0.96673 -0.64455,2.07318 -1.79521,2.75358c-0.80556,0.47634 -1.96249,0.70111 -3.19357,0.80489c1.25768,0.83526 2.07125,1.94761 1.72092,2.81326c-0.12029,0.29725 -2.62745,1.42014 -4.97012,1.98038c0.73532,0.10411 1.46309,0.23117 2.18078,0.37176c1.80218,0.35306 3.51788,0.86057 5.27683,1.29085l0.2473,0.22091l0.09381,-0.07056l2.16909,1.13302c0.5691,0.29302 0.93208,0.73754 0.93208,1.2352c0,0.82932 -1.00805,1.51105 -2.29799,1.59006l-1.16987,0.08148c0.25567,0.4185 0.50344,0.95028 0.73842,1.61535c0.44,1.24534 -0.94384,2.47162 -2.26078,3.55109c1.35663,-0.03644 2.829,-0.04304 3.35838,0.62094c0.67972,0.85256 0.06185,1.8346 -0.45588,2.80666c4.84251,-0.06498 8.66544,0.41439 13.17408,1.4721l-0.16697,-0.10173c0,0 2.54891,0 2.54891,1.5977z" fill="url(#color-9)"/><path d="M223.8935,166.14564c0,1.59769 -2.54889,1.5977 -2.54889,1.5977l-1.623,-0.10173c-2.53806,-0.59784 -4.89297,-1.18649 -7.63558,-1.27035c-0.31361,-0.00959 -7.2795,0.04889 -7.62546,-0.09234c-0.24496,-0.10001 -0.47181,-0.21249 -0.68445,-0.33477l-0.07961,0.05989l-2.1691,-1.13302c-0.5691,-0.29302 -0.93208,-0.73754 -0.93208,-1.2352c0,-0.38146 0.21328,-0.73171 0.56917,-1.00643c-1.69536,-0.49955 -3.30689,-1.41834 -3.42598,-1.62889c-0.41221,-0.72884 1.9269,-2.21999 3.78121,-3.0683h-2.37958c-1.40771,0 -2.54889,-0.71532 -2.54889,-1.5977c0,-0.81372 0.97049,-1.48537 2.22553,-1.58497l1.86284,-0.1668c0.65683,-0.51108 0.846,-1.26397 1.27836,-1.87317c-2.35198,-0.33158 -4.79192,-0.52059 -6.80438,-1.31492c-1.81646,-0.71696 -4.59204,-1.62259 -4.37617,-2.96128c0.2207,-1.36863 3.3725,-1.77895 5.25464,-2.48637c0.23006,-0.08648 0.52279,-0.17615 0.84162,-0.25498c-0.57287,-0.15955 -1.09742,-0.36383 -1.50012,-0.65421c-0.11472,-0.08273 -0.22254,-0.16832 -0.32435,-0.25639l-0.05123,0.02676l-1.80933,-1.36094c-0.37526,-0.27824 -0.60149,-0.638 -0.60149,-1.03088c0,-0.88238 1.14118,-1.5977 2.54891,-1.5977h3.27606c1.36415,0.00628 3.21227,0.6225 4.09226,-0.0309c1.43592,-1.06619 0.40708,-3.28944 2.40466,-3.90511c1.3746,-0.42365 2.99015,0.4421 4.51407,0.53915c3.75833,0.23935 6.985,-0.07673 10.43652,0.26311c0.62839,0.40188 1.33875,0.75322 2.11407,1.04341c0.3367,0.21445 0.69679,0.41441 1.07768,0.59828c0.02075,0.4298 0.58313,0.77423 1.27385,0.77423c0.07301,0 0.14461,-0.00385 0.21427,-0.01125c-0.02312,0.04885 -0.0498,0.09876 -0.08032,0.14977c-0.89499,1.49597 -3.28158,0.93498 -3.28158,0.93498c-4.26599,-1.05 -8.31191,0.03697 -12.66407,-0.60841c-0.60415,-0.08959 -0.73322,-0.6859 -1.31005,-0.82984c-0.36177,-0.09026 0.64636,0.40467 0.5598,0.64263c-0.35166,0.96673 -0.64455,2.07318 -1.79521,2.75358c-0.80556,0.47634 -1.96249,0.70111 -3.19357,0.80489c1.25768,0.83526 2.07125,1.94761 1.72092,2.81326c-0.12029,0.29725 -2.62745,1.42014 -4.97012,1.98038c0.73532,0.10411 1.46309,0.23117 2.18079,0.37176c1.80218,0.35306 3.51788,0.86057 5.27683,1.29085l0.2473,0.22091l0.09381,-0.07056l2.16909,1.13302c0.5691,0.29302 0.93208,0.73754 0.93208,1.2352c0,0.82932 -1.00805,1.51105 -2.29799,1.59006l-1.16987,0.08148c0.25567,0.4185 0.50344,0.95028 0.73842,1.61535c0.44,1.24534 -0.94384,2.47162 -2.26078,3.55109c1.35663,-0.03644 2.829,-0.04304 3.35838,0.62094c0.67972,0.85256 0.06185,1.8346 -0.45588,2.80666c4.84251,-0.06498 8.66546,0.41439 13.17408,1.4721l-0.16697,-0.10173c0,0 2.54889,0 2.54889,1.5977z" fill="url(#color-10)"/><path d="M226.74141,166.14564c0,1.59769 -2.54891,1.5977 -2.54891,1.5977l-1.623,-0.10173c-2.53806,-0.59784 -4.89297,-1.18649 -7.63558,-1.27035c-0.31361,-0.00959 -7.27952,0.04889 -7.62547,-0.09234c-0.24496,-0.10001 -0.47181,-0.21249 -0.68445,-0.33477l-0.07961,0.05989l-2.16909,-1.13302c-0.5691,-0.29302 -0.93208,-0.73754 -0.93208,-1.2352c0,-0.38146 0.21327,-0.73171 0.56917,-1.00643c-1.69536,-0.49955 -3.30689,-1.41834 -3.42598,-1.62889c-0.41221,-0.72884 1.9269,-2.21999 3.78121,-3.0683h-2.37958c-1.40771,0 -2.54889,-0.71532 -2.54889,-1.5977c0,-0.81372 0.97049,-1.48537 2.22553,-1.58497l1.86284,-0.1668c0.65683,-0.51108 0.846,-1.26397 1.27836,-1.87317c-2.35198,-0.33158 -4.79192,-0.52059 -6.80438,-1.31492c-1.81646,-0.71696 -4.59205,-1.62259 -4.37618,-2.96128c0.2207,-1.36863 3.3725,-1.77895 5.25464,-2.48637c0.23006,-0.08648 0.52277,-0.17615 0.84162,-0.25498c-0.57287,-0.15955 -1.09742,-0.36383 -1.50012,-0.65421c-0.11472,-0.08273 -0.22254,-0.16832 -0.32435,-0.25639l-0.05123,0.02676l-1.80933,-1.36094c-0.37526,-0.27824 -0.60149,-0.638 -0.60149,-1.03088c0,-0.88238 1.14118,-1.5977 2.54889,-1.5977h3.27606c1.36415,0.00628 3.21229,0.6225 4.09228,-0.0309c1.43592,-1.06619 0.40708,-3.28944 2.40466,-3.90511c1.3746,-0.42365 2.99015,0.4421 4.51407,0.53915c3.75833,0.23935 6.985,-0.07673 10.43652,0.26311c0.62839,0.40188 1.33875,0.75322 2.11407,1.04341c0.3367,0.21445 0.69679,0.41441 1.07768,0.59828c0.02075,0.4298 0.58313,0.77423 1.27385,0.77423c0.07301,0 0.14462,-0.00385 0.21428,-0.01125c-0.02312,0.04885 -0.0498,0.09876 -0.08032,0.14977c-0.89499,1.49597 -3.28159,0.93498 -3.28159,0.93498c-4.26599,-1.05 -8.31189,0.03697 -12.66407,-0.60841c-0.60415,-0.08959 -0.73325,-0.6859 -1.31005,-0.82984c-0.36177,-0.09026 0.64636,0.40467 0.5598,0.64263c-0.35166,0.96673 -0.64455,2.07318 -1.79521,2.75358c-0.80556,0.47634 -1.96249,0.70111 -3.19357,0.80489c1.25768,0.83526 2.07125,1.94761 1.72092,2.81326c-0.12029,0.29725 -2.62745,1.42014 -4.97012,1.98038c0.73532,0.10411 1.46309,0.23117 2.18078,0.37176c1.80218,0.35306 3.51788,0.86057 5.27683,1.29085l0.2473,0.22091l0.09381,-0.07056l2.16909,1.13302c0.5691,0.29302 0.93208,0.73754 0.93208,1.2352c0,0.82932 -1.00805,1.51105 -2.29799,1.59006l-1.16987,0.08148c0.25567,0.4185 0.50344,0.95028 0.73842,1.61535c0.44,1.24534 -0.94384,2.47162 -2.26078,3.55109c1.35663,-0.03644 2.829,-0.04304 3.35836,0.62094c0.67972,0.85256 0.06185,1.8346 -0.45588,2.80666c4.84251,-0.06498 8.66544,0.41439 13.17408,1.4721l-0.16697,-0.10173c0,0 2.54891,0 2.54891,1.5977z" fill="url(#color-11)"/><path d="M229.58931,166.14564c0,1.59769 -2.54891,1.5977 -2.54891,1.5977l-1.623,-0.10173c-2.53806,-0.59784 -4.89297,-1.18649 -7.63558,-1.27035c-0.31361,-0.00959 -7.27952,0.04889 -7.62547,-0.09234c-0.24496,-0.10001 -0.47181,-0.21249 -0.68445,-0.33477l-0.07961,0.05989l-2.16909,-1.13302c-0.5691,-0.29302 -0.93208,-0.73754 -0.93208,-1.2352c0,-0.38146 0.21328,-0.73171 0.56917,-1.00643c-1.69536,-0.49955 -3.30689,-1.41834 -3.42598,-1.62889c-0.41221,-0.72884 1.9269,-2.21999 3.78121,-3.0683h-2.37958c-1.40771,0 -2.54891,-0.71532 -2.54891,-1.5977c0,-0.81372 0.97049,-1.48537 2.22553,-1.58497l1.86284,-0.1668c0.65683,-0.51108 0.846,-1.26397 1.27836,-1.87317c-2.35198,-0.33158 -4.79192,-0.52059 -6.80438,-1.31492c-1.81646,-0.71696 -4.59205,-1.62259 -4.37618,-2.96128c0.2207,-1.36863 3.3725,-1.77895 5.25464,-2.48637c0.23006,-0.08648 0.52279,-0.17615 0.84162,-0.25498c-0.57287,-0.15955 -1.09742,-0.36383 -1.50012,-0.65421c-0.11472,-0.08273 -0.22254,-0.16832 -0.32435,-0.25639l-0.05123,0.02676l-1.80933,-1.36094c-0.37526,-0.27824 -0.60149,-0.638 -0.60149,-1.03088c0,-0.88238 1.14118,-1.5977 2.54889,-1.5977h3.27607c1.36415,0.00628 3.21227,0.6225 4.09226,-0.0309c1.43592,-1.06619 0.40708,-3.28944 2.40466,-3.90511c1.3746,-0.42365 2.99015,0.4421 4.51407,0.53915c3.75833,0.23935 6.985,-0.07673 10.43652,0.26311c0.62839,0.40188 1.33873,0.75322 2.11407,1.04341c0.3367,0.21445 0.69679,0.41441 1.07768,0.59828c0.02075,0.4298 0.58313,0.77423 1.27385,0.77423c0.07301,0 0.14462,-0.00385 0.21428,-0.01125c-0.02312,0.04885 -0.0498,0.09876 -0.08032,0.14977c-0.89499,1.49597 -3.28158,0.93498 -3.28158,0.93498c-4.26599,-1.05 -8.31191,0.03697 -12.66407,-0.60841c-0.60415,-0.08959 -0.73322,-0.6859 -1.31005,-0.82984c-0.36177,-0.09026 0.64636,0.40467 0.5598,0.64263c-0.35166,0.96673 -0.64455,2.07318 -1.79521,2.75358c-0.80556,0.47634 -1.96249,0.70111 -3.19357,0.80489c1.25768,0.83526 2.07125,1.94761 1.72092,2.81326c-0.12029,0.29725 -2.62745,1.42014 -4.97012,1.98038c0.73532,0.10411 1.46309,0.23117 2.18078,0.37176c1.80218,0.35306 3.51788,0.86057 5.27683,1.29085l0.24731,0.22091l0.09381,-0.07056l2.16909,1.13302c0.5691,0.29302 0.93208,0.73754 0.93208,1.2352c0,0.82932 -1.00805,1.51105 -2.29799,1.59006l-1.16987,0.08148c0.25567,0.4185 0.50345,0.95028 0.73843,1.61535c0.44,1.24534 -0.94384,2.47162 -2.26078,3.55109c1.35663,-0.03644 2.829,-0.04304 3.35838,0.62094c0.67972,0.85256 0.06185,1.8346 -0.45588,2.80666c4.84251,-0.06498 8.66546,0.41439 13.17408,1.4721l-0.16697,-0.10173c0,0 2.54891,0 2.54891,1.5977z" fill="url(#color-12)"/><path d="M232.43722,166.14564c0,1.59769 -2.54889,1.5977 -2.54889,1.5977l-1.623,-0.10173c-2.53806,-0.59784 -4.89297,-1.18649 -7.63558,-1.27035c-0.31361,-0.00959 -7.2795,0.04889 -7.62546,-0.09234c-0.24496,-0.10001 -0.47181,-0.21249 -0.68445,-0.33477l-0.07961,0.05989l-2.1691,-1.13302c-0.5691,-0.29302 -0.93208,-0.73754 -0.93208,-1.2352c0,-0.38146 0.21328,-0.73171 0.56917,-1.00643c-1.69536,-0.49955 -3.30689,-1.41834 -3.42598,-1.62889c-0.41221,-0.72884 1.9269,-2.21999 3.78121,-3.0683h-2.37958c-1.40771,0 -2.54889,-0.71532 -2.54889,-1.5977c0,-0.81372 0.97049,-1.48537 2.22553,-1.58497l1.86284,-0.1668c0.65683,-0.51108 0.846,-1.26397 1.27836,-1.87317c-2.35198,-0.33158 -4.79192,-0.52059 -6.80438,-1.31492c-1.81646,-0.71696 -4.59204,-1.62259 -4.37617,-2.96128c0.2207,-1.36863 3.3725,-1.77895 5.25464,-2.48637c0.23006,-0.08648 0.52277,-0.17615 0.84162,-0.25498c-0.57287,-0.15955 -1.09742,-0.36383 -1.50012,-0.65421c-0.11472,-0.08273 -0.22254,-0.16832 -0.32435,-0.25639l-0.05123,0.02676l-1.80933,-1.36094c-0.37526,-0.27824 -0.60149,-0.638 -0.60149,-1.03088c0,-0.88238 1.14118,-1.5977 2.54891,-1.5977h3.27606c1.36415,0.00628 3.21227,0.6225 4.09226,-0.0309c1.43592,-1.06619 0.40708,-3.28944 2.40466,-3.90511c1.3746,-0.42365 2.99015,0.4421 4.51407,0.53915c3.75833,0.23935 6.985,-0.07673 10.43652,0.26311c0.62839,0.40188 1.33875,0.75322 2.11407,1.04341c0.3367,0.21445 0.69679,0.41441 1.07768,0.59828c0.02075,0.4298 0.58313,0.77423 1.27385,0.77423c0.07301,0 0.14461,-0.00385 0.21427,-0.01125c-0.02312,0.04885 -0.0498,0.09876 -0.08032,0.14977c-0.89499,1.49597 -3.28158,0.93498 -3.28158,0.93498c-4.26599,-1.05 -8.31191,0.03697 -12.66407,-0.60841c-0.60415,-0.08959 -0.73322,-0.6859 -1.31005,-0.82984c-0.36177,-0.09026 0.64636,0.40467 0.5598,0.64263c-0.35166,0.96673 -0.64455,2.07318 -1.79521,2.75358c-0.80556,0.47634 -1.96249,0.70111 -3.19357,0.80489c1.25768,0.83526 2.07125,1.94761 1.72092,2.81326c-0.12029,0.29725 -2.62745,1.42014 -4.97012,1.98038c0.73532,0.10411 1.46309,0.23117 2.18079,0.37176c1.80218,0.35306 3.51788,0.86057 5.27683,1.29085l0.2473,0.22091l0.09381,-0.07056l2.16909,1.13302c0.5691,0.29302 0.93208,0.73754 0.93208,1.2352c0,0.82932 -1.00805,1.51105 -2.29799,1.59006l-1.16987,0.08148c0.25567,0.4185 0.50344,0.95028 0.73842,1.61535c0.44,1.24534 -0.94384,2.47162 -2.26078,3.55109c1.35663,-0.03644 2.829,-0.04304 3.35838,0.62094c0.67972,0.85256 0.06185,1.8346 -0.45588,2.80666c4.84251,-0.06498 8.66546,0.41439 13.17408,1.4721l-0.16697,-0.10173c0,0 2.54889,0 2.54889,1.5977z" fill="url(#color-13)"/><path d="M235.28513,166.14564c0,1.59769 -2.54891,1.5977 -2.54891,1.5977l-1.623,-0.10173c-2.53806,-0.59784 -4.89297,-1.18649 -7.63558,-1.27035c-0.31361,-0.00959 -7.27952,0.04889 -7.62547,-0.09234c-0.24496,-0.10001 -0.47181,-0.21249 -0.68445,-0.33477l-0.07961,0.05989l-2.16909,-1.13302c-0.5691,-0.29302 -0.93208,-0.73754 -0.93208,-1.2352c0,-0.38146 0.21327,-0.73171 0.56917,-1.00643c-1.69536,-0.49955 -3.30689,-1.41834 -3.42598,-1.62889c-0.41221,-0.72884 1.9269,-2.21999 3.78121,-3.0683h-2.37958c-1.40771,0 -2.54889,-0.71532 -2.54889,-1.5977c0,-0.81372 0.97049,-1.48537 2.22553,-1.58497l1.86284,-0.1668c0.65683,-0.51108 0.846,-1.26397 1.27836,-1.87317c-2.35198,-0.33158 -4.79192,-0.52059 -6.80438,-1.31492c-1.81646,-0.71696 -4.59205,-1.62259 -4.37618,-2.96128c0.2207,-1.36863 3.3725,-1.77895 5.25464,-2.48637c0.23006,-0.08648 0.52277,-0.17615 0.84162,-0.25498c-0.57287,-0.15955 -1.09742,-0.36383 -1.50012,-0.65421c-0.11472,-0.08273 -0.22254,-0.16832 -0.32435,-0.25639l-0.05123,0.02676l-1.80933,-1.36094c-0.37526,-0.27824 -0.60149,-0.638 -0.60149,-1.03088c0,-0.88238 1.14118,-1.5977 2.54889,-1.5977h3.27606c1.36415,0.00628 3.21229,0.6225 4.09228,-0.0309c1.43592,-1.06619 0.40708,-3.28944 2.40466,-3.90511c1.3746,-0.42365 2.99015,0.4421 4.51407,0.53915c3.75833,0.23935 6.985,-0.07673 10.43652,0.26311c0.62839,0.40188 1.33875,0.75322 2.11407,1.04341c0.3367,0.21445 0.69679,0.41441 1.07768,0.59828c0.02075,0.4298 0.58313,0.77423 1.27385,0.77423c0.07301,0 0.14462,-0.00385 0.21428,-0.01125c-0.02312,0.04885 -0.0498,0.09876 -0.08032,0.14977c-0.89499,1.49597 -3.28159,0.93498 -3.28159,0.93498c-4.26599,-1.05 -8.31189,0.03697 -12.66407,-0.60841c-0.60415,-0.08959 -0.73325,-0.6859 -1.31005,-0.82984c-0.36177,-0.09026 0.64636,0.40467 0.5598,0.64263c-0.35166,0.96673 -0.64455,2.07318 -1.79521,2.75358c-0.80556,0.47634 -1.96249,0.70111 -3.19357,0.80489c1.25768,0.83526 2.07125,1.94761 1.72092,2.81326c-0.12029,0.29725 -2.62745,1.42014 -4.97012,1.98038c0.73532,0.10411 1.46309,0.23117 2.18078,0.37176c1.80218,0.35306 3.51788,0.86057 5.27683,1.29085l0.2473,0.22091l0.09381,-0.07056l2.16909,1.13302c0.5691,0.29302 0.93208,0.73754 0.93208,1.2352c0,0.82932 -1.00805,1.51105 -2.29799,1.59006l-1.16987,0.08148c0.25567,0.4185 0.50344,0.95028 0.73842,1.61535c0.44,1.24534 -0.94384,2.47162 -2.26078,3.55109c1.35663,-0.03644 2.829,-0.04304 3.35836,0.62094c0.67972,0.85256 0.06185,1.8346 -0.45588,2.80666c4.84251,-0.06498 8.66544,0.41439 13.17408,1.4721l-0.16697,-0.10173c0,0 2.54891,0 2.54891,1.5977z" fill="url(#color-14)"/></g></g><path d="M197.11591,175.81358c13.88769,0 25.14589,9.88989 25.14589,22.0897c0,12.19981 -11.25819,22.0897 -25.14589,22.0897c-13.88769,0 -25.14589,-9.88989 -25.14589,-22.0897c0,-12.1998 11.25819,-22.0897 25.14589,-22.0897z" fill="url(#color-15)" stroke-width="0"/><path d="M197.11591,128.30258c13.88769,0 25.14589,9.88989 25.14589,22.0897c0,12.19981 -11.25819,22.0897 -25.14589,22.0897c-13.88769,0 -25.14589,-9.88989 -25.14589,-22.0897c0,-12.1998 11.25819,-22.0897 25.14589,-22.0897z" fill="url(#color-16)" stroke-width="0"/></g><g fill="#ff8383" stroke="#ffffff" stroke-width="1.5"><path d="M245.37237,193.85294h8.92558v35.34532c0,0 -2.98474,0 -4.47424,0c-1.48568,0 -4.45135,-2.62806 -4.45135,-4.99833c0,-5.84041 0,-30.34699 0,-30.34699z"/><path d="M271.34357,220.27267v8.92558c0,0 -17.47271,0 -21.87688,0c-1.90529,0 -4.09432,-3.43255 -4.09432,-4.99833c0,-1.38792 0,-3.92726 0,-3.92726z"/></g><path d="M248.22855,199.11161l-25.9712,21.68692v-43.37384z" fill="#ff7166" stroke="#ffffff" stroke-width="1.5"/><path d="M248.22855,154.12666l-25.9712,21.68692v-43.37384z" fill="#ff7166" stroke="#ffffff" stroke-width="1.5"/><path d="M279.42235,176.5373l-44.17939,44.17939v-87.81096c0.11343,-0.06852 0.22542,-0.13917 0.33592,-0.21191z" fill="url(#color-17)" stroke="#ffffff" stroke-width="1.5"/><path d="M270.89954,168.68279h33.91723v15.70903h-33.91723z" fill="url(#color-18)" stroke="#ffffff" stroke-width="1.5"/><path d="M304.81677,166.54064h3.21321v19.99331h-3.21321z" fill="#740000" stroke="#ffffff" stroke-width="1"/><path d="M277.14745,217.41648c3.94357,0 7.14047,3.1969 7.14047,7.14047c0,3.94357 -3.1969,7.14047 -7.14047,7.14047c-3.94357,0 -7.14047,-3.1969 -7.14047,-7.14047c0,-3.94357 3.1969,-7.14047 7.14047,-7.14047z" fill="#ff8383" stroke="#ffffff" stroke-width="1.5"/><path d="M277.14745,219.55861c2.7605,0 4.99833,2.23783 4.99833,4.99833c0,2.7605 -2.23783,4.99833 -4.99833,4.99833c-2.7605,0 -4.99833,-2.23783 -4.99833,-4.99833c0,-2.7605 2.23783,-4.99833 4.99833,-4.99833z" fill="#000000" stroke="#ffffff" stroke-width="0.5"/><path d="M279.23275,227.34315c-1.25484,0 -1.25484,-5.67529 0,-5.67529c1.25484,0 2.27208,1.27045 2.27208,2.83764c0,1.56719 -1.01725,2.83765 -2.27208,2.83765z" fill="#ffffff" stroke="#ffffff" stroke-width="0.5"/><path d="M168.83333,180c0,-39.30426 31.8624,-71.16667 71.16667,-71.16667c39.30426,0 71.16667,31.8624 71.16667,71.16667c0,39.30426 -31.8624,71.16667 -71.16667,71.16667c-39.30426,0 -71.16667,-31.8624 -71.16667,-71.16667z" fill="url(#color-19)" stroke="none" stroke-width="0"/></g></g></svg>