<svg version="1.1" xmlns="http://www.w3.org/2000/svg" xmlns:xlink="http://www.w3.org/1999/xlink" width="458.00996" height="325.69509" viewBox="0,0,458.00996,325.69509"><defs><linearGradient x1="298.15725" y1="194.30891" x2="298.15725" y2="37.83921" gradientUnits="userSpaceOnUse" id="color-1"><stop offset="0" stop-color="#140f1e"/><stop offset="1" stop-color="#000000"/></linearGradient><linearGradient x1="354.17327" y1="179.99999" x2="354.17327" y2="23.53029" gradientUnits="userSpaceOnUse" id="color-2"><stop offset="0" stop-color="#140f1e"/><stop offset="1" stop-color="#000000"/></linearGradient><linearGradient x1="280.65486" y1="168.57028" x2="124.18518" y2="168.57028" gradientUnits="userSpaceOnUse" id="color-3"><stop offset="0" stop-color="#140f1e"/><stop offset="1" stop-color="#000000"/></linearGradient><linearGradient x1="292.56017" y1="168.57028" x2="114.92551" y2="168.57028" gradientUnits="userSpaceOnUse" id="color-4"><stop offset="0" stop-color="#140f1e"/><stop offset="1" stop-color="#000000"/></linearGradient><linearGradient x1="350.89213" y1="173.76865" x2="528.52682" y2="173.76865" gradientUnits="userSpaceOnUse" id="color-5"><stop offset="0" stop-color="#140f1e"/><stop offset="1" stop-color="#000000"/></linearGradient><linearGradient x1="317.44888" y1="81.78123" x2="317.44888" y2="284.72675" gradientUnits="userSpaceOnUse" id="color-6"><stop offset="0" stop-color="#261c37"/><stop offset="1" stop-color="#000000"/></linearGradient><radialGradient cx="303.36116" cy="141.09107" r="22.70629" gradientUnits="userSpaceOnUse" id="color-7"><stop offset="0" stop-color="#ff0000" stop-opacity="0.54118"/><stop offset="1" stop-color="#ff0000" stop-opacity="0"/></radialGradient><radialGradient cx="348.77374" cy="141.09107" r="22.70628" gradientUnits="userSpaceOnUse" id="color-8"><stop offset="0" stop-color="#000000" stop-opacity="0.54118"/><stop offset="1" stop-color="#000000" stop-opacity="0"/></radialGradient><radialGradient cx="317.44888" cy="188.35627" r="23.81061" gradientUnits="userSpaceOnUse" id="color-9"><stop offset="0" stop-color="#000000"/><stop offset="1" stop-color="#000000" stop-opacity="0"/></radialGradient><radialGradient cx="293.63827" cy="211.27573" r="23.81061" gradientUnits="userSpaceOnUse" id="color-10"><stop offset="0" stop-color="#000000"/><stop offset="1" stop-color="#000000" stop-opacity="0"/></radialGradient><radialGradient cx="356.14112" cy="223.99063" r="23.81061" gradientUnits="userSpaceOnUse" id="color-11"><stop offset="0" stop-color="#000000"/><stop offset="1" stop-color="#000000" stop-opacity="0"/></radialGradient><radialGradient cx="317.44888" cy="234.19518" r="23.81061" gradientUnits="userSpaceOnUse" id="color-12"><stop offset="0" stop-color="#000000"/><stop offset="1" stop-color="#000000" stop-opacity="0"/></radialGradient><radialGradient cx="269.82768" cy="234.19518" r="23.81061" gradientUnits="userSpaceOnUse" id="color-13"><stop offset="0" stop-color="#000000"/><stop offset="1" stop-color="#000000" stop-opacity="0"/></radialGradient><radialGradient cx="269.75272" cy="257.20807" r="23.81061" gradientUnits="userSpaceOnUse" id="color-14"><stop offset="0" stop-color="#000000"/><stop offset="1" stop-color="#000000" stop-opacity="0"/></radialGradient><radialGradient cx="308.70098" cy="257.55318" r="23.81061" gradientUnits="userSpaceOnUse" id="color-15"><stop offset="0" stop-color="#000000"/><stop offset="1" stop-color="#000000" stop-opacity="0"/></radialGradient><radialGradient cx="341.25948" cy="257.11463" r="16.0657" gradientUnits="userSpaceOnUse" id="color-16"><stop offset="0" stop-color="#000000"/><stop offset="1" stop-color="#000000" stop-opacity="0"/></radialGradient><radialGradient cx="380.60903" cy="250.87118" r="34.86554" gradientUnits="userSpaceOnUse" id="color-17"><stop offset="0" stop-color="#000000"/><stop offset="1" stop-color="#000000" stop-opacity="0"/></radialGradient><radialGradient cx="379.95173" cy="223.99063" r="23.81061" gradientUnits="userSpaceOnUse" id="color-18"><stop offset="0" stop-color="#000000"/><stop offset="1" stop-color="#000000" stop-opacity="0"/></radialGradient><radialGradient cx="341.25949" cy="206.17346" r="23.81061" gradientUnits="userSpaceOnUse" id="color-19"><stop offset="0" stop-color="#000000"/><stop offset="1" stop-color="#000000" stop-opacity="0"/></radialGradient><radialGradient cx="365.07008" cy="188.35627" r="23.81061" gradientUnits="userSpaceOnUse" id="color-20"><stop offset="0" stop-color="#000000"/><stop offset="1" stop-color="#000000" stop-opacity="0"/></radialGradient><radialGradient cx="345.08618" cy="213.34945" r="34.86554" gradientUnits="userSpaceOnUse" id="color-21"><stop offset="0" stop-color="#000000"/><stop offset="1" stop-color="#000000" stop-opacity="0"/></radialGradient><radialGradient cx="308.51989" cy="223.99063" r="23.03282" gradientUnits="userSpaceOnUse" id="color-22"><stop offset="0" stop-color="#000000"/><stop offset="1" stop-color="#000000" stop-opacity="0"/></radialGradient><radialGradient cx="280.65486" cy="186.71682" r="23.81061" gradientUnits="userSpaceOnUse" id="color-23"><stop offset="0" stop-color="#000000"/><stop offset="1" stop-color="#000000" stop-opacity="0"/></radialGradient><radialGradient cx="284.90458" cy="224.14373" r="31.30228" gradientUnits="userSpaceOnUse" id="color-24"><stop offset="0" stop-color="#000000"/><stop offset="1" stop-color="#000000" stop-opacity="0"/></radialGradient><radialGradient cx="256.8443" cy="178.04178" r="23.81061" gradientUnits="userSpaceOnUse" id="color-25"><stop offset="0" stop-color="#000000"/><stop offset="1" stop-color="#000000" stop-opacity="0"/></radialGradient><radialGradient cx="260.97547" cy="201.2262" r="23.81061" gradientUnits="userSpaceOnUse" id="color-26"><stop offset="0" stop-color="#000000"/><stop offset="1" stop-color="#000000" stop-opacity="0"/></radialGradient><radialGradient cx="237.67192" cy="177.39267" r="34.86554" gradientUnits="userSpaceOnUse" id="color-27"><stop offset="0" stop-color="#000000"/><stop offset="1" stop-color="#000000" stop-opacity="0"/></radialGradient><radialGradient cx="205.53257" cy="170.69669" r="16.0657" gradientUnits="userSpaceOnUse" id="color-28"><stop offset="0" stop-color="#000000"/><stop offset="1" stop-color="#000000" stop-opacity="0"/></radialGradient><radialGradient cx="399.88038" cy="187.21663" r="34.86554" gradientUnits="userSpaceOnUse" id="color-29"><stop offset="0" stop-color="#000000"/><stop offset="1" stop-color="#000000" stop-opacity="0"/></radialGradient><radialGradient cx="450.81162" cy="171.75221" r="16.0657" gradientUnits="userSpaceOnUse" id="color-30"><stop offset="0" stop-color="#000000"/><stop offset="1" stop-color="#000000" stop-opacity="0"/></radialGradient><radialGradient cx="371.48002" cy="95.46535" r="33.39256" gradientUnits="userSpaceOnUse" id="color-31"><stop offset="0" stop-color="#000000"/><stop offset="1" stop-color="#000000" stop-opacity="0"/></radialGradient><radialGradient cx="347.66941" cy="72.54589" r="23.81061" gradientUnits="userSpaceOnUse" id="color-32"><stop offset="0" stop-color="#000000"/><stop offset="1" stop-color="#000000" stop-opacity="0"/></radialGradient><radialGradient cx="344.41193" cy="99.44083" r="16.0657" gradientUnits="userSpaceOnUse" id="color-33"><stop offset="0" stop-color="#000000"/><stop offset="1" stop-color="#000000" stop-opacity="0"/></radialGradient><radialGradient cx="347.66942" cy="49.62644" r="23.81061" gradientUnits="userSpaceOnUse" id="color-34"><stop offset="0" stop-color="#000000"/><stop offset="1" stop-color="#000000" stop-opacity="0"/></radialGradient><radialGradient cx="371.48002" cy="49.62644" r="23.81061" gradientUnits="userSpaceOnUse" id="color-35"><stop offset="0" stop-color="#000000"/><stop offset="1" stop-color="#000000" stop-opacity="0"/></radialGradient><radialGradient cx="304.46547" cy="95.46534" r="23.81061" gradientUnits="userSpaceOnUse" id="color-36"><stop offset="0" stop-color="#000000"/><stop offset="1" stop-color="#000000" stop-opacity="0"/></radialGradient><radialGradient cx="280.80618" cy="154.66737" r="23.81061" gradientUnits="userSpaceOnUse" id="color-37"><stop offset="0" stop-color="#000000"/><stop offset="1" stop-color="#000000" stop-opacity="0"/></radialGradient><radialGradient cx="260.89869" cy="132.31283" r="23.81061" gradientUnits="userSpaceOnUse" id="color-38"><stop offset="0" stop-color="#000000"/><stop offset="1" stop-color="#000000" stop-opacity="0"/></radialGradient><radialGradient cx="260.89869" cy="132.31283" r="23.81061" gradientUnits="userSpaceOnUse" id="color-39"><stop offset="0" stop-color="#000000"/><stop offset="1" stop-color="#000000" stop-opacity="0"/></radialGradient><radialGradient cx="284.70932" cy="86.47393" r="23.81061" gradientUnits="userSpaceOnUse" id="color-40"><stop offset="0" stop-color="#000000"/><stop offset="1" stop-color="#000000" stop-opacity="0"/></radialGradient><radialGradient cx="300.0482" cy="72.54589" r="23.81061" gradientUnits="userSpaceOnUse" id="color-41"><stop offset="0" stop-color="#000000"/><stop offset="1" stop-color="#000000" stop-opacity="0"/></radialGradient><radialGradient cx="291.82752" cy="51.28642" r="23.81061" gradientUnits="userSpaceOnUse" id="color-42"><stop offset="0" stop-color="#000000"/><stop offset="1" stop-color="#000000" stop-opacity="0"/></radialGradient><radialGradient cx="320" cy="180" r="149.66667" gradientUnits="userSpaceOnUse" id="color-43"><stop offset="0" stop-color="#171122"/><stop offset="1" stop-color="#171122" stop-opacity="0"/></radialGradient></defs><g transform="translate(-92.72117,-3.97158)"><g data-paper-data="{&quot;isPaintingLayer&quot;:true}" fill-rule="nonzero" stroke="none" stroke-width="0" stroke-linecap="butt" stroke-linejoin="miter" stroke-miterlimit="10" stroke-dasharray="" stroke-dashoffset="0" style="mix-blend-mode: normal"><path d="M284.7093,194.30892c0,0 0,-69.96031 0,-85.88826c0,-6.13825 2.30453,-28.91288 2.30453,-28.91288c0,0 6.27498,-61.22728 8.50379,-61.22728c0.56684,0 3.35047,37.62764 5.71033,45.1017c5.38772,17.06378 11.00866,37.38504 11.00866,37.38504c0,0 3.40151,3.06136 3.40151,10.20454c0,16.66743 0,83.33713 0,83.33713h-30.92882z" data-paper-data="{&quot;index&quot;:null}" fill="url(#color-1)"/><path d="M367.62123,179.99999h-30.92882c0,0 0,-66.6697 0,-83.33713c0,-7.14318 3.40151,-10.20454 3.40151,-10.20454c0,0 5.62094,-20.32126 11.00866,-37.38504c2.35986,-7.47406 5.14349,-45.1017 5.71033,-45.1017c2.22881,0 8.50379,61.22728 8.50379,61.22728c0,0 2.30453,22.77463 2.30453,28.91288c0,15.92795 0,85.88826 0,85.88826z" fill="url(#color-2)"/><path d="M280.65486,155.12232v30.92882c0,0 -66.6697,0 -83.33712,0c-7.14318,0 -10.20454,-3.40152 -10.20454,-3.40152c0,0 -20.32126,-5.62095 -37.38504,-11.00866c-7.47406,-2.35986 -45.10171,-5.1435 -45.10171,-5.71033c0,-2.22881 61.22728,-8.50378 61.22728,-8.50378c0,0 22.77463,-2.30453 28.91288,-2.30453c15.92795,0 85.88826,0 85.88826,0z" fill="url(#color-3)"/><path d="M292.56017,155.12232v30.92882c0,0 -75.68782,0 -94.60977,0c-8.10941,0 -11.58486,-3.40152 -11.58486,-3.40152c0,0 -23.07003,-5.62095 -42.44195,-11.00866c-8.48504,-2.35986 -51.20242,-5.1435 -51.20242,-5.71033c0,-2.22881 69.50923,-8.50378 69.50923,-8.50378c0,0 25.85526,-2.30453 32.8238,-2.30453c18.08246,0 97.506,0 97.506,0z" fill="url(#color-4)"/><path d="M350.89213,187.21661v-30.92882c0,0 75.68782,0 94.60978,0c8.10941,0 11.58486,3.40151 11.58486,3.40151c0,0 23.07003,5.62094 42.44195,11.00866c8.48504,2.35986 51.20241,5.14349 51.20241,5.71033c0,2.22881 -69.50923,8.50379 -69.50923,8.50379c0,0 -25.85526,2.30453 -32.8238,2.30453c-18.08246,0 -97.506,0 -97.506,0z" fill="url(#color-5)"/><path d="M268.5521,280.69653c0,0 -13.60606,-26.39848 -13.60606,-43.39415c0,-28.08423 17.87124,-95.92015 21.42819,-129.36729c0.93877,-8.82751 20.24036,-10.40571 20.24036,-10.40571c0,0 44.21601,-11.43083 57.69394,-14.84942c7.10933,-1.80324 12.03713,-0.33541 12.03713,-0.33541c0,0 5.5657,3.20906 6.27618,14.39357c2.33299,36.72653 7.32989,118.51643 7.32989,145.30955c0,15.95346 -8.50379,38.64889 -8.50379,38.64889c0,0 -6.33414,-24.53225 -14.50261,-27.69621c-2.28661,-0.8857 -5.50071,21.77015 -7.80552,20.48087c-2.93147,-1.63984 -2.62933,-11.51421 -5.76319,-12.2425c-2.43831,-0.56664 -3.24551,19.51321 -5.77678,18.41871c-2.6713,-1.15504 -4.53804,-26.73795 -7.25262,-27.29534c-2.84719,-0.58462 -2.35581,20.62215 -5.29137,19.96501c-2.50056,-0.55978 -7.54311,-20.86011 -9.99646,-20.99531c-2.87344,-0.15835 -4.01459,33.75585 -6.78302,33.3921c-3.17989,-0.41781 -4.58425,-19.71728 -7.55611,-19.90817c-3.95977,-0.25437 -6.0139,13.68826 -9.43422,13.35047c-2.08733,-0.20614 -3.20425,-21.19594 -5.02269,-21.19594c-1.87369,0 -4.43554,23.72631 -5.95265,23.72631c-2.61785,0 -2.95629,-22.77726 -4.25189,-22.77726c-3.11009,0 -7.5067,22.77726 -7.5067,22.77726z" fill="url(#color-6)"/><path d="M280.65486,141.09107c0,-12.54033 10.16595,-22.70629 22.70628,-22.70629c12.54033,0 22.70629,10.16595 22.70629,22.70629c0,12.54033 -10.16595,22.70629 -22.70629,22.70629c-12.54033,0 -22.70628,-10.16595 -22.70628,-22.70629z" fill="url(#color-7)"/><path d="M326.06746,141.09107c0,-12.54033 10.16595,-22.70629 22.70628,-22.70629c12.54034,0 22.70628,10.16595 22.70628,22.70629c0,12.54034 -10.16595,22.70629 -22.70628,22.70629c-12.54034,0 -22.70628,-10.16595 -22.70628,-22.70629z" fill="url(#color-8)"/><path d="M296.08199,174.31559c0.4513,-2.13286 5.2423,3.44838 8.69126,3.57728c3.00017,0.11212 4.63456,-5.24452 5.93787,-6.43007c2.233,-2.03123 5.72314,1.00333 8.66634,0.23392c2.72356,-0.71199 4.86615,-5.32966 7.80772,-4.70724c2.22802,0.47143 2.53387,7.78926 3.71862,9.73505c1.93371,3.17587 4.1583,1.73129 5.67254,4.83089c1.7672,3.61737 5.93712,3.36597 5.03912,7.60996c-0.45263,2.13915 -2.68725,9.55215 -4.96466,10.71756c-3.50884,1.79556 -7.66919,-2.99701 -9.84878,-0.62989c-3.0907,3.35663 0.59071,10.37148 -4.08285,9.38259c-1.49453,-0.31623 -7.58324,-4.8713 -11.45464,-4.59162c-5.20018,0.37569 -8.36833,5.56267 -9.75584,4.2474c-1.32621,-1.25716 -4.11513,-5.56683 -2.59504,-9.69483c1.25696,-3.41342 6.83141,-6.68737 6.41211,-8.14426c-0.45659,-1.58647 -5.18971,-1.46797 -7.66232,-5.11658c-1.96529,-2.9 -1.87202,-9.64691 -1.58144,-11.02017z" fill="url(#color-9)"/><path d="M269.82766,201.96234c0,-2.18008 5.84259,2.28848 9.24353,1.70062c2.95839,-0.51137 3.4485,-6.09032 4.47816,-7.51998c1.76415,-2.44948 5.80687,-0.20315 8.52704,-1.56516c2.51718,-1.26037 3.65745,-6.22155 6.66415,-6.22155c2.27735,0 4.09144,7.096 5.65332,8.75439c2.54926,2.70678 4.42662,0.83298 6.54971,3.55198c2.47775,3.17319 6.5053,2.06402 6.5053,6.40197c0,2.18651 -0.65165,9.90153 -2.63848,11.51314c-3.06114,2.48303 -8.12348,-1.34449 -9.76584,1.42255c-2.3289,3.92373 2.72491,10.02454 -2.05212,10.02454c-1.52762,0 -8.42738,-3.19598 -12.15703,-2.12094c-5.00977,1.44404 -7.03554,7.1745 -8.66527,6.17495c-1.55773,-0.95539 -5.17838,-4.59437 -4.54575,-8.94763c0.52312,-3.59968 5.29908,-7.95668 4.58728,-9.29522c-0.77511,-1.45759 -5.38118,-0.36185 -8.55553,-3.41957c-2.52305,-2.43035 -3.82847,-9.05042 -3.82847,-10.45409z" fill="url(#color-10)"/><path d="M332.3305,214.67724c0,-2.18008 5.84259,2.28848 9.24353,1.70062c2.95839,-0.51137 3.4485,-6.09032 4.47816,-7.51998c1.76415,-2.44948 5.80687,-0.20315 8.52704,-1.56516c2.51718,-1.26037 3.65745,-6.22155 6.66415,-6.22155c2.27735,0 4.09144,7.096 5.65332,8.75439c2.54926,2.70678 4.42662,0.83298 6.54971,3.55198c2.47775,3.17319 6.5053,2.06402 6.5053,6.40197c0,2.18651 -0.65165,9.90153 -2.63848,11.51314c-3.06114,2.48303 -8.12348,-1.34449 -9.76584,1.42255c-2.3289,3.92373 2.72491,10.02454 -2.05212,10.02454c-1.52762,0 -8.42738,-3.19598 -12.15703,-2.12094c-5.00977,1.44404 -7.03554,7.1745 -8.66527,6.17495c-1.55773,-0.95539 -5.17838,-4.59437 -4.54575,-8.94763c0.52312,-3.59968 5.29908,-7.95668 4.58728,-9.29522c-0.77511,-1.45759 -5.38118,-0.36185 -8.55553,-3.41957c-2.52305,-2.43035 -3.82847,-9.05042 -3.82847,-10.45409z" fill="url(#color-11)"/><path d="M293.63827,224.88179c0,-2.18008 5.84259,2.28848 9.24353,1.70062c2.95839,-0.51137 3.4485,-6.09032 4.47816,-7.51998c1.76415,-2.44948 5.80687,-0.20315 8.52704,-1.56516c2.51718,-1.26037 3.65745,-6.22155 6.66415,-6.22155c2.27735,0 4.09144,7.096 5.65332,8.75439c2.54926,2.70678 4.42662,0.83298 6.54971,3.55198c2.47775,3.17319 6.5053,2.06402 6.5053,6.40197c0,2.18651 -0.65165,9.90153 -2.63848,11.51314c-3.06114,2.48303 -8.12348,-1.34449 -9.76584,1.42255c-2.3289,3.92373 2.72491,10.02454 -2.05212,10.02454c-1.52762,0 -8.42738,-3.19598 -12.15703,-2.12094c-5.00977,1.44404 -7.03554,7.1745 -8.66527,6.17495c-1.55773,-0.95539 -5.17838,-4.59437 -4.54575,-8.94763c0.52312,-3.59968 5.29908,-7.95668 4.58728,-9.29522c-0.77511,-1.45759 -5.38118,-0.36185 -8.55553,-3.41957c-2.52305,-2.43035 -3.82847,-9.05042 -3.82847,-10.45409z" fill="url(#color-12)"/><path d="M246.01706,224.88179c0,-2.18008 5.84259,2.28848 9.24353,1.70062c2.95839,-0.51137 3.4485,-6.09032 4.47816,-7.51998c1.76415,-2.44948 5.80687,-0.20315 8.52704,-1.56516c2.51718,-1.26037 3.65745,-6.22155 6.66415,-6.22155c2.27735,0 4.09144,7.096 5.65332,8.75439c2.54926,2.70678 4.42662,0.83298 6.54971,3.55198c2.47775,3.17319 6.5053,2.06402 6.5053,6.40197c0,2.18651 -0.65165,9.90153 -2.63848,11.51314c-3.06114,2.48303 -8.12348,-1.34449 -9.76584,1.42255c-2.3289,3.92373 2.72491,10.02454 -2.05212,10.02454c-1.52762,0 -8.42738,-3.19598 -12.15703,-2.12094c-5.00977,1.44404 -7.03554,7.1745 -8.66527,6.17495c-1.55773,-0.95539 -5.17838,-4.59437 -4.54575,-8.94763c0.52312,-3.59968 5.29908,-7.95668 4.58728,-9.29522c-0.77511,-1.45759 -5.38118,-0.36185 -8.55553,-3.41957c-2.52305,-2.43035 -3.82847,-9.05042 -3.82847,-10.45409z" fill="url(#color-13)"/><path d="M244.74473,251.88971c-0.35444,-2.15107 6.13692,1.30815 9.39703,0.17518c2.83589,-0.98554 2.41246,-6.56995 3.19598,-8.14799c1.34244,-2.70371 5.69658,-1.14453 8.15913,-2.93066c2.27878,-1.65284 2.59729,-6.7334 5.56399,-7.22223c2.24705,-0.37025 5.19067,6.33641 7.00139,7.7188c2.95541,2.25631 4.50315,0.10222 7.04005,2.43987c2.96068,2.72814 6.75432,0.97893 7.45958,5.25917c0.35548,2.15742 0.96681,9.87574 -0.73157,11.78893c-2.61672,2.94767 -8.23399,-0.00589 -9.40463,2.99135c-1.66,4.25016 4.31844,9.44815 -0.39503,10.2248c-1.5073,0.24836 -8.83486,-1.78334 -12.34011,-0.11624c-4.70835,2.23931 -5.77551,8.22288 -7.54606,7.50159c-1.69233,-0.68942 -5.85643,-3.69134 -5.93997,-8.08954c-0.06907,-3.63684 3.93498,-8.71234 3.01503,-9.91735c-1.00177,-1.31218 -5.36842,0.51783 -8.99765,-1.98312c-2.88461,-1.98782 -5.24895,-8.30758 -5.47716,-9.69257z" fill="url(#color-14)"/><path d="M285.7178,246.3524c0.17558,-2.173 5.6393,2.75159 9.07654,2.43955c2.98996,-0.27145 3.9278,-5.7928 5.06925,-7.13489c1.95569,-2.29944 5.80437,0.26518 8.62539,-0.87333c2.61051,-1.05355 4.14664,-5.90678 7.14357,-5.66462c2.26995,0.18341 3.50665,7.40246 4.9299,9.18126c2.32298,2.9033 4.34515,1.18678 6.24237,4.06794c2.21414,3.36243 6.31794,2.58124 5.96857,6.9051c-0.1761,2.17941 -1.44698,9.81688 -3.55715,11.26324c-3.25117,2.22843 -7.98881,-1.99437 -9.84869,0.63141c-2.63734,3.72342 1.90871,10.21143 -2.85281,9.8267c-1.52266,-0.12303 -8.14261,-3.86432 -11.94672,-3.09315c-5.1098,1.03587 -7.5905,6.58457 -9.13444,5.45701c-1.47572,-1.07774 -4.79154,-4.9965 -3.81036,-9.28467c0.81133,-3.54586 5.92268,-7.50406 5.32099,-8.89558c-0.6552,-1.51528 -5.33456,-0.79406 -8.25233,-4.0975c-2.31912,-2.62566 -3.08713,-9.32936 -2.97409,-10.72847z" fill="url(#color-15)"/><path d="M324.36727,253.61476c-0.24676,-1.45011 4.14532,0.8609 6.34098,0.08494c1.90994,-0.67501 1.60447,-4.44141 2.12754,-5.50892c0.8962,-1.82899 3.83954,-0.7924 5.49475,-2.00626c1.53168,-1.12327 1.72861,-4.55235 3.72856,-4.89268c1.51481,-0.25777 3.52467,4.25692 4.7513,5.18324c2.00206,1.51191 3.03873,0.05303 4.7587,1.6213c2.00729,1.83025 4.56073,0.63659 5.05174,3.52205c0.24749,1.45439 0.68728,6.65993 -0.45187,7.95681c-1.75512,1.99811 -5.55565,0.02517 -6.33489,2.05162c-1.10499,2.87354 2.94718,6.35956 -0.23034,6.90026c-1.01612,0.17291 -5.96736,-1.17198 -8.32652,-0.03474c-3.16889,1.52758 -3.86774,5.56858 -5.06492,5.08819c-1.14429,-0.45918 -3.96452,-2.46989 -4.03645,-5.43714c-0.05949,-2.4536 2.62417,-5.89232 1.9992,-6.7021c-0.68056,-0.88181 -3.62034,0.3684 -6.07791,-1.30619c-1.95333,-1.33101 -3.57098,-5.5867 -3.72986,-6.52037z" fill="url(#color-16)"/><path d="M369.64425,215.07509c2.50199,-1.98257 2.68686,8.78645 6.45434,12.15497c3.27724,2.93019 10.12569,-1.58083 12.70282,-1.69927c4.41549,-0.20291 5.51392,6.47957 9.55076,8.36278c3.7356,1.74269 10.46631,-1.46037 13.20061,1.9903c2.07102,2.61362 -4.42304,11.14869 -4.90593,14.44934c-0.78816,5.38724 3.0696,5.83777 1.87985,10.74701c-1.38848,5.72931 3.54713,9.3429 -1.43136,13.28783c-2.50937,1.98842 -11.9562,8.25659 -15.61261,7.44198c-5.63348,-1.25507 -5.84448,-10.54568 -10.51366,-9.9142c-6.62101,0.89545 -9.02673,12.24359 -13.37096,6.76118c-1.38922,-1.75319 -3.99596,-12.57819 -8.6215,-15.88092c-6.21315,-4.4363 -14.63201,-1.54991 -14.96694,-4.32928c-0.32014,-2.65657 0.56355,-10.12114 6.13493,-13.35396c4.60694,-2.67318 13.95055,-1.15426 14.83943,-3.18844c0.96794,-2.21509 -4.47837,-6.50483 -3.8559,-12.9286c0.49475,-5.10577 6.90519,-12.62423 8.51613,-13.90073z" fill="url(#color-17)"/><path d="M356.14112,214.67724c0,-2.18008 5.84259,2.28848 9.24353,1.70062c2.95839,-0.51137 3.4485,-6.09032 4.47816,-7.51998c1.76415,-2.44948 5.80687,-0.20315 8.52704,-1.56516c2.51718,-1.26037 3.65745,-6.22155 6.66415,-6.22155c2.27735,0 4.09144,7.096 5.65332,8.75439c2.54926,2.70678 4.42662,0.83298 6.54971,3.55198c2.47775,3.17319 6.5053,2.06402 6.5053,6.40197c0,2.18651 -0.65165,9.90153 -2.63848,11.51314c-3.06114,2.48303 -8.12348,-1.34449 -9.76584,1.42255c-2.3289,3.92373 2.72491,10.02454 -2.05212,10.02454c-1.52762,0 -8.42738,-3.19598 -12.15703,-2.12094c-5.00977,1.44404 -7.03554,7.1745 -8.66527,6.17495c-1.55773,-0.95539 -5.17838,-4.59437 -4.54575,-8.94763c0.52312,-3.59968 5.29908,-7.95668 4.58728,-9.29522c-0.77511,-1.45759 -5.38118,-0.36185 -8.55553,-3.41957c-2.52305,-2.43035 -3.82847,-9.05042 -3.82847,-10.45409z" fill="url(#color-18)"/><path d="M317.44885,196.86007c0,-2.18008 5.84259,2.28848 9.24353,1.70062c2.95839,-0.51137 3.4485,-6.09032 4.47816,-7.51998c1.76415,-2.44948 5.80687,-0.20315 8.52704,-1.56516c2.51718,-1.26037 3.65745,-6.22155 6.66415,-6.22155c2.27735,0 4.09144,7.096 5.65332,8.75439c2.54926,2.70678 4.42662,0.83298 6.54971,3.55198c2.47775,3.17319 6.5053,2.06402 6.5053,6.40197c0,2.18651 -0.65165,9.90153 -2.63848,11.51314c-3.06114,2.48303 -8.12348,-1.34449 -9.76584,1.42255c-2.3289,3.92373 2.72491,10.02454 -2.05212,10.02454c-1.52762,0 -8.42738,-3.19598 -12.15703,-2.12094c-5.00977,1.44404 -7.03554,7.1745 -8.66527,6.17495c-1.55773,-0.95539 -5.17838,-4.59437 -4.54575,-8.94763c0.52312,-3.59968 5.29908,-7.95668 4.58728,-9.29522c-0.77511,-1.45759 -5.38118,-0.36185 -8.55553,-3.41957c-2.52305,-2.43035 -3.82847,-9.05042 -3.82847,-10.45409z" fill="url(#color-19)"/><path d="M354.819,164.93407c1.54155,-1.54155 2.51314,5.74953 5.33364,7.73868c2.45349,1.7303 6.74496,-1.86805 8.48397,-2.15089c2.97949,-0.4846 4.24973,3.96243 7.13626,4.92279c2.67113,0.8887 6.98551,-1.81309 9.11157,0.31297c1.61033,1.61033 -2.12454,7.91071 -2.19279,10.18779c-0.11138,3.71658 2.54109,3.7191 2.11972,7.14297c-0.49175,3.99582 3.14046,6.05942 0.07307,9.12682c-1.5461,1.5461 -7.46223,6.54065 -10.00671,6.27533c-3.92032,-0.40879 -4.79347,-6.69487 -7.91139,-5.8996c-4.42128,1.12772 -5.16162,9.01522 -8.53949,5.63735c-1.08019,-1.08019 -3.69916,-8.21896 -7.09659,-10.09605c-4.56353,-2.52135 -10.04802,0.09826 -10.49362,-1.76092c-0.42592,-1.77704 -0.41296,-6.91038 3.1126,-9.54126c2.91526,-2.17546 9.37324,-1.87921 9.81641,-3.32902c0.48259,-1.57876 -3.5492,-4.06094 -3.63167,-8.46767c-0.06555,-3.50258 3.69248,-9.10675 4.68502,-10.0993z" fill="url(#color-20)"/><path d="M310.22064,199.71199c0,-3.19226 8.55522,3.35099 13.53517,2.49019c4.33193,-0.74879 5.04959,-8.91797 6.55731,-11.0114c2.58322,-3.58674 8.50292,-0.29747 12.48603,-2.29184c3.68587,-1.84554 5.35555,-9.11013 9.75822,-9.11013c3.33469,0 5.99104,10.39057 8.27808,12.81893c3.73285,3.9635 6.48184,1.21972 9.59065,5.20111c3.62813,4.64646 9.52562,3.02232 9.52562,9.37431c0,3.20168 -0.9542,14.49867 -3.86349,16.85853c-4.48238,3.63587 -11.8951,-1.96872 -14.29998,2.08302c-3.41018,5.74546 3.99005,14.67879 -3.00489,14.67879c-2.23687,0 -12.34009,-4.67983 -17.80137,-3.10566c-7.33574,2.11449 -10.30204,10.50552 -12.68843,9.04189c-2.28096,-1.39896 -7.58263,-6.72747 -6.65628,-13.10189c0.766,-5.27096 7.75937,-11.65085 6.71709,-13.61086c-1.13498,-2.13433 -7.87959,-0.52985 -12.52774,-5.00723c-3.69447,-3.55873 -5.60597,-13.2524 -5.60597,-15.30778z" fill="url(#color-21)"/><path d="M285.48708,214.98147c0,-2.10887 5.65174,2.21372 8.94158,1.64507c2.86175,-0.49467 3.33585,-5.89137 4.33188,-7.27433c1.70652,-2.36947 5.61718,-0.19651 8.2485,-1.51403c2.43495,-1.2192 3.53798,-6.01832 6.44646,-6.01832c2.20296,0 3.95779,6.8642 5.46865,8.46842c2.46599,2.61836 4.28202,0.80577 6.33576,3.43595c2.39681,3.06954 6.2928,1.9966 6.2928,6.19284c0,2.11509 -0.63036,9.57809 -2.55229,11.13705c-2.96115,2.40192 -7.85812,-1.30057 -9.44683,1.37608c-2.25282,3.79556 2.6359,9.69708 -1.98509,9.69708c-1.47772,0 -8.15209,-3.09158 -11.75991,-2.05166c-4.84612,1.39687 -6.80572,6.94014 -8.38221,5.97324c-1.50685,-0.92418 -5.00922,-4.44429 -4.39726,-8.65535c0.50603,-3.48209 5.12598,-7.69677 4.43743,-8.99158c-0.74979,-1.40998 -5.2054,-0.35003 -8.27606,-3.30787c-2.44063,-2.35096 -3.70341,-8.75478 -3.70341,-10.1126z" fill="url(#color-22)"/><path d="M256.84425,177.40343c0,-2.18008 5.84259,2.28848 9.24353,1.70062c2.95839,-0.51137 3.4485,-6.09032 4.47816,-7.51998c1.76415,-2.44948 5.80687,-0.20315 8.52704,-1.56516c2.51718,-1.26037 3.65745,-6.22155 6.66415,-6.22155c2.27735,0 4.09144,7.096 5.65332,8.75439c2.54926,2.70678 4.42662,0.83298 6.54971,3.55198c2.47775,3.17319 6.5053,2.06402 6.5053,6.40197c0,2.18651 -0.65165,9.90153 -2.63848,11.51314c-3.06114,2.48303 -8.12348,-1.34449 -9.76584,1.42255c-2.3289,3.92373 2.72491,10.02454 -2.05212,10.02454c-1.52762,0 -8.42738,-3.19598 -12.15703,-2.12094c-5.00977,1.44404 -7.03554,7.1745 -8.66527,6.17495c-1.55773,-0.95539 -5.17838,-4.59437 -4.54575,-8.94763c0.52312,-3.59968 5.29908,-7.95668 4.58728,-9.29522c-0.77511,-1.45759 -5.38118,-0.36185 -8.55553,-3.41957c-2.52305,-2.43035 -3.82847,-9.05042 -3.82847,-10.45409z" fill="url(#color-23)"/><path d="M253.12524,213.1977c-0.11787,-2.86359 7.79811,2.6901 12.23354,1.73405c3.85827,-0.83165 4.20041,-8.18623 5.4756,-10.11978c2.18482,-3.31282 7.61648,-0.58079 11.11585,-2.5169c3.23824,-1.79162 4.46778,-8.36989 8.41714,-8.53245c2.99135,-0.12312 5.75785,9.09956 7.89908,11.19344c3.49485,3.41759 5.85951,0.85482 8.79524,4.3115c3.42614,4.0341 8.65645,2.35943 8.89098,8.05743c0.11822,2.87203 -0.32063,13.04112 -2.84325,15.26543c-3.88663,3.42701 -10.74308,-1.32682 -12.75075,2.39654c-2.84693,5.27983 4.12121,13.02014 -2.15354,13.27842c-2.00657,0.0826 -11.24235,-3.74237 -16.08322,-2.12864c-6.50238,2.16763 -8.85346,9.80425 -11.04819,8.57943c-2.09776,-1.17071 -7.05031,-5.75485 -6.4547,-11.50716c0.49251,-4.75655 6.53029,-10.73778 5.52295,-12.4575c-1.09693,-1.87267 -7.08787,-0.18436 -11.42277,-4.02913c-3.44548,-3.05591 -5.5181,-11.68095 -5.59398,-13.52471z" fill="url(#color-24)"/><path d="M233.03369,168.72839c0,-2.18008 5.84259,2.28848 9.24353,1.70062c2.95839,-0.51137 3.4485,-6.09032 4.47816,-7.51998c1.76415,-2.44948 5.80687,-0.20315 8.52704,-1.56516c2.51718,-1.26037 3.65745,-6.22155 6.66415,-6.22155c2.27735,0 4.09144,7.096 5.65332,8.75439c2.54926,2.70678 4.42662,0.83298 6.54971,3.55198c2.47775,3.17319 6.5053,2.06402 6.5053,6.40197c0,2.18651 -0.65165,9.90153 -2.63848,11.51314c-3.06114,2.48303 -8.12348,-1.34449 -9.76584,1.42255c-2.3289,3.92373 2.72491,10.02454 -2.05212,10.02454c-1.52762,0 -8.42738,-3.19598 -12.15703,-2.12094c-5.00977,1.44404 -7.03554,7.1745 -8.66527,6.17495c-1.55773,-0.95539 -5.17838,-4.59437 -4.54575,-8.94763c0.52312,-3.59968 5.29908,-7.95668 4.58728,-9.29522c-0.77511,-1.45759 -5.38118,-0.36185 -8.55553,-3.41957c-2.52305,-2.43035 -3.82847,-9.05042 -3.82847,-10.45409z" fill="url(#color-25)"/><path d="M236.52118,193.76485c-0.16706,-2.17367 6.00078,1.83402 9.34667,0.98727c2.9105,-0.73658 2.97164,-6.33668 3.88871,-7.84104c1.57125,-2.57746 5.77422,-0.64755 8.38202,-2.21401c2.41319,-1.44956 3.16993,-6.48353 6.16779,-6.71395c2.27065,-0.17452 4.62319,6.7616 6.30756,8.29542c2.74919,2.50346 4.47743,0.49131 6.80264,3.03962c2.71363,2.97398 6.64434,1.55943 6.97677,5.88463c0.16756,2.18008 0.10904,9.92235 -1.74845,11.68147c-2.86186,2.71031 -8.20263,-0.71801 -9.62811,2.16675c-2.02137,4.09066 3.4851,9.78625 -1.27789,10.15232c-1.52313,0.11706 -8.64751,-2.54078 -12.28382,-1.18308c-4.88437,1.82371 -6.46505,7.69255 -8.16659,6.82083c-1.62636,-0.83321 -5.51523,-4.18403 -5.21806,-8.57297c0.24573,-3.62918 4.67376,-8.33936 3.86148,-9.61942c-0.88453,-1.3939 -5.39309,0.05158 -8.79242,-2.75389c-2.70188,-2.22986 -4.51077,-8.73042 -4.61833,-10.12996z" fill="url(#color-26)"/><path d="M201.28492,168.58511c-0.4308,-3.16306 8.92918,2.1658 13.74741,0.64082c4.19125,-1.32654 3.79991,-9.51784 5.01132,-11.79559c2.07555,-3.90254 8.38499,-1.44223 12.06251,-3.95588c3.40309,-2.32607 4.07714,-9.74953 8.43953,-10.34368c3.30419,-0.45002 7.33845,9.48702 9.93228,11.58453c4.23358,3.42349 6.58715,0.33383 10.20481,3.85926c4.22199,4.11434 9.84635,1.70918 10.70356,8.00306c0.43207,3.17239 1.01114,14.49481 -1.55307,17.22569c-3.95071,4.20751 -12.05197,-0.34545 -13.88806,3.99376c-2.60363,6.15311 5.93447,14.00605 -0.99648,14.95003c-2.21641,0.30187 -12.85875,-2.97171 -18.05764,-0.67494c-6.98327,3.08511 -8.79007,11.79969 -11.35215,10.6715c-2.44889,-1.07834 -8.42115,-5.64264 -8.3635,-12.08376c0.04767,-5.32612 6.11609,-12.59141 4.81884,-14.39283c-1.41263,-1.96164 -7.87901,0.53836 -13.08887,-3.27079c-4.14093,-3.0276 -7.34311,-12.37464 -7.62049,-14.41121z" fill="url(#color-27)"/><path d="M189.46689,164.41268c0,-1.47096 3.94216,1.5441 6.23687,1.14746c1.99611,-0.34504 2.3268,-4.10931 3.02154,-5.07395c1.19032,-1.65273 3.91806,-0.13707 5.75344,-1.05606c1.69841,-0.85041 2.46779,-4.19786 4.49649,-4.19786c1.53659,0 2.76061,4.78787 3.81446,5.90684c1.72006,1.82634 2.98677,0.56204 4.41928,2.39662c1.67181,2.14104 4.38931,1.39265 4.38931,4.31959c0,1.4753 -0.43969,6.68085 -1.78026,7.76825c-2.06544,1.67537 -5.48114,-0.90717 -6.58929,0.95984c-1.57138,2.64745 1.83857,6.76384 -1.38462,6.76384c-1.03073,0 -5.68619,-2.15642 -8.2027,-1.43106c-3.38024,0.97434 -4.74708,4.84084 -5.84671,4.16642c-1.05105,-0.64463 -3.494,-3.09995 -3.06715,-6.03722c0.35296,-2.42881 3.57544,-5.3686 3.09517,-6.27175c-0.52299,-0.98348 -3.63084,-0.24415 -5.77266,-2.30728c-1.70237,-1.63983 -2.58318,-6.10658 -2.58318,-7.05367z" fill="url(#color-28)"/><path d="M365.01484,173.57917c0,-3.19226 8.55522,3.35099 13.53517,2.49019c4.33193,-0.74879 5.04959,-8.91797 6.55731,-11.0114c2.58322,-3.58674 8.50292,-0.29747 12.48602,-2.29184c3.68587,-1.84554 5.35555,-9.11013 9.75822,-9.11013c3.33469,0 5.99104,10.39057 8.27808,12.81893c3.73285,3.9635 6.48184,1.21972 9.59065,5.20111c3.62813,4.64646 9.52562,3.02232 9.52562,9.37431c0,3.20168 -0.9542,14.49867 -3.86349,16.85853c-4.48238,3.63587 -11.8951,-1.96872 -14.29998,2.08302c-3.41018,5.74546 3.99005,14.67879 -3.00489,14.67879c-2.23687,0 -12.34009,-4.67983 -17.80137,-3.10566c-7.33573,2.11449 -10.30204,10.50552 -12.68843,9.04189c-2.28096,-1.39896 -7.58263,-6.72747 -6.65628,-13.10189c0.766,-5.27096 7.75937,-11.65085 6.71709,-13.61086c-1.13498,-2.13433 -7.87959,-0.52985 -12.52774,-5.00723c-3.69447,-3.55873 -5.60597,-13.2524 -5.60597,-15.30777z" fill="url(#color-29)"/><path d="M438.14787,160.0379c0.53689,-1.36948 3.10661,2.87642 5.38778,3.3447c1.98434,0.40732 3.66614,-2.97655 4.66503,-3.62107c1.71143,-1.10425 3.69779,1.30244 5.74197,1.11675c1.89163,-0.17184 3.82972,-3.00754 5.71846,-2.26708c1.43058,0.56084 0.82263,5.46516 1.39537,6.89158c0.9348,2.32815 2.57558,1.61341 3.23966,3.84427c0.77502,2.60353 3.57819,2.89863 2.50989,5.62364c-0.53847,1.37352 -2.8478,6.05946 -4.49278,6.58255c-2.53444,0.80592 -4.77189,-2.84515 -6.48504,-1.51141c-2.42927,1.89127 -0.75701,6.96827 -3.75783,5.79184c-0.95962,-0.37621 -4.50683,-4.08306 -7.11448,-4.32624c-3.50267,-0.32663 -6.18645,2.77424 -6.96406,1.74499c-0.74326,-0.98378 -2.1215,-4.16136 -0.65202,-6.7402c1.2151,-2.13242 5.28826,-3.69323 5.17077,-4.70936c-0.12795,-1.10652 -3.29124,-1.55253 -4.53228,-4.25507c-0.9864,-2.14805 -0.17613,-6.62813 0.16955,-7.50988z" fill="url(#color-30)"/><path d="M344.63278,71.698c1.05347,-2.87017 6.58617,5.83616 11.34772,6.70564c4.14195,0.75633 7.48309,-6.35177 9.52953,-7.73642c3.50623,-2.37237 7.74316,2.53857 11.98254,2.05987c3.92302,-0.44297 7.8216,-6.42357 11.78005,-4.97066c2.99823,1.10047 1.9576,11.31927 3.21251,14.25735c2.04823,4.79546 5.42532,3.2357 6.90657,7.84131c1.7287,5.37495 7.56712,5.86089 5.47092,11.57199c-1.05657,2.87863 -5.64259,12.7209 -9.0371,13.88257c-5.22998,1.7898 -10.04522,-5.69554 -13.54456,-2.84624c-4.96214,4.04038 -1.25664,14.51448 -7.54581,12.2061c-2.01118,-0.73818 -9.55063,-8.27996 -14.98036,-8.66688c-7.29337,-0.5197 -12.72948,6.04579 -14.39209,3.94232c-1.58915,-2.01055 -4.59745,-8.55101 -1.66096,-13.97656c2.42816,-4.48635 10.82133,-7.91467 10.53103,-10.02087c-0.31612,-2.29353 -6.9097,-3.07671 -9.6113,-8.63625c-2.1473,-4.41886 -0.66696,-13.76528 0.01133,-15.61327z" fill="url(#color-31)"/><path d="M323.8588,63.2325c0,-2.18008 5.84259,2.28848 9.24353,1.70062c2.95839,-0.51137 3.4485,-6.09032 4.47816,-7.51998c1.76415,-2.44948 5.80687,-0.20315 8.52704,-1.56516c2.51718,-1.26037 3.65745,-6.22155 6.66415,-6.22155c2.27735,0 4.09144,7.096 5.65332,8.75439c2.54926,2.70678 4.42662,0.83298 6.54971,3.55198c2.47775,3.17319 6.5053,2.06402 6.5053,6.40197c0,2.18651 -0.65165,9.90153 -2.63848,11.51314c-3.06114,2.48303 -8.12348,-1.34449 -9.76584,1.42255c-2.3289,3.92373 2.72491,10.02454 -2.05212,10.02454c-1.52762,0 -8.42738,-3.19598 -12.15703,-2.12094c-5.00977,1.44404 -7.03554,7.1745 -8.66527,6.17495c-1.55773,-0.95539 -5.17838,-4.59437 -4.54575,-8.94763c0.52312,-3.59968 5.29908,-7.95668 4.58728,-9.29522c-0.77511,-1.45759 -5.38118,-0.36185 -8.55553,-3.41957c-2.52305,-2.43035 -3.82847,-9.05042 -3.82847,-10.45409z" fill="url(#color-32)"/><path d="M328.34622,93.15682c0,-1.47096 3.94216,1.5441 6.23688,1.14746c1.99611,-0.34504 2.3268,-4.10931 3.02154,-5.07395c1.19032,-1.65273 3.91806,-0.13707 5.75344,-1.05606c1.69841,-0.85041 2.46779,-4.19786 4.49649,-4.19786c1.53659,0 2.76061,4.78788 3.81446,5.90684c1.72006,1.82634 2.98677,0.56204 4.41928,2.39662c1.67181,2.14104 4.38931,1.39265 4.38931,4.31959c0,1.4753 -0.43969,6.68085 -1.78026,7.76825c-2.06544,1.67537 -5.48115,-0.90717 -6.58929,0.95984c-1.57138,2.64745 1.83858,6.76385 -1.38462,6.76385c-1.03073,0 -5.6862,-2.15642 -8.2027,-1.43106c-3.38024,0.97434 -4.74708,4.84084 -5.84671,4.16642c-1.05105,-0.64463 -3.494,-3.09995 -3.06715,-6.03722c0.35296,-2.42881 3.57544,-5.3686 3.09517,-6.27175c-0.52299,-0.98348 -3.63084,-0.24415 -5.77266,-2.30728c-1.70237,-1.63983 -2.58318,-6.10658 -2.58318,-7.05368z" fill="url(#color-33)"/><path d="M323.8588,40.31305c0,-2.18008 5.84259,2.28848 9.24353,1.70062c2.95839,-0.51137 3.4485,-6.09032 4.47816,-7.51998c1.76415,-2.44948 5.80687,-0.20315 8.52704,-1.56516c2.51718,-1.26037 3.65745,-6.22155 6.66415,-6.22155c2.27735,0 4.09144,7.096 5.65332,8.75439c2.54926,2.70678 4.42662,0.83298 6.54971,3.55198c2.47775,3.17319 6.5053,2.06402 6.5053,6.40197c0,2.18651 -0.65165,9.90153 -2.63848,11.51314c-3.06114,2.48303 -8.12348,-1.34449 -9.76584,1.42255c-2.3289,3.92373 2.72491,10.02454 -2.05212,10.02454c-1.52762,0 -8.42738,-3.19598 -12.15703,-2.12094c-5.00977,1.44404 -7.03554,7.1745 -8.66527,6.17495c-1.55773,-0.95539 -5.17838,-4.59437 -4.54575,-8.94763c0.52312,-3.59968 5.29908,-7.95668 4.58728,-9.29522c-0.77511,-1.45759 -5.38118,-0.36185 -8.55553,-3.41957c-2.52305,-2.43035 -3.82847,-9.05042 -3.82847,-10.45409z" fill="url(#color-34)"/><path d="M347.66941,40.31305c0,-2.18008 5.84259,2.28848 9.24353,1.70062c2.95839,-0.51137 3.4485,-6.09032 4.47816,-7.51998c1.76415,-2.44948 5.80687,-0.20315 8.52704,-1.56516c2.51718,-1.26037 3.65745,-6.22155 6.66415,-6.22155c2.27735,0 4.09144,7.096 5.65332,8.75439c2.54926,2.70678 4.42662,0.83298 6.54971,3.55198c2.47775,3.17319 6.5053,2.06402 6.5053,6.40197c0,2.18651 -0.65165,9.90153 -2.63848,11.51314c-3.06114,2.48303 -8.12348,-1.34449 -9.76584,1.42255c-2.3289,3.92373 2.72491,10.02454 -2.05212,10.02454c-1.52762,0 -8.42738,-3.19598 -12.15703,-2.12094c-5.00977,1.44404 -7.03554,7.1745 -8.66527,6.17495c-1.55773,-0.95539 -5.17838,-4.59437 -4.54575,-8.94763c0.52312,-3.59968 5.29908,-7.95668 4.58728,-9.29522c-0.77511,-1.45759 -5.38118,-0.36185 -8.55553,-3.41957c-2.52305,-2.43035 -3.82847,-9.05042 -3.82847,-10.45409z" fill="url(#color-35)"/><path d="M280.65486,86.15195c0,-2.18008 5.84259,2.28848 9.24353,1.70062c2.95839,-0.51137 3.4485,-6.09032 4.47816,-7.51998c1.76415,-2.44948 5.80687,-0.20315 8.52704,-1.56516c2.51718,-1.26037 3.65745,-6.22155 6.66415,-6.22155c2.27735,0 4.09144,7.096 5.65332,8.75439c2.54926,2.70678 4.42662,0.83298 6.54971,3.55198c2.47775,3.17319 6.5053,2.06402 6.5053,6.40197c0,2.18651 -0.65165,9.90153 -2.63848,11.51314c-3.06114,2.48303 -8.12348,-1.34449 -9.76584,1.42255c-2.3289,3.92373 2.72491,10.02454 -2.05212,10.02454c-1.52762,0 -8.42738,-3.19598 -12.15703,-2.12094c-5.00977,1.44404 -7.03554,7.1745 -8.66527,6.17495c-1.55773,-0.95539 -5.17838,-4.59437 -4.54575,-8.94763c0.52312,-3.59968 5.29908,-7.95668 4.58728,-9.29522c-0.77511,-1.45759 -5.38118,-0.36185 -8.55553,-3.41957c-2.52305,-2.43035 -3.82847,-9.05042 -3.82847,-10.45409z" fill="url(#color-36)"/><path d="M266.27431,133.63148c1.21909,-1.80737 3.56401,5.16438 6.71225,6.5788c2.73857,1.23038 6.26461,-3.12072 7.91769,-3.73019c2.83228,-1.04421 4.92771,3.07875 7.94446,3.4707c2.79162,0.3627 6.51121,-3.11267 9.00388,-1.43134c1.88801,1.27348 -0.57608,8.17076 -0.2086,10.41902c0.59981,3.66955 3.20403,3.16591 3.4437,6.60728c0.27972,4.01623 4.23895,5.34888 1.81319,8.94519c-1.22268,1.8127 -6.07712,7.84433 -8.62548,8.06939c-3.92629,0.34675 -5.98283,-5.65723 -8.89173,-4.28165c-4.12487,1.95061 -3.34661,9.83446 -7.30695,7.16318c-1.26645,-0.85424 -5.19943,-7.36212 -8.89261,-8.55647c-4.96078,-1.60427 -9.84466,2.01369 -10.63682,0.27369c-0.75717,-1.66313 -1.72392,-6.70462 1.23487,-9.95987c2.44661,-2.69174 8.84246,-3.63317 9.00086,-5.1409c0.17248,-1.64184 -4.25885,-3.30911 -5.18065,-7.61915c-0.73266,-3.42572 1.887,-9.64399 2.67192,-10.80768z" fill="url(#color-37)"/><path d="M237.0881,122.99944c0,-2.18008 5.84259,2.28848 9.24353,1.70062c2.95839,-0.51137 3.4485,-6.09032 4.47816,-7.51998c1.76415,-2.44948 5.80687,-0.20315 8.52704,-1.56516c2.51718,-1.26037 3.65745,-6.22155 6.66415,-6.22155c2.27735,0 4.09144,7.096 5.65332,8.75439c2.54926,2.70678 4.42662,0.83298 6.54971,3.55198c2.47775,3.17319 6.5053,2.06402 6.5053,6.40197c0,2.18651 -0.65165,9.90153 -2.63848,11.51314c-3.06114,2.48303 -8.12348,-1.34449 -9.76584,1.42255c-2.3289,3.92373 2.72491,10.02454 -2.05212,10.02454c-1.52762,0 -8.42738,-3.19598 -12.15703,-2.12094c-5.00977,1.44404 -7.03554,7.1745 -8.66527,6.17495c-1.55773,-0.95539 -5.17838,-4.59437 -4.54575,-8.94763c0.52312,-3.59968 5.29908,-7.95668 4.58728,-9.29522c-0.77511,-1.45759 -5.38118,-0.36185 -8.55553,-3.41957c-2.52305,-2.43035 -3.82847,-9.05042 -3.82847,-10.45409z" fill="url(#color-38)"/><path d="M237.0881,122.99945c0,-2.18008 5.84258,2.28848 9.24352,1.70062c2.95839,-0.51138 3.4485,-6.09031 4.47816,-7.51998c1.76415,-2.44947 5.80687,-0.20315 8.52704,-1.56516c2.51717,-1.26037 3.65745,-6.22155 6.66414,-6.22155c2.27734,0 4.09144,7.09599 5.65332,8.75439c2.54926,2.70678 4.42662,0.83299 6.54971,3.55198c2.47775,3.17319 6.5053,2.06401 6.5053,6.40197c0,2.18651 -0.65165,9.90153 -2.63848,11.51314c-3.06114,2.48303 -8.12347,-1.3445 -9.76584,1.42256c-2.32891,3.92372 2.7249,10.02453 -2.05211,10.02453c-1.52762,0 -8.42737,-3.19598 -12.15703,-2.12094c-5.00978,1.44405 -7.03554,7.1745 -8.66527,6.17496c-1.55774,-0.95539 -5.17838,-4.59436 -4.54575,-8.94763c0.52311,-3.59968 5.29908,-7.95668 4.58728,-9.29522c-0.77511,-1.45759 -5.38118,-0.36185 -8.55553,-3.41957c-2.52304,-2.43035 -3.82847,-9.05042 -3.82847,-10.45408z" fill="url(#color-39)"/><path d="M260.89871,77.16054c0,-2.18008 5.84259,2.28848 9.24353,1.70062c2.95839,-0.51137 3.4485,-6.09032 4.47816,-7.51998c1.76415,-2.44948 5.80687,-0.20315 8.52704,-1.56516c2.51718,-1.26037 3.65745,-6.22155 6.66415,-6.22155c2.27735,0 4.09144,7.096 5.65332,8.75439c2.54926,2.70678 4.42662,0.83298 6.54971,3.55198c2.47775,3.17319 6.5053,2.06402 6.5053,6.40197c0,2.18651 -0.65165,9.90153 -2.63848,11.51314c-3.06114,2.48303 -8.12348,-1.34449 -9.76584,1.42255c-2.3289,3.92373 2.72491,10.02454 -2.05212,10.02454c-1.52762,0 -8.42738,-3.19598 -12.15703,-2.12094c-5.00977,1.44404 -7.03554,7.1745 -8.66527,6.17495c-1.55773,-0.95539 -5.17838,-4.59437 -4.54575,-8.94763c0.52312,-3.59968 5.29908,-7.95668 4.58728,-9.29522c-0.77511,-1.45759 -5.38118,-0.36185 -8.55553,-3.41957c-2.52305,-2.43035 -3.82847,-9.05042 -3.82847,-10.45409z" fill="url(#color-40)"/><path d="M276.23759,63.2325c0,-2.18008 5.84259,2.28848 9.24353,1.70062c2.95839,-0.51137 3.4485,-6.09032 4.47816,-7.51998c1.76415,-2.44948 5.80687,-0.20315 8.52704,-1.56516c2.51718,-1.26037 3.65745,-6.22155 6.66415,-6.22155c2.27735,0 4.09144,7.096 5.65332,8.75439c2.54926,2.70678 4.42662,0.83298 6.54971,3.55198c2.47775,3.17319 6.5053,2.06402 6.5053,6.40197c0,2.18651 -0.65165,9.90153 -2.63848,11.51314c-3.06114,2.48303 -8.12348,-1.34449 -9.76584,1.42255c-2.3289,3.92373 2.72491,10.02454 -2.05212,10.02454c-1.52762,0 -8.42738,-3.19598 -12.15703,-2.12094c-5.00977,1.44404 -7.03554,7.1745 -8.66527,6.17495c-1.55773,-0.95539 -5.17838,-4.59437 -4.54575,-8.94763c0.52312,-3.59968 5.29908,-7.95668 4.58728,-9.29522c-0.77511,-1.45759 -5.38118,-0.36185 -8.55553,-3.41957c-2.52305,-2.43035 -3.82847,-9.05042 -3.82847,-10.45409z" fill="url(#color-41)"/><path d="M268.01691,41.97303c0,-2.18008 5.84259,2.28848 9.24353,1.70062c2.95839,-0.51137 3.4485,-6.09032 4.47816,-7.51998c1.76415,-2.44948 5.80687,-0.20315 8.52704,-1.56516c2.51718,-1.26037 3.65745,-6.22155 6.66415,-6.22155c2.27735,0 4.09144,7.096 5.65332,8.75439c2.54926,2.70678 4.42662,0.83298 6.54971,3.55198c2.47775,3.17319 6.5053,2.06402 6.5053,6.40197c0,2.18651 -0.65165,9.90153 -2.63848,11.51314c-3.06114,2.48303 -8.12348,-1.34449 -9.76584,1.42255c-2.3289,3.92373 2.72491,10.02454 -2.05212,10.02454c-1.52762,0 -8.42738,-3.19598 -12.15703,-2.12094c-5.00977,1.44404 -7.03554,7.1745 -8.66527,6.17495c-1.55773,-0.95539 -5.17838,-4.59437 -4.54575,-8.94763c0.52312,-3.59968 5.29908,-7.95668 4.58728,-9.29522c-0.77511,-1.45759 -5.38118,-0.36185 -8.55553,-3.41957c-2.52305,-2.43035 -3.82847,-9.05042 -3.82847,-10.45409z" fill="url(#color-42)"/><path d="M170.33333,180c0,-82.6586 67.00805,-149.66667 149.66667,-149.66667c82.6586,0 149.66667,67.00805 149.66667,149.66667c0,82.6586 -67.00804,149.66667 -149.66667,149.66667c-82.6586,0 -149.66667,-67.00804 -149.66667,-149.66667z" fill="url(#color-43)"/></g></g></svg>