<svg version="1.1" xmlns="http://www.w3.org/2000/svg" xmlns:xlink="http://www.w3.org/1999/xlink" width="38.5" height="38.5" viewBox="0,0,38.5,38.5"><defs><radialGradient cx="320" cy="180" r="19.25" gradientUnits="userSpaceOnUse" id="color-1"><stop offset="0" stop-color="#58bd33"/><stop offset="1" stop-color="#58bd33" stop-opacity="0"/></radialGradient><radialGradient cx="316.30001" cy="180.00003" r="3.78571" gradientUnits="userSpaceOnUse" id="color-2"><stop offset="0" stop-color="#2d7002" stop-opacity="0.46175"/><stop offset="1" stop-color="#2d7002" stop-opacity="0"/></radialGradient><radialGradient cx="323.50001" cy="180.00003" r="3.78571" gradientUnits="userSpaceOnUse" id="color-3"><stop offset="0" stop-color="#2d7002" stop-opacity="0.46175"/><stop offset="1" stop-color="#2d7002" stop-opacity="0"/></radialGradient><radialGradient cx="320" cy="180" r="8.6875" gradientUnits="userSpaceOnUse" id="color-4"><stop offset="0" stop-color="#58ef23"/><stop offset="1" stop-color="#618355"/></radialGradient><radialGradient cx="323.0875" cy="179.73331" r="5.6" gradientUnits="userSpaceOnUse" id="color-5"><stop offset="0" stop-color="#2c7002" stop-opacity="0.24314"/><stop offset="1" stop-color="#2c7002" stop-opacity="0"/></radialGradient><radialGradient cx="322.90932" cy="178.94422" r="2.62182" gradientUnits="userSpaceOnUse" id="color-6"><stop offset="0" stop-color="#2c7002" stop-opacity="0.24314"/><stop offset="1" stop-color="#2c7002" stop-opacity="0"/></radialGradient><radialGradient cx="323.34204" cy="180.5224" r="2.62182" gradientUnits="userSpaceOnUse" id="color-7"><stop offset="0" stop-color="#2c7002" stop-opacity="0.24314"/><stop offset="1" stop-color="#2c7002" stop-opacity="0"/></radialGradient><radialGradient cx="322.90932" cy="179.83513" r="2.62182" gradientUnits="userSpaceOnUse" id="color-8"><stop offset="0" stop-color="#2c7002" stop-opacity="0.24314"/><stop offset="1" stop-color="#2c7002" stop-opacity="0"/></radialGradient><radialGradient cx="323.34204" cy="178.46058" r="2.62182" gradientUnits="userSpaceOnUse" id="color-9"><stop offset="0" stop-color="#2c7002" stop-opacity="0.24314"/><stop offset="1" stop-color="#2c7002" stop-opacity="0"/></radialGradient><radialGradient cx="325.94505" cy="179.66666" r="5.6" gradientUnits="userSpaceOnUse" id="color-10"><stop offset="0" stop-color="#2c7002" stop-opacity="0.24314"/><stop offset="1" stop-color="#2c7002" stop-opacity="0"/></radialGradient><radialGradient cx="325.76687" cy="178.87757" r="2.62181" gradientUnits="userSpaceOnUse" id="color-11"><stop offset="0" stop-color="#2c7002" stop-opacity="0.24314"/><stop offset="1" stop-color="#2c7002" stop-opacity="0"/></radialGradient><radialGradient cx="326.1996" cy="180.45576" r="2.62182" gradientUnits="userSpaceOnUse" id="color-12"><stop offset="0" stop-color="#2c7002" stop-opacity="0.24314"/><stop offset="1" stop-color="#2c7002" stop-opacity="0"/></radialGradient><radialGradient cx="325.76687" cy="179.76848" r="2.62181" gradientUnits="userSpaceOnUse" id="color-13"><stop offset="0" stop-color="#2c7002" stop-opacity="0.24314"/><stop offset="1" stop-color="#2c7002" stop-opacity="0"/></radialGradient><radialGradient cx="326.1996" cy="178.39394" r="2.62182" gradientUnits="userSpaceOnUse" id="color-14"><stop offset="0" stop-color="#2c7002" stop-opacity="0.24314"/><stop offset="1" stop-color="#2c7002" stop-opacity="0"/></radialGradient><radialGradient cx="324.54505" cy="184.06011" r="5.6" gradientUnits="userSpaceOnUse" id="color-15"><stop offset="0" stop-color="#2c7002" stop-opacity="0.24314"/><stop offset="1" stop-color="#2c7002" stop-opacity="0"/></radialGradient><radialGradient cx="324.36687" cy="183.27102" r="2.62182" gradientUnits="userSpaceOnUse" id="color-16"><stop offset="0" stop-color="#2c7002" stop-opacity="0.24314"/><stop offset="1" stop-color="#2c7002" stop-opacity="0"/></radialGradient><radialGradient cx="324.7996" cy="184.8492" r="2.62182" gradientUnits="userSpaceOnUse" id="color-17"><stop offset="0" stop-color="#2c7002" stop-opacity="0.24314"/><stop offset="1" stop-color="#2c7002" stop-opacity="0"/></radialGradient><radialGradient cx="324.36687" cy="184.16193" r="2.62182" gradientUnits="userSpaceOnUse" id="color-18"><stop offset="0" stop-color="#2c7002" stop-opacity="0.24314"/><stop offset="1" stop-color="#2c7002" stop-opacity="0"/></radialGradient><radialGradient cx="324.7996" cy="182.78738" r="2.62182" gradientUnits="userSpaceOnUse" id="color-19"><stop offset="0" stop-color="#2c7002" stop-opacity="0.24314"/><stop offset="1" stop-color="#2c7002" stop-opacity="0"/></radialGradient></defs><g transform="translate(-300.75,-160.75)"><g data-paper-data="{&quot;isPaintingLayer&quot;:true}" fill-rule="nonzero" stroke-linejoin="miter" stroke-miterlimit="10" stroke-dasharray="" stroke-dashoffset="0" style="mix-blend-mode: normal"><path d="M300.75,180c0,-10.63148 8.61852,-19.25 19.25,-19.25c10.63148,0 19.25,8.61852 19.25,19.25c0,10.63148 -8.61852,19.25 -19.25,19.25c-10.63148,0 -19.25,-8.61852 -19.25,-19.25z" fill="url(#color-1)" stroke="#6e6e6e" stroke-width="0" stroke-linecap="butt"/><path d="" fill="#494949" stroke="#6e6e6e" stroke-width="1" stroke-linecap="butt"/><g><path d="" fill="none" stroke="#ffffff" stroke-width="2.5" stroke-linecap="round"/><path d="" fill="url(#color-2)" stroke="none" stroke-width="0" stroke-linecap="butt"/></g><g data-paper-data="{&quot;index&quot;:null}"><path d="" fill="none" stroke="#ffffff" stroke-width="2.5" stroke-linecap="round"/><path d="" fill="url(#color-3)" stroke="none" stroke-width="0" stroke-linecap="butt"/></g><path d="M311.3125,180c0,-4.79797 3.88953,-8.6875 8.6875,-8.6875c4.79797,0 8.6875,3.88953 8.6875,8.6875c0,4.79797 -3.88953,8.6875 -8.6875,8.6875c-4.79797,0 -8.6875,-3.88953 -8.6875,-8.6875z" fill="url(#color-4)" stroke="#7b9e72" stroke-width="1" stroke-linecap="butt"/><g stroke="none" stroke-linecap="butt"><path d="M323.0875,174.13331c3.09279,0 5.6,2.50721 5.6,5.6c0,3.09279 -2.50721,5.6 -5.6,5.6c-3.09279,0 -5.6,-2.50721 -5.6,-5.6c0,-3.09279 2.50721,-5.6 5.6,-5.6z" fill="url(#color-5)" stroke-width="0"/><path d="M322.20932,178.71513c0,-0.44986 0.36469,-0.81454 0.81454,-0.81454h0.12727c0.44986,0 0.81454,0.36469 0.81454,0.81454v2.03636c0,0.44986 -0.36469,0.81454 -0.81454,0.81454h-0.12727c-0.44986,0 -0.81454,-0.36469 -0.81454,-0.81454z" fill="#9ff4a8" stroke-width="NaN"/><path d="M322.90932,176.3224c1.44799,0 2.62182,1.17383 2.62182,2.62182c0,1.44799 -1.17383,2.62182 -2.62182,2.62182c-1.44799,0 -2.62182,-1.17383 -2.62182,-2.62182c0,-1.44799 1.17383,-2.62182 2.62182,-2.62182z" fill="url(#color-6)" stroke-width="0"/><path d="M323.34204,177.90058c1.44799,0 2.62182,1.17383 2.62182,2.62182c0,1.44799 -1.17383,2.62182 -2.62182,2.62182c-1.44799,0 -2.62182,-1.17383 -2.62182,-2.62182c0,-1.44799 1.17383,-2.62182 2.62182,-2.62182z" fill="url(#color-7)" stroke-width="0"/><path d="M322.90932,177.21331c1.44799,0 2.62182,1.17383 2.62182,2.62182c0,1.44799 -1.17383,2.62182 -2.62182,2.62182c-1.44799,0 -2.62182,-1.17383 -2.62182,-2.62182c0,-1.44799 1.17383,-2.62182 2.62182,-2.62182z" fill="url(#color-8)" stroke-width="0"/><path d="M323.34204,175.83876c1.44799,0 2.62182,1.17383 2.62182,2.62182c0,1.44799 -1.17383,2.62182 -2.62182,2.62182c-1.44799,0 -2.62182,-1.17383 -2.62182,-2.62182c0,-1.44799 1.17383,-2.62182 2.62182,-2.62182z" fill="url(#color-9)" stroke-width="0"/></g><text transform="translate(311.6125,185.33004) scale(0.37195,0.37195)" font-size="40" xml:space="preserve" fill="#00ff08" fill-rule="nonzero" stroke="none" stroke-width="1" stroke-linecap="butt" stroke-linejoin="miter" stroke-miterlimit="10" stroke-dasharray="" stroke-dashoffset="0" font-family="&quot;MV Boli&quot;, Technological" font-weight="normal" text-anchor="start" style="mix-blend-mode: normal"><tspan x="0" dy="0">+</tspan></text><g stroke="none" stroke-linecap="butt"><path d="M325.94505,174.06666c3.0928,0 5.6,2.50721 5.6,5.6c0,3.09279 -2.5072,5.6 -5.6,5.6c-3.0928,0 -5.6,-2.5072 -5.6,-5.6c0,-3.09279 2.5072,-5.6 5.6,-5.6z" fill="url(#color-10)" stroke-width="0"/><path d="M325.06687,178.64848c0,-0.44986 0.36469,-0.81455 0.81455,-0.81455h0.12727c0.44986,0 0.81455,0.36469 0.81455,0.81455v2.03636c0,0.44986 -0.36469,0.81454 -0.81455,0.81454h-0.12727c-0.44986,0 -0.81455,-0.36468 -0.81455,-0.81454z" fill="#9ff4a8" stroke-width="NaN"/><path d="M325.76687,176.25576c1.44799,0 2.62181,1.17382 2.62181,2.62181c0,1.44799 -1.17382,2.62182 -2.62181,2.62182c-1.44799,0 -2.62182,-1.17383 -2.62182,-2.62182c0,-1.44799 1.17383,-2.62181 2.62182,-2.62181z" fill="url(#color-11)" stroke-width="0"/><path d="M326.1996,177.83394c1.44799,0 2.62182,1.17383 2.62182,2.62182c0,1.44799 -1.17383,2.62181 -2.62182,2.62181c-1.44799,0 -2.62182,-1.17382 -2.62182,-2.62181c0,-1.44799 1.17383,-2.62182 2.62182,-2.62182z" fill="url(#color-12)" stroke-width="0"/><path d="M325.76687,177.14666c1.44799,0 2.62181,1.17383 2.62181,2.62182c0,1.44799 -1.17382,2.62181 -2.62181,2.62181c-1.44799,0 -2.62182,-1.17382 -2.62182,-2.62181c0,-1.44799 1.17383,-2.62182 2.62182,-2.62182z" fill="url(#color-13)" stroke-width="0"/><path d="M326.1996,175.77212c1.44799,0 2.62182,1.17383 2.62182,2.62182c0,1.44799 -1.17383,2.62182 -2.62182,2.62182c-1.44799,0 -2.62182,-1.17383 -2.62182,-2.62182c0,-1.44799 1.17383,-2.62182 2.62182,-2.62182z" fill="url(#color-14)" stroke-width="0"/></g><g stroke="none" stroke-linecap="butt"><path d="M324.54505,178.46011c3.0928,0 5.6,2.5072 5.6,5.6c0,3.09279 -2.5072,5.6 -5.6,5.6c-3.0928,0 -5.6,-2.5072 -5.6,-5.6c0,-3.09279 2.5072,-5.6 5.6,-5.6z" fill="url(#color-15)" stroke-width="0"/><path d="M323.66687,183.04193c0,-0.44986 0.36469,-0.81455 0.81455,-0.81455h0.12727c0.44986,0 0.81455,0.36469 0.81455,0.81455v2.03636c0,0.44986 -0.36469,0.81454 -0.81455,0.81454h-0.12727c-0.44986,0 -0.81455,-0.36468 -0.81455,-0.81454z" fill="#9ff4a8" stroke-width="NaN"/><path d="M324.36687,180.6492c1.44799,0 2.62182,1.17382 2.62182,2.62181c0,1.44799 -1.17383,2.62182 -2.62182,2.62182c-1.44799,0 -2.62182,-1.17383 -2.62182,-2.62182c0,-1.44799 1.17383,-2.62181 2.62182,-2.62181z" fill="url(#color-16)" stroke-width="0"/><path d="M324.7996,182.22738c1.44799,0 2.62182,1.17383 2.62182,2.62182c0,1.44799 -1.17383,2.62181 -2.62182,2.62181c-1.44799,0 -2.62182,-1.17382 -2.62182,-2.62181c0,-1.44799 1.17383,-2.62182 2.62182,-2.62182z" fill="url(#color-17)" stroke-width="0"/><path d="M324.36687,181.54011c1.44799,0 2.62182,1.17383 2.62182,2.62182c0,1.44799 -1.17383,2.62181 -2.62182,2.62181c-1.44799,0 -2.62182,-1.17382 -2.62182,-2.62181c0,-1.44799 1.17383,-2.62182 2.62182,-2.62182z" fill="url(#color-18)" stroke-width="0"/><path d="M324.7996,180.16556c1.44799,0 2.62182,1.17383 2.62182,2.62182c0,1.44799 -1.17383,2.62182 -2.62182,2.62182c-1.44799,0 -2.62182,-1.17383 -2.62182,-2.62182c0,-1.44799 1.17383,-2.62182 2.62182,-2.62182z" fill="url(#color-19)" stroke-width="0"/></g></g></g></svg>