<svg version="1.1" xmlns="http://www.w3.org/2000/svg" xmlns:xlink="http://www.w3.org/1999/xlink" width="42" height="32.42498" viewBox="0,0,42,32.42498"><g transform="translate(-299.00001,-150.40835)"><g data-paper-data="{&quot;isPaintingLayer&quot;:true}" fill-rule="nonzero" stroke-linecap="butt" stroke-linejoin="miter" stroke-miterlimit="10" stroke-dasharray="" stroke-dashoffset="0" style="mix-blend-mode: normal"><path d="M300.00001,181.83333v-3.66667h40v3.66667z" fill="#16ff00" stroke="#ffffff" stroke-width="2"/><path d="M300.00001,181.83334v-3.66667h40v3.66667z" fill="#000000" stroke="none" stroke-width="0"/><path d="M300.00001,181.75002v-3.66667h24.33334v3.66667z" fill="#0e6900" stroke="none" stroke-width="0"/><path d="M300.03905,170.3128c0,-4.51869 0,-13.01338 0,-15.4348c0,-1.26567 2.60172,-2.61607 5.03442,-2.61607c4.74667,0 21.62775,0 30.06113,0c2.95133,0 4.86806,1.50665 4.86806,2.87768c0,2.332 0,9.82189 0,14.38837c0,2.15754 -3.14032,3.66249 -5.92905,3.66249c-4.94885,0 -21.23824,0 -29.3538,0c-2.84135,0 -4.68077,-1.14732 -4.68077,-2.87767z" fill-opacity="0.70196" fill="#000000" stroke="none" stroke-width="0"/><text transform="translate(304.63776,160.27752) scale(0.21224,0.21224)" font-size="40" xml:space="preserve" fill-opacity="0.70196" fill="#1dff00" fill-rule="nonzero" stroke="none" stroke-width="1" stroke-linecap="butt" stroke-linejoin="miter" stroke-miterlimit="10" stroke-dasharray="" stroke-dashoffset="0" font-family="&quot;MV Boli&quot;, Sans Serif" font-weight="normal" text-anchor="start" style="mix-blend-mode: normal"><tspan x="0" dy="0">Ancient</tspan><tspan x="0" dy="46.15px">Kaboom</tspan></text></g></g></svg>