<svg version="1.1" xmlns="http://www.w3.org/2000/svg" xmlns:xlink="http://www.w3.org/1999/xlink" width="40.86" height="40.86" viewBox="0,0,40.86,40.86"><defs><radialGradient cx="315.33565" cy="173.69956" r="4.86449" gradientUnits="userSpaceOnUse" id="color-1"><stop offset="0" stop-color="#030303"/><stop offset="1" stop-color="#000000" stop-opacity="0.16078"/></radialGradient><radialGradient cx="315.33565" cy="173.69956" r="3.93045" gradientUnits="userSpaceOnUse" id="color-2"><stop offset="0" stop-color="#252525"/><stop offset="1" stop-color="#000000"/></radialGradient><radialGradient cx="315.33565" cy="173.69956" r="2.05793" gradientUnits="userSpaceOnUse" id="color-3"><stop offset="0" stop-color="#630000"/><stop offset="1" stop-color="#630000" stop-opacity="0"/></radialGradient><radialGradient cx="315.33565" cy="184.89468" r="3.05351" gradientUnits="userSpaceOnUse" id="color-4"><stop offset="0" stop-color="#030303"/><stop offset="1" stop-color="#000000" stop-opacity="0.16078"/></radialGradient><radialGradient cx="315.33565" cy="184.89468" r="2.4672" gradientUnits="userSpaceOnUse" id="color-5"><stop offset="0" stop-color="#252525"/><stop offset="1" stop-color="#000000"/></radialGradient><radialGradient cx="315.33565" cy="184.89468" r="1.2918" gradientUnits="userSpaceOnUse" id="color-6"><stop offset="0" stop-color="#630000"/><stop offset="1" stop-color="#630000" stop-opacity="0"/></radialGradient><radialGradient cx="324.42546" cy="174.52273" r="2.08508" gradientUnits="userSpaceOnUse" id="color-7"><stop offset="0" stop-color="#030303"/><stop offset="1" stop-color="#000000" stop-opacity="0.16078"/></radialGradient><radialGradient cx="324.42546" cy="174.52273" r="1.68472" gradientUnits="userSpaceOnUse" id="color-8"><stop offset="0" stop-color="#252525"/><stop offset="1" stop-color="#000000"/></radialGradient><radialGradient cx="324.42546" cy="174.52273" r="0.8821" gradientUnits="userSpaceOnUse" id="color-9"><stop offset="0" stop-color="#630000"/><stop offset="1" stop-color="#630000" stop-opacity="0"/></radialGradient><radialGradient cx="320.20014" cy="180.64912" r="2.52411" gradientUnits="userSpaceOnUse" id="color-10"><stop offset="0" stop-color="#030303"/><stop offset="1" stop-color="#000000" stop-opacity="0.16078"/></radialGradient><radialGradient cx="320.20014" cy="180.64912" r="2.03945" gradientUnits="userSpaceOnUse" id="color-11"><stop offset="0" stop-color="#252525"/><stop offset="1" stop-color="#000000"/></radialGradient><radialGradient cx="320.20014" cy="180.64912" r="1.06783" gradientUnits="userSpaceOnUse" id="color-12"><stop offset="0" stop-color="#630000"/><stop offset="1" stop-color="#630000" stop-opacity="0"/></radialGradient><radialGradient cx="320" cy="180" r="20.43" gradientUnits="userSpaceOnUse" id="color-13"><stop offset="0" stop-color="#8f0000" stop-opacity="0.5098"/><stop offset="1" stop-color="#8f0000" stop-opacity="0"/></radialGradient><radialGradient cx="320" cy="180" r="20.43" gradientUnits="userSpaceOnUse" id="color-14"><stop offset="0" stop-color="#8f0000" stop-opacity="0.5098"/><stop offset="1" stop-color="#8f0000" stop-opacity="0"/></radialGradient></defs><g transform="translate(-299.57,-159.57)"><g stroke-width="0" stroke-miterlimit="10"><g stroke="#000000"><path d="M309.97727,181.1422c0,-5.5354 4.48733,-10.02273 10.02273,-10.02273c5.5354,0 10.02273,4.48733 10.02273,10.02273c0,5.5354 -4.48733,10.02273 -10.02273,10.02273c-5.5354,0 -10.02273,-4.48733 -10.02273,-10.02273z" fill="#630000"/><g><path d="M310.47117,173.69956c0,-2.68659 2.1779,-4.86449 4.86449,-4.86449c2.68658,0 4.86449,2.1779 4.86449,4.86449c0,2.68659 -2.1779,4.86449 -4.86449,4.86449c-2.68658,0 -4.86449,-2.1779 -4.86449,-4.86449z" fill="url(#color-1)"/><path d="M311.40521,173.69956c0,-2.17073 1.75972,-3.93045 3.93045,-3.93045c2.17073,0 3.93045,1.75972 3.93045,3.93045c0,2.17073 -1.75972,3.93045 -3.93045,3.93045c-2.17073,0 -3.93045,-1.75972 -3.93045,-3.93045z" fill="url(#color-2)"/><path d="M314.77853,173.69956c0,-0.55593 0.24944,-1.0066 0.55714,-1.0066c0.3077,0 0.55713,0.45067 0.55713,1.0066c0,0.55593 -0.24944,1.0066 -0.55713,1.0066c-0.3077,0 -0.55714,-0.45067 -0.55714,-1.0066z" fill="#630000"/><path d="M314.9622,173.69956c0,-0.20626 0.16721,-0.37347 0.37347,-0.37347c0.20626,0 0.37346,0.16721 0.37346,0.37347c0,0.20626 -0.1672,0.37347 -0.37346,0.37347c-0.20626,0 -0.37347,-0.16721 -0.37347,-0.37347z" fill="#000000"/><path d="M313.27773,173.69956c0,-1.13656 0.92136,-2.05793 2.05792,-2.05793c1.13656,0 2.05793,0.92137 2.05793,2.05793c0,1.13656 -0.92137,2.05793 -2.05793,2.05793c-1.13656,0 -2.05792,-0.92137 -2.05792,-2.05793z" fill="url(#color-3)"/></g><g><path d="M312.28215,184.89468c0,-1.68641 1.3671,-3.05351 3.05351,-3.05351c1.68641,0 3.05351,1.3671 3.05351,3.05351c0,1.68641 -1.3671,3.05351 -3.05351,3.05351c-1.68641,0 -3.05351,-1.3671 -3.05351,-3.05351z" fill="url(#color-4)"/><path d="M312.86846,184.89468c0,-1.3626 1.1046,-2.4672 2.4672,-2.4672c1.3626,0 2.4672,1.1046 2.4672,2.4672c0,1.3626 -1.1046,2.46721 -2.4672,2.46721c-1.3626,0 -2.4672,-1.10461 -2.4672,-2.46721z" fill="url(#color-5)"/><path d="M314.98594,184.89468c0,-0.34896 0.15658,-0.63186 0.34973,-0.63186c0.19315,0 0.34972,0.28289 0.34972,0.63186c0,0.34896 -0.15657,0.63186 -0.34972,0.63186c-0.19315,0 -0.34973,-0.28289 -0.34973,-0.63186z" fill="#630000"/><path d="M315.10123,184.89468c0,-0.12947 0.10496,-0.23443 0.23443,-0.23443c0.12947,0 0.23443,0.10496 0.23443,0.23443c0,0.12947 -0.10496,0.23443 -0.23443,0.23443c-0.12947,0 -0.23443,-0.10496 -0.23443,-0.23443z" fill="#000000"/><path d="M314.04387,184.89468c0,-0.71344 0.57835,-1.29179 1.29179,-1.29179c0.71344,0 1.2918,0.57835 1.2918,1.29179c0,0.71344 -0.57836,1.29179 -1.2918,1.29179c-0.71344,0 -1.29179,-0.57835 -1.29179,-1.29179z" fill="url(#color-6)"/></g><g><path d="M322.34039,174.52273c0,-1.15156 0.93351,-2.08508 2.08507,-2.08508c1.15156,0 2.08508,0.93352 2.08508,2.08508c0,1.15156 -0.93352,2.08508 -2.08508,2.08508c-1.15156,0 -2.08507,-0.93352 -2.08507,-2.08508z" fill="url(#color-7)"/><path d="M322.74075,174.52273c0,-0.93044 0.75427,-1.68472 1.68471,-1.68472c0.93045,0 1.68472,0.75428 1.68472,1.68472c0,0.93044 -0.75428,1.68472 -1.68472,1.68472c-0.93045,0 -1.68471,-0.75428 -1.68471,-1.68472z" fill="url(#color-8)"/><path d="M324.18665,174.52273c0,-0.23829 0.10692,-0.43146 0.23881,-0.43146c0.13189,0 0.23881,0.19317 0.23881,0.43146c0,0.23829 -0.10692,0.43146 -0.23881,0.43146c-0.13189,0 -0.23881,-0.19317 -0.23881,-0.43146z" fill="#630000"/><path d="M324.26538,174.52273c0,-0.08841 0.07167,-0.16008 0.16008,-0.16008c0.08841,0 0.16008,0.07167 0.16008,0.16008c0,0.08841 -0.07167,0.16008 -0.16008,0.16008c-0.08841,0 -0.16008,-0.07167 -0.16008,-0.16008z" fill="#000000"/><path d="M323.54337,174.52273c0,-0.48717 0.39493,-0.88209 0.88209,-0.88209c0.48717,0 0.8821,0.39493 0.8821,0.88209c0,0.48717 -0.39494,0.88209 -0.8821,0.88209c-0.48717,0 -0.88209,-0.39493 -0.88209,-0.88209z" fill="url(#color-9)"/></g><g><path d="M317.67604,180.64912c0,-1.39402 1.13007,-2.52411 2.5241,-2.52411c1.39402,0 2.52411,1.13008 2.52411,2.52411c0,1.39402 -1.13008,2.5241 -2.52411,2.5241c-1.39402,0 -2.5241,-1.13008 -2.5241,-2.5241z" fill="url(#color-10)"/><path d="M318.16069,180.64912c0,-1.12635 0.91309,-2.03945 2.03944,-2.03945c1.12635,0 2.03945,0.9131 2.03945,2.03945c0,1.12635 -0.91309,2.03945 -2.03945,2.03945c-1.12635,0 -2.03944,-0.91309 -2.03944,-2.03945z" fill="url(#color-11)"/><path d="M319.91105,180.64912c0,-0.28847 0.12943,-0.52231 0.28909,-0.52231c0.15966,0 0.28909,0.23385 0.28909,0.52231c0,0.28847 -0.12943,0.5223 -0.28909,0.5223c-0.15966,0 -0.28909,-0.23384 -0.28909,-0.5223z" fill="#630000"/><path d="M320.00636,180.64912c0,-0.10702 0.08676,-0.19379 0.19378,-0.19379c0.10703,0 0.19379,0.08677 0.19379,0.19379c0,0.10702 -0.08676,0.19378 -0.19379,0.19378c-0.10703,0 -0.19378,-0.08676 -0.19378,-0.19378z" fill="#000000"/><path d="M319.13232,180.64912c0,-0.58974 0.47808,-1.06782 1.06782,-1.06782c0.58974,0 1.06783,0.47808 1.06783,1.06782c0,0.58974 -0.47809,1.06782 -1.06783,1.06782c-0.58974,0 -1.06782,-0.47808 -1.06782,-1.06782z" fill="url(#color-12)"/></g></g><path d="M299.57,180c0,-11.28317 9.14682,-20.43 20.43,-20.43c11.28318,0 20.43,9.14683 20.43,20.43c0,11.28318 -9.14682,20.43 -20.43,20.43c-11.28318,0 -20.43,-9.14683 -20.43,-20.43z" fill="url(#color-13)" stroke="#000000"/><g fill="#730000"><path d="M325.36014,180.64453c0,-1.10457 0.70099,-2 1.5657,-2h11.05775c0.86471,0 1.5657,0.89543 1.5657,2v2.625c0,1.10457 -0.70099,2 -1.5657,2h-11.05775c-0.86471,0 -1.5657,-0.89543 -1.5657,-2z" stroke="none"/><path d="M338.8643,183.89453v-3.875h1.5657v3.875z" stroke="#000000"/></g><path d="M299.57,180c0,-11.28317 9.14682,-20.43 20.43,-20.43c11.28318,0 20.43,9.14683 20.43,20.43c0,11.28318 -9.14682,20.43 -20.43,20.43c-11.28318,0 -20.43,-9.14683 -20.43,-20.43z" fill="url(#color-14)" stroke="#000000"/></g></g></svg>