<svg version="1.1" xmlns="http://www.w3.org/2000/svg" xmlns:xlink="http://www.w3.org/1999/xlink" width="69.94599" height="36.52986" viewBox="0,0,69.94599,36.52986"><defs><radialGradient cx="283.33729" cy="274.50979" r="5.10508" gradientUnits="userSpaceOnUse" id="color-1"><stop offset="0" stop-color="#0017c2"/><stop offset="1" stop-color="#00094f" stop-opacity="0.58039"/></radialGradient><radialGradient cx="283.33729" cy="274.50979" r="8.34335" gradientUnits="userSpaceOnUse" id="color-2"><stop offset="0" stop-color="#0017c2" stop-opacity="0.35294"/><stop offset="1" stop-color="#0017c2" stop-opacity="0"/></radialGradient></defs><g transform="translate(-229.77434,-250.70554)"><g data-paper-data="{&quot;isPaintingLayer&quot;:true}" fill-rule="nonzero" stroke-linecap="butt" stroke-linejoin="miter" stroke-miterlimit="10" stroke-dasharray="" stroke-dashoffset="0" style="mix-blend-mode: normal"><path d="M241.62929,285.7354c-5.71888,0 -10.35495,-4.13788 -10.35495,-9.24221v-15.04545c0,-5.10433 4.63607,-9.2422 10.35495,-9.2422h46.23609c5.71889,0 10.35495,4.13788 10.35495,9.2422v15.04545c0,5.10433 -4.63606,9.24221 -10.35495,9.24221z" fill-opacity="0.70196" fill="#000000" stroke="#ffffff" stroke-width="3"/><text transform="translate(235.3323,262.13519) scale(0.19791,0.19791)" font-size="40" xml:space="preserve" fill-opacity="0.9098" fill="#00631b" fill-rule="nonzero" stroke-opacity="0.9098" stroke="#00631b" stroke-width="1" stroke-linecap="butt" stroke-linejoin="miter" stroke-miterlimit="10" stroke-dasharray="" stroke-dashoffset="0" font-family="&quot;MV Boli&quot;, Technological" font-weight="normal" text-anchor="start" style="mix-blend-mode: normal"><tspan x="0" dy="0">Ancient Slug</tspan><tspan x="0" dy="48px">Damage</tspan></text><g stroke="none"><path d="M283.33729,271.12553c2.81946,0 5.10508,1.51519 5.10508,3.38427c0,1.86908 -2.28562,3.38427 -5.10508,3.38427c-2.81946,0 -5.10509,-1.51519 -5.10509,-3.38427c0,-1.86908 2.28563,-3.38427 5.10509,-3.38427z" fill="#096b22" stroke-width="NaN"/><path d="M283.33728,272.06225c2.03908,0 3.69207,1.0958 3.69207,2.44754c0,1.35174 -1.65299,2.44755 -3.69207,2.44755c-2.03908,0 -3.69207,-1.0958 -3.69207,-2.44755c0,-1.35174 1.65299,-2.44754 3.69207,-2.44754z" fill="#009f29" stroke-width="NaN"/><path d="M283.33729,272.86514c1.37016,0 2.48091,0.73633 2.48091,1.64465c0,0.90832 -1.11074,1.64465 -2.48091,1.64465c-1.37016,0 -2.48091,-0.73633 -2.48091,-1.64465c0,-0.90832 1.11075,-1.64465 2.48091,-1.64465z" fill="#37d660" stroke-width="NaN"/><path d="M283.33729,271.12553c2.81946,0 5.10508,1.51519 5.10508,3.38427c0,1.86908 -2.28562,3.38427 -5.10508,3.38427c-2.81946,0 -5.10509,-1.51519 -5.10509,-3.38427c0,-1.86908 2.28563,-3.38427 5.10509,-3.38427z" fill="url(#color-1)" stroke-width="NaN"/><path d="M286.38692,272.86514c0.3141,0 0.56873,0.25462 0.56873,0.56872c0,0.3141 -0.25463,0.56873 -0.56873,0.56873c-0.3141,0 -0.56872,-0.25463 -0.56872,-0.56873c0,-0.3141 0.25462,-0.56872 0.56872,-0.56872z" fill="#000000" stroke-width="0"/><path d="M286.38692,275.017c0.3141,0 0.56872,0.25462 0.56872,0.56872c0,0.3141 -0.25462,0.56873 -0.56872,0.56873c-0.3141,0 -0.56872,-0.25463 -0.56872,-0.56873c0,-0.3141 0.25462,-0.56872 0.56872,-0.56872z" fill="#000000" stroke-width="0"/><path d="M274.99393,274.50979c0,-4.60791 3.73545,-8.34336 8.34336,-8.34336c4.60791,0 8.34335,3.73545 8.34335,8.34336c0,4.60791 -3.73544,8.34335 -8.34335,8.34335c-4.60791,0 -8.34336,-3.73544 -8.34336,-8.34335z" fill="url(#color-2)" stroke-width="0"/></g><g fill="#ff0000" stroke="#000000" stroke-width="0"><path d="M276.63993,270.35799c0,1.51116 0,5.99858 0,8.83645c0,1.43028 -4.12149,2.44151 -4.12149,2.44151c0,0 1.7765,-2.07794 2.27281,-4.04093c0.50132,-1.98294 -0.27748,-3.85723 -0.27748,-5.09918c0,-1.68609 -1.99533,-4.25474 -1.99533,-4.25474c0,0 4.12149,1.13222 4.12149,2.11689z"/><path d="M278.75681,279.57523c1.51116,0 5.99864,0 8.83645,0c1.43028,0 2.44145,4.12143 2.44145,4.12143c0,0 -2.07794,-1.77644 -4.04093,-2.27275c-1.98288,-0.50132 -3.8573,0.27748 -5.09918,0.27748c-1.68609,0 -4.25474,1.99527 -4.25474,1.99527c0,0 1.13222,-4.12143 2.11689,-4.12143z"/><path d="M290.0347,278.88353c0,-1.51116 0,-5.99864 0,-8.83645c0,-1.43028 4.12143,-2.44145 4.12143,-2.44145c0,0 -1.77644,2.07794 -2.27275,4.04093c-0.50133,1.98288 0.27748,3.85724 0.27748,5.09912c0,1.68615 1.99527,4.25474 1.99527,4.25474c0,0 -4.12143,-1.13222 -4.12143,-2.11689z"/><path d="M278.75675,269.44435c-0.98467,0 -2.11689,-4.12143 -2.11689,-4.12143c0,0 2.56865,1.99527 4.25474,1.99527c1.24188,0 3.1163,0.77881 5.09918,0.27748c1.96299,-0.49631 4.04093,-2.27275 4.04093,-2.27275c0,0 -1.01117,4.12143 -2.44145,4.12143c-2.83781,0 -7.32529,0 -8.83645,0z" data-paper-data="{&quot;index&quot;:null}"/></g><g fill="#ffffff" stroke="#ffffff" stroke-width="0" font-weight="normal" font-size="40" text-anchor="start"><text transform="translate(236.3323,281.05964) scale(0.22486,0.21833)" font-size="40" xml:space="preserve" fill="#ffffff" fill-rule="nonzero" stroke="#ffffff" stroke-width="0" stroke-linecap="butt" stroke-linejoin="miter" stroke-miterlimit="10" stroke-dasharray="" stroke-dashoffset="0" font-family="&quot;MV Boli&quot;, Technological" font-weight="normal" text-anchor="start" style="mix-blend-mode: normal"><tspan x="0" dy="0">Lv</tspan></text><text transform="translate(247.13837,281.08059) scale(0.34533,0.3353)" font-size="40" xml:space="preserve" fill="#ffffff" fill-rule="nonzero" stroke="#ffffff" stroke-width="0" stroke-linecap="butt" stroke-linejoin="miter" stroke-miterlimit="10" stroke-dasharray="" stroke-dashoffset="0" font-family="Handwriting" font-weight="normal" text-anchor="start" style="mix-blend-mode: normal"><tspan x="0" dy="0">.</tspan></text></g></g></g></svg>