<svg version="1.1" xmlns="http://www.w3.org/2000/svg" xmlns:xlink="http://www.w3.org/1999/xlink" width="197" height="225.58304" viewBox="0,0,197,225.58304"><defs><linearGradient x1="284.48459" y1="178.8088" x2="311.85725" y2="154.49267" gradientUnits="userSpaceOnUse" id="color-1"><stop offset="0" stop-color="#ff0000"/><stop offset="1" stop-color="#ff7100"/></linearGradient><linearGradient x1="282.17645" y1="180.8592" x2="309.54913" y2="156.54306" gradientUnits="userSpaceOnUse" id="color-2"><stop offset="0" stop-color="#ff0000"/><stop offset="1" stop-color="#ff7100"/></linearGradient><linearGradient x1="280.32995" y1="182.49951" x2="307.70261" y2="158.18339" gradientUnits="userSpaceOnUse" id="color-3"><stop offset="0" stop-color="#ff0000"/><stop offset="1" stop-color="#ff7100"/></linearGradient><linearGradient x1="278.02182" y1="184.54991" x2="305.3945" y2="160.23377" gradientUnits="userSpaceOnUse" id="color-4"><stop offset="0" stop-color="#ff0000"/><stop offset="1" stop-color="#ff7100"/></linearGradient><linearGradient x1="275.7137" y1="186.60029" x2="303.08636" y2="162.28417" gradientUnits="userSpaceOnUse" id="color-5"><stop offset="0" stop-color="#ff0000"/><stop offset="1" stop-color="#ff7100"/></linearGradient><linearGradient x1="273.40558" y1="188.65069" x2="300.77824" y2="164.33456" gradientUnits="userSpaceOnUse" id="color-6"><stop offset="0" stop-color="#ff0000"/><stop offset="1" stop-color="#ff7100"/></linearGradient><linearGradient x1="271.09744" y1="190.70108" x2="298.4701" y2="166.38496" gradientUnits="userSpaceOnUse" id="color-7"><stop offset="0" stop-color="#ff0000"/><stop offset="1" stop-color="#ff7100"/></linearGradient><linearGradient x1="195.37809" y1="184.91877" x2="168.00543" y2="160.60264" gradientUnits="userSpaceOnUse" id="color-8"><stop offset="0" stop-color="#ff0000"/><stop offset="1" stop-color="#ff7100"/></linearGradient><linearGradient x1="197.68622" y1="186.96917" x2="170.31355" y2="162.65303" gradientUnits="userSpaceOnUse" id="color-9"><stop offset="0" stop-color="#ff0000"/><stop offset="1" stop-color="#ff7100"/></linearGradient><linearGradient x1="199.53273" y1="188.60948" x2="172.16007" y2="164.29336" gradientUnits="userSpaceOnUse" id="color-10"><stop offset="0" stop-color="#ff0000"/><stop offset="1" stop-color="#ff7100"/></linearGradient><linearGradient x1="201.84086" y1="190.65988" x2="174.46818" y2="166.34374" gradientUnits="userSpaceOnUse" id="color-11"><stop offset="0" stop-color="#ff0000"/><stop offset="1" stop-color="#ff7100"/></linearGradient><linearGradient x1="204.14898" y1="192.71027" x2="176.77631" y2="168.39414" gradientUnits="userSpaceOnUse" id="color-12"><stop offset="0" stop-color="#ff0000"/><stop offset="1" stop-color="#ff7100"/></linearGradient><linearGradient x1="206.4571" y1="194.76066" x2="179.08444" y2="170.44453" gradientUnits="userSpaceOnUse" id="color-13"><stop offset="0" stop-color="#ff0000"/><stop offset="1" stop-color="#ff7100"/></linearGradient><linearGradient x1="208.76524" y1="196.81106" x2="181.39257" y2="172.49493" gradientUnits="userSpaceOnUse" id="color-14"><stop offset="0" stop-color="#ff0000"/><stop offset="1" stop-color="#ff7100"/></linearGradient><linearGradient x1="241.36266" y1="166.6578" x2="241.36266" y2="81.55262" gradientUnits="userSpaceOnUse" id="color-15"><stop offset="0" stop-color="#ff0000"/><stop offset="1" stop-color="#ff7100"/></linearGradient><linearGradient x1="241.36266" y1="173.83409" x2="241.36266" y2="88.72889" gradientUnits="userSpaceOnUse" id="color-16"><stop offset="0" stop-color="#ff0000"/><stop offset="1" stop-color="#ff7100"/></linearGradient><linearGradient x1="241.36266" y1="179.57511" x2="241.36266" y2="94.46993" gradientUnits="userSpaceOnUse" id="color-17"><stop offset="0" stop-color="#ff0000"/><stop offset="1" stop-color="#ff7100"/></linearGradient><linearGradient x1="241.36266" y1="186.7514" x2="241.36266" y2="101.64616" gradientUnits="userSpaceOnUse" id="color-18"><stop offset="0" stop-color="#ff0000"/><stop offset="1" stop-color="#ff7100"/></linearGradient><linearGradient x1="241.36266" y1="193.92764" x2="241.36266" y2="108.82245" gradientUnits="userSpaceOnUse" id="color-19"><stop offset="0" stop-color="#ff0000"/><stop offset="1" stop-color="#ff7100"/></linearGradient><linearGradient x1="241.36266" y1="201.10389" x2="241.36266" y2="115.99872" gradientUnits="userSpaceOnUse" id="color-20"><stop offset="0" stop-color="#ff0000"/><stop offset="1" stop-color="#ff7100"/></linearGradient><linearGradient x1="241.36266" y1="208.28019" x2="241.36266" y2="123.17501" gradientUnits="userSpaceOnUse" id="color-21"><stop offset="0" stop-color="#ff0000"/><stop offset="1" stop-color="#ff7100"/></linearGradient><linearGradient x1="240.00001" y1="125.50001" x2="240.00001" y2="234.50001" gradientUnits="userSpaceOnUse" id="color-22"><stop offset="0" stop-color="#ff5600"/><stop offset="1" stop-color="#373737"/></linearGradient><radialGradient cx="239.69603" cy="162.58305" r="98.5" gradientUnits="userSpaceOnUse" id="color-23"><stop offset="0" stop-color="#ff5100" stop-opacity="0.71765"/><stop offset="1" stop-color="#ff5100" stop-opacity="0"/></radialGradient><radialGradient cx="246.02936" cy="100.5" r="65" gradientUnits="userSpaceOnUse" id="color-24"><stop offset="0" stop-color="#ff5100" stop-opacity="0.71765"/><stop offset="1" stop-color="#ff5100" stop-opacity="0"/></radialGradient></defs><g transform="translate(-141.19601,-35.5)"><g data-paper-data="{&quot;isPaintingLayer&quot;:true}" fill-rule="nonzero" stroke-linejoin="miter" stroke-miterlimit="10" stroke-dasharray="" stroke-dashoffset="0" style="mix-blend-mode: normal"><g data-paper-data="{&quot;index&quot;:null}" stroke="none" stroke-width="0.5" stroke-linecap="butt"><path d="M288.73492,169.93008c1.79512,2.38076 3.01986,4.98266 4.73744,7.50344c0.73989,1.08588 2.15166,1.75449 2.33427,3.16682c0.01907,0.14739 0.03478,0.2959 0.04743,0.44538l0.10548,-0.05665l1.1845,3.9794c0.43102,1.30336 -0.19023,3.08094 -1.64432,4.37267c-1.72908,1.53601 -4.0016,1.82162 -5.17099,0.68072l-2.60923,-2.49094l0.03519,-0.03399l-0.09951,-0.02998c-2.25853,-2.5397 -4.81381,-4.95613 -6.8305,-7.70057c-0.53174,-0.72364 -3.10497,-5.34171 -3.68526,-5.93683c-2.23891,-2.29611 -7.04496,-2.23304 -4.04,-8.52418c1.03487,-2.16655 4.18965,-2.91728 6.28447,-4.37591c0,0 3.73328,-1.92846 4.57565,1.20945c0.6368,2.3721 -1.3412,4.05305 -2.34459,4.73224c0.57198,0.17968 1.18458,0.46111 1.63213,0.8543c0.76099,-0.62253 1.78527,-1.10411 3.11748,-1.05858c2.71609,0.09282 2.58929,2.23563 2.37037,3.2632z" fill="#ff4200"/><path d="M296.39266,191.15911c-1.30944,-1.47403 0.75635,-3.30915 0.75635,-3.30915l-0.05195,0.21407c2.78721,-4.22189 5.4927,-7.41655 9.47064,-10.84304c-1.21627,-0.52408 -2.5219,-0.98525 -2.66975,-2.2612c-0.11514,-0.99372 1.08357,-2.04769 2.21294,-2.99079c-1.95204,-0.04776 -4.07862,-0.18281 -4.74268,-1.64854c-0.35463,-0.78277 -0.58966,-1.45176 -0.72544,-2.02195l-1.01493,0.76709c-1.11021,0.85583 -2.48593,0.95262 -3.16562,0.1875c-0.40787,-0.45914 -0.47799,-1.13059 -0.25691,-1.81066l0.82938,-2.607l0.13386,-0.00244l0.01937,-0.38185c1.07292,-1.66336 2.04749,-3.36683 3.21874,-4.99008c0.46645,-0.64642 0.95215,-1.28763 1.46277,-1.91308c-2.35782,1.16977 -5.31009,1.93888 -5.65121,1.75125c-0.9934,-0.54641 -1.24568,-2.15842 -0.91093,-3.83451c-1.08281,0.79059 -2.20468,1.41617 -3.24795,1.55667c-1.49021,0.2007 -2.63441,-0.60923 -3.71172,-1.24795c-0.26518,-0.15722 0.14624,-1.33965 -0.07299,-0.99592c-0.34953,0.54809 0.03458,1.19118 -0.38163,1.7088c-2.99834,3.72884 -7.16828,5.63892 -9.76516,9.67902c0,0 -1.47449,2.23584 -3.4259,1.50002c-0.06654,-0.02509 -0.12907,-0.05192 -0.18785,-0.08034c0.06252,-0.04333 0.12371,-0.09133 0.18288,-0.14389c0.5598,-0.4973 0.7333,-1.21996 0.39787,-1.63144c0.15801,-0.44386 0.28596,-0.88759 0.38308,-1.32786c0.39054,-0.82593 0.67831,-1.66152 0.85823,-2.48471c2.51882,-2.79852 5.39296,-4.82998 8.2428,-7.75668c1.15555,-1.18671 1.75536,-3.14859 3.21663,-3.7474c2.12357,-0.87018 3.11185,1.92171 5.14943,1.87156c1.24871,-0.03073 2.24152,-1.92984 3.34196,-2.91778l2.65514,-2.35865c1.14092,-1.01352 2.65206,-1.17517 3.37524,-0.3611c0.322,0.36247 0.43349,0.85727 0.35739,1.38414l-0.35101,2.55826l-0.06345,0.01219c-0.01034,0.15455 -0.02757,0.31114 -0.05275,0.47007c-0.08839,0.55784 -0.34609,1.12396 -0.67962,1.68361c0.32303,-0.15684 0.63375,-0.28484 0.89108,-0.37069c2.10519,-0.70242 4.9959,-2.59304 6.29647,-1.48925c1.27211,1.07966 -0.23518,3.91352 -1.11975,5.88278c-0.98003,2.18176 -2.80259,4.1128 -4.43704,6.11205c0.8497,0.25077 1.62007,0.80918 2.57128,0.80781l1.64647,-1.18729c1.09879,-0.81169 2.43581,-0.89075 3.10271,-0.14001c0.72318,0.81408 0.38455,2.29564 -0.75635,3.30915l-1.92857,1.71322c2.19811,-0.55239 5.31599,-0.86074 5.57925,0.10846c0.07605,0.27999 -0.47703,2.28791 -1.44164,3.9694c0.51359,-0.00277 0.9735,0.16681 1.28614,0.51874c0.40787,0.45914 0.478,1.13059 0.25691,1.81066l-0.82938,2.607l-0.1136,0.00205c-0.07211,0.26591 -0.16379,0.53301 -0.28035,0.80164c-0.16463,0.37937 -5.85819,5.34063 -6.1045,5.57527c-2.15406,2.05195 -3.58019,4.2905 -5.14722,6.66938l-1.23201,1.26236c0,0 -2.06579,1.8351 -3.37522,0.36108z" fill="url(#color-1)"/><path d="M294.08453,193.20951c-1.30944,-1.47403 0.75637,-3.30917 0.75637,-3.30917l-0.05195,0.21407c2.78722,-4.2219 5.49269,-7.41655 9.47064,-10.84304c-1.21627,-0.52408 -2.5219,-0.98525 -2.66974,-2.2612c-0.11514,-0.99372 1.08357,-2.04769 2.21294,-2.9908c-1.95204,-0.04776 -4.07862,-0.18281 -4.74267,-1.64854c-0.35464,-0.78277 -0.58967,-1.45176 -0.72544,-2.02195l-1.01492,0.7671c-1.11022,0.85583 -2.48594,0.95262 -3.16563,0.18749c-0.40787,-0.45914 -0.478,-1.13059 -0.25692,-1.81066l0.82937,-2.60699l0.13387,-0.00244l0.01937,-0.38186c1.07292,-1.66336 2.04749,-3.36683 3.21874,-4.99007c0.46643,-0.64642 0.95213,-1.28762 1.46276,-1.91307c-2.35782,1.16977 -5.31008,1.93886 -5.65118,1.75123c-0.99339,-0.54642 -1.24568,-2.15842 -0.91093,-3.83451c-1.08281,0.79059 -2.20468,1.41617 -3.24795,1.55667c-1.49021,0.2007 -2.6344,-0.60923 -3.71172,-1.24795c-0.26518,-0.15722 0.14623,-1.33966 -0.07299,-0.99592c-0.34951,0.54808 0.03458,1.19118 -0.38164,1.7088c-2.99834,3.72884 -7.16827,5.63893 -9.76516,9.67902c0,0 -1.47447,2.23584 -3.42589,1.50002c-0.06654,-0.02509 -0.12908,-0.05192 -0.18785,-0.08035c0.06252,-0.04333 0.12372,-0.09134 0.18289,-0.1439c0.5598,-0.4973 0.73331,-1.21995 0.39787,-1.63143c0.15801,-0.44386 0.28596,-0.8876 0.38308,-1.32787c0.39054,-0.82593 0.67831,-1.66151 0.85823,-2.48471c2.51881,-2.79852 5.39297,-4.82999 8.2428,-7.75668c1.15555,-1.18671 1.75535,-3.14859 3.21663,-3.7474c2.12356,-0.87017 3.11184,1.92172 5.14943,1.87157c1.24871,-0.03074 2.24153,-1.92986 3.34197,-2.9178l2.65514,-2.35865c1.1409,-1.01351 2.65205,-1.17516 3.37523,-0.36108c0.32199,0.36247 0.43349,0.85727 0.35739,1.38415l-0.351,2.55826l-0.06345,0.01219c-0.01033,0.15455 -0.02757,0.31114 -0.05274,0.47007c-0.08839,0.55784 -0.3461,1.12396 -0.67962,1.68361c0.32302,-0.15684 0.63374,-0.28484 0.89108,-0.37069c2.10519,-0.70242 4.9959,-2.59304 6.29647,-1.48925c1.27211,1.07966 -0.23517,3.91351 -1.11975,5.88277c-0.98001,2.18175 -2.8026,4.11281 -4.43704,6.11207c0.84969,0.25077 1.62007,0.80918 2.57127,0.80781l1.64647,-1.18729c1.09879,-0.81169 2.43581,-0.89075 3.10272,-0.14002c0.72317,0.81408 0.38455,2.29564 -0.75635,3.30915l-1.92857,1.71322c2.19811,-0.55239 5.31599,-0.86074 5.57925,0.10846c0.07605,0.27999 -0.47703,2.28791 -1.44164,3.9694c0.51359,-0.00277 0.9735,0.16681 1.28614,0.51875c0.40787,0.45914 0.478,1.13059 0.25692,1.81066l-0.82937,2.60699l-0.1136,0.00206c-0.07211,0.26591 -0.16378,0.533 -0.28035,0.80164c-0.16463,0.37937 -5.8582,5.34063 -6.10451,5.57527c-2.15406,2.05195 -3.58018,4.29049 -5.14722,6.66938l-1.23201,1.26236c0,0 -2.06581,1.83513 -3.37524,0.3611z" fill="url(#color-2)"/><path d="M292.23803,194.84982c-1.30944,-1.47403 0.75635,-3.30915 0.75635,-3.30915l-0.05195,0.21407c2.78721,-4.22189 5.4927,-7.41655 9.47064,-10.84305c-1.21627,-0.52408 -2.5219,-0.98525 -2.66974,-2.2612c-0.11514,-0.99372 1.08358,-2.04769 2.21295,-2.9908c-1.95204,-0.04776 -4.07863,-0.18281 -4.74268,-1.64854c-0.35464,-0.78277 -0.58967,-1.45176 -0.72544,-2.02195l-1.01492,0.7671c-1.11022,0.85583 -2.48593,0.95262 -3.16562,0.18749c-0.40787,-0.45914 -0.478,-1.13059 -0.25692,-1.81066l0.82938,-2.60699l0.13386,-0.00244l0.01937,-0.38186c1.07292,-1.66336 2.04749,-3.36683 3.21874,-4.99007c0.46644,-0.64642 0.95214,-1.28763 1.46277,-1.91308c-2.35781,1.16977 -5.31007,1.93886 -5.65118,1.75123c-0.9934,-0.54642 -1.24568,-2.15842 -0.91093,-3.83451c-1.08281,0.79059 -2.20468,1.41617 -3.24795,1.55668c-1.49021,0.2007 -2.63441,-0.60924 -3.71172,-1.24796c-0.26518,-0.15722 0.14623,-1.33966 -0.07299,-0.99592c-0.34953,0.54809 0.03458,1.19118 -0.38163,1.7088c-2.99834,3.72884 -7.16827,5.63893 -9.76515,9.67902c0,0 -1.47448,2.23583 -3.4259,1.50001c-0.06654,-0.02509 -0.12907,-0.05192 -0.18785,-0.08034c0.06253,-0.04333 0.12371,-0.09133 0.18288,-0.14389c0.5598,-0.4973 0.7333,-1.21996 0.39787,-1.63144c0.15801,-0.44386 0.28597,-0.88759 0.38309,-1.32786c0.39054,-0.82593 0.6783,-1.66152 0.85822,-2.48471c2.51882,-2.79852 5.39297,-4.82999 8.24281,-7.75669c1.15555,-1.18671 1.75535,-3.14859 3.21663,-3.74739c2.12356,-0.87017 3.11184,1.92172 5.14943,1.87157c1.24871,-0.03073 2.24151,-1.92985 3.34196,-2.91778l2.65513,-2.35865c1.14092,-1.01352 2.65207,-1.17517 3.37524,-0.36109c0.322,0.36247 0.43349,0.85726 0.35739,1.38414l-0.35101,2.55826l-0.06345,0.01219c-0.01034,0.15455 -0.02757,0.31114 -0.05274,0.47007c-0.08839,0.55784 -0.3461,1.12396 -0.67963,1.68361c0.32301,-0.15682 0.63375,-0.28484 0.89108,-0.37069c2.1052,-0.70242 4.9959,-2.59304 6.29647,-1.48925c1.27211,1.07966 -0.23517,3.91351 -1.11974,5.88277c-0.98002,2.18175 -2.80261,4.11281 -4.43705,6.11207c0.84969,0.25077 1.62007,0.80918 2.57128,0.80781l1.64647,-1.1873c1.09879,-0.81169 2.43581,-0.89075 3.10271,-0.14002c0.72318,0.81408 0.38455,2.29565 -0.75635,3.30915l-1.92856,1.71321c2.19811,-0.55239 5.31599,-0.86074 5.57925,0.10846c0.07605,0.27999 -0.47703,2.28791 -1.44164,3.96939c0.51359,-0.00277 0.9735,0.16682 1.28614,0.51875c0.40787,0.45914 0.478,1.13059 0.25692,1.81066l-0.82939,2.607l-0.11361,0.00206c-0.07211,0.26591 -0.16378,0.533 -0.28035,0.80164c-0.16464,0.37938 -5.85818,5.34063 -6.10449,5.57526c-2.15405,2.05195 -3.58019,4.29049 -5.14722,6.66938l-1.23201,1.26236c0,0 -2.06579,1.83511 -3.37522,0.36108z" fill="url(#color-3)"/><path d="M289.92993,196.90019c-1.30944,-1.47403 0.75637,-3.30917 0.75637,-3.30917l-0.05195,0.21407c2.78722,-4.2219 5.4927,-7.41655 9.47064,-10.84304c-1.21627,-0.52408 -2.5219,-0.98525 -2.66974,-2.2612c-0.11516,-0.99371 1.08355,-2.04767 2.21292,-2.99078c-1.95204,-0.04776 -4.07862,-0.18281 -4.74267,-1.64854c-0.35464,-0.78277 -0.58967,-1.45176 -0.72544,-2.02195l-1.01492,0.7671c-1.11022,0.85583 -2.48594,0.95262 -3.16562,0.18749c-0.40787,-0.45914 -0.478,-1.13059 -0.25692,-1.81066l0.82938,-2.60699l0.13386,-0.00244l0.01937,-0.38186c1.07292,-1.66336 2.04749,-3.36683 3.21874,-4.99007c0.46643,-0.64642 0.95213,-1.28762 1.46276,-1.91307c-2.35782,1.16977 -5.31008,1.93886 -5.65118,1.75123c-0.99339,-0.54642 -1.24568,-2.15842 -0.91093,-3.83451c-1.08281,0.79059 -2.20468,1.41617 -3.24795,1.55667c-1.49021,0.2007 -2.6344,-0.60923 -3.71172,-1.24795c-0.26518,-0.15722 0.14623,-1.33966 -0.07299,-0.99592c-0.34951,0.54808 0.03458,1.19118 -0.38164,1.7088c-2.99835,3.72885 -7.16827,5.63893 -9.76516,9.67902c0,0 -1.47449,2.23584 -3.4259,1.50002c-0.06654,-0.02509 -0.12907,-0.05192 -0.18785,-0.08035c0.06252,-0.04333 0.12372,-0.09133 0.18289,-0.1439c0.55981,-0.4973 0.73331,-1.21996 0.39787,-1.63144c0.15801,-0.44386 0.28596,-0.8876 0.38309,-1.32786c0.39054,-0.82593 0.67831,-1.66151 0.85823,-2.48471c2.51882,-2.79852 5.39297,-4.82999 8.2428,-7.75669c1.15555,-1.18671 1.75536,-3.14859 3.21663,-3.74739c2.12356,-0.87017 3.11184,1.92172 5.14943,1.87157c1.24871,-0.03074 2.24153,-1.92986 3.34197,-2.91779l2.65513,-2.35865c1.1409,-1.01351 2.65205,-1.17516 3.37523,-0.36108c0.32199,0.36247 0.43349,0.85727 0.35739,1.38414l-0.35101,2.55826l-0.06345,0.01219c-0.01033,0.15455 -0.02757,0.31114 -0.05274,0.47006c-0.08839,0.55784 -0.34609,1.12397 -0.67962,1.68361c0.32303,-0.15684 0.63374,-0.28484 0.89108,-0.37069c2.10519,-0.70242 4.99591,-2.59304 6.29648,-1.48925c1.27211,1.07966 -0.23518,3.91352 -1.11975,5.88277c-0.98002,2.18175 -2.8026,4.11281 -4.43704,6.11207c0.84969,0.25077 1.62007,0.80918 2.57127,0.80781l1.64647,-1.18729c1.09879,-0.81169 2.43581,-0.89075 3.10271,-0.14002c0.72317,0.81408 0.38455,2.29564 -0.75635,3.30915l-1.92856,1.71322c2.19811,-0.55239 5.31599,-0.86075 5.57924,0.10845c0.07605,0.27999 -0.47702,2.28791 -1.44163,3.96939c0.5136,-0.00278 0.9735,0.16682 1.28614,0.51875c0.40787,0.45914 0.47799,1.13059 0.25691,1.81066l-0.82937,2.60699l-0.1136,0.00206c-0.07211,0.26591 -0.16378,0.53301 -0.28035,0.80164c-0.16463,0.37937 -5.85819,5.34063 -6.1045,5.57527c-2.15406,2.05195 -3.58019,4.29049 -5.14723,6.66938l-1.23201,1.26236c0,0 -2.06581,1.83512 -3.37524,0.3611z" fill="url(#color-4)"/><path d="M287.62179,198.9506c-1.30944,-1.47403 0.75637,-3.30917 0.75637,-3.30917l-0.05195,0.21407c2.78721,-4.22189 5.4927,-7.41655 9.47064,-10.84304c-1.21627,-0.52408 -2.5219,-0.98525 -2.66975,-2.2612c-0.11514,-0.99372 1.08357,-2.04769 2.21294,-2.9908c-1.95204,-0.04776 -4.07862,-0.18281 -4.74267,-1.64854c-0.35464,-0.78277 -0.58965,-1.45177 -0.72543,-2.02196l-1.01493,0.7671c-1.11021,0.85583 -2.48593,0.95262 -3.16562,0.18749c-0.40787,-0.45914 -0.47799,-1.13059 -0.25691,-1.81066l0.82937,-2.60699l0.13387,-0.00245l0.01938,-0.38187c1.07292,-1.66336 2.04749,-3.36682 3.21874,-4.99007c0.46644,-0.64642 0.95213,-1.28762 1.46276,-1.91307c-2.35781,1.16977 -5.31007,1.93886 -5.65118,1.75123c-0.9934,-0.54642 -1.24568,-2.15842 -0.91093,-3.83451c-1.08281,0.79059 -2.20468,1.41617 -3.24795,1.55667c-1.49021,0.2007 -2.6344,-0.60923 -3.71172,-1.24795c-0.26518,-0.15722 0.14623,-1.33966 -0.07299,-0.99592c-0.34953,0.54809 0.03458,1.19118 -0.38164,1.7088c-2.99834,3.72884 -7.16828,5.63893 -9.76516,9.67902c0,0 -1.47448,2.23583 -3.42589,1.50001c-0.06654,-0.02509 -0.12907,-0.05192 -0.18785,-0.08035c0.06253,-0.04333 0.12372,-0.09133 0.18289,-0.1439c0.5598,-0.4973 0.73331,-1.21996 0.39787,-1.63144c0.15801,-0.44386 0.28596,-0.88759 0.38308,-1.32786c0.39056,-0.82595 0.67831,-1.66151 0.85823,-2.4847c2.51882,-2.79852 5.39297,-4.82999 8.2428,-7.75669c1.15555,-1.18671 1.75536,-3.14859 3.21663,-3.7474c2.12356,-0.87017 3.11184,1.92172 5.14942,1.87157c1.24871,-0.03073 2.24151,-1.92985 3.34196,-2.91778l2.65514,-2.35865c1.1409,-1.01351 2.65205,-1.17516 3.37523,-0.36108c0.322,0.36247 0.43349,0.85727 0.35739,1.38414l-0.351,2.55826l-0.06345,0.01219c-0.01034,0.15455 -0.02757,0.31114 -0.05275,0.47007c-0.08839,0.55784 -0.3461,1.12397 -0.67962,1.68361c0.32301,-0.15682 0.63374,-0.28484 0.89108,-0.37069c2.1052,-0.70242 4.9959,-2.59304 6.29647,-1.48925c1.27211,1.07966 -0.23517,3.91352 -1.11975,5.88277c-0.98001,2.18175 -2.8026,4.11281 -4.43705,6.11207c0.84969,0.25077 1.62007,0.80918 2.57127,0.80781l1.64648,-1.18729c1.09879,-0.81169 2.43581,-0.89075 3.10271,-0.14002c0.72317,0.81408 0.38453,2.29565 -0.75637,3.30916l-1.92856,1.71322c2.19811,-0.55239 5.31599,-0.86075 5.57925,0.10845c0.07605,0.27999 -0.47703,2.28791 -1.44164,3.9694c0.51358,-0.00277 0.9735,0.16682 1.28614,0.51875c0.40787,0.45914 0.478,1.13059 0.25692,1.81066l-0.82937,2.60699l-0.11361,0.00206c-0.07211,0.26591 -0.16378,0.53301 -0.28035,0.80164c-0.16463,0.37937 -5.85819,5.34064 -6.1045,5.57527c-2.15406,2.05195 -3.58019,4.29049 -5.14723,6.66937l-1.23201,1.26236c0,0 -2.06581,1.83512 -3.37524,0.3611z" fill="url(#color-5)"/><path d="M285.31363,201.00101c-1.30944,-1.47403 0.75635,-3.30915 0.75635,-3.30915l-0.05195,0.21407c2.78721,-4.22189 5.4927,-7.41655 9.47064,-10.84304c-1.21627,-0.52408 -2.5219,-0.98525 -2.66974,-2.2612c-0.11514,-0.99372 1.08357,-2.04769 2.21294,-2.9908c-1.95204,-0.04776 -4.07862,-0.1828 -4.74268,-1.64853c-0.35463,-0.78277 -0.58966,-1.45176 -0.72544,-2.02195l-1.01493,0.76709c-1.11021,0.85583 -2.48593,0.95262 -3.16562,0.1875c-0.40787,-0.45914 -0.47799,-1.13059 -0.25691,-1.81066l0.82937,-2.60699l0.13386,-0.00244l0.01937,-0.38186c1.07292,-1.66336 2.04749,-3.36683 3.21874,-4.99007c0.46645,-0.64642 0.95214,-1.28763 1.46277,-1.91308c-2.35781,1.16977 -5.31007,1.93886 -5.65118,1.75123c-0.9934,-0.54642 -1.24568,-2.15841 -0.91093,-3.8345c-1.08281,0.79059 -2.20468,1.41617 -3.24795,1.55667c-1.49021,0.2007 -2.63441,-0.60923 -3.71173,-1.24795c-0.26518,-0.15722 0.14624,-1.33966 -0.07298,-0.99592c-0.34953,0.54809 0.03458,1.19118 -0.38164,1.7088c-2.99834,3.72884 -7.16827,5.63893 -9.76516,9.67902c0,0 -1.47448,2.23583 -3.42589,1.50001c-0.06654,-0.02509 -0.12907,-0.05193 -0.18785,-0.08035c0.06253,-0.04333 0.12371,-0.09133 0.18288,-0.14389c0.5598,-0.4973 0.73331,-1.21995 0.39787,-1.63143c0.15801,-0.44386 0.28596,-0.8876 0.38308,-1.32787c0.39054,-0.82593 0.67831,-1.66151 0.85823,-2.4847c2.51881,-2.79852 5.39297,-4.82999 8.2428,-7.75669c1.15555,-1.18671 1.75535,-3.14859 3.21663,-3.7474c2.12356,-0.87017 3.11184,1.92172 5.14943,1.87157c1.24871,-0.03073 2.24152,-1.92985 3.34196,-2.91778l2.65513,-2.35865c1.14092,-1.01352 2.65207,-1.17517 3.37524,-0.3611c0.322,0.36247 0.43349,0.85727 0.35739,1.38414l-0.351,2.55826l-0.06345,0.01219c-0.01034,0.15455 -0.02757,0.31114 -0.05275,0.47007c-0.08839,0.55784 -0.34609,1.12396 -0.67962,1.68361c0.32302,-0.15684 0.63374,-0.28484 0.89108,-0.37069c2.1052,-0.70242 4.9959,-2.59304 6.29647,-1.48925c1.27211,1.07966 -0.23517,3.91351 -1.11975,5.88277c-0.98001,2.18175 -2.8026,4.11281 -4.43704,6.11207c0.84969,0.25077 1.62007,0.80918 2.57127,0.80781l1.64647,-1.18729c1.09879,-0.81169 2.43581,-0.89075 3.10272,-0.14002c0.72318,0.81408 0.38455,2.29564 -0.75635,3.30915l-1.92857,1.71322c2.19811,-0.55239 5.31599,-0.86074 5.57925,0.10846c0.07605,0.27999 -0.47703,2.28791 -1.44164,3.9694c0.51358,-0.00277 0.9735,0.16681 1.28614,0.51875c0.40787,0.45914 0.478,1.13059 0.25692,1.81066l-0.82939,2.60699l-0.1136,0.00206c-0.07211,0.26591 -0.16379,0.533 -0.28035,0.80164c-0.16464,0.37938 -5.85819,5.34063 -6.10449,5.57527c-2.15405,2.05195 -3.58019,4.29049 -5.14722,6.66938l-1.23201,1.26236c0,0 -2.06579,1.8351 -3.37523,0.36108z" fill="url(#color-6)"/><path d="M283.00554,203.05138c-1.30944,-1.47403 0.75636,-3.30917 0.75636,-3.30917l-0.05195,0.21408c2.78722,-4.2219 5.4927,-7.41655 9.47064,-10.84304c-1.21627,-0.52408 -2.5219,-0.98525 -2.66974,-2.2612c-0.11516,-0.99371 1.08356,-2.04767 2.21293,-2.99078c-1.95204,-0.04776 -4.07862,-0.18281 -4.74267,-1.64854c-0.35464,-0.78277 -0.58967,-1.45176 -0.72545,-2.02195l-1.01492,0.76709c-1.11022,0.85583 -2.48593,0.95262 -3.16562,0.1875c-0.40787,-0.45914 -0.478,-1.13059 -0.25692,-1.81066l0.82938,-2.60699l0.13386,-0.00244l0.01937,-0.38186c1.07292,-1.66336 2.04749,-3.36683 3.21874,-4.99007c0.46643,-0.64642 0.95214,-1.28762 1.46276,-1.91307c-2.35782,1.16977 -5.31008,1.93886 -5.65119,1.75123c-0.99339,-0.54642 -1.24568,-2.15842 -0.91093,-3.83451c-1.08281,0.79059 -2.20468,1.41617 -3.24795,1.55668c-1.49021,0.2007 -2.63441,-0.60923 -3.71172,-1.24795c-0.26518,-0.15722 0.14624,-1.33966 -0.07299,-0.99592c-0.34951,0.54808 0.03458,1.19118 -0.38163,1.7088c-2.99835,3.72885 -7.16828,5.63892 -9.76516,9.67902c0,0 -1.47449,2.23585 -3.42591,1.50003c-0.06654,-0.02509 -0.12907,-0.05193 -0.18784,-0.08035c0.06252,-0.04333 0.12371,-0.09133 0.18289,-0.14389c0.55981,-0.4973 0.73331,-1.21996 0.39787,-1.63144c0.15801,-0.44386 0.28597,-0.8876 0.38309,-1.32787c0.39054,-0.82593 0.6783,-1.66151 0.85822,-2.4847c2.51882,-2.79852 5.39297,-4.82999 8.24281,-7.75669c1.15555,-1.18671 1.75535,-3.14859 3.21663,-3.7474c2.12356,-0.87017 3.11185,1.92172 5.14943,1.87157c1.24872,-0.03074 2.24153,-1.92986 3.34197,-2.91779l2.65514,-2.35865c1.1409,-1.01351 2.65205,-1.17515 3.37523,-0.36107c0.32199,0.36247 0.43348,0.85727 0.35739,1.38414l-0.35101,2.55826l-0.06345,0.01219c-0.01033,0.15455 -0.02757,0.31114 -0.05275,0.47007c-0.08839,0.55784 -0.3461,1.12396 -0.67962,1.68361c0.32303,-0.15684 0.63374,-0.28484 0.89108,-0.37069c2.10519,-0.70242 4.9959,-2.59304 6.29647,-1.48925c1.27211,1.07966 -0.23518,3.91352 -1.11975,5.88278c-0.98002,2.18175 -2.8026,4.11281 -4.43704,6.11207c0.84969,0.25077 1.62006,0.80918 2.57127,0.80781l1.64647,-1.18729c1.09879,-0.81169 2.43581,-0.89075 3.10272,-0.14001c0.72317,0.81408 0.38455,2.29564 -0.75635,3.30915l-1.92857,1.71321c2.19811,-0.55239 5.31599,-0.86074 5.57925,0.10846c0.07605,0.27999 -0.47703,2.28791 -1.44164,3.96939c0.5136,-0.00278 0.9735,0.16681 1.28614,0.51875c0.40787,0.45914 0.478,1.13059 0.25692,1.81066l-0.82938,2.60699l-0.1136,0.00206c-0.07211,0.26591 -0.16379,0.533 -0.28035,0.80164c-0.16463,0.37937 -5.85819,5.34063 -6.1045,5.57527c-2.15406,2.05195 -3.58019,4.2905 -5.14723,6.66938l-1.232,1.26236c0,0 -2.06581,1.83512 -3.37524,0.36109z" fill="url(#color-7)"/></g><g stroke="none" stroke-width="0.5" stroke-linecap="butt"><path d="M191.12774,176.04006c-0.21892,-1.02758 -0.34572,-3.17039 2.37037,-3.26321c1.33221,-0.04553 2.35649,0.43605 3.11748,1.05858c0.44755,-0.39319 1.06015,-0.67462 1.63214,-0.8543c-1.0034,-0.67919 -2.98139,-2.36014 -2.3446,-4.73224c0.84237,-3.13791 4.57566,-1.20945 4.57566,-1.20945c2.09483,1.45863 5.2496,2.20936 6.28447,4.37591c3.00496,6.29114 -1.80108,6.22807 -4.04,8.52418c-0.58029,0.59512 -3.15352,5.21319 -3.68526,5.93683c-2.01669,2.74444 -4.57196,5.16087 -6.8305,7.70057l-0.0995,0.02998l0.03518,0.03399l-2.60923,2.49094c-1.1694,1.14091 -3.44191,0.85529 -5.17099,-0.68071c-1.4541,-1.29173 -2.07534,-3.06931 -1.64432,-4.37267l1.18449,-3.9794l0.10548,0.05665c0.01265,-0.14949 0.02837,-0.298 0.04743,-0.44539c0.18262,-1.41233 1.59438,-2.08093 2.33428,-3.16682c1.71758,-2.52078 2.94232,-5.12269 4.73744,-7.50345z" fill="#ff4200"/><path d="M183.47004,197.2691c-1.30943,1.47402 -3.37522,-0.36108 -3.37522,-0.36108l-1.23201,-1.26236c-1.56704,-2.37888 -2.99317,-4.61743 -5.14722,-6.66938c-0.24631,-0.23463 -5.93987,-5.1959 -6.1045,-5.57527c-0.11657,-0.26863 -0.20824,-0.53573 -0.28035,-0.80164l-0.1136,-0.00206l-0.82938,-2.60699c-0.22108,-0.68007 -0.15095,-1.35152 0.25692,-1.81066c0.31264,-0.35193 0.77255,-0.52152 1.28614,-0.51875c-0.96461,-1.68149 -1.51769,-3.68941 -1.44164,-3.9694c0.26326,-0.9692 3.38114,-0.66085 5.57925,-0.10846l-1.92857,-1.71322c-1.1409,-1.0135 -1.47953,-2.49507 -0.75635,-3.30915c0.66691,-0.75074 2.00393,-0.67168 3.10272,0.14002l1.64647,1.18729c0.95121,0.00137 1.72158,-0.55704 2.57127,-0.8078c-1.63444,-1.99926 -3.45701,-3.9303 -4.43703,-6.11206c-0.88458,-1.96925 -2.39186,-4.80312 -1.11975,-5.88277c1.30057,-1.10379 4.19128,0.78683 6.29647,1.48925c0.25733,0.08585 0.56805,0.21386 0.89108,0.37069c-0.33352,-0.55964 -0.59123,-1.12577 -0.67962,-1.68361c-0.02518,-0.15892 -0.04241,-0.31551 -0.05274,-0.47007l-0.06345,-0.01219l-0.35101,-2.55826c-0.0761,-0.52688 0.0354,-1.02167 0.35739,-1.38414c0.72318,-0.81408 2.23432,-0.65243 3.37524,0.3611l2.65513,2.35865c1.10045,0.98793 2.09325,2.88705 3.34196,2.91778c2.03759,0.05015 3.02587,-2.74175 5.14944,-1.87156c1.46128,0.5988 2.06108,2.56068 3.21663,3.7474c2.84983,2.9267 5.72398,4.95817 8.2428,7.75668c0.17992,0.8232 0.46769,1.65877 0.85823,2.48471c0.09713,0.44027 0.22508,0.884 0.38309,1.32786c-0.33544,0.41147 -0.16193,1.13414 0.39787,1.63143c0.05917,0.05257 0.12035,0.10056 0.18288,0.14389c-0.05878,0.02842 -0.12131,0.05526 -0.18785,0.08035c-1.95142,0.73582 -3.4259,-1.50002 -3.4259,-1.50002c-2.59688,-4.0401 -6.76682,-5.95018 -9.76516,-9.67902c-0.41621,-0.51762 -0.03211,-1.16071 -0.38163,-1.7088c-0.21923,-0.34373 0.19219,0.8387 -0.07299,0.99592c-1.07732,0.63872 -2.22151,1.44866 -3.71172,1.24796c-1.04327,-0.1405 -2.16514,-0.76608 -3.24795,-1.55667c0.33474,1.67609 0.08247,3.28809 -0.91094,3.83451c-0.34111,0.18764 -3.29339,-0.58147 -5.6512,-1.75124c0.51063,0.62546 0.99632,1.26665 1.46277,1.91308c1.17125,1.62324 2.14582,3.32671 3.21874,4.99007l0.01937,0.38186l0.13386,0.00244l0.82938,2.607c0.22108,0.68007 0.15095,1.35152 -0.25692,1.81066c-0.67969,0.76513 -2.05541,0.66833 -3.16562,-0.18749l-1.01492,-0.7671c-0.13578,0.57018 -0.37081,1.23918 -0.72544,2.02195c-0.66405,1.46573 -2.79063,1.60077 -4.74267,1.64854c1.12937,0.94311 2.32808,1.99708 2.21295,2.9908c-0.14785,1.27595 -1.45347,1.73712 -2.66974,2.2612c3.97795,3.42649 6.68343,6.62115 9.47064,10.84304l-0.05195,-0.21407c0,0 2.06578,1.83511 0.75635,3.30915z" fill="url(#color-8)"/><path d="M185.77818,199.3195c-1.30943,1.47402 -3.37524,-0.3611 -3.37524,-0.3611l-1.23201,-1.26236c-1.56704,-2.37888 -2.99317,-4.61743 -5.14722,-6.66938c-0.24631,-0.23463 -5.93987,-5.1959 -6.1045,-5.57527c-0.11657,-0.26863 -0.20824,-0.53573 -0.28035,-0.80164l-0.1136,-0.00206l-0.82938,-2.60699c-0.22108,-0.68007 -0.15095,-1.35152 0.25692,-1.81066c0.31264,-0.35193 0.77255,-0.52152 1.28614,-0.51875c-0.96461,-1.68149 -1.51769,-3.68941 -1.44164,-3.9694c0.26326,-0.9692 3.38114,-0.66085 5.57925,-0.10846l-1.92857,-1.71322c-1.1409,-1.0135 -1.47953,-2.49506 -0.75635,-3.30915c0.66691,-0.75074 2.00393,-0.67168 3.10272,0.14002l1.64647,1.18729c0.95121,0.00137 1.72158,-0.55704 2.57127,-0.8078c-1.63444,-1.99926 -3.45703,-3.93032 -4.43704,-6.11207c-0.88458,-1.96925 -2.39186,-4.80312 -1.11975,-5.88277c1.30057,-1.10379 4.19128,0.78683 6.29647,1.48925c0.25733,0.08585 0.56805,0.21386 0.89108,0.37069c-0.33352,-0.55964 -0.59123,-1.12577 -0.67962,-1.68361c-0.02518,-0.15892 -0.04241,-0.31551 -0.05274,-0.47007l-0.06345,-0.01219l-0.35101,-2.55826c-0.0761,-0.52688 0.0354,-1.02167 0.35739,-1.38414c0.72318,-0.81408 2.23432,-0.65242 3.37523,0.36108l2.65513,2.35865c1.10045,0.98793 2.09326,2.88705 3.34198,2.91779c2.03759,0.05015 3.02587,-2.74174 5.14943,-1.87157c1.46128,0.5988 2.06108,2.56068 3.21663,3.7474c2.84983,2.9267 5.72398,4.95817 8.2428,7.75668c0.17992,0.8232 0.46769,1.65877 0.85823,2.48471c0.09713,0.44027 0.22508,0.884 0.38309,1.32786c-0.33544,0.41147 -0.16193,1.13414 0.39787,1.63143c0.05917,0.05257 0.12036,0.10057 0.18289,0.1439c-0.05878,0.02842 -0.12131,0.05526 -0.18785,0.08035c-1.95142,0.73582 -3.42589,-1.50002 -3.42589,-1.50002c-2.59688,-4.0401 -6.76682,-5.95018 -9.76516,-9.67902c-0.41621,-0.51762 -0.03212,-1.16072 -0.38163,-1.7088c-0.21923,-0.34373 0.19219,0.8387 -0.07299,0.99592c-1.07732,0.63872 -2.22151,1.44866 -3.71172,1.24796c-1.04327,-0.1405 -2.16514,-0.76608 -3.24795,-1.55667c0.33474,1.67609 0.08246,3.28809 -0.91094,3.83451c-0.34111,0.18764 -3.29337,-0.58146 -5.65119,-1.75123c0.51063,0.62546 0.99633,1.26665 1.46276,1.91307c1.17125,1.62324 2.14581,3.32671 3.21874,4.99007l0.01937,0.38186l0.13386,0.00244l0.82938,2.60699c0.22108,0.68007 0.15095,1.35152 -0.25692,1.81066c-0.67969,0.76513 -2.05541,0.66833 -3.16562,-0.18749l-1.01492,-0.7671c-0.13578,0.57018 -0.37081,1.23918 -0.72544,2.02195c-0.66405,1.46573 -2.79064,1.60077 -4.74268,1.64854c1.12937,0.94311 2.32809,1.99708 2.21295,2.9908c-0.14785,1.27595 -1.45347,1.73712 -2.66974,2.2612c3.97795,3.42649 6.68342,6.62114 9.47064,10.84304l-0.05195,-0.21407c0,0 2.0658,1.83513 0.75637,3.30916z" fill="url(#color-9)"/><path d="M187.62467,200.95981c-1.30943,1.47402 -3.37522,-0.36108 -3.37522,-0.36108l-1.23201,-1.26236c-1.56704,-2.37888 -2.99317,-4.61743 -5.14722,-6.66938c-0.24631,-0.23463 -5.93985,-5.19589 -6.10449,-5.57526c-0.11657,-0.26863 -0.20824,-0.53573 -0.28035,-0.80164l-0.1136,-0.00206l-0.82939,-2.607c-0.22108,-0.68007 -0.15095,-1.35152 0.25692,-1.81066c0.31264,-0.35193 0.77255,-0.52152 1.28614,-0.51875c-0.96461,-1.68149 -1.51769,-3.68941 -1.44164,-3.9694c0.26326,-0.9692 3.38114,-0.66085 5.57925,-0.10846l-1.92857,-1.71322c-1.1409,-1.0135 -1.47953,-2.49506 -0.75635,-3.30915c0.66691,-0.75074 2.00392,-0.67168 3.10272,0.14002l1.64647,1.18729c0.95121,0.00137 1.72158,-0.55704 2.57127,-0.80781c-1.63444,-1.99926 -3.45703,-3.93032 -4.43704,-6.11207c-0.88458,-1.96925 -2.39185,-4.80311 -1.11974,-5.88276c1.30057,-1.10379 4.19128,0.78683 6.29647,1.48925c0.25733,0.08585 0.56807,0.21388 0.89108,0.37069c-0.33352,-0.55964 -0.59123,-1.12577 -0.67962,-1.68361c-0.02518,-0.15892 -0.04241,-0.31551 -0.05274,-0.47007l-0.06345,-0.01219l-0.35101,-2.55826c-0.0761,-0.52688 0.0354,-1.02167 0.35739,-1.38414c0.72318,-0.81408 2.23432,-0.65242 3.37524,0.3611l2.65513,2.35865c1.10045,0.98793 2.09325,2.88705 3.34196,2.91778c2.03759,0.05015 3.02587,-2.74174 5.14943,-1.87157c1.46128,0.5988 2.06108,2.56068 3.21663,3.7474c2.84983,2.9267 5.72398,4.95817 8.2428,7.75668c0.17992,0.8232 0.46769,1.65877 0.85823,2.48471c0.09713,0.44027 0.22508,0.884 0.38309,1.32786c-0.33544,0.41147 -0.16193,1.13414 0.39787,1.63143c0.05917,0.05257 0.12035,0.10056 0.18288,0.14389c-0.05878,0.02842 -0.12131,0.05526 -0.18785,0.08035c-1.95142,0.73582 -3.42589,-1.50002 -3.42589,-1.50002c-2.59688,-4.0401 -6.76682,-5.95018 -9.76516,-9.67902c-0.41621,-0.51762 -0.03211,-1.16071 -0.38164,-1.7088c-0.21923,-0.34373 0.19219,0.8387 -0.07299,0.99592c-1.07732,0.63872 -2.22151,1.44866 -3.71172,1.24796c-1.04327,-0.1405 -2.16514,-0.76608 -3.24795,-1.55667c0.33474,1.67609 0.08246,3.28809 -0.91094,3.83451c-0.34111,0.18764 -3.29337,-0.58145 -5.65118,-1.75123c0.51063,0.62546 0.99632,1.26665 1.46277,1.91308c1.17125,1.62324 2.14581,3.32671 3.21874,4.99007l0.01937,0.38186l0.13386,0.00244l0.82938,2.60699c0.22108,0.68007 0.15095,1.35152 -0.25692,1.81066c-0.67969,0.76513 -2.05541,0.66833 -3.16562,-0.18749l-1.01492,-0.7671c-0.13578,0.57018 -0.37081,1.23918 -0.72544,2.02195c-0.66405,1.46573 -2.79064,1.60077 -4.74268,1.64854c1.12937,0.94311 2.32809,1.99708 2.21295,2.9908c-0.14785,1.27595 -1.45347,1.73712 -2.66974,2.2612c3.97795,3.42649 6.68343,6.62115 9.47064,10.84304l-0.05195,-0.21407c0,0 2.06578,1.83511 0.75635,3.30915z" fill="url(#color-10)"/><path d="M189.9328,203.01021c-1.30943,1.47402 -3.37524,-0.3611 -3.37524,-0.3611l-1.23201,-1.26236c-1.56704,-2.37888 -2.99317,-4.61743 -5.14722,-6.66938c-0.24631,-0.23463 -5.93987,-5.1959 -6.1045,-5.57527c-0.11657,-0.26863 -0.20824,-0.53573 -0.28035,-0.80164l-0.1136,-0.00206l-0.82938,-2.60699c-0.22108,-0.68007 -0.15095,-1.35152 0.25692,-1.81066c0.31264,-0.35193 0.77254,-0.52153 1.28614,-0.51875c-0.96461,-1.68149 -1.51769,-3.68941 -1.44164,-3.9694c0.26326,-0.9692 3.38114,-0.66085 5.57925,-0.10846l-1.92857,-1.71322c-1.1409,-1.0135 -1.47953,-2.49506 -0.75635,-3.30915c0.66691,-0.75074 2.00392,-0.67168 3.10272,0.14002l1.64647,1.18729c0.95121,0.00137 1.72158,-0.55704 2.57127,-0.8078c-1.63444,-1.99926 -3.45703,-3.93032 -4.43704,-6.11207c-0.88458,-1.96925 -2.39186,-4.80312 -1.11975,-5.88277c1.30057,-1.10379 4.19128,0.78683 6.29648,1.48925c0.25733,0.08585 0.56805,0.21386 0.89108,0.37069c-0.33352,-0.55964 -0.59123,-1.12577 -0.67962,-1.68361c-0.02518,-0.15892 -0.04241,-0.31551 -0.05274,-0.47007l-0.06345,-0.01219l-0.35101,-2.55826c-0.0761,-0.52688 0.0354,-1.02167 0.35739,-1.38414c0.72318,-0.81408 2.23432,-0.65243 3.37522,0.36108l2.65513,2.35865c1.10045,0.98793 2.09326,2.88705 3.34198,2.91779c2.03759,0.05015 3.02587,-2.74174 5.14943,-1.87157c1.46128,0.5988 2.06108,2.56068 3.21663,3.7474c2.84983,2.9267 5.72398,4.95817 8.2428,7.75668c0.17992,0.8232 0.46769,1.65877 0.85823,2.48471c0.09713,0.44027 0.22508,0.884 0.38309,1.32786c-0.33544,0.41147 -0.16193,1.13414 0.39787,1.63143c0.05917,0.05257 0.12036,0.10057 0.18289,0.1439c-0.05878,0.02842 -0.12131,0.05526 -0.18785,0.08035c-1.95142,0.73582 -3.4259,-1.50002 -3.4259,-1.50002c-2.59688,-4.0401 -6.76681,-5.95017 -9.76516,-9.67902c-0.41621,-0.51762 -0.03213,-1.16072 -0.38164,-1.7088c-0.21923,-0.34373 0.19219,0.8387 -0.07299,0.99592c-1.07732,0.63872 -2.22151,1.44866 -3.71172,1.24796c-1.04327,-0.1405 -2.16514,-0.76608 -3.24795,-1.55667c0.33474,1.67609 0.08246,3.28809 -0.91094,3.83451c-0.34111,0.18764 -3.29337,-0.58145 -5.65118,-1.75123c0.51063,0.62546 0.99632,1.26665 1.46276,1.91307c1.17125,1.62324 2.14582,3.32671 3.21874,4.99007l0.01937,0.38186l0.13386,0.00244l0.82937,2.60699c0.22108,0.68007 0.15095,1.35152 -0.25692,1.81066c-0.67969,0.76513 -2.05541,0.66833 -3.16562,-0.18749l-1.01492,-0.7671c-0.13578,0.57018 -0.37081,1.23918 -0.72544,2.02195c-0.66405,1.46573 -2.79064,1.60077 -4.74268,1.64854c1.12937,0.94311 2.32809,1.99708 2.21293,2.99078c-0.14785,1.27595 -1.45347,1.73712 -2.66974,2.2612c3.97795,3.42649 6.68342,6.62114 9.47064,10.84304l-0.05195,-0.21407c0,0 2.0658,1.83513 0.75637,3.30916z" fill="url(#color-11)"/><path d="M192.24093,205.0606c-1.30943,1.47402 -3.37524,-0.3611 -3.37524,-0.3611l-1.23201,-1.26236c-1.56704,-2.37888 -2.99317,-4.61743 -5.14722,-6.66938c-0.24631,-0.23463 -5.93987,-5.1959 -6.1045,-5.57527c-0.11657,-0.26863 -0.20824,-0.53573 -0.28035,-0.80164l-0.1136,-0.00206l-0.82937,-2.60699c-0.22108,-0.68007 -0.15095,-1.35152 0.25692,-1.81066c0.31264,-0.35193 0.77255,-0.52152 1.28614,-0.51875c-0.96461,-1.68149 -1.51769,-3.68941 -1.44164,-3.9694c0.26326,-0.9692 3.38114,-0.66085 5.57925,-0.10846l-1.92857,-1.71322c-1.1409,-1.0135 -1.47955,-2.49508 -0.75637,-3.30916c0.66691,-0.75074 2.00392,-0.67168 3.10272,0.14002l1.64647,1.18729c0.95121,0.00137 1.72158,-0.55704 2.57127,-0.80781c-1.63444,-1.99926 -3.45703,-3.93032 -4.43704,-6.11207c-0.88458,-1.96925 -2.39186,-4.80312 -1.11975,-5.88277c1.30057,-1.10379 4.19128,0.78683 6.29647,1.48925c0.25733,0.08585 0.56807,0.21388 0.89108,0.37069c-0.33352,-0.55964 -0.59123,-1.12577 -0.67962,-1.68361c-0.02518,-0.15892 -0.04241,-0.31551 -0.05274,-0.47007l-0.06345,-0.01219l-0.35101,-2.55826c-0.0761,-0.52688 0.0354,-1.02167 0.35739,-1.38414c0.72318,-0.81408 2.23432,-0.65243 3.37522,0.36108l2.65514,2.35866c1.10045,0.98793 2.09325,2.88705 3.34196,2.91778c2.03759,0.05015 3.02587,-2.74174 5.14943,-1.87157c1.46128,0.5988 2.06108,2.56068 3.21663,3.7474c2.84983,2.9267 5.72398,4.95817 8.2428,7.75668c0.17992,0.8232 0.46767,1.65876 0.85823,2.48471c0.09713,0.44027 0.22508,0.884 0.38309,1.32786c-0.33544,0.41147 -0.16193,1.13414 0.39787,1.63143c0.05917,0.05257 0.12036,0.10057 0.18289,0.1439c-0.05878,0.02842 -0.12131,0.05526 -0.18785,0.08035c-1.95142,0.73582 -3.42589,-1.50002 -3.42589,-1.50002c-2.59688,-4.0401 -6.76682,-5.95018 -9.76516,-9.67902c-0.41621,-0.51762 -0.03211,-1.16071 -0.38163,-1.7088c-0.21923,-0.34373 0.19219,0.8387 -0.07299,0.99592c-1.07732,0.63872 -2.22151,1.44866 -3.71172,1.24796c-1.04327,-0.1405 -2.16514,-0.76608 -3.24795,-1.55667c0.33474,1.67609 0.08246,3.28809 -0.91094,3.83451c-0.34111,0.18764 -3.29337,-0.58146 -5.65119,-1.75123c0.51063,0.62546 0.99633,1.26665 1.46276,1.91307c1.17125,1.62324 2.14581,3.32671 3.21874,4.99007l0.01938,0.38186l0.13386,0.00244l0.82937,2.60699c0.22108,0.68007 0.15095,1.35152 -0.25692,1.81066c-0.67969,0.76513 -2.05541,0.66833 -3.16562,-0.18749l-1.01492,-0.7671c-0.13578,0.57018 -0.3708,1.23919 -0.72543,2.02196c-0.66405,1.46573 -2.79063,1.60077 -4.74267,1.64854c1.12937,0.94311 2.32808,1.99708 2.21295,2.9908c-0.14785,1.27595 -1.45347,1.73712 -2.66974,2.2612c3.97795,3.42649 6.68343,6.62115 9.47064,10.84304l-0.05195,-0.21407c0,0 2.0658,1.83513 0.75637,3.30916z" fill="url(#color-12)"/><path d="M194.54906,207.111c-1.30943,1.47402 -3.37522,-0.36108 -3.37522,-0.36108l-1.23201,-1.26236c-1.56704,-2.37888 -2.99317,-4.61743 -5.14722,-6.66938c-0.24631,-0.23463 -5.93985,-5.19589 -6.10449,-5.57526c-0.11657,-0.26863 -0.20824,-0.53573 -0.28035,-0.80164l-0.1136,-0.00206l-0.82938,-2.607c-0.22108,-0.68007 -0.15095,-1.35152 0.25692,-1.81066c0.31264,-0.35193 0.77255,-0.52152 1.28614,-0.51875c-0.96461,-1.68149 -1.51769,-3.68941 -1.44164,-3.9694c0.26326,-0.9692 3.38114,-0.66085 5.57925,-0.10846l-1.92857,-1.71322c-1.1409,-1.0135 -1.47953,-2.49506 -0.75635,-3.30915c0.66691,-0.75074 2.00393,-0.67168 3.10272,0.14002l1.64647,1.18729c0.95121,0.00137 1.72158,-0.55704 2.57127,-0.80781c-1.63444,-1.99926 -3.45703,-3.93032 -4.43704,-6.11207c-0.88458,-1.96925 -2.39185,-4.80311 -1.11974,-5.88276c1.30057,-1.10379 4.19128,0.78683 6.29647,1.48925c0.25733,0.08585 0.56805,0.21386 0.89108,0.37069c-0.33352,-0.55964 -0.59123,-1.12577 -0.67962,-1.68361c-0.02518,-0.15892 -0.04241,-0.31551 -0.05274,-0.47007l-0.06345,-0.01219l-0.35101,-2.55826c-0.0761,-0.52688 0.0354,-1.02167 0.35739,-1.38414c0.72318,-0.81408 2.23432,-0.65243 3.37524,0.3611l2.65513,2.35865c1.10045,0.98793 2.09325,2.88705 3.34196,2.91778c2.03759,0.05015 3.02587,-2.74175 5.14943,-1.87157c1.46128,0.5988 2.06108,2.56068 3.21663,3.7474c2.84983,2.9267 5.72398,4.95817 8.2428,7.75668c0.17992,0.8232 0.46769,1.65877 0.85823,2.48471c0.09713,0.44027 0.22508,0.884 0.38309,1.32786c-0.33544,0.41147 -0.16193,1.13414 0.39787,1.63143c0.05917,0.05257 0.12035,0.10056 0.18288,0.14389c-0.05878,0.02842 -0.12131,0.05526 -0.18785,0.08035c-1.95142,0.73582 -3.42589,-1.50002 -3.42589,-1.50002c-2.59688,-4.0401 -6.76682,-5.95018 -9.76516,-9.67902c-0.41621,-0.51762 -0.03211,-1.16071 -0.38164,-1.7088c-0.21923,-0.34373 0.19219,0.8387 -0.07299,0.99592c-1.07732,0.63872 -2.22151,1.44866 -3.71172,1.24796c-1.04327,-0.1405 -2.16514,-0.76608 -3.24795,-1.55667c0.33474,1.67609 0.08246,3.28809 -0.91094,3.83451c-0.34111,0.18764 -3.29337,-0.58145 -5.65118,-1.75123c0.51063,0.62546 0.99632,1.26665 1.46277,1.91308c1.17125,1.62324 2.14582,3.32671 3.21874,4.99007l0.01937,0.38186l0.13386,0.00244l0.82938,2.60699c0.22108,0.68007 0.15095,1.35152 -0.25692,1.81066c-0.67969,0.76513 -2.05541,0.66833 -3.16562,-0.18749l-1.01492,-0.7671c-0.13578,0.57018 -0.37081,1.23918 -0.72544,2.02195c-0.66405,1.46573 -2.79063,1.60077 -4.74267,1.64854c1.12937,0.94311 2.32808,1.99708 2.21295,2.9908c-0.14785,1.27595 -1.45347,1.73712 -2.66974,2.2612c3.97795,3.42649 6.68343,6.62115 9.47064,10.84304l-0.05195,-0.21407c0,0 2.06578,1.83511 0.75635,3.30915z" fill="url(#color-13)"/><path d="M196.8572,209.1614c-1.30943,1.47402 -3.37524,-0.3611 -3.37524,-0.3611l-1.23201,-1.26236c-1.56704,-2.37888 -2.99317,-4.61743 -5.14722,-6.66938c-0.24631,-0.23463 -5.93987,-5.1959 -6.1045,-5.57527c-0.11657,-0.26863 -0.20824,-0.53573 -0.28035,-0.80164l-0.1136,-0.00206l-0.82937,-2.60699c-0.22108,-0.68007 -0.15095,-1.35152 0.25692,-1.81066c0.31264,-0.35193 0.77254,-0.52153 1.28614,-0.51875c-0.96461,-1.68149 -1.51769,-3.68941 -1.44164,-3.9694c0.26326,-0.9692 3.38114,-0.66085 5.57925,-0.10846l-1.92857,-1.71322c-1.1409,-1.0135 -1.47953,-2.49506 -0.75635,-3.30915c0.66691,-0.75074 2.00392,-0.67168 3.10272,0.14002l1.64647,1.18729c0.95121,0.00137 1.72158,-0.55704 2.57127,-0.80781c-1.63444,-1.99926 -3.45703,-3.93032 -4.43704,-6.11207c-0.88458,-1.96925 -2.39186,-4.80312 -1.11975,-5.88277c1.30057,-1.10379 4.19128,0.78683 6.29647,1.48925c0.25733,0.08585 0.56805,0.21386 0.89108,0.37069c-0.33352,-0.55964 -0.59123,-1.12577 -0.67962,-1.68361c-0.02518,-0.15892 -0.04241,-0.31551 -0.05274,-0.47007l-0.06345,-0.01219l-0.35101,-2.55826c-0.0761,-0.52688 0.0354,-1.02167 0.35739,-1.38414c0.72318,-0.81408 2.23432,-0.65243 3.37522,0.36108l2.65513,2.35865c1.10045,0.98793 2.09326,2.88705 3.34198,2.91779c2.03759,0.05015 3.02587,-2.74174 5.14943,-1.87157c1.46128,0.5988 2.06108,2.56068 3.21663,3.7474c2.84983,2.9267 5.72399,4.95817 8.2428,7.75669c0.17992,0.8232 0.46769,1.65877 0.85823,2.4847c0.09713,0.44027 0.22508,0.884 0.38309,1.32786c-0.33544,0.41147 -0.16193,1.13414 0.39787,1.63143c0.05917,0.05257 0.12036,0.10057 0.18289,0.1439c-0.05878,0.02842 -0.12131,0.05526 -0.18785,0.08035c-1.95142,0.73582 -3.4259,-1.50002 -3.4259,-1.50002c-2.59688,-4.0401 -6.76681,-5.95017 -9.76516,-9.67902c-0.41621,-0.51762 -0.03212,-1.16072 -0.38163,-1.7088c-0.21923,-0.34373 0.19219,0.8387 -0.07299,0.99592c-1.07732,0.63872 -2.22151,1.44866 -3.71172,1.24796c-1.04327,-0.1405 -2.16514,-0.76608 -3.24795,-1.55667c0.33474,1.67609 0.08246,3.28809 -0.91094,3.83451c-0.34111,0.18764 -3.29337,-0.58146 -5.65119,-1.75123c0.51063,0.62546 0.99633,1.26665 1.46276,1.91307c1.17125,1.62324 2.14581,3.32671 3.21874,4.99007l0.01937,0.38186l0.13386,0.00244l0.82938,2.60699c0.22108,0.68007 0.15095,1.35152 -0.25692,1.81066c-0.67969,0.76513 -2.05541,0.66833 -3.16562,-0.18749l-1.01492,-0.7671c-0.13578,0.57018 -0.37081,1.23918 -0.72544,2.02195c-0.66405,1.46573 -2.79063,1.60077 -4.74267,1.64854c1.12937,0.94311 2.32808,1.99708 2.21293,2.99078c-0.14785,1.27595 -1.45347,1.73712 -2.66974,2.2612c3.97795,3.42649 6.68342,6.62114 9.47064,10.84304l-0.05195,-0.21407c0,0 2.0658,1.83513 0.75637,3.30916z" fill="url(#color-14)"/></g><g stroke="none" stroke-width="0.5" stroke-linecap="butt"><path d="M251.49005,145.56528c1.65338,-1.96674 5.68248,-5.49502 10.65514,-0.91834c2.43904,2.24481 3.28911,4.7682 3.39524,7.05166c1.56935,0.17076 3.2079,0.80087 4.5729,1.51749c-0.42105,-2.79217 -0.57223,-8.82443 5.25812,-11.37969c7.71262,-3.38024 10.46717,6.08441 10.46717,6.08441c0.79837,5.89208 4.87032,12.5333 2.39505,17.67626c-7.18769,14.93379 -15.53558,6.48458 -24.03966,6.13842c-2.20413,-0.0897 -15.90579,2.56766 -18.27938,2.7607c-9.00205,0.73212 -18.30267,0.02194 -27.32477,0.01773l-0.23492,-0.12665l-0.00544,0.11362l-9.54359,-0.68892c-4.3259,-0.2709 -7.7655,-4.66093 -7.7655,-10.03688c0,-4.52097 2.43255,-8.34468 5.77909,-9.60769l9.98581,-4.08474l0.07354,0.27075c0.31897,-0.20879 0.64142,-0.41074 0.96754,-0.60513c3.12488,-1.8629 6.94072,-0.44172 10.40021,-0.83226c8.03084,-0.90664 15.35383,-2.79495 23.24349,-3.3507z" fill="#ff4200"/><path d="M195.85823,165.02986c-5.23388,0 -5.23391,-6.4228 -5.23391,-6.4228l0.33326,-4.0897c1.95847,-6.39552 3.88683,-12.32953 4.16154,-19.24046c0.03142,-0.79023 -0.16016,-18.34325 0.3025,-19.21499c0.32762,-0.61726 0.6961,-1.18889 1.09667,-1.7247l-0.19619,-0.20059l3.71166,-5.46576c0.95991,-1.43403 2.41611,-2.3487 4.0464,-2.3487c1.24963,0 2.39701,0.53743 3.29697,1.43421c1.63648,-4.27205 4.64635,-8.33286 5.33609,-8.63293c2.38761,-1.03871 7.27247,4.85549 10.05145,9.52807v-5.99617c0,-3.54721 2.34332,-6.4228 5.23391,-6.4228c2.66567,0 4.86593,2.44549 5.19221,5.60798l0.54642,4.69406c1.67425,1.65512 4.14064,2.13179 6.13632,3.22127c1.08622,-5.92661 1.7054,-12.07484 4.30755,-17.14596c2.34869,-4.5772 5.31545,-11.57125 9.70087,-11.0273c4.4835,0.55614 5.82767,8.49816 8.14511,13.24088c0.2833,0.57971 0.57705,1.31728 0.83529,2.12074c0.52267,-1.44353 1.19187,-2.76532 2.14313,-3.78008c0.27102,-0.28909 0.5514,-0.56076 0.83991,-0.81732l-0.08766,-0.12908l4.45831,-4.55924c0.91149,-0.94559 2.09003,-1.51567 3.37706,-1.51567c2.89059,0 5.23391,2.87559 5.23391,6.42286v8.25515c-0.02057,3.43743 -2.03925,8.09443 0.10123,10.31185c3.49274,3.61829 10.77589,1.02577 12.79276,6.0594c1.38784,3.46377 -1.44828,7.5347 -1.7662,11.37476c-0.78409,9.47041 0.25136,17.6011 -0.86192,26.29841c-1.31652,1.58345 -2.46748,3.37343 -3.41811,5.32713c-0.70252,0.84844 -1.35757,1.75579 -1.95991,2.71558c-1.40798,0.05229 -2.5363,1.4694 -2.5363,3.20991c0,0.18399 0.01261,0.36439 0.03685,0.53993c-0.16003,-0.05825 -0.32353,-0.1255 -0.49063,-0.2024c-4.90065,-2.25522 -3.0629,-8.26909 -3.0629,-8.26909c3.4397,-10.74963 -0.12111,-20.9447 1.99309,-31.91148c0.29349,-1.52236 2.24694,-1.84761 2.71848,-3.30113c0.29568,-0.9116 -1.32566,1.62872 -2.10519,1.4106c-3.16691,-0.88613 -6.79154,-1.62416 -9.02046,-4.52364c-1.56044,-2.02987 -2.29677,-4.94516 -2.63674,-8.0473c-2.73623,3.16914 -6.38018,5.21924 -9.21597,4.33644c-0.97376,-0.30311 -4.65224,-6.62081 -6.48753,-12.52399c-0.34105,1.85289 -0.75729,3.68676 -1.21785,5.49525c-1.15659,4.54122 -2.81914,8.86451 -4.2287,13.29679l-0.72368,0.62315l0.23115,0.2364l-3.71166,5.4658c-0.95991,1.43403 -2.41611,2.3487 -4.0464,2.3487c-2.71677,0 -4.95005,-2.54012 -5.20888,-5.79059l-0.26692,-2.9479c-1.37097,0.64426 -3.11303,1.26859 -5.29173,1.86069c-4.07961,1.10872 -8.09679,-2.37834 -11.63303,-5.69682c0.11937,3.41851 0.14099,7.12865 -2.03414,8.4626c-2.7929,1.71279 -6.00997,0.15584 -9.19435,-1.14873c0.21287,12.20237 -1.3575,21.83559 -4.82246,33.19662l0.33326,-0.42075c0,0 0,6.4228 -5.23391,6.4228z" fill="url(#color-15)"/><path d="M195.85823,172.20615c-5.23388,0 -5.23391,-6.42286 -5.23391,-6.42286l0.33326,-4.0897c1.95847,-6.39552 3.88683,-12.32953 4.16154,-19.24046c0.03142,-0.79023 -0.16016,-18.34325 0.3025,-19.21499c0.32762,-0.61726 0.6961,-1.18889 1.09667,-1.7247l-0.19619,-0.20059l3.71166,-5.46576c0.95991,-1.43403 2.41611,-2.3487 4.0464,-2.3487c1.24963,0 2.39701,0.53743 3.29697,1.43421c1.63648,-4.27205 4.64635,-8.33286 5.33609,-8.63293c2.38761,-1.03871 7.27247,4.85549 10.05145,9.52807v-5.99617c0,-3.54721 2.34332,-6.4228 5.23391,-6.4228c2.66567,0 4.86593,2.44549 5.19221,5.60798l0.54642,4.69406c1.67425,1.65512 4.14064,2.13179 6.13632,3.22127c1.08622,-5.92661 1.7054,-12.0749 4.30755,-17.14599c2.34869,-4.5772 5.31545,-11.57125 9.70087,-11.0273c4.4835,0.55614 5.82767,8.49816 8.14511,13.24088c0.2833,0.57971 0.57705,1.31728 0.83529,2.12074c0.52267,-1.44353 1.19187,-2.76532 2.14313,-3.78008c0.27102,-0.28909 0.5514,-0.56076 0.83991,-0.81732l-0.08766,-0.12908l4.45831,-4.55924c0.91149,-0.94559 2.09003,-1.51567 3.37706,-1.51567c2.89059,0 5.23391,2.87559 5.23391,6.4228v8.25515c-0.02057,3.43743 -2.03925,8.09446 0.10123,10.3119c3.49274,3.61829 10.77589,1.02577 12.79276,6.05937c1.38784,3.46377 -1.44828,7.5347 -1.7662,11.37476c-0.78409,9.47041 0.25136,17.6011 -0.86192,26.29841c-1.31652,1.58345 -2.46748,3.37343 -3.41811,5.32713c-0.70252,0.84844 -1.35757,1.75579 -1.95991,2.71558c-1.40798,0.05229 -2.5363,1.4694 -2.5363,3.20991c0,0.18399 0.01261,0.36441 0.03685,0.53996c-0.16003,-0.05825 -0.32353,-0.1255 -0.49063,-0.2024c-4.90065,-2.25522 -3.0629,-8.26906 -3.0629,-8.26906c3.4397,-10.74963 -0.12111,-20.9447 1.99309,-31.91148c0.29349,-1.52236 2.24694,-1.84767 2.71848,-3.30113c0.29568,-0.9116 -1.32566,1.62872 -2.10519,1.4106c-3.16691,-0.88613 -6.79154,-1.62416 -9.02046,-4.52364c-1.56044,-2.02987 -2.29677,-4.94516 -2.63674,-8.0473c-2.73623,3.16914 -6.38018,5.21921 -9.21597,4.33644c-0.97376,-0.30311 -4.65224,-6.62076 -6.48753,-12.52392c-0.34105,1.85289 -0.75729,3.68676 -1.21785,5.49522c-1.15659,4.54122 -2.81914,8.86451 -4.2287,13.29679l-0.72368,0.62315l0.23115,0.2364l-3.71166,5.46576c-0.95991,1.43403 -2.41611,2.3487 -4.0464,2.3487c-2.71677,0 -4.95005,-2.54012 -5.20888,-5.79059l-0.26692,-2.9479c-1.37097,0.64426 -3.11303,1.26859 -5.29173,1.86069c-4.07961,1.10872 -8.09679,-2.37834 -11.63303,-5.69682c0.11937,3.41851 0.14099,7.12865 -2.03414,8.4626c-2.7929,1.71279 -6.00997,0.15584 -9.19435,-1.14873c0.21287,12.20237 -1.3575,21.83557 -4.82246,33.19662l0.33326,-0.42075c0,0 0,6.42286 -5.23391,6.42286z" fill="url(#color-16)"/><path d="M195.85823,177.94714c-5.23388,0 -5.23391,-6.4228 -5.23391,-6.4228l0.33326,-4.0897c1.95847,-6.39552 3.88683,-12.32953 4.16154,-19.24046c0.03142,-0.79023 -0.16016,-18.34321 0.3025,-19.21497c0.32762,-0.61726 0.6961,-1.18889 1.09667,-1.7247l-0.19619,-0.20059l3.71166,-5.4658c0.95991,-1.43403 2.41611,-2.3487 4.0464,-2.3487c1.24963,0 2.39701,0.53743 3.29697,1.43421c1.63648,-4.27205 4.64635,-8.33286 5.33609,-8.63293c2.38761,-1.03871 7.27247,4.85549 10.05145,9.52807v-5.99617c0,-3.54721 2.34332,-6.4228 5.23391,-6.4228c2.66567,0 4.86593,2.44549 5.19221,5.60798l0.54642,4.69406c1.67425,1.65512 4.14064,2.13179 6.13632,3.22127c1.08622,-5.92661 1.7054,-12.0749 4.30755,-17.14599c2.34869,-4.5772 5.31545,-11.57123 9.70087,-11.02727c4.4835,0.55614 5.82767,8.49816 8.14511,13.24088c0.2833,0.57971 0.57705,1.31735 0.83529,2.12074c0.52267,-1.44353 1.19187,-2.76532 2.14313,-3.78008c0.27102,-0.28909 0.5514,-0.56076 0.83991,-0.81732l-0.08766,-0.12908l4.45831,-4.55924c0.91149,-0.94559 2.09003,-1.51567 3.37706,-1.51567c2.89059,0 5.23391,2.87559 5.23391,6.42286v8.25515c-0.02057,3.43743 -2.03925,8.09443 0.10123,10.31185c3.49274,3.61829 10.77589,1.02577 12.79276,6.05937c1.38784,3.46377 -1.44828,7.5347 -1.7662,11.37476c-0.78409,9.47041 0.25136,17.6011 -0.86192,26.29841c-1.31652,1.58345 -2.46748,3.37343 -3.41811,5.32713c-0.70252,0.84844 -1.35757,1.75579 -1.95991,2.71558c-1.40798,0.05229 -2.5363,1.4694 -2.5363,3.20991c0,0.18399 0.01261,0.36439 0.03685,0.53993c-0.16003,-0.05825 -0.32353,-0.1255 -0.49063,-0.2024c-4.90065,-2.25522 -3.0629,-8.26906 -3.0629,-8.26906c3.4397,-10.74963 -0.12111,-20.9447 1.99309,-31.91148c0.29349,-1.52236 2.24694,-1.84761 2.71848,-3.30113c0.29568,-0.9116 -1.32566,1.62872 -2.10519,1.4106c-3.16691,-0.88613 -6.79154,-1.62416 -9.02046,-4.52364c-1.56044,-2.02987 -2.29677,-4.94516 -2.63674,-8.0473c-2.73623,3.16914 -6.38018,5.21921 -9.21597,4.33644c-0.97376,-0.30311 -4.65224,-6.62076 -6.48753,-12.52392c-0.34105,1.85289 -0.75729,3.68676 -1.21785,5.49525c-1.15659,4.54122 -2.81914,8.86451 -4.2287,13.29679l-0.72368,0.62315l0.23115,0.2364l-3.71166,5.46576c-0.95991,1.43403 -2.41611,2.3487 -4.0464,2.3487c-2.71677,0 -4.95005,-2.54012 -5.20888,-5.79059l-0.26692,-2.9479c-1.37097,0.64426 -3.11303,1.26859 -5.29173,1.86069c-4.07961,1.10872 -8.09679,-2.37834 -11.63303,-5.69682c0.11937,3.41851 0.14099,7.12865 -2.03414,8.4626c-2.7929,1.71279 -6.00997,0.15584 -9.19435,-1.14873c0.21287,12.20237 -1.3575,21.83559 -4.82246,33.19662l0.33326,-0.42075c0,0 0,6.4228 -5.23391,6.4228z" fill="url(#color-17)"/><path d="M195.85823,185.12343c-5.23388,0 -5.23391,-6.42286 -5.23391,-6.42286l0.33326,-4.0897c1.95847,-6.39552 3.88683,-12.32953 4.16154,-19.24046c0.03142,-0.79023 -0.16016,-18.34325 0.3025,-19.21499c0.32762,-0.61726 0.6961,-1.18889 1.09667,-1.7247l-0.19619,-0.20059l3.71166,-5.46576c0.95991,-1.43403 2.41611,-2.3487 4.0464,-2.3487c1.24963,0 2.39701,0.5374 3.29697,1.43421c1.63648,-4.27205 4.64635,-8.33286 5.33609,-8.63293c2.38761,-1.03871 7.27247,4.85549 10.05145,9.52807v-5.99617c0,-3.54721 2.34332,-6.4228 5.23391,-6.4228c2.66567,0 4.86593,2.44549 5.19221,5.60798l0.54642,4.69406c1.67425,1.65512 4.14064,2.13179 6.13632,3.22127c1.08622,-5.92661 1.7054,-12.0749 4.30755,-17.14599c2.34869,-4.5772 5.31545,-11.57125 9.70087,-11.0273c4.4835,0.55614 5.82767,8.49816 8.14511,13.24088c0.2833,0.57971 0.57705,1.31728 0.83529,2.12074c0.52267,-1.44353 1.19187,-2.76532 2.14313,-3.78008c0.27102,-0.28909 0.5514,-0.56076 0.83991,-0.81732l-0.08766,-0.12908l4.45831,-4.55924c0.91149,-0.94559 2.09003,-1.51567 3.37706,-1.51567c2.89059,0 5.23391,2.87559 5.23391,6.4228v8.25515c-0.02057,3.43743 -2.03925,8.09446 0.10123,10.3119c3.49274,3.61829 10.77589,1.02577 12.79276,6.05937c1.38784,3.46377 -1.44828,7.5347 -1.7662,11.37476c-0.78409,9.47041 0.25136,17.6011 -0.86192,26.29841c-1.31652,1.58345 -2.46748,3.37343 -3.41811,5.32713c-0.70252,0.84844 -1.35757,1.75579 -1.95991,2.71558c-1.40798,0.05229 -2.5363,1.4694 -2.5363,3.20991c0,0.18399 0.01261,0.36441 0.03685,0.53996c-0.16003,-0.05825 -0.32353,-0.1255 -0.49063,-0.2024c-4.90065,-2.25522 -3.0629,-8.26909 -3.0629,-8.26909c3.4397,-10.74963 -0.12111,-20.94468 1.99309,-31.91148c0.29349,-1.52236 2.24694,-1.84767 2.71848,-3.30113c0.29568,-0.9116 -1.32566,1.62872 -2.10519,1.4106c-3.16691,-0.88613 -6.79154,-1.62416 -9.02046,-4.52364c-1.56044,-2.02987 -2.29677,-4.94516 -2.63674,-8.0473c-2.73623,3.16914 -6.38018,5.21921 -9.21597,4.33644c-0.97376,-0.30311 -4.65224,-6.62076 -6.48753,-12.52392c-0.34105,1.85289 -0.75729,3.68676 -1.21785,5.49522c-1.15659,4.54122 -2.81914,8.86451 -4.2287,13.29679l-0.72368,0.62315l0.23115,0.2364l-3.71166,5.46576c-0.95991,1.43403 -2.41611,2.3487 -4.0464,2.3487c-2.71677,0 -4.95005,-2.54012 -5.20888,-5.79059l-0.26692,-2.9479c-1.37097,0.64426 -3.11303,1.26859 -5.29173,1.86069c-4.07961,1.10872 -8.09679,-2.37834 -11.63303,-5.69682c0.11937,3.41851 0.14099,7.12865 -2.03414,8.46254c-2.7929,1.71279 -6.00997,0.15584 -9.19435,-1.14873c0.21287,12.20237 -1.3575,21.83557 -4.82246,33.19662l0.33326,-0.42075c0,0 0,6.42286 -5.23391,6.42286z" fill="url(#color-18)"/><path d="M195.85823,192.29969c-5.23388,0 -5.23391,-6.42286 -5.23391,-6.42286l0.33326,-4.0897c1.95847,-6.39552 3.88683,-12.32953 4.16154,-19.24046c0.03142,-0.79023 -0.16016,-18.34325 0.3025,-19.21499c0.32762,-0.61726 0.6961,-1.18889 1.09667,-1.7247l-0.19619,-0.20059l3.71166,-5.46576c0.95991,-1.43403 2.41611,-2.3487 4.0464,-2.3487c1.24963,0 2.39701,0.53743 3.29697,1.43421c1.63648,-4.27205 4.64635,-8.33286 5.33609,-8.63293c2.38761,-1.03871 7.27247,4.85549 10.05145,9.52807v-5.99617c0,-3.54721 2.34332,-6.42286 5.23391,-6.42286c2.66567,0 4.86593,2.44549 5.19221,5.60798l0.54642,4.69406c1.67425,1.65512 4.14064,2.13179 6.13632,3.22127c1.08622,-5.92661 1.7054,-12.0749 4.30755,-17.14599c2.34869,-4.5772 5.31545,-11.57125 9.70087,-11.0273c4.4835,0.55614 5.82767,8.49816 8.14511,13.24088c0.2833,0.57971 0.57705,1.31735 0.83529,2.12074c0.52267,-1.44353 1.19187,-2.76532 2.14313,-3.78008c0.27102,-0.28909 0.5514,-0.56076 0.83991,-0.81732l-0.08766,-0.12908l4.45831,-4.55924c0.91149,-0.94559 2.09003,-1.51567 3.37706,-1.51567c2.89059,0 5.23391,2.87559 5.23391,6.4228v8.25518c-0.02057,3.43743 -2.03925,8.09443 0.10123,10.31185c3.49274,3.61829 10.77589,1.02577 12.79276,6.05937c1.38784,3.46377 -1.44828,7.5347 -1.7662,11.37476c-0.78409,9.47041 0.25136,17.6011 -0.86192,26.29841c-1.31652,1.58345 -2.46748,3.37339 -3.41811,5.32713c-0.70252,0.84844 -1.35757,1.75579 -1.95991,2.71558c-1.40798,0.05229 -2.5363,1.4694 -2.5363,3.20991c0,0.18399 0.01261,0.36441 0.03685,0.53996c-0.16003,-0.05825 -0.32353,-0.1255 -0.49063,-0.2024c-4.90065,-2.25522 -3.0629,-8.26906 -3.0629,-8.26906c3.4397,-10.74963 -0.12111,-20.9447 1.99309,-31.91148c0.29349,-1.52236 2.24694,-1.84761 2.71848,-3.30113c0.29568,-0.9116 -1.32566,1.62872 -2.10519,1.4106c-3.16691,-0.88613 -6.79154,-1.62416 -9.02046,-4.52364c-1.56044,-2.02987 -2.29677,-4.94516 -2.63674,-8.0473c-2.73623,3.16914 -6.38018,5.21921 -9.21597,4.33644c-0.97376,-0.30311 -4.65224,-6.62076 -6.48753,-12.52392c-0.34105,1.85289 -0.75729,3.68676 -1.21785,5.49522c-1.15659,4.54122 -2.81914,8.86451 -4.2287,13.29679l-0.72368,0.62318l0.23115,0.2364l-3.71166,5.46576c-0.95991,1.43403 -2.41611,2.3487 -4.0464,2.3487c-2.71677,0 -4.95005,-2.54012 -5.20888,-5.79059l-0.26692,-2.9479c-1.37097,0.64426 -3.11303,1.26861 -5.29173,1.86072c-4.07961,1.10872 -8.09679,-2.37834 -11.63303,-5.69682c0.11937,3.41851 0.14099,7.12865 -2.03414,8.4626c-2.7929,1.71279 -6.00997,0.15584 -9.19435,-1.14873c0.21287,12.20237 -1.3575,21.83559 -4.82246,33.19662l0.33326,-0.42075c0,0 0,6.42286 -5.23391,6.42286z" fill="url(#color-19)"/><path d="M195.85823,199.47598c-5.23388,0 -5.23391,-6.4228 -5.23391,-6.4228l0.33326,-4.0897c1.95847,-6.39552 3.88683,-12.32953 4.16154,-19.24046c0.03142,-0.79023 -0.16016,-18.34321 0.3025,-19.21497c0.32762,-0.61726 0.6961,-1.18889 1.09667,-1.7247l-0.19619,-0.20059l3.71166,-5.4658c0.95991,-1.43403 2.41611,-2.3487 4.0464,-2.3487c1.24963,0 2.39701,0.53743 3.29697,1.43421c1.63648,-4.27205 4.64635,-8.33286 5.33609,-8.63293c2.38761,-1.03871 7.27247,4.85549 10.05145,9.52807v-5.99617c0,-3.54721 2.34332,-6.4228 5.23391,-6.4228c2.66567,0 4.86593,2.44549 5.19221,5.60798l0.54642,4.69406c1.67425,1.65512 4.14064,2.13179 6.13632,3.22127c1.08622,-5.92661 1.7054,-12.0749 4.30755,-17.14599c2.34869,-4.5772 5.31545,-11.57123 9.70087,-11.02727c4.4835,0.55614 5.82767,8.49816 8.14511,13.24088c0.2833,0.57971 0.57705,1.31728 0.83529,2.12074c0.52267,-1.44353 1.19187,-2.76532 2.14313,-3.78008c0.27102,-0.28909 0.5514,-0.56076 0.83991,-0.81732l-0.08766,-0.12908l4.45831,-4.55924c0.91149,-0.94559 2.09003,-1.51567 3.37706,-1.51567c2.89059,0 5.23391,2.87559 5.23391,6.42286v8.25515c-0.02057,3.43743 -2.03925,8.09443 0.10123,10.31185c3.49274,3.61829 10.77589,1.02577 12.79276,6.05937c1.38784,3.46377 -1.44828,7.5347 -1.7662,11.37476c-0.78409,9.47041 0.25136,17.6011 -0.86192,26.29841c-1.31652,1.58345 -2.46748,3.37343 -3.41811,5.32713c-0.70252,0.84844 -1.35757,1.75579 -1.95991,2.71558c-1.40798,0.05229 -2.5363,1.4694 -2.5363,3.20991c0,0.18399 0.01261,0.36439 0.03685,0.53993c-0.16003,-0.05825 -0.32353,-0.1255 -0.49063,-0.2024c-4.90065,-2.25522 -3.0629,-8.26906 -3.0629,-8.26906c3.4397,-10.74963 -0.12111,-20.9447 1.99309,-31.91148c0.29349,-1.52236 2.24694,-1.84761 2.71848,-3.30113c0.29568,-0.9116 -1.32566,1.62872 -2.10519,1.4106c-3.16691,-0.88613 -6.79154,-1.62416 -9.02046,-4.52364c-1.56044,-2.02987 -2.29677,-4.94516 -2.63674,-8.0473c-2.73623,3.16914 -6.38018,5.21921 -9.21597,4.33644c-0.97376,-0.30311 -4.65224,-6.62076 -6.48753,-12.52392c-0.34105,1.85289 -0.75729,3.68676 -1.21785,5.49525c-1.15659,4.54122 -2.81914,8.86451 -4.2287,13.29679l-0.72368,0.62315l0.23115,0.2364l-3.71166,5.46576c-0.95991,1.43403 -2.41611,2.3487 -4.0464,2.3487c-2.71677,0 -4.95005,-2.54012 -5.20888,-5.79059l-0.26692,-2.9479c-1.37097,0.64426 -3.11303,1.26859 -5.29173,1.86069c-4.07961,1.10872 -8.09679,-2.37834 -11.63303,-5.69682c0.11937,3.41851 0.14099,7.12865 -2.03414,8.4626c-2.7929,1.71279 -6.00997,0.15584 -9.19435,-1.14873c0.21287,12.20237 -1.3575,21.83559 -4.82246,33.19662l0.33326,-0.42075c0,0 0,6.4228 -5.23391,6.4228z" fill="url(#color-20)"/><path d="M195.85823,206.65227c-5.23388,0 -5.23391,-6.42286 -5.23391,-6.42286l0.33326,-4.0897c1.95847,-6.39552 3.88683,-12.32953 4.16154,-19.24046c0.03142,-0.79023 -0.16016,-18.34325 0.3025,-19.21499c0.32762,-0.61726 0.6961,-1.18889 1.09667,-1.7247l-0.19619,-0.20059l3.71166,-5.46576c0.95991,-1.43403 2.41611,-2.3487 4.0464,-2.3487c1.24963,0 2.39701,0.5374 3.29697,1.43421c1.63648,-4.27205 4.64635,-8.33286 5.33609,-8.63293c2.38761,-1.03871 7.27247,4.85549 10.05145,9.52807v-5.99617c0,-3.54721 2.34332,-6.4228 5.23391,-6.4228c2.66567,0 4.86593,2.44549 5.19221,5.60798l0.54642,4.69406c1.67425,1.65512 4.14064,2.13179 6.13632,3.22127c1.08622,-5.92661 1.7054,-12.0749 4.30755,-17.14599c2.34869,-4.5772 5.31545,-11.57125 9.70087,-11.0273c4.4835,0.55614 5.82767,8.49816 8.14511,13.24088c0.2833,0.57971 0.57705,1.31728 0.83529,2.12074c0.52267,-1.44353 1.19187,-2.76532 2.14313,-3.78008c0.27102,-0.28909 0.5514,-0.56076 0.83991,-0.81732l-0.08766,-0.12908l4.45831,-4.55924c0.91149,-0.94559 2.09003,-1.51567 3.37706,-1.51567c2.89059,0 5.23391,2.87559 5.23391,6.4228v8.25515c-0.02057,3.43743 -2.03925,8.09446 0.10123,10.3119c3.49274,3.61829 10.77589,1.02577 12.79276,6.05937c1.38784,3.46377 -1.44828,7.5347 -1.7662,11.37476c-0.78409,9.47041 0.25136,17.6011 -0.86192,26.29841c-1.31652,1.58345 -2.46748,3.37343 -3.41811,5.32713c-0.70252,0.84844 -1.35757,1.75579 -1.95991,2.71558c-1.40798,0.05229 -2.5363,1.4694 -2.5363,3.20991c0,0.18399 0.01261,0.36441 0.03685,0.53996c-0.16003,-0.05825 -0.32353,-0.1255 -0.49063,-0.2024c-4.90065,-2.25522 -3.0629,-8.26909 -3.0629,-8.26909c3.4397,-10.74963 -0.12111,-20.94468 1.99309,-31.91148c0.29349,-1.52236 2.24694,-1.84767 2.71848,-3.30113c0.29568,-0.9116 -1.32566,1.62872 -2.10519,1.4106c-3.16691,-0.88613 -6.79154,-1.62416 -9.02046,-4.52364c-1.56044,-2.02987 -2.29677,-4.94516 -2.63674,-8.0473c-2.73623,3.16914 -6.38018,5.21921 -9.21597,4.33644c-0.97376,-0.30311 -4.65224,-6.62076 -6.48753,-12.52392c-0.34105,1.85289 -0.75729,3.68676 -1.21785,5.49522c-1.15659,4.54122 -2.81914,8.86451 -4.2287,13.29679l-0.72368,0.62315l0.23115,0.2364l-3.71166,5.46576c-0.95991,1.43403 -2.41611,2.3487 -4.0464,2.3487c-2.71677,0 -4.95005,-2.54012 -5.20888,-5.79059l-0.26692,-2.9479c-1.37097,0.64426 -3.11303,1.26859 -5.29173,1.86069c-4.07961,1.10872 -8.09679,-2.37834 -11.63303,-5.69682c0.11937,3.41851 0.14099,7.12865 -2.03414,8.46254c-2.7929,1.71279 -6.00997,0.15584 -9.19435,-1.14873c0.21287,12.20237 -1.3575,21.83557 -4.82246,33.19662l0.33326,-0.42075c0,0 0,6.42286 -5.23391,6.42286z" fill="url(#color-21)"/></g><path d="M250.11691,234.50001v-21.33333" fill="none" stroke="#212121" stroke-width="8.5" stroke-linecap="round"/><path d="M277.1169,234.50001v-21.33333" fill="none" stroke="#212121" stroke-width="8.5" stroke-linecap="round"/><path d="M185.50001,180.00001c0,-30.09952 24.40048,-54.5 54.5,-54.5c30.09952,0 54.5,24.40048 54.5,54.5c0,30.09952 -24.40048,54.5 -54.5,54.5c-30.09952,0 -54.5,-24.40048 -54.5,-54.5z" fill="url(#color-22)" stroke="none" stroke-width="0" stroke-linecap="butt"/><path d="M221.11692,213.16668v21.33333" fill="none" stroke="#212121" stroke-width="8.5" stroke-linecap="round"/><path d="M199.61692,171.39132c0,0 7.18992,-16.05914 16.05915,-16.05914c8.86922,0 16.05915,16.05915 16.05915,16.05915z" fill="#ffffff" stroke="#000000" stroke-width="2.5" stroke-linecap="butt"/><path d="M247.11692,171.39132c0,0 7.18992,-16.05914 16.05914,-16.05914c8.86922,0 16.05915,16.05915 16.05915,16.05915z" fill="#ffffff" stroke="#000000" stroke-width="2.5" stroke-linecap="butt"/><path d="M256.17606,245.16667v-21.33333" fill="none" stroke="#212121" stroke-width="8.5" stroke-linecap="round"/><path d="M275.69601,185.74972l-0.33334,4.66666" fill="none" stroke="#ff8800" stroke-width="0.5" stroke-linecap="round"/><path d="M262.36267,194.08305v8.33333" fill="none" stroke="#ff8800" stroke-width="0.5" stroke-linecap="round"/><path d="M244.69602,213.08304l-1.33334,-12.33333" fill="none" stroke="#ff8800" stroke-width="0.5" stroke-linecap="round"/><path d="M240.36268,211.74971l-3,-6" fill="none" stroke="#ff8800" stroke-width="0.5" stroke-linecap="round"/><path d="M218.36268,197.08305l-3.66666,8" fill="none" stroke="#ff8800" stroke-width="0.5" stroke-linecap="round"/><path d="M208.69602,207.74973l-3.33334,-2.66667l-0.33334,-6.66667" fill="none" stroke="#ff8800" stroke-width="0.5" stroke-linecap="round"/><path d="M205.36268,195.41637l-2,-2.66666" fill="none" stroke="#ff8800" stroke-width="0.5" stroke-linecap="round"/><path d="M218.36268,189.41639l-0.33334,2.66667" fill="none" stroke="#ff8800" stroke-width="0.5" stroke-linecap="round"/><path d="M240.02934,193.74973l-0.66666,-10.33334" fill="none" stroke="#ff8800" stroke-width="0.5" stroke-linecap="round"/><path d="M249.36268,198.41639l-1.66666,5.33334" fill="none" stroke="#ff8800" stroke-width="0.5" stroke-linecap="round"/><path d="M251.69601,217.74972l-0.66667,-7.66667" fill="none" stroke="#ff8800" stroke-width="0.5" stroke-linecap="round"/><path d="M257.02934,211.74971v3.33333" fill="none" stroke="#ff8800" stroke-width="0.5" stroke-linecap="round"/><path d="M265.69601,217.08305l-2,-7" fill="none" stroke="#ff8800" stroke-width="0.5" stroke-linecap="round"/><path d="M279.02934,196.41639l0.66667,7.66667" fill="none" stroke="#ff8800" stroke-width="0.5" stroke-linecap="round"/><path d="M274.02934,196.08305v6.33333" fill="none" stroke="#ff8800" stroke-width="0.5" stroke-linecap="round"/><path d="M269.02934,199.08305l-0.33333,7.66667" fill="none" stroke="#ff8800" stroke-width="0.5" stroke-linecap="round"/><path d="M266.02934,186.74971l0.33333,6.33333" fill="none" stroke="#ff8800" stroke-width="0.5" stroke-linecap="round"/><path d="M285.36267,197.41638l-1.33333,-5.33333" fill="none" stroke="#ff8800" stroke-width="0.5" stroke-linecap="round"/><path d="M289.36267,191.41639l-4.66666,-8" fill="none" stroke="#ff8800" stroke-width="0.5" stroke-linecap="round"/><path d="M283.69602,171.41638l-1.33334,-3.66666" fill="none" stroke="#ff8800" stroke-width="0.5" stroke-linecap="round"/><path d="M282.36267,176.74971l-1.66666,8.66666" fill="none" stroke="#ff8800" stroke-width="0.5" stroke-linecap="round"/><path d="M271.02934,182.41638l2.33333,-6.33333" fill="none" stroke="#ff8800" stroke-width="0.5" stroke-linecap="round"/><path d="M263.69601,177.41639l-3.33334,7.33334" fill="none" stroke="#ff8800" stroke-width="0.5" stroke-linecap="round"/><path d="M250.69601,189.74971l-2,-3l3.33333,-8" fill="none" stroke="#ff8800" stroke-width="0.5" stroke-linecap="round"/><path d="M242.36268,185.08306l-1,-6.66667" fill="none" stroke="#ff8800" stroke-width="0.5" stroke-linecap="round"/><path d="M237.02934,183.41639l0.33334,7.33334" fill="none" stroke="#ff8800" stroke-width="0.5" stroke-linecap="round"/><path d="M229.36268,180.74971l0.33334,7.33333" fill="none" stroke="#ff8800" stroke-width="0.5" stroke-linecap="round"/><path d="M228.36267,194.08306l-2.66666,-8.66667" fill="none" stroke="#ff8800" stroke-width="0.5" stroke-linecap="round"/><path d="M235.02934,194.74971l-1,-4" fill="none" stroke="#ff8800" stroke-width="0.5" stroke-linecap="round"/><path d="M231.36268,196.08305l0.66666,10.66667" fill="none" stroke="#ff8800" stroke-width="0.5" stroke-linecap="round"/><path d="M226.02934,201.41639v6.66667" fill="none" stroke="#ff8800" stroke-width="0.5" stroke-linecap="round"/><path d="M226.69601,211.41639l2,5.66667" fill="none" stroke="#ff8800" stroke-width="0.5" stroke-linecap="round"/><path d="M241.69601,230.74971l-1,-4" fill="none" stroke="#ff8800" stroke-width="0.5" stroke-linecap="round"/><path d="M231.36268,222.08305l-2.33334,5.66667" fill="none" stroke="#ff8800" stroke-width="0.5" stroke-linecap="round"/><path d="M234.69601,227.74973l0.33333,-2.33334" fill="none" stroke="#ff8800" stroke-width="0.5" stroke-linecap="round"/><path d="M242.69601,221.41638l-3,-3.33333" fill="none" stroke="#ff8800" stroke-width="0.5" stroke-linecap="round"/><path d="M248.69601,228.08304l0.33333,-7.33333" fill="none" stroke="#ff8800" stroke-width="0.5" stroke-linecap="round"/><path d="M255.36267,197.08304l-0.66666,-4.33333" fill="none" stroke="#ff8800" stroke-width="0.5" stroke-linecap="round"/><path d="M205.69601,187.08304l-0.66667,-8.33333" fill="none" stroke="#ff8800" stroke-width="0.5" stroke-linecap="round"/><path d="M193.02934,184.41639l-1,5.33334" fill="none" stroke="#ff8800" stroke-width="0.5" stroke-linecap="round"/><path d="M199.02934,204.41637l-3.66666,-5.66666" fill="none" stroke="#ff8800" stroke-width="0.5" stroke-linecap="round"/><path d="M210.69601,218.08305l1.33333,4.66667" fill="none" stroke="#ff8800" stroke-width="0.5" stroke-linecap="round"/><path d="M206.69601,217.08305l-1,-5" fill="none" stroke="#ff8800" stroke-width="0.5" stroke-linecap="round"/><path d="M212.69601,216.08306v-6.66667" fill="none" stroke="#ff8800" stroke-width="0.5" stroke-linecap="round"/><path d="M211.69601,190.41638l-0.66667,-10.66666" fill="none" stroke="#ff8800" stroke-width="0.5" stroke-linecap="round"/><path d="M213.02934,197.41639l-3.66666,-3" fill="none" stroke="#ff8800" stroke-width="0.5" stroke-linecap="round"/><path d="M233.36268,145.74971l3,2" fill="none" stroke="#ff8800" stroke-width="0.5" stroke-linecap="round"/><path d="M241.36268,158.41637l-1,-8.66666" fill="none" stroke="#ff8800" stroke-width="0.5" stroke-linecap="round"/><path d="M239.36268,175.74972l0.66666,-14.33334" fill="none" stroke="#ff8800" stroke-width="0.5" stroke-linecap="round"/><path d="M235.69602,167.74972l-0.33334,-7.33334" fill="none" stroke="#ff8800" stroke-width="0.5" stroke-linecap="round"/><path d="M225.69602,150.08305l0.66666,-2" fill="none" stroke="#ff8800" stroke-width="0.5" stroke-linecap="round"/><path d="M231.02934,154.08305l1,7" fill="none" stroke="#ff8800" stroke-width="0.5" stroke-linecap="round"/><path d="M190.69601,169.74972l5,-12.33334" fill="none" stroke="#ff8800" stroke-width="0.5" stroke-linecap="round"/><path d="M189.69601,179.08305l-0.66667,-5" fill="none" stroke="#ff8800" stroke-width="0.5" stroke-linecap="round"/><path d="M196.69601,167.41638l-1.33334,6" fill="none" stroke="#ff8800" stroke-width="0.5" stroke-linecap="round"/><path d="M199.69601,179.41637l-0.66667,-3.66666" fill="none" stroke="#ff8800" stroke-width="0.5" stroke-linecap="round"/><path d="M220.36268,179.74972l1,-4.66667" fill="none" stroke="#ff8800" stroke-width="0.5" stroke-linecap="round"/><path d="M252.02934,142.74971v10.66666" fill="none" stroke="#ff8800" stroke-width="0.5" stroke-linecap="round"/><path d="M249.36268,147.08305l-3.66666,7" fill="none" stroke="#ff8800" stroke-width="0.5" stroke-linecap="round"/><path d="M243.36267,143.41638h2.33334" fill="none" stroke="#ff8800" stroke-width="0.5" stroke-linecap="round"/><path d="M234.69601,137.41637l-3.33334,5.33334" fill="none" stroke="#ff8800" stroke-width="0.5" stroke-linecap="round"/><path d="M223.69601,142.74971v-5" fill="none" stroke="#ff8800" stroke-width="0.5" stroke-linecap="round"/><path d="M220.36268,142.74971l-2,4" fill="none" stroke="#ff8800" stroke-width="0.5" stroke-linecap="round"/><path d="M222.02934,154.41638l-1.33333,-5" fill="none" stroke="#ff8800" stroke-width="0.5" stroke-linecap="round"/><path d="M211.02934,151.74971l-0.33333,-8" fill="none" stroke="#ff8800" stroke-width="0.5" stroke-linecap="round"/><path d="M205.36268,154.41638l-0.66666,5" fill="none" stroke="#ff8800" stroke-width="0.5" stroke-linecap="round"/><path d="M199.36267,163.74972l0.33334,-4.66667" fill="none" stroke="#ff8800" stroke-width="0.5" stroke-linecap="round"/><path d="M200.02934,148.74971l0.66667,3.33333" fill="none" stroke="#ff8800" stroke-width="0.5" stroke-linecap="round"/><path d="M219.36268,130.74971l-5,6.66666" fill="none" stroke="#ff8800" stroke-width="0.5" stroke-linecap="round"/><path d="M208.36268,138.41638l-3,7.33334" fill="none" stroke="#ff8800" stroke-width="0.5" stroke-linecap="round"/><path d="M228.69601,130.74971l1,4" fill="none" stroke="#ff8800" stroke-width="0.5" stroke-linecap="round"/><path d="M237.36268,134.41638v-3" fill="none" stroke="#ff8800" stroke-width="0.5" stroke-linecap="round"/><path d="M245.02934,139.08305l2,-6.66667" fill="none" stroke="#ff8800" stroke-width="0.5" stroke-linecap="round"/><path d="M255.02934,137.41638l3,6.33334l-1.66667,7.33333" fill="none" stroke="#ff8800" stroke-width="0.5" stroke-linecap="round"/><path d="M256.86267,141.08305l-0.66667,6.33333" fill="none" stroke="#ff8800" stroke-width="0.5" stroke-linecap="round"/><path d="M268.69601,138.08305l0.66666,8" fill="none" stroke="#ff8800" stroke-width="0.5" stroke-linecap="round"/><path d="M272.36267,154.08304l2.66667,-11.33333" fill="none" stroke="#ff8800" stroke-width="0.5" stroke-linecap="round"/><path d="M281.69601,153.41638l0.33333,4.66667" fill="none" stroke="#ff8800" stroke-width="0.5" stroke-linecap="round"/><path d="M286.69601,164.74972l-0.66667,-6.33334" fill="none" stroke="#ff8800" stroke-width="0.5" stroke-linecap="round"/><path d="M290.69601,175.74971l-1,8" fill="none" stroke="#ff8800" stroke-width="0.5" stroke-linecap="round"/><path d="M287.36267,171.74971v6.33333" fill="none" stroke="#ff8800" stroke-width="0.5" stroke-linecap="round"/><path d="M265.02934,151.41637l-1.33333,-3.66666" fill="none" stroke="#ff8800" stroke-width="0.5" stroke-linecap="round"/><path d="M244.36267,163.74971l2.33334,-2.33334" fill="none" stroke="#ff8800" stroke-width="0.5" stroke-linecap="round"/><path d="M272.69601,204.41639l1.33333,8" fill="none" stroke="#ff8800" stroke-width="0.5" stroke-linecap="round"/><path d="M268.69601,213.74971l1.33333,4.33333" fill="none" stroke="#ff8800" stroke-width="0.5" stroke-linecap="round"/><path d="M277.36267,205.08305l2,8" fill="none" stroke="#ff8800" stroke-width="0.5" stroke-linecap="round"/><g stroke="none" stroke-width="0" stroke-linecap="butt"><path d="M141.19601,162.58304c0,-54.40005 44.09995,-98.5 98.5,-98.5c54.40005,0 98.5,44.09995 98.5,98.5c0,54.40005 -44.09995,98.5 -98.5,98.5c-54.40005,0 -98.5,-44.09995 -98.5,-98.5z" fill="url(#color-23)"/><path d="M181.02936,100.5c0,-35.89851 29.10149,-65 65,-65c35.89851,0 65,29.10149 65,65c0,35.89851 -29.10149,65 -65,65c-35.89851,0 -65,-29.10149 -65,-65z" fill="url(#color-24)"/></g></g></g></svg>