<svg version="1.1" xmlns="http://www.w3.org/2000/svg" xmlns:xlink="http://www.w3.org/1999/xlink" width="64.25534" height="80.6915" viewBox="0,0,64.25534,80.6915"><defs><radialGradient cx="318.65443" cy="208.46696" r="31.33333" gradientUnits="userSpaceOnUse" id="color-1"><stop offset="0" stop-color="#b866ff" stop-opacity="0.29804"/><stop offset="1" stop-color="#b866ff" stop-opacity="0"/></radialGradient><radialGradient cx="318.70644" cy="186.68973" r="31.28132" gradientUnits="userSpaceOnUse" id="color-2"><stop offset="0" stop-color="#b866ff" stop-opacity="0.29804"/><stop offset="1" stop-color="#b866ff" stop-opacity="0"/></radialGradient></defs><g transform="translate(-287.32115,-139.65427)"><g data-paper-data="{&quot;isPaintingLayer&quot;:true}" fill-rule="nonzero" stroke="none" stroke-linecap="butt" stroke-linejoin="miter" stroke-miterlimit="10" stroke-dasharray="" stroke-dashoffset="0" style="mix-blend-mode: normal"><path d="M289.01385,185.49615c0,-11.47564 0,-33.04873 0,-39.19813c0,-3.21429 4.07296,-6.64375 7.88134,-6.64375c7.43087,0 33.85802,0 47.06039,0c4.62028,0 7.62091,3.82626 7.62091,7.30813c0,5.92232 0,24.94361 0,36.54062c0,5.47929 -4.91613,9.30125 -9.28186,9.30125c-7.74739,0 -33.24827,0 -45.95309,0c-4.44811,0 -7.32769,-2.91373 -7.32769,-7.30812z" fill-opacity="0.2" fill="#6b00c7" stroke-width="0"/><path d="M338.58152,186.68973c0,1.79493 -8.89834,3.25 -19.875,3.25c-10.97666,0 -19.875,-1.45507 -19.875,-3.25c0,-1.79493 8.89834,-3.25 19.875,-3.25c10.97666,0 19.875,1.45507 19.875,3.25z" fill="#b866ff" stroke-width="0"/><path d="M287.32115,220.34577v-23.75758h62.66667v23.75758z" fill="url(#color-1)" stroke-width="0"/><text transform="translate(293.87775,216.33862) scale(0.16964,0.16964)" font-size="40" xml:space="preserve" fill-opacity="0.29804" fill="#b866ff" fill-rule="nonzero" stroke="none" stroke-width="1" stroke-linecap="butt" stroke-linejoin="miter" stroke-miterlimit="10" stroke-dasharray="" stroke-dashoffset="0" font-family="&quot;MV Boli&quot;, Sans Serif" font-weight="normal" text-anchor="start" style="mix-blend-mode: normal"><tspan x="0" dy="0">Ancient matter</tspan></text><text transform="translate(310.69354,209.15003) scale(0.29052,0.29052)" font-size="40" xml:space="preserve" fill-opacity="0.68627" fill="#9dc0eb" fill-rule="nonzero" stroke="none" stroke-width="1" stroke-linecap="butt" stroke-linejoin="miter" stroke-miterlimit="10" stroke-dasharray="" stroke-dashoffset="0" font-family="&quot;MV Boli&quot;, Sans Serif" font-weight="normal" text-anchor="start" style="mix-blend-mode: normal"><tspan x="0" dy="0">50</tspan></text><text transform="translate(290.60254,170.88853) scale(0.37621,0.38827)" font-size="40" xml:space="preserve" fill="#6b00c7" fill-rule="nonzero" stroke="none" stroke-width="1" stroke-linecap="butt" stroke-linejoin="miter" stroke-miterlimit="10" stroke-dasharray="" stroke-dashoffset="0" font-family="&quot;MV Boli&quot;, Sans Serif" font-weight="normal" text-anchor="start" style="mix-blend-mode: normal"><tspan x="0" dy="0">Matter+</tspan></text><path d="M287.42519,186.68973c0,-17.2762 14.00512,-31.28132 31.28132,-31.28132c17.2762,0 31.28132,14.00512 31.28132,31.28132c0,17.2762 -14.00512,31.28132 -31.28132,31.28132c-17.2762,0 -31.28132,-14.00512 -31.28132,-31.28132z" fill="url(#color-2)" stroke-width="0"/></g></g></svg>