<svg version="1.1" xmlns="http://www.w3.org/2000/svg" xmlns:xlink="http://www.w3.org/1999/xlink" width="299.33334" height="299.33334" viewBox="0,0,299.33334,299.33334"><defs><linearGradient x1="311.92319" y1="269.69711" x2="310.58167" y2="292.13069" gradientUnits="userSpaceOnUse" id="color-1"><stop offset="0" stop-color="#000000"/><stop offset="1" stop-color="#82c9ff"/></linearGradient><linearGradient x1="310.8995" y1="289.71585" x2="309.57112" y2="311.92983" gradientUnits="userSpaceOnUse" id="color-2"><stop offset="0" stop-color="#000000"/><stop offset="1" stop-color="#82c9ff"/></linearGradient><linearGradient x1="364.52434" y1="192.38076" x2="368.13669" y2="223.17502" gradientUnits="userSpaceOnUse" id="color-3"><stop offset="0" stop-color="#000000"/><stop offset="1" stop-color="#82c9ff"/></linearGradient><linearGradient x1="367.98339" y1="219.81821" x2="371.56037" y2="250.311" gradientUnits="userSpaceOnUse" id="color-4"><stop offset="0" stop-color="#000000"/><stop offset="1" stop-color="#82c9ff"/></linearGradient><linearGradient x1="304.4797" y1="125.89149" x2="348.31643" y2="115.88935" gradientUnits="userSpaceOnUse" id="color-5"><stop offset="0" stop-color="#000000"/><stop offset="1" stop-color="#82c9ff"/></linearGradient><linearGradient x1="343.50046" y1="116.63294" x2="386.90805" y2="106.72871" gradientUnits="userSpaceOnUse" id="color-6"><stop offset="0" stop-color="#000000"/><stop offset="1" stop-color="#82c9ff"/></linearGradient><radialGradient cx="320.71814" cy="140.03859" r="55.04665" gradientUnits="userSpaceOnUse" id="color-7"><stop offset="0" stop-color="#81e9ff"/><stop offset="1" stop-color="#82bdff"/></radialGradient><radialGradient cx="321.56622" cy="239.41506" r="54.50775" gradientUnits="userSpaceOnUse" id="color-8"><stop offset="0" stop-color="#81e9ff"/><stop offset="1" stop-color="#82bdff"/></radialGradient><radialGradient cx="300.99307" cy="164.47958" r="12.50072" gradientUnits="userSpaceOnUse" id="color-9"><stop offset="0" stop-color="#000000"/><stop offset="1" stop-color="#82a8ff"/></radialGradient><radialGradient cx="300.99307" cy="164.47958" r="8.69932" gradientUnits="userSpaceOnUse" id="color-10"><stop offset="0" stop-color="#000000"/><stop offset="1" stop-color="#81e3ff"/></radialGradient><linearGradient x1="332.56798" y1="225.32895" x2="338.22657" y2="265.08768" gradientUnits="userSpaceOnUse" id="color-11"><stop offset="0" stop-color="#000000"/><stop offset="1" stop-color="#82c9ff"/></linearGradient><linearGradient x1="337.92113" y1="260.74601" x2="343.52432" y2="300.11551" gradientUnits="userSpaceOnUse" id="color-12"><stop offset="0" stop-color="#000000"/><stop offset="1" stop-color="#82c9ff"/></linearGradient><radialGradient cx="339.00693" cy="164.47958" r="12.50072" gradientUnits="userSpaceOnUse" id="color-13"><stop offset="0" stop-color="#000000"/><stop offset="1" stop-color="#82a8ff"/></radialGradient><radialGradient cx="339.00693" cy="164.47958" r="8.69932" gradientUnits="userSpaceOnUse" id="color-14"><stop offset="0" stop-color="#000000"/><stop offset="1" stop-color="#81e3ff"/></radialGradient><linearGradient x1="284.3117" y1="214.49176" x2="282.57027" y2="236.92989" gradientUnits="userSpaceOnUse" id="color-15"><stop offset="0" stop-color="#000000"/><stop offset="1" stop-color="#82c9ff"/></linearGradient><linearGradient x1="282.93138" y1="234.51766" x2="281.207" y2="256.73613" gradientUnits="userSpaceOnUse" id="color-16"><stop offset="0" stop-color="#000000"/><stop offset="1" stop-color="#82c9ff"/></linearGradient><radialGradient cx="300.99307" cy="164.47958" r="28.97784" gradientUnits="userSpaceOnUse" id="color-17"><stop offset="0" stop-color="#000000" stop-opacity="0.51765"/><stop offset="1" stop-color="#000000" stop-opacity="0"/></radialGradient><radialGradient cx="339.00693" cy="164.47958" r="28.97784" gradientUnits="userSpaceOnUse" id="color-18"><stop offset="0" stop-color="#ffffff" stop-opacity="0.51765"/><stop offset="1" stop-color="#ffffff" stop-opacity="0"/></radialGradient><radialGradient cx="320" cy="180" r="149.66667" gradientUnits="userSpaceOnUse" id="color-19"><stop offset="0" stop-color="#000000" stop-opacity="0.51765"/><stop offset="1" stop-color="#000000" stop-opacity="0"/></radialGradient></defs><g transform="translate(-170.33333,-30.33333)"><g data-paper-data="{&quot;isPaintingLayer&quot;:true}" fill-rule="nonzero" stroke="none" stroke-width="0" stroke-linecap="butt" stroke-linejoin="miter" stroke-miterlimit="10" stroke-dasharray="" stroke-dashoffset="0" style="mix-blend-mode: normal"><g><path d="M321.25725,291.27329c0,0 -0.65674,0.33468 -1.68775,0.27302c-2.60637,-0.15586 -14.04885,-0.84011 -18.44447,-1.10297c-1.07477,-0.06427 -0.86355,1.0702 -0.86355,1.0702c0,0 -0.47704,-1.85063 0.15696,-2.95795c2.52394,-4.40829 8.95201,-15.63548 10.36813,-18.10885c0.53929,-0.94193 0.98831,-0.72507 0.98831,-0.72507c0,0 0.44204,-0.23176 0.8411,0.71072c1.04585,2.47004 5.80098,13.70036 7.94166,18.75605c0.64288,1.51832 0.69963,2.08484 0.69963,2.08484z" fill="url(#color-1)"/><path d="M300.49253,290.7763c0,0 -0.00877,-0.61798 1.40205,-0.62129c4.87409,-0.01145 15.97237,-0.02249 18.12571,0.10628c0.69029,0.04128 1.24829,0.82255 1.24829,0.82255c0,0 0.24809,0.91001 -0.23659,1.75654c-2.19886,3.8405 -8.43443,14.73147 -10.07698,17.60034c-0.76852,1.34229 -1.51673,1.48117 -1.51673,1.48117c0,0 -0.66173,-0.07448 -1.21989,-1.39271c-1.19321,-2.81803 -5.74847,-13.57633 -7.71318,-18.21646c-0.561,-1.32492 -0.01268,-1.53641 -0.01268,-1.53641z" fill="url(#color-2)"/></g><g><path d="M382.42856,219.42441c0,0 -0.81091,0.61365 -2.22617,0.77967c-3.57773,0.41969 -19.28466,2.2622 -25.31846,2.97001c-1.47532,0.17307 -0.91363,1.66274 -0.91363,1.66274c0,0 -1.09621,-2.39796 -0.50337,-4.05551c2.36014,-6.59875 8.37101,-23.40467 9.69523,-27.10706c0.50429,-1.40996 1.16668,-1.2242 1.16668,-1.2242c0,0 0.54423,-0.42186 1.31455,0.76155c2.01883,3.10145 11.19772,17.20257 15.32989,23.55066c1.24096,1.90644 1.45528,2.66215 1.45528,2.66215z" fill="url(#color-3)"/><path d="M354.10553,223.77952c0,0 -0.16162,-0.83721 1.75376,-1.18348c6.61723,-1.19627 21.68822,-3.89976 24.64408,-4.2465c0.94756,-0.11115 1.89469,0.81479 1.89469,0.81479c0,0 0.55741,1.17588 0.10418,2.44305c-2.05615,5.74883 -7.88702,22.05147 -9.42297,26.34586c-0.71864,2.00926 -1.70121,2.37914 -1.70121,2.37914c0,0 -0.9168,0.05913 -1.99423,-1.59607c-2.30327,-3.5384 -11.09636,-17.04684 -14.88888,-22.87312c-1.0829,-1.66361 -0.3894,-2.08368 -0.3894,-2.08368z" fill="url(#color-4)"/></g><g><path d="M340.68394,95.86724c0,0 1.01099,1.07363 1.47068,3.08831c1.16207,5.09303 6.26377,27.4524 8.22358,36.04174c0.47919,2.10018 2.53956,1.05842 2.53956,1.05842c0,0 -3.28672,1.95381 -5.76886,1.35709c-9.88148,-2.37558 -35.04795,-8.4258 -40.59219,-9.75868c-2.11138,-0.50759 -1.94667,-1.49153 -1.94667,-1.49153c0,0 -0.69295,-0.71899 0.89337,-2.01386c4.15738,-3.39356 23.05943,-18.82286 31.5688,-25.76884c2.55552,-2.086 3.61172,-2.51264 3.61172,-2.51264z" fill="url(#color-5)"/><path d="M351.3723,136.02534c0,0 -1.18194,0.36335 -1.97935,-2.34433c-2.75491,-9.35447 -8.99896,-30.66293 -9.95904,-34.8707c-0.30778,-1.34888 0.87981,-2.8586 0.87981,-2.8586c0,0 1.60862,-0.98671 3.50618,-0.53051c8.60873,2.06961 33.02156,7.93864 39.45232,9.48465c3.00882,0.72334 3.69507,2.08243 3.69507,2.08243c0,0 0.22798,1.31264 -1.99077,3.12375c-4.7431,3.87168 -22.85067,18.65245 -30.6606,25.0275c-2.23001,1.82031 -2.94362,0.88582 -2.94362,0.88582z" fill="url(#color-6)"/></g><g><path d="M372.67138,188.61325c0,0 -3.11362,1.86089 -8.17334,1.86089c-12.79082,0 -68.94502,0 -90.51662,0c-5.27447,0 -3.90987,5.58268 -3.90987,5.58268c0,0 -2.8739,-9.06739 -0.09746,-14.76647c11.05309,-22.68825 39.20348,-80.47149 45.40508,-93.20129c2.36172,-4.84781 4.62083,-3.90232 4.62083,-3.90232c0,0 2.09379,-1.28485 4.32083,3.28653c5.83657,11.98051 32.3733,66.45145 44.31967,90.97331c3.58771,7.36435 4.03088,10.16668 4.03088,10.16668z" fill="url(#color-7)"/><path d="M270.98586,192.31926c0,0 -0.22362,-3.07265 6.67436,-3.50897c23.83118,-1.50742 78.09888,-4.86505 88.66644,-4.86505c3.38763,0 6.34472,3.72179 6.34472,3.72179c0,0 1.47929,4.45473 -0.64327,8.81162c-9.62944,19.76599 -36.93682,75.81881 -44.13005,90.58408c-3.36557,6.90837 -6.98375,7.82216 -6.98375,7.82216c0,0 -3.25765,-0.17374 -6.37257,-6.56761c-6.65888,-13.66842 -32.08023,-65.84987 -43.04464,-88.35609c-3.13074,-6.42636 -0.51125,-7.64192 -0.51125,-7.64192z" fill="url(#color-8)"/></g><g><path d="M281.98614,164.18717c0,-2.21651 6.9936,-4.00968 7.98056,-5.83038c2.17712,-4.01621 6.42946,-6.74344 11.31878,-6.74344c4.47017,0 8.40789,2.27968 10.71402,5.73987c1.35971,2.04016 8.0005,4.49071 8.0005,7.12636c0,2.21211 -6.40655,4.29383 -7.38988,6.11197c-2.17534,4.02213 -6.43093,6.75426 -11.32464,6.75426c-5.20929,0 -9.6955,-3.09586 -11.71914,-7.54809c-0.73674,-1.62091 -7.5802,-3.71402 -7.5802,-5.61056z" fill="#82a8ff"/><path d="M288.49235,164.47958c0,-6.90395 5.59676,-12.50071 12.50072,-12.50071c6.90395,0 12.50071,5.59676 12.50071,12.50071c0,6.90395 -5.59676,12.50071 -12.50071,12.50071c-6.90395,0 -12.50072,-5.59676 -12.50072,-12.50071z" fill="url(#color-9)"/><path d="M292.29375,164.47958c0,-4.80451 3.89482,-8.69933 8.69932,-8.69933c4.80451,0 8.69932,3.89482 8.69932,8.69933c0,4.80451 -3.89482,8.69932 -8.69932,8.69932c-4.80451,0 -8.69932,-3.89482 -8.69932,-8.69932z" fill="url(#color-10)"/></g><g><path d="M356.61284,259.77585c0,0 -1.03045,0.82042 -2.8577,1.08048c-4.61925,0.65743 -24.89858,3.54365 -32.68888,4.65239c-1.90481,0.2711 -1.13003,2.1821 -1.13003,2.1821c0,0 -1.49584,-3.07006 -0.781,-5.23522c2.84577,-8.61956 10.09346,-30.57216 11.69015,-35.40837c0.60805,-1.84175 1.47165,-1.62232 1.47165,-1.62232c0,0 0.69125,-0.56358 1.72641,0.94421c2.71289,3.95157 15.04743,21.9179 20.60022,30.00603c1.66761,2.42901 1.96918,3.4007 1.96918,3.4007z" fill="url(#color-11)"/><path d="M320.07764,266.31747c0,0 -0.23594,-1.07892 2.23314,-1.5883c8.53018,-1.75982 27.95865,-5.74062 31.77498,-6.28377c1.2234,-0.17412 2.47929,0.99467 2.47929,0.99467c0,0 0.75922,1.50482 0.21274,3.16006c-2.47923,7.50935 -9.50988,28.80455 -11.36187,34.41407c-0.86651,2.62458 -2.12701,3.13482 -2.12701,3.13482c0,0 -1.18523,0.10579 -2.63307,-2.00312c-3.09512,-4.5083 -14.91122,-21.71948 -20.00759,-29.14279c-1.4552,-2.11963 -0.5706,-2.68563 -0.5706,-2.68563z" fill="url(#color-12)"/></g><g><path d="M320,164.18717c0,-2.21651 6.9936,-4.00968 7.98056,-5.83038c2.17712,-4.01621 6.42946,-6.74344 11.31878,-6.74344c4.47017,0 8.40789,2.27968 10.71402,5.73987c1.35971,2.04016 8.0005,4.49071 8.0005,7.12636c0,2.21211 -6.40655,4.29383 -7.38988,6.11197c-2.17534,4.02213 -6.43093,6.75426 -11.32464,6.75426c-5.20929,0 -9.6955,-3.09586 -11.71915,-7.54809c-0.73674,-1.62091 -7.5802,-3.71402 -7.5802,-5.61056z" fill="#82a8ff"/><path d="M326.50622,164.47958c0,-6.90395 5.59676,-12.50071 12.50072,-12.50071c6.90395,0 12.50071,5.59676 12.50071,12.50071c0,6.90395 -5.59675,12.50071 -12.50071,12.50071c-6.90395,0 -12.50072,-5.59676 -12.50072,-12.50071z" fill="url(#color-13)"/><path d="M330.3076,164.47958c0,-4.80451 3.89483,-8.69933 8.69933,-8.69933c4.80451,0 8.69932,3.89482 8.69932,8.69933c0,4.80451 -3.89482,8.69932 -8.69932,8.69932c-4.80451,0 -8.69933,-3.89482 -8.69933,-8.69932z" fill="url(#color-14)"/></g><g><path d="M293.27457,236.26091c0,0 -0.66351,0.32344 -1.69474,0.2434c-2.6069,-0.20232 -14.0517,-1.09055 -18.44821,-1.43177c-1.07499,-0.08343 -0.88365,1.05622 -0.88365,1.05622c0,0 -0.44479,-1.86143 0.20966,-2.9589c2.60538,-4.36906 9.24087,-15.49634 10.70268,-17.94771c0.5567,-0.93354 1.00243,-0.70845 1.00243,-0.70845c0,0 0.4467,-0.2242 0.82954,0.72656c1.00333,2.49172 5.56512,13.82065 7.61876,18.92074c0.61675,1.53165 0.66351,2.0999 0.66351,2.0999z" fill="url(#color-15)"/><path d="M272.49243,235.3947c0,0 0.00218,-0.61891 1.41484,-0.59718c4.88047,0.07506 15.99296,0.261 18.14674,0.42815c0.69043,0.05358 1.23527,0.84574 1.23527,0.84574c0,0 0.23225,0.91557 -0.26807,1.75457c-2.26981,3.80632 -8.70658,14.60038 -10.40213,17.44371c-0.79332,1.33034 -1.54494,1.45612 -1.54494,1.45612c0,0 -0.66124,-0.08633 -1.19671,-1.41613c-1.14469,-2.84277 -5.51474,-13.69554 -7.39958,-18.37641c-0.53819,-1.33656 0.01458,-1.53857 0.01458,-1.53857z" fill="url(#color-16)"/></g><path d="M272.01523,164.47958c0,-16.00402 12.97382,-28.97784 28.97784,-28.97784c16.00401,0 28.97784,12.97382 28.97784,28.97784c0,16.00402 -12.97382,28.97784 -28.97784,28.97784c-16.00401,0 -28.97784,-12.97382 -28.97784,-28.97784z" fill="url(#color-17)"/><path d="M310.02909,164.47958c0,-16.00402 12.97382,-28.97784 28.97784,-28.97784c16.00401,0 28.97784,12.97382 28.97784,28.97784c0,16.00402 -12.97382,28.97784 -28.97784,28.97784c-16.00401,0 -28.97784,-12.97382 -28.97784,-28.97784z" fill="url(#color-18)"/><path d="M170.33333,180c0,-82.6586 67.00805,-149.66667 149.66667,-149.66667c82.6586,0 149.66667,67.00805 149.66667,149.66667c0,82.6586 -67.00804,149.66667 -149.66667,149.66667c-82.6586,0 -149.66667,-67.00804 -149.66667,-149.66667z" fill="url(#color-19)"/></g></g></svg>