<svg version="1.1" xmlns="http://www.w3.org/2000/svg" xmlns:xlink="http://www.w3.org/1999/xlink" width="64.15129" height="79.59495" viewBox="0,0,64.15129,79.59495"><defs><radialGradient cx="231.4347" cy="186.68969" r="31.28132" gradientUnits="userSpaceOnUse" id="color-1"><stop offset="0" stop-color="#ff6666" stop-opacity="0.29804"/><stop offset="1" stop-color="#ff6666" stop-opacity="0"/></radialGradient></defs><g transform="translate(-200.1534,-138.37606)"><g data-paper-data="{&quot;isPaintingLayer&quot;:true}" fill-rule="nonzero" stroke="none" stroke-linecap="butt" stroke-linejoin="miter" stroke-miterlimit="10" stroke-dasharray="" stroke-dashoffset="0" style="mix-blend-mode: normal"><path d="M201.74206,185.49613c0,-11.47564 0,-33.04873 0,-39.19813c0,-3.21429 4.07296,-6.64375 7.88134,-6.64375c7.43087,0 33.85802,0 47.06039,0c4.62028,0 7.62091,3.82626 7.62091,7.30813c0,5.92232 0,24.94361 0,36.54062c0,5.47929 -4.91613,9.30125 -9.28186,9.30125c-7.74739,0 -33.24827,0 -45.95309,0c-4.44811,0 -7.32769,-2.91373 -7.32769,-7.30812z" fill-opacity="0.2" fill="#ff6666" stroke-width="0"/><path d="M251.30975,186.68969c0,1.79493 -8.89834,3.25 -19.875,3.25c-10.97666,0 -19.875,-1.45507 -19.875,-3.25c0,-1.79493 8.89834,-3.25 19.875,-3.25c10.97666,0 19.875,1.45507 19.875,3.25z" fill="#ff6666" stroke-width="0"/><path d="M200.15341,186.68969c0,-17.2762 14.00512,-31.28132 31.28132,-31.28132c17.2762,0 31.28132,14.00512 31.28132,31.28132c0,17.2762 -14.00512,31.28132 -31.28132,31.28132c-17.2762,0 -31.28132,-14.00512 -31.28132,-31.28132z" fill="url(#color-1)" stroke-width="0"/><g fill="#7300c7" stroke-width="1" font-family="&quot;MV Boli&quot;, Sans Serif" font-weight="normal" font-size="40" text-anchor="start"><text transform="translate(205.8821,156.24952) scale(0.38827,0.38827)" font-size="40" xml:space="preserve" fill="#7300c7" fill-rule="nonzero" stroke="none" stroke-width="1" stroke-linecap="butt" stroke-linejoin="miter" stroke-miterlimit="10" stroke-dasharray="" stroke-dashoffset="0" font-family="&quot;MV Boli&quot;, Sans Serif" font-weight="normal" text-anchor="start" style="mix-blend-mode: normal"><tspan x="0" dy="0">Ancient</tspan></text><text transform="translate(205.8821,170.15465) scale(0.27231,0.27231)" font-size="40" xml:space="preserve" fill="#7300c7" fill-rule="nonzero" stroke="none" stroke-width="1" stroke-linecap="butt" stroke-linejoin="miter" stroke-miterlimit="10" stroke-dasharray="" stroke-dashoffset="0" font-family="&quot;MV Boli&quot;, Sans Serif" font-weight="normal" text-anchor="start" style="mix-blend-mode: normal"><tspan x="0" dy="0">Magnetism</tspan></text></g></g></g></svg>