<svg version="1.1" xmlns="http://www.w3.org/2000/svg" xmlns:xlink="http://www.w3.org/1999/xlink" width="52.67652" height="26" viewBox="0,0,52.67652,26"><g transform="translate(-108.16174,-59.00049)"><g data-paper-data="{&quot;isPaintingLayer&quot;:true}" fill-rule="nonzero" stroke-linecap="butt" stroke-linejoin="miter" stroke-miterlimit="10" stroke-dasharray="" stroke-dashoffset="0" style="mix-blend-mode: normal"><path d="M109.16175,80.70049c0,-5.18185 0,-14.92322 0,-17.69999c0,-1.45142 3.29914,-3.00001 6.38398,-3.00001c6.01909,0 27.42543,0 38.11951,0c3.74248,0 6.17302,1.72776 6.17302,3.3c0,2.67424 0,11.26334 0,16.5c0,2.47419 -3.98213,4.2 -7.51842,4.2c-6.27548,0 -26.93152,0 -37.22258,0c-3.60302,0 -5.93552,-1.3157 -5.93552,-3.3z" fill-opacity="0.65098" fill="#59655b" stroke="#000000" stroke-width="2"/><text transform="translate(124.65075,72.52845) scale(0.25768,0.25768)" font-size="40" xml:space="preserve" fill="#ff0000" fill-rule="nonzero" stroke="none" stroke-width="1" stroke-linecap="butt" stroke-linejoin="miter" stroke-miterlimit="10" stroke-dasharray="" stroke-dashoffset="0" font-family="&quot;MV Boli&quot;, Sans Serif" font-weight="normal" text-anchor="start" style="mix-blend-mode: normal"><tspan x="0" dy="0">Skip</tspan></text><text transform="translate(110.79388,80.26616) scale(0.12147,0.12147)" font-size="40" xml:space="preserve" fill="#ff0000" fill-rule="nonzero" stroke="none" stroke-width="1" stroke-linecap="butt" stroke-linejoin="miter" stroke-miterlimit="10" stroke-dasharray="" stroke-dashoffset="0" font-family="&quot;MV Boli&quot;, Sans Serif" font-weight="normal" text-anchor="start" style="mix-blend-mode: normal"><tspan x="0" dy="0">(Not recommended)</tspan></text></g></g></svg>