<svg version="1.1" xmlns="http://www.w3.org/2000/svg" xmlns:xlink="http://www.w3.org/1999/xlink" width="226" height="226" viewBox="0,0,226,226"><defs><linearGradient x1="320" y1="109.5" x2="320" y2="250.5" gradientUnits="userSpaceOnUse" id="color-1"><stop offset="0" stop-color="#5d9369"/><stop offset="1" stop-color="#37a14b"/></linearGradient><radialGradient cx="320" cy="180" r="113" gradientUnits="userSpaceOnUse" id="color-2"><stop offset="0" stop-color="#616161"/><stop offset="1" stop-color="#616161" stop-opacity="0"/></radialGradient></defs><g transform="translate(-207,-67)"><g data-paper-data="{&quot;isPaintingLayer&quot;:true}" fill-rule="nonzero" stroke-linecap="butt" stroke-linejoin="miter" stroke-miterlimit="10" stroke-dasharray="" stroke-dashoffset="0" style="mix-blend-mode: normal"><path d="M249.5,230.39131c0,-33.20062 0,-97.19606 0,-111c0,-5.17327 6.27932,-9.89131 12.7352,-9.89131c15.8576,0 84.005,0 114,0c8.75914,0 14.2648,5.25978 14.2648,10.89131c0,14.82748 0,82.56722 0,114c0,9.82963 -7.14393,16.10869 -14.2648,16.10869c-16.10848,0 -80.76404,0 -111,0c-9.60389,0 -15.7352,-8.00945 -15.7352,-20.10869z" fill="url(#color-1)" stroke="none" stroke-width="0"/><path d="M300.5,180c0,-10.76955 8.73045,-19.5 19.5,-19.5c10.76955,0 19.5,8.73045 19.5,19.5c0,10.76955 -8.73045,19.5 -19.5,19.5c-10.76955,0 -19.5,-8.73045 -19.5,-19.5z" fill="#616161" stroke="#000000" stroke-width="4.5"/><path d="M238,241.5c0,-10.76955 8.73044,-19.5 19.5,-19.5c10.76956,0 19.5,8.73045 19.5,19.5c0,10.76955 -8.73044,19.5 -19.5,19.5c-10.76956,0 -19.5,-8.73045 -19.5,-19.5z" fill="#489b58" stroke="#000000" stroke-width="4.5"/><path d="M361.5,240.5c0,-10.76955 8.73045,-19.5 19.5,-19.5c10.76956,0 19.5,8.73045 19.5,19.5c0,10.76955 -8.73044,19.5 -19.5,19.5c-10.76955,0 -19.5,-8.73045 -19.5,-19.5z" fill="#489b58" stroke="#000000" stroke-width="4.5"/><path d="M364,113.5c0,-10.76955 8.73044,-19.5 19.5,-19.5c10.76956,0 19.5,8.73045 19.5,19.5c0,10.76955 -8.73044,19.5 -19.5,19.5c-10.76956,0 -19.5,-8.73045 -19.5,-19.5z" fill="#489b58" stroke="#000000" stroke-width="4.5"/><path d="M236,115.5c0,-10.76955 8.73044,-19.5 19.5,-19.5c10.76956,0 19.5,8.73045 19.5,19.5c0,10.76955 -8.73044,19.5 -19.5,19.5c-10.76956,0 -19.5,-8.73045 -19.5,-19.5z" fill="#489b58" stroke="#000000" stroke-width="4.5"/><path d="M207,180c0,-62.40818 50.59182,-113 113,-113c62.40818,0 113,50.59182 113,113c0,62.40818 -50.59182,113 -113,113c-62.40818,0 -113,-50.59182 -113,-113z" fill="url(#color-2)" stroke="none" stroke-width="0"/></g></g></svg>