<svg version="1.1" xmlns="http://www.w3.org/2000/svg" xmlns:xlink="http://www.w3.org/1999/xlink" width="68.46294" height="68.46294" viewBox="0,0,68.46294,68.46294"><defs><radialGradient cx="320.00001" cy="166.7491" r="34.23147" gradientUnits="userSpaceOnUse" id="color-1"><stop offset="0" stop-color="#ff0000"/><stop offset="1" stop-color="#ff0000" stop-opacity="0"/></radialGradient><linearGradient x1="320" y1="149.73733" x2="320" y2="181.37643" gradientUnits="userSpaceOnUse" id="color-2"><stop offset="0" stop-color="#000000"/><stop offset="1" stop-color="#000000"/></linearGradient></defs><g transform="translate(-285.76853,-132.51764)"><g data-paper-data="{&quot;isPaintingLayer&quot;:true}" fill-rule="nonzero" stroke="#000000" stroke-linecap="butt" stroke-linejoin="miter" stroke-miterlimit="10" stroke-dasharray="" stroke-dashoffset="0" style="mix-blend-mode: normal"><path d="M285.76853,166.7491c0,-18.90552 15.32595,-34.23147 34.23147,-34.23147c18.90552,0 34.23147,15.32595 34.23147,34.23147c0,18.90552 -15.32595,34.23148 -34.23147,34.23148c-18.90552,0 -34.23147,-15.32596 -34.23147,-34.23148z" fill="url(#color-1)" stroke-width="0"/><path d="M302.94106,162.83658c0,0 0.98709,-3.44873 2.0571,-5.93887c1.26632,-2.94699 2.64882,-5.8204 2.64882,-5.8204c0,-0.64579 8.98485,1.80029 8.98485,1.80029l3.44567,5.76933l3.04525,-6.18373c0,0 8.74007,-2.09885 8.74007,-1.3859l5.19612,10.38672l-17.3196,21.10464z" fill="url(#color-2)" stroke-width="4"/></g></g></svg>