<svg version="1.1" xmlns="http://www.w3.org/2000/svg" xmlns:xlink="http://www.w3.org/1999/xlink" width="32.44912" height="31" viewBox="0,0,32.44912,31"><defs><radialGradient cx="320" cy="180" r="9.80539" gradientUnits="userSpaceOnUse" id="color-1"><stop offset="0" stop-color="#4200ff"/><stop offset="1" stop-color="#4200ff" stop-opacity="0"/></radialGradient><radialGradient cx="320" cy="180" r="9.80539" gradientUnits="userSpaceOnUse" id="color-2"><stop offset="0" stop-color="#ff0000"/><stop offset="1" stop-color="#ff0000" stop-opacity="0"/></radialGradient><radialGradient cx="320" cy="180" r="11.5" gradientUnits="userSpaceOnUse" id="color-3"><stop offset="0" stop-color="#ff0000"/><stop offset="1" stop-color="#ff0000" stop-opacity="0"/></radialGradient></defs><g transform="translate(-303.96985,-164.5)"><g data-paper-data="{&quot;isPaintingLayer&quot;:true}" fill-rule="nonzero" stroke-linecap="butt" stroke-linejoin="miter" stroke-miterlimit="10" stroke-dasharray="" stroke-dashoffset="0" style="mix-blend-mode: normal"><path d="M310.19461,180c0,-5.41537 4.39002,-9.80539 9.80539,-9.80539c5.41537,0 9.80539,4.39002 9.80539,9.80539c0,5.41537 -4.39002,9.80539 -9.80539,9.80539c-5.41537,0 -9.80539,-4.39002 -9.80539,-9.80539z" fill="url(#color-1)" stroke="url(#color-2)" stroke-width="8"/><path d="M308.5,180c0,-6.35128 5.14872,-11.5 11.5,-11.5c6.35128,0 11.5,5.14872 11.5,11.5c0,6.35128 -5.14872,11.5 -11.5,11.5c-6.35128,0 -11.5,-5.14872 -11.5,-11.5z" fill="none" stroke="url(#color-3)" stroke-width="8"/><text transform="translate(304.01814,169.03565) scale(0.09658,0.09658)" font-size="40" xml:space="preserve" fill="#ffffff" fill-rule="nonzero" stroke="none" stroke-width="1" stroke-linecap="butt" stroke-linejoin="miter" stroke-miterlimit="10" stroke-dasharray="" stroke-dashoffset="0" font-family="&quot;MV Boli&quot;, Technological" font-weight="normal" text-anchor="start" style="mix-blend-mode: normal"><tspan x="0" dy="0">Warp Gate Guard</tspan></text></g></g></svg>