<svg version="1.1" xmlns="http://www.w3.org/2000/svg" xmlns:xlink="http://www.w3.org/1999/xlink" width="1129.03354" height="849.03351" viewBox="0,0,1129.03354,849.03351"><defs><linearGradient x1="320.37539" y1="363.77076" x2="320.37539" y2="287.19416" gradientUnits="userSpaceOnUse" id="color-1"><stop offset="0" stop-color="#7100ff"/><stop offset="1" stop-color="#7100ff" stop-opacity="0"/></linearGradient><linearGradient x1="320.37537" y1="-4.09715" x2="320.37537" y2="72.47943" gradientUnits="userSpaceOnUse" id="color-2"><stop offset="0" stop-color="#7100ff"/><stop offset="1" stop-color="#7100ff" stop-opacity="0"/></linearGradient><linearGradient x1="-4.6997" y1="179.99999" x2="71.87689" y2="179.99999" gradientUnits="userSpaceOnUse" id="color-3"><stop offset="0" stop-color="#7100ff"/><stop offset="1" stop-color="#7100ff" stop-opacity="0"/></linearGradient><linearGradient x1="643.91775" y1="180.00001" x2="567.34115" y2="180.00001" gradientUnits="userSpaceOnUse" id="color-4"><stop offset="0" stop-color="#7100ff"/><stop offset="1" stop-color="#7100ff" stop-opacity="0"/></linearGradient></defs><g transform="translate(244.51677,244.51667)"><g data-paper-data="{&quot;isPaintingLayer&quot;:true}" fill-rule="nonzero" stroke="none" stroke-width="0" stroke-linecap="butt" stroke-linejoin="miter" stroke-miterlimit="10" stroke-dasharray="" stroke-dashoffset="0" style="mix-blend-mode: normal"><g><path d="M644.69972,287.19416v76.57657h-648.64865v-76.57657z" fill="url(#color-1)"/><path d="M-3.94896,72.47943v-76.57657h648.64865v76.57657z" fill="url(#color-2)"/><path d="M71.87689,364.09713h-76.57657v-368.19425h76.57657z" fill="url(#color-3)"/><path d="M567.34115,-4.09714h76.57657v368.19425h-76.57657z" fill="url(#color-4)"/></g><g fill="#7100ff"><path d="M-244.51677,450.00008v-540h244.51677v540z"/><path d="M640,450.00008v-540h244.51677v540z"/><path d="M-52.1021,-244.51666h744.2042v244.51677h-744.2042z"/><path d="M-52.1021,360.00008h744.2042v244.51677h-744.2042z"/></g></g></g></svg>