<svg version="1.1" xmlns="http://www.w3.org/2000/svg" xmlns:xlink="http://www.w3.org/1999/xlink" width="44.16431" height="48.62559" viewBox="0,0,44.16431,48.62559"><defs><radialGradient cx="319.97857" cy="180" r="17.05" gradientUnits="userSpaceOnUse" id="color-1"><stop offset="0" stop-color="#4200ff"/><stop offset="1" stop-color="#4200ff" stop-opacity="0"/></radialGradient><radialGradient cx="319.97857" cy="180" r="17.05" gradientUnits="userSpaceOnUse" id="color-2"><stop offset="0" stop-color="#ff0000"/><stop offset="1" stop-color="#ff0000" stop-opacity="0"/></radialGradient><radialGradient cx="319.97857" cy="180" r="11.88333" gradientUnits="userSpaceOnUse" id="color-3"><stop offset="0" stop-color="#ff0000"/><stop offset="1" stop-color="#ff0000" stop-opacity="0"/></radialGradient><radialGradient cx="321.30714" cy="180" r="17.05" gradientUnits="userSpaceOnUse" id="color-4"><stop offset="0" stop-color="#4200ff"/><stop offset="1" stop-color="#4200ff" stop-opacity="0"/></radialGradient><radialGradient cx="321.30714" cy="180" r="17.05" gradientUnits="userSpaceOnUse" id="color-5"><stop offset="0" stop-color="#ff0000"/><stop offset="1" stop-color="#ff0000" stop-opacity="0"/></radialGradient><radialGradient cx="321.30714" cy="180" r="11.88333" gradientUnits="userSpaceOnUse" id="color-6"><stop offset="0" stop-color="#ff0000"/><stop offset="1" stop-color="#ff0000" stop-opacity="0"/></radialGradient></defs><g transform="translate(-298.92857,-152.42441)"><g data-paper-data="{&quot;isPaintingLayer&quot;:true}" fill-rule="nonzero" stroke-linecap="butt" stroke-linejoin="miter" stroke-miterlimit="10" stroke-dasharray="" stroke-dashoffset="0" style="mix-blend-mode: normal"><g stroke-width="8"><path d="M302.92857,180c0,-9.41646 7.63354,-17.05 17.05,-17.05c9.41646,0 17.05,7.63354 17.05,17.05c0,9.41646 -7.63354,17.05 -17.05,17.05c-9.41646,0 -17.05,-7.63354 -17.05,-17.05z" fill="url(#color-1)" stroke="url(#color-2)"/><path d="M308.09524,180c0,-6.56299 5.32034,-11.88333 11.88333,-11.88333c6.56299,0 11.88333,5.32034 11.88333,11.88333c0,6.56299 -5.32034,11.88333 -11.88333,11.88333c-6.56299,0 -11.88333,-5.32034 -11.88333,-11.88333z" fill="none" stroke="url(#color-3)"/></g><g stroke-width="8"><path d="M304.25714,180c0,-9.41646 7.63354,-17.05 17.05,-17.05c9.41646,0 17.05,7.63354 17.05,17.05c0,9.41646 -7.63354,17.05 -17.05,17.05c-9.41646,0 -17.05,-7.63354 -17.05,-17.05z" fill="url(#color-4)" stroke="url(#color-5)"/><path d="M309.42381,180c0,-6.56298 5.32035,-11.88333 11.88333,-11.88333c6.56298,0 11.88333,5.32035 11.88333,11.88333c0,6.56298 -5.32035,11.88333 -11.88333,11.88333c-6.56298,0 -11.88333,-5.32035 -11.88333,-11.88333z" fill="none" stroke="url(#color-6)"/></g><text transform="translate(300.16184,162.11643) scale(0.20828,0.20828)" font-size="40" xml:space="preserve" fill="#00ff08" fill-rule="nonzero" stroke="#00ff09" stroke-width="2" stroke-linecap="butt" stroke-linejoin="miter" stroke-miterlimit="10" stroke-dasharray="" stroke-dashoffset="0" font-family="&quot;MV Boli&quot;, Technological" font-weight="normal" text-anchor="start" style="mix-blend-mode: normal"><tspan x="0" dy="0">Warp Gate</tspan></text></g></g></svg>