<svg version="1.1" xmlns="http://www.w3.org/2000/svg" xmlns:xlink="http://www.w3.org/1999/xlink" width="299.33334" height="299.33334" viewBox="0,0,299.33334,299.33334"><defs><linearGradient x1="321.14686" y1="253.9764" x2="309.96648" y2="293.10478" gradientUnits="userSpaceOnUse" id="color-1"><stop offset="0" stop-color="#000000"/><stop offset="1" stop-color="#82c9ff"/></linearGradient><linearGradient x1="311.47655" y1="288.96097" x2="300.40563" y2="327.7063" gradientUnits="userSpaceOnUse" id="color-2"><stop offset="0" stop-color="#000000"/><stop offset="1" stop-color="#82c9ff"/></linearGradient><linearGradient x1="375.94801" y1="193.28417" x2="367.42081" y2="223.09393" gradientUnits="userSpaceOnUse" id="color-3"><stop offset="0" stop-color="#000000"/><stop offset="1" stop-color="#82c9ff"/></linearGradient><linearGradient x1="368.57226" y1="219.93707" x2="360.12853" y2="249.455" gradientUnits="userSpaceOnUse" id="color-4"><stop offset="0" stop-color="#000000"/><stop offset="1" stop-color="#82c9ff"/></linearGradient><linearGradient x1="304.13552" y1="124.20765" x2="348.34264" y2="115.99588" gradientUnits="userSpaceOnUse" id="color-5"><stop offset="0" stop-color="#000000"/><stop offset="1" stop-color="#82c9ff"/></linearGradient><linearGradient x1="343.50041" y1="116.54307" x2="387.27476" y2="108.41169" gradientUnits="userSpaceOnUse" id="color-6"><stop offset="0" stop-color="#000000"/><stop offset="1" stop-color="#82c9ff"/></linearGradient><radialGradient cx="320.71814" cy="133.61081" r="55.04665" gradientUnits="userSpaceOnUse" id="color-7"><stop offset="0" stop-color="#81e9ff"/><stop offset="1" stop-color="#82bdff"/></radialGradient><radialGradient cx="321.56622" cy="245.91416" r="54.50775" gradientUnits="userSpaceOnUse" id="color-8"><stop offset="0" stop-color="#81e9ff"/><stop offset="1" stop-color="#82bdff"/></radialGradient><radialGradient cx="300.99307" cy="164.47958" r="12.50072" gradientUnits="userSpaceOnUse" id="color-9"><stop offset="0" stop-color="#000000"/><stop offset="1" stop-color="#82a8ff"/></radialGradient><radialGradient cx="300.99307" cy="164.47958" r="8.69932" gradientUnits="userSpaceOnUse" id="color-10"><stop offset="0" stop-color="#000000"/><stop offset="1" stop-color="#81e3ff"/></radialGradient><linearGradient x1="329.70375" y1="234.65413" x2="338.4257" y2="264.51036" gradientUnits="userSpaceOnUse" id="color-11"><stop offset="0" stop-color="#000000"/><stop offset="1" stop-color="#82c9ff"/></linearGradient><linearGradient x1="337.71282" y1="261.2156" x2="346.34938" y2="290.77957" gradientUnits="userSpaceOnUse" id="color-12"><stop offset="0" stop-color="#000000"/><stop offset="1" stop-color="#82c9ff"/></linearGradient><radialGradient cx="339.00693" cy="164.47958" r="12.50072" gradientUnits="userSpaceOnUse" id="color-13"><stop offset="0" stop-color="#000000"/><stop offset="1" stop-color="#82a8ff"/></radialGradient><radialGradient cx="339.00693" cy="164.47958" r="8.69932" gradientUnits="userSpaceOnUse" id="color-14"><stop offset="0" stop-color="#000000"/><stop offset="1" stop-color="#81e3ff"/></radialGradient><linearGradient x1="275.19609" y1="215.81277" x2="283.14452" y2="236.86806" gradientUnits="userSpaceOnUse" id="color-15"><stop offset="0" stop-color="#000000"/><stop offset="1" stop-color="#82c9ff"/></linearGradient><linearGradient x1="282.44745" y1="234.53067" x2="290.31806" y2="255.37983" gradientUnits="userSpaceOnUse" id="color-16"><stop offset="0" stop-color="#000000"/><stop offset="1" stop-color="#82c9ff"/></linearGradient><radialGradient cx="300.99307" cy="164.47958" r="28.97784" gradientUnits="userSpaceOnUse" id="color-17"><stop offset="0" stop-color="#000000" stop-opacity="0.51765"/><stop offset="1" stop-color="#000000" stop-opacity="0"/></radialGradient><radialGradient cx="339.00693" cy="164.47958" r="28.97784" gradientUnits="userSpaceOnUse" id="color-18"><stop offset="0" stop-color="#ffffff" stop-opacity="0.51765"/><stop offset="1" stop-color="#ffffff" stop-opacity="0"/></radialGradient><radialGradient cx="320" cy="180" r="149.66667" gradientUnits="userSpaceOnUse" id="color-19"><stop offset="0" stop-color="#000000" stop-opacity="0.51765"/><stop offset="1" stop-color="#000000" stop-opacity="0"/></radialGradient></defs><g transform="translate(-170.33333,-30.33333)"><g data-paper-data="{&quot;isPaintingLayer&quot;:true}" fill-rule="nonzero" stroke="none" stroke-width="0" stroke-linecap="butt" stroke-linejoin="miter" stroke-miterlimit="10" stroke-dasharray="" stroke-dashoffset="0" style="mix-blend-mode: normal"><g><path d="M329.17404,295.78117c0,0 -1.29232,0.33371 -3.09059,-0.18012c-4.546,-1.29895 -24.50384,-7.00161 -32.17063,-9.19228c-1.87461,-0.53565 -1.94671,1.55266 -1.94671,1.55266c0,0 -0.11656,-3.45861 1.43894,-5.16704c6.19251,-6.80132 21.96378,-24.12317 25.43823,-27.93921c1.32315,-1.45325 2.03172,-0.89361 2.03172,-0.89361c0,0 0.87238,-0.2361 1.20771,1.5866c0.87881,4.77689 4.87449,26.49558 6.67328,36.27296c0.5402,2.93632 0.41805,3.96003 0.41805,3.96003z" fill="url(#color-1)"/><path d="M292.66405,286.74896c0,0 0.22716,-1.09584 2.72233,-0.5477c8.62028,1.89367 28.2427,6.23212 31.99853,7.3053c1.20399,0.34402 1.88357,1.94415 1.88357,1.94415c0,0 0.08121,1.70602 -1.10796,3.01209c-5.39491,5.92531 -20.69388,22.72842 -24.72389,27.15464c-1.88556,2.07095 -3.26269,2.02265 -3.26269,2.02265c0,0 -1.14049,-0.3915 -1.6095,-2.94087c-1.00263,-5.44989 -4.83036,-26.25573 -6.48128,-35.22943c-0.4714,-2.56232 0.58088,-2.72083 0.58088,-2.72083z" fill="url(#color-2)"/></g><g><path d="M382.05462,225.13741c0,0 -0.98471,0.25397 -2.35472,-0.13792c-3.46335,-0.9907 -18.66813,-5.34009 -24.50903,-7.0109c-1.42816,-0.40853 -1.48357,1.18255 -1.48357,1.18255c0,0 -0.08803,-2.63517 1.09751,-3.93649c4.71965,-5.1806 16.73982,-18.37474 19.3879,-21.28144c1.00845,-1.10694 1.54818,-0.68039 1.54818,-0.68039c0,0 0.66472,-0.17969 0.91981,1.20911c0.6685,3.63975 3.70798,20.18833 5.07629,27.63821c0.41093,2.23733 0.31763,3.01727 0.31763,3.01727z" fill="url(#color-3)"/><path d="M354.23934,218.24749c0,0 0.17331,-0.83487 2.07428,-0.41668c6.56746,1.44475 21.51698,4.75464 24.37834,5.57314c0.91726,0.26239 1.43468,1.4817 1.43468,1.4817c0,0 0.06149,1.29985 -0.84484,2.29469c-4.11175,4.51334 -15.77196,17.31236 -18.84345,20.68383c-1.43709,1.57745 -2.48633,1.54034 -2.48633,1.54034c0,0 -0.86884,-0.29855 -1.22562,-2.24104c-0.7627,-4.15254 -3.67442,-20.00556 -4.93026,-26.84308c-0.35859,-1.95236 0.44321,-2.07291 0.44321,-2.07291z" fill="url(#color-4)"/></g><g><path d="M341.53041,95.68004c0,0 0.96651,1.11384 1.34392,3.14554c0.95406,5.13606 5.14256,27.68435 6.75156,36.34626c0.39342,2.11792 2.49443,1.16079 2.49443,1.16079c0,0 -3.36343,1.81858 -5.81926,1.12144c-9.77673,-2.77533 -34.67644,-9.84365 -40.1619,-11.40082c-2.08901,-0.59301 -1.88443,-1.56943 -1.88443,-1.56943c0,0 -0.66315,-0.74657 0.9745,-1.97588c4.29191,-3.22174 23.80557,-17.86986 32.59029,-24.46416c2.63821,-1.98038 3.71088,-2.36373 3.71088,-2.36373z" fill="url(#color-5)"/><path d="M350.57737,136.23944c0,0 -1.19573,0.315 -1.8824,-2.42286c-2.37234,-9.45874 -7.74497,-31.00342 -8.5332,-35.24674c-0.25269,-1.36028 0.99529,-2.82047 0.99529,-2.82047c0,0 1.6474,-0.9205 3.52485,-0.38754c8.51748,2.41787 32.67154,9.27452 39.03412,11.08068c2.97693,0.84506 3.60736,2.23093 3.60736,2.23093c0,0 0.17444,1.32083 -2.11611,3.04024c-4.89658,3.67566 -23.59007,17.70807 -31.65271,23.76035c-2.30218,1.72815 -2.9772,0.76541 -2.9772,0.76541z" fill="url(#color-6)"/></g><g><path d="M372.67138,188.50406c0,0 -3.11362,2.10296 -8.17334,2.10296c-12.79082,0 -68.94502,0 -90.51662,0c-5.27447,0 -3.90987,6.30887 -3.90987,6.30887c0,0 -2.8739,-10.24687 -0.09746,-16.6873c11.05309,-25.63954 39.20348,-90.93923 45.40508,-105.32492c2.36172,-5.47841 4.62083,-4.40994 4.62083,-4.40994c0,0 2.09379,-1.45197 4.32083,3.71404c5.83657,13.53893 32.3733,75.09546 44.31967,102.80713c3.58771,8.32231 4.03088,11.48916 4.03088,11.48916z" fill="url(#color-7)"/><path d="M270.98586,192.69214c0,0 -0.22362,-3.47234 6.67436,-3.96542c23.83118,-1.7035 78.09888,-5.49789 88.66644,-5.49789c3.38763,0 6.34472,4.20592 6.34472,4.20592c0,0 1.47929,5.03421 -0.64327,9.95784c-9.62944,22.33715 -36.93682,85.68133 -44.13005,102.36726c-3.36557,7.80701 -6.98375,8.83967 -6.98375,8.83967c0,0 -3.25765,-0.19633 -6.37257,-7.42193c-6.65888,-15.44641 -32.08023,-74.41563 -43.04464,-99.84947c-3.13074,-7.2623 -0.51125,-8.63598 -0.51125,-8.63598z" fill="url(#color-8)"/></g><g><path d="M281.98614,164.18715c0,-2.21651 6.9936,-4.00968 7.98056,-5.83038c2.17712,-4.01621 6.42946,-6.74344 11.31878,-6.74344c4.47017,0 8.40789,2.27968 10.71402,5.73987c1.35971,2.04016 8.0005,4.49071 8.0005,7.12636c0,2.21211 -6.40655,4.29383 -7.38988,6.11197c-2.17534,4.02213 -6.43093,6.75426 -11.32464,6.75426c-5.20929,0 -9.6955,-3.09586 -11.71914,-7.54809c-0.73674,-1.62091 -7.5802,-3.71402 -7.5802,-5.61056z" fill="#82a8ff"/><path d="M288.49235,164.47958c0,-6.90395 5.59676,-12.50071 12.50072,-12.50071c6.90395,0 12.50071,5.59676 12.50071,12.50071c0,6.90395 -5.59676,12.50071 -12.50071,12.50071c-6.90395,0 -12.50072,-5.59676 -12.50072,-12.50071z" fill="url(#color-9)"/><path d="M292.29375,164.47958c0,-4.80451 3.89482,-8.69933 8.69932,-8.69933c4.80451,0 8.69932,3.89482 8.69932,8.69933c0,4.80451 -3.89482,8.69932 -8.69932,8.69932c-4.80451,0 -8.69932,-3.89482 -8.69932,-8.69932z" fill="url(#color-10)"/></g><g><path d="M351.93544,258.41085c0,0 -0.69951,0.74258 -2.07166,1.14343c-3.46875,1.01334 -18.69723,5.46206 -24.54724,7.17103c-1.43039,0.41787 -0.62571,1.79746 -0.62571,1.79746c0,0 -1.48526,-2.18866 -1.17598,-3.92736c1.23123,-6.92178 4.36696,-24.55042 5.05777,-28.43405c0.26307,-1.47898 0.94933,-1.40599 0.94933,-1.40599c0,0 0.46779,-0.50827 1.42762,0.5335c2.51549,2.73026 13.95252,15.14371 19.10127,20.73204c1.54626,1.67827 1.8846,2.38994 1.8846,2.38994z" fill="url(#color-11)"/><path d="M324.64781,267.45433c0,0 -0.29985,-0.80111 1.53685,-1.46387c6.34543,-2.28969 20.80093,-7.48372 23.66674,-8.32092c0.91869,-0.26838 2.01037,0.48916 2.01037,0.48916c0,0 0.74796,1.06993 0.51152,2.39913c-1.07264,6.03025 -4.11447,23.13098 -4.91574,27.6356c-0.37489,2.10762 -1.28497,2.63778 -1.28497,2.63778c0,0 -0.89697,0.21179 -2.23946,-1.24532c-2.86991,-3.11491 -13.82622,-15.00662 -18.55176,-20.13559c-1.34932,-1.46451 -0.73356,-1.99597 -0.73356,-1.99597z" fill="url(#color-12)"/></g><g><path d="M320,164.18715c0,-2.21651 6.9936,-4.00968 7.98056,-5.83038c2.17712,-4.01621 6.42946,-6.74344 11.31878,-6.74344c4.47017,0 8.40789,2.27968 10.71402,5.73987c1.35971,2.04016 8.0005,4.49071 8.0005,7.12636c0,2.21211 -6.40655,4.29383 -7.38988,6.11197c-2.17534,4.02213 -6.43093,6.75426 -11.32464,6.75426c-5.20929,0 -9.6955,-3.09586 -11.71915,-7.54809c-0.73674,-1.62091 -7.5802,-3.71402 -7.5802,-5.61056z" fill="#82a8ff"/><path d="M326.50622,164.47958c0,-6.90395 5.59676,-12.50071 12.50072,-12.50071c6.90395,0 12.50071,5.59676 12.50071,12.50071c0,6.90395 -5.59675,12.50071 -12.50071,12.50071c-6.90395,0 -12.50072,-5.59676 -12.50072,-12.50071z" fill="url(#color-13)"/><path d="M330.3076,164.47958c0,-4.80451 3.89483,-8.69933 8.69933,-8.69933c4.80451,0 8.69932,3.89482 8.69932,8.69933c0,4.80451 -3.89482,8.69932 -8.69932,8.69932c-4.80451,0 -8.69933,-3.89482 -8.69933,-8.69932z" fill="url(#color-14)"/></g><g><path d="M292.55247,231.71829c0,0 -0.46346,0.57451 -1.43113,0.93981c-2.44624,0.92346 -13.18571,4.97764 -17.31126,6.53504c-1.00874,0.3808 -0.3517,1.33144 -0.3517,1.33144c0,0 -1.19291,-1.49656 -1.06625,-2.76806c0.50428,-5.06186 1.78861,-17.95357 2.07154,-20.79366c0.10775,-1.08157 0.60688,-1.06699 0.60688,-1.06699c0,0 0.30928,-0.39263 1.05952,0.3057c1.96619,1.83014 10.90576,10.15112 14.9302,13.89708c1.20861,1.12498 1.49218,1.61963 1.49218,1.61963z" fill="url(#color-15)"/><path d="M273.36807,239.75617c0,0 -0.26077,-0.56131 1.02752,-1.14132c4.45075,-2.00384 14.59122,-6.55281 16.61226,-7.31576c0.64788,-0.24458 1.47747,0.24137 1.47747,0.24137c0,0 0.59895,0.73039 0.50211,1.70243c-0.43933,4.40989 -1.68519,16.91555 -2.01337,20.20975c-0.15355,1.54129 -0.7807,1.97425 -0.7807,1.97425c0,0 -0.63535,0.20254 -1.68469,-0.77419c-2.24321,-2.08799 -10.80704,-10.05923 -14.50068,-13.49728c-1.05467,-0.98169 -0.63993,-1.39925 -0.63993,-1.39925z" fill="url(#color-16)"/></g><path d="M272.01523,164.47958c0,-16.00402 12.97382,-28.97784 28.97784,-28.97784c16.00401,0 28.97784,12.97382 28.97784,28.97784c0,16.00402 -12.97382,28.97784 -28.97784,28.97784c-16.00401,0 -28.97784,-12.97382 -28.97784,-28.97784z" fill="url(#color-17)"/><path d="M310.02909,164.47958c0,-16.00402 12.97382,-28.97784 28.97784,-28.97784c16.00401,0 28.97784,12.97382 28.97784,28.97784c0,16.00402 -12.97382,28.97784 -28.97784,28.97784c-16.00401,0 -28.97784,-12.97382 -28.97784,-28.97784z" fill="url(#color-18)"/><path d="M170.33333,180c0,-82.6586 67.00805,-149.66667 149.66667,-149.66667c82.6586,0 149.66667,67.00805 149.66667,149.66667c0,82.6586 -67.00804,149.66667 -149.66667,149.66667c-82.6586,0 -149.66667,-67.00804 -149.66667,-149.66667z" fill="url(#color-19)"/></g></g></svg>