<svg version="1.1" xmlns="http://www.w3.org/2000/svg" xmlns:xlink="http://www.w3.org/1999/xlink" width="69.26591" height="69.26591" viewBox="0,0,69.26591,69.26591"><defs><radialGradient cx="320" cy="180" r="34.63295" gradientUnits="userSpaceOnUse" id="color-1"><stop offset="0" stop-color="#704002" stop-opacity="0.24314"/><stop offset="1" stop-color="#704002" stop-opacity="0"/></radialGradient><radialGradient cx="312.91599" cy="178.11093" r="16.21452" gradientUnits="userSpaceOnUse" id="color-2"><stop offset="0" stop-color="#704002" stop-opacity="0.24314"/><stop offset="1" stop-color="#704002" stop-opacity="0"/></radialGradient><radialGradient cx="320.62969" cy="178.11093" r="16.21452" gradientUnits="userSpaceOnUse" id="color-3"><stop offset="0" stop-color="#704002" stop-opacity="0.24314"/><stop offset="1" stop-color="#704002" stop-opacity="0"/></radialGradient><radialGradient cx="324.8801" cy="181.88907" r="16.21452" gradientUnits="userSpaceOnUse" id="color-4"><stop offset="0" stop-color="#704002" stop-opacity="0.24314"/><stop offset="1" stop-color="#704002" stop-opacity="0"/></radialGradient><radialGradient cx="312.91599" cy="181.88907" r="16.21452" gradientUnits="userSpaceOnUse" id="color-5"><stop offset="0" stop-color="#704002" stop-opacity="0.24314"/><stop offset="1" stop-color="#704002" stop-opacity="0"/></radialGradient></defs><g transform="translate(-285.36705,-145.36705)"><g data-paper-data="{&quot;isPaintingLayer&quot;:true}" fill-rule="nonzero" stroke="none" stroke-linecap="butt" stroke-linejoin="miter" stroke-miterlimit="10" stroke-dasharray="" stroke-dashoffset="0" style="mix-blend-mode: normal"><path d="M285.36705,180c0,-19.12725 15.5057,-34.63295 34.63295,-34.63295c19.12725,0 34.63295,15.5057 34.63295,34.63295c0,19.12725 -15.5057,34.63295 -34.63295,34.63295c-19.12725,0 -34.63295,-15.5057 -34.63295,-34.63295z" fill="url(#color-1)" stroke-width="0"/><path d="M313.7031,185.43108c-2.78215,0 -5.03752,-2.25537 -5.03752,-5.03752v-0.78711c0,-2.78215 2.25537,-5.03752 5.03752,-5.03752h12.5938c2.78215,0 5.03752,2.25537 5.03752,5.03752v0.78711c0,2.78215 -2.25537,5.03752 -5.03752,5.03752z" fill="#f5d09f" stroke-width="NaN"/><path d="M296.70147,178.11093c0,-8.95504 7.2595,-16.21452 16.21452,-16.21452c8.95502,0 16.21452,7.25948 16.21452,16.21452c0,8.95504 -7.2595,16.21452 -16.21452,16.21452c-8.95502,0 -16.21452,-7.25948 -16.21452,-16.21452z" fill="url(#color-2)" stroke-width="0"/><path d="M304.41517,178.11093c0,-8.95504 7.2595,-16.21452 16.21452,-16.21452c8.95502,0 16.21452,7.25948 16.21452,16.21452c0,8.95504 -7.2595,16.21452 -16.21452,16.21452c-8.95502,0 -16.21452,-7.25948 -16.21452,-16.21452z" fill="url(#color-3)" stroke-width="0"/><path d="M308.66558,181.88907c0,-8.95504 7.2595,-16.21452 16.21452,-16.21452c8.95502,0 16.21452,7.25948 16.21452,16.21452c0,8.95504 -7.2595,16.21452 -16.21452,16.21452c-8.95502,0 -16.21452,-7.25948 -16.21452,-16.21452z" fill="url(#color-4)" stroke-width="0"/><path d="M296.70147,181.88907c0,-8.95504 7.2595,-16.21452 16.21452,-16.21452c8.95502,0 16.21452,7.25948 16.21452,16.21452c0,8.95504 -7.2595,16.21452 -16.21452,16.21452c-8.95502,0 -16.21452,-7.25948 -16.21452,-16.21452z" fill="url(#color-5)" stroke-width="0"/></g></g></svg>