<svg version="1.1" xmlns="http://www.w3.org/2000/svg" xmlns:xlink="http://www.w3.org/1999/xlink" width="226" height="226" viewBox="0,0,226,226"><defs><linearGradient x1="320.08384" y1="98.0988" x2="320.08384" y2="262.73952" gradientUnits="userSpaceOnUse" id="color-1"><stop offset="0" stop-color="#5d9369"/><stop offset="1" stop-color="#37a14b"/></linearGradient><radialGradient cx="320" cy="180" r="113" gradientUnits="userSpaceOnUse" id="color-2"><stop offset="0" stop-color="#616161"/><stop offset="1" stop-color="#616161" stop-opacity="0"/></radialGradient></defs><g transform="translate(-207,-67)"><g data-paper-data="{&quot;isPaintingLayer&quot;:true}" fill-rule="nonzero" stroke-linecap="butt" stroke-linejoin="miter" stroke-miterlimit="10" stroke-dasharray="" stroke-dashoffset="0" style="mix-blend-mode: normal"><path d="M237.76348,239.25931c0,-38.7672 0,-113.4924 0,-129.61078c0,-6.04065 7.33214,-11.54973 14.87044,-11.54973c18.51636,0 98.08968,0 133.11378,0c10.22774,0 16.6565,6.14166 16.6565,12.71739c0,17.31352 0,96.41082 0,133.11378c0,11.47771 -8.34171,18.80955 -16.6565,18.80955c-18.8093,0 -94.30532,0 -129.61078,0c-11.21413,0 -18.37344,-9.35235 -18.37344,-23.48021z" fill="url(#color-1)" stroke="none" stroke-width="0"/><path d="M297.31438,180.41916c0,-12.57523 10.19423,-22.76946 22.76946,-22.76946c12.57523,0 22.76946,10.19423 22.76946,22.76946c0,12.57523 -10.19423,22.76946 -22.76946,22.76946c-12.57523,0 -22.76946,-10.19423 -22.76946,-22.76946z" fill="#616161" stroke="#000000" stroke-width="4.5"/><path d="M224.33532,252.23054c0,-12.57523 10.19422,-22.76946 22.76946,-22.76946c12.57524,0 22.76946,10.19423 22.76946,22.76946c0,12.57523 -10.19422,22.76946 -22.76946,22.76946c-12.57524,0 -22.76946,-10.19423 -22.76946,-22.76946z" fill="#489b58" stroke="#000000" stroke-width="4.5"/><path d="M368.54192,251.06288c0,-12.57523 10.19423,-22.76946 22.76946,-22.76946c12.57524,0 22.76946,10.19423 22.76946,22.76946c0,12.57523 -10.19422,22.76946 -22.76946,22.76946c-12.57523,0 -22.76946,-10.19423 -22.76946,-22.76946z" fill="#489b58" stroke="#000000" stroke-width="4.5"/><path d="M371.46108,102.76946c0,-12.57523 10.19422,-22.76946 22.76946,-22.76946c12.57524,0 22.76946,10.19423 22.76946,22.76946c0,12.57523 -10.19422,22.76946 -22.76946,22.76946c-12.57524,0 -22.76946,-10.19423 -22.76946,-22.76946z" fill="#489b58" stroke="#000000" stroke-width="4.5"/><path d="M222,105.1048c0,-12.57523 10.19422,-22.76946 22.76946,-22.76946c12.57524,0 22.76946,10.19423 22.76946,22.76946c0,12.57523 -10.19422,22.76946 -22.76946,22.76946c-12.57524,0 -22.76946,-10.19423 -22.76946,-22.76946z" fill="#489b58" stroke="#000000" stroke-width="4.5"/><path d="M207,180c0,-62.40817 50.59182,-113 113,-113c62.40818,0 113,50.59183 113,113c0,62.40818 -50.59182,113 -113,113c-62.40818,0 -113,-50.59182 -113,-113z" fill="url(#color-2)" stroke="none" stroke-width="0"/></g></g></svg>