<svg version="1.1" xmlns="http://www.w3.org/2000/svg" xmlns:xlink="http://www.w3.org/1999/xlink" width="43.75" height="34.01985" viewBox="0,0,43.75,34.01985"><g transform="translate(-298.125,-149.35515)"><g data-paper-data="{&quot;isPaintingLayer&quot;:true}" fill-rule="nonzero" stroke-linecap="butt" stroke-linejoin="miter" stroke-miterlimit="10" stroke-dasharray="" stroke-dashoffset="0" style="mix-blend-mode: normal"><path d="M300.03905,170.31282c0,-4.51869 0,-13.01338 0,-15.4348c0,-1.26567 2.60172,-2.61607 5.03442,-2.61607c4.74667,0 21.62775,0 30.06113,0c2.95133,0 4.86806,1.50665 4.86806,2.87768c0,2.332 0,9.82189 0,14.38837c0,2.15754 -3.14032,3.66249 -5.92905,3.66249c-4.94885,0 -21.23824,0 -29.3538,0c-2.84135,0 -4.68077,-1.14732 -4.68077,-2.87767z" fill-opacity="0.70196" fill="#000000" stroke="none" stroke-width="0"/><text transform="translate(303.11906,167.17492) scale(0.38559,0.38559)" font-size="40" xml:space="preserve" fill="#66ffff" fill-rule="nonzero" stroke="none" stroke-width="1" stroke-linecap="butt" stroke-linejoin="miter" stroke-miterlimit="10" stroke-dasharray="" stroke-dashoffset="0" font-family="&quot;MV Boli&quot;, Sans Serif" font-weight="normal" text-anchor="start" style="mix-blend-mode: normal"><tspan x="0" dy="0">Dash</tspan></text><path d="M301.125,182.375c-1.10457,0 -2,-0.89543 -2,-2v-0.75c0,-1.10457 0.89543,-2 2,-2h37.75c1.10457,0 2,0.89543 2,2v0.75c0,1.10457 -0.89543,2 -2,2z" fill="#66ffff" stroke="#333333" stroke-width="2"/><path d="M300.71097,181.46062c-0.39266,0 -0.71097,-0.51178 -0.71097,-1.1431v-0.63505c0,-0.63132 0.31831,-1.1431 0.71097,-1.1431h26.66139c0.39266,0 0.71097,0.51178 0.71097,1.1431v0.63505c0,0.63132 -0.31831,1.1431 -0.71097,1.1431z" fill="#6d0000" stroke="none" stroke-width="0"/></g></g></svg>